<?xml version="1.0" encoding="utf-8" standalone="no"?>
<!DOCTYPE svg PUBLIC "-//W3C//DTD SVG 1.1//EN"
  "http://www.w3.org/Graphics/SVG/1.1/DTD/svg11.dtd">
<!-- Created with matplotlib (https://matplotlib.org/) -->
<svg height="288pt" version="1.1" viewBox="0 0 864 288" width="864pt" xmlns="http://www.w3.org/2000/svg" xmlns:xlink="http://www.w3.org/1999/xlink">
 <defs>
  <style type="text/css">
*{stroke-linecap:butt;stroke-linejoin:round;}
  </style>
 </defs>
 <g id="figure_1">
  <g id="patch_1">
   <path d="M 0 288 
L 864 288 
L 864 0 
L 0 0 
z
" style="fill:#ffffff;"/>
  </g>
  <g id="axes_1">
   <g id="patch_2">
    <path d="M 53.013209 250.443666 
L 860.99976 250.443666 
L 860.99976 3.00024 
L 53.013209 3.00024 
z
" style="fill:#ffffff;"/>
   </g>
   <g id="matplotlib.axis_1">
    <g id="xtick_1">
     <g id="line2d_1">
      <path clip-path="url(#p52d56505f2)" d="M 89.73987 250.443666 
L 89.73987 3.00024 
" style="fill:none;stroke:#cccccc;stroke-dasharray:0.8,1.32;stroke-dashoffset:0;stroke-width:0.8;"/>
     </g>
     <g id="line2d_2"/>
     <g id="text_1">
      <!-- 0.0 -->
      <defs>
       <path d="M 30.796875 -0.59375 
Q 22.203125 -0.59375 16.046875 4 
Q 9.90625 8.59375 6.75 16.1875 
Q 3.59375 23.796875 3.59375 32.59375 
Q 3.59375 41.40625 6.75 48.90625 
Q 9.90625 56.40625 16.046875 60.953125 
Q 22.203125 65.5 30.796875 65.5 
Q 39.40625 65.5 45.59375 60.953125 
Q 51.796875 56.40625 54.9375 48.84375 
Q 58.09375 41.296875 58.09375 32.59375 
Q 58.09375 23.796875 54.9375 16.1875 
Q 51.796875 8.59375 45.59375 4 
Q 39.40625 -0.59375 30.796875 -0.59375 
z
M 30.796875 1.296875 
Q 37.90625 1.203125 43.65625 5 
Q 49.40625 8.796875 52.75 15.890625 
Q 56.09375 23 56.09375 32.5 
Q 56.09375 42 52.75 49.046875 
Q 49.40625 56.09375 43.65625 59.890625 
Q 37.90625 63.703125 30.796875 63.59375 
Q 23.703125 63.703125 18 59.890625 
Q 12.296875 56.09375 8.9375 49.046875 
Q 5.59375 42 5.59375 32.5 
Q 5.59375 23 8.9375 15.890625 
Q 12.296875 8.796875 18 5 
Q 23.703125 1.203125 30.796875 1.296875 
z
" id="JosefinSans-Thin-48"/>
       <path d="M 7.09375 2.203125 
Q 7.09375 3.203125 7.796875 3.84375 
Q 8.5 4.5 9.40625 4.5 
Q 10.296875 4.5 10.9375 3.84375 
Q 11.59375 3.203125 11.59375 2.203125 
Q 11.59375 1.296875 10.9375 0.640625 
Q 10.296875 0 9.40625 0 
Q 8.5 0 7.796875 0.640625 
Q 7.09375 1.296875 7.09375 2.203125 
z
" id="JosefinSans-Thin-46"/>
      </defs>
      <g style="fill:#262626;" transform="translate(79.79987 264.472104)scale(0.14 -0.14)">
       <use xlink:href="#JosefinSans-Thin-48"/>
       <use x="61.699997" xlink:href="#JosefinSans-Thin-46"/>
       <use x="80.299988" xlink:href="#JosefinSans-Thin-48"/>
      </g>
     </g>
    </g>
    <g id="xtick_2">
     <g id="line2d_3">
      <path clip-path="url(#p52d56505f2)" d="M 236.646516 250.443666 
L 236.646516 3.00024 
" style="fill:none;stroke:#cccccc;stroke-dasharray:0.8,1.32;stroke-dashoffset:0;stroke-width:0.8;"/>
     </g>
     <g id="line2d_4"/>
     <g id="text_2">
      <!-- 0.2 -->
      <defs>
       <path d="M 45.296875 1.90625 
L 45.296875 0 
L 5.296875 0 
Q 16.296875 10.59375 23.046875 17.84375 
Q 29.796875 25.09375 34.296875 32.4375 
Q 38.796875 39.796875 38.796875 46.296875 
Q 38.796875 52.59375 36.34375 56.546875 
Q 33.90625 60.5 30.296875 62.25 
Q 26.703125 64 23 64 
Q 17 64 13.390625 61.296875 
Q 9.796875 58.59375 8.34375 54.6875 
Q 6.90625 50.796875 6.90625 46.90625 
Q 6.90625 39.703125 10.796875 35.5 
L 9.59375 34.40625 
Q 4.90625 39.59375 4.90625 46.796875 
Q 4.90625 55.09375 9.75 60.5 
Q 14.59375 65.90625 23.09375 65.90625 
Q 28.296875 65.90625 32.34375 63.40625 
Q 36.40625 60.90625 38.59375 56.453125 
Q 40.796875 52 40.796875 46.40625 
Q 40.796875 40.296875 37.25 33.84375 
Q 33.703125 27.40625 28.640625 21.59375 
Q 23.59375 15.796875 15.296875 7.5 
L 9.796875 1.90625 
z
" id="JosefinSans-Thin-50"/>
      </defs>
      <g style="fill:#262626;" transform="translate(227.554172 264.472104)scale(0.14 -0.14)">
       <use xlink:href="#JosefinSans-Thin-48"/>
       <use x="61.699997" xlink:href="#JosefinSans-Thin-46"/>
       <use x="80.299988" xlink:href="#JosefinSans-Thin-50"/>
      </g>
     </g>
    </g>
    <g id="xtick_3">
     <g id="line2d_5">
      <path clip-path="url(#p52d56505f2)" d="M 383.553162 250.443666 
L 383.553162 3.00024 
" style="fill:none;stroke:#cccccc;stroke-dasharray:0.8,1.32;stroke-dashoffset:0;stroke-width:0.8;"/>
     </g>
     <g id="line2d_6"/>
     <g id="text_3">
      <!-- 0.4 -->
      <defs>
       <path d="M 48.796875 19.90625 
L 48.796875 18.09375 
L 39.203125 18.09375 
L 39.203125 0 
L 37.203125 0 
L 37.203125 18.09375 
L 2.296875 18.09375 
L 2.296875 18.203125 
L 39.09375 65.90625 
L 39.203125 65.90625 
L 39.203125 19.90625 
z
M 37.203125 19.90625 
L 37.203125 60.5 
L 5.796875 19.90625 
z
" id="JosefinSans-Thin-52"/>
      </defs>
      <g style="fill:#262626;" transform="translate(374.390818 264.472104)scale(0.14 -0.14)">
       <use xlink:href="#JosefinSans-Thin-48"/>
       <use x="61.699997" xlink:href="#JosefinSans-Thin-46"/>
       <use x="80.299988" xlink:href="#JosefinSans-Thin-52"/>
      </g>
     </g>
    </g>
    <g id="xtick_4">
     <g id="line2d_7">
      <path clip-path="url(#p52d56505f2)" d="M 530.459807 250.443666 
L 530.459807 3.00024 
" style="fill:none;stroke:#cccccc;stroke-dasharray:0.8,1.32;stroke-dashoffset:0;stroke-width:0.8;"/>
     </g>
     <g id="line2d_8"/>
     <g id="text_4">
      <!-- 0.6 -->
      <defs>
       <path d="M 25.796875 39.703125 
Q 31.296875 39.703125 35.9375 36.953125 
Q 40.59375 34.203125 43.34375 29.546875 
Q 46.09375 24.90625 46.09375 19.40625 
Q 46.09375 13.90625 43.34375 9.25 
Q 40.59375 4.59375 35.84375 1.890625 
Q 31.09375 -0.796875 25.5 -0.796875 
Q 19.90625 -0.796875 15.15625 1.953125 
Q 10.40625 4.703125 7.65625 9.390625 
Q 4.90625 14.09375 4.90625 19.703125 
Q 4.90625 29.09375 9.703125 37.09375 
Q 14.5 45.09375 21.046875 50.9375 
Q 27.59375 56.796875 37.90625 64.40625 
L 39.203125 62.703125 
Q 27.703125 55 20.25 47.34375 
Q 12.796875 39.703125 9.90625 32.703125 
Q 12.796875 36.09375 16.9375 37.890625 
Q 21.09375 39.703125 25.796875 39.703125 
z
M 25.40625 1 
Q 30.5 1 34.796875 3.453125 
Q 39.09375 5.90625 41.59375 10.15625 
Q 44.09375 14.40625 44.09375 19.40625 
Q 44.09375 24.5 41.59375 28.75 
Q 39.09375 33 34.796875 35.453125 
Q 30.5 37.90625 25.40625 37.90625 
Q 20.296875 37.90625 16.046875 35.65625 
Q 11.796875 33.40625 9.296875 29.40625 
Q 6.796875 25.40625 6.796875 20.203125 
L 6.796875 19.40625 
Q 6.796875 14.40625 9.296875 10.203125 
Q 11.796875 6 16.046875 3.5 
Q 20.296875 1 25.40625 1 
z
" id="JosefinSans-Thin-54"/>
      </defs>
      <g style="fill:#262626;" transform="translate(521.199026 264.472104)scale(0.14 -0.14)">
       <use xlink:href="#JosefinSans-Thin-48"/>
       <use x="61.699997" xlink:href="#JosefinSans-Thin-46"/>
       <use x="80.299988" xlink:href="#JosefinSans-Thin-54"/>
      </g>
     </g>
    </g>
    <g id="xtick_5">
     <g id="line2d_9">
      <path clip-path="url(#p52d56505f2)" d="M 677.366453 250.443666 
L 677.366453 3.00024 
" style="fill:none;stroke:#cccccc;stroke-dasharray:0.8,1.32;stroke-dashoffset:0;stroke-width:0.8;"/>
     </g>
     <g id="line2d_10"/>
     <g id="text_5">
      <!-- 0.8 -->
      <defs>
       <path d="M 4.90625 19.59375 
Q 4.90625 26.5 9.09375 31.84375 
Q 13.296875 37.203125 19.796875 39 
Q 15.59375 40.40625 13 43.75 
Q 10.40625 47.09375 10.40625 51.203125 
Q 10.40625 57.59375 14.40625 61.75 
Q 18.40625 65.90625 25 65.90625 
Q 31.59375 65.90625 35.59375 61.703125 
Q 39.59375 57.5 39.59375 51.09375 
Q 39.59375 47 37.09375 43.703125 
Q 34.59375 40.40625 30.59375 39 
Q 37.296875 37.296875 41.640625 31.9375 
Q 46 26.59375 46 19.59375 
Q 46 14.09375 43.203125 9.390625 
Q 40.40625 4.703125 35.65625 1.953125 
Q 30.90625 -0.796875 25.296875 -0.796875 
Q 19.703125 -0.796875 15.046875 1.953125 
Q 10.40625 4.703125 7.65625 9.390625 
Q 4.90625 14.09375 4.90625 19.59375 
z
M 12.296875 51.09375 
Q 12.296875 46.203125 16.046875 42.953125 
Q 19.796875 39.703125 25.203125 39.703125 
Q 30.5 39.703125 34.046875 42.953125 
Q 37.59375 46.203125 37.59375 51.09375 
Q 37.59375 56.90625 34.09375 60.5 
Q 30.59375 64.09375 25.203125 64.09375 
Q 19.703125 64.09375 16 60.5 
Q 12.296875 56.90625 12.296875 51.09375 
z
M 6.796875 19.59375 
Q 6.796875 14.703125 9.25 10.390625 
Q 11.703125 6.09375 15.890625 3.546875 
Q 20.09375 1 25.09375 1 
Q 30.203125 1 34.546875 3.546875 
Q 38.90625 6.09375 41.453125 10.390625 
Q 44 14.703125 44 19.59375 
Q 44 24.59375 41.453125 28.796875 
Q 38.90625 33 34.546875 35.5 
Q 30.203125 38 25.09375 38 
Q 20.09375 38 15.890625 35.5 
Q 11.703125 33 9.25 28.796875 
Q 6.796875 24.59375 6.796875 19.59375 
z
" id="JosefinSans-Thin-56"/>
      </defs>
      <g style="fill:#262626;" transform="translate(668.18989 264.472104)scale(0.14 -0.14)">
       <use xlink:href="#JosefinSans-Thin-48"/>
       <use x="61.699997" xlink:href="#JosefinSans-Thin-46"/>
       <use x="80.299988" xlink:href="#JosefinSans-Thin-56"/>
      </g>
     </g>
    </g>
    <g id="xtick_6">
     <g id="line2d_11">
      <path clip-path="url(#p52d56505f2)" d="M 824.273099 250.443666 
L 824.273099 3.00024 
" style="fill:none;stroke:#cccccc;stroke-dasharray:0.8,1.32;stroke-dashoffset:0;stroke-width:0.8;"/>
     </g>
     <g id="line2d_12"/>
     <g id="text_6">
      <!-- 1.0 -->
      <defs>
       <path d="M 19 65.09375 
L 19 0 
L 17 0 
L 17 63.09375 
L 5.90625 63.09375 
L 5.90625 65.09375 
z
" id="JosefinSans-Thin-49"/>
      </defs>
      <g style="fill:#262626;" transform="translate(816.496536 264.472104)scale(0.14 -0.14)">
       <use xlink:href="#JosefinSans-Thin-49"/>
       <use x="30.799988" xlink:href="#JosefinSans-Thin-46"/>
       <use x="49.399979" xlink:href="#JosefinSans-Thin-48"/>
      </g>
     </g>
    </g>
    <g id="text_7">
     <!-- proportion water (p) -->
     <defs>
      <path d="M 29.40625 38.59375 
Q 34.703125 38.59375 39.203125 35.9375 
Q 43.703125 33.296875 46.296875 28.796875 
Q 48.90625 24.296875 48.90625 18.90625 
Q 48.90625 13.5 46.296875 9.046875 
Q 43.703125 4.59375 39.203125 2 
Q 34.703125 -0.59375 29.296875 -0.59375 
Q 23.40625 -0.59375 18.59375 2.5 
Q 13.796875 5.59375 11.40625 10.703125 
L 11.40625 -18.09375 
L 9.40625 -18.09375 
L 9.40625 37.796875 
L 11.296875 37.796875 
L 11.40625 27 
Q 13.796875 32.203125 18.640625 35.390625 
Q 23.5 38.59375 29.40625 38.59375 
z
M 29.09375 1.09375 
Q 34 1.09375 38.046875 3.5 
Q 42.09375 5.90625 44.5 10 
Q 46.90625 14.09375 46.90625 18.90625 
Q 46.90625 23.796875 44.5 27.9375 
Q 42.09375 32.09375 38.046875 34.5 
Q 34 36.90625 29.203125 36.90625 
Q 24.40625 36.90625 20.34375 34.5 
Q 16.296875 32.09375 13.84375 28.046875 
Q 11.40625 24 11.40625 19.203125 
L 11.40625 18.203125 
Q 11.5 13.59375 13.953125 9.640625 
Q 16.40625 5.703125 20.40625 3.390625 
Q 24.40625 1.09375 29.09375 1.09375 
z
" id="JosefinSans-Thin-112"/>
      <path d="M 11.203125 27.59375 
Q 13 32.59375 17.546875 35.5 
Q 22.09375 38.40625 27.703125 38.5 
L 27.59375 36.703125 
Q 23.203125 36.5 19.5 34.59375 
Q 15.796875 32.703125 13.59375 29.34375 
Q 11.40625 26 11.40625 21.796875 
L 11.40625 0 
L 9.40625 0 
L 9.40625 37.796875 
L 10.90625 37.796875 
L 11.203125 27.59375 
z
" id="JosefinSans-Thin-114"/>
      <path d="M 5.40625 19 
Q 5.40625 24.40625 8.046875 28.90625 
Q 10.703125 33.40625 15.203125 36.046875 
Q 19.703125 38.703125 25.09375 38.703125 
Q 30.5 38.703125 35.046875 36.046875 
Q 39.59375 33.40625 42.25 28.90625 
Q 44.90625 24.40625 44.90625 19 
Q 44.90625 13.59375 42.25 9.09375 
Q 39.59375 4.59375 35.046875 2 
Q 30.5 -0.59375 25.09375 -0.59375 
Q 19.703125 -0.59375 15.140625 1.953125 
Q 10.59375 4.5 8 9 
Q 5.40625 13.5 5.40625 19 
z
M 7.40625 19 
Q 7.40625 14.09375 9.75 10 
Q 12.09375 5.90625 16.140625 3.5 
Q 20.203125 1.09375 25.09375 1.09375 
Q 29.90625 1.09375 33.953125 3.5 
Q 38 5.90625 40.390625 10 
Q 42.796875 14.09375 42.796875 19 
Q 42.796875 23.796875 40.390625 27.9375 
Q 38 32.09375 33.953125 34.5 
Q 29.90625 36.90625 25.09375 36.90625 
Q 20.203125 36.90625 16.09375 34.34375 
Q 12 31.796875 9.703125 27.640625 
Q 7.40625 23.5 7.40625 19 
z
" id="JosefinSans-Thin-111"/>
      <path d="M 15.296875 54.296875 
L 15.296875 37 
L 27.90625 37 
L 27.90625 35.296875 
L 15.296875 35.296875 
L 15.296875 0 
L 13.296875 0 
L 13.296875 35.296875 
L 4.5 35.296875 
L 4.5 37 
L 13.296875 37 
L 13.296875 54.296875 
z
" id="JosefinSans-Thin-116"/>
      <path d="M 11.40625 37.796875 
L 11.40625 0 
L 9.40625 0 
L 9.40625 37.796875 
z
M 8.203125 49.703125 
Q 8.203125 50.609375 8.84375 51.25 
Q 9.5 51.90625 10.5 51.90625 
Q 11.40625 51.90625 12.046875 51.25 
Q 12.703125 50.609375 12.703125 49.703125 
Q 12.703125 48.796875 12.046875 48.140625 
Q 11.40625 47.5 10.5 47.5 
Q 9.59375 47.5 8.890625 48.203125 
Q 8.203125 48.90625 8.203125 49.703125 
z
" id="JosefinSans-Thin-105"/>
      <path d="M 27.59375 38.5 
Q 32.796875 38.5 35.9375 35.390625 
Q 39.09375 32.296875 39.296875 27.296875 
L 39.296875 0 
L 37.296875 0 
L 37.296875 27.09375 
Q 37.09375 31.296875 34.546875 33.9375 
Q 32 36.59375 27.40625 36.796875 
Q 23.203125 36.796875 19.546875 34.890625 
Q 15.90625 33 13.65625 29.59375 
Q 11.40625 26.203125 11.40625 21.90625 
L 11.40625 0 
L 9.40625 0 
L 9.40625 37.796875 
L 10.90625 37.796875 
L 11.203125 27.703125 
Q 13 32.703125 17.5 35.59375 
Q 22 38.5 27.59375 38.5 
z
" id="JosefinSans-Thin-110"/>
      <path id="JosefinSans-Thin-32"/>
      <path d="M 62.5 37.796875 
L 44.59375 -2.296875 
L 32.5 25.203125 
L 21.296875 -2.296875 
L 3.40625 37.796875 
L 5.40625 37.796875 
L 21.40625 2 
L 31.5 27.09375 
L 26.703125 37.796875 
L 28.703125 37.796875 
L 44.703125 1.796875 
L 60.5 37.796875 
z
" id="JosefinSans-Thin-119"/>
      <path d="M 44.796875 37.796875 
L 44.796875 0 
L 42.90625 0 
L 42.90625 10.796875 
Q 40.796875 5.796875 35.84375 2.59375 
Q 30.90625 -0.59375 24.90625 -0.59375 
Q 19.59375 -0.59375 15.09375 2 
Q 10.59375 4.59375 8 9.046875 
Q 5.40625 13.5 5.40625 18.90625 
Q 5.40625 25 8.046875 29.453125 
Q 10.703125 33.90625 15.203125 36.25 
Q 19.703125 38.59375 25.203125 38.59375 
Q 31 38.59375 35.796875 35.34375 
Q 40.59375 32.09375 42.90625 26.90625 
L 43.296875 37.796875 
z
M 25.09375 1.09375 
Q 30 1.09375 34.046875 3.296875 
Q 38.09375 5.5 40.5 9.390625 
Q 42.90625 13.296875 42.90625 18.09375 
L 42.90625 22.203125 
Q 41.703125 28.40625 36.640625 32.65625 
Q 31.59375 36.90625 25.09375 36.90625 
Q 20.203125 36.90625 16.140625 34.703125 
Q 12.09375 32.5 9.75 28.390625 
Q 7.40625 24.296875 7.40625 19 
Q 7.40625 14.09375 9.796875 10 
Q 12.203125 5.90625 16.25 3.5 
Q 20.296875 1.09375 25.09375 1.09375 
z
" id="JosefinSans-Thin-97"/>
      <path d="M 25.09375 1.09375 
Q 28.59375 1.09375 31.75 2.34375 
Q 34.90625 3.59375 37.296875 5.90625 
L 38.59375 4.5 
Q 35.796875 2.09375 32.34375 0.75 
Q 28.90625 -0.59375 25.09375 -0.59375 
Q 19.59375 -0.59375 15.09375 2 
Q 10.59375 4.59375 8 9.09375 
Q 5.40625 13.59375 5.40625 19 
Q 5.40625 24.40625 8.046875 28.90625 
Q 10.703125 33.40625 15.203125 36.046875 
Q 19.703125 38.703125 25.09375 38.703125 
Q 31.09375 38.703125 35.546875 35.203125 
Q 40 31.703125 42.296875 25.90625 
L 8.703125 12.296875 
Q 10.703125 7.40625 15 4.25 
Q 19.296875 1.09375 25.09375 1.09375 
z
M 25 36.90625 
Q 20.203125 36.90625 16.140625 34.5 
Q 12.09375 32.09375 9.75 28 
Q 7.40625 23.90625 7.40625 19 
Q 7.40625 16.203125 8.09375 14 
L 39.796875 26.796875 
Q 37.5 31.296875 33.640625 34.09375 
Q 29.796875 36.90625 25 36.90625 
z
" id="JosefinSans-Thin-101"/>
      <path d="M 14.40625 29.203125 
Q 14.40625 43.203125 19.203125 55.296875 
Q 24 67.40625 30.90625 74.796875 
L 31.703125 72.296875 
Q 25.203125 64.90625 20.796875 53.65625 
Q 16.40625 42.40625 16.40625 29.203125 
Q 16.40625 16 20.796875 4.75 
Q 25.203125 -6.5 31.703125 -13.90625 
L 30.90625 -16.296875 
Q 23.90625 -8.90625 19.15625 3.140625 
Q 14.40625 15.203125 14.40625 29.203125 
z
" id="JosefinSans-Thin-40"/>
      <path d="M 28.09375 29.203125 
Q 28.09375 15.203125 23.34375 3.140625 
Q 18.59375 -8.90625 11.59375 -16.296875 
L 10.796875 -13.90625 
Q 17.296875 -6.5 21.75 4.796875 
Q 26.203125 16.09375 26.203125 29.203125 
Q 26.203125 42.40625 21.75 53.59375 
Q 17.296875 64.796875 10.796875 72.296875 
L 11.59375 74.796875 
Q 18.5 67.40625 23.296875 55.296875 
Q 28.09375 43.203125 28.09375 29.203125 
z
" id="JosefinSans-Thin-41"/>
     </defs>
     <g style="fill:#262626;" transform="translate(393.490859 282.285698)scale(0.15 -0.15)">
      <use xlink:href="#JosefinSans-Thin-112"/>
      <use x="54.299988" xlink:href="#JosefinSans-Thin-114"/>
      <use x="86.399979" xlink:href="#JosefinSans-Thin-111"/>
      <use x="136.699966" xlink:href="#JosefinSans-Thin-112"/>
      <use x="190.999954" xlink:href="#JosefinSans-Thin-111"/>
      <use x="241.299942" xlink:href="#JosefinSans-Thin-114"/>
      <use x="273.399933" xlink:href="#JosefinSans-Thin-116"/>
      <use x="303.799927" xlink:href="#JosefinSans-Thin-105"/>
      <use x="324.599915" xlink:href="#JosefinSans-Thin-111"/>
      <use x="374.899902" xlink:href="#JosefinSans-Thin-110"/>
      <use x="423.599899" xlink:href="#JosefinSans-Thin-32"/>
      <use x="453.69989" xlink:href="#JosefinSans-Thin-119"/>
      <use x="519.599884" xlink:href="#JosefinSans-Thin-97"/>
      <use x="573.799881" xlink:href="#JosefinSans-Thin-116"/>
      <use x="604.199875" xlink:href="#JosefinSans-Thin-101"/>
      <use x="650.899872" xlink:href="#JosefinSans-Thin-114"/>
      <use x="682.999863" xlink:href="#JosefinSans-Thin-32"/>
      <use x="713.099854" xlink:href="#JosefinSans-Thin-40"/>
      <use x="752.599838" xlink:href="#JosefinSans-Thin-112"/>
      <use x="806.899826" xlink:href="#JosefinSans-Thin-41"/>
     </g>
    </g>
   </g>
   <g id="matplotlib.axis_2">
    <g id="ytick_1">
     <g id="line2d_13">
      <path clip-path="url(#p52d56505f2)" d="M 53.013209 239.196238 
L 860.99976 239.196238 
" style="fill:none;stroke:#cccccc;stroke-dasharray:0.8,1.32;stroke-dashoffset:0;stroke-width:0.8;"/>
     </g>
     <g id="line2d_14"/>
     <g id="text_8">
      <!-- 0.00 -->
      <g style="fill:#262626;" transform="translate(20.994771 244.460457)scale(0.14 -0.14)">
       <use xlink:href="#JosefinSans-Thin-48"/>
       <use x="61.699997" xlink:href="#JosefinSans-Thin-46"/>
       <use x="80.299988" xlink:href="#JosefinSans-Thin-48"/>
       <use x="141.999985" xlink:href="#JosefinSans-Thin-48"/>
      </g>
     </g>
    </g>
    <g id="ytick_2">
     <g id="line2d_15">
      <path clip-path="url(#p52d56505f2)" d="M 53.013209 182.391044 
L 860.99976 182.391044 
" style="fill:none;stroke:#cccccc;stroke-dasharray:0.8,1.32;stroke-dashoffset:0;stroke-width:0.8;"/>
     </g>
     <g id="line2d_16"/>
     <g id="text_9">
      <!-- 0.01 -->
      <g style="fill:#262626;" transform="translate(25.321646 187.655262)scale(0.14 -0.14)">
       <use xlink:href="#JosefinSans-Thin-48"/>
       <use x="61.699997" xlink:href="#JosefinSans-Thin-46"/>
       <use x="80.299988" xlink:href="#JosefinSans-Thin-48"/>
       <use x="141.999985" xlink:href="#JosefinSans-Thin-49"/>
      </g>
     </g>
    </g>
    <g id="ytick_3">
     <g id="line2d_17">
      <path clip-path="url(#p52d56505f2)" d="M 53.013209 125.585849 
L 860.99976 125.585849 
" style="fill:none;stroke:#cccccc;stroke-dasharray:0.8,1.32;stroke-dashoffset:0;stroke-width:0.8;"/>
     </g>
     <g id="line2d_18"/>
     <g id="text_10">
      <!-- 0.02 -->
      <g style="fill:#262626;" transform="translate(22.690084 130.850068)scale(0.14 -0.14)">
       <use xlink:href="#JosefinSans-Thin-48"/>
       <use x="61.699997" xlink:href="#JosefinSans-Thin-46"/>
       <use x="80.299988" xlink:href="#JosefinSans-Thin-48"/>
       <use x="141.999985" xlink:href="#JosefinSans-Thin-50"/>
      </g>
     </g>
    </g>
    <g id="ytick_4">
     <g id="line2d_19">
      <path clip-path="url(#p52d56505f2)" d="M 53.013209 68.780655 
L 860.99976 68.780655 
" style="fill:none;stroke:#cccccc;stroke-dasharray:0.8,1.32;stroke-dashoffset:0;stroke-width:0.8;"/>
     </g>
     <g id="line2d_20"/>
     <g id="text_11">
      <!-- 0.03 -->
      <defs>
       <path d="M 25.5 39.90625 
Q 30.90625 40.203125 35.296875 38.09375 
Q 39.703125 36 42.296875 31.75 
Q 44.90625 27.5 44.90625 21.5 
Q 44.90625 15 42.046875 9.890625 
Q 39.203125 4.796875 34.046875 2 
Q 28.90625 -0.796875 22.40625 -0.796875 
Q 18 -0.796875 14.140625 0.953125 
Q 10.296875 2.703125 7.40625 5.796875 
L 8.40625 7.296875 
Q 10.796875 4.5 14.59375 2.796875 
Q 18.40625 1.09375 22.40625 1.09375 
Q 28.40625 1.09375 33.046875 3.6875 
Q 37.703125 6.296875 40.296875 11 
Q 42.90625 15.703125 42.90625 21.59375 
Q 42.90625 29.296875 38.09375 33.75 
Q 33.296875 38.203125 25.203125 38.203125 
Q 22.5 38.203125 19.796875 37.546875 
Q 17.09375 36.90625 15.296875 35.796875 
L 14.90625 36.09375 
L 36.796875 63.203125 
L 8.59375 63.203125 
L 8.59375 65.09375 
L 40.59375 65.09375 
L 19.296875 39 
Q 22.09375 39.90625 25.5 39.90625 
z
" id="JosefinSans-Thin-51"/>
      </defs>
      <g style="fill:#262626;" transform="translate(22.381646 74.044874)scale(0.14 -0.14)">
       <use xlink:href="#JosefinSans-Thin-48"/>
       <use x="61.699997" xlink:href="#JosefinSans-Thin-46"/>
       <use x="80.299988" xlink:href="#JosefinSans-Thin-48"/>
       <use x="141.999985" xlink:href="#JosefinSans-Thin-51"/>
      </g>
     </g>
    </g>
    <g id="ytick_5">
     <g id="line2d_21">
      <path clip-path="url(#p52d56505f2)" d="M 53.013209 11.975461 
L 860.99976 11.975461 
" style="fill:none;stroke:#cccccc;stroke-dasharray:0.8,1.32;stroke-dashoffset:0;stroke-width:0.8;"/>
     </g>
     <g id="line2d_22"/>
     <g id="text_12">
      <!-- 0.04 -->
      <g style="fill:#262626;" transform="translate(22.550084 17.239679)scale(0.14 -0.14)">
       <use xlink:href="#JosefinSans-Thin-48"/>
       <use x="61.699997" xlink:href="#JosefinSans-Thin-46"/>
       <use x="80.299988" xlink:href="#JosefinSans-Thin-48"/>
       <use x="141.999985" xlink:href="#JosefinSans-Thin-52"/>
      </g>
     </g>
    </g>
    <g id="text_13">
     <!-- Density -->
     <defs>
      <path d="M 11.90625 70.203125 
L 28 70.203125 
Q 40.59375 70.203125 49 64.953125 
Q 57.40625 59.703125 61.296875 51.640625 
Q 65.203125 43.59375 65.203125 35 
Q 65.203125 24.59375 60.5 16.640625 
Q 55.796875 8.703125 48.046875 4.34375 
Q 40.296875 0 31.296875 0 
L 11.90625 0 
z
M 30.40625 1.90625 
Q 39.40625 1.90625 46.90625 6 
Q 54.40625 10.09375 58.796875 17.640625 
Q 63.203125 25.203125 63.203125 35.09375 
Q 63.203125 43.296875 59.453125 50.890625 
Q 55.703125 58.5 47.703125 63.34375 
Q 39.703125 68.203125 27.59375 68.203125 
L 13.90625 68.203125 
L 13.90625 1.90625 
z
" id="JosefinSans-Thin-68"/>
      <path d="M 17.09375 -0.796875 
Q 13.90625 -0.796875 10.65625 0.390625 
Q 7.40625 1.59375 5.40625 4 
L 6.59375 5.203125 
Q 8.09375 3.296875 10.9375 2.09375 
Q 13.796875 0.90625 17.09375 0.90625 
Q 21.203125 0.90625 24.09375 3 
Q 27 5.09375 27 9.703125 
Q 27 12.5 25.5 14.25 
Q 24 16 22 16.890625 
Q 20 17.796875 16.203125 19 
Q 11.703125 20.59375 9.296875 22.640625 
Q 6.90625 24.703125 6.90625 28.703125 
Q 6.90625 33.203125 9.953125 35.75 
Q 13 38.296875 17.203125 38.296875 
Q 19.796875 38.296875 22.640625 37.1875 
Q 25.5 36.09375 27.5 33.90625 
L 26.40625 32.59375 
Q 24.90625 34.5 22.25 35.5 
Q 19.59375 36.5 17.296875 36.5 
Q 14.203125 36.5 11.5 34.546875 
Q 8.796875 32.59375 8.796875 28.90625 
Q 8.796875 25.59375 10.9375 23.890625 
Q 13.09375 22.203125 17.296875 20.703125 
Q 21.40625 19.296875 23.546875 18.296875 
Q 25.703125 17.296875 27.296875 15.34375 
Q 28.90625 13.40625 28.90625 10.203125 
Q 28.90625 5.09375 25.84375 2.140625 
Q 22.796875 -0.796875 17.09375 -0.796875 
z
" id="JosefinSans-Thin-115"/>
      <path d="M 39.703125 37.796875 
L 15.40625 -18.09375 
L 13 -18.09375 
L 20.90625 -0.203125 
L 3.40625 37.796875 
L 5.5 37.796875 
L 21.90625 2.203125 
L 37.5 37.796875 
z
" id="JosefinSans-Thin-121"/>
     </defs>
     <g style="fill:#262626;" transform="translate(14.280709 148.974687)rotate(-90)scale(0.15 -0.15)">
      <use xlink:href="#JosefinSans-Thin-68"/>
      <use x="72.599991" xlink:href="#JosefinSans-Thin-101"/>
      <use x="119.299988" xlink:href="#JosefinSans-Thin-110"/>
      <use x="167.999985" xlink:href="#JosefinSans-Thin-115"/>
      <use x="202.399979" xlink:href="#JosefinSans-Thin-105"/>
      <use x="223.199966" xlink:href="#JosefinSans-Thin-116"/>
      <use x="253.59996" xlink:href="#JosefinSans-Thin-121"/>
     </g>
    </g>
   </g>
   <g id="line2d_23">
    <path clip-path="url(#p52d56505f2)" d="M 89.73987 239.196238 
L 97.159398 239.196006 
L 104.578925 239.194383 
L 111.998453 239.189978 
L 119.41798 239.1814 
L 126.837508 239.167258 
L 134.257036 239.146162 
L 141.676563 239.116719 
L 149.096091 239.077539 
L 156.515618 239.027231 
L 163.935146 238.964404 
L 171.354673 238.887666 
L 178.774201 238.795628 
L 186.193728 238.686898 
L 193.613256 238.560085 
L 201.032784 238.413797 
L 208.452311 238.246645 
L 215.871839 238.057236 
L 223.291366 237.84418 
L 230.710894 237.606086 
L 238.130421 237.341564 
L 245.549949 237.049221 
L 252.969476 236.727666 
L 260.389004 236.37551 
L 267.808532 235.991361 
L 275.228059 235.573827 
L 282.647587 235.121518 
L 290.067114 234.633044 
L 297.486642 234.107012 
L 304.906169 233.542032 
L 312.325697 232.936712 
L 319.745225 232.289663 
L 327.164752 231.599492 
L 334.58428 230.864809 
L 342.003807 230.084223 
L 349.423335 229.256343 
L 356.842862 228.379778 
L 364.26239 227.453136 
L 371.681917 226.475027 
L 379.101445 225.44406 
L 386.520973 224.358844 
L 393.9405 223.217987 
L 401.360028 222.0201 
L 408.779555 220.76379 
L 416.199083 219.447667 
L 423.61861 218.070339 
L 431.038138 216.630416 
L 438.457665 215.126507 
L 445.877193 213.557221 
L 453.296721 211.921167 
L 460.716248 210.216953 
L 468.135776 208.443189 
L 475.555303 206.598483 
L 482.974831 204.681446 
L 490.394358 202.690685 
L 497.813886 200.62481 
L 505.233414 198.482429 
L 512.652941 196.262152 
L 520.072469 193.962588 
L 527.491996 191.582345 
L 534.911524 189.120033 
L 542.331051 186.574261 
L 549.750579 183.943638 
L 557.170106 181.226772 
L 564.589634 178.422272 
L 572.009162 175.528749 
L 579.428689 172.54481 
L 586.848217 169.469064 
L 594.267744 166.300122 
L 601.687272 163.036591 
L 609.106799 159.67708 
L 616.526327 156.220199 
L 623.945854 152.664557 
L 631.365382 149.008762 
L 638.78491 145.251424 
L 646.204437 141.391151 
L 653.623965 137.426553 
L 661.043492 133.356239 
L 668.46302 129.178817 
L 675.882547 124.892897 
L 683.302075 120.497087 
L 690.721603 115.989997 
L 698.14113 111.370235 
L 705.560658 106.636411 
L 712.980185 101.787133 
L 720.399713 96.821011 
L 727.81924 91.736653 
L 735.238768 86.532669 
L 742.658295 81.207668 
L 750.077823 75.760258 
L 757.497351 70.189048 
L 764.916878 64.492648 
L 772.336406 58.669667 
L 779.755933 52.718712 
L 787.175461 46.638395 
L 794.594988 40.427323 
L 802.014516 34.084105 
L 809.434043 27.607351 
L 816.853571 20.995669 
L 824.273099 14.247668 
" style="fill:none;stroke:#81aca4;stroke-linecap:round;stroke-width:1.5;"/>
   </g>
  </g>
 </g>
 <defs>
  <clipPath id="p52d56505f2">
   <rect height="247.443426" width="807.986551" x="53.013209" y="3.00024"/>
  </clipPath>
 </defs>
</svg>
