<?xml version="1.0" encoding="utf-8" standalone="no"?>
<!DOCTYPE svg PUBLIC "-//W3C//DTD SVG 1.1//EN"
  "http://www.w3.org/Graphics/SVG/1.1/DTD/svg11.dtd">
<!-- Created with matplotlib (https://matplotlib.org/) -->
<svg height="288pt" version="1.1" viewBox="0 0 864 288" width="864pt" xmlns="http://www.w3.org/2000/svg" xmlns:xlink="http://www.w3.org/1999/xlink">
 <defs>
  <style type="text/css">
*{stroke-linecap:butt;stroke-linejoin:round;}
  </style>
 </defs>
 <g id="figure_1">
  <g id="patch_1">
   <path d="M 0 288 
L 864 288 
L 864 0 
L 0 0 
z
" style="fill:#ffffff;"/>
  </g>
  <g id="axes_1">
   <g id="patch_2">
    <path d="M 67.688677 249.251947 
L 860.99976 249.251947 
L 860.99976 3.00024 
L 67.688677 3.00024 
z
" style="fill:#ffffff;"/>
   </g>
   <g id="matplotlib.axis_1">
    <g id="xtick_1">
     <g id="line2d_1">
      <path clip-path="url(#p4808581fb4)" d="M 67.688677 249.251947 
L 67.688677 3.00024 
" style="fill:none;stroke:#cccccc;stroke-dasharray:0.8,1.32;stroke-dashoffset:0;stroke-width:0.8;"/>
     </g>
     <g id="line2d_2"/>
     <g id="text_1">
      <!-- 0 -->
      <defs>
       <path d="M 31.203125 -0.296875 
Q 23.09375 -0.296875 16.84375 3.75 
Q 10.59375 7.796875 7.09375 15.390625 
Q 3.59375 23 3.59375 33.203125 
Q 3.59375 49.5 10.9375 58.046875 
Q 18.296875 66.59375 31.203125 66.5 
Q 39.296875 66.5 45.546875 62.5 
Q 51.796875 58.5 55.296875 50.890625 
Q 58.796875 43.296875 58.796875 33.203125 
Q 58.796875 22.796875 55.296875 15.1875 
Q 51.796875 7.59375 45.546875 3.59375 
Q 39.296875 -0.40625 31.203125 -0.296875 
z
M 31.09375 9 
Q 39.59375 9 44.140625 15.59375 
Q 48.703125 22.203125 48.796875 33.40625 
Q 48.703125 44.296875 44.140625 50.75 
Q 39.59375 57.203125 31.09375 57.203125 
Q 22.703125 57.203125 18.203125 50.703125 
Q 13.703125 44.203125 13.59375 33.203125 
Q 13.703125 22.09375 18.203125 15.546875 
Q 22.703125 9 31.09375 9 
z
" id="JosefinSans-Regular-48"/>
      </defs>
      <g style="fill:#262626;" transform="translate(63.32024 263.601947)scale(0.14 -0.14)">
       <use xlink:href="#JosefinSans-Regular-48"/>
      </g>
     </g>
    </g>
    <g id="xtick_2">
     <g id="line2d_3">
      <path clip-path="url(#p4808581fb4)" d="M 234.701537 249.251947 
L 234.701537 3.00024 
" style="fill:none;stroke:#cccccc;stroke-dasharray:0.8,1.32;stroke-dashoffset:0;stroke-width:0.8;"/>
     </g>
     <g id="line2d_4"/>
     <g id="text_2">
      <!-- 2 -->
      <defs>
       <path d="M 50.203125 9.40625 
L 50.203125 0 
L 5.40625 0 
L 8.703125 3.296875 
Q 18.90625 13.5 24.59375 19.796875 
Q 30.296875 26.09375 34.140625 32.546875 
Q 38 39 38 44.796875 
Q 38 50.90625 34.390625 54.09375 
Q 30.796875 57.296875 25.59375 57.296875 
Q 21.5 57.296875 18.75 55.59375 
Q 16 53.90625 14.75 51.296875 
Q 13.5 48.703125 13.5 46.09375 
Q 13.5 39.703125 17.40625 35.59375 
L 11.5 30.203125 
Q 8.203125 32.203125 6.140625 36.953125 
Q 4.09375 41.703125 4.09375 45.90625 
Q 4.09375 51.40625 6.84375 56.15625 
Q 9.59375 60.90625 14.796875 63.75 
Q 20 66.59375 27.203125 66.59375 
Q 33.296875 66.59375 38.046875 63.75 
Q 42.796875 60.90625 45.390625 56.09375 
Q 48 51.296875 48 45.59375 
Q 48 39.90625 45.296875 34.203125 
Q 42.59375 28.5 38.640625 23.5 
Q 34.703125 18.5 28.09375 11.09375 
L 26.59375 9.40625 
z
" id="JosefinSans-Regular-50"/>
      </defs>
      <g style="fill:#262626;" transform="translate(230.886537 263.601947)scale(0.14 -0.14)">
       <use xlink:href="#JosefinSans-Regular-50"/>
      </g>
     </g>
    </g>
    <g id="xtick_3">
     <g id="line2d_5">
      <path clip-path="url(#p4808581fb4)" d="M 401.714396 249.251947 
L 401.714396 3.00024 
" style="fill:none;stroke:#cccccc;stroke-dasharray:0.8,1.32;stroke-dashoffset:0;stroke-width:0.8;"/>
     </g>
     <g id="line2d_6"/>
     <g id="text_3">
      <!-- 4 -->
      <defs>
       <path d="M 50.09375 23.40625 
L 50.09375 15.90625 
L 41.5 15.90625 
L 41.5 0 
L 31.796875 0 
L 31.796875 15.90625 
L 1.296875 15.90625 
L 1.296875 16 
L 41.40625 66.59375 
L 41.5 66.59375 
L 41.5 23.40625 
z
M 31.796875 23.40625 
L 31.796875 43.90625 
L 15.90625 23.40625 
z
" id="JosefinSans-Regular-52"/>
      </defs>
      <g style="fill:#262626;" transform="translate(397.962834 263.601947)scale(0.14 -0.14)">
       <use xlink:href="#JosefinSans-Regular-52"/>
      </g>
     </g>
    </g>
    <g id="xtick_4">
     <g id="line2d_7">
      <path clip-path="url(#p4808581fb4)" d="M 568.727256 249.251947 
L 568.727256 3.00024 
" style="fill:none;stroke:#cccccc;stroke-dasharray:0.8,1.32;stroke-dashoffset:0;stroke-width:0.8;"/>
     </g>
     <g id="line2d_8"/>
     <g id="text_4">
      <!-- 6 -->
      <defs>
       <path d="M 30.59375 42.203125 
Q 35.703125 42.203125 40.25 39.453125 
Q 44.796875 36.703125 47.59375 31.890625 
Q 50.40625 27.09375 50.40625 21.203125 
Q 50.40625 14.703125 47.203125 9.703125 
Q 44 4.703125 38.703125 1.953125 
Q 33.40625 -0.796875 27.40625 -0.796875 
Q 20.703125 -0.796875 15.34375 2.390625 
Q 10 5.59375 6.890625 11.5 
Q 3.796875 17.40625 3.796875 25.296875 
Q 3.796875 37.203125 12.25 47.5 
Q 20.703125 57.796875 34.09375 66.40625 
L 40.59375 59.296875 
Q 31.703125 54.90625 25.703125 49.046875 
Q 19.703125 43.203125 16.90625 37 
Q 22.09375 42.203125 30.59375 42.203125 
z
M 27 7.90625 
Q 32.703125 7.90625 36.546875 11.59375 
Q 40.40625 15.296875 40.40625 21.203125 
Q 40.40625 26.90625 36.546875 30.453125 
Q 32.703125 34 27 34 
Q 23.40625 34 20.34375 32.453125 
Q 17.296875 30.90625 15.5 28.25 
Q 13.703125 25.59375 13.703125 22.5 
L 13.703125 20.703125 
Q 13.703125 17.296875 15.5 14.34375 
Q 17.296875 11.40625 20.34375 9.65625 
Q 23.40625 7.90625 27 7.90625 
z
" id="JosefinSans-Regular-54"/>
      </defs>
      <g style="fill:#262626;" transform="translate(564.912256 263.601947)scale(0.14 -0.14)">
       <use xlink:href="#JosefinSans-Regular-54"/>
      </g>
     </g>
    </g>
    <g id="xtick_5">
     <g id="line2d_9">
      <path clip-path="url(#p4808581fb4)" d="M 735.740115 249.251947 
L 735.740115 3.00024 
" style="fill:none;stroke:#cccccc;stroke-dasharray:0.8,1.32;stroke-dashoffset:0;stroke-width:0.8;"/>
     </g>
     <g id="line2d_10"/>
     <g id="text_5">
      <!-- 8 -->
      <defs>
       <path d="M 2.796875 20.796875 
Q 2.796875 27.703125 6.59375 32.546875 
Q 10.40625 37.40625 15.703125 39.59375 
Q 12.40625 41.703125 10.59375 44.546875 
Q 8.796875 47.40625 8.796875 51.5 
Q 8.796875 55.796875 11.046875 59.25 
Q 13.296875 62.703125 17.25 64.640625 
Q 21.203125 66.59375 26.09375 66.59375 
Q 30.90625 66.59375 34.90625 64.640625 
Q 38.90625 62.703125 41.203125 59.34375 
Q 43.5 56 43.5 51.90625 
Q 43.5 47.59375 41.703125 44.75 
Q 39.90625 41.90625 36.5 39.59375 
Q 41.90625 37.296875 45.703125 32.4375 
Q 49.5 27.59375 49.5 20.796875 
Q 49.5 15.09375 46.390625 10.140625 
Q 43.296875 5.203125 37.890625 2.203125 
Q 32.5 -0.796875 26 -0.796875 
Q 19.5 -0.796875 14.203125 2.140625 
Q 8.90625 5.09375 5.84375 10.09375 
Q 2.796875 15.09375 2.796875 20.796875 
z
M 18.203125 50.40625 
Q 18.203125 47.296875 20.640625 45.09375 
Q 23.09375 42.90625 26.296875 42.90625 
Q 29.5 42.90625 31.84375 45.09375 
Q 34.203125 47.296875 34.203125 50.40625 
Q 34.203125 53.90625 31.890625 56.203125 
Q 29.59375 58.5 26.296875 58.5 
Q 23 58.5 20.59375 56.203125 
Q 18.203125 53.90625 18.203125 50.40625 
z
M 12.703125 21.203125 
Q 12.703125 17.5 14.5 14.34375 
Q 16.296875 11.203125 19.34375 9.296875 
Q 22.40625 7.40625 26 7.40625 
Q 29.703125 7.40625 32.84375 9.296875 
Q 36 11.203125 37.890625 14.34375 
Q 39.796875 17.5 39.796875 21.203125 
Q 39.796875 24.90625 38 28 
Q 36.203125 31.09375 33.046875 32.9375 
Q 29.90625 34.796875 26.203125 34.796875 
Q 22.59375 34.796875 19.5 33 
Q 16.40625 31.203125 14.546875 28.046875 
Q 12.703125 24.90625 12.703125 21.203125 
z
" id="JosefinSans-Regular-56"/>
      </defs>
      <g style="fill:#262626;" transform="translate(732.079334 263.601947)scale(0.14 -0.14)">
       <use xlink:href="#JosefinSans-Regular-56"/>
      </g>
     </g>
    </g>
    <g id="text_6">
     <!-- dummy water count -->
     <defs>
      <path d="M 51.296875 77.5 
L 51.296875 0 
L 41.90625 0 
L 41.90625 6.5 
Q 38.90625 3 34.546875 1 
Q 30.203125 -1 25 -1 
Q 19.203125 -1 14.5 1.796875 
Q 9.796875 4.59375 7.140625 9.640625 
Q 4.5 14.703125 4.5 21.296875 
Q 4.5 28 7.296875 32.953125 
Q 10.09375 37.90625 15 40.5 
Q 19.90625 43.09375 26.09375 43.09375 
Q 30.796875 43.09375 35.140625 41.140625 
Q 39.5 39.203125 42 35.796875 
L 42 77.5 
z
M 27.90625 7 
Q 33.296875 7 37.046875 9.890625 
Q 40.796875 12.796875 41.90625 17.703125 
L 41.90625 25.5 
Q 40.703125 30 36.796875 32.84375 
Q 32.90625 35.703125 27.90625 35.703125 
Q 24.09375 35.703125 20.890625 33.84375 
Q 17.703125 32 15.796875 28.75 
Q 13.90625 25.5 13.90625 21.40625 
Q 13.90625 17.40625 15.796875 14.09375 
Q 17.703125 10.796875 20.890625 8.890625 
Q 24.09375 7 27.90625 7 
z
" id="JosefinSans-Regular-100"/>
      <path d="M 46.59375 41.40625 
L 46.59375 0 
L 38.203125 0 
L 37.59375 7.90625 
Q 35.5 3.703125 31.09375 1.046875 
Q 26.703125 -1.59375 21.296875 -1.59375 
Q 15.59375 -1.59375 11.9375 1.84375 
Q 8.296875 5.296875 8.09375 10.796875 
L 8.09375 41.40625 
L 17.40625 41.40625 
L 17.40625 14.09375 
Q 17.59375 10.59375 19.4375 8.546875 
Q 21.296875 6.5 25 6.40625 
Q 28.40625 6.40625 31.203125 8.453125 
Q 34 10.5 35.640625 14.09375 
Q 37.296875 17.703125 37.296875 22.09375 
L 37.296875 41.40625 
z
" id="JosefinSans-Regular-117"/>
      <path d="M 61.203125 43.09375 
Q 67.203125 43.09375 70.75 39.6875 
Q 74.296875 36.296875 74.5 30.703125 
L 74.5 0 
L 65.203125 0 
L 65.203125 27.296875 
Q 64.90625 34.59375 58.59375 35 
Q 55 35 52.140625 32.84375 
Q 49.296875 30.703125 47.6875 27.203125 
Q 46.09375 23.703125 46 19.703125 
L 46 0 
L 36.59375 0 
L 36.59375 27.296875 
Q 36.296875 34.59375 29.796875 35 
Q 26.296875 35 23.4375 32.84375 
Q 20.59375 30.703125 19 27.140625 
Q 17.40625 23.59375 17.40625 19.59375 
L 17.40625 0 
L 8.09375 0 
L 8.09375 41.40625 
L 16.5 41.40625 
L 17.203125 33.59375 
Q 19.59375 38.09375 23.75 40.59375 
Q 27.90625 43.09375 33.203125 43.09375 
Q 38.203125 43.09375 41.59375 40.75 
Q 45 38.40625 46 34.296875 
Q 48.59375 38.40625 52.59375 40.75 
Q 56.59375 43.09375 61.203125 43.09375 
z
" id="JosefinSans-Regular-109"/>
      <path d="M 47.5 41.40625 
L 20.796875 -19.90625 
L 11.59375 -19.90625 
L 21.09375 1.40625 
L 1.90625 41.40625 
L 12.40625 41.40625 
L 25.796875 11.90625 
L 38.90625 41.40625 
z
" id="JosefinSans-Regular-121"/>
      <path id="JosefinSans-Regular-32"/>
      <path d="M 65.59375 41.40625 
L 46.5 -2.5 
L 33.203125 25.90625 
L 21.09375 -2.5 
L 1.90625 41.40625 
L 11.09375 41.40625 
L 22.203125 16.296875 
L 29.90625 34.296875 
L 26.59375 41.40625 
L 34.703125 41.40625 
L 45.90625 15.703125 
L 56.40625 41.40625 
z
" id="JosefinSans-Regular-119"/>
      <path d="M 50.59375 41.40625 
L 50.59375 0 
L 41.296875 0 
L 41.296875 6.796875 
Q 39.09375 3.90625 34.890625 1.453125 
Q 30.703125 -1 25.40625 -1 
Q 19.5 -1 14.75 1.546875 
Q 10 4.09375 7.25 9 
Q 4.5 13.90625 4.5 20.703125 
Q 4.5 27.5 7.34375 32.546875 
Q 10.203125 37.59375 15.046875 40.34375 
Q 19.90625 43.09375 25.796875 43.09375 
Q 31.09375 43.09375 35 40.796875 
Q 38.90625 38.5 41.296875 34.796875 
L 42 41.40625 
z
M 27.90625 6.703125 
Q 33 6.703125 36.640625 9.546875 
Q 40.296875 12.40625 41.296875 17.296875 
L 41.296875 25.5 
Q 40.09375 29.90625 36.296875 32.65625 
Q 32.5 35.40625 27.59375 35.40625 
Q 23.90625 35.40625 20.75 33.59375 
Q 17.59375 31.796875 15.75 28.546875 
Q 13.90625 25.296875 13.90625 21.203125 
Q 13.90625 17.203125 15.796875 13.890625 
Q 17.703125 10.59375 20.890625 8.640625 
Q 24.09375 6.703125 27.90625 6.703125 
z
" id="JosefinSans-Regular-97"/>
      <path d="M 21.5 59.59375 
L 21.5 41.296875 
L 32.796875 41.296875 
L 32.796875 33.90625 
L 21.5 33.90625 
L 21.5 0 
L 12.09375 0 
L 12.09375 33.90625 
L 4.5 33.90625 
L 4.5 41.296875 
L 12.09375 41.296875 
L 12.09375 59.59375 
z
" id="JosefinSans-Regular-116"/>
      <path d="M 27.5 7 
Q 32.703125 7 37.59375 10.59375 
L 41.90625 3.703125 
Q 38.59375 1.5 34.75 0.25 
Q 30.90625 -1 27.296875 -1 
Q 20.40625 -1 15.25 1.84375 
Q 10.09375 4.703125 7.296875 9.703125 
Q 4.5 14.703125 4.5 21 
Q 4.5 27.09375 7.546875 32.140625 
Q 10.59375 37.203125 15.890625 40.140625 
Q 21.203125 43.09375 27.5 43.09375 
Q 35.59375 43.09375 41.046875 38.34375 
Q 46.5 33.59375 48.5 25.09375 
L 15.703125 13.59375 
Q 17.5 10.5 20.546875 8.75 
Q 23.59375 7 27.5 7 
z
M 26.796875 35.703125 
Q 21.09375 35.703125 17.390625 31.703125 
Q 13.703125 27.703125 13.703125 21.5 
Q 13.703125 20 13.796875 19.203125 
L 37.90625 28.09375 
Q 36.40625 31.5 33.65625 33.59375 
Q 30.90625 35.703125 26.796875 35.703125 
z
" id="JosefinSans-Regular-101"/>
      <path d="M 17.09375 31.59375 
Q 18.703125 35 21.640625 37.59375 
Q 24.59375 40.203125 27.890625 41.59375 
Q 31.203125 43 33.703125 43.09375 
L 33.296875 33.796875 
Q 28.796875 34 25.140625 32 
Q 21.5 30 19.453125 26.453125 
Q 17.40625 22.90625 17.40625 18.90625 
L 17.40625 0 
L 8.09375 0 
L 8.09375 41.40625 
L 16.40625 41.40625 
L 17.09375 31.59375 
z
" id="JosefinSans-Regular-114"/>
      <path d="M 41.703125 3.90625 
Q 38.90625 1.59375 35.046875 0.296875 
Q 31.203125 -1 27.203125 -1 
Q 20.5 -1 15.34375 1.703125 
Q 10.203125 4.40625 7.34375 9.34375 
Q 4.5 14.296875 4.5 20.796875 
Q 4.5 27.203125 7.5 32.140625 
Q 10.5 37.09375 15.5 39.796875 
Q 20.5 42.5 26.296875 42.5 
Q 35.796875 42.5 42 37.296875 
L 37.296875 31.203125 
Q 35.296875 32.703125 32.6875 33.75 
Q 30.09375 34.796875 27.09375 34.796875 
Q 23.40625 34.796875 20.34375 32.9375 
Q 17.296875 31.09375 15.546875 27.890625 
Q 13.796875 24.703125 13.796875 20.796875 
Q 13.796875 16.90625 15.640625 13.703125 
Q 17.5 10.5 20.703125 8.59375 
Q 23.90625 6.703125 28 6.703125 
Q 33.09375 6.703125 36.90625 9.703125 
L 41.703125 3.90625 
z
" id="JosefinSans-Regular-99"/>
      <path d="M 4.5 21.09375 
Q 4.5 27.203125 7.453125 32.25 
Q 10.40625 37.296875 15.65625 40.1875 
Q 20.90625 43.09375 27.5 43.09375 
Q 34.09375 43.09375 39.25 40.1875 
Q 44.40625 37.296875 47.25 32.296875 
Q 50.09375 27.296875 50.09375 21.09375 
Q 50.09375 14.90625 47.25 9.84375 
Q 44.40625 4.796875 39.203125 1.890625 
Q 34 -1 27.296875 -1 
Q 20.796875 -1 15.59375 1.75 
Q 10.40625 4.5 7.453125 9.5 
Q 4.5 14.5 4.5 21.09375 
z
M 13.90625 21 
Q 13.90625 17.09375 15.65625 13.796875 
Q 17.40625 10.5 20.453125 8.59375 
Q 23.5 6.703125 27.203125 6.703125 
Q 33 6.703125 36.796875 10.796875 
Q 40.59375 14.90625 40.59375 21 
Q 40.59375 27.09375 36.796875 31.25 
Q 33 35.40625 27.203125 35.40625 
Q 23.40625 35.40625 20.40625 33.453125 
Q 17.40625 31.5 15.65625 28.203125 
Q 13.90625 24.90625 13.90625 21 
z
" id="JosefinSans-Regular-111"/>
      <path d="M 33.796875 43 
Q 39.59375 43 43.390625 39.546875 
Q 47.203125 36.09375 47.296875 30.59375 
L 47.296875 0 
L 37.90625 0 
L 37.90625 27.40625 
Q 37.703125 30.90625 35.796875 32.90625 
Q 33.90625 34.90625 30.09375 35 
Q 24.59375 35 21 30.59375 
Q 17.40625 26.203125 17.40625 19.40625 
L 17.40625 0 
L 8.09375 0 
L 8.09375 41.40625 
L 16.5 41.40625 
L 17.09375 33.40625 
Q 19.296875 37.90625 23.6875 40.453125 
Q 28.09375 43 33.796875 43 
z
" id="JosefinSans-Regular-110"/>
     </defs>
     <g style="fill:#262626;" transform="translate(397.632891 282.013823)scale(0.15 -0.15)">
      <use xlink:href="#JosefinSans-Regular-100"/>
      <use x="59.299988" xlink:href="#JosefinSans-Regular-117"/>
      <use x="113.999985" xlink:href="#JosefinSans-Regular-109"/>
      <use x="196.499969" xlink:href="#JosefinSans-Regular-109"/>
      <use x="278.999954" xlink:href="#JosefinSans-Regular-121"/>
      <use x="328.399948" xlink:href="#JosefinSans-Regular-32"/>
      <use x="359.999939" xlink:href="#JosefinSans-Regular-119"/>
      <use x="427.499924" xlink:href="#JosefinSans-Regular-97"/>
      <use x="486.199921" xlink:href="#JosefinSans-Regular-116"/>
      <use x="522.199905" xlink:href="#JosefinSans-Regular-101"/>
      <use x="574.19989" xlink:href="#JosefinSans-Regular-114"/>
      <use x="611.799881" xlink:href="#JosefinSans-Regular-32"/>
      <use x="643.399872" xlink:href="#JosefinSans-Regular-99"/>
      <use x="688.999863" xlink:href="#JosefinSans-Regular-111"/>
      <use x="743.499847" xlink:href="#JosefinSans-Regular-117"/>
      <use x="798.199844" xlink:href="#JosefinSans-Regular-110"/>
      <use x="853.499832" xlink:href="#JosefinSans-Regular-116"/>
     </g>
    </g>
   </g>
   <g id="matplotlib.axis_2">
    <g id="ytick_1">
     <g id="line2d_11">
      <path clip-path="url(#p4808581fb4)" d="M 67.688677 249.251947 
L 860.99976 249.251947 
" style="fill:none;stroke:#cccccc;stroke-dasharray:0.8,1.32;stroke-dashoffset:0;stroke-width:0.8;"/>
     </g>
     <g id="line2d_12"/>
     <g id="text_7">
      <!-- 0 -->
      <g style="fill:#262626;" transform="translate(55.451802 254.676947)scale(0.14 -0.14)">
       <use xlink:href="#JosefinSans-Regular-48"/>
      </g>
     </g>
    </g>
    <g id="ytick_2">
     <g id="line2d_13">
      <path clip-path="url(#p4808581fb4)" d="M 67.688677 205.418695 
L 860.99976 205.418695 
" style="fill:none;stroke:#cccccc;stroke-dasharray:0.8,1.32;stroke-dashoffset:0;stroke-width:0.8;"/>
     </g>
     <g id="line2d_14"/>
     <g id="text_8">
      <!-- 5000 -->
      <defs>
       <path d="M 25.703125 43 
Q 32.203125 43 36.84375 40.09375 
Q 41.5 37.203125 43.890625 32.34375 
Q 46.296875 27.5 46.296875 21.5 
Q 46.296875 15.296875 43.4375 10.1875 
Q 40.59375 5.09375 35.640625 2.140625 
Q 30.703125 -0.796875 24.5 -0.796875 
Q 19.40625 -0.796875 14.5 1.09375 
Q 9.59375 3 6.5 6 
L 11.703125 13.59375 
Q 13.703125 11.296875 17 9.890625 
Q 20.296875 8.5 23.703125 8.5 
Q 29.203125 8.5 32.75 12.046875 
Q 36.296875 15.59375 36.296875 21.203125 
Q 36.296875 27.296875 32.9375 31.046875 
Q 29.59375 34.796875 23.40625 34.796875 
Q 20.09375 34.796875 17.046875 33.84375 
Q 14 32.90625 10.703125 31 
L 10.59375 31 
L 10.59375 65.796875 
L 42.09375 65.796875 
L 42.09375 56.5 
L 19 56.5 
L 19 42.203125 
Q 22.203125 43 25.703125 43 
z
" id="JosefinSans-Regular-53"/>
      </defs>
      <g style="fill:#262626;" transform="translate(30.65649 210.843695)scale(0.14 -0.14)">
       <use xlink:href="#JosefinSans-Regular-53"/>
       <use x="52.299988" xlink:href="#JosefinSans-Regular-48"/>
       <use x="114.699982" xlink:href="#JosefinSans-Regular-48"/>
       <use x="177.099976" xlink:href="#JosefinSans-Regular-48"/>
      </g>
     </g>
    </g>
    <g id="ytick_3">
     <g id="line2d_15">
      <path clip-path="url(#p4808581fb4)" d="M 67.688677 161.585442 
L 860.99976 161.585442 
" style="fill:none;stroke:#cccccc;stroke-dasharray:0.8,1.32;stroke-dashoffset:0;stroke-width:0.8;"/>
     </g>
     <g id="line2d_16"/>
     <g id="text_9">
      <!-- 10000 -->
      <defs>
       <path d="M 22.59375 65.796875 
L 22.59375 0 
L 12.796875 0 
L 12.796875 56.5 
L 5.296875 56.5 
L 5.296875 65.796875 
z
" id="JosefinSans-Regular-49"/>
      </defs>
      <g style="fill:#262626;" transform="translate(24.621177 167.010442)scale(0.14 -0.14)">
       <use xlink:href="#JosefinSans-Regular-49"/>
       <use x="32.999985" xlink:href="#JosefinSans-Regular-48"/>
       <use x="95.399979" xlink:href="#JosefinSans-Regular-48"/>
       <use x="157.799973" xlink:href="#JosefinSans-Regular-48"/>
       <use x="220.199966" xlink:href="#JosefinSans-Regular-48"/>
      </g>
     </g>
    </g>
    <g id="ytick_4">
     <g id="line2d_17">
      <path clip-path="url(#p4808581fb4)" d="M 67.688677 117.752189 
L 860.99976 117.752189 
" style="fill:none;stroke:#cccccc;stroke-dasharray:0.8,1.32;stroke-dashoffset:0;stroke-width:0.8;"/>
     </g>
     <g id="line2d_18"/>
     <g id="text_10">
      <!-- 15000 -->
      <g style="fill:#262626;" transform="translate(26.03649 123.177189)scale(0.14 -0.14)">
       <use xlink:href="#JosefinSans-Regular-49"/>
       <use x="32.999985" xlink:href="#JosefinSans-Regular-53"/>
       <use x="85.299973" xlink:href="#JosefinSans-Regular-48"/>
       <use x="147.699966" xlink:href="#JosefinSans-Regular-48"/>
       <use x="210.09996" xlink:href="#JosefinSans-Regular-48"/>
      </g>
     </g>
    </g>
    <g id="ytick_5">
     <g id="line2d_19">
      <path clip-path="url(#p4808581fb4)" d="M 67.688677 73.918936 
L 860.99976 73.918936 
" style="fill:none;stroke:#cccccc;stroke-dasharray:0.8,1.32;stroke-dashoffset:0;stroke-width:0.8;"/>
     </g>
     <g id="line2d_20"/>
     <g id="text_11">
      <!-- 20000 -->
      <g style="fill:#262626;" transform="translate(21.611177 79.343936)scale(0.14 -0.14)">
       <use xlink:href="#JosefinSans-Regular-50"/>
       <use x="54.499985" xlink:href="#JosefinSans-Regular-48"/>
       <use x="116.899979" xlink:href="#JosefinSans-Regular-48"/>
       <use x="179.299973" xlink:href="#JosefinSans-Regular-48"/>
       <use x="241.699966" xlink:href="#JosefinSans-Regular-48"/>
      </g>
     </g>
    </g>
    <g id="ytick_6">
     <g id="line2d_21">
      <path clip-path="url(#p4808581fb4)" d="M 67.688677 30.085684 
L 860.99976 30.085684 
" style="fill:none;stroke:#cccccc;stroke-dasharray:0.8,1.32;stroke-dashoffset:0;stroke-width:0.8;"/>
     </g>
     <g id="line2d_22"/>
     <g id="text_12">
      <!-- 25000 -->
      <g style="fill:#262626;" transform="translate(23.02649 35.510684)scale(0.14 -0.14)">
       <use xlink:href="#JosefinSans-Regular-50"/>
       <use x="54.499985" xlink:href="#JosefinSans-Regular-53"/>
       <use x="106.799973" xlink:href="#JosefinSans-Regular-48"/>
       <use x="169.199966" xlink:href="#JosefinSans-Regular-48"/>
       <use x="231.59996" xlink:href="#JosefinSans-Regular-48"/>
      </g>
     </g>
    </g>
    <g id="text_13">
     <!-- Frequency -->
     <defs>
      <path d="M 53.296875 72.296875 
L 53.296875 63 
L 20.09375 63 
L 20.09375 40 
L 49.203125 40 
L 49.203125 30.703125 
L 20.09375 30.703125 
L 20.09375 0 
L 10.40625 0 
L 10.40625 72.296875 
z
" id="JosefinSans-Regular-70"/>
      <path d="M 51.296875 42.09375 
L 51.296875 -19.90625 
L 42 -19.90625 
L 42 6.203125 
Q 39.40625 3 34.796875 1 
Q 30.203125 -1 24.703125 -1 
Q 19.09375 -1 14.5 1.703125 
Q 9.90625 4.40625 7.203125 9.34375 
Q 4.5 14.296875 4.5 20.796875 
Q 4.5 27.296875 7.453125 32.390625 
Q 10.40625 37.5 15.34375 40.296875 
Q 20.296875 43.09375 26.296875 43.09375 
Q 31.203125 43.09375 35.203125 41.140625 
Q 39.203125 39.203125 41.90625 35.796875 
L 41.90625 42.09375 
z
M 41.90625 24.296875 
Q 40.796875 29.203125 37 32.203125 
Q 33.203125 35.203125 27.90625 35.203125 
Q 24.09375 35.203125 20.890625 33.296875 
Q 17.703125 31.40625 15.796875 28.046875 
Q 13.90625 24.703125 13.90625 20.703125 
Q 13.90625 16.703125 15.796875 13.453125 
Q 17.703125 10.203125 20.890625 8.34375 
Q 24.09375 6.5 27.90625 6.5 
Q 33.203125 6.5 37.09375 9.546875 
Q 41 12.59375 41.90625 17.296875 
z
" id="JosefinSans-Regular-113"/>
     </defs>
     <g style="fill:#262626;" transform="translate(14.62524 160.985859)rotate(-90)scale(0.15 -0.15)">
      <use xlink:href="#JosefinSans-Regular-70"/>
      <use x="58.899994" xlink:href="#JosefinSans-Regular-114"/>
      <use x="96.499985" xlink:href="#JosefinSans-Regular-101"/>
      <use x="148.499969" xlink:href="#JosefinSans-Regular-113"/>
      <use x="207.799957" xlink:href="#JosefinSans-Regular-117"/>
      <use x="262.499954" xlink:href="#JosefinSans-Regular-101"/>
      <use x="314.499939" xlink:href="#JosefinSans-Regular-110"/>
      <use x="369.799927" xlink:href="#JosefinSans-Regular-99"/>
      <use x="415.399918" xlink:href="#JosefinSans-Regular-121"/>
     </g>
    </g>
   </g>
   <g id="patch_3">
    <path clip-path="url(#p4808581fb4)" d="M 38.461427 249.251947 
L 96.915928 249.251947 
L 96.915928 249.234414 
L 38.461427 249.234414 
z
" style="fill:#81aca4;"/>
   </g>
   <g id="patch_4">
    <path clip-path="url(#p4808581fb4)" d="M 121.967857 249.251947 
L 180.422358 249.251947 
L 180.422358 248.883748 
L 121.967857 248.883748 
z
" style="fill:#81aca4;"/>
   </g>
   <g id="patch_5">
    <path clip-path="url(#p4808581fb4)" d="M 205.474287 249.251947 
L 263.928787 249.251947 
L 263.928787 245.81542 
L 205.474287 245.81542 
z
" style="fill:#81aca4;"/>
   </g>
   <g id="patch_6">
    <path clip-path="url(#p4808581fb4)" d="M 288.980716 249.251947 
L 347.435217 249.251947 
L 347.435217 230.692948 
L 288.980716 230.692948 
z
" style="fill:#81aca4;"/>
   </g>
   <g id="patch_7">
    <path clip-path="url(#p4808581fb4)" d="M 372.487146 249.251947 
L 430.941647 249.251947 
L 430.941647 184.1771 
L 372.487146 184.1771 
z
" style="fill:#81aca4;"/>
   </g>
   <g id="patch_8">
    <path clip-path="url(#p4808581fb4)" d="M 455.993576 249.251947 
L 514.448077 249.251947 
L 514.448077 98.87759 
L 455.993576 98.87759 
z
" style="fill:#81aca4;"/>
   </g>
   <g id="patch_9">
    <path clip-path="url(#p4808581fb4)" d="M 539.500006 249.251947 
L 597.954506 249.251947 
L 597.954506 14.726512 
L 539.500006 14.726512 
z
" style="fill:#81aca4;"/>
   </g>
   <g id="patch_10">
    <path clip-path="url(#p4808581fb4)" d="M 623.006435 249.251947 
L 681.460936 249.251947 
L 681.460936 16.436009 
L 623.006435 16.436009 
z
" style="fill:#81aca4;"/>
   </g>
   <g id="patch_11">
    <path clip-path="url(#p4808581fb4)" d="M 706.512865 249.251947 
L 764.967366 249.251947 
L 764.967366 112.141533 
L 706.512865 112.141533 
z
" style="fill:#81aca4;"/>
   </g>
   <g id="patch_12">
    <path clip-path="url(#p4808581fb4)" d="M 790.019295 249.251947 
L 848.473796 249.251947 
L 848.473796 214.869144 
L 790.019295 214.869144 
z
" style="fill:#81aca4;"/>
   </g>
  </g>
 </g>
 <defs>
  <clipPath id="p4808581fb4">
   <rect height="246.251708" width="793.311082" x="67.688677" y="3.00024"/>
  </clipPath>
 </defs>
</svg>
