<?xml version="1.0" encoding="utf-8" standalone="no"?>
<!DOCTYPE svg PUBLIC "-//W3C//DTD SVG 1.1//EN"
  "http://www.w3.org/Graphics/SVG/1.1/DTD/svg11.dtd">
<!-- Created with matplotlib (https://matplotlib.org/) -->
<svg height="288pt" version="1.1" viewBox="0 0 864 288" width="864pt" xmlns="http://www.w3.org/2000/svg" xmlns:xlink="http://www.w3.org/1999/xlink">
 <defs>
  <style type="text/css">
*{stroke-linecap:butt;stroke-linejoin:round;}
  </style>
 </defs>
 <g id="figure_1">
  <g id="patch_1">
   <path d="M 0 288 
L 864 288 
L 864 0 
L 0 0 
z
" style="fill:#ffffff;"/>
  </g>
  <g id="axes_1">
   <g id="patch_2">
    <path d="M 53.688677 249.251947 
L 860.99976 249.251947 
L 860.99976 3.00024 
L 53.688677 3.00024 
z
" style="fill:#ffffff;"/>
   </g>
   <g id="matplotlib.axis_1">
    <g id="xtick_1">
     <g id="line2d_1">
      <path clip-path="url(#p41e8a37fa3)" d="M 90.384636 249.251947 
L 90.384636 3.00024 
" style="fill:none;stroke:#cccccc;stroke-dasharray:0.8,1.32;stroke-dashoffset:0;stroke-width:0.8;"/>
     </g>
     <g id="line2d_2"/>
     <g id="text_1">
      <!-- 0.0 -->
      <defs>
       <path d="M 31.203125 -0.296875 
Q 23.09375 -0.296875 16.84375 3.75 
Q 10.59375 7.796875 7.09375 15.390625 
Q 3.59375 23 3.59375 33.203125 
Q 3.59375 49.5 10.9375 58.046875 
Q 18.296875 66.59375 31.203125 66.5 
Q 39.296875 66.5 45.546875 62.5 
Q 51.796875 58.5 55.296875 50.890625 
Q 58.796875 43.296875 58.796875 33.203125 
Q 58.796875 22.796875 55.296875 15.1875 
Q 51.796875 7.59375 45.546875 3.59375 
Q 39.296875 -0.40625 31.203125 -0.296875 
z
M 31.09375 9 
Q 39.59375 9 44.140625 15.59375 
Q 48.703125 22.203125 48.796875 33.40625 
Q 48.703125 44.296875 44.140625 50.75 
Q 39.59375 57.203125 31.09375 57.203125 
Q 22.703125 57.203125 18.203125 50.703125 
Q 13.703125 44.203125 13.59375 33.203125 
Q 13.703125 22.09375 18.203125 15.546875 
Q 22.703125 9 31.09375 9 
z
" id="JosefinSans-Regular-48"/>
       <path d="M 3.40625 5.296875 
Q 3.40625 7.5 5 9.09375 
Q 6.59375 10.703125 8.703125 10.703125 
Q 10.59375 10.703125 12.25 9.09375 
Q 13.90625 7.5 13.90625 5.296875 
Q 13.90625 3 12.296875 1.5 
Q 10.703125 0 8.703125 0 
Q 6.59375 0 5 1.5 
Q 3.40625 3 3.40625 5.296875 
z
" id="JosefinSans-Regular-46"/>
      </defs>
      <g style="fill:#262626;" transform="translate(80.464323 263.601947)scale(0.14 -0.14)">
       <use xlink:href="#JosefinSans-Regular-48"/>
       <use x="62.399994" xlink:href="#JosefinSans-Regular-46"/>
       <use x="79.299988" xlink:href="#JosefinSans-Regular-48"/>
      </g>
     </g>
    </g>
    <g id="xtick_2">
     <g id="line2d_3">
      <path clip-path="url(#p41e8a37fa3)" d="M 237.168469 249.251947 
L 237.168469 3.00024 
" style="fill:none;stroke:#cccccc;stroke-dasharray:0.8,1.32;stroke-dashoffset:0;stroke-width:0.8;"/>
     </g>
     <g id="line2d_4"/>
     <g id="text_2">
      <!-- 0.2 -->
      <defs>
       <path d="M 50.203125 9.40625 
L 50.203125 0 
L 5.40625 0 
L 8.703125 3.296875 
Q 18.90625 13.5 24.59375 19.796875 
Q 30.296875 26.09375 34.140625 32.546875 
Q 38 39 38 44.796875 
Q 38 50.90625 34.390625 54.09375 
Q 30.796875 57.296875 25.59375 57.296875 
Q 21.5 57.296875 18.75 55.59375 
Q 16 53.90625 14.75 51.296875 
Q 13.5 48.703125 13.5 46.09375 
Q 13.5 39.703125 17.40625 35.59375 
L 11.5 30.203125 
Q 8.203125 32.203125 6.140625 36.953125 
Q 4.09375 41.703125 4.09375 45.90625 
Q 4.09375 51.40625 6.84375 56.15625 
Q 9.59375 60.90625 14.796875 63.75 
Q 20 66.59375 27.203125 66.59375 
Q 33.296875 66.59375 38.046875 63.75 
Q 42.796875 60.90625 45.390625 56.09375 
Q 48 51.296875 48 45.59375 
Q 48 39.90625 45.296875 34.203125 
Q 42.59375 28.5 38.640625 23.5 
Q 34.703125 18.5 28.09375 11.09375 
L 26.59375 9.40625 
z
" id="JosefinSans-Regular-50"/>
      </defs>
      <g style="fill:#262626;" transform="translate(227.801594 263.601947)scale(0.14 -0.14)">
       <use xlink:href="#JosefinSans-Regular-48"/>
       <use x="62.399994" xlink:href="#JosefinSans-Regular-46"/>
       <use x="79.299988" xlink:href="#JosefinSans-Regular-50"/>
      </g>
     </g>
    </g>
    <g id="xtick_3">
     <g id="line2d_5">
      <path clip-path="url(#p41e8a37fa3)" d="M 383.952302 249.251947 
L 383.952302 3.00024 
" style="fill:none;stroke:#cccccc;stroke-dasharray:0.8,1.32;stroke-dashoffset:0;stroke-width:0.8;"/>
     </g>
     <g id="line2d_6"/>
     <g id="text_3">
      <!-- 0.4 -->
      <defs>
       <path d="M 50.09375 23.40625 
L 50.09375 15.90625 
L 41.5 15.90625 
L 41.5 0 
L 31.796875 0 
L 31.796875 15.90625 
L 1.296875 15.90625 
L 1.296875 16 
L 41.40625 66.59375 
L 41.5 66.59375 
L 41.5 23.40625 
z
M 31.796875 23.40625 
L 31.796875 43.90625 
L 15.90625 23.40625 
z
" id="JosefinSans-Regular-52"/>
      </defs>
      <g style="fill:#262626;" transform="translate(374.648865 263.601947)scale(0.14 -0.14)">
       <use xlink:href="#JosefinSans-Regular-48"/>
       <use x="62.399994" xlink:href="#JosefinSans-Regular-46"/>
       <use x="79.299988" xlink:href="#JosefinSans-Regular-52"/>
      </g>
     </g>
    </g>
    <g id="xtick_4">
     <g id="line2d_7">
      <path clip-path="url(#p41e8a37fa3)" d="M 530.736135 249.251947 
L 530.736135 3.00024 
" style="fill:none;stroke:#cccccc;stroke-dasharray:0.8,1.32;stroke-dashoffset:0;stroke-width:0.8;"/>
     </g>
     <g id="line2d_8"/>
     <g id="text_4">
      <!-- 0.6 -->
      <defs>
       <path d="M 30.59375 42.203125 
Q 35.703125 42.203125 40.25 39.453125 
Q 44.796875 36.703125 47.59375 31.890625 
Q 50.40625 27.09375 50.40625 21.203125 
Q 50.40625 14.703125 47.203125 9.703125 
Q 44 4.703125 38.703125 1.953125 
Q 33.40625 -0.796875 27.40625 -0.796875 
Q 20.703125 -0.796875 15.34375 2.390625 
Q 10 5.59375 6.890625 11.5 
Q 3.796875 17.40625 3.796875 25.296875 
Q 3.796875 37.203125 12.25 47.5 
Q 20.703125 57.796875 34.09375 66.40625 
L 40.59375 59.296875 
Q 31.703125 54.90625 25.703125 49.046875 
Q 19.703125 43.203125 16.90625 37 
Q 22.09375 42.203125 30.59375 42.203125 
z
M 27 7.90625 
Q 32.703125 7.90625 36.546875 11.59375 
Q 40.40625 15.296875 40.40625 21.203125 
Q 40.40625 26.90625 36.546875 30.453125 
Q 32.703125 34 27 34 
Q 23.40625 34 20.34375 32.453125 
Q 17.296875 30.90625 15.5 28.25 
Q 13.703125 25.59375 13.703125 22.5 
L 13.703125 20.703125 
Q 13.703125 17.296875 15.5 14.34375 
Q 17.296875 11.40625 20.34375 9.65625 
Q 23.40625 7.90625 27 7.90625 
z
" id="JosefinSans-Regular-54"/>
      </defs>
      <g style="fill:#262626;" transform="translate(521.36926 263.601947)scale(0.14 -0.14)">
       <use xlink:href="#JosefinSans-Regular-48"/>
       <use x="62.399994" xlink:href="#JosefinSans-Regular-46"/>
       <use x="79.299988" xlink:href="#JosefinSans-Regular-54"/>
      </g>
     </g>
    </g>
    <g id="xtick_5">
     <g id="line2d_9">
      <path clip-path="url(#p41e8a37fa3)" d="M 677.519969 249.251947 
L 677.519969 3.00024 
" style="fill:none;stroke:#cccccc;stroke-dasharray:0.8,1.32;stroke-dashoffset:0;stroke-width:0.8;"/>
     </g>
     <g id="line2d_10"/>
     <g id="text_5">
      <!-- 0.8 -->
      <defs>
       <path d="M 2.796875 20.796875 
Q 2.796875 27.703125 6.59375 32.546875 
Q 10.40625 37.40625 15.703125 39.59375 
Q 12.40625 41.703125 10.59375 44.546875 
Q 8.796875 47.40625 8.796875 51.5 
Q 8.796875 55.796875 11.046875 59.25 
Q 13.296875 62.703125 17.25 64.640625 
Q 21.203125 66.59375 26.09375 66.59375 
Q 30.90625 66.59375 34.90625 64.640625 
Q 38.90625 62.703125 41.203125 59.34375 
Q 43.5 56 43.5 51.90625 
Q 43.5 47.59375 41.703125 44.75 
Q 39.90625 41.90625 36.5 39.59375 
Q 41.90625 37.296875 45.703125 32.4375 
Q 49.5 27.59375 49.5 20.796875 
Q 49.5 15.09375 46.390625 10.140625 
Q 43.296875 5.203125 37.890625 2.203125 
Q 32.5 -0.796875 26 -0.796875 
Q 19.5 -0.796875 14.203125 2.140625 
Q 8.90625 5.09375 5.84375 10.09375 
Q 2.796875 15.09375 2.796875 20.796875 
z
M 18.203125 50.40625 
Q 18.203125 47.296875 20.640625 45.09375 
Q 23.09375 42.90625 26.296875 42.90625 
Q 29.5 42.90625 31.84375 45.09375 
Q 34.203125 47.296875 34.203125 50.40625 
Q 34.203125 53.90625 31.890625 56.203125 
Q 29.59375 58.5 26.296875 58.5 
Q 23 58.5 20.59375 56.203125 
Q 18.203125 53.90625 18.203125 50.40625 
z
M 12.703125 21.203125 
Q 12.703125 17.5 14.5 14.34375 
Q 16.296875 11.203125 19.34375 9.296875 
Q 22.40625 7.40625 26 7.40625 
Q 29.703125 7.40625 32.84375 9.296875 
Q 36 11.203125 37.890625 14.34375 
Q 39.796875 17.5 39.796875 21.203125 
Q 39.796875 24.90625 38 28 
Q 36.203125 31.09375 33.046875 32.9375 
Q 29.90625 34.796875 26.203125 34.796875 
Q 22.59375 34.796875 19.5 33 
Q 16.40625 31.203125 14.546875 28.046875 
Q 12.703125 24.90625 12.703125 21.203125 
z
" id="JosefinSans-Regular-56"/>
      </defs>
      <g style="fill:#262626;" transform="translate(668.307312 263.601947)scale(0.14 -0.14)">
       <use xlink:href="#JosefinSans-Regular-48"/>
       <use x="62.399994" xlink:href="#JosefinSans-Regular-46"/>
       <use x="79.299988" xlink:href="#JosefinSans-Regular-56"/>
      </g>
     </g>
    </g>
    <g id="xtick_6">
     <g id="line2d_11">
      <path clip-path="url(#p41e8a37fa3)" d="M 824.303802 249.251947 
L 824.303802 3.00024 
" style="fill:none;stroke:#cccccc;stroke-dasharray:0.8,1.32;stroke-dashoffset:0;stroke-width:0.8;"/>
     </g>
     <g id="line2d_12"/>
     <g id="text_6">
      <!-- 1.0 -->
      <defs>
       <path d="M 22.59375 65.796875 
L 22.59375 0 
L 12.796875 0 
L 12.796875 56.5 
L 5.296875 56.5 
L 5.296875 65.796875 
z
" id="JosefinSans-Regular-49"/>
      </defs>
      <g style="fill:#262626;" transform="translate(816.441927 263.601947)scale(0.14 -0.14)">
       <use xlink:href="#JosefinSans-Regular-49"/>
       <use x="32.999985" xlink:href="#JosefinSans-Regular-46"/>
       <use x="49.899979" xlink:href="#JosefinSans-Regular-48"/>
      </g>
     </g>
    </g>
    <g id="text_7">
     <!-- proportion water (p) -->
     <defs>
      <path d="M 34.296875 43.09375 
Q 40.09375 43.09375 44.796875 40.296875 
Q 49.5 37.5 52.203125 32.453125 
Q 54.90625 27.40625 54.90625 20.796875 
Q 54.90625 14.296875 52 9.34375 
Q 49.09375 4.40625 44 1.703125 
Q 38.90625 -1 32.59375 -1 
Q 28.09375 -1 24 0.953125 
Q 19.90625 2.90625 17.40625 6.203125 
L 17.40625 -19.90625 
L 8.09375 -19.90625 
L 8.09375 42.09375 
L 16.203125 42.09375 
L 17 35.09375 
Q 20.203125 38.703125 24.640625 40.890625 
Q 29.09375 43.09375 34.296875 43.09375 
z
M 30.796875 6.5 
Q 34.703125 6.5 38.046875 8.34375 
Q 41.40625 10.203125 43.40625 13.453125 
Q 45.40625 16.703125 45.40625 20.703125 
Q 45.40625 24.796875 43.546875 28.09375 
Q 41.703125 31.40625 38.5 33.296875 
Q 35.296875 35.203125 31.40625 35.203125 
Q 26.09375 35.203125 22.34375 32.25 
Q 18.59375 29.296875 17.40625 24.296875 
L 17.40625 17.40625 
Q 18.203125 12.59375 21.953125 9.546875 
Q 25.703125 6.5 30.796875 6.5 
z
" id="JosefinSans-Regular-112"/>
      <path d="M 17.09375 31.59375 
Q 18.703125 35 21.640625 37.59375 
Q 24.59375 40.203125 27.890625 41.59375 
Q 31.203125 43 33.703125 43.09375 
L 33.296875 33.796875 
Q 28.796875 34 25.140625 32 
Q 21.5 30 19.453125 26.453125 
Q 17.40625 22.90625 17.40625 18.90625 
L 17.40625 0 
L 8.09375 0 
L 8.09375 41.40625 
L 16.40625 41.40625 
L 17.09375 31.59375 
z
" id="JosefinSans-Regular-114"/>
      <path d="M 4.5 21.09375 
Q 4.5 27.203125 7.453125 32.25 
Q 10.40625 37.296875 15.65625 40.1875 
Q 20.90625 43.09375 27.5 43.09375 
Q 34.09375 43.09375 39.25 40.1875 
Q 44.40625 37.296875 47.25 32.296875 
Q 50.09375 27.296875 50.09375 21.09375 
Q 50.09375 14.90625 47.25 9.84375 
Q 44.40625 4.796875 39.203125 1.890625 
Q 34 -1 27.296875 -1 
Q 20.796875 -1 15.59375 1.75 
Q 10.40625 4.5 7.453125 9.5 
Q 4.5 14.5 4.5 21.09375 
z
M 13.90625 21 
Q 13.90625 17.09375 15.65625 13.796875 
Q 17.40625 10.5 20.453125 8.59375 
Q 23.5 6.703125 27.203125 6.703125 
Q 33 6.703125 36.796875 10.796875 
Q 40.59375 14.90625 40.59375 21 
Q 40.59375 27.09375 36.796875 31.25 
Q 33 35.40625 27.203125 35.40625 
Q 23.40625 35.40625 20.40625 33.453125 
Q 17.40625 31.5 15.65625 28.203125 
Q 13.90625 24.90625 13.90625 21 
z
" id="JosefinSans-Regular-111"/>
      <path d="M 21.5 59.59375 
L 21.5 41.296875 
L 32.796875 41.296875 
L 32.796875 33.90625 
L 21.5 33.90625 
L 21.5 0 
L 12.09375 0 
L 12.09375 33.90625 
L 4.5 33.90625 
L 4.5 41.296875 
L 12.09375 41.296875 
L 12.09375 59.59375 
z
" id="JosefinSans-Regular-116"/>
      <path d="M 17.40625 41.40625 
L 17.40625 0 
L 8.09375 0 
L 8.09375 41.40625 
z
M 7.40625 56.296875 
Q 7.40625 58.5 9.09375 60 
Q 10.796875 61.5 13 61.5 
Q 15.203125 61.5 16.84375 60 
Q 18.5 58.5 18.5 56.296875 
Q 18.5 54.109375 16.84375 52.609375 
Q 15.203125 51.109375 13 51.109375 
Q 10.796875 51.109375 9.09375 52.609375 
Q 7.40625 54.109375 7.40625 56.296875 
z
" id="JosefinSans-Regular-105"/>
      <path d="M 33.796875 43 
Q 39.59375 43 43.390625 39.546875 
Q 47.203125 36.09375 47.296875 30.59375 
L 47.296875 0 
L 37.90625 0 
L 37.90625 27.40625 
Q 37.703125 30.90625 35.796875 32.90625 
Q 33.90625 34.90625 30.09375 35 
Q 24.59375 35 21 30.59375 
Q 17.40625 26.203125 17.40625 19.40625 
L 17.40625 0 
L 8.09375 0 
L 8.09375 41.40625 
L 16.5 41.40625 
L 17.09375 33.40625 
Q 19.296875 37.90625 23.6875 40.453125 
Q 28.09375 43 33.796875 43 
z
" id="JosefinSans-Regular-110"/>
      <path id="JosefinSans-Regular-32"/>
      <path d="M 65.59375 41.40625 
L 46.5 -2.5 
L 33.203125 25.90625 
L 21.09375 -2.5 
L 1.90625 41.40625 
L 11.09375 41.40625 
L 22.203125 16.296875 
L 29.90625 34.296875 
L 26.59375 41.40625 
L 34.703125 41.40625 
L 45.90625 15.703125 
L 56.40625 41.40625 
z
" id="JosefinSans-Regular-119"/>
      <path d="M 50.59375 41.40625 
L 50.59375 0 
L 41.296875 0 
L 41.296875 6.796875 
Q 39.09375 3.90625 34.890625 1.453125 
Q 30.703125 -1 25.40625 -1 
Q 19.5 -1 14.75 1.546875 
Q 10 4.09375 7.25 9 
Q 4.5 13.90625 4.5 20.703125 
Q 4.5 27.5 7.34375 32.546875 
Q 10.203125 37.59375 15.046875 40.34375 
Q 19.90625 43.09375 25.796875 43.09375 
Q 31.09375 43.09375 35 40.796875 
Q 38.90625 38.5 41.296875 34.796875 
L 42 41.40625 
z
M 27.90625 6.703125 
Q 33 6.703125 36.640625 9.546875 
Q 40.296875 12.40625 41.296875 17.296875 
L 41.296875 25.5 
Q 40.09375 29.90625 36.296875 32.65625 
Q 32.5 35.40625 27.59375 35.40625 
Q 23.90625 35.40625 20.75 33.59375 
Q 17.59375 31.796875 15.75 28.546875 
Q 13.90625 25.296875 13.90625 21.203125 
Q 13.90625 17.203125 15.796875 13.890625 
Q 17.703125 10.59375 20.890625 8.640625 
Q 24.09375 6.703125 27.90625 6.703125 
z
" id="JosefinSans-Regular-97"/>
      <path d="M 27.5 7 
Q 32.703125 7 37.59375 10.59375 
L 41.90625 3.703125 
Q 38.59375 1.5 34.75 0.25 
Q 30.90625 -1 27.296875 -1 
Q 20.40625 -1 15.25 1.84375 
Q 10.09375 4.703125 7.296875 9.703125 
Q 4.5 14.703125 4.5 21 
Q 4.5 27.09375 7.546875 32.140625 
Q 10.59375 37.203125 15.890625 40.140625 
Q 21.203125 43.09375 27.5 43.09375 
Q 35.59375 43.09375 41.046875 38.34375 
Q 46.5 33.59375 48.5 25.09375 
L 15.703125 13.59375 
Q 17.5 10.5 20.546875 8.75 
Q 23.59375 7 27.5 7 
z
M 26.796875 35.703125 
Q 21.09375 35.703125 17.390625 31.703125 
Q 13.703125 27.703125 13.703125 21.5 
Q 13.703125 20 13.796875 19.203125 
L 37.90625 28.09375 
Q 36.40625 31.5 33.65625 33.59375 
Q 30.90625 35.703125 26.796875 35.703125 
z
" id="JosefinSans-Regular-101"/>
      <path d="M 10.203125 29.5 
Q 10.203125 43.703125 15.046875 55.890625 
Q 19.90625 68.09375 26.90625 75.5 
L 34.203125 71.40625 
Q 27.90625 64 23.90625 53.296875 
Q 19.90625 42.59375 19.90625 29.5 
Q 19.90625 16.40625 23.90625 5.65625 
Q 27.90625 -5.09375 34.203125 -12.40625 
L 26.90625 -16.59375 
Q 19.90625 -9.09375 15.046875 3.09375 
Q 10.203125 15.296875 10.203125 29.5 
z
" id="JosefinSans-Regular-40"/>
      <path d="M 31.296875 29.5 
Q 31.296875 15.296875 26.5 3.046875 
Q 21.703125 -9.203125 14.703125 -16.59375 
L 7.296875 -12.40625 
Q 13.59375 -5.09375 17.59375 5.65625 
Q 21.59375 16.40625 21.59375 29.5 
Q 21.59375 42.59375 17.59375 53.296875 
Q 13.59375 64 7.296875 71.296875 
L 14.703125 75.5 
Q 21.703125 68 26.5 55.84375 
Q 31.296875 43.703125 31.296875 29.5 
z
" id="JosefinSans-Regular-41"/>
     </defs>
     <g style="fill:#262626;" transform="translate(387.6575 282.013823)scale(0.15 -0.15)">
      <use xlink:href="#JosefinSans-Regular-112"/>
      <use x="59.299988" xlink:href="#JosefinSans-Regular-114"/>
      <use x="96.899979" xlink:href="#JosefinSans-Regular-111"/>
      <use x="151.399963" xlink:href="#JosefinSans-Regular-112"/>
      <use x="210.699951" xlink:href="#JosefinSans-Regular-111"/>
      <use x="265.199936" xlink:href="#JosefinSans-Regular-114"/>
      <use x="302.799927" xlink:href="#JosefinSans-Regular-116"/>
      <use x="338.799911" xlink:href="#JosefinSans-Regular-105"/>
      <use x="364.299896" xlink:href="#JosefinSans-Regular-111"/>
      <use x="418.799881" xlink:href="#JosefinSans-Regular-110"/>
      <use x="474.099869" xlink:href="#JosefinSans-Regular-32"/>
      <use x="505.69986" xlink:href="#JosefinSans-Regular-119"/>
      <use x="573.199844" xlink:href="#JosefinSans-Regular-97"/>
      <use x="631.899841" xlink:href="#JosefinSans-Regular-116"/>
      <use x="667.899826" xlink:href="#JosefinSans-Regular-101"/>
      <use x="719.899811" xlink:href="#JosefinSans-Regular-114"/>
      <use x="757.499802" xlink:href="#JosefinSans-Regular-32"/>
      <use x="789.099792" xlink:href="#JosefinSans-Regular-40"/>
      <use x="829.39978" xlink:href="#JosefinSans-Regular-112"/>
      <use x="888.699768" xlink:href="#JosefinSans-Regular-41"/>
     </g>
    </g>
   </g>
   <g id="matplotlib.axis_2">
    <g id="ytick_1">
     <g id="line2d_13">
      <path clip-path="url(#p41e8a37fa3)" d="M 53.688677 238.058688 
L 860.99976 238.058688 
" style="fill:none;stroke:#cccccc;stroke-dasharray:0.8,1.32;stroke-dashoffset:0;stroke-width:0.8;"/>
     </g>
     <g id="line2d_14"/>
     <g id="text_8">
      <!-- 0.00 -->
      <g style="fill:#262626;" transform="translate(21.611177 243.483688)scale(0.14 -0.14)">
       <use xlink:href="#JosefinSans-Regular-48"/>
       <use x="62.399994" xlink:href="#JosefinSans-Regular-46"/>
       <use x="79.299988" xlink:href="#JosefinSans-Regular-48"/>
       <use x="141.699982" xlink:href="#JosefinSans-Regular-48"/>
      </g>
     </g>
    </g>
    <g id="ytick_2">
     <g id="line2d_15">
      <path clip-path="url(#p41e8a37fa3)" d="M 53.688677 181.527075 
L 860.99976 181.527075 
" style="fill:none;stroke:#cccccc;stroke-dasharray:0.8,1.32;stroke-dashoffset:0;stroke-width:0.8;"/>
     </g>
     <g id="line2d_16"/>
     <g id="text_9">
      <!-- 0.01 -->
      <g style="fill:#262626;" transform="translate(25.728052 186.952075)scale(0.14 -0.14)">
       <use xlink:href="#JosefinSans-Regular-48"/>
       <use x="62.399994" xlink:href="#JosefinSans-Regular-46"/>
       <use x="79.299988" xlink:href="#JosefinSans-Regular-48"/>
       <use x="141.699982" xlink:href="#JosefinSans-Regular-49"/>
      </g>
     </g>
    </g>
    <g id="ytick_3">
     <g id="line2d_17">
      <path clip-path="url(#p41e8a37fa3)" d="M 53.688677 124.995461 
L 860.99976 124.995461 
" style="fill:none;stroke:#cccccc;stroke-dasharray:0.8,1.32;stroke-dashoffset:0;stroke-width:0.8;"/>
     </g>
     <g id="line2d_18"/>
     <g id="text_10">
      <!-- 0.02 -->
      <g style="fill:#262626;" transform="translate(22.718052 130.420461)scale(0.14 -0.14)">
       <use xlink:href="#JosefinSans-Regular-48"/>
       <use x="62.399994" xlink:href="#JosefinSans-Regular-46"/>
       <use x="79.299988" xlink:href="#JosefinSans-Regular-48"/>
       <use x="141.699982" xlink:href="#JosefinSans-Regular-50"/>
      </g>
     </g>
    </g>
    <g id="ytick_4">
     <g id="line2d_19">
      <path clip-path="url(#p41e8a37fa3)" d="M 53.688677 68.463848 
L 860.99976 68.463848 
" style="fill:none;stroke:#cccccc;stroke-dasharray:0.8,1.32;stroke-dashoffset:0;stroke-width:0.8;"/>
     </g>
     <g id="line2d_20"/>
     <g id="text_11">
      <!-- 0.03 -->
      <defs>
       <path d="M 28.59375 41.59375 
Q 36.203125 41.203125 41.09375 36.390625 
Q 46 31.59375 46 21.90625 
Q 46 15.09375 42.890625 9.9375 
Q 39.796875 4.796875 34.4375 2 
Q 29.09375 -0.796875 22.703125 -0.796875 
Q 18 -0.796875 13.203125 1.203125 
Q 8.40625 3.203125 5.296875 6.40625 
L 10.296875 14.40625 
Q 12.203125 12 15.59375 10.296875 
Q 19 8.59375 22.5 8.59375 
Q 28.203125 8.59375 32.09375 12.390625 
Q 36 16.203125 36 22.5 
Q 36 28.09375 32.640625 31.4375 
Q 29.296875 34.796875 23.5 34.796875 
Q 19.09375 34.796875 15 33.296875 
L 14.703125 33.703125 
L 29.40625 56.5 
L 9.203125 56.5 
L 9.203125 65.796875 
L 43.703125 65.796875 
L 28.59375 41.59375 
z
" id="JosefinSans-Regular-51"/>
      </defs>
      <g style="fill:#262626;" transform="translate(23.011177 73.888848)scale(0.14 -0.14)">
       <use xlink:href="#JosefinSans-Regular-48"/>
       <use x="62.399994" xlink:href="#JosefinSans-Regular-46"/>
       <use x="79.299988" xlink:href="#JosefinSans-Regular-48"/>
       <use x="141.699982" xlink:href="#JosefinSans-Regular-51"/>
      </g>
     </g>
    </g>
    <g id="ytick_5">
     <g id="line2d_21">
      <path clip-path="url(#p41e8a37fa3)" d="M 53.688677 11.932235 
L 860.99976 11.932235 
" style="fill:none;stroke:#cccccc;stroke-dasharray:0.8,1.32;stroke-dashoffset:0;stroke-width:0.8;"/>
     </g>
     <g id="line2d_22"/>
     <g id="text_12">
      <!-- 0.04 -->
      <g style="fill:#262626;" transform="translate(22.844927 17.357235)scale(0.14 -0.14)">
       <use xlink:href="#JosefinSans-Regular-48"/>
       <use x="62.399994" xlink:href="#JosefinSans-Regular-46"/>
       <use x="79.299988" xlink:href="#JosefinSans-Regular-48"/>
       <use x="141.699982" xlink:href="#JosefinSans-Regular-52"/>
      </g>
     </g>
    </g>
    <g id="text_13">
     <!-- Density -->
     <defs>
      <path d="M 10.40625 72.296875 
L 30.203125 72.296875 
Q 43.703125 72.296875 52.546875 66.9375 
Q 61.40625 61.59375 65.453125 53.140625 
Q 69.5 44.703125 69.5 35.296875 
Q 69.5 24.796875 64.59375 16.75 
Q 59.703125 8.703125 51.5 4.34375 
Q 43.296875 0 33.703125 0 
L 10.40625 0 
z
M 31.796875 9.40625 
Q 39.796875 9.40625 46.09375 12.546875 
Q 52.40625 15.703125 55.953125 21.703125 
Q 59.5 27.703125 59.5 36 
Q 59.5 44.5 55.796875 50.59375 
Q 52.09375 56.703125 45.9375 59.84375 
Q 39.796875 63 32.703125 63 
L 20.09375 63 
L 20.09375 9.40625 
z
" id="JosefinSans-Regular-68"/>
      <path d="M 19.796875 -0.90625 
Q 15.203125 -0.90625 11.046875 0.6875 
Q 6.90625 2.296875 4.296875 5.40625 
L 8.296875 10.796875 
Q 10.796875 8.40625 13.546875 7.09375 
Q 16.296875 5.796875 19 5.796875 
Q 22.296875 5.796875 24.390625 7.09375 
Q 26.5 8.40625 26.5 11.09375 
Q 26.5 13.203125 25.203125 14.5 
Q 23.90625 15.796875 22.25 16.390625 
Q 20.59375 17 16.703125 18.203125 
Q 6.09375 21.59375 6.09375 30.296875 
Q 6.09375 35.5 9.9375 39.203125 
Q 13.796875 42.90625 20.703125 42.90625 
Q 25.09375 42.90625 28.5 41.796875 
Q 31.90625 40.703125 34.796875 38.296875 
L 31.09375 32.59375 
Q 29.5 34.296875 27.046875 35.296875 
Q 24.59375 36.296875 22.40625 36.40625 
Q 19.59375 36.40625 17.59375 35.046875 
Q 15.59375 33.703125 15.59375 31.40625 
Q 15.59375 29.5 16.890625 28.25 
Q 18.203125 27 19.59375 26.453125 
Q 21 25.90625 25.09375 24.59375 
Q 30.203125 22.90625 33.046875 20.203125 
Q 35.90625 17.5 35.90625 12.90625 
Q 35.90625 6.90625 31.703125 3 
Q 27.5 -0.90625 19.796875 -0.90625 
z
" id="JosefinSans-Regular-115"/>
      <path d="M 47.5 41.40625 
L 20.796875 -19.90625 
L 11.59375 -19.90625 
L 21.09375 1.40625 
L 1.90625 41.40625 
L 12.40625 41.40625 
L 25.796875 11.90625 
L 38.90625 41.40625 
z
" id="JosefinSans-Regular-121"/>
     </defs>
     <g style="fill:#262626;" transform="translate(14.62524 151.206562)rotate(-90)scale(0.15 -0.15)">
      <use xlink:href="#JosefinSans-Regular-68"/>
      <use x="75.399994" xlink:href="#JosefinSans-Regular-101"/>
      <use x="127.399979" xlink:href="#JosefinSans-Regular-110"/>
      <use x="182.699966" xlink:href="#JosefinSans-Regular-115"/>
      <use x="223.499954" xlink:href="#JosefinSans-Regular-105"/>
      <use x="248.999939" xlink:href="#JosefinSans-Regular-116"/>
      <use x="284.999924" xlink:href="#JosefinSans-Regular-121"/>
     </g>
    </g>
   </g>
   <g id="line2d_23">
    <path clip-path="url(#p41e8a37fa3)" d="M 90.384636 238.058688 
L 97.797961 238.058457 
L 105.211286 238.056842 
L 112.624611 238.052459 
L 120.037935 238.043922 
L 127.45126 238.029848 
L 134.864585 238.008853 
L 142.27791 237.979552 
L 149.691235 237.940561 
L 157.10456 237.890495 
L 164.517885 237.82797 
L 171.93121 237.751603 
L 179.344535 237.660008 
L 186.75786 237.551801 
L 194.171185 237.425599 
L 201.584509 237.280016 
L 208.997834 237.113668 
L 216.411159 236.925172 
L 223.824484 236.713142 
L 231.237809 236.476195 
L 238.651134 236.212946 
L 246.064459 235.922011 
L 253.477784 235.602006 
L 260.891109 235.251545 
L 268.304434 234.869246 
L 275.717758 234.453723 
L 283.131083 234.003593 
L 290.544408 233.517471 
L 297.957733 232.993972 
L 305.371058 232.431713 
L 312.784383 231.829309 
L 320.197708 231.185376 
L 327.611033 230.498529 
L 335.024358 229.767385 
L 342.437683 228.990558 
L 349.851008 228.166665 
L 357.264332 227.294321 
L 364.677657 226.372143 
L 372.090982 225.398744 
L 379.504307 224.372743 
L 386.917632 223.292753 
L 394.330957 222.157391 
L 401.744282 220.965272 
L 409.157607 219.715013 
L 416.570932 218.405228 
L 423.984257 217.034534 
L 431.397582 215.601547 
L 438.810906 214.104881 
L 446.224231 212.543152 
L 453.637556 210.914977 
L 461.050881 209.218971 
L 468.464206 207.45375 
L 475.877531 205.617929 
L 483.290856 203.710124 
L 490.704181 201.72895 
L 498.117506 199.673025 
L 505.530831 197.540962 
L 512.944156 195.331378 
L 520.35748 193.042889 
L 527.770805 190.67411 
L 535.18413 188.223657 
L 542.597455 185.690146 
L 550.01078 183.072191 
L 557.424105 180.36841 
L 564.83743 177.577418 
L 572.250755 174.69783 
L 579.66408 171.728262 
L 587.077405 168.66733 
L 594.49073 165.513649 
L 601.904054 162.265835 
L 609.317379 158.922505 
L 616.730704 155.482272 
L 624.144029 151.943754 
L 631.557354 148.305567 
L 638.970679 144.566324 
L 646.384004 140.724643 
L 653.797329 136.779139 
L 661.210654 132.728428 
L 668.623979 128.571125 
L 676.037304 124.305846 
L 683.450628 119.931207 
L 690.863953 115.445824 
L 698.277278 110.848311 
L 705.690603 106.137286 
L 713.103928 101.311363 
L 720.517253 96.369158 
L 727.930578 91.309288 
L 735.343903 86.130367 
L 742.757228 80.831011 
L 750.170553 75.409836 
L 757.583878 69.865458 
L 764.997202 64.196493 
L 772.410527 58.401556 
L 779.823852 52.479262 
L 787.237177 46.428228 
L 794.650502 40.247069 
L 802.063827 33.934401 
L 809.477152 27.48884 
L 816.890477 20.909001 
L 824.303802 14.193499 
" style="fill:none;stroke:#81aca4;stroke-linecap:round;stroke-width:1.5;"/>
   </g>
  </g>
 </g>
 <defs>
  <clipPath id="p41e8a37fa3">
   <rect height="246.251708" width="807.311082" x="53.688677" y="3.00024"/>
  </clipPath>
 </defs>
</svg>
