<?xml version="1.0" encoding="utf-8" standalone="no"?>
<!DOCTYPE svg PUBLIC "-//W3C//DTD SVG 1.1//EN"
  "http://www.w3.org/Graphics/SVG/1.1/DTD/svg11.dtd">
<!-- Created with matplotlib (https://matplotlib.org/) -->
<svg height="288pt" version="1.1" viewBox="0 0 864 288" width="864pt" xmlns="http://www.w3.org/2000/svg" xmlns:xlink="http://www.w3.org/1999/xlink">
 <defs>
  <style type="text/css">
*{stroke-linecap:butt;stroke-linejoin:round;}
  </style>
 </defs>
 <g id="figure_1">
  <g id="patch_1">
   <path d="M 0 288 
L 864 288 
L 864 0 
L 0 0 
z
" style="fill:#ffffff;"/>
  </g>
  <g id="axes_1">
   <g id="patch_2">
    <path d="M 65.991646 250.443666 
L 860.99976 250.443666 
L 860.99976 3.00024 
L 65.991646 3.00024 
z
" style="fill:#ffffff;"/>
   </g>
   <g id="matplotlib.axis_1">
    <g id="xtick_1">
     <g id="line2d_1">
      <path clip-path="url(#p18c284325f)" d="M 65.991646 250.443666 
L 65.991646 3.00024 
" style="fill:none;stroke:#cccccc;stroke-dasharray:0.8,1.32;stroke-dashoffset:0;stroke-width:0.8;"/>
     </g>
     <g id="line2d_2"/>
     <g id="text_1">
      <!-- 0 -->
      <defs>
       <path d="M 30.796875 -0.59375 
Q 22.203125 -0.59375 16.046875 4 
Q 9.90625 8.59375 6.75 16.1875 
Q 3.59375 23.796875 3.59375 32.59375 
Q 3.59375 41.40625 6.75 48.90625 
Q 9.90625 56.40625 16.046875 60.953125 
Q 22.203125 65.5 30.796875 65.5 
Q 39.40625 65.5 45.59375 60.953125 
Q 51.796875 56.40625 54.9375 48.84375 
Q 58.09375 41.296875 58.09375 32.59375 
Q 58.09375 23.796875 54.9375 16.1875 
Q 51.796875 8.59375 45.59375 4 
Q 39.40625 -0.59375 30.796875 -0.59375 
z
M 30.796875 1.296875 
Q 37.90625 1.203125 43.65625 5 
Q 49.40625 8.796875 52.75 15.890625 
Q 56.09375 23 56.09375 32.5 
Q 56.09375 42 52.75 49.046875 
Q 49.40625 56.09375 43.65625 59.890625 
Q 37.90625 63.703125 30.796875 63.59375 
Q 23.703125 63.703125 18 59.890625 
Q 12.296875 56.09375 8.9375 49.046875 
Q 5.59375 42 5.59375 32.5 
Q 5.59375 23 8.9375 15.890625 
Q 12.296875 8.796875 18 5 
Q 23.703125 1.203125 30.796875 1.296875 
z
" id="JosefinSans-Thin-48"/>
      </defs>
      <g style="fill:#262626;" transform="translate(61.672428 264.472104)scale(0.14 -0.14)">
       <use xlink:href="#JosefinSans-Thin-48"/>
      </g>
     </g>
    </g>
    <g id="xtick_2">
     <g id="line2d_3">
      <path clip-path="url(#p18c284325f)" d="M 233.361775 250.443666 
L 233.361775 3.00024 
" style="fill:none;stroke:#cccccc;stroke-dasharray:0.8,1.32;stroke-dashoffset:0;stroke-width:0.8;"/>
     </g>
     <g id="line2d_4"/>
     <g id="text_2">
      <!-- 2 -->
      <defs>
       <path d="M 45.296875 1.90625 
L 45.296875 0 
L 5.296875 0 
Q 16.296875 10.59375 23.046875 17.84375 
Q 29.796875 25.09375 34.296875 32.4375 
Q 38.796875 39.796875 38.796875 46.296875 
Q 38.796875 52.59375 36.34375 56.546875 
Q 33.90625 60.5 30.296875 62.25 
Q 26.703125 64 23 64 
Q 17 64 13.390625 61.296875 
Q 9.796875 58.59375 8.34375 54.6875 
Q 6.90625 50.796875 6.90625 46.90625 
Q 6.90625 39.703125 10.796875 35.5 
L 9.59375 34.40625 
Q 4.90625 39.59375 4.90625 46.796875 
Q 4.90625 55.09375 9.75 60.5 
Q 14.59375 65.90625 23.09375 65.90625 
Q 28.296875 65.90625 32.34375 63.40625 
Q 36.40625 60.90625 38.59375 56.453125 
Q 40.796875 52 40.796875 46.40625 
Q 40.796875 40.296875 37.25 33.84375 
Q 33.703125 27.40625 28.640625 21.59375 
Q 23.59375 15.796875 15.296875 7.5 
L 9.796875 1.90625 
z
" id="JosefinSans-Thin-50"/>
      </defs>
      <g style="fill:#262626;" transform="translate(229.890213 264.472104)scale(0.14 -0.14)">
       <use xlink:href="#JosefinSans-Thin-50"/>
      </g>
     </g>
    </g>
    <g id="xtick_3">
     <g id="line2d_5">
      <path clip-path="url(#p18c284325f)" d="M 400.731905 250.443666 
L 400.731905 3.00024 
" style="fill:none;stroke:#cccccc;stroke-dasharray:0.8,1.32;stroke-dashoffset:0;stroke-width:0.8;"/>
     </g>
     <g id="line2d_6"/>
     <g id="text_3">
      <!-- 4 -->
      <defs>
       <path d="M 48.796875 19.90625 
L 48.796875 18.09375 
L 39.203125 18.09375 
L 39.203125 0 
L 37.203125 0 
L 37.203125 18.09375 
L 2.296875 18.09375 
L 2.296875 18.203125 
L 39.09375 65.90625 
L 39.203125 65.90625 
L 39.203125 19.90625 
z
M 37.203125 19.90625 
L 37.203125 60.5 
L 5.796875 19.90625 
z
" id="JosefinSans-Thin-52"/>
      </defs>
      <g style="fill:#262626;" transform="translate(397.190342 264.472104)scale(0.14 -0.14)">
       <use xlink:href="#JosefinSans-Thin-52"/>
      </g>
     </g>
    </g>
    <g id="xtick_4">
     <g id="line2d_7">
      <path clip-path="url(#p18c284325f)" d="M 568.102034 250.443666 
L 568.102034 3.00024 
" style="fill:none;stroke:#cccccc;stroke-dasharray:0.8,1.32;stroke-dashoffset:0;stroke-width:0.8;"/>
     </g>
     <g id="line2d_8"/>
     <g id="text_4">
      <!-- 6 -->
      <defs>
       <path d="M 25.796875 39.703125 
Q 31.296875 39.703125 35.9375 36.953125 
Q 40.59375 34.203125 43.34375 29.546875 
Q 46.09375 24.90625 46.09375 19.40625 
Q 46.09375 13.90625 43.34375 9.25 
Q 40.59375 4.59375 35.84375 1.890625 
Q 31.09375 -0.796875 25.5 -0.796875 
Q 19.90625 -0.796875 15.15625 1.953125 
Q 10.40625 4.703125 7.65625 9.390625 
Q 4.90625 14.09375 4.90625 19.703125 
Q 4.90625 29.09375 9.703125 37.09375 
Q 14.5 45.09375 21.046875 50.9375 
Q 27.59375 56.796875 37.90625 64.40625 
L 39.203125 62.703125 
Q 27.703125 55 20.25 47.34375 
Q 12.796875 39.703125 9.90625 32.703125 
Q 12.796875 36.09375 16.9375 37.890625 
Q 21.09375 39.703125 25.796875 39.703125 
z
M 25.40625 1 
Q 30.5 1 34.796875 3.453125 
Q 39.09375 5.90625 41.59375 10.15625 
Q 44.09375 14.40625 44.09375 19.40625 
Q 44.09375 24.5 41.59375 28.75 
Q 39.09375 33 34.796875 35.453125 
Q 30.5 37.90625 25.40625 37.90625 
Q 20.296875 37.90625 16.046875 35.65625 
Q 11.796875 33.40625 9.296875 29.40625 
Q 6.796875 25.40625 6.796875 20.203125 
L 6.796875 19.40625 
Q 6.796875 14.40625 9.296875 10.203125 
Q 11.796875 6 16.046875 3.5 
Q 20.296875 1 25.40625 1 
z
" id="JosefinSans-Thin-54"/>
      </defs>
      <g style="fill:#262626;" transform="translate(564.462034 264.472104)scale(0.14 -0.14)">
       <use xlink:href="#JosefinSans-Thin-54"/>
      </g>
     </g>
    </g>
    <g id="xtick_5">
     <g id="line2d_9">
      <path clip-path="url(#p18c284325f)" d="M 735.472163 250.443666 
L 735.472163 3.00024 
" style="fill:none;stroke:#cccccc;stroke-dasharray:0.8,1.32;stroke-dashoffset:0;stroke-width:0.8;"/>
     </g>
     <g id="line2d_10"/>
     <g id="text_5">
      <!-- 8 -->
      <defs>
       <path d="M 4.90625 19.59375 
Q 4.90625 26.5 9.09375 31.84375 
Q 13.296875 37.203125 19.796875 39 
Q 15.59375 40.40625 13 43.75 
Q 10.40625 47.09375 10.40625 51.203125 
Q 10.40625 57.59375 14.40625 61.75 
Q 18.40625 65.90625 25 65.90625 
Q 31.59375 65.90625 35.59375 61.703125 
Q 39.59375 57.5 39.59375 51.09375 
Q 39.59375 47 37.09375 43.703125 
Q 34.59375 40.40625 30.59375 39 
Q 37.296875 37.296875 41.640625 31.9375 
Q 46 26.59375 46 19.59375 
Q 46 14.09375 43.203125 9.390625 
Q 40.40625 4.703125 35.65625 1.953125 
Q 30.90625 -0.796875 25.296875 -0.796875 
Q 19.703125 -0.796875 15.046875 1.953125 
Q 10.40625 4.703125 7.65625 9.390625 
Q 4.90625 14.09375 4.90625 19.59375 
z
M 12.296875 51.09375 
Q 12.296875 46.203125 16.046875 42.953125 
Q 19.796875 39.703125 25.203125 39.703125 
Q 30.5 39.703125 34.046875 42.953125 
Q 37.59375 46.203125 37.59375 51.09375 
Q 37.59375 56.90625 34.09375 60.5 
Q 30.59375 64.09375 25.203125 64.09375 
Q 19.703125 64.09375 16 60.5 
Q 12.296875 56.90625 12.296875 51.09375 
z
M 6.796875 19.59375 
Q 6.796875 14.703125 9.25 10.390625 
Q 11.703125 6.09375 15.890625 3.546875 
Q 20.09375 1 25.09375 1 
Q 30.203125 1 34.546875 3.546875 
Q 38.90625 6.09375 41.453125 10.390625 
Q 44 14.703125 44 19.59375 
Q 44 24.59375 41.453125 28.796875 
Q 38.90625 33 34.546875 35.5 
Q 30.203125 38 25.09375 38 
Q 20.09375 38 15.890625 35.5 
Q 11.703125 33 9.25 28.796875 
Q 6.796875 24.59375 6.796875 19.59375 
z
" id="JosefinSans-Thin-56"/>
      </defs>
      <g style="fill:#262626;" transform="translate(731.916382 264.472104)scale(0.14 -0.14)">
       <use xlink:href="#JosefinSans-Thin-56"/>
      </g>
     </g>
    </g>
    <g id="text_6">
     <!-- dummy water count -->
     <defs>
      <path d="M 44.90625 75.203125 
L 44.90625 0 
L 42.90625 0 
L 42.90625 10.703125 
Q 40.5 5.59375 35.640625 2.5 
Q 30.796875 -0.59375 24.90625 -0.59375 
Q 19.59375 -0.59375 15.09375 2 
Q 10.59375 4.59375 8 9.09375 
Q 5.40625 13.59375 5.40625 19 
Q 5.40625 24.703125 8.046875 29.203125 
Q 10.703125 33.703125 15.140625 36.140625 
Q 19.59375 38.59375 25 38.59375 
Q 30.703125 38.59375 35.59375 35.390625 
Q 40.5 32.203125 42.90625 27.09375 
L 42.90625 75.203125 
z
M 25.09375 1.09375 
Q 29.90625 1.09375 34 3.390625 
Q 38.09375 5.703125 40.5 9.640625 
Q 42.90625 13.59375 42.90625 18.40625 
L 42.90625 21.703125 
Q 42.203125 25.90625 39.640625 29.34375 
Q 37.09375 32.796875 33.296875 34.84375 
Q 29.5 36.90625 25.09375 36.90625 
Q 20.203125 36.90625 16.140625 34.65625 
Q 12.09375 32.40625 9.75 28.296875 
Q 7.40625 24.203125 7.40625 19 
Q 7.40625 14.09375 9.796875 10 
Q 12.203125 5.90625 16.25 3.5 
Q 20.296875 1.09375 25.09375 1.09375 
z
" id="JosefinSans-Thin-100"/>
      <path d="M 39.296875 37.796875 
L 39.296875 0 
L 37.59375 0 
L 37.40625 9.90625 
Q 35.703125 5.40625 31.046875 2.296875 
Q 26.40625 -0.796875 21.09375 -0.796875 
Q 15.90625 -0.796875 12.75 2.34375 
Q 9.59375 5.5 9.40625 10.5 
L 9.40625 37.796875 
L 11.40625 37.796875 
L 11.40625 10.796875 
Q 11.59375 6.5 14.1875 3.84375 
Q 16.796875 1.203125 21.5 1 
Q 25.59375 1 29.1875 2.953125 
Q 32.796875 4.90625 35.046875 8.34375 
Q 37.296875 11.796875 37.296875 16 
L 37.296875 37.796875 
z
" id="JosefinSans-Thin-117"/>
      <path d="M 55.296875 38.5 
Q 60.5 38.5 63.703125 35.546875 
Q 66.90625 32.59375 67.09375 28.203125 
L 67.09375 0 
L 65.09375 0 
L 65.09375 27.703125 
Q 64.90625 31.40625 62.34375 34 
Q 59.796875 36.59375 55.296875 36.796875 
Q 51.203125 36.796875 47.59375 34.890625 
Q 44 33 41.703125 29.75 
Q 39.40625 26.5 39.203125 22.5 
L 39.203125 0 
L 37.296875 0 
L 37.296875 27.703125 
Q 37.09375 31.40625 34.5 34 
Q 31.90625 36.59375 27.40625 36.796875 
Q 23.203125 36.796875 19.5 34.84375 
Q 15.796875 32.90625 13.59375 29.5 
Q 11.40625 26.09375 11.40625 21.90625 
L 11.40625 0 
L 9.40625 0 
L 9.40625 37.796875 
L 10.90625 37.796875 
L 11.203125 27.90625 
Q 13.203125 32.796875 17.640625 35.640625 
Q 22.09375 38.5 27.5 38.5 
Q 32.09375 38.5 35.546875 35.703125 
Q 39 32.90625 39.40625 28.796875 
Q 41.5 33.40625 45.75 35.953125 
Q 50 38.5 55.296875 38.5 
z
" id="JosefinSans-Thin-109"/>
      <path d="M 39.703125 37.796875 
L 15.40625 -18.09375 
L 13 -18.09375 
L 20.90625 -0.203125 
L 3.40625 37.796875 
L 5.5 37.796875 
L 21.90625 2.203125 
L 37.5 37.796875 
z
" id="JosefinSans-Thin-121"/>
      <path id="JosefinSans-Thin-32"/>
      <path d="M 62.5 37.796875 
L 44.59375 -2.296875 
L 32.5 25.203125 
L 21.296875 -2.296875 
L 3.40625 37.796875 
L 5.40625 37.796875 
L 21.40625 2 
L 31.5 27.09375 
L 26.703125 37.796875 
L 28.703125 37.796875 
L 44.703125 1.796875 
L 60.5 37.796875 
z
" id="JosefinSans-Thin-119"/>
      <path d="M 44.796875 37.796875 
L 44.796875 0 
L 42.90625 0 
L 42.90625 10.796875 
Q 40.796875 5.796875 35.84375 2.59375 
Q 30.90625 -0.59375 24.90625 -0.59375 
Q 19.59375 -0.59375 15.09375 2 
Q 10.59375 4.59375 8 9.046875 
Q 5.40625 13.5 5.40625 18.90625 
Q 5.40625 25 8.046875 29.453125 
Q 10.703125 33.90625 15.203125 36.25 
Q 19.703125 38.59375 25.203125 38.59375 
Q 31 38.59375 35.796875 35.34375 
Q 40.59375 32.09375 42.90625 26.90625 
L 43.296875 37.796875 
z
M 25.09375 1.09375 
Q 30 1.09375 34.046875 3.296875 
Q 38.09375 5.5 40.5 9.390625 
Q 42.90625 13.296875 42.90625 18.09375 
L 42.90625 22.203125 
Q 41.703125 28.40625 36.640625 32.65625 
Q 31.59375 36.90625 25.09375 36.90625 
Q 20.203125 36.90625 16.140625 34.703125 
Q 12.09375 32.5 9.75 28.390625 
Q 7.40625 24.296875 7.40625 19 
Q 7.40625 14.09375 9.796875 10 
Q 12.203125 5.90625 16.25 3.5 
Q 20.296875 1.09375 25.09375 1.09375 
z
" id="JosefinSans-Thin-97"/>
      <path d="M 15.296875 54.296875 
L 15.296875 37 
L 27.90625 37 
L 27.90625 35.296875 
L 15.296875 35.296875 
L 15.296875 0 
L 13.296875 0 
L 13.296875 35.296875 
L 4.5 35.296875 
L 4.5 37 
L 13.296875 37 
L 13.296875 54.296875 
z
" id="JosefinSans-Thin-116"/>
      <path d="M 25.09375 1.09375 
Q 28.59375 1.09375 31.75 2.34375 
Q 34.90625 3.59375 37.296875 5.90625 
L 38.59375 4.5 
Q 35.796875 2.09375 32.34375 0.75 
Q 28.90625 -0.59375 25.09375 -0.59375 
Q 19.59375 -0.59375 15.09375 2 
Q 10.59375 4.59375 8 9.09375 
Q 5.40625 13.59375 5.40625 19 
Q 5.40625 24.40625 8.046875 28.90625 
Q 10.703125 33.40625 15.203125 36.046875 
Q 19.703125 38.703125 25.09375 38.703125 
Q 31.09375 38.703125 35.546875 35.203125 
Q 40 31.703125 42.296875 25.90625 
L 8.703125 12.296875 
Q 10.703125 7.40625 15 4.25 
Q 19.296875 1.09375 25.09375 1.09375 
z
M 25 36.90625 
Q 20.203125 36.90625 16.140625 34.5 
Q 12.09375 32.09375 9.75 28 
Q 7.40625 23.90625 7.40625 19 
Q 7.40625 16.203125 8.09375 14 
L 39.796875 26.796875 
Q 37.5 31.296875 33.640625 34.09375 
Q 29.796875 36.90625 25 36.90625 
z
" id="JosefinSans-Thin-101"/>
      <path d="M 11.203125 27.59375 
Q 13 32.59375 17.546875 35.5 
Q 22.09375 38.40625 27.703125 38.5 
L 27.59375 36.703125 
Q 23.203125 36.5 19.5 34.59375 
Q 15.796875 32.703125 13.59375 29.34375 
Q 11.40625 26 11.40625 21.796875 
L 11.40625 0 
L 9.40625 0 
L 9.40625 37.796875 
L 10.90625 37.796875 
L 11.203125 27.59375 
z
" id="JosefinSans-Thin-114"/>
      <path d="M 37.5 3.703125 
Q 32.09375 -0.59375 25.09375 -0.59375 
Q 19.703125 -0.59375 15.203125 2 
Q 10.703125 4.59375 8.046875 9.046875 
Q 5.40625 13.5 5.40625 18.90625 
Q 5.40625 24.296875 8.046875 28.796875 
Q 10.703125 33.296875 15.203125 35.9375 
Q 19.703125 38.59375 25 38.59375 
Q 28.59375 38.59375 31.796875 37.4375 
Q 35 36.296875 37.5 34.203125 
L 36.40625 32.796875 
Q 31.09375 36.90625 25.09375 36.90625 
Q 20.203125 36.90625 16.140625 34.453125 
Q 12.09375 32 9.75 27.890625 
Q 7.40625 23.796875 7.40625 18.90625 
Q 7.40625 14.09375 9.75 10 
Q 12.09375 5.90625 16.140625 3.5 
Q 20.203125 1.09375 25.09375 1.09375 
Q 31.296875 1.09375 36.296875 5 
L 37.5 3.703125 
z
" id="JosefinSans-Thin-99"/>
      <path d="M 5.40625 19 
Q 5.40625 24.40625 8.046875 28.90625 
Q 10.703125 33.40625 15.203125 36.046875 
Q 19.703125 38.703125 25.09375 38.703125 
Q 30.5 38.703125 35.046875 36.046875 
Q 39.59375 33.40625 42.25 28.90625 
Q 44.90625 24.40625 44.90625 19 
Q 44.90625 13.59375 42.25 9.09375 
Q 39.59375 4.59375 35.046875 2 
Q 30.5 -0.59375 25.09375 -0.59375 
Q 19.703125 -0.59375 15.140625 1.953125 
Q 10.59375 4.5 8 9 
Q 5.40625 13.5 5.40625 19 
z
M 7.40625 19 
Q 7.40625 14.09375 9.75 10 
Q 12.09375 5.90625 16.140625 3.5 
Q 20.203125 1.09375 25.09375 1.09375 
Q 29.90625 1.09375 33.953125 3.5 
Q 38 5.90625 40.390625 10 
Q 42.796875 14.09375 42.796875 19 
Q 42.796875 23.796875 40.390625 27.9375 
Q 38 32.09375 33.953125 34.5 
Q 29.90625 36.90625 25.09375 36.90625 
Q 20.203125 36.90625 16.09375 34.34375 
Q 12 31.796875 9.703125 27.640625 
Q 7.40625 23.5 7.40625 19 
z
" id="JosefinSans-Thin-111"/>
      <path d="M 27.59375 38.5 
Q 32.796875 38.5 35.9375 35.390625 
Q 39.09375 32.296875 39.296875 27.296875 
L 39.296875 0 
L 37.296875 0 
L 37.296875 27.09375 
Q 37.09375 31.296875 34.546875 33.9375 
Q 32 36.59375 27.40625 36.796875 
Q 23.203125 36.796875 19.546875 34.890625 
Q 15.90625 33 13.65625 29.59375 
Q 11.40625 26.203125 11.40625 21.90625 
L 11.40625 0 
L 9.40625 0 
L 9.40625 37.796875 
L 10.90625 37.796875 
L 11.203125 27.703125 
Q 13 32.703125 17.5 35.59375 
Q 22 38.5 27.59375 38.5 
z
" id="JosefinSans-Thin-110"/>
     </defs>
     <g style="fill:#262626;" transform="translate(402.842969 282.285698)scale(0.15 -0.15)">
      <use xlink:href="#JosefinSans-Thin-100"/>
      <use x="54.299988" xlink:href="#JosefinSans-Thin-117"/>
      <use x="102.999985" xlink:href="#JosefinSans-Thin-109"/>
      <use x="179.499969" xlink:href="#JosefinSans-Thin-109"/>
      <use x="255.999954" xlink:href="#JosefinSans-Thin-121"/>
      <use x="299.099945" xlink:href="#JosefinSans-Thin-32"/>
      <use x="329.199936" xlink:href="#JosefinSans-Thin-119"/>
      <use x="395.09993" xlink:href="#JosefinSans-Thin-97"/>
      <use x="449.299927" xlink:href="#JosefinSans-Thin-116"/>
      <use x="479.699921" xlink:href="#JosefinSans-Thin-101"/>
      <use x="526.399918" xlink:href="#JosefinSans-Thin-114"/>
      <use x="558.499908" xlink:href="#JosefinSans-Thin-32"/>
      <use x="588.599899" xlink:href="#JosefinSans-Thin-99"/>
      <use x="630.599884" xlink:href="#JosefinSans-Thin-111"/>
      <use x="680.899872" xlink:href="#JosefinSans-Thin-117"/>
      <use x="729.599869" xlink:href="#JosefinSans-Thin-110"/>
      <use x="778.299866" xlink:href="#JosefinSans-Thin-116"/>
     </g>
    </g>
   </g>
   <g id="matplotlib.axis_2">
    <g id="ytick_1">
     <g id="line2d_11">
      <path clip-path="url(#p18c284325f)" d="M 65.991646 250.443666 
L 860.99976 250.443666 
" style="fill:none;stroke:#cccccc;stroke-dasharray:0.8,1.32;stroke-dashoffset:0;stroke-width:0.8;"/>
     </g>
     <g id="line2d_12"/>
     <g id="text_7">
      <!-- 0 -->
      <g style="fill:#262626;" transform="translate(53.853209 255.707885)scale(0.14 -0.14)">
       <use xlink:href="#JosefinSans-Thin-48"/>
      </g>
     </g>
    </g>
    <g id="ytick_2">
     <g id="line2d_13">
      <path clip-path="url(#p18c284325f)" d="M 65.991646 206.398285 
L 860.99976 206.398285 
" style="fill:none;stroke:#cccccc;stroke-dasharray:0.8,1.32;stroke-dashoffset:0;stroke-width:0.8;"/>
     </g>
     <g id="line2d_14"/>
     <g id="text_8">
      <!-- 5000 -->
      <defs>
       <path d="M 25.703125 39.796875 
Q 31.40625 39.796875 36.046875 37.09375 
Q 40.703125 34.40625 43.34375 29.796875 
Q 46 25.203125 46 19.59375 
Q 46 14.09375 43.25 9.390625 
Q 40.5 4.703125 35.75 1.953125 
Q 31 -0.796875 25.40625 -0.796875 
Q 21.40625 -0.796875 17.65625 0.703125 
Q 13.90625 2.203125 11.09375 4.90625 
L 12.40625 6.203125 
Q 14.796875 3.703125 18.09375 2.34375 
Q 21.40625 1 25.09375 1 
Q 30.203125 1 34.546875 3.546875 
Q 38.90625 6.09375 41.453125 10.390625 
Q 44 14.703125 44 19.59375 
Q 44 24.59375 41.546875 28.84375 
Q 39.09375 33.09375 34.796875 35.546875 
Q 30.5 38 25.296875 38 
Q 22 38 19.046875 36.890625 
Q 16.09375 35.796875 14.09375 34 
L 14 34 
L 14 65.09375 
L 42.90625 65.09375 
L 42.90625 63.203125 
L 15.90625 63.203125 
L 15.90625 37.5 
Q 17.796875 38.5 20.5 39.140625 
Q 23.203125 39.796875 25.703125 39.796875 
z
" id="JosefinSans-Thin-53"/>
      </defs>
      <g style="fill:#262626;" transform="translate(28.974771 211.662504)scale(0.14 -0.14)">
       <use xlink:href="#JosefinSans-Thin-53"/>
       <use x="54.299988" xlink:href="#JosefinSans-Thin-48"/>
       <use x="115.999985" xlink:href="#JosefinSans-Thin-48"/>
       <use x="177.699982" xlink:href="#JosefinSans-Thin-48"/>
      </g>
     </g>
    </g>
    <g id="ytick_3">
     <g id="line2d_15">
      <path clip-path="url(#p18c284325f)" d="M 65.991646 162.352904 
L 860.99976 162.352904 
" style="fill:none;stroke:#cccccc;stroke-dasharray:0.8,1.32;stroke-dashoffset:0;stroke-width:0.8;"/>
     </g>
     <g id="line2d_16"/>
     <g id="text_9">
      <!-- 10000 -->
      <defs>
       <path d="M 19 65.09375 
L 19 0 
L 17 0 
L 17 63.09375 
L 5.90625 63.09375 
L 5.90625 65.09375 
z
" id="JosefinSans-Thin-49"/>
      </defs>
      <g style="fill:#262626;" transform="translate(23.626334 167.617123)scale(0.14 -0.14)">
       <use xlink:href="#JosefinSans-Thin-49"/>
       <use x="30.799988" xlink:href="#JosefinSans-Thin-48"/>
       <use x="92.499985" xlink:href="#JosefinSans-Thin-48"/>
       <use x="154.199982" xlink:href="#JosefinSans-Thin-48"/>
       <use x="215.899979" xlink:href="#JosefinSans-Thin-48"/>
      </g>
     </g>
    </g>
    <g id="ytick_4">
     <g id="line2d_17">
      <path clip-path="url(#p18c284325f)" d="M 65.991646 118.307524 
L 860.99976 118.307524 
" style="fill:none;stroke:#cccccc;stroke-dasharray:0.8,1.32;stroke-dashoffset:0;stroke-width:0.8;"/>
     </g>
     <g id="line2d_18"/>
     <g id="text_10">
      <!-- 15000 -->
      <g style="fill:#262626;" transform="translate(24.663209 123.571742)scale(0.14 -0.14)">
       <use xlink:href="#JosefinSans-Thin-49"/>
       <use x="30.799988" xlink:href="#JosefinSans-Thin-53"/>
       <use x="85.099976" xlink:href="#JosefinSans-Thin-48"/>
       <use x="146.799973" xlink:href="#JosefinSans-Thin-48"/>
       <use x="208.499969" xlink:href="#JosefinSans-Thin-48"/>
      </g>
     </g>
    </g>
    <g id="ytick_5">
     <g id="line2d_19">
      <path clip-path="url(#p18c284325f)" d="M 65.991646 74.262143 
L 860.99976 74.262143 
" style="fill:none;stroke:#cccccc;stroke-dasharray:0.8,1.32;stroke-dashoffset:0;stroke-width:0.8;"/>
     </g>
     <g id="line2d_20"/>
     <g id="text_11">
      <!-- 20000 -->
      <g style="fill:#262626;" transform="translate(20.994771 79.526361)scale(0.14 -0.14)">
       <use xlink:href="#JosefinSans-Thin-50"/>
       <use x="49.599991" xlink:href="#JosefinSans-Thin-48"/>
       <use x="111.299988" xlink:href="#JosefinSans-Thin-48"/>
       <use x="172.999985" xlink:href="#JosefinSans-Thin-48"/>
       <use x="234.699982" xlink:href="#JosefinSans-Thin-48"/>
      </g>
     </g>
    </g>
    <g id="ytick_6">
     <g id="line2d_21">
      <path clip-path="url(#p18c284325f)" d="M 65.991646 30.216762 
L 860.99976 30.216762 
" style="fill:none;stroke:#cccccc;stroke-dasharray:0.8,1.32;stroke-dashoffset:0;stroke-width:0.8;"/>
     </g>
     <g id="line2d_22"/>
     <g id="text_12">
      <!-- 25000 -->
      <g style="fill:#262626;" transform="translate(22.031646 35.480981)scale(0.14 -0.14)">
       <use xlink:href="#JosefinSans-Thin-50"/>
       <use x="49.599991" xlink:href="#JosefinSans-Thin-53"/>
       <use x="103.899979" xlink:href="#JosefinSans-Thin-48"/>
       <use x="165.599976" xlink:href="#JosefinSans-Thin-48"/>
       <use x="227.299973" xlink:href="#JosefinSans-Thin-48"/>
      </g>
     </g>
    </g>
    <g id="text_13">
     <!-- Frequency -->
     <defs>
      <path d="M 49.796875 70.203125 
L 49.796875 68.296875 
L 13.90625 68.296875 
L 13.90625 35.296875 
L 45.90625 35.296875 
L 45.90625 33.40625 
L 13.90625 33.40625 
L 13.90625 0 
L 11.90625 0 
L 11.90625 70.203125 
z
" id="JosefinSans-Thin-70"/>
      <path d="M 44.90625 37.796875 
L 44.90625 -18.09375 
L 42.90625 -18.09375 
L 42.90625 10.796875 
Q 40.703125 5.703125 35.796875 2.546875 
Q 30.90625 -0.59375 24.90625 -0.59375 
Q 19.59375 -0.59375 15.09375 2 
Q 10.59375 4.59375 8 9.046875 
Q 5.40625 13.5 5.40625 18.90625 
Q 5.40625 24.40625 8 28.90625 
Q 10.59375 33.40625 15.140625 36 
Q 19.703125 38.59375 25.09375 38.59375 
Q 30.703125 38.59375 35.546875 35.390625 
Q 40.40625 32.203125 42.90625 27.296875 
L 42.90625 37.796875 
z
M 25.09375 1.09375 
Q 29.796875 1.09375 33.796875 3.34375 
Q 37.796875 5.59375 40.25 9.5 
Q 42.703125 13.40625 42.90625 18 
L 42.90625 19.203125 
Q 42.90625 24 40.453125 28.046875 
Q 38 32.09375 33.953125 34.5 
Q 29.90625 36.90625 25.09375 36.90625 
Q 20.296875 36.90625 16.25 34.5 
Q 12.203125 32.09375 9.796875 27.9375 
Q 7.40625 23.796875 7.40625 18.90625 
Q 7.40625 14.09375 9.796875 10 
Q 12.203125 5.90625 16.25 3.5 
Q 20.296875 1.09375 25.09375 1.09375 
z
" id="JosefinSans-Thin-113"/>
     </defs>
     <g style="fill:#262626;" transform="translate(14.280709 158.17625)rotate(-90)scale(0.15 -0.15)">
      <use xlink:href="#JosefinSans-Thin-70"/>
      <use x="57.099991" xlink:href="#JosefinSans-Thin-114"/>
      <use x="89.199982" xlink:href="#JosefinSans-Thin-101"/>
      <use x="135.899979" xlink:href="#JosefinSans-Thin-113"/>
      <use x="190.199966" xlink:href="#JosefinSans-Thin-117"/>
      <use x="238.899963" xlink:href="#JosefinSans-Thin-101"/>
      <use x="285.59996" xlink:href="#JosefinSans-Thin-110"/>
      <use x="334.299957" xlink:href="#JosefinSans-Thin-99"/>
      <use x="376.299942" xlink:href="#JosefinSans-Thin-121"/>
     </g>
    </g>
   </g>
   <g id="patch_3">
    <path clip-path="url(#p18c284325f)" d="M 36.701874 250.443666 
L 95.281419 250.443666 
L 95.281419 250.426048 
L 36.701874 250.426048 
z
" style="fill:#81aca4;"/>
   </g>
   <g id="patch_4">
    <path clip-path="url(#p18c284325f)" d="M 120.386938 250.443666 
L 178.966483 250.443666 
L 178.966483 250.073685 
L 120.386938 250.073685 
z
" style="fill:#81aca4;"/>
   </g>
   <g id="patch_5">
    <path clip-path="url(#p18c284325f)" d="M 204.072003 250.443666 
L 262.651548 250.443666 
L 262.651548 246.990508 
L 204.072003 246.990508 
z
" style="fill:#81aca4;"/>
   </g>
   <g id="patch_6">
    <path clip-path="url(#p18c284325f)" d="M 287.757067 250.443666 
L 346.336613 250.443666 
L 346.336613 231.794852 
L 287.757067 231.794852 
z
" style="fill:#81aca4;"/>
   </g>
   <g id="patch_7">
    <path clip-path="url(#p18c284325f)" d="M 371.442132 250.443666 
L 430.021677 250.443666 
L 430.021677 185.053894 
L 371.442132 185.053894 
z
" style="fill:#81aca4;"/>
   </g>
   <g id="patch_8">
    <path clip-path="url(#p18c284325f)" d="M 455.127197 250.443666 
L 513.706742 250.443666 
L 513.706742 99.341583 
L 455.127197 99.341583 
z
" style="fill:#81aca4;"/>
   </g>
   <g id="patch_9">
    <path clip-path="url(#p18c284325f)" d="M 538.812261 250.443666 
L 597.391806 250.443666 
L 597.391806 14.78326 
L 538.812261 14.78326 
z
" style="fill:#81aca4;"/>
   </g>
   <g id="patch_10">
    <path clip-path="url(#p18c284325f)" d="M 622.497326 250.443666 
L 681.076871 250.443666 
L 681.076871 16.50103 
L 622.497326 16.50103 
z
" style="fill:#81aca4;"/>
   </g>
   <g id="patch_11">
    <path clip-path="url(#p18c284325f)" d="M 706.18239 250.443666 
L 764.761936 250.443666 
L 764.761936 112.669715 
L 706.18239 112.669715 
z
" style="fill:#81aca4;"/>
   </g>
   <g id="patch_12">
    <path clip-path="url(#p18c284325f)" d="M 789.867455 250.443666 
L 848.447 250.443666 
L 848.447 215.894469 
L 789.867455 215.894469 
z
" style="fill:#81aca4;"/>
   </g>
  </g>
 </g>
 <defs>
  <clipPath id="p18c284325f">
   <rect height="247.443426" width="795.008114" x="65.991646" y="3.00024"/>
  </clipPath>
 </defs>
</svg>
