<?xml version="1.0" encoding="utf-8" standalone="no"?>
<!DOCTYPE svg PUBLIC "-//W3C//DTD SVG 1.1//EN"
  "http://www.w3.org/Graphics/SVG/1.1/DTD/svg11.dtd">
<svg xmlns:xlink="http://www.w3.org/1999/xlink" width="864pt" height="288pt" viewBox="0 0 864 288" xmlns="http://www.w3.org/2000/svg" version="1.1">
 <metadata>
  <rdf:RDF xmlns:dc="http://purl.org/dc/elements/1.1/" xmlns:cc="http://creativecommons.org/ns#" xmlns:rdf="http://www.w3.org/1999/02/22-rdf-syntax-ns#">
   <cc:Work>
    <dc:type rdf:resource="http://purl.org/dc/dcmitype/StillImage"/>
    <dc:date>2022-01-04T22:59:07.906006</dc:date>
    <dc:format>image/svg+xml</dc:format>
    <dc:creator>
     <cc:Agent>
      <dc:title>Matplotlib v3.5.1, https://matplotlib.org/</dc:title>
     </cc:Agent>
    </dc:creator>
   </cc:Work>
  </rdf:RDF>
 </metadata>
 <defs>
  <style type="text/css">*{stroke-linejoin: round; stroke-linecap: butt}</style>
 </defs>
 <g id="figure_1">
  <g id="patch_1">
   <path d="M 0 288 
L 864 288 
L 864 0 
L 0 0 
z
" style="fill: #ffffff"/>
  </g>
  <g id="axes_1">
   <g id="patch_2">
    <path d="M 67.688677 249.251947 
L 860.99976 249.251947 
L 860.99976 3.00024 
L 67.688677 3.00024 
z
" style="fill: #ffffff"/>
   </g>
   <g id="matplotlib.axis_1">
    <g id="xtick_1">
     <g id="line2d_1">
      <path d="M 67.688677 249.251947 
L 67.688677 3.00024 
" clip-path="url(#p1ad0f51697)" style="fill: none; stroke-dasharray: 0.8,1.32; stroke-dashoffset: 0; stroke: #cccccc; stroke-width: 0.8"/>
     </g>
     <g id="line2d_2"/>
     <g id="text_1">
      <!-- 0 -->
      <g style="fill: #262626" transform="translate(63.32024 263.601947)scale(0.14 -0.14)">
       <defs>
        <path id="JosefinSans-Regular-30" d="M 1997 -19 
Q 1478 -19 1078 240 
Q 678 499 454 985 
Q 230 1472 230 2125 
Q 230 3168 700 3715 
Q 1171 4262 1997 4256 
Q 2515 4256 2915 4000 
Q 3315 3744 3539 3257 
Q 3763 2771 3763 2125 
Q 3763 1459 3539 972 
Q 3315 486 2915 230 
Q 2515 -26 1997 -19 
z
M 1990 576 
Q 2534 576 2825 998 
Q 3117 1421 3123 2138 
Q 3117 2835 2825 3248 
Q 2534 3661 1990 3661 
Q 1453 3661 1165 3245 
Q 877 2829 870 2125 
Q 877 1414 1165 995 
Q 1453 576 1990 576 
z
" transform="scale(0.015625)"/>
       </defs>
       <use xlink:href="#JosefinSans-Regular-30"/>
      </g>
     </g>
    </g>
    <g id="xtick_2">
     <g id="line2d_3">
      <path d="M 234.701537 249.251947 
L 234.701537 3.00024 
" clip-path="url(#p1ad0f51697)" style="fill: none; stroke-dasharray: 0.8,1.32; stroke-dashoffset: 0; stroke: #cccccc; stroke-width: 0.8"/>
     </g>
     <g id="line2d_4"/>
     <g id="text_2">
      <!-- 2 -->
      <g style="fill: #262626" transform="translate(230.886537 263.601947)scale(0.14 -0.14)">
       <defs>
        <path id="JosefinSans-Regular-32" d="M 3213 602 
L 3213 0 
L 346 0 
L 557 211 
Q 1210 864 1574 1267 
Q 1939 1670 2185 2083 
Q 2432 2496 2432 2867 
Q 2432 3258 2201 3462 
Q 1971 3667 1638 3667 
Q 1376 3667 1200 3558 
Q 1024 3450 944 3283 
Q 864 3117 864 2950 
Q 864 2541 1114 2278 
L 736 1933 
Q 525 2061 393 2365 
Q 262 2669 262 2938 
Q 262 3290 438 3594 
Q 614 3898 947 4080 
Q 1280 4262 1741 4262 
Q 2131 4262 2435 4080 
Q 2739 3898 2905 3590 
Q 3072 3283 3072 2918 
Q 3072 2554 2899 2189 
Q 2726 1824 2473 1504 
Q 2221 1184 1798 710 
L 1702 602 
L 3213 602 
z
" transform="scale(0.015625)"/>
       </defs>
       <use xlink:href="#JosefinSans-Regular-32"/>
      </g>
     </g>
    </g>
    <g id="xtick_3">
     <g id="line2d_5">
      <path d="M 401.714396 249.251947 
L 401.714396 3.00024 
" clip-path="url(#p1ad0f51697)" style="fill: none; stroke-dasharray: 0.8,1.32; stroke-dashoffset: 0; stroke: #cccccc; stroke-width: 0.8"/>
     </g>
     <g id="line2d_6"/>
     <g id="text_3">
      <!-- 4 -->
      <g style="fill: #262626" transform="translate(397.962834 263.601947)scale(0.14 -0.14)">
       <defs>
        <path id="JosefinSans-Regular-34" d="M 3206 1498 
L 3206 1018 
L 2656 1018 
L 2656 0 
L 2035 0 
L 2035 1018 
L 83 1018 
L 83 1024 
L 2650 4262 
L 2656 4262 
L 2656 1498 
L 3206 1498 
z
M 2035 1498 
L 2035 2810 
L 1018 1498 
L 2035 1498 
z
" transform="scale(0.015625)"/>
       </defs>
       <use xlink:href="#JosefinSans-Regular-34"/>
      </g>
     </g>
    </g>
    <g id="xtick_4">
     <g id="line2d_7">
      <path d="M 568.727256 249.251947 
L 568.727256 3.00024 
" clip-path="url(#p1ad0f51697)" style="fill: none; stroke-dasharray: 0.8,1.32; stroke-dashoffset: 0; stroke: #cccccc; stroke-width: 0.8"/>
     </g>
     <g id="line2d_8"/>
     <g id="text_4">
      <!-- 6 -->
      <g style="fill: #262626" transform="translate(564.912256 263.601947)scale(0.14 -0.14)">
       <defs>
        <path id="JosefinSans-Regular-36" d="M 1958 2701 
Q 2285 2701 2576 2525 
Q 2867 2349 3046 2041 
Q 3226 1734 3226 1357 
Q 3226 941 3021 621 
Q 2816 301 2477 125 
Q 2138 -51 1754 -51 
Q 1325 -51 982 153 
Q 640 358 441 736 
Q 243 1114 243 1619 
Q 243 2381 784 3040 
Q 1325 3699 2182 4250 
L 2598 3795 
Q 2029 3514 1645 3139 
Q 1261 2765 1082 2368 
Q 1414 2701 1958 2701 
z
M 1728 506 
Q 2093 506 2339 742 
Q 2586 979 2586 1357 
Q 2586 1722 2339 1949 
Q 2093 2176 1728 2176 
Q 1498 2176 1302 2077 
Q 1107 1978 992 1808 
Q 877 1638 877 1440 
L 877 1325 
Q 877 1107 992 918 
Q 1107 730 1302 618 
Q 1498 506 1728 506 
z
" transform="scale(0.015625)"/>
       </defs>
       <use xlink:href="#JosefinSans-Regular-36"/>
      </g>
     </g>
    </g>
    <g id="xtick_5">
     <g id="line2d_9">
      <path d="M 735.740115 249.251947 
L 735.740115 3.00024 
" clip-path="url(#p1ad0f51697)" style="fill: none; stroke-dasharray: 0.8,1.32; stroke-dashoffset: 0; stroke: #cccccc; stroke-width: 0.8"/>
     </g>
     <g id="line2d_10"/>
     <g id="text_5">
      <!-- 8 -->
      <g style="fill: #262626" transform="translate(732.079334 263.601947)scale(0.14 -0.14)">
       <defs>
        <path id="JosefinSans-Regular-38" d="M 179 1331 
Q 179 1773 422 2083 
Q 666 2394 1005 2534 
Q 794 2669 678 2851 
Q 563 3034 563 3296 
Q 563 3571 707 3792 
Q 851 4013 1104 4137 
Q 1357 4262 1670 4262 
Q 1978 4262 2234 4137 
Q 2490 4013 2637 3798 
Q 2784 3584 2784 3322 
Q 2784 3046 2669 2864 
Q 2554 2682 2336 2534 
Q 2682 2387 2925 2076 
Q 3168 1766 3168 1331 
Q 3168 966 2969 649 
Q 2771 333 2425 141 
Q 2080 -51 1664 -51 
Q 1248 -51 909 137 
Q 570 326 374 646 
Q 179 966 179 1331 
z
M 1165 3226 
Q 1165 3027 1321 2886 
Q 1478 2746 1683 2746 
Q 1888 2746 2038 2886 
Q 2189 3027 2189 3226 
Q 2189 3450 2041 3597 
Q 1894 3744 1683 3744 
Q 1472 3744 1318 3597 
Q 1165 3450 1165 3226 
z
M 813 1357 
Q 813 1120 928 918 
Q 1043 717 1238 595 
Q 1434 474 1664 474 
Q 1901 474 2102 595 
Q 2304 717 2425 918 
Q 2547 1120 2547 1357 
Q 2547 1594 2432 1792 
Q 2317 1990 2115 2108 
Q 1914 2227 1677 2227 
Q 1446 2227 1248 2112 
Q 1050 1997 931 1795 
Q 813 1594 813 1357 
z
" transform="scale(0.015625)"/>
       </defs>
       <use xlink:href="#JosefinSans-Regular-38"/>
      </g>
     </g>
    </g>
    <g id="text_6">
     <!-- dummy water count -->
     <g style="fill: #262626" transform="translate(397.632891 282.013823)scale(0.15 -0.15)">
      <defs>
       <path id="JosefinSans-Regular-64" d="M 3283 4960 
L 3283 0 
L 2682 0 
L 2682 416 
Q 2490 192 2211 64 
Q 1933 -64 1600 -64 
Q 1229 -64 928 115 
Q 627 294 457 617 
Q 288 941 288 1363 
Q 288 1792 467 2109 
Q 646 2426 960 2592 
Q 1274 2758 1670 2758 
Q 1971 2758 2249 2633 
Q 2528 2509 2688 2291 
L 2688 4960 
L 3283 4960 
z
M 1786 448 
Q 2131 448 2371 633 
Q 2611 819 2682 1133 
L 2682 1632 
Q 2605 1920 2355 2102 
Q 2106 2285 1786 2285 
Q 1542 2285 1337 2166 
Q 1133 2048 1011 1840 
Q 890 1632 890 1370 
Q 890 1114 1011 902 
Q 1133 691 1337 569 
Q 1542 448 1786 448 
z
" transform="scale(0.015625)"/>
       <path id="JosefinSans-Regular-75" d="M 2982 2650 
L 2982 0 
L 2445 0 
L 2406 506 
Q 2272 237 1990 67 
Q 1709 -102 1363 -102 
Q 998 -102 764 118 
Q 531 339 518 691 
L 518 2650 
L 1114 2650 
L 1114 902 
Q 1126 678 1244 547 
Q 1363 416 1600 410 
Q 1818 410 1997 541 
Q 2176 672 2281 902 
Q 2387 1133 2387 1414 
L 2387 2650 
L 2982 2650 
z
" transform="scale(0.015625)"/>
       <path id="JosefinSans-Regular-6d" d="M 3917 2758 
Q 4301 2758 4528 2540 
Q 4755 2323 4768 1965 
L 4768 0 
L 4173 0 
L 4173 1747 
Q 4154 2214 3750 2240 
Q 3520 2240 3337 2102 
Q 3155 1965 3052 1741 
Q 2950 1517 2944 1261 
L 2944 0 
L 2342 0 
L 2342 1747 
Q 2323 2214 1907 2240 
Q 1683 2240 1500 2102 
Q 1318 1965 1216 1737 
Q 1114 1510 1114 1254 
L 1114 0 
L 518 0 
L 518 2650 
L 1056 2650 
L 1101 2150 
Q 1254 2438 1520 2598 
Q 1786 2758 2125 2758 
Q 2445 2758 2662 2608 
Q 2880 2458 2944 2195 
Q 3110 2458 3366 2608 
Q 3622 2758 3917 2758 
z
" transform="scale(0.015625)"/>
       <path id="JosefinSans-Regular-79" d="M 3040 2650 
L 1331 -1274 
L 742 -1274 
L 1350 90 
L 122 2650 
L 794 2650 
L 1651 762 
L 2490 2650 
L 3040 2650 
z
" transform="scale(0.015625)"/>
       <path id="JosefinSans-Regular-20" transform="scale(0.015625)"/>
       <path id="JosefinSans-Regular-77" d="M 4198 2650 
L 2976 -160 
L 2125 1658 
L 1350 -160 
L 122 2650 
L 710 2650 
L 1421 1043 
L 1914 2195 
L 1702 2650 
L 2221 2650 
L 2938 1005 
L 3610 2650 
L 4198 2650 
z
" transform="scale(0.015625)"/>
       <path id="JosefinSans-Regular-61" d="M 3238 2650 
L 3238 0 
L 2643 0 
L 2643 435 
Q 2502 250 2233 93 
Q 1965 -64 1626 -64 
Q 1248 -64 944 99 
Q 640 262 464 576 
Q 288 890 288 1325 
Q 288 1760 470 2083 
Q 653 2406 963 2582 
Q 1274 2758 1651 2758 
Q 1990 2758 2240 2611 
Q 2490 2464 2643 2227 
L 2688 2650 
L 3238 2650 
z
M 1786 429 
Q 2112 429 2345 611 
Q 2579 794 2643 1107 
L 2643 1632 
Q 2566 1914 2323 2090 
Q 2080 2266 1766 2266 
Q 1530 2266 1328 2150 
Q 1126 2035 1008 1827 
Q 890 1619 890 1357 
Q 890 1101 1011 889 
Q 1133 678 1337 553 
Q 1542 429 1786 429 
z
" transform="scale(0.015625)"/>
       <path id="JosefinSans-Regular-74" d="M 1376 3814 
L 1376 2643 
L 2099 2643 
L 2099 2170 
L 1376 2170 
L 1376 0 
L 774 0 
L 774 2170 
L 288 2170 
L 288 2643 
L 774 2643 
L 774 3814 
L 1376 3814 
z
" transform="scale(0.015625)"/>
       <path id="JosefinSans-Regular-65" d="M 1760 448 
Q 2093 448 2406 678 
L 2682 237 
Q 2470 96 2224 16 
Q 1978 -64 1747 -64 
Q 1306 -64 976 118 
Q 646 301 467 621 
Q 288 941 288 1344 
Q 288 1734 483 2057 
Q 678 2381 1017 2569 
Q 1357 2758 1760 2758 
Q 2278 2758 2627 2454 
Q 2976 2150 3104 1606 
L 1005 870 
Q 1120 672 1315 560 
Q 1510 448 1760 448 
z
M 1715 2285 
Q 1350 2285 1113 2029 
Q 877 1773 877 1376 
Q 877 1280 883 1229 
L 2426 1798 
Q 2330 2016 2154 2150 
Q 1978 2285 1715 2285 
z
" transform="scale(0.015625)"/>
       <path id="JosefinSans-Regular-72" d="M 1094 2022 
Q 1197 2240 1385 2406 
Q 1574 2573 1785 2662 
Q 1997 2752 2157 2758 
L 2131 2163 
Q 1843 2176 1609 2048 
Q 1376 1920 1245 1693 
Q 1114 1466 1114 1210 
L 1114 0 
L 518 0 
L 518 2650 
L 1050 2650 
L 1094 2022 
z
" transform="scale(0.015625)"/>
       <path id="JosefinSans-Regular-63" d="M 2669 250 
Q 2490 102 2243 19 
Q 1997 -64 1741 -64 
Q 1312 -64 982 109 
Q 653 282 470 598 
Q 288 915 288 1331 
Q 288 1741 480 2057 
Q 672 2374 992 2547 
Q 1312 2720 1683 2720 
Q 2291 2720 2688 2387 
L 2387 1997 
Q 2259 2093 2092 2160 
Q 1926 2227 1734 2227 
Q 1498 2227 1302 2108 
Q 1107 1990 995 1785 
Q 883 1581 883 1331 
Q 883 1082 1001 877 
Q 1120 672 1325 550 
Q 1530 429 1792 429 
Q 2118 429 2362 621 
L 2669 250 
z
" transform="scale(0.015625)"/>
       <path id="JosefinSans-Regular-6f" d="M 288 1350 
Q 288 1741 477 2064 
Q 666 2387 1002 2572 
Q 1338 2758 1760 2758 
Q 2182 2758 2512 2572 
Q 2842 2387 3024 2067 
Q 3206 1747 3206 1350 
Q 3206 954 3024 630 
Q 2842 307 2509 121 
Q 2176 -64 1747 -64 
Q 1331 -64 998 112 
Q 666 288 477 608 
Q 288 928 288 1350 
z
M 890 1344 
Q 890 1094 1002 883 
Q 1114 672 1309 550 
Q 1504 429 1741 429 
Q 2112 429 2355 691 
Q 2598 954 2598 1344 
Q 2598 1734 2355 2000 
Q 2112 2266 1741 2266 
Q 1498 2266 1306 2141 
Q 1114 2016 1002 1805 
Q 890 1594 890 1344 
z
" transform="scale(0.015625)"/>
       <path id="JosefinSans-Regular-6e" d="M 2163 2752 
Q 2534 2752 2777 2531 
Q 3021 2310 3027 1958 
L 3027 0 
L 2426 0 
L 2426 1754 
Q 2413 1978 2291 2106 
Q 2170 2234 1926 2240 
Q 1574 2240 1344 1958 
Q 1114 1677 1114 1242 
L 1114 0 
L 518 0 
L 518 2650 
L 1056 2650 
L 1094 2138 
Q 1235 2426 1516 2589 
Q 1798 2752 2163 2752 
z
" transform="scale(0.015625)"/>
      </defs>
      <use xlink:href="#JosefinSans-Regular-64"/>
      <use xlink:href="#JosefinSans-Regular-75" x="59.299988"/>
      <use xlink:href="#JosefinSans-Regular-6d" x="113.999985"/>
      <use xlink:href="#JosefinSans-Regular-6d" x="196.499969"/>
      <use xlink:href="#JosefinSans-Regular-79" x="278.999954"/>
      <use xlink:href="#JosefinSans-Regular-20" x="328.399948"/>
      <use xlink:href="#JosefinSans-Regular-77" x="359.999939"/>
      <use xlink:href="#JosefinSans-Regular-61" x="427.499924"/>
      <use xlink:href="#JosefinSans-Regular-74" x="486.199921"/>
      <use xlink:href="#JosefinSans-Regular-65" x="522.199905"/>
      <use xlink:href="#JosefinSans-Regular-72" x="574.19989"/>
      <use xlink:href="#JosefinSans-Regular-20" x="611.799881"/>
      <use xlink:href="#JosefinSans-Regular-63" x="643.399872"/>
      <use xlink:href="#JosefinSans-Regular-6f" x="688.999863"/>
      <use xlink:href="#JosefinSans-Regular-75" x="743.499847"/>
      <use xlink:href="#JosefinSans-Regular-6e" x="798.199844"/>
      <use xlink:href="#JosefinSans-Regular-74" x="853.499832"/>
     </g>
    </g>
   </g>
   <g id="matplotlib.axis_2">
    <g id="ytick_1">
     <g id="line2d_11">
      <path d="M 67.688677 249.251947 
L 860.99976 249.251947 
" clip-path="url(#p1ad0f51697)" style="fill: none; stroke-dasharray: 0.8,1.32; stroke-dashoffset: 0; stroke: #cccccc; stroke-width: 0.8"/>
     </g>
     <g id="line2d_12"/>
     <g id="text_7">
      <!-- 0 -->
      <g style="fill: #262626" transform="translate(55.451802 254.676947)scale(0.14 -0.14)">
       <use xlink:href="#JosefinSans-Regular-30"/>
      </g>
     </g>
    </g>
    <g id="ytick_2">
     <g id="line2d_13">
      <path d="M 67.688677 205.418695 
L 860.99976 205.418695 
" clip-path="url(#p1ad0f51697)" style="fill: none; stroke-dasharray: 0.8,1.32; stroke-dashoffset: 0; stroke: #cccccc; stroke-width: 0.8"/>
     </g>
     <g id="line2d_14"/>
     <g id="text_8">
      <!-- 5000 -->
      <g style="fill: #262626" transform="translate(30.65649 210.843695)scale(0.14 -0.14)">
       <defs>
        <path id="JosefinSans-Regular-35" d="M 1645 2752 
Q 2061 2752 2358 2566 
Q 2656 2381 2809 2070 
Q 2963 1760 2963 1376 
Q 2963 979 2780 652 
Q 2598 326 2281 137 
Q 1965 -51 1568 -51 
Q 1242 -51 928 70 
Q 614 192 416 384 
L 749 870 
Q 877 723 1088 633 
Q 1299 544 1517 544 
Q 1869 544 2096 771 
Q 2323 998 2323 1357 
Q 2323 1747 2108 1987 
Q 1894 2227 1498 2227 
Q 1286 2227 1091 2166 
Q 896 2106 685 1984 
L 678 1984 
L 678 4211 
L 2694 4211 
L 2694 3616 
L 1216 3616 
L 1216 2701 
Q 1421 2752 1645 2752 
z
" transform="scale(0.015625)"/>
       </defs>
       <use xlink:href="#JosefinSans-Regular-35"/>
       <use xlink:href="#JosefinSans-Regular-30" x="52.299988"/>
       <use xlink:href="#JosefinSans-Regular-30" x="114.699982"/>
       <use xlink:href="#JosefinSans-Regular-30" x="177.099976"/>
      </g>
     </g>
    </g>
    <g id="ytick_3">
     <g id="line2d_15">
      <path d="M 67.688677 161.585442 
L 860.99976 161.585442 
" clip-path="url(#p1ad0f51697)" style="fill: none; stroke-dasharray: 0.8,1.32; stroke-dashoffset: 0; stroke: #cccccc; stroke-width: 0.8"/>
     </g>
     <g id="line2d_16"/>
     <g id="text_9">
      <!-- 10000 -->
      <g style="fill: #262626" transform="translate(24.621177 167.010442)scale(0.14 -0.14)">
       <defs>
        <path id="JosefinSans-Regular-31" d="M 1446 4211 
L 1446 0 
L 819 0 
L 819 3616 
L 339 3616 
L 339 4211 
L 1446 4211 
z
" transform="scale(0.015625)"/>
       </defs>
       <use xlink:href="#JosefinSans-Regular-31"/>
       <use xlink:href="#JosefinSans-Regular-30" x="32.999985"/>
       <use xlink:href="#JosefinSans-Regular-30" x="95.399979"/>
       <use xlink:href="#JosefinSans-Regular-30" x="157.799973"/>
       <use xlink:href="#JosefinSans-Regular-30" x="220.199966"/>
      </g>
     </g>
    </g>
    <g id="ytick_4">
     <g id="line2d_17">
      <path d="M 67.688677 117.752189 
L 860.99976 117.752189 
" clip-path="url(#p1ad0f51697)" style="fill: none; stroke-dasharray: 0.8,1.32; stroke-dashoffset: 0; stroke: #cccccc; stroke-width: 0.8"/>
     </g>
     <g id="line2d_18"/>
     <g id="text_10">
      <!-- 15000 -->
      <g style="fill: #262626" transform="translate(26.03649 123.177189)scale(0.14 -0.14)">
       <use xlink:href="#JosefinSans-Regular-31"/>
       <use xlink:href="#JosefinSans-Regular-35" x="32.999985"/>
       <use xlink:href="#JosefinSans-Regular-30" x="85.299973"/>
       <use xlink:href="#JosefinSans-Regular-30" x="147.699966"/>
       <use xlink:href="#JosefinSans-Regular-30" x="210.09996"/>
      </g>
     </g>
    </g>
    <g id="ytick_5">
     <g id="line2d_19">
      <path d="M 67.688677 73.918936 
L 860.99976 73.918936 
" clip-path="url(#p1ad0f51697)" style="fill: none; stroke-dasharray: 0.8,1.32; stroke-dashoffset: 0; stroke: #cccccc; stroke-width: 0.8"/>
     </g>
     <g id="line2d_20"/>
     <g id="text_11">
      <!-- 20000 -->
      <g style="fill: #262626" transform="translate(21.611177 79.343936)scale(0.14 -0.14)">
       <use xlink:href="#JosefinSans-Regular-32"/>
       <use xlink:href="#JosefinSans-Regular-30" x="54.499985"/>
       <use xlink:href="#JosefinSans-Regular-30" x="116.899979"/>
       <use xlink:href="#JosefinSans-Regular-30" x="179.299973"/>
       <use xlink:href="#JosefinSans-Regular-30" x="241.699966"/>
      </g>
     </g>
    </g>
    <g id="ytick_6">
     <g id="line2d_21">
      <path d="M 67.688677 30.085684 
L 860.99976 30.085684 
" clip-path="url(#p1ad0f51697)" style="fill: none; stroke-dasharray: 0.8,1.32; stroke-dashoffset: 0; stroke: #cccccc; stroke-width: 0.8"/>
     </g>
     <g id="line2d_22"/>
     <g id="text_12">
      <!-- 25000 -->
      <g style="fill: #262626" transform="translate(23.02649 35.510684)scale(0.14 -0.14)">
       <use xlink:href="#JosefinSans-Regular-32"/>
       <use xlink:href="#JosefinSans-Regular-35" x="54.499985"/>
       <use xlink:href="#JosefinSans-Regular-30" x="106.799973"/>
       <use xlink:href="#JosefinSans-Regular-30" x="169.199966"/>
       <use xlink:href="#JosefinSans-Regular-30" x="231.59996"/>
      </g>
     </g>
    </g>
    <g id="text_13">
     <!-- Frequency -->
     <g style="fill: #262626" transform="translate(14.62524 160.985859)rotate(-90)scale(0.15 -0.15)">
      <defs>
       <path id="JosefinSans-Regular-46" d="M 3411 4627 
L 3411 4032 
L 1286 4032 
L 1286 2560 
L 3149 2560 
L 3149 1965 
L 1286 1965 
L 1286 0 
L 666 0 
L 666 4627 
L 3411 4627 
z
" transform="scale(0.015625)"/>
       <path id="JosefinSans-Regular-71" d="M 3283 2694 
L 3283 -1274 
L 2688 -1274 
L 2688 397 
Q 2522 192 2227 64 
Q 1933 -64 1581 -64 
Q 1222 -64 928 109 
Q 634 282 461 598 
Q 288 915 288 1331 
Q 288 1747 477 2073 
Q 666 2400 982 2579 
Q 1299 2758 1683 2758 
Q 1997 2758 2253 2633 
Q 2509 2509 2682 2291 
L 2682 2694 
L 3283 2694 
z
M 2682 1555 
Q 2611 1869 2368 2061 
Q 2125 2253 1786 2253 
Q 1542 2253 1337 2131 
Q 1133 2010 1011 1795 
Q 890 1581 890 1325 
Q 890 1069 1011 861 
Q 1133 653 1337 534 
Q 1542 416 1786 416 
Q 2125 416 2374 611 
Q 2624 806 2682 1107 
L 2682 1555 
z
" transform="scale(0.015625)"/>
      </defs>
      <use xlink:href="#JosefinSans-Regular-46"/>
      <use xlink:href="#JosefinSans-Regular-72" x="58.899994"/>
      <use xlink:href="#JosefinSans-Regular-65" x="96.499985"/>
      <use xlink:href="#JosefinSans-Regular-71" x="148.499969"/>
      <use xlink:href="#JosefinSans-Regular-75" x="207.799957"/>
      <use xlink:href="#JosefinSans-Regular-65" x="262.499954"/>
      <use xlink:href="#JosefinSans-Regular-6e" x="314.499939"/>
      <use xlink:href="#JosefinSans-Regular-63" x="369.799927"/>
      <use xlink:href="#JosefinSans-Regular-79" x="415.399918"/>
     </g>
    </g>
   </g>
   <g id="patch_3">
    <path d="M 38.461427 249.251947 
L 96.915928 249.251947 
L 96.915928 249.234414 
L 38.461427 249.234414 
z
" clip-path="url(#p1ad0f51697)" style="fill: #81aca4"/>
   </g>
   <g id="patch_4">
    <path d="M 121.967857 249.251947 
L 180.422358 249.251947 
L 180.422358 248.883748 
L 121.967857 248.883748 
z
" clip-path="url(#p1ad0f51697)" style="fill: #81aca4"/>
   </g>
   <g id="patch_5">
    <path d="M 205.474287 249.251947 
L 263.928787 249.251947 
L 263.928787 245.81542 
L 205.474287 245.81542 
z
" clip-path="url(#p1ad0f51697)" style="fill: #81aca4"/>
   </g>
   <g id="patch_6">
    <path d="M 288.980716 249.251947 
L 347.435217 249.251947 
L 347.435217 230.692948 
L 288.980716 230.692948 
z
" clip-path="url(#p1ad0f51697)" style="fill: #81aca4"/>
   </g>
   <g id="patch_7">
    <path d="M 372.487146 249.251947 
L 430.941647 249.251947 
L 430.941647 184.1771 
L 372.487146 184.1771 
z
" clip-path="url(#p1ad0f51697)" style="fill: #81aca4"/>
   </g>
   <g id="patch_8">
    <path d="M 455.993576 249.251947 
L 514.448077 249.251947 
L 514.448077 98.87759 
L 455.993576 98.87759 
z
" clip-path="url(#p1ad0f51697)" style="fill: #81aca4"/>
   </g>
   <g id="patch_9">
    <path d="M 539.500006 249.251947 
L 597.954506 249.251947 
L 597.954506 14.726512 
L 539.500006 14.726512 
z
" clip-path="url(#p1ad0f51697)" style="fill: #81aca4"/>
   </g>
   <g id="patch_10">
    <path d="M 623.006435 249.251947 
L 681.460936 249.251947 
L 681.460936 16.436009 
L 623.006435 16.436009 
z
" clip-path="url(#p1ad0f51697)" style="fill: #81aca4"/>
   </g>
   <g id="patch_11">
    <path d="M 706.512865 249.251947 
L 764.967366 249.251947 
L 764.967366 112.141533 
L 706.512865 112.141533 
z
" clip-path="url(#p1ad0f51697)" style="fill: #81aca4"/>
   </g>
   <g id="patch_12">
    <path d="M 790.019295 249.251947 
L 848.473796 249.251947 
L 848.473796 214.869144 
L 790.019295 214.869144 
z
" clip-path="url(#p1ad0f51697)" style="fill: #81aca4"/>
   </g>
  </g>
 </g>
 <defs>
  <clipPath id="p1ad0f51697">
   <rect x="67.688677" y="3.00024" width="793.311082" height="246.251708"/>
  </clipPath>
 </defs>
</svg>
