<?xml version="1.0" encoding="utf-8" standalone="no"?>
<!DOCTYPE svg PUBLIC "-//W3C//DTD SVG 1.1//EN"
  "http://www.w3.org/Graphics/SVG/1.1/DTD/svg11.dtd">
<svg xmlns:xlink="http://www.w3.org/1999/xlink" width="864pt" height="288pt" viewBox="0 0 864 288" xmlns="http://www.w3.org/2000/svg" version="1.1">
 <metadata>
  <rdf:RDF xmlns:dc="http://purl.org/dc/elements/1.1/" xmlns:cc="http://creativecommons.org/ns#" xmlns:rdf="http://www.w3.org/1999/02/22-rdf-syntax-ns#">
   <cc:Work>
    <dc:type rdf:resource="http://purl.org/dc/dcmitype/StillImage"/>
    <dc:date>2022-01-12T17:21:42.588417</dc:date>
    <dc:format>image/svg+xml</dc:format>
    <dc:creator>
     <cc:Agent>
      <dc:title>Matplotlib v3.5.1, https://matplotlib.org/</dc:title>
     </cc:Agent>
    </dc:creator>
   </cc:Work>
  </rdf:RDF>
 </metadata>
 <defs>
  <style type="text/css">*{stroke-linejoin: round; stroke-linecap: butt}</style>
 </defs>
 <g id="figure_1">
  <g id="patch_1">
   <path d="M 0 288 
L 864 288 
L 864 0 
L 0 0 
z
" style="fill: #ffffff"/>
  </g>
  <g id="axes_1">
   <g id="patch_2">
    <path d="M 53.688677 249.251947 
L 860.99976 249.251947 
L 860.99976 3.00024 
L 53.688677 3.00024 
z
" style="fill: #ffffff"/>
   </g>
   <g id="matplotlib.axis_1">
    <g id="xtick_1">
     <g id="line2d_1">
      <path d="M 90.384636 249.251947 
L 90.384636 3.00024 
" clip-path="url(#pc2cc6fe6a3)" style="fill: none; stroke-dasharray: 0.8,1.32; stroke-dashoffset: 0; stroke: #cccccc; stroke-width: 0.8"/>
     </g>
     <g id="line2d_2"/>
     <g id="text_1">
      <!-- 0.0 -->
      <g style="fill: #262626" transform="translate(80.464323 263.601947)scale(0.14 -0.14)">
       <defs>
        <path id="JosefinSans-Regular-30" d="M 1997 -19 
Q 1478 -19 1078 240 
Q 678 499 454 985 
Q 230 1472 230 2125 
Q 230 3168 700 3715 
Q 1171 4262 1997 4256 
Q 2515 4256 2915 4000 
Q 3315 3744 3539 3257 
Q 3763 2771 3763 2125 
Q 3763 1459 3539 972 
Q 3315 486 2915 230 
Q 2515 -26 1997 -19 
z
M 1990 576 
Q 2534 576 2825 998 
Q 3117 1421 3123 2138 
Q 3117 2835 2825 3248 
Q 2534 3661 1990 3661 
Q 1453 3661 1165 3245 
Q 877 2829 870 2125 
Q 877 1414 1165 995 
Q 1453 576 1990 576 
z
" transform="scale(0.015625)"/>
        <path id="JosefinSans-Regular-2e" d="M 218 339 
Q 218 480 320 582 
Q 422 685 557 685 
Q 678 685 784 582 
Q 890 480 890 339 
Q 890 192 787 96 
Q 685 0 557 0 
Q 422 0 320 96 
Q 218 192 218 339 
z
" transform="scale(0.015625)"/>
       </defs>
       <use xlink:href="#JosefinSans-Regular-30"/>
       <use xlink:href="#JosefinSans-Regular-2e" x="62.399994"/>
       <use xlink:href="#JosefinSans-Regular-30" x="79.299988"/>
      </g>
     </g>
    </g>
    <g id="xtick_2">
     <g id="line2d_3">
      <path d="M 237.168469 249.251947 
L 237.168469 3.00024 
" clip-path="url(#pc2cc6fe6a3)" style="fill: none; stroke-dasharray: 0.8,1.32; stroke-dashoffset: 0; stroke: #cccccc; stroke-width: 0.8"/>
     </g>
     <g id="line2d_4"/>
     <g id="text_2">
      <!-- 0.2 -->
      <g style="fill: #262626" transform="translate(227.801594 263.601947)scale(0.14 -0.14)">
       <defs>
        <path id="JosefinSans-Regular-32" d="M 3213 602 
L 3213 0 
L 346 0 
L 557 211 
Q 1210 864 1574 1267 
Q 1939 1670 2185 2083 
Q 2432 2496 2432 2867 
Q 2432 3258 2201 3462 
Q 1971 3667 1638 3667 
Q 1376 3667 1200 3558 
Q 1024 3450 944 3283 
Q 864 3117 864 2950 
Q 864 2541 1114 2278 
L 736 1933 
Q 525 2061 393 2365 
Q 262 2669 262 2938 
Q 262 3290 438 3594 
Q 614 3898 947 4080 
Q 1280 4262 1741 4262 
Q 2131 4262 2435 4080 
Q 2739 3898 2905 3590 
Q 3072 3283 3072 2918 
Q 3072 2554 2899 2189 
Q 2726 1824 2473 1504 
Q 2221 1184 1798 710 
L 1702 602 
L 3213 602 
z
" transform="scale(0.015625)"/>
       </defs>
       <use xlink:href="#JosefinSans-Regular-30"/>
       <use xlink:href="#JosefinSans-Regular-2e" x="62.399994"/>
       <use xlink:href="#JosefinSans-Regular-32" x="79.299988"/>
      </g>
     </g>
    </g>
    <g id="xtick_3">
     <g id="line2d_5">
      <path d="M 383.952302 249.251947 
L 383.952302 3.00024 
" clip-path="url(#pc2cc6fe6a3)" style="fill: none; stroke-dasharray: 0.8,1.32; stroke-dashoffset: 0; stroke: #cccccc; stroke-width: 0.8"/>
     </g>
     <g id="line2d_6"/>
     <g id="text_3">
      <!-- 0.4 -->
      <g style="fill: #262626" transform="translate(374.648865 263.601947)scale(0.14 -0.14)">
       <defs>
        <path id="JosefinSans-Regular-34" d="M 3206 1498 
L 3206 1018 
L 2656 1018 
L 2656 0 
L 2035 0 
L 2035 1018 
L 83 1018 
L 83 1024 
L 2650 4262 
L 2656 4262 
L 2656 1498 
L 3206 1498 
z
M 2035 1498 
L 2035 2810 
L 1018 1498 
L 2035 1498 
z
" transform="scale(0.015625)"/>
       </defs>
       <use xlink:href="#JosefinSans-Regular-30"/>
       <use xlink:href="#JosefinSans-Regular-2e" x="62.399994"/>
       <use xlink:href="#JosefinSans-Regular-34" x="79.299988"/>
      </g>
     </g>
    </g>
    <g id="xtick_4">
     <g id="line2d_7">
      <path d="M 530.736135 249.251947 
L 530.736135 3.00024 
" clip-path="url(#pc2cc6fe6a3)" style="fill: none; stroke-dasharray: 0.8,1.32; stroke-dashoffset: 0; stroke: #cccccc; stroke-width: 0.8"/>
     </g>
     <g id="line2d_8"/>
     <g id="text_4">
      <!-- 0.6 -->
      <g style="fill: #262626" transform="translate(521.36926 263.601947)scale(0.14 -0.14)">
       <defs>
        <path id="JosefinSans-Regular-36" d="M 1958 2701 
Q 2285 2701 2576 2525 
Q 2867 2349 3046 2041 
Q 3226 1734 3226 1357 
Q 3226 941 3021 621 
Q 2816 301 2477 125 
Q 2138 -51 1754 -51 
Q 1325 -51 982 153 
Q 640 358 441 736 
Q 243 1114 243 1619 
Q 243 2381 784 3040 
Q 1325 3699 2182 4250 
L 2598 3795 
Q 2029 3514 1645 3139 
Q 1261 2765 1082 2368 
Q 1414 2701 1958 2701 
z
M 1728 506 
Q 2093 506 2339 742 
Q 2586 979 2586 1357 
Q 2586 1722 2339 1949 
Q 2093 2176 1728 2176 
Q 1498 2176 1302 2077 
Q 1107 1978 992 1808 
Q 877 1638 877 1440 
L 877 1325 
Q 877 1107 992 918 
Q 1107 730 1302 618 
Q 1498 506 1728 506 
z
" transform="scale(0.015625)"/>
       </defs>
       <use xlink:href="#JosefinSans-Regular-30"/>
       <use xlink:href="#JosefinSans-Regular-2e" x="62.399994"/>
       <use xlink:href="#JosefinSans-Regular-36" x="79.299988"/>
      </g>
     </g>
    </g>
    <g id="xtick_5">
     <g id="line2d_9">
      <path d="M 677.519969 249.251947 
L 677.519969 3.00024 
" clip-path="url(#pc2cc6fe6a3)" style="fill: none; stroke-dasharray: 0.8,1.32; stroke-dashoffset: 0; stroke: #cccccc; stroke-width: 0.8"/>
     </g>
     <g id="line2d_10"/>
     <g id="text_5">
      <!-- 0.8 -->
      <g style="fill: #262626" transform="translate(668.307312 263.601947)scale(0.14 -0.14)">
       <defs>
        <path id="JosefinSans-Regular-38" d="M 179 1331 
Q 179 1773 422 2083 
Q 666 2394 1005 2534 
Q 794 2669 678 2851 
Q 563 3034 563 3296 
Q 563 3571 707 3792 
Q 851 4013 1104 4137 
Q 1357 4262 1670 4262 
Q 1978 4262 2234 4137 
Q 2490 4013 2637 3798 
Q 2784 3584 2784 3322 
Q 2784 3046 2669 2864 
Q 2554 2682 2336 2534 
Q 2682 2387 2925 2076 
Q 3168 1766 3168 1331 
Q 3168 966 2969 649 
Q 2771 333 2425 141 
Q 2080 -51 1664 -51 
Q 1248 -51 909 137 
Q 570 326 374 646 
Q 179 966 179 1331 
z
M 1165 3226 
Q 1165 3027 1321 2886 
Q 1478 2746 1683 2746 
Q 1888 2746 2038 2886 
Q 2189 3027 2189 3226 
Q 2189 3450 2041 3597 
Q 1894 3744 1683 3744 
Q 1472 3744 1318 3597 
Q 1165 3450 1165 3226 
z
M 813 1357 
Q 813 1120 928 918 
Q 1043 717 1238 595 
Q 1434 474 1664 474 
Q 1901 474 2102 595 
Q 2304 717 2425 918 
Q 2547 1120 2547 1357 
Q 2547 1594 2432 1792 
Q 2317 1990 2115 2108 
Q 1914 2227 1677 2227 
Q 1446 2227 1248 2112 
Q 1050 1997 931 1795 
Q 813 1594 813 1357 
z
" transform="scale(0.015625)"/>
       </defs>
       <use xlink:href="#JosefinSans-Regular-30"/>
       <use xlink:href="#JosefinSans-Regular-2e" x="62.399994"/>
       <use xlink:href="#JosefinSans-Regular-38" x="79.299988"/>
      </g>
     </g>
    </g>
    <g id="xtick_6">
     <g id="line2d_11">
      <path d="M 824.303802 249.251947 
L 824.303802 3.00024 
" clip-path="url(#pc2cc6fe6a3)" style="fill: none; stroke-dasharray: 0.8,1.32; stroke-dashoffset: 0; stroke: #cccccc; stroke-width: 0.8"/>
     </g>
     <g id="line2d_12"/>
     <g id="text_6">
      <!-- 1.0 -->
      <g style="fill: #262626" transform="translate(816.441927 263.601947)scale(0.14 -0.14)">
       <defs>
        <path id="JosefinSans-Regular-31" d="M 1446 4211 
L 1446 0 
L 819 0 
L 819 3616 
L 339 3616 
L 339 4211 
L 1446 4211 
z
" transform="scale(0.015625)"/>
       </defs>
       <use xlink:href="#JosefinSans-Regular-31"/>
       <use xlink:href="#JosefinSans-Regular-2e" x="32.999985"/>
       <use xlink:href="#JosefinSans-Regular-30" x="49.899979"/>
      </g>
     </g>
    </g>
    <g id="text_7">
     <!-- proportion water (p) -->
     <g style="fill: #262626" transform="translate(387.6575 282.013823)scale(0.15 -0.15)">
      <defs>
       <path id="JosefinSans-Regular-70" d="M 2195 2758 
Q 2566 2758 2867 2579 
Q 3168 2400 3341 2077 
Q 3514 1754 3514 1331 
Q 3514 915 3328 598 
Q 3142 282 2816 109 
Q 2490 -64 2086 -64 
Q 1798 -64 1536 61 
Q 1274 186 1114 397 
L 1114 -1274 
L 518 -1274 
L 518 2694 
L 1037 2694 
L 1088 2246 
Q 1293 2477 1577 2617 
Q 1862 2758 2195 2758 
z
M 1971 416 
Q 2221 416 2435 534 
Q 2650 653 2778 861 
Q 2906 1069 2906 1325 
Q 2906 1587 2787 1798 
Q 2669 2010 2464 2131 
Q 2259 2253 2010 2253 
Q 1670 2253 1430 2064 
Q 1190 1875 1114 1555 
L 1114 1114 
Q 1165 806 1405 611 
Q 1645 416 1971 416 
z
" transform="scale(0.015625)"/>
       <path id="JosefinSans-Regular-72" d="M 1094 2022 
Q 1197 2240 1385 2406 
Q 1574 2573 1785 2662 
Q 1997 2752 2157 2758 
L 2131 2163 
Q 1843 2176 1609 2048 
Q 1376 1920 1245 1693 
Q 1114 1466 1114 1210 
L 1114 0 
L 518 0 
L 518 2650 
L 1050 2650 
L 1094 2022 
z
" transform="scale(0.015625)"/>
       <path id="JosefinSans-Regular-6f" d="M 288 1350 
Q 288 1741 477 2064 
Q 666 2387 1002 2572 
Q 1338 2758 1760 2758 
Q 2182 2758 2512 2572 
Q 2842 2387 3024 2067 
Q 3206 1747 3206 1350 
Q 3206 954 3024 630 
Q 2842 307 2509 121 
Q 2176 -64 1747 -64 
Q 1331 -64 998 112 
Q 666 288 477 608 
Q 288 928 288 1350 
z
M 890 1344 
Q 890 1094 1002 883 
Q 1114 672 1309 550 
Q 1504 429 1741 429 
Q 2112 429 2355 691 
Q 2598 954 2598 1344 
Q 2598 1734 2355 2000 
Q 2112 2266 1741 2266 
Q 1498 2266 1306 2141 
Q 1114 2016 1002 1805 
Q 890 1594 890 1344 
z
" transform="scale(0.015625)"/>
       <path id="JosefinSans-Regular-74" d="M 1376 3814 
L 1376 2643 
L 2099 2643 
L 2099 2170 
L 1376 2170 
L 1376 0 
L 774 0 
L 774 2170 
L 288 2170 
L 288 2643 
L 774 2643 
L 774 3814 
L 1376 3814 
z
" transform="scale(0.015625)"/>
       <path id="JosefinSans-Regular-69" d="M 1114 2650 
L 1114 0 
L 518 0 
L 518 2650 
L 1114 2650 
z
M 477 3590 
Q 477 3731 585 3827 
Q 694 3923 835 3923 
Q 976 3923 1081 3827 
Q 1187 3731 1187 3590 
Q 1187 3450 1081 3354 
Q 976 3258 835 3258 
Q 694 3258 585 3354 
Q 477 3450 477 3590 
z
" transform="scale(0.015625)"/>
       <path id="JosefinSans-Regular-6e" d="M 2163 2752 
Q 2534 2752 2777 2531 
Q 3021 2310 3027 1958 
L 3027 0 
L 2426 0 
L 2426 1754 
Q 2413 1978 2291 2106 
Q 2170 2234 1926 2240 
Q 1574 2240 1344 1958 
Q 1114 1677 1114 1242 
L 1114 0 
L 518 0 
L 518 2650 
L 1056 2650 
L 1094 2138 
Q 1235 2426 1516 2589 
Q 1798 2752 2163 2752 
z
" transform="scale(0.015625)"/>
       <path id="JosefinSans-Regular-20" transform="scale(0.015625)"/>
       <path id="JosefinSans-Regular-77" d="M 4198 2650 
L 2976 -160 
L 2125 1658 
L 1350 -160 
L 122 2650 
L 710 2650 
L 1421 1043 
L 1914 2195 
L 1702 2650 
L 2221 2650 
L 2938 1005 
L 3610 2650 
L 4198 2650 
z
" transform="scale(0.015625)"/>
       <path id="JosefinSans-Regular-61" d="M 3238 2650 
L 3238 0 
L 2643 0 
L 2643 435 
Q 2502 250 2233 93 
Q 1965 -64 1626 -64 
Q 1248 -64 944 99 
Q 640 262 464 576 
Q 288 890 288 1325 
Q 288 1760 470 2083 
Q 653 2406 963 2582 
Q 1274 2758 1651 2758 
Q 1990 2758 2240 2611 
Q 2490 2464 2643 2227 
L 2688 2650 
L 3238 2650 
z
M 1786 429 
Q 2112 429 2345 611 
Q 2579 794 2643 1107 
L 2643 1632 
Q 2566 1914 2323 2090 
Q 2080 2266 1766 2266 
Q 1530 2266 1328 2150 
Q 1126 2035 1008 1827 
Q 890 1619 890 1357 
Q 890 1101 1011 889 
Q 1133 678 1337 553 
Q 1542 429 1786 429 
z
" transform="scale(0.015625)"/>
       <path id="JosefinSans-Regular-65" d="M 1760 448 
Q 2093 448 2406 678 
L 2682 237 
Q 2470 96 2224 16 
Q 1978 -64 1747 -64 
Q 1306 -64 976 118 
Q 646 301 467 621 
Q 288 941 288 1344 
Q 288 1734 483 2057 
Q 678 2381 1017 2569 
Q 1357 2758 1760 2758 
Q 2278 2758 2627 2454 
Q 2976 2150 3104 1606 
L 1005 870 
Q 1120 672 1315 560 
Q 1510 448 1760 448 
z
M 1715 2285 
Q 1350 2285 1113 2029 
Q 877 1773 877 1376 
Q 877 1280 883 1229 
L 2426 1798 
Q 2330 2016 2154 2150 
Q 1978 2285 1715 2285 
z
" transform="scale(0.015625)"/>
       <path id="JosefinSans-Regular-28" d="M 653 1888 
Q 653 2797 963 3577 
Q 1274 4358 1722 4832 
L 2189 4570 
Q 1786 4096 1530 3411 
Q 1274 2726 1274 1888 
Q 1274 1050 1530 362 
Q 1786 -326 2189 -794 
L 1722 -1062 
Q 1274 -582 963 198 
Q 653 979 653 1888 
z
" transform="scale(0.015625)"/>
       <path id="JosefinSans-Regular-29" d="M 2003 1888 
Q 2003 979 1696 195 
Q 1389 -589 941 -1062 
L 467 -794 
Q 870 -326 1126 362 
Q 1382 1050 1382 1888 
Q 1382 2726 1126 3411 
Q 870 4096 467 4563 
L 941 4832 
Q 1389 4352 1696 3574 
Q 2003 2797 2003 1888 
z
" transform="scale(0.015625)"/>
      </defs>
      <use xlink:href="#JosefinSans-Regular-70"/>
      <use xlink:href="#JosefinSans-Regular-72" x="59.299988"/>
      <use xlink:href="#JosefinSans-Regular-6f" x="96.899979"/>
      <use xlink:href="#JosefinSans-Regular-70" x="151.399963"/>
      <use xlink:href="#JosefinSans-Regular-6f" x="210.699951"/>
      <use xlink:href="#JosefinSans-Regular-72" x="265.199936"/>
      <use xlink:href="#JosefinSans-Regular-74" x="302.799927"/>
      <use xlink:href="#JosefinSans-Regular-69" x="338.799911"/>
      <use xlink:href="#JosefinSans-Regular-6f" x="364.299896"/>
      <use xlink:href="#JosefinSans-Regular-6e" x="418.799881"/>
      <use xlink:href="#JosefinSans-Regular-20" x="474.099869"/>
      <use xlink:href="#JosefinSans-Regular-77" x="505.69986"/>
      <use xlink:href="#JosefinSans-Regular-61" x="573.199844"/>
      <use xlink:href="#JosefinSans-Regular-74" x="631.899841"/>
      <use xlink:href="#JosefinSans-Regular-65" x="667.899826"/>
      <use xlink:href="#JosefinSans-Regular-72" x="719.899811"/>
      <use xlink:href="#JosefinSans-Regular-20" x="757.499802"/>
      <use xlink:href="#JosefinSans-Regular-28" x="789.099792"/>
      <use xlink:href="#JosefinSans-Regular-70" x="829.39978"/>
      <use xlink:href="#JosefinSans-Regular-29" x="888.699768"/>
     </g>
    </g>
   </g>
   <g id="matplotlib.axis_2">
    <g id="ytick_1">
     <g id="line2d_13">
      <path d="M 53.688677 238.058688 
L 860.99976 238.058688 
" clip-path="url(#pc2cc6fe6a3)" style="fill: none; stroke-dasharray: 0.8,1.32; stroke-dashoffset: 0; stroke: #cccccc; stroke-width: 0.8"/>
     </g>
     <g id="line2d_14"/>
     <g id="text_8">
      <!-- 0.00 -->
      <g style="fill: #262626" transform="translate(21.611177 243.483688)scale(0.14 -0.14)">
       <use xlink:href="#JosefinSans-Regular-30"/>
       <use xlink:href="#JosefinSans-Regular-2e" x="62.399994"/>
       <use xlink:href="#JosefinSans-Regular-30" x="79.299988"/>
       <use xlink:href="#JosefinSans-Regular-30" x="141.699982"/>
      </g>
     </g>
    </g>
    <g id="ytick_2">
     <g id="line2d_15">
      <path d="M 53.688677 181.527075 
L 860.99976 181.527075 
" clip-path="url(#pc2cc6fe6a3)" style="fill: none; stroke-dasharray: 0.8,1.32; stroke-dashoffset: 0; stroke: #cccccc; stroke-width: 0.8"/>
     </g>
     <g id="line2d_16"/>
     <g id="text_9">
      <!-- 0.01 -->
      <g style="fill: #262626" transform="translate(25.728052 186.952075)scale(0.14 -0.14)">
       <use xlink:href="#JosefinSans-Regular-30"/>
       <use xlink:href="#JosefinSans-Regular-2e" x="62.399994"/>
       <use xlink:href="#JosefinSans-Regular-30" x="79.299988"/>
       <use xlink:href="#JosefinSans-Regular-31" x="141.699982"/>
      </g>
     </g>
    </g>
    <g id="ytick_3">
     <g id="line2d_17">
      <path d="M 53.688677 124.995461 
L 860.99976 124.995461 
" clip-path="url(#pc2cc6fe6a3)" style="fill: none; stroke-dasharray: 0.8,1.32; stroke-dashoffset: 0; stroke: #cccccc; stroke-width: 0.8"/>
     </g>
     <g id="line2d_18"/>
     <g id="text_10">
      <!-- 0.02 -->
      <g style="fill: #262626" transform="translate(22.718052 130.420461)scale(0.14 -0.14)">
       <use xlink:href="#JosefinSans-Regular-30"/>
       <use xlink:href="#JosefinSans-Regular-2e" x="62.399994"/>
       <use xlink:href="#JosefinSans-Regular-30" x="79.299988"/>
       <use xlink:href="#JosefinSans-Regular-32" x="141.699982"/>
      </g>
     </g>
    </g>
    <g id="ytick_4">
     <g id="line2d_19">
      <path d="M 53.688677 68.463848 
L 860.99976 68.463848 
" clip-path="url(#pc2cc6fe6a3)" style="fill: none; stroke-dasharray: 0.8,1.32; stroke-dashoffset: 0; stroke: #cccccc; stroke-width: 0.8"/>
     </g>
     <g id="line2d_20"/>
     <g id="text_11">
      <!-- 0.03 -->
      <g style="fill: #262626" transform="translate(23.011177 73.888848)scale(0.14 -0.14)">
       <defs>
        <path id="JosefinSans-Regular-33" d="M 1830 2662 
Q 2317 2637 2630 2329 
Q 2944 2022 2944 1402 
Q 2944 966 2745 636 
Q 2547 307 2204 128 
Q 1862 -51 1453 -51 
Q 1152 -51 845 77 
Q 538 205 339 410 
L 659 922 
Q 781 768 998 659 
Q 1216 550 1440 550 
Q 1805 550 2054 793 
Q 2304 1037 2304 1440 
Q 2304 1798 2089 2012 
Q 1875 2227 1504 2227 
Q 1222 2227 960 2131 
L 941 2157 
L 1882 3616 
L 589 3616 
L 589 4211 
L 2797 4211 
L 1830 2662 
z
" transform="scale(0.015625)"/>
       </defs>
       <use xlink:href="#JosefinSans-Regular-30"/>
       <use xlink:href="#JosefinSans-Regular-2e" x="62.399994"/>
       <use xlink:href="#JosefinSans-Regular-30" x="79.299988"/>
       <use xlink:href="#JosefinSans-Regular-33" x="141.699982"/>
      </g>
     </g>
    </g>
    <g id="ytick_5">
     <g id="line2d_21">
      <path d="M 53.688677 11.932235 
L 860.99976 11.932235 
" clip-path="url(#pc2cc6fe6a3)" style="fill: none; stroke-dasharray: 0.8,1.32; stroke-dashoffset: 0; stroke: #cccccc; stroke-width: 0.8"/>
     </g>
     <g id="line2d_22"/>
     <g id="text_12">
      <!-- 0.04 -->
      <g style="fill: #262626" transform="translate(22.844927 17.357235)scale(0.14 -0.14)">
       <use xlink:href="#JosefinSans-Regular-30"/>
       <use xlink:href="#JosefinSans-Regular-2e" x="62.399994"/>
       <use xlink:href="#JosefinSans-Regular-30" x="79.299988"/>
       <use xlink:href="#JosefinSans-Regular-34" x="141.699982"/>
      </g>
     </g>
    </g>
    <g id="text_13">
     <!-- Density -->
     <g style="fill: #262626" transform="translate(14.62524 151.206562)rotate(-90)scale(0.15 -0.15)">
      <defs>
       <path id="JosefinSans-Regular-44" d="M 666 4627 
L 1933 4627 
Q 2797 4627 3363 4284 
Q 3930 3942 4189 3401 
Q 4448 2861 4448 2259 
Q 4448 1587 4134 1072 
Q 3821 557 3296 278 
Q 2771 0 2157 0 
L 666 0 
L 666 4627 
z
M 2035 602 
Q 2547 602 2950 803 
Q 3354 1005 3581 1389 
Q 3808 1773 3808 2304 
Q 3808 2848 3571 3238 
Q 3334 3629 2940 3830 
Q 2547 4032 2093 4032 
L 1286 4032 
L 1286 602 
L 2035 602 
z
" transform="scale(0.015625)"/>
       <path id="JosefinSans-Regular-73" d="M 1267 -58 
Q 973 -58 707 44 
Q 442 147 275 346 
L 531 691 
Q 691 538 867 454 
Q 1043 371 1216 371 
Q 1427 371 1561 454 
Q 1696 538 1696 710 
Q 1696 845 1613 928 
Q 1530 1011 1424 1049 
Q 1318 1088 1069 1165 
Q 390 1382 390 1939 
Q 390 2272 636 2509 
Q 883 2746 1325 2746 
Q 1606 2746 1824 2675 
Q 2042 2605 2227 2451 
L 1990 2086 
Q 1888 2195 1731 2259 
Q 1574 2323 1434 2330 
Q 1254 2330 1126 2243 
Q 998 2157 998 2010 
Q 998 1888 1081 1808 
Q 1165 1728 1254 1693 
Q 1344 1658 1606 1574 
Q 1933 1466 2115 1293 
Q 2298 1120 2298 826 
Q 2298 442 2029 192 
Q 1760 -58 1267 -58 
z
" transform="scale(0.015625)"/>
       <path id="JosefinSans-Regular-79" d="M 3040 2650 
L 1331 -1274 
L 742 -1274 
L 1350 90 
L 122 2650 
L 794 2650 
L 1651 762 
L 2490 2650 
L 3040 2650 
z
" transform="scale(0.015625)"/>
      </defs>
      <use xlink:href="#JosefinSans-Regular-44"/>
      <use xlink:href="#JosefinSans-Regular-65" x="75.399994"/>
      <use xlink:href="#JosefinSans-Regular-6e" x="127.399979"/>
      <use xlink:href="#JosefinSans-Regular-73" x="182.699966"/>
      <use xlink:href="#JosefinSans-Regular-69" x="223.499954"/>
      <use xlink:href="#JosefinSans-Regular-74" x="248.999939"/>
      <use xlink:href="#JosefinSans-Regular-79" x="284.999924"/>
     </g>
    </g>
   </g>
   <g id="line2d_23">
    <path d="M 90.384636 238.058688 
L 97.797961 238.058457 
L 105.211286 238.056842 
L 112.624611 238.052459 
L 120.037935 238.043922 
L 127.45126 238.029848 
L 134.864585 238.008853 
L 142.27791 237.979552 
L 149.691235 237.940561 
L 157.10456 237.890495 
L 164.517885 237.82797 
L 171.93121 237.751603 
L 179.344535 237.660008 
L 186.75786 237.551801 
L 194.171185 237.425599 
L 201.584509 237.280016 
L 208.997834 237.113668 
L 216.411159 236.925172 
L 223.824484 236.713142 
L 231.237809 236.476195 
L 238.651134 236.212946 
L 246.064459 235.922011 
L 253.477784 235.602006 
L 260.891109 235.251545 
L 268.304434 234.869246 
L 275.717758 234.453723 
L 283.131083 234.003593 
L 290.544408 233.517471 
L 297.957733 232.993972 
L 305.371058 232.431713 
L 312.784383 231.829309 
L 320.197708 231.185376 
L 327.611033 230.498529 
L 335.024358 229.767385 
L 342.437683 228.990558 
L 349.851008 228.166665 
L 357.264332 227.294321 
L 364.677657 226.372143 
L 372.090982 225.398744 
L 379.504307 224.372743 
L 386.917632 223.292753 
L 394.330957 222.157391 
L 401.744282 220.965272 
L 409.157607 219.715013 
L 416.570932 218.405228 
L 423.984257 217.034534 
L 431.397582 215.601547 
L 438.810906 214.104881 
L 446.224231 212.543152 
L 453.637556 210.914977 
L 461.050881 209.218971 
L 468.464206 207.45375 
L 475.877531 205.617929 
L 483.290856 203.710124 
L 490.704181 201.72895 
L 498.117506 199.673025 
L 505.530831 197.540962 
L 512.944156 195.331378 
L 520.35748 193.042889 
L 527.770805 190.67411 
L 535.18413 188.223657 
L 542.597455 185.690146 
L 550.01078 183.072191 
L 557.424105 180.36841 
L 564.83743 177.577418 
L 572.250755 174.69783 
L 579.66408 171.728262 
L 587.077405 168.66733 
L 594.49073 165.513649 
L 601.904054 162.265835 
L 609.317379 158.922505 
L 616.730704 155.482272 
L 624.144029 151.943754 
L 631.557354 148.305567 
L 638.970679 144.566324 
L 646.384004 140.724643 
L 653.797329 136.779139 
L 661.210654 132.728428 
L 668.623979 128.571125 
L 676.037304 124.305846 
L 683.450628 119.931207 
L 690.863953 115.445824 
L 698.277278 110.848311 
L 705.690603 106.137286 
L 713.103928 101.311363 
L 720.517253 96.369158 
L 727.930578 91.309288 
L 735.343903 86.130367 
L 742.757228 80.831011 
L 750.170553 75.409836 
L 757.583878 69.865458 
L 764.997202 64.196493 
L 772.410527 58.401556 
L 779.823852 52.479262 
L 787.237177 46.428228 
L 794.650502 40.247069 
L 802.063827 33.934401 
L 809.477152 27.48884 
L 816.890477 20.909001 
L 824.303802 14.193499 
" clip-path="url(#pc2cc6fe6a3)" style="fill: none; stroke: #81aca4; stroke-width: 1.5; stroke-linecap: round"/>
   </g>
  </g>
 </g>
 <defs>
  <clipPath id="pc2cc6fe6a3">
   <rect x="53.688677" y="3.00024" width="807.311082" height="246.251708"/>
  </clipPath>
 </defs>
</svg>
