<?xml version="1.0" encoding="utf-8" standalone="no"?>
<!DOCTYPE svg PUBLIC "-//W3C//DTD SVG 1.1//EN"
  "http://www.w3.org/Graphics/SVG/1.1/DTD/svg11.dtd">
<!-- Created with matplotlib (https://matplotlib.org/) -->
<svg height="288pt" version="1.1" viewBox="0 0 864 288" width="864pt" xmlns="http://www.w3.org/2000/svg" xmlns:xlink="http://www.w3.org/1999/xlink">
 <defs>
  <style type="text/css">
*{stroke-linecap:butt;stroke-linejoin:round;}
  </style>
 </defs>
 <g id="figure_1">
  <g id="patch_1">
   <path d="M 0 288 
L 864 288 
L 864 0 
L 0 0 
z
" style="fill:#ffffff;"/>
  </g>
  <g id="axes_1">
   <g id="patch_2">
    <path d="M 26.340865 249.251947 
L 860.99976 249.251947 
L 860.99976 21.40024 
L 26.340865 21.40024 
z
" style="fill:#ffffff;"/>
   </g>
   <g id="matplotlib.axis_1">
    <g id="xtick_1">
     <g id="line2d_1">
      <path clip-path="url(#p1b6cc43f6a)" d="M 64.279906 249.251947 
L 64.279906 21.40024 
" style="fill:none;stroke:#cccccc;stroke-dasharray:0.8,1.32;stroke-dashoffset:0;stroke-width:0.8;"/>
     </g>
     <g id="line2d_2"/>
     <g id="text_1">
      <!-- 0.0 -->
      <defs>
       <path d="M 31.203125 -0.296875 
Q 23.09375 -0.296875 16.84375 3.75 
Q 10.59375 7.796875 7.09375 15.390625 
Q 3.59375 23 3.59375 33.203125 
Q 3.59375 49.5 10.9375 58.046875 
Q 18.296875 66.59375 31.203125 66.5 
Q 39.296875 66.5 45.546875 62.5 
Q 51.796875 58.5 55.296875 50.890625 
Q 58.796875 43.296875 58.796875 33.203125 
Q 58.796875 22.796875 55.296875 15.1875 
Q 51.796875 7.59375 45.546875 3.59375 
Q 39.296875 -0.40625 31.203125 -0.296875 
z
M 31.09375 9 
Q 39.59375 9 44.140625 15.59375 
Q 48.703125 22.203125 48.796875 33.40625 
Q 48.703125 44.296875 44.140625 50.75 
Q 39.59375 57.203125 31.09375 57.203125 
Q 22.703125 57.203125 18.203125 50.703125 
Q 13.703125 44.203125 13.59375 33.203125 
Q 13.703125 22.09375 18.203125 15.546875 
Q 22.703125 9 31.09375 9 
z
" id="JosefinSans-Regular-48"/>
       <path d="M 3.40625 5.296875 
Q 3.40625 7.5 5 9.09375 
Q 6.59375 10.703125 8.703125 10.703125 
Q 10.59375 10.703125 12.25 9.09375 
Q 13.90625 7.5 13.90625 5.296875 
Q 13.90625 3 12.296875 1.5 
Q 10.703125 0 8.703125 0 
Q 6.59375 0 5 1.5 
Q 3.40625 3 3.40625 5.296875 
z
" id="JosefinSans-Regular-46"/>
      </defs>
      <g style="fill:#262626;" transform="translate(54.359593 263.601947)scale(0.14 -0.14)">
       <use xlink:href="#JosefinSans-Regular-48"/>
       <use x="62.399994" xlink:href="#JosefinSans-Regular-46"/>
       <use x="79.299988" xlink:href="#JosefinSans-Regular-48"/>
      </g>
     </g>
    </g>
    <g id="xtick_2">
     <g id="line2d_3">
      <path clip-path="url(#p1b6cc43f6a)" d="M 216.036068 249.251947 
L 216.036068 21.40024 
" style="fill:none;stroke:#cccccc;stroke-dasharray:0.8,1.32;stroke-dashoffset:0;stroke-width:0.8;"/>
     </g>
     <g id="line2d_4"/>
     <g id="text_2">
      <!-- 0.2 -->
      <defs>
       <path d="M 50.203125 9.40625 
L 50.203125 0 
L 5.40625 0 
L 8.703125 3.296875 
Q 18.90625 13.5 24.59375 19.796875 
Q 30.296875 26.09375 34.140625 32.546875 
Q 38 39 38 44.796875 
Q 38 50.90625 34.390625 54.09375 
Q 30.796875 57.296875 25.59375 57.296875 
Q 21.5 57.296875 18.75 55.59375 
Q 16 53.90625 14.75 51.296875 
Q 13.5 48.703125 13.5 46.09375 
Q 13.5 39.703125 17.40625 35.59375 
L 11.5 30.203125 
Q 8.203125 32.203125 6.140625 36.953125 
Q 4.09375 41.703125 4.09375 45.90625 
Q 4.09375 51.40625 6.84375 56.15625 
Q 9.59375 60.90625 14.796875 63.75 
Q 20 66.59375 27.203125 66.59375 
Q 33.296875 66.59375 38.046875 63.75 
Q 42.796875 60.90625 45.390625 56.09375 
Q 48 51.296875 48 45.59375 
Q 48 39.90625 45.296875 34.203125 
Q 42.59375 28.5 38.640625 23.5 
Q 34.703125 18.5 28.09375 11.09375 
L 26.59375 9.40625 
z
" id="JosefinSans-Regular-50"/>
      </defs>
      <g style="fill:#262626;" transform="translate(206.669193 263.601947)scale(0.14 -0.14)">
       <use xlink:href="#JosefinSans-Regular-48"/>
       <use x="62.399994" xlink:href="#JosefinSans-Regular-46"/>
       <use x="79.299988" xlink:href="#JosefinSans-Regular-50"/>
      </g>
     </g>
    </g>
    <g id="xtick_3">
     <g id="line2d_5">
      <path clip-path="url(#p1b6cc43f6a)" d="M 367.792231 249.251947 
L 367.792231 21.40024 
" style="fill:none;stroke:#cccccc;stroke-dasharray:0.8,1.32;stroke-dashoffset:0;stroke-width:0.8;"/>
     </g>
     <g id="line2d_6"/>
     <g id="text_3">
      <!-- 0.4 -->
      <defs>
       <path d="M 50.09375 23.40625 
L 50.09375 15.90625 
L 41.5 15.90625 
L 41.5 0 
L 31.796875 0 
L 31.796875 15.90625 
L 1.296875 15.90625 
L 1.296875 16 
L 41.40625 66.59375 
L 41.5 66.59375 
L 41.5 23.40625 
z
M 31.796875 23.40625 
L 31.796875 43.90625 
L 15.90625 23.40625 
z
" id="JosefinSans-Regular-52"/>
      </defs>
      <g style="fill:#262626;" transform="translate(358.488794 263.601947)scale(0.14 -0.14)">
       <use xlink:href="#JosefinSans-Regular-48"/>
       <use x="62.399994" xlink:href="#JosefinSans-Regular-46"/>
       <use x="79.299988" xlink:href="#JosefinSans-Regular-52"/>
      </g>
     </g>
    </g>
    <g id="xtick_4">
     <g id="line2d_7">
      <path clip-path="url(#p1b6cc43f6a)" d="M 519.548394 249.251947 
L 519.548394 21.40024 
" style="fill:none;stroke:#cccccc;stroke-dasharray:0.8,1.32;stroke-dashoffset:0;stroke-width:0.8;"/>
     </g>
     <g id="line2d_8"/>
     <g id="text_4">
      <!-- 0.6 -->
      <defs>
       <path d="M 30.59375 42.203125 
Q 35.703125 42.203125 40.25 39.453125 
Q 44.796875 36.703125 47.59375 31.890625 
Q 50.40625 27.09375 50.40625 21.203125 
Q 50.40625 14.703125 47.203125 9.703125 
Q 44 4.703125 38.703125 1.953125 
Q 33.40625 -0.796875 27.40625 -0.796875 
Q 20.703125 -0.796875 15.34375 2.390625 
Q 10 5.59375 6.890625 11.5 
Q 3.796875 17.40625 3.796875 25.296875 
Q 3.796875 37.203125 12.25 47.5 
Q 20.703125 57.796875 34.09375 66.40625 
L 40.59375 59.296875 
Q 31.703125 54.90625 25.703125 49.046875 
Q 19.703125 43.203125 16.90625 37 
Q 22.09375 42.203125 30.59375 42.203125 
z
M 27 7.90625 
Q 32.703125 7.90625 36.546875 11.59375 
Q 40.40625 15.296875 40.40625 21.203125 
Q 40.40625 26.90625 36.546875 30.453125 
Q 32.703125 34 27 34 
Q 23.40625 34 20.34375 32.453125 
Q 17.296875 30.90625 15.5 28.25 
Q 13.703125 25.59375 13.703125 22.5 
L 13.703125 20.703125 
Q 13.703125 17.296875 15.5 14.34375 
Q 17.296875 11.40625 20.34375 9.65625 
Q 23.40625 7.90625 27 7.90625 
z
" id="JosefinSans-Regular-54"/>
      </defs>
      <g style="fill:#262626;" transform="translate(510.181519 263.601947)scale(0.14 -0.14)">
       <use xlink:href="#JosefinSans-Regular-48"/>
       <use x="62.399994" xlink:href="#JosefinSans-Regular-46"/>
       <use x="79.299988" xlink:href="#JosefinSans-Regular-54"/>
      </g>
     </g>
    </g>
    <g id="xtick_5">
     <g id="line2d_9">
      <path clip-path="url(#p1b6cc43f6a)" d="M 671.304557 249.251947 
L 671.304557 21.40024 
" style="fill:none;stroke:#cccccc;stroke-dasharray:0.8,1.32;stroke-dashoffset:0;stroke-width:0.8;"/>
     </g>
     <g id="line2d_10"/>
     <g id="text_5">
      <!-- 0.8 -->
      <defs>
       <path d="M 2.796875 20.796875 
Q 2.796875 27.703125 6.59375 32.546875 
Q 10.40625 37.40625 15.703125 39.59375 
Q 12.40625 41.703125 10.59375 44.546875 
Q 8.796875 47.40625 8.796875 51.5 
Q 8.796875 55.796875 11.046875 59.25 
Q 13.296875 62.703125 17.25 64.640625 
Q 21.203125 66.59375 26.09375 66.59375 
Q 30.90625 66.59375 34.90625 64.640625 
Q 38.90625 62.703125 41.203125 59.34375 
Q 43.5 56 43.5 51.90625 
Q 43.5 47.59375 41.703125 44.75 
Q 39.90625 41.90625 36.5 39.59375 
Q 41.90625 37.296875 45.703125 32.4375 
Q 49.5 27.59375 49.5 20.796875 
Q 49.5 15.09375 46.390625 10.140625 
Q 43.296875 5.203125 37.890625 2.203125 
Q 32.5 -0.796875 26 -0.796875 
Q 19.5 -0.796875 14.203125 2.140625 
Q 8.90625 5.09375 5.84375 10.09375 
Q 2.796875 15.09375 2.796875 20.796875 
z
M 18.203125 50.40625 
Q 18.203125 47.296875 20.640625 45.09375 
Q 23.09375 42.90625 26.296875 42.90625 
Q 29.5 42.90625 31.84375 45.09375 
Q 34.203125 47.296875 34.203125 50.40625 
Q 34.203125 53.90625 31.890625 56.203125 
Q 29.59375 58.5 26.296875 58.5 
Q 23 58.5 20.59375 56.203125 
Q 18.203125 53.90625 18.203125 50.40625 
z
M 12.703125 21.203125 
Q 12.703125 17.5 14.5 14.34375 
Q 16.296875 11.203125 19.34375 9.296875 
Q 22.40625 7.40625 26 7.40625 
Q 29.703125 7.40625 32.84375 9.296875 
Q 36 11.203125 37.890625 14.34375 
Q 39.796875 17.5 39.796875 21.203125 
Q 39.796875 24.90625 38 28 
Q 36.203125 31.09375 33.046875 32.9375 
Q 29.90625 34.796875 26.203125 34.796875 
Q 22.59375 34.796875 19.5 33 
Q 16.40625 31.203125 14.546875 28.046875 
Q 12.703125 24.90625 12.703125 21.203125 
z
" id="JosefinSans-Regular-56"/>
      </defs>
      <g style="fill:#262626;" transform="translate(662.0919 263.601947)scale(0.14 -0.14)">
       <use xlink:href="#JosefinSans-Regular-48"/>
       <use x="62.399994" xlink:href="#JosefinSans-Regular-46"/>
       <use x="79.299988" xlink:href="#JosefinSans-Regular-56"/>
      </g>
     </g>
    </g>
    <g id="xtick_6">
     <g id="line2d_11">
      <path clip-path="url(#p1b6cc43f6a)" d="M 823.060719 249.251947 
L 823.060719 21.40024 
" style="fill:none;stroke:#cccccc;stroke-dasharray:0.8,1.32;stroke-dashoffset:0;stroke-width:0.8;"/>
     </g>
     <g id="line2d_12"/>
     <g id="text_6">
      <!-- 1.0 -->
      <defs>
       <path d="M 22.59375 65.796875 
L 22.59375 0 
L 12.796875 0 
L 12.796875 56.5 
L 5.296875 56.5 
L 5.296875 65.796875 
z
" id="JosefinSans-Regular-49"/>
      </defs>
      <g style="fill:#262626;" transform="translate(815.198844 263.601947)scale(0.14 -0.14)">
       <use xlink:href="#JosefinSans-Regular-49"/>
       <use x="32.999985" xlink:href="#JosefinSans-Regular-46"/>
       <use x="49.899979" xlink:href="#JosefinSans-Regular-48"/>
      </g>
     </g>
    </g>
    <g id="text_7">
     <!-- Proportion water -->
     <defs>
      <path d="M 29.796875 72.296875 
Q 41.59375 72.296875 48.25 66.390625 
Q 54.90625 60.5 54.90625 49.90625 
Q 54.90625 43.796875 52.453125 38.5 
Q 50 33.203125 44.546875 29.890625 
Q 39.09375 26.59375 30.796875 26.59375 
L 20.09375 26.59375 
L 20.09375 0 
L 10.40625 0 
L 10.40625 72.296875 
L 29.796875 72.296875 
z
M 30.796875 36 
Q 36 36 39.25 38.203125 
Q 42.5 40.40625 43.890625 43.546875 
Q 45.296875 46.703125 45.296875 49.703125 
Q 45.296875 54.90625 41.890625 58.953125 
Q 38.5 63 31.296875 63 
L 20.09375 63 
L 20.09375 36 
L 30.796875 36 
z
" id="JosefinSans-Regular-80"/>
      <path d="M 17.09375 31.59375 
Q 18.703125 35 21.640625 37.59375 
Q 24.59375 40.203125 27.890625 41.59375 
Q 31.203125 43 33.703125 43.09375 
L 33.296875 33.796875 
Q 28.796875 34 25.140625 32 
Q 21.5 30 19.453125 26.453125 
Q 17.40625 22.90625 17.40625 18.90625 
L 17.40625 0 
L 8.09375 0 
L 8.09375 41.40625 
L 16.40625 41.40625 
L 17.09375 31.59375 
z
" id="JosefinSans-Regular-114"/>
      <path d="M 4.5 21.09375 
Q 4.5 27.203125 7.453125 32.25 
Q 10.40625 37.296875 15.65625 40.1875 
Q 20.90625 43.09375 27.5 43.09375 
Q 34.09375 43.09375 39.25 40.1875 
Q 44.40625 37.296875 47.25 32.296875 
Q 50.09375 27.296875 50.09375 21.09375 
Q 50.09375 14.90625 47.25 9.84375 
Q 44.40625 4.796875 39.203125 1.890625 
Q 34 -1 27.296875 -1 
Q 20.796875 -1 15.59375 1.75 
Q 10.40625 4.5 7.453125 9.5 
Q 4.5 14.5 4.5 21.09375 
z
M 13.90625 21 
Q 13.90625 17.09375 15.65625 13.796875 
Q 17.40625 10.5 20.453125 8.59375 
Q 23.5 6.703125 27.203125 6.703125 
Q 33 6.703125 36.796875 10.796875 
Q 40.59375 14.90625 40.59375 21 
Q 40.59375 27.09375 36.796875 31.25 
Q 33 35.40625 27.203125 35.40625 
Q 23.40625 35.40625 20.40625 33.453125 
Q 17.40625 31.5 15.65625 28.203125 
Q 13.90625 24.90625 13.90625 21 
z
" id="JosefinSans-Regular-111"/>
      <path d="M 34.296875 43.09375 
Q 40.09375 43.09375 44.796875 40.296875 
Q 49.5 37.5 52.203125 32.453125 
Q 54.90625 27.40625 54.90625 20.796875 
Q 54.90625 14.296875 52 9.34375 
Q 49.09375 4.40625 44 1.703125 
Q 38.90625 -1 32.59375 -1 
Q 28.09375 -1 24 0.953125 
Q 19.90625 2.90625 17.40625 6.203125 
L 17.40625 -19.90625 
L 8.09375 -19.90625 
L 8.09375 42.09375 
L 16.203125 42.09375 
L 17 35.09375 
Q 20.203125 38.703125 24.640625 40.890625 
Q 29.09375 43.09375 34.296875 43.09375 
z
M 30.796875 6.5 
Q 34.703125 6.5 38.046875 8.34375 
Q 41.40625 10.203125 43.40625 13.453125 
Q 45.40625 16.703125 45.40625 20.703125 
Q 45.40625 24.796875 43.546875 28.09375 
Q 41.703125 31.40625 38.5 33.296875 
Q 35.296875 35.203125 31.40625 35.203125 
Q 26.09375 35.203125 22.34375 32.25 
Q 18.59375 29.296875 17.40625 24.296875 
L 17.40625 17.40625 
Q 18.203125 12.59375 21.953125 9.546875 
Q 25.703125 6.5 30.796875 6.5 
z
" id="JosefinSans-Regular-112"/>
      <path d="M 21.5 59.59375 
L 21.5 41.296875 
L 32.796875 41.296875 
L 32.796875 33.90625 
L 21.5 33.90625 
L 21.5 0 
L 12.09375 0 
L 12.09375 33.90625 
L 4.5 33.90625 
L 4.5 41.296875 
L 12.09375 41.296875 
L 12.09375 59.59375 
z
" id="JosefinSans-Regular-116"/>
      <path d="M 17.40625 41.40625 
L 17.40625 0 
L 8.09375 0 
L 8.09375 41.40625 
z
M 7.40625 56.296875 
Q 7.40625 58.5 9.09375 60 
Q 10.796875 61.5 13 61.5 
Q 15.203125 61.5 16.84375 60 
Q 18.5 58.5 18.5 56.296875 
Q 18.5 54.109375 16.84375 52.609375 
Q 15.203125 51.109375 13 51.109375 
Q 10.796875 51.109375 9.09375 52.609375 
Q 7.40625 54.109375 7.40625 56.296875 
z
" id="JosefinSans-Regular-105"/>
      <path d="M 33.796875 43 
Q 39.59375 43 43.390625 39.546875 
Q 47.203125 36.09375 47.296875 30.59375 
L 47.296875 0 
L 37.90625 0 
L 37.90625 27.40625 
Q 37.703125 30.90625 35.796875 32.90625 
Q 33.90625 34.90625 30.09375 35 
Q 24.59375 35 21 30.59375 
Q 17.40625 26.203125 17.40625 19.40625 
L 17.40625 0 
L 8.09375 0 
L 8.09375 41.40625 
L 16.5 41.40625 
L 17.09375 33.40625 
Q 19.296875 37.90625 23.6875 40.453125 
Q 28.09375 43 33.796875 43 
z
" id="JosefinSans-Regular-110"/>
      <path id="JosefinSans-Regular-32"/>
      <path d="M 65.59375 41.40625 
L 46.5 -2.5 
L 33.203125 25.90625 
L 21.09375 -2.5 
L 1.90625 41.40625 
L 11.09375 41.40625 
L 22.203125 16.296875 
L 29.90625 34.296875 
L 26.59375 41.40625 
L 34.703125 41.40625 
L 45.90625 15.703125 
L 56.40625 41.40625 
z
" id="JosefinSans-Regular-119"/>
      <path d="M 50.59375 41.40625 
L 50.59375 0 
L 41.296875 0 
L 41.296875 6.796875 
Q 39.09375 3.90625 34.890625 1.453125 
Q 30.703125 -1 25.40625 -1 
Q 19.5 -1 14.75 1.546875 
Q 10 4.09375 7.25 9 
Q 4.5 13.90625 4.5 20.703125 
Q 4.5 27.5 7.34375 32.546875 
Q 10.203125 37.59375 15.046875 40.34375 
Q 19.90625 43.09375 25.796875 43.09375 
Q 31.09375 43.09375 35 40.796875 
Q 38.90625 38.5 41.296875 34.796875 
L 42 41.40625 
z
M 27.90625 6.703125 
Q 33 6.703125 36.640625 9.546875 
Q 40.296875 12.40625 41.296875 17.296875 
L 41.296875 25.5 
Q 40.09375 29.90625 36.296875 32.65625 
Q 32.5 35.40625 27.59375 35.40625 
Q 23.90625 35.40625 20.75 33.59375 
Q 17.59375 31.796875 15.75 28.546875 
Q 13.90625 25.296875 13.90625 21.203125 
Q 13.90625 17.203125 15.796875 13.890625 
Q 17.703125 10.59375 20.890625 8.640625 
Q 24.09375 6.703125 27.90625 6.703125 
z
" id="JosefinSans-Regular-97"/>
      <path d="M 27.5 7 
Q 32.703125 7 37.59375 10.59375 
L 41.90625 3.703125 
Q 38.59375 1.5 34.75 0.25 
Q 30.90625 -1 27.296875 -1 
Q 20.40625 -1 15.25 1.84375 
Q 10.09375 4.703125 7.296875 9.703125 
Q 4.5 14.703125 4.5 21 
Q 4.5 27.09375 7.546875 32.140625 
Q 10.59375 37.203125 15.890625 40.140625 
Q 21.203125 43.09375 27.5 43.09375 
Q 35.59375 43.09375 41.046875 38.34375 
Q 46.5 33.59375 48.5 25.09375 
L 15.703125 13.59375 
Q 17.5 10.5 20.546875 8.75 
Q 23.59375 7 27.5 7 
z
M 26.796875 35.703125 
Q 21.09375 35.703125 17.390625 31.703125 
Q 13.703125 27.703125 13.703125 21.5 
Q 13.703125 20 13.796875 19.203125 
L 37.90625 28.09375 
Q 36.40625 31.5 33.65625 33.59375 
Q 30.90625 35.703125 26.796875 35.703125 
z
" id="JosefinSans-Regular-101"/>
     </defs>
     <g style="fill:#262626;" transform="translate(386.844922 282.013823)scale(0.15 -0.15)">
      <use xlink:href="#JosefinSans-Regular-80"/>
      <use x="59.499985" xlink:href="#JosefinSans-Regular-114"/>
      <use x="97.099976" xlink:href="#JosefinSans-Regular-111"/>
      <use x="151.59996" xlink:href="#JosefinSans-Regular-112"/>
      <use x="210.899948" xlink:href="#JosefinSans-Regular-111"/>
      <use x="265.399933" xlink:href="#JosefinSans-Regular-114"/>
      <use x="302.999924" xlink:href="#JosefinSans-Regular-116"/>
      <use x="338.999908" xlink:href="#JosefinSans-Regular-105"/>
      <use x="364.499893" xlink:href="#JosefinSans-Regular-111"/>
      <use x="418.999878" xlink:href="#JosefinSans-Regular-110"/>
      <use x="474.299866" xlink:href="#JosefinSans-Regular-32"/>
      <use x="505.899857" xlink:href="#JosefinSans-Regular-119"/>
      <use x="573.399841" xlink:href="#JosefinSans-Regular-97"/>
      <use x="632.099838" xlink:href="#JosefinSans-Regular-116"/>
      <use x="668.099823" xlink:href="#JosefinSans-Regular-101"/>
      <use x="720.099808" xlink:href="#JosefinSans-Regular-114"/>
     </g>
    </g>
   </g>
   <g id="matplotlib.axis_2">
    <g id="ytick_1">
     <g id="line2d_13">
      <path clip-path="url(#p1b6cc43f6a)" d="M 26.340865 238.895052 
L 860.99976 238.895052 
" style="fill:none;stroke:#cccccc;stroke-dasharray:0.8,1.32;stroke-dashoffset:0;stroke-width:0.8;"/>
     </g>
     <g id="line2d_14"/>
     <g id="text_8">
      <!-- 0.0 -->
      <g style="fill:#262626;" transform="translate(3.00024 244.320052)scale(0.14 -0.14)">
       <use xlink:href="#JosefinSans-Regular-48"/>
       <use x="62.399994" xlink:href="#JosefinSans-Regular-46"/>
       <use x="79.299988" xlink:href="#JosefinSans-Regular-48"/>
      </g>
     </g>
    </g>
    <g id="ytick_2">
     <g id="line2d_15">
      <path clip-path="url(#p1b6cc43f6a)" d="M 26.340865 200.975636 
L 860.99976 200.975636 
" style="fill:none;stroke:#cccccc;stroke-dasharray:0.8,1.32;stroke-dashoffset:0;stroke-width:0.8;"/>
     </g>
     <g id="line2d_16"/>
     <g id="text_9">
      <!-- 0.5 -->
      <defs>
       <path d="M 25.703125 43 
Q 32.203125 43 36.84375 40.09375 
Q 41.5 37.203125 43.890625 32.34375 
Q 46.296875 27.5 46.296875 21.5 
Q 46.296875 15.296875 43.4375 10.1875 
Q 40.59375 5.09375 35.640625 2.140625 
Q 30.703125 -0.796875 24.5 -0.796875 
Q 19.40625 -0.796875 14.5 1.09375 
Q 9.59375 3 6.5 6 
L 11.703125 13.59375 
Q 13.703125 11.296875 17 9.890625 
Q 20.296875 8.5 23.703125 8.5 
Q 29.203125 8.5 32.75 12.046875 
Q 36.296875 15.59375 36.296875 21.203125 
Q 36.296875 27.296875 32.9375 31.046875 
Q 29.59375 34.796875 23.40625 34.796875 
Q 20.09375 34.796875 17.046875 33.84375 
Q 14 32.90625 10.703125 31 
L 10.59375 31 
L 10.59375 65.796875 
L 42.09375 65.796875 
L 42.09375 56.5 
L 19 56.5 
L 19 42.203125 
Q 22.203125 43 25.703125 43 
z
" id="JosefinSans-Regular-53"/>
      </defs>
      <g style="fill:#262626;" transform="translate(4.415553 206.400636)scale(0.14 -0.14)">
       <use xlink:href="#JosefinSans-Regular-48"/>
       <use x="62.399994" xlink:href="#JosefinSans-Regular-46"/>
       <use x="79.299988" xlink:href="#JosefinSans-Regular-53"/>
      </g>
     </g>
    </g>
    <g id="ytick_3">
     <g id="line2d_17">
      <path clip-path="url(#p1b6cc43f6a)" d="M 26.340865 163.05622 
L 860.99976 163.05622 
" style="fill:none;stroke:#cccccc;stroke-dasharray:0.8,1.32;stroke-dashoffset:0;stroke-width:0.8;"/>
     </g>
     <g id="line2d_18"/>
     <g id="text_10">
      <!-- 1.0 -->
      <g style="fill:#262626;" transform="translate(7.117115 168.48122)scale(0.14 -0.14)">
       <use xlink:href="#JosefinSans-Regular-49"/>
       <use x="32.999985" xlink:href="#JosefinSans-Regular-46"/>
       <use x="49.899979" xlink:href="#JosefinSans-Regular-48"/>
      </g>
     </g>
    </g>
    <g id="ytick_4">
     <g id="line2d_19">
      <path clip-path="url(#p1b6cc43f6a)" d="M 26.340865 125.136804 
L 860.99976 125.136804 
" style="fill:none;stroke:#cccccc;stroke-dasharray:0.8,1.32;stroke-dashoffset:0;stroke-width:0.8;"/>
     </g>
     <g id="line2d_20"/>
     <g id="text_11">
      <!-- 1.5 -->
      <g style="fill:#262626;" transform="translate(8.532427 130.561804)scale(0.14 -0.14)">
       <use xlink:href="#JosefinSans-Regular-49"/>
       <use x="32.999985" xlink:href="#JosefinSans-Regular-46"/>
       <use x="49.899979" xlink:href="#JosefinSans-Regular-53"/>
      </g>
     </g>
    </g>
    <g id="ytick_5">
     <g id="line2d_21">
      <path clip-path="url(#p1b6cc43f6a)" d="M 26.340865 87.217388 
L 860.99976 87.217388 
" style="fill:none;stroke:#cccccc;stroke-dasharray:0.8,1.32;stroke-dashoffset:0;stroke-width:0.8;"/>
     </g>
     <g id="line2d_22"/>
     <g id="text_12">
      <!-- 2.0 -->
      <g style="fill:#262626;" transform="translate(4.107115 92.642388)scale(0.14 -0.14)">
       <use xlink:href="#JosefinSans-Regular-50"/>
       <use x="54.499985" xlink:href="#JosefinSans-Regular-46"/>
       <use x="71.399979" xlink:href="#JosefinSans-Regular-48"/>
      </g>
     </g>
    </g>
    <g id="ytick_6">
     <g id="line2d_23">
      <path clip-path="url(#p1b6cc43f6a)" d="M 26.340865 49.297972 
L 860.99976 49.297972 
" style="fill:none;stroke:#cccccc;stroke-dasharray:0.8,1.32;stroke-dashoffset:0;stroke-width:0.8;"/>
     </g>
     <g id="line2d_24"/>
     <g id="text_13">
      <!-- 2.5 -->
      <g style="fill:#262626;" transform="translate(5.522427 54.722972)scale(0.14 -0.14)">
       <use xlink:href="#JosefinSans-Regular-50"/>
       <use x="54.499985" xlink:href="#JosefinSans-Regular-46"/>
       <use x="71.399979" xlink:href="#JosefinSans-Regular-53"/>
      </g>
     </g>
    </g>
   </g>
   <g id="line2d_25">
    <path clip-path="url(#p1b6cc43f6a)" d="M 64.279906 238.895052 
L 71.944358 238.895052 
L 79.608811 238.895048 
L 87.273264 238.895007 
L 94.937716 238.894807 
L 102.602169 238.894147 
L 110.266622 238.892435 
L 117.931074 238.888663 
L 125.595527 238.881276 
L 133.25998 238.868035 
L 140.924432 238.84589 
L 148.588885 238.810862 
L 156.253338 238.757932 
L 163.91779 238.680955 
L 171.582243 238.572589 
L 179.246696 238.424248 
L 186.911148 238.226079 
L 194.575601 237.966963 
L 202.240054 237.634548 
L 209.904506 237.215298 
L 217.568959 236.694582 
L 225.233412 236.056781 
L 232.897864 235.285424 
L 240.562317 234.363343 
L 248.22677 233.272863 
L 255.891222 231.996 
L 263.555675 230.514689 
L 271.220128 228.811019 
L 278.88458 226.867495 
L 286.549033 224.6673 
L 294.213486 222.194571 
L 301.877938 219.434683 
L 309.542391 216.37453 
L 317.206844 213.002812 
L 324.871296 209.310313 
L 332.535749 205.290171 
L 340.200202 200.938144 
L 347.864654 196.252854 
L 355.529107 191.236016 
L 363.19356 185.892648 
L 370.858012 180.231257 
L 378.522465 174.26399 
L 386.186918 168.006765 
L 393.85137 161.479363 
L 401.515823 154.705481 
L 409.180276 147.712754 
L 416.844728 140.532731 
L 424.509181 133.200805 
L 432.173634 125.756107 
L 439.838086 118.241347 
L 447.502539 110.702605 
L 455.166991 103.189087 
L 462.831444 95.752813 
L 470.495897 88.448277 
L 478.160349 81.332041 
L 485.824802 74.462296 
L 493.489255 67.898364 
L 501.153707 61.700169 
L 508.81816 55.927658 
L 516.482613 50.640185 
L 524.147065 45.895859 
L 531.811518 41.750868 
L 539.475971 38.258766 
L 547.140423 35.46975 
L 554.804876 33.429913 
L 562.469329 32.180495 
L 570.133781 31.757136 
L 577.798234 32.189129 
L 585.462687 33.498699 
L 593.127139 35.700304 
L 600.791592 38.799975 
L 608.456045 42.794708 
L 616.120497 47.671914 
L 623.78495 53.40895 
L 631.449403 59.972735 
L 639.113855 67.319472 
L 646.778308 75.394497 
L 654.442761 84.132257 
L 662.107213 93.456457 
L 669.771666 103.280371 
L 677.436119 113.507364 
L 685.100571 124.031617 
L 692.765024 134.73911 
L 700.429477 145.508859 
L 708.093929 156.214443 
L 715.758382 166.725862 
L 723.422835 176.911718 
L 731.087287 186.641788 
L 738.75174 195.789991 
L 746.416193 204.237793 
L 754.080645 211.878075 
L 761.745098 218.619509 
L 769.409551 224.39147 
L 777.074003 229.149518 
L 784.738456 232.881496 
L 792.402909 235.614282 
L 800.067361 237.421229 
L 807.731814 238.43035 
L 815.396267 238.833277 
L 823.060719 238.895052 
" style="fill:none;stroke:#cfcbbf;stroke-linecap:round;stroke-width:1.5;"/>
   </g>
   <g id="line2d_26">
    <path clip-path="url(#p1b6cc43f6a)" d="M 64.279906 238.87129 
L 71.944358 238.863904 
L 79.608811 238.854391 
L 87.273264 238.842191 
L 94.937716 238.826614 
L 102.602169 238.806812 
L 110.266622 238.781749 
L 117.931074 238.750168 
L 125.595527 238.710549 
L 133.25998 238.661064 
L 140.924432 238.599531 
L 148.588885 238.523355 
L 156.253338 238.429471 
L 163.91779 238.314279 
L 171.582243 238.173574 
L 179.246696 238.002476 
L 186.911148 237.795356 
L 194.575601 237.545761 
L 202.240054 237.246343 
L 209.904506 236.88879 
L 217.568959 236.463761 
L 225.233412 235.960841 
L 232.897864 235.368492 
L 240.562317 234.674039 
L 248.22677 233.863669 
L 255.891222 232.922451 
L 263.555675 231.834397 
L 271.220128 230.582547 
L 278.88458 229.149102 
L 286.549033 227.515586 
L 294.213486 225.663067 
L 301.877938 223.572416 
L 309.542391 221.224612 
L 317.206844 218.6011 
L 324.871296 215.684188 
L 332.535749 212.457492 
L 340.200202 208.906408 
L 347.864654 205.018618 
L 355.529107 200.784614 
L 363.19356 196.198227 
L 370.858012 191.257151 
L 378.522465 185.963448 
L 386.186918 180.324019 
L 393.85137 174.351017 
L 401.515823 168.0622 
L 409.180276 161.481188 
L 416.844728 154.637633 
L 424.509181 147.56726 
L 432.173634 140.311797 
L 439.838086 132.918754 
L 447.502539 125.441072 
L 455.166991 117.936629 
L 462.831444 110.467592 
L 470.495897 103.09965 
L 478.160349 95.901113 
L 485.824802 88.941903 
L 493.489255 82.292459 
L 501.153707 76.022576 
L 508.81816 70.200195 
L 516.482613 64.89019 
L 524.147065 60.153174 
L 531.811518 56.044344 
L 539.475971 52.612418 
L 547.140423 49.898671 
L 554.804876 47.936109 
L 562.469329 46.748803 
L 570.133781 46.351396 
L 577.798234 46.748803 
L 585.462687 47.936109 
L 593.127139 49.89867 
L 600.791592 52.612418 
L 608.456045 56.044344 
L 616.120497 60.153173 
L 623.78495 64.89019 
L 631.449403 70.200194 
L 639.113855 76.022576 
L 646.778308 82.292459 
L 654.442761 88.941902 
L 662.107213 95.901112 
L 669.771666 103.099649 
L 677.436119 110.467591 
L 685.100571 117.936628 
L 692.765024 125.441072 
L 700.429477 132.918753 
L 708.093929 140.311796 
L 715.758382 147.56726 
L 723.422835 154.637632 
L 731.087287 161.481188 
L 738.75174 168.062199 
L 746.416193 174.351017 
L 754.080645 180.324018 
L 761.745098 185.963447 
L 769.409551 191.25715 
L 777.074003 196.198227 
L 784.738456 200.784614 
L 792.402909 205.018618 
L 800.067361 208.906408 
L 807.731814 212.457492 
L 815.396267 215.684188 
L 823.060719 218.6011 
" style="fill:none;stroke:#81aca4;stroke-linecap:round;stroke-width:1.5;"/>
   </g>
   <g id="text_14">
    <!-- n = 9 -->
    <defs>
     <path d="M 61.40625 39.203125 
L 61.40625 31 
L 10.203125 31 
L 10.203125 39.203125 
z
M 61.40625 19.59375 
L 61.40625 11.40625 
L 10.203125 11.40625 
L 10.203125 19.59375 
z
" id="JosefinSans-Regular-61"/>
     <path d="M 26.796875 65.5 
Q 33.40625 65.5 38.796875 62.546875 
Q 44.203125 59.59375 47.296875 54.34375 
Q 50.40625 49.09375 50.40625 42.40625 
Q 50.40625 32.703125 45.75 24.796875 
Q 41.09375 16.90625 34.296875 11.046875 
Q 27.5 5.203125 17.59375 -1.296875 
L 11.09375 5.90625 
Q 19.796875 10.296875 26.1875 15.34375 
Q 32.59375 20.40625 35.90625 25.40625 
Q 31.203125 21.59375 23.59375 21.59375 
Q 18.5 21.59375 13.953125 24.34375 
Q 9.40625 27.09375 6.59375 31.84375 
Q 3.796875 36.59375 3.796875 42.5 
Q 3.796875 49.296875 7 54.546875 
Q 10.203125 59.796875 15.453125 62.640625 
Q 20.703125 65.5 26.796875 65.5 
z
M 13.796875 43.09375 
Q 13.796875 37.203125 17.640625 33.5 
Q 21.5 29.796875 27.203125 29.796875 
Q 33 29.796875 36.75 33.25 
Q 40.5 36.703125 40.5 42 
L 40.5 43.90625 
Q 40.296875 49.203125 36.5 52.953125 
Q 32.703125 56.703125 27.203125 56.703125 
Q 21.5 56.703125 17.640625 52.890625 
Q 13.796875 49.09375 13.796875 43.09375 
z
" id="JosefinSans-Regular-57"/>
    </defs>
    <g style="fill:#262626;" transform="translate(424.151563 15.40024)scale(0.16 -0.16)">
     <use xlink:href="#JosefinSans-Regular-110"/>
     <use x="55.299988" xlink:href="#JosefinSans-Regular-32"/>
     <use x="86.899979" xlink:href="#JosefinSans-Regular-61"/>
     <use x="158.59996" xlink:href="#JosefinSans-Regular-32"/>
     <use x="190.199951" xlink:href="#JosefinSans-Regular-57"/>
    </g>
   </g>
   <g id="legend_1">
    <g id="line2d_27">
     <path d="M 38.940865 39.95024 
L 66.940865 39.95024 
" style="fill:none;stroke:#cfcbbf;stroke-linecap:round;stroke-width:1.5;"/>
    </g>
    <g id="line2d_28"/>
    <g id="text_15">
     <!-- True posterior -->
     <defs>
      <path d="M 53.09375 72.296875 
L 53.09375 63 
L 33.703125 63 
L 33.703125 0 
L 24 0 
L 24 63 
L 5.09375 63 
L 5.09375 72.296875 
z
" id="JosefinSans-Regular-84"/>
      <path d="M 46.59375 41.40625 
L 46.59375 0 
L 38.203125 0 
L 37.59375 7.90625 
Q 35.5 3.703125 31.09375 1.046875 
Q 26.703125 -1.59375 21.296875 -1.59375 
Q 15.59375 -1.59375 11.9375 1.84375 
Q 8.296875 5.296875 8.09375 10.796875 
L 8.09375 41.40625 
L 17.40625 41.40625 
L 17.40625 14.09375 
Q 17.59375 10.59375 19.4375 8.546875 
Q 21.296875 6.5 25 6.40625 
Q 28.40625 6.40625 31.203125 8.453125 
Q 34 10.5 35.640625 14.09375 
Q 37.296875 17.703125 37.296875 22.09375 
L 37.296875 41.40625 
z
" id="JosefinSans-Regular-117"/>
      <path d="M 19.796875 -0.90625 
Q 15.203125 -0.90625 11.046875 0.6875 
Q 6.90625 2.296875 4.296875 5.40625 
L 8.296875 10.796875 
Q 10.796875 8.40625 13.546875 7.09375 
Q 16.296875 5.796875 19 5.796875 
Q 22.296875 5.796875 24.390625 7.09375 
Q 26.5 8.40625 26.5 11.09375 
Q 26.5 13.203125 25.203125 14.5 
Q 23.90625 15.796875 22.25 16.390625 
Q 20.59375 17 16.703125 18.203125 
Q 6.09375 21.59375 6.09375 30.296875 
Q 6.09375 35.5 9.9375 39.203125 
Q 13.796875 42.90625 20.703125 42.90625 
Q 25.09375 42.90625 28.5 41.796875 
Q 31.90625 40.703125 34.796875 38.296875 
L 31.09375 32.59375 
Q 29.5 34.296875 27.046875 35.296875 
Q 24.59375 36.296875 22.40625 36.40625 
Q 19.59375 36.40625 17.59375 35.046875 
Q 15.59375 33.703125 15.59375 31.40625 
Q 15.59375 29.5 16.890625 28.25 
Q 18.203125 27 19.59375 26.453125 
Q 21 25.90625 25.09375 24.59375 
Q 30.203125 22.90625 33.046875 20.203125 
Q 35.90625 17.5 35.90625 12.90625 
Q 35.90625 6.90625 31.703125 3 
Q 27.5 -0.90625 19.796875 -0.90625 
z
" id="JosefinSans-Regular-115"/>
     </defs>
     <g style="fill:#262626;" transform="translate(78.140865 44.85024)scale(0.14 -0.14)">
      <use xlink:href="#JosefinSans-Regular-84"/>
      <use x="58.199997" xlink:href="#JosefinSans-Regular-114"/>
      <use x="95.799988" xlink:href="#JosefinSans-Regular-117"/>
      <use x="150.499985" xlink:href="#JosefinSans-Regular-101"/>
      <use x="202.499969" xlink:href="#JosefinSans-Regular-32"/>
      <use x="234.09996" xlink:href="#JosefinSans-Regular-112"/>
      <use x="293.399948" xlink:href="#JosefinSans-Regular-111"/>
      <use x="347.899933" xlink:href="#JosefinSans-Regular-115"/>
      <use x="388.699921" xlink:href="#JosefinSans-Regular-116"/>
      <use x="424.699905" xlink:href="#JosefinSans-Regular-101"/>
      <use x="476.69989" xlink:href="#JosefinSans-Regular-114"/>
      <use x="514.299881" xlink:href="#JosefinSans-Regular-105"/>
      <use x="539.799866" xlink:href="#JosefinSans-Regular-111"/>
      <use x="594.29985" xlink:href="#JosefinSans-Regular-114"/>
     </g>
    </g>
    <g id="line2d_29">
     <path d="M 38.940865 60.587115 
L 66.940865 60.587115 
" style="fill:none;stroke:#81aca4;stroke-linecap:round;stroke-width:1.5;"/>
    </g>
    <g id="line2d_30"/>
    <g id="text_16">
     <!-- Quadratic approximation -->
     <defs>
      <path d="M 82.90625 0 
L 50.40625 0 
Q 46.59375 -0.796875 42.796875 -0.796875 
Q 32.796875 -0.796875 24.296875 4.09375 
Q 15.796875 9 10.84375 17.453125 
Q 5.90625 25.90625 5.90625 36.09375 
Q 5.90625 46 10.90625 54.5 
Q 15.90625 63 24.34375 68.046875 
Q 32.796875 73.09375 42.796875 73.09375 
Q 52.703125 73.09375 61.203125 68.046875 
Q 69.703125 63 74.75 54.5 
Q 79.796875 46 79.796875 36.09375 
Q 79.796875 28.40625 76.796875 21.5 
Q 73.796875 14.59375 68.40625 9.5 
L 82.90625 9.5 
z
M 15.90625 36 
Q 15.90625 28.59375 19.5 22.296875 
Q 23.09375 16 29.34375 12.296875 
Q 35.59375 8.59375 43 8.59375 
Q 50.40625 8.59375 56.546875 12.25 
Q 62.703125 15.90625 66.25 22.25 
Q 69.796875 28.59375 69.796875 36.09375 
Q 69.796875 43.5 66.1875 49.796875 
Q 62.59375 56.09375 56.390625 59.796875 
Q 50.203125 63.5 42.796875 63.5 
Q 35.40625 63.5 29.203125 59.75 
Q 23 56 19.453125 49.703125 
Q 15.90625 43.40625 15.90625 36 
z
" id="JosefinSans-Regular-81"/>
      <path d="M 51.296875 77.5 
L 51.296875 0 
L 41.90625 0 
L 41.90625 6.5 
Q 38.90625 3 34.546875 1 
Q 30.203125 -1 25 -1 
Q 19.203125 -1 14.5 1.796875 
Q 9.796875 4.59375 7.140625 9.640625 
Q 4.5 14.703125 4.5 21.296875 
Q 4.5 28 7.296875 32.953125 
Q 10.09375 37.90625 15 40.5 
Q 19.90625 43.09375 26.09375 43.09375 
Q 30.796875 43.09375 35.140625 41.140625 
Q 39.5 39.203125 42 35.796875 
L 42 77.5 
z
M 27.90625 7 
Q 33.296875 7 37.046875 9.890625 
Q 40.796875 12.796875 41.90625 17.703125 
L 41.90625 25.5 
Q 40.703125 30 36.796875 32.84375 
Q 32.90625 35.703125 27.90625 35.703125 
Q 24.09375 35.703125 20.890625 33.84375 
Q 17.703125 32 15.796875 28.75 
Q 13.90625 25.5 13.90625 21.40625 
Q 13.90625 17.40625 15.796875 14.09375 
Q 17.703125 10.796875 20.890625 8.890625 
Q 24.09375 7 27.90625 7 
z
" id="JosefinSans-Regular-100"/>
      <path d="M 41.703125 3.90625 
Q 38.90625 1.59375 35.046875 0.296875 
Q 31.203125 -1 27.203125 -1 
Q 20.5 -1 15.34375 1.703125 
Q 10.203125 4.40625 7.34375 9.34375 
Q 4.5 14.296875 4.5 20.796875 
Q 4.5 27.203125 7.5 32.140625 
Q 10.5 37.09375 15.5 39.796875 
Q 20.5 42.5 26.296875 42.5 
Q 35.796875 42.5 42 37.296875 
L 37.296875 31.203125 
Q 35.296875 32.703125 32.6875 33.75 
Q 30.09375 34.796875 27.09375 34.796875 
Q 23.40625 34.796875 20.34375 32.9375 
Q 17.296875 31.09375 15.546875 27.890625 
Q 13.796875 24.703125 13.796875 20.796875 
Q 13.796875 16.90625 15.640625 13.703125 
Q 17.5 10.5 20.703125 8.59375 
Q 23.90625 6.703125 28 6.703125 
Q 33.09375 6.703125 36.90625 9.703125 
L 41.703125 3.90625 
z
" id="JosefinSans-Regular-99"/>
      <path d="M 33.40625 0 
L 22.296875 14.59375 
L 11.90625 0 
L 2.40625 0 
L 17.59375 20.796875 
L 1.90625 41.40625 
L 13.5 41.40625 
L 24.40625 27 
L 33.703125 41.40625 
L 43.09375 41.40625 
L 28.703125 21.296875 
L 44.703125 0 
z
" id="JosefinSans-Regular-120"/>
      <path d="M 61.203125 43.09375 
Q 67.203125 43.09375 70.75 39.6875 
Q 74.296875 36.296875 74.5 30.703125 
L 74.5 0 
L 65.203125 0 
L 65.203125 27.296875 
Q 64.90625 34.59375 58.59375 35 
Q 55 35 52.140625 32.84375 
Q 49.296875 30.703125 47.6875 27.203125 
Q 46.09375 23.703125 46 19.703125 
L 46 0 
L 36.59375 0 
L 36.59375 27.296875 
Q 36.296875 34.59375 29.796875 35 
Q 26.296875 35 23.4375 32.84375 
Q 20.59375 30.703125 19 27.140625 
Q 17.40625 23.59375 17.40625 19.59375 
L 17.40625 0 
L 8.09375 0 
L 8.09375 41.40625 
L 16.5 41.40625 
L 17.203125 33.59375 
Q 19.59375 38.09375 23.75 40.59375 
Q 27.90625 43.09375 33.203125 43.09375 
Q 38.203125 43.09375 41.59375 40.75 
Q 45 38.40625 46 34.296875 
Q 48.59375 38.40625 52.59375 40.75 
Q 56.59375 43.09375 61.203125 43.09375 
z
" id="JosefinSans-Regular-109"/>
     </defs>
     <g style="fill:#262626;" transform="translate(78.140865 65.487115)scale(0.14 -0.14)">
      <use xlink:href="#JosefinSans-Regular-81"/>
      <use x="88.799988" xlink:href="#JosefinSans-Regular-117"/>
      <use x="143.499985" xlink:href="#JosefinSans-Regular-97"/>
      <use x="202.199982" xlink:href="#JosefinSans-Regular-100"/>
      <use x="261.499969" xlink:href="#JosefinSans-Regular-114"/>
      <use x="299.09996" xlink:href="#JosefinSans-Regular-97"/>
      <use x="357.799957" xlink:href="#JosefinSans-Regular-116"/>
      <use x="393.799942" xlink:href="#JosefinSans-Regular-105"/>
      <use x="419.299927" xlink:href="#JosefinSans-Regular-99"/>
      <use x="464.899918" xlink:href="#JosefinSans-Regular-32"/>
      <use x="496.499908" xlink:href="#JosefinSans-Regular-97"/>
      <use x="555.199905" xlink:href="#JosefinSans-Regular-112"/>
      <use x="614.499893" xlink:href="#JosefinSans-Regular-112"/>
      <use x="673.799881" xlink:href="#JosefinSans-Regular-114"/>
      <use x="711.399872" xlink:href="#JosefinSans-Regular-111"/>
      <use x="765.899857" xlink:href="#JosefinSans-Regular-120"/>
      <use x="812.499847" xlink:href="#JosefinSans-Regular-105"/>
      <use x="837.999832" xlink:href="#JosefinSans-Regular-109"/>
      <use x="920.499817" xlink:href="#JosefinSans-Regular-97"/>
      <use x="979.199814" xlink:href="#JosefinSans-Regular-116"/>
      <use x="1015.199799" xlink:href="#JosefinSans-Regular-105"/>
      <use x="1040.699783" xlink:href="#JosefinSans-Regular-111"/>
      <use x="1095.199768" xlink:href="#JosefinSans-Regular-110"/>
     </g>
    </g>
   </g>
  </g>
 </g>
 <defs>
  <clipPath id="p1b6cc43f6a">
   <rect height="227.851708" width="834.658895" x="26.340865" y="21.40024"/>
  </clipPath>
 </defs>
</svg>
