<?xml version="1.0" encoding="utf-8" standalone="no"?>
<!DOCTYPE svg PUBLIC "-//W3C//DTD SVG 1.1//EN"
  "http://www.w3.org/Graphics/SVG/1.1/DTD/svg11.dtd">
<!-- Created with matplotlib (https://matplotlib.org/) -->
<svg height="288pt" version="1.1" viewBox="0 0 864 288" width="864pt" xmlns="http://www.w3.org/2000/svg" xmlns:xlink="http://www.w3.org/1999/xlink">
 <defs>
  <style type="text/css">
*{stroke-linecap:butt;stroke-linejoin:round;}
  </style>
 </defs>
 <g id="figure_1">
  <g id="patch_1">
   <path d="M 0 288 
L 864 288 
L 864 0 
L 0 0 
z
" style="fill:#ffffff;"/>
  </g>
  <g id="axes_1">
   <g id="patch_2">
    <path d="M 26.38024 268.438198 
L 860.99976 268.438198 
L 860.99976 3.00024 
L 26.38024 3.00024 
z
" style="fill:#ffffff;"/>
   </g>
   <g id="matplotlib.axis_1">
    <g id="xtick_1">
     <g id="line2d_1">
      <path clip-path="url(#pbf4ba69631)" d="M 64.317491 268.438198 
L 64.317491 3.00024 
" style="fill:none;stroke:#cccccc;stroke-dasharray:0.8,1.32;stroke-dashoffset:0;stroke-width:0.8;"/>
     </g>
     <g id="line2d_2"/>
     <g id="text_1">
      <!-- 0.0 -->
      <defs>
       <path d="M 30.796875 -0.59375 
Q 22.203125 -0.59375 16.046875 4 
Q 9.90625 8.59375 6.75 16.1875 
Q 3.59375 23.796875 3.59375 32.59375 
Q 3.59375 41.40625 6.75 48.90625 
Q 9.90625 56.40625 16.046875 60.953125 
Q 22.203125 65.5 30.796875 65.5 
Q 39.40625 65.5 45.59375 60.953125 
Q 51.796875 56.40625 54.9375 48.84375 
Q 58.09375 41.296875 58.09375 32.59375 
Q 58.09375 23.796875 54.9375 16.1875 
Q 51.796875 8.59375 45.59375 4 
Q 39.40625 -0.59375 30.796875 -0.59375 
z
M 30.796875 1.296875 
Q 37.90625 1.203125 43.65625 5 
Q 49.40625 8.796875 52.75 15.890625 
Q 56.09375 23 56.09375 32.5 
Q 56.09375 42 52.75 49.046875 
Q 49.40625 56.09375 43.65625 59.890625 
Q 37.90625 63.703125 30.796875 63.59375 
Q 23.703125 63.703125 18 59.890625 
Q 12.296875 56.09375 8.9375 49.046875 
Q 5.59375 42 5.59375 32.5 
Q 5.59375 23 8.9375 15.890625 
Q 12.296875 8.796875 18 5 
Q 23.703125 1.203125 30.796875 1.296875 
z
" id="JosefinSans-Thin-48"/>
       <path d="M 7.09375 2.203125 
Q 7.09375 3.203125 7.796875 3.84375 
Q 8.5 4.5 9.40625 4.5 
Q 10.296875 4.5 10.9375 3.84375 
Q 11.59375 3.203125 11.59375 2.203125 
Q 11.59375 1.296875 10.9375 0.640625 
Q 10.296875 0 9.40625 0 
Q 8.5 0 7.796875 0.640625 
Q 7.09375 1.296875 7.09375 2.203125 
z
" id="JosefinSans-Thin-46"/>
      </defs>
      <g style="fill:#262626;" transform="translate(54.377491 282.466635)scale(0.14 -0.14)">
       <use xlink:href="#JosefinSans-Thin-48"/>
       <use x="61.699997" xlink:href="#JosefinSans-Thin-46"/>
       <use x="80.299988" xlink:href="#JosefinSans-Thin-48"/>
      </g>
     </g>
    </g>
    <g id="xtick_2">
     <g id="line2d_3">
      <path clip-path="url(#pbf4ba69631)" d="M 216.066495 268.438198 
L 216.066495 3.00024 
" style="fill:none;stroke:#cccccc;stroke-dasharray:0.8,1.32;stroke-dashoffset:0;stroke-width:0.8;"/>
     </g>
     <g id="line2d_4"/>
     <g id="text_2">
      <!-- 0.2 -->
      <defs>
       <path d="M 45.296875 1.90625 
L 45.296875 0 
L 5.296875 0 
Q 16.296875 10.59375 23.046875 17.84375 
Q 29.796875 25.09375 34.296875 32.4375 
Q 38.796875 39.796875 38.796875 46.296875 
Q 38.796875 52.59375 36.34375 56.546875 
Q 33.90625 60.5 30.296875 62.25 
Q 26.703125 64 23 64 
Q 17 64 13.390625 61.296875 
Q 9.796875 58.59375 8.34375 54.6875 
Q 6.90625 50.796875 6.90625 46.90625 
Q 6.90625 39.703125 10.796875 35.5 
L 9.59375 34.40625 
Q 4.90625 39.59375 4.90625 46.796875 
Q 4.90625 55.09375 9.75 60.5 
Q 14.59375 65.90625 23.09375 65.90625 
Q 28.296875 65.90625 32.34375 63.40625 
Q 36.40625 60.90625 38.59375 56.453125 
Q 40.796875 52 40.796875 46.40625 
Q 40.796875 40.296875 37.25 33.84375 
Q 33.703125 27.40625 28.640625 21.59375 
Q 23.59375 15.796875 15.296875 7.5 
L 9.796875 1.90625 
z
" id="JosefinSans-Thin-50"/>
      </defs>
      <g style="fill:#262626;" transform="translate(206.974151 282.466635)scale(0.14 -0.14)">
       <use xlink:href="#JosefinSans-Thin-48"/>
       <use x="61.699997" xlink:href="#JosefinSans-Thin-46"/>
       <use x="80.299988" xlink:href="#JosefinSans-Thin-50"/>
      </g>
     </g>
    </g>
    <g id="xtick_3">
     <g id="line2d_5">
      <path clip-path="url(#pbf4ba69631)" d="M 367.815498 268.438198 
L 367.815498 3.00024 
" style="fill:none;stroke:#cccccc;stroke-dasharray:0.8,1.32;stroke-dashoffset:0;stroke-width:0.8;"/>
     </g>
     <g id="line2d_6"/>
     <g id="text_3">
      <!-- 0.4 -->
      <defs>
       <path d="M 48.796875 19.90625 
L 48.796875 18.09375 
L 39.203125 18.09375 
L 39.203125 0 
L 37.203125 0 
L 37.203125 18.09375 
L 2.296875 18.09375 
L 2.296875 18.203125 
L 39.09375 65.90625 
L 39.203125 65.90625 
L 39.203125 19.90625 
z
M 37.203125 19.90625 
L 37.203125 60.5 
L 5.796875 19.90625 
z
" id="JosefinSans-Thin-52"/>
      </defs>
      <g style="fill:#262626;" transform="translate(358.653154 282.466635)scale(0.14 -0.14)">
       <use xlink:href="#JosefinSans-Thin-48"/>
       <use x="61.699997" xlink:href="#JosefinSans-Thin-46"/>
       <use x="80.299988" xlink:href="#JosefinSans-Thin-52"/>
      </g>
     </g>
    </g>
    <g id="xtick_4">
     <g id="line2d_7">
      <path clip-path="url(#pbf4ba69631)" d="M 519.564502 268.438198 
L 519.564502 3.00024 
" style="fill:none;stroke:#cccccc;stroke-dasharray:0.8,1.32;stroke-dashoffset:0;stroke-width:0.8;"/>
     </g>
     <g id="line2d_8"/>
     <g id="text_4">
      <!-- 0.6 -->
      <defs>
       <path d="M 25.796875 39.703125 
Q 31.296875 39.703125 35.9375 36.953125 
Q 40.59375 34.203125 43.34375 29.546875 
Q 46.09375 24.90625 46.09375 19.40625 
Q 46.09375 13.90625 43.34375 9.25 
Q 40.59375 4.59375 35.84375 1.890625 
Q 31.09375 -0.796875 25.5 -0.796875 
Q 19.90625 -0.796875 15.15625 1.953125 
Q 10.40625 4.703125 7.65625 9.390625 
Q 4.90625 14.09375 4.90625 19.703125 
Q 4.90625 29.09375 9.703125 37.09375 
Q 14.5 45.09375 21.046875 50.9375 
Q 27.59375 56.796875 37.90625 64.40625 
L 39.203125 62.703125 
Q 27.703125 55 20.25 47.34375 
Q 12.796875 39.703125 9.90625 32.703125 
Q 12.796875 36.09375 16.9375 37.890625 
Q 21.09375 39.703125 25.796875 39.703125 
z
M 25.40625 1 
Q 30.5 1 34.796875 3.453125 
Q 39.09375 5.90625 41.59375 10.15625 
Q 44.09375 14.40625 44.09375 19.40625 
Q 44.09375 24.5 41.59375 28.75 
Q 39.09375 33 34.796875 35.453125 
Q 30.5 37.90625 25.40625 37.90625 
Q 20.296875 37.90625 16.046875 35.65625 
Q 11.796875 33.40625 9.296875 29.40625 
Q 6.796875 25.40625 6.796875 20.203125 
L 6.796875 19.40625 
Q 6.796875 14.40625 9.296875 10.203125 
Q 11.796875 6 16.046875 3.5 
Q 20.296875 1 25.40625 1 
z
" id="JosefinSans-Thin-54"/>
      </defs>
      <g style="fill:#262626;" transform="translate(510.303721 282.466635)scale(0.14 -0.14)">
       <use xlink:href="#JosefinSans-Thin-48"/>
       <use x="61.699997" xlink:href="#JosefinSans-Thin-46"/>
       <use x="80.299988" xlink:href="#JosefinSans-Thin-54"/>
      </g>
     </g>
    </g>
    <g id="xtick_5">
     <g id="line2d_9">
      <path clip-path="url(#pbf4ba69631)" d="M 671.313505 268.438198 
L 671.313505 3.00024 
" style="fill:none;stroke:#cccccc;stroke-dasharray:0.8,1.32;stroke-dashoffset:0;stroke-width:0.8;"/>
     </g>
     <g id="line2d_10"/>
     <g id="text_5">
      <!-- 0.8 -->
      <defs>
       <path d="M 4.90625 19.59375 
Q 4.90625 26.5 9.09375 31.84375 
Q 13.296875 37.203125 19.796875 39 
Q 15.59375 40.40625 13 43.75 
Q 10.40625 47.09375 10.40625 51.203125 
Q 10.40625 57.59375 14.40625 61.75 
Q 18.40625 65.90625 25 65.90625 
Q 31.59375 65.90625 35.59375 61.703125 
Q 39.59375 57.5 39.59375 51.09375 
Q 39.59375 47 37.09375 43.703125 
Q 34.59375 40.40625 30.59375 39 
Q 37.296875 37.296875 41.640625 31.9375 
Q 46 26.59375 46 19.59375 
Q 46 14.09375 43.203125 9.390625 
Q 40.40625 4.703125 35.65625 1.953125 
Q 30.90625 -0.796875 25.296875 -0.796875 
Q 19.703125 -0.796875 15.046875 1.953125 
Q 10.40625 4.703125 7.65625 9.390625 
Q 4.90625 14.09375 4.90625 19.59375 
z
M 12.296875 51.09375 
Q 12.296875 46.203125 16.046875 42.953125 
Q 19.796875 39.703125 25.203125 39.703125 
Q 30.5 39.703125 34.046875 42.953125 
Q 37.59375 46.203125 37.59375 51.09375 
Q 37.59375 56.90625 34.09375 60.5 
Q 30.59375 64.09375 25.203125 64.09375 
Q 19.703125 64.09375 16 60.5 
Q 12.296875 56.90625 12.296875 51.09375 
z
M 6.796875 19.59375 
Q 6.796875 14.703125 9.25 10.390625 
Q 11.703125 6.09375 15.890625 3.546875 
Q 20.09375 1 25.09375 1 
Q 30.203125 1 34.546875 3.546875 
Q 38.90625 6.09375 41.453125 10.390625 
Q 44 14.703125 44 19.59375 
Q 44 24.59375 41.453125 28.796875 
Q 38.90625 33 34.546875 35.5 
Q 30.203125 38 25.09375 38 
Q 20.09375 38 15.890625 35.5 
Q 11.703125 33 9.25 28.796875 
Q 6.796875 24.59375 6.796875 19.59375 
z
" id="JosefinSans-Thin-56"/>
      </defs>
      <g style="fill:#262626;" transform="translate(662.136943 282.466635)scale(0.14 -0.14)">
       <use xlink:href="#JosefinSans-Thin-48"/>
       <use x="61.699997" xlink:href="#JosefinSans-Thin-46"/>
       <use x="80.299988" xlink:href="#JosefinSans-Thin-56"/>
      </g>
     </g>
    </g>
    <g id="xtick_6">
     <g id="line2d_11">
      <path clip-path="url(#pbf4ba69631)" d="M 823.062509 268.438198 
L 823.062509 3.00024 
" style="fill:none;stroke:#cccccc;stroke-dasharray:0.8,1.32;stroke-dashoffset:0;stroke-width:0.8;"/>
     </g>
     <g id="line2d_12"/>
     <g id="text_6">
      <!-- 1.0 -->
      <defs>
       <path d="M 19 65.09375 
L 19 0 
L 17 0 
L 17 63.09375 
L 5.90625 63.09375 
L 5.90625 65.09375 
z
" id="JosefinSans-Thin-49"/>
      </defs>
      <g style="fill:#262626;" transform="translate(815.285947 282.466635)scale(0.14 -0.14)">
       <use xlink:href="#JosefinSans-Thin-49"/>
       <use x="30.799988" xlink:href="#JosefinSans-Thin-46"/>
       <use x="49.399979" xlink:href="#JosefinSans-Thin-48"/>
      </g>
     </g>
    </g>
   </g>
   <g id="matplotlib.axis_2">
    <g id="ytick_1">
     <g id="line2d_13">
      <path clip-path="url(#pbf4ba69631)" d="M 26.38024 256.372836 
L 860.99976 256.372836 
" style="fill:none;stroke:#cccccc;stroke-dasharray:0.8,1.32;stroke-dashoffset:0;stroke-width:0.8;"/>
     </g>
     <g id="line2d_14"/>
     <g id="text_7">
      <!-- 0.0 -->
      <g style="fill:#262626;" transform="translate(3.00024 261.637055)scale(0.14 -0.14)">
       <use xlink:href="#JosefinSans-Thin-48"/>
       <use x="61.699997" xlink:href="#JosefinSans-Thin-46"/>
       <use x="80.299988" xlink:href="#JosefinSans-Thin-48"/>
      </g>
     </g>
    </g>
    <g id="ytick_2">
     <g id="line2d_15">
      <path clip-path="url(#pbf4ba69631)" d="M 26.38024 213.063191 
L 860.99976 213.063191 
" style="fill:none;stroke:#cccccc;stroke-dasharray:0.8,1.32;stroke-dashoffset:0;stroke-width:0.8;"/>
     </g>
     <g id="line2d_16"/>
     <g id="text_8">
      <!-- 0.5 -->
      <defs>
       <path d="M 25.703125 39.796875 
Q 31.40625 39.796875 36.046875 37.09375 
Q 40.703125 34.40625 43.34375 29.796875 
Q 46 25.203125 46 19.59375 
Q 46 14.09375 43.25 9.390625 
Q 40.5 4.703125 35.75 1.953125 
Q 31 -0.796875 25.40625 -0.796875 
Q 21.40625 -0.796875 17.65625 0.703125 
Q 13.90625 2.203125 11.09375 4.90625 
L 12.40625 6.203125 
Q 14.796875 3.703125 18.09375 2.34375 
Q 21.40625 1 25.09375 1 
Q 30.203125 1 34.546875 3.546875 
Q 38.90625 6.09375 41.453125 10.390625 
Q 44 14.703125 44 19.59375 
Q 44 24.59375 41.546875 28.84375 
Q 39.09375 33.09375 34.796875 35.546875 
Q 30.5 38 25.296875 38 
Q 22 38 19.046875 36.890625 
Q 16.09375 35.796875 14.09375 34 
L 14 34 
L 14 65.09375 
L 42.90625 65.09375 
L 42.90625 63.203125 
L 15.90625 63.203125 
L 15.90625 37.5 
Q 17.796875 38.5 20.5 39.140625 
Q 23.203125 39.796875 25.703125 39.796875 
z
" id="JosefinSans-Thin-53"/>
      </defs>
      <g style="fill:#262626;" transform="translate(4.037115 218.32741)scale(0.14 -0.14)">
       <use xlink:href="#JosefinSans-Thin-48"/>
       <use x="61.699997" xlink:href="#JosefinSans-Thin-46"/>
       <use x="80.299988" xlink:href="#JosefinSans-Thin-53"/>
      </g>
     </g>
    </g>
    <g id="ytick_3">
     <g id="line2d_17">
      <path clip-path="url(#pbf4ba69631)" d="M 26.38024 169.753546 
L 860.99976 169.753546 
" style="fill:none;stroke:#cccccc;stroke-dasharray:0.8,1.32;stroke-dashoffset:0;stroke-width:0.8;"/>
     </g>
     <g id="line2d_18"/>
     <g id="text_9">
      <!-- 1.0 -->
      <g style="fill:#262626;" transform="translate(7.327115 175.017765)scale(0.14 -0.14)">
       <use xlink:href="#JosefinSans-Thin-49"/>
       <use x="30.799988" xlink:href="#JosefinSans-Thin-46"/>
       <use x="49.399979" xlink:href="#JosefinSans-Thin-48"/>
      </g>
     </g>
    </g>
    <g id="ytick_4">
     <g id="line2d_19">
      <path clip-path="url(#pbf4ba69631)" d="M 26.38024 126.443901 
L 860.99976 126.443901 
" style="fill:none;stroke:#cccccc;stroke-dasharray:0.8,1.32;stroke-dashoffset:0;stroke-width:0.8;"/>
     </g>
     <g id="line2d_20"/>
     <g id="text_10">
      <!-- 1.5 -->
      <g style="fill:#262626;" transform="translate(8.36399 131.70812)scale(0.14 -0.14)">
       <use xlink:href="#JosefinSans-Thin-49"/>
       <use x="30.799988" xlink:href="#JosefinSans-Thin-46"/>
       <use x="49.399979" xlink:href="#JosefinSans-Thin-53"/>
      </g>
     </g>
    </g>
    <g id="ytick_5">
     <g id="line2d_21">
      <path clip-path="url(#pbf4ba69631)" d="M 26.38024 83.134256 
L 860.99976 83.134256 
" style="fill:none;stroke:#cccccc;stroke-dasharray:0.8,1.32;stroke-dashoffset:0;stroke-width:0.8;"/>
     </g>
     <g id="line2d_22"/>
     <g id="text_11">
      <!-- 2.0 -->
      <g style="fill:#262626;" transform="translate(4.695553 88.398475)scale(0.14 -0.14)">
       <use xlink:href="#JosefinSans-Thin-50"/>
       <use x="49.599991" xlink:href="#JosefinSans-Thin-46"/>
       <use x="68.199982" xlink:href="#JosefinSans-Thin-48"/>
      </g>
     </g>
    </g>
    <g id="ytick_6">
     <g id="line2d_23">
      <path clip-path="url(#pbf4ba69631)" d="M 26.38024 39.824612 
L 860.99976 39.824612 
" style="fill:none;stroke:#cccccc;stroke-dasharray:0.8,1.32;stroke-dashoffset:0;stroke-width:0.8;"/>
     </g>
     <g id="line2d_24"/>
     <g id="text_12">
      <!-- 2.5 -->
      <g style="fill:#262626;" transform="translate(5.732428 45.08883)scale(0.14 -0.14)">
       <use xlink:href="#JosefinSans-Thin-50"/>
       <use x="49.599991" xlink:href="#JosefinSans-Thin-46"/>
       <use x="68.199982" xlink:href="#JosefinSans-Thin-53"/>
      </g>
     </g>
    </g>
   </g>
   <g id="PolyCollection_1">
    <defs>
     <path d="M 257.78346 -31.627164 
L 257.78346 -38.721035 
L 258.798093 -38.725045 
L 259.812727 -38.733081 
L 260.82736 -38.745171 
L 261.841993 -38.779009 
L 262.856626 -38.801816 
L 263.871259 -38.829137 
L 264.885892 -38.878729 
L 265.900525 -38.917867 
L 266.915158 -38.954419 
L 267.929792 -39.004961 
L 268.944425 -39.053095 
L 269.959058 -39.124232 
L 270.973691 -39.193285 
L 271.988324 -39.260414 
L 273.002957 -39.334464 
L 274.01759 -39.423174 
L 275.032223 -39.510117 
L 276.046857 -39.620647 
L 277.06149 -39.729598 
L 278.076123 -39.844756 
L 279.090756 -39.983797 
L 280.105389 -40.122698 
L 281.120022 -40.260467 
L 282.134655 -40.405876 
L 283.149288 -40.56767 
L 284.163922 -40.748077 
L 285.178555 -40.930708 
L 286.193188 -41.129964 
L 287.207821 -41.347106 
L 288.222454 -41.548216 
L 289.237087 -41.765197 
L 290.25172 -41.981499 
L 291.266354 -42.204707 
L 292.280987 -42.487622 
L 293.29562 -42.740397 
L 294.310253 -42.985147 
L 295.324886 -43.254762 
L 296.339519 -43.523915 
L 297.354152 -43.800267 
L 298.368785 -44.083758 
L 299.383419 -44.366606 
L 300.398052 -44.665198 
L 301.412685 -44.970687 
L 302.427318 -45.283066 
L 303.441951 -45.602342 
L 304.456584 -45.937361 
L 305.471217 -46.271737 
L 306.48585 -46.648568 
L 307.500484 -47.002259 
L 308.515117 -47.363857 
L 309.52975 -47.733513 
L 310.544383 -48.120213 
L 311.559016 -48.507703 
L 312.573649 -48.903889 
L 313.588282 -49.317769 
L 314.602915 -49.759573 
L 315.617549 -50.187941 
L 316.632182 -50.626237 
L 317.646815 -51.074619 
L 318.661448 -51.533214 
L 319.676081 -52.010934 
L 320.690714 -52.500228 
L 321.705347 -52.992406 
L 322.719981 -53.5128 
L 323.734614 -54.028462 
L 324.749247 -54.563512 
L 325.76388 -55.145431 
L 326.778513 -55.699553 
L 327.793146 -56.26419 
L 328.807779 -56.838927 
L 329.822412 -57.423256 
L 330.837046 -58.016577 
L 331.851679 -58.602737 
L 332.866312 -59.233652 
L 333.880945 -59.884473 
L 334.895578 -60.535974 
L 335.910211 -61.19522 
L 336.924844 -61.870315 
L 337.939477 -62.535241 
L 338.954111 -63.19568 
L 339.968744 -63.858226 
L 340.983377 -64.521688 
L 341.99801 -65.184826 
L 343.012643 -65.846359 
L 344.027276 -66.531459 
L 345.041909 -67.207197 
L 346.056542 -67.897929 
L 347.071176 -68.552173 
L 348.085809 -69.199636 
L 349.100442 -69.847973 
L 350.115075 -70.497286 
L 351.129708 -71.121395 
L 352.144341 -71.743592 
L 353.158974 -72.390675 
L 354.173608 -72.996281 
L 355.188241 -73.590777 
L 356.202874 -74.173726 
L 357.217507 -74.753631 
L 358.23214 -75.313863 
L 359.246773 -75.870899 
L 360.261406 -76.426018 
L 361.276039 -76.963118 
L 362.290673 -77.490385 
L 363.305306 -78.052551 
L 364.319939 -78.568257 
L 365.334572 -79.060502 
L 366.349205 -79.554349 
L 367.363838 -80.041989 
L 368.378471 -80.551013 
L 369.393104 -81.051019 
L 370.407738 -81.525931 
L 371.422371 -82.06199 
L 372.437004 -82.553326 
L 373.451637 -83.056706 
L 374.46627 -83.592627 
L 375.480903 -84.122438 
L 376.495536 -84.654731 
L 377.510169 -85.225564 
L 378.524803 -85.778699 
L 379.539436 -86.355597 
L 380.554069 -86.926068 
L 381.568702 -87.523508 
L 382.583335 -88.149372 
L 383.597968 -88.841578 
L 384.612601 -89.527197 
L 385.627235 -90.221013 
L 386.641868 -90.939638 
L 387.656501 -91.719403 
L 388.671134 -92.539657 
L 389.685767 -93.359941 
L 390.7004 -94.212016 
L 391.715033 -95.087778 
L 392.729666 -96.005332 
L 393.7443 -96.956298 
L 394.758933 -97.939879 
L 395.773566 -98.939663 
L 396.788199 -100.00613 
L 397.802832 -101.090802 
L 398.817465 -102.208818 
L 399.832098 -103.358607 
L 400.846731 -104.56601 
L 401.861365 -105.772141 
L 402.875998 -107.02449 
L 403.890631 -108.341936 
L 404.905264 -109.684168 
L 405.919897 -111.049285 
L 406.93453 -112.452803 
L 407.949163 -113.841855 
L 408.963796 -115.262125 
L 409.97843 -116.721752 
L 410.993063 -118.197008 
L 412.007696 -119.693766 
L 413.022329 -121.207892 
L 414.036962 -122.730726 
L 415.051595 -124.285413 
L 416.066228 -125.825785 
L 417.080861 -127.44313 
L 418.095495 -129.056476 
L 419.110128 -130.636489 
L 420.124761 -132.272354 
L 421.139394 -133.879683 
L 422.154027 -135.469616 
L 423.16866 -137.055228 
L 424.183293 -138.651792 
L 425.197927 -140.225201 
L 426.21256 -141.779767 
L 427.227193 -143.346193 
L 428.241826 -144.866225 
L 429.256459 -146.395946 
L 430.271092 -147.908058 
L 431.285725 -149.391919 
L 432.300358 -150.889823 
L 433.314992 -152.32003 
L 434.329625 -153.762442 
L 435.344258 -155.147576 
L 436.358891 -156.507107 
L 437.373524 -157.85522 
L 438.388157 -159.191059 
L 439.40279 -160.489902 
L 440.417423 -161.749141 
L 441.432057 -162.929733 
L 442.44669 -164.139906 
L 443.461323 -165.336695 
L 444.475956 -166.469822 
L 445.490589 -167.640909 
L 446.505222 -168.744202 
L 447.519855 -169.810307 
L 448.534488 -170.883035 
L 449.549122 -171.897583 
L 450.563755 -172.894683 
L 451.578388 -173.876636 
L 452.593021 -174.863604 
L 453.607654 -175.800086 
L 454.622287 -176.736092 
L 455.63692 -177.64358 
L 456.651554 -178.521938 
L 457.666187 -179.401245 
L 458.68082 -180.267653 
L 459.695453 -181.115012 
L 460.710086 -181.952467 
L 461.724719 -182.806763 
L 462.739352 -183.639867 
L 463.753985 -184.418964 
L 464.768619 -185.225166 
L 465.783252 -186.03405 
L 466.797885 -186.847683 
L 467.812518 -187.668152 
L 468.827151 -188.454535 
L 469.841784 -189.248045 
L 470.856417 -190.102031 
L 471.87105 -190.920593 
L 472.885684 -191.725231 
L 473.900317 -192.54812 
L 474.91495 -193.31784 
L 475.929583 -194.227959 
L 476.944216 -195.080151 
L 477.958849 -195.945422 
L 478.973482 -196.79883 
L 479.988115 -197.664784 
L 481.002749 -198.518112 
L 482.017382 -199.34326 
L 483.032015 -200.209094 
L 484.046648 -201.064742 
L 485.061281 -201.93302 
L 486.075914 -202.798232 
L 487.090547 -203.684293 
L 488.105181 -204.59883 
L 489.119814 -205.509026 
L 490.134447 -206.422772 
L 491.14908 -207.384371 
L 492.163713 -208.338388 
L 493.178346 -209.242444 
L 494.192979 -210.187922 
L 495.207612 -211.092405 
L 496.222246 -212.034981 
L 497.236879 -212.962823 
L 498.251512 -213.901145 
L 499.266145 -214.853159 
L 500.280778 -215.863036 
L 501.295411 -216.848838 
L 502.310044 -217.829645 
L 503.324677 -218.838667 
L 504.339311 -219.821136 
L 505.353944 -220.851928 
L 506.368577 -221.867476 
L 507.38321 -222.891003 
L 508.397843 -223.931341 
L 509.412476 -224.947754 
L 510.427109 -225.970693 
L 511.441742 -227.02502 
L 512.456376 -228.039901 
L 513.471009 -229.131322 
L 514.485642 -230.20443 
L 515.500275 -231.325037 
L 516.514908 -232.401739 
L 517.529541 -233.483546 
L 518.544174 -234.563118 
L 519.558808 -235.688134 
L 520.573441 -236.779939 
L 521.588074 -237.893887 
L 522.602707 -239.008331 
L 523.61734 -240.091601 
L 524.631973 -241.183205 
L 525.646606 -242.288522 
L 526.661239 -243.455033 
L 527.675873 -244.565637 
L 528.690506 -245.678925 
L 529.705139 -246.821514 
L 530.719772 -247.950996 
L 531.734405 -249.049082 
L 532.749038 -250.08269 
L 533.763671 -251.148028 
L 534.778304 -252.224933 
L 535.792938 -253.286936 
L 536.807571 -254.328446 
L 537.822204 -255.326055 
L 538.836837 -256.33311 
L 539.85147 -257.347032 
L 540.866103 -258.324757 
L 541.880736 -259.290233 
L 542.895369 -260.252048 
L 543.910003 -261.157253 
L 544.924636 -262.04284 
L 545.939269 -262.910533 
L 546.953902 -263.753343 
L 547.968535 -264.558802 
L 548.983168 -265.349613 
L 549.997801 -266.112297 
L 551.012434 -266.844486 
L 552.027068 -267.50745 
L 553.041701 -268.136958 
L 554.056334 -268.725806 
L 555.070967 -269.277816 
L 556.0856 -269.773703 
L 557.100233 -270.275659 
L 558.114866 -270.74958 
L 559.1295 -271.182635 
L 560.144133 -271.542253 
L 561.158766 -271.892612 
L 562.173399 -272.173844 
L 563.188032 -272.418516 
L 564.202665 -272.610899 
L 565.217298 -272.77283 
L 566.231931 -272.841543 
L 567.246565 -272.904853 
L 568.261198 -272.934398 
L 569.275831 -272.880075 
L 570.290464 -272.790648 
L 571.305097 -272.705271 
L 572.31973 -272.576841 
L 573.334363 -272.356218 
L 574.348996 -272.12717 
L 575.36363 -271.901296 
L 576.378263 -271.643564 
L 577.392896 -271.322487 
L 578.407529 -270.980206 
L 579.422162 -270.559851 
L 580.436795 -270.144083 
L 581.451428 -269.691474 
L 582.466061 -269.212403 
L 583.480695 -268.706246 
L 584.495328 -268.190004 
L 585.509961 -267.656588 
L 586.524594 -267.126513 
L 587.539227 -266.545527 
L 588.55386 -265.982335 
L 589.568493 -265.430973 
L 590.583127 -264.869143 
L 591.59776 -264.353788 
L 592.612393 -263.782453 
L 593.627026 -263.287788 
L 594.641659 -262.709829 
L 595.656292 -262.224675 
L 596.670925 -261.741347 
L 597.685558 -261.236869 
L 598.700192 -260.830904 
L 599.714825 -260.453197 
L 600.729458 -260.064245 
L 601.744091 -259.655712 
L 602.758724 -259.309858 
L 603.773357 -258.994436 
L 604.78799 -258.713342 
L 605.802623 -258.506672 
L 606.817257 -258.314483 
L 607.83189 -258.163434 
L 608.846523 -258.045821 
L 609.861156 -257.995592 
L 610.875789 -257.904592 
L 611.890422 -257.860772 
L 612.905055 -257.868192 
L 613.919688 -257.92547 
L 614.934322 -257.992687 
L 615.948955 -258.068048 
L 616.963588 -258.158095 
L 617.978221 -258.274562 
L 618.992854 -258.387163 
L 620.007487 -258.471727 
L 621.02212 -258.592665 
L 622.036754 -258.759506 
L 623.051387 -258.885177 
L 624.06602 -259.057303 
L 625.080653 -259.137944 
L 626.095286 -259.254832 
L 627.109919 -259.366445 
L 628.124552 -259.460081 
L 629.139185 -259.566101 
L 630.153819 -259.649236 
L 631.168452 -259.677652 
L 632.183085 -259.647888 
L 633.197718 -259.623518 
L 634.212351 -259.551935 
L 635.226984 -259.439055 
L 636.241617 -259.317469 
L 637.25625 -259.094721 
L 638.270884 -258.832213 
L 639.285517 -258.510052 
L 640.30015 -258.0952 
L 641.314783 -257.644732 
L 642.329416 -257.196423 
L 643.344049 -256.641343 
L 644.358682 -256.102902 
L 645.373315 -255.489644 
L 646.387949 -254.832621 
L 647.402582 -254.072873 
L 648.417215 -253.235961 
L 649.431848 -252.317575 
L 650.446481 -251.359608 
L 651.461114 -250.328297 
L 652.475747 -249.257123 
L 653.490381 -248.160151 
L 654.505014 -246.964886 
L 655.519647 -245.731815 
L 656.53428 -244.452279 
L 657.548913 -243.147595 
L 658.563546 -241.777781 
L 659.578179 -240.364476 
L 660.592812 -238.886388 
L 661.607446 -237.37163 
L 662.622079 -235.798792 
L 663.636712 -234.21907 
L 664.651345 -232.54293 
L 665.665978 -230.877471 
L 666.680611 -229.166095 
L 667.695244 -227.437001 
L 668.709877 -225.642475 
L 669.724511 -223.810389 
L 670.739144 -221.972899 
L 671.753777 -220.096292 
L 672.76841 -218.198518 
L 673.783043 -216.288764 
L 674.797676 -214.335573 
L 675.812309 -212.288381 
L 676.826942 -210.30406 
L 677.841576 -208.27926 
L 678.856209 -206.209611 
L 679.870842 -204.137795 
L 680.885475 -202.054888 
L 681.900108 -199.994008 
L 682.914741 -197.898403 
L 683.929374 -195.769521 
L 684.944008 -193.633909 
L 685.958641 -191.453121 
L 686.973274 -189.302987 
L 687.987907 -187.125384 
L 689.00254 -184.92153 
L 690.017173 -182.725507 
L 691.031806 -180.505453 
L 692.046439 -178.272299 
L 693.061073 -176.06669 
L 694.075706 -173.854762 
L 695.090339 -171.607038 
L 696.104972 -169.376301 
L 697.119605 -167.162668 
L 698.134238 -164.9257 
L 699.148871 -162.668709 
L 700.163504 -160.449839 
L 701.178138 -158.259353 
L 702.192771 -156.060284 
L 703.207404 -153.889356 
L 704.222037 -151.720701 
L 705.23667 -149.561431 
L 706.251303 -147.404267 
L 707.265936 -145.236231 
L 708.280569 -143.078137 
L 709.295203 -140.963941 
L 710.309836 -138.844129 
L 711.324469 -136.768115 
L 712.339102 -134.695179 
L 713.353735 -132.651624 
L 714.368368 -130.637369 
L 715.383001 -128.629236 
L 716.397634 -126.630223 
L 717.412268 -124.681682 
L 718.426901 -122.775667 
L 719.441534 -120.903358 
L 720.456167 -119.032825 
L 721.4708 -117.183555 
L 722.485433 -115.403582 
L 723.500066 -113.636687 
L 724.5147 -111.861652 
L 725.529333 -110.097425 
L 726.543966 -108.416662 
L 727.558599 -106.743806 
L 728.573232 -105.159587 
L 729.587865 -103.581148 
L 730.602498 -102.012334 
L 731.617131 -100.518385 
L 732.631765 -99.048167 
L 733.646398 -97.625389 
L 734.661031 -96.225369 
L 735.675664 -94.858511 
L 736.690297 -93.541775 
L 737.70493 -92.259207 
L 738.719563 -91.004715 
L 739.734196 -89.777564 
L 740.74883 -88.530474 
L 741.763463 -87.396219 
L 742.778096 -86.259326 
L 743.792729 -85.19348 
L 744.807362 -84.13161 
L 745.821995 -83.123066 
L 746.836628 -82.156744 
L 747.851261 -81.229303 
L 748.865895 -80.294364 
L 749.880528 -79.429536 
L 750.895161 -78.622434 
L 751.909794 -77.838923 
L 752.924427 -77.079971 
L 753.93906 -76.338626 
L 754.953693 -75.639647 
L 755.968327 -74.982511 
L 756.98296 -74.342515 
L 757.997593 -73.735508 
L 759.012226 -73.164061 
L 760.026859 -72.67713 
L 761.041492 -72.231776 
L 762.056125 -71.785199 
L 763.070758 -71.362484 
L 764.085392 -70.956577 
L 765.100025 -70.588899 
L 766.114658 -70.250085 
L 767.129291 -69.963867 
L 768.143924 -69.712419 
L 769.158557 -69.523253 
L 770.17319 -69.331722 
L 771.187823 -69.160986 
L 772.202457 -69.035189 
L 773.21709 -68.895982 
L 774.231723 -68.784796 
L 775.246356 -68.750809 
L 776.260989 -68.746874 
L 776.260989 -31.627164 
L 776.260989 -31.627164 
L 775.246356 -31.627164 
L 774.231723 -31.627164 
L 773.21709 -31.627164 
L 772.202457 -31.627164 
L 771.187823 -31.627164 
L 770.17319 -31.627164 
L 769.158557 -31.627164 
L 768.143924 -31.627164 
L 767.129291 -31.627164 
L 766.114658 -31.627164 
L 765.100025 -31.627164 
L 764.085392 -31.627164 
L 763.070758 -31.627164 
L 762.056125 -31.627164 
L 761.041492 -31.627164 
L 760.026859 -31.627164 
L 759.012226 -31.627164 
L 757.997593 -31.627164 
L 756.98296 -31.627164 
L 755.968327 -31.627164 
L 754.953693 -31.627164 
L 753.93906 -31.627164 
L 752.924427 -31.627164 
L 751.909794 -31.627164 
L 750.895161 -31.627164 
L 749.880528 -31.627164 
L 748.865895 -31.627164 
L 747.851261 -31.627164 
L 746.836628 -31.627164 
L 745.821995 -31.627164 
L 744.807362 -31.627164 
L 743.792729 -31.627164 
L 742.778096 -31.627164 
L 741.763463 -31.627164 
L 740.74883 -31.627164 
L 739.734196 -31.627164 
L 738.719563 -31.627164 
L 737.70493 -31.627164 
L 736.690297 -31.627164 
L 735.675664 -31.627164 
L 734.661031 -31.627164 
L 733.646398 -31.627164 
L 732.631765 -31.627164 
L 731.617131 -31.627164 
L 730.602498 -31.627164 
L 729.587865 -31.627164 
L 728.573232 -31.627164 
L 727.558599 -31.627164 
L 726.543966 -31.627164 
L 725.529333 -31.627164 
L 724.5147 -31.627164 
L 723.500066 -31.627164 
L 722.485433 -31.627164 
L 721.4708 -31.627164 
L 720.456167 -31.627164 
L 719.441534 -31.627164 
L 718.426901 -31.627164 
L 717.412268 -31.627164 
L 716.397634 -31.627164 
L 715.383001 -31.627164 
L 714.368368 -31.627164 
L 713.353735 -31.627164 
L 712.339102 -31.627164 
L 711.324469 -31.627164 
L 710.309836 -31.627164 
L 709.295203 -31.627164 
L 708.280569 -31.627164 
L 707.265936 -31.627164 
L 706.251303 -31.627164 
L 705.23667 -31.627164 
L 704.222037 -31.627164 
L 703.207404 -31.627164 
L 702.192771 -31.627164 
L 701.178138 -31.627164 
L 700.163504 -31.627164 
L 699.148871 -31.627164 
L 698.134238 -31.627164 
L 697.119605 -31.627164 
L 696.104972 -31.627164 
L 695.090339 -31.627164 
L 694.075706 -31.627164 
L 693.061073 -31.627164 
L 692.046439 -31.627164 
L 691.031806 -31.627164 
L 690.017173 -31.627164 
L 689.00254 -31.627164 
L 687.987907 -31.627164 
L 686.973274 -31.627164 
L 685.958641 -31.627164 
L 684.944008 -31.627164 
L 683.929374 -31.627164 
L 682.914741 -31.627164 
L 681.900108 -31.627164 
L 680.885475 -31.627164 
L 679.870842 -31.627164 
L 678.856209 -31.627164 
L 677.841576 -31.627164 
L 676.826942 -31.627164 
L 675.812309 -31.627164 
L 674.797676 -31.627164 
L 673.783043 -31.627164 
L 672.76841 -31.627164 
L 671.753777 -31.627164 
L 670.739144 -31.627164 
L 669.724511 -31.627164 
L 668.709877 -31.627164 
L 667.695244 -31.627164 
L 666.680611 -31.627164 
L 665.665978 -31.627164 
L 664.651345 -31.627164 
L 663.636712 -31.627164 
L 662.622079 -31.627164 
L 661.607446 -31.627164 
L 660.592812 -31.627164 
L 659.578179 -31.627164 
L 658.563546 -31.627164 
L 657.548913 -31.627164 
L 656.53428 -31.627164 
L 655.519647 -31.627164 
L 654.505014 -31.627164 
L 653.490381 -31.627164 
L 652.475747 -31.627164 
L 651.461114 -31.627164 
L 650.446481 -31.627164 
L 649.431848 -31.627164 
L 648.417215 -31.627164 
L 647.402582 -31.627164 
L 646.387949 -31.627164 
L 645.373315 -31.627164 
L 644.358682 -31.627164 
L 643.344049 -31.627164 
L 642.329416 -31.627164 
L 641.314783 -31.627164 
L 640.30015 -31.627164 
L 639.285517 -31.627164 
L 638.270884 -31.627164 
L 637.25625 -31.627164 
L 636.241617 -31.627164 
L 635.226984 -31.627164 
L 634.212351 -31.627164 
L 633.197718 -31.627164 
L 632.183085 -31.627164 
L 631.168452 -31.627164 
L 630.153819 -31.627164 
L 629.139185 -31.627164 
L 628.124552 -31.627164 
L 627.109919 -31.627164 
L 626.095286 -31.627164 
L 625.080653 -31.627164 
L 624.06602 -31.627164 
L 623.051387 -31.627164 
L 622.036754 -31.627164 
L 621.02212 -31.627164 
L 620.007487 -31.627164 
L 618.992854 -31.627164 
L 617.978221 -31.627164 
L 616.963588 -31.627164 
L 615.948955 -31.627164 
L 614.934322 -31.627164 
L 613.919688 -31.627164 
L 612.905055 -31.627164 
L 611.890422 -31.627164 
L 610.875789 -31.627164 
L 609.861156 -31.627164 
L 608.846523 -31.627164 
L 607.83189 -31.627164 
L 606.817257 -31.627164 
L 605.802623 -31.627164 
L 604.78799 -31.627164 
L 603.773357 -31.627164 
L 602.758724 -31.627164 
L 601.744091 -31.627164 
L 600.729458 -31.627164 
L 599.714825 -31.627164 
L 598.700192 -31.627164 
L 597.685558 -31.627164 
L 596.670925 -31.627164 
L 595.656292 -31.627164 
L 594.641659 -31.627164 
L 593.627026 -31.627164 
L 592.612393 -31.627164 
L 591.59776 -31.627164 
L 590.583127 -31.627164 
L 589.568493 -31.627164 
L 588.55386 -31.627164 
L 587.539227 -31.627164 
L 586.524594 -31.627164 
L 585.509961 -31.627164 
L 584.495328 -31.627164 
L 583.480695 -31.627164 
L 582.466061 -31.627164 
L 581.451428 -31.627164 
L 580.436795 -31.627164 
L 579.422162 -31.627164 
L 578.407529 -31.627164 
L 577.392896 -31.627164 
L 576.378263 -31.627164 
L 575.36363 -31.627164 
L 574.348996 -31.627164 
L 573.334363 -31.627164 
L 572.31973 -31.627164 
L 571.305097 -31.627164 
L 570.290464 -31.627164 
L 569.275831 -31.627164 
L 568.261198 -31.627164 
L 567.246565 -31.627164 
L 566.231931 -31.627164 
L 565.217298 -31.627164 
L 564.202665 -31.627164 
L 563.188032 -31.627164 
L 562.173399 -31.627164 
L 561.158766 -31.627164 
L 560.144133 -31.627164 
L 559.1295 -31.627164 
L 558.114866 -31.627164 
L 557.100233 -31.627164 
L 556.0856 -31.627164 
L 555.070967 -31.627164 
L 554.056334 -31.627164 
L 553.041701 -31.627164 
L 552.027068 -31.627164 
L 551.012434 -31.627164 
L 549.997801 -31.627164 
L 548.983168 -31.627164 
L 547.968535 -31.627164 
L 546.953902 -31.627164 
L 545.939269 -31.627164 
L 544.924636 -31.627164 
L 543.910003 -31.627164 
L 542.895369 -31.627164 
L 541.880736 -31.627164 
L 540.866103 -31.627164 
L 539.85147 -31.627164 
L 538.836837 -31.627164 
L 537.822204 -31.627164 
L 536.807571 -31.627164 
L 535.792938 -31.627164 
L 534.778304 -31.627164 
L 533.763671 -31.627164 
L 532.749038 -31.627164 
L 531.734405 -31.627164 
L 530.719772 -31.627164 
L 529.705139 -31.627164 
L 528.690506 -31.627164 
L 527.675873 -31.627164 
L 526.661239 -31.627164 
L 525.646606 -31.627164 
L 524.631973 -31.627164 
L 523.61734 -31.627164 
L 522.602707 -31.627164 
L 521.588074 -31.627164 
L 520.573441 -31.627164 
L 519.558808 -31.627164 
L 518.544174 -31.627164 
L 517.529541 -31.627164 
L 516.514908 -31.627164 
L 515.500275 -31.627164 
L 514.485642 -31.627164 
L 513.471009 -31.627164 
L 512.456376 -31.627164 
L 511.441742 -31.627164 
L 510.427109 -31.627164 
L 509.412476 -31.627164 
L 508.397843 -31.627164 
L 507.38321 -31.627164 
L 506.368577 -31.627164 
L 505.353944 -31.627164 
L 504.339311 -31.627164 
L 503.324677 -31.627164 
L 502.310044 -31.627164 
L 501.295411 -31.627164 
L 500.280778 -31.627164 
L 499.266145 -31.627164 
L 498.251512 -31.627164 
L 497.236879 -31.627164 
L 496.222246 -31.627164 
L 495.207612 -31.627164 
L 494.192979 -31.627164 
L 493.178346 -31.627164 
L 492.163713 -31.627164 
L 491.14908 -31.627164 
L 490.134447 -31.627164 
L 489.119814 -31.627164 
L 488.105181 -31.627164 
L 487.090547 -31.627164 
L 486.075914 -31.627164 
L 485.061281 -31.627164 
L 484.046648 -31.627164 
L 483.032015 -31.627164 
L 482.017382 -31.627164 
L 481.002749 -31.627164 
L 479.988115 -31.627164 
L 478.973482 -31.627164 
L 477.958849 -31.627164 
L 476.944216 -31.627164 
L 475.929583 -31.627164 
L 474.91495 -31.627164 
L 473.900317 -31.627164 
L 472.885684 -31.627164 
L 471.87105 -31.627164 
L 470.856417 -31.627164 
L 469.841784 -31.627164 
L 468.827151 -31.627164 
L 467.812518 -31.627164 
L 466.797885 -31.627164 
L 465.783252 -31.627164 
L 464.768619 -31.627164 
L 463.753985 -31.627164 
L 462.739352 -31.627164 
L 461.724719 -31.627164 
L 460.710086 -31.627164 
L 459.695453 -31.627164 
L 458.68082 -31.627164 
L 457.666187 -31.627164 
L 456.651554 -31.627164 
L 455.63692 -31.627164 
L 454.622287 -31.627164 
L 453.607654 -31.627164 
L 452.593021 -31.627164 
L 451.578388 -31.627164 
L 450.563755 -31.627164 
L 449.549122 -31.627164 
L 448.534488 -31.627164 
L 447.519855 -31.627164 
L 446.505222 -31.627164 
L 445.490589 -31.627164 
L 444.475956 -31.627164 
L 443.461323 -31.627164 
L 442.44669 -31.627164 
L 441.432057 -31.627164 
L 440.417423 -31.627164 
L 439.40279 -31.627164 
L 438.388157 -31.627164 
L 437.373524 -31.627164 
L 436.358891 -31.627164 
L 435.344258 -31.627164 
L 434.329625 -31.627164 
L 433.314992 -31.627164 
L 432.300358 -31.627164 
L 431.285725 -31.627164 
L 430.271092 -31.627164 
L 429.256459 -31.627164 
L 428.241826 -31.627164 
L 427.227193 -31.627164 
L 426.21256 -31.627164 
L 425.197927 -31.627164 
L 424.183293 -31.627164 
L 423.16866 -31.627164 
L 422.154027 -31.627164 
L 421.139394 -31.627164 
L 420.124761 -31.627164 
L 419.110128 -31.627164 
L 418.095495 -31.627164 
L 417.080861 -31.627164 
L 416.066228 -31.627164 
L 415.051595 -31.627164 
L 414.036962 -31.627164 
L 413.022329 -31.627164 
L 412.007696 -31.627164 
L 410.993063 -31.627164 
L 409.97843 -31.627164 
L 408.963796 -31.627164 
L 407.949163 -31.627164 
L 406.93453 -31.627164 
L 405.919897 -31.627164 
L 404.905264 -31.627164 
L 403.890631 -31.627164 
L 402.875998 -31.627164 
L 401.861365 -31.627164 
L 400.846731 -31.627164 
L 399.832098 -31.627164 
L 398.817465 -31.627164 
L 397.802832 -31.627164 
L 396.788199 -31.627164 
L 395.773566 -31.627164 
L 394.758933 -31.627164 
L 393.7443 -31.627164 
L 392.729666 -31.627164 
L 391.715033 -31.627164 
L 390.7004 -31.627164 
L 389.685767 -31.627164 
L 388.671134 -31.627164 
L 387.656501 -31.627164 
L 386.641868 -31.627164 
L 385.627235 -31.627164 
L 384.612601 -31.627164 
L 383.597968 -31.627164 
L 382.583335 -31.627164 
L 381.568702 -31.627164 
L 380.554069 -31.627164 
L 379.539436 -31.627164 
L 378.524803 -31.627164 
L 377.510169 -31.627164 
L 376.495536 -31.627164 
L 375.480903 -31.627164 
L 374.46627 -31.627164 
L 373.451637 -31.627164 
L 372.437004 -31.627164 
L 371.422371 -31.627164 
L 370.407738 -31.627164 
L 369.393104 -31.627164 
L 368.378471 -31.627164 
L 367.363838 -31.627164 
L 366.349205 -31.627164 
L 365.334572 -31.627164 
L 364.319939 -31.627164 
L 363.305306 -31.627164 
L 362.290673 -31.627164 
L 361.276039 -31.627164 
L 360.261406 -31.627164 
L 359.246773 -31.627164 
L 358.23214 -31.627164 
L 357.217507 -31.627164 
L 356.202874 -31.627164 
L 355.188241 -31.627164 
L 354.173608 -31.627164 
L 353.158974 -31.627164 
L 352.144341 -31.627164 
L 351.129708 -31.627164 
L 350.115075 -31.627164 
L 349.100442 -31.627164 
L 348.085809 -31.627164 
L 347.071176 -31.627164 
L 346.056542 -31.627164 
L 345.041909 -31.627164 
L 344.027276 -31.627164 
L 343.012643 -31.627164 
L 341.99801 -31.627164 
L 340.983377 -31.627164 
L 339.968744 -31.627164 
L 338.954111 -31.627164 
L 337.939477 -31.627164 
L 336.924844 -31.627164 
L 335.910211 -31.627164 
L 334.895578 -31.627164 
L 333.880945 -31.627164 
L 332.866312 -31.627164 
L 331.851679 -31.627164 
L 330.837046 -31.627164 
L 329.822412 -31.627164 
L 328.807779 -31.627164 
L 327.793146 -31.627164 
L 326.778513 -31.627164 
L 325.76388 -31.627164 
L 324.749247 -31.627164 
L 323.734614 -31.627164 
L 322.719981 -31.627164 
L 321.705347 -31.627164 
L 320.690714 -31.627164 
L 319.676081 -31.627164 
L 318.661448 -31.627164 
L 317.646815 -31.627164 
L 316.632182 -31.627164 
L 315.617549 -31.627164 
L 314.602915 -31.627164 
L 313.588282 -31.627164 
L 312.573649 -31.627164 
L 311.559016 -31.627164 
L 310.544383 -31.627164 
L 309.52975 -31.627164 
L 308.515117 -31.627164 
L 307.500484 -31.627164 
L 306.48585 -31.627164 
L 305.471217 -31.627164 
L 304.456584 -31.627164 
L 303.441951 -31.627164 
L 302.427318 -31.627164 
L 301.412685 -31.627164 
L 300.398052 -31.627164 
L 299.383419 -31.627164 
L 298.368785 -31.627164 
L 297.354152 -31.627164 
L 296.339519 -31.627164 
L 295.324886 -31.627164 
L 294.310253 -31.627164 
L 293.29562 -31.627164 
L 292.280987 -31.627164 
L 291.266354 -31.627164 
L 290.25172 -31.627164 
L 289.237087 -31.627164 
L 288.222454 -31.627164 
L 287.207821 -31.627164 
L 286.193188 -31.627164 
L 285.178555 -31.627164 
L 284.163922 -31.627164 
L 283.149288 -31.627164 
L 282.134655 -31.627164 
L 281.120022 -31.627164 
L 280.105389 -31.627164 
L 279.090756 -31.627164 
L 278.076123 -31.627164 
L 277.06149 -31.627164 
L 276.046857 -31.627164 
L 275.032223 -31.627164 
L 274.01759 -31.627164 
L 273.002957 -31.627164 
L 271.988324 -31.627164 
L 270.973691 -31.627164 
L 269.959058 -31.627164 
L 268.944425 -31.627164 
L 267.929792 -31.627164 
L 266.915158 -31.627164 
L 265.900525 -31.627164 
L 264.885892 -31.627164 
L 263.871259 -31.627164 
L 262.856626 -31.627164 
L 261.841993 -31.627164 
L 260.82736 -31.627164 
L 259.812727 -31.627164 
L 258.798093 -31.627164 
L 257.78346 -31.627164 
z
" id="mb5e637b857" style="stroke:#81aca4;stroke-opacity:0;"/>
    </defs>
    <g clip-path="url(#pbf4ba69631)">
     <use style="fill:#81aca4;fill-opacity:0;stroke:#81aca4;stroke-opacity:0;" x="0" xlink:href="#mb5e637b857" y="288"/>
    </g>
   </g>
   <g id="line2d_25">
    <path clip-path="url(#pbf4ba69631)" d="M 257.78346 249.278965 
L 263.871259 249.170863 
L 274.01759 248.576826 
L 278.076123 248.155244 
L 284.163922 247.251923 
L 289.237087 246.234803 
L 293.29562 245.259603 
L 297.354152 244.199733 
L 303.441951 242.397658 
L 308.515117 240.636143 
L 313.588282 238.682231 
L 320.690714 235.499772 
L 324.749247 233.436488 
L 333.880945 228.115527 
L 344.027276 221.468541 
L 350.115075 217.502714 
L 357.217507 213.246369 
L 364.319939 209.431743 
L 374.46627 204.407373 
L 379.539436 201.644403 
L 382.583335 199.850628 
L 387.656501 196.280597 
L 391.715033 192.912222 
L 394.758933 190.060121 
L 397.802832 186.909198 
L 400.846731 183.43399 
L 403.890631 179.658064 
L 407.949163 174.158145 
L 412.007696 168.306234 
L 417.080861 160.55687 
L 426.21256 146.220233 
L 430.271092 140.091942 
L 435.344258 132.852424 
L 439.40279 127.510098 
L 442.44669 123.860094 
L 445.490589 120.359091 
L 449.549122 116.102417 
L 454.622287 111.263908 
L 458.68082 107.732347 
L 464.768619 102.774834 
L 475.929583 93.772041 
L 488.105181 83.40117 
L 495.207612 76.907595 
L 502.310044 70.170355 
L 512.456376 59.960099 
L 527.675873 43.434363 
L 534.778304 35.775067 
L 538.836837 31.66689 
L 542.895369 27.747952 
L 546.953902 24.246657 
L 551.012434 21.155514 
L 554.056334 19.274194 
L 557.100233 17.724341 
L 559.1295 16.817365 
L 562.173399 15.826156 
L 564.202665 15.389101 
L 566.231931 15.158457 
L 568.261198 15.065602 
L 571.305097 15.294729 
L 573.334363 15.643782 
L 576.378263 16.356436 
L 578.407529 17.019794 
L 582.466061 18.787597 
L 586.524594 20.873487 
L 590.583127 23.130857 
L 598.700192 27.169096 
L 603.773357 29.005564 
L 605.802623 29.493328 
L 607.83189 29.836566 
L 610.875789 30.095408 
L 612.905055 30.131808 
L 616.963588 29.841905 
L 631.168452 28.322348 
L 634.212351 28.448065 
L 636.241617 28.682531 
L 638.270884 29.167787 
L 640.30015 29.9048 
L 643.344049 31.358657 
L 645.373315 32.510356 
L 647.402582 33.927127 
L 649.431848 35.682425 
L 651.461114 37.671703 
L 654.505014 41.035114 
L 657.548913 44.852405 
L 660.592812 49.113612 
L 663.636712 53.78093 
L 668.709877 62.357525 
L 673.783043 71.711236 
L 677.841576 79.72074 
L 684.944008 94.366091 
L 695.090339 116.392962 
L 705.23667 138.438569 
L 712.339102 153.304821 
L 717.412268 163.318318 
L 721.4708 170.816445 
L 726.543966 179.583338 
L 729.587865 184.418852 
L 732.631765 188.951833 
L 736.690297 194.458225 
L 740.74883 199.469526 
L 744.807362 203.86839 
L 747.851261 206.770697 
L 749.880528 208.570464 
L 753.93906 211.661374 
L 756.98296 213.657485 
L 759.012226 214.835939 
L 762.056125 216.214801 
L 765.100025 217.411101 
L 767.129291 218.036133 
L 769.158557 218.476747 
L 772.202457 218.964811 
L 774.231723 219.215204 
L 776.260989 219.253126 
L 776.260989 219.253126 
" style="fill:none;stroke:#81aca4;stroke-linecap:round;stroke-width:1.5;"/>
   </g>
   <g id="line2d_26">
    <path clip-path="url(#pbf4ba69631)" d="M 64.317491 256.372836 
L 71.981582 256.372836 
L 79.645673 256.372831 
L 87.309764 256.372784 
L 94.973855 256.372556 
L 102.637946 256.371802 
L 110.302037 256.369847 
L 117.966129 256.365539 
L 125.63022 256.357102 
L 133.294311 256.341978 
L 140.958402 256.316686 
L 148.622493 256.276679 
L 156.286584 256.216225 
L 163.950675 256.128306 
L 171.614766 256.004535 
L 179.278857 255.835108 
L 186.942948 255.608769 
L 194.607039 255.31282 
L 202.271131 254.933152 
L 209.935222 254.454305 
L 217.599313 253.85957 
L 225.263404 253.131107 
L 232.927495 252.250101 
L 240.591586 251.196947 
L 248.255677 249.951455 
L 255.919768 248.493087 
L 263.583859 246.801208 
L 271.24795 244.855362 
L 278.912042 242.635567 
L 286.576133 240.122615 
L 294.240224 237.298389 
L 301.904315 234.146184 
L 309.568406 230.651031 
L 317.232497 226.800025 
L 324.896588 222.582639 
L 332.560679 217.991036 
L 340.22477 213.02037 
L 347.888861 207.669067 
L 355.552952 201.939088 
L 363.217044 195.836163 
L 370.881135 189.370007 
L 378.545226 182.554496 
L 386.209317 175.407809 
L 393.873408 167.952539 
L 401.537499 160.215753 
L 409.20159 152.229013 
L 416.865681 144.028352 
L 424.529772 135.654197 
L 432.193863 127.151238 
L 439.857954 118.568258 
L 447.522046 109.957887 
L 455.186137 101.376325 
L 462.850228 92.882988 
L 470.514319 84.540116 
L 478.17841 76.41231 
L 485.842501 68.566033 
L 493.506592 61.069041 
L 501.170683 53.989776 
L 508.834774 47.396705 
L 516.498865 41.357619 
L 524.162956 35.938889 
L 531.827048 31.204689 
L 539.491139 27.216187 
L 547.15523 24.030714 
L 554.819321 21.700914 
L 562.483412 20.273892 
L 570.147503 19.790353 
L 577.811594 20.283754 
L 585.475685 21.779479 
L 593.139776 24.294041 
L 600.803867 27.834328 
L 608.467958 32.396911 
L 616.13205 37.96741 
L 623.796141 44.519963 
L 631.460232 52.016787 
L 639.124323 60.40786 
L 646.788414 69.630746 
L 654.452505 79.610576 
L 662.116596 90.260206 
L 669.780687 101.480586 
L 677.444778 113.161341 
L 685.108869 125.181613 
L 692.772961 137.411172 
L 700.437052 149.711835 
L 708.101143 161.939214 
L 715.765234 173.944826 
L 723.429325 185.578597 
L 731.093416 196.691792 
L 738.757507 207.140409 
L 746.421598 216.789062 
L 754.085689 225.515407 
L 761.74978 233.215133 
L 769.413871 239.807577 
L 777.077963 245.241979 
L 784.742054 249.504456 
L 792.406145 252.625706 
L 800.070236 254.689509 
L 807.734327 255.842077 
L 815.398418 256.30228 
L 823.062509 256.372836 
" style="fill:none;stroke:#cfcbbf;stroke-linecap:round;stroke-width:1.5;"/>
   </g>
   <g id="legend_1">
    <g id="line2d_27">
     <path d="M 38.98024 21.228677 
L 66.98024 21.228677 
" style="fill:none;stroke:#81aca4;stroke-linecap:round;stroke-width:1.5;"/>
    </g>
    <g id="line2d_28"/>
    <g id="text_13">
     <!-- Metropolis approximation -->
     <defs>
      <path d="M 77.59375 71.40625 
L 77.59375 0 
L 75.59375 0 
L 75.59375 65.40625 
L 44.796875 22 
L 44.59375 22 
L 13.90625 65.296875 
L 13.90625 0 
L 11.90625 0 
L 11.90625 71.40625 
L 12 71.40625 
L 44.796875 24.796875 
L 77.5 71.40625 
z
" id="JosefinSans-Thin-77"/>
      <path d="M 25.09375 1.09375 
Q 28.59375 1.09375 31.75 2.34375 
Q 34.90625 3.59375 37.296875 5.90625 
L 38.59375 4.5 
Q 35.796875 2.09375 32.34375 0.75 
Q 28.90625 -0.59375 25.09375 -0.59375 
Q 19.59375 -0.59375 15.09375 2 
Q 10.59375 4.59375 8 9.09375 
Q 5.40625 13.59375 5.40625 19 
Q 5.40625 24.40625 8.046875 28.90625 
Q 10.703125 33.40625 15.203125 36.046875 
Q 19.703125 38.703125 25.09375 38.703125 
Q 31.09375 38.703125 35.546875 35.203125 
Q 40 31.703125 42.296875 25.90625 
L 8.703125 12.296875 
Q 10.703125 7.40625 15 4.25 
Q 19.296875 1.09375 25.09375 1.09375 
z
M 25 36.90625 
Q 20.203125 36.90625 16.140625 34.5 
Q 12.09375 32.09375 9.75 28 
Q 7.40625 23.90625 7.40625 19 
Q 7.40625 16.203125 8.09375 14 
L 39.796875 26.796875 
Q 37.5 31.296875 33.640625 34.09375 
Q 29.796875 36.90625 25 36.90625 
z
" id="JosefinSans-Thin-101"/>
      <path d="M 15.296875 54.296875 
L 15.296875 37 
L 27.90625 37 
L 27.90625 35.296875 
L 15.296875 35.296875 
L 15.296875 0 
L 13.296875 0 
L 13.296875 35.296875 
L 4.5 35.296875 
L 4.5 37 
L 13.296875 37 
L 13.296875 54.296875 
z
" id="JosefinSans-Thin-116"/>
      <path d="M 11.203125 27.59375 
Q 13 32.59375 17.546875 35.5 
Q 22.09375 38.40625 27.703125 38.5 
L 27.59375 36.703125 
Q 23.203125 36.5 19.5 34.59375 
Q 15.796875 32.703125 13.59375 29.34375 
Q 11.40625 26 11.40625 21.796875 
L 11.40625 0 
L 9.40625 0 
L 9.40625 37.796875 
L 10.90625 37.796875 
L 11.203125 27.59375 
z
" id="JosefinSans-Thin-114"/>
      <path d="M 5.40625 19 
Q 5.40625 24.40625 8.046875 28.90625 
Q 10.703125 33.40625 15.203125 36.046875 
Q 19.703125 38.703125 25.09375 38.703125 
Q 30.5 38.703125 35.046875 36.046875 
Q 39.59375 33.40625 42.25 28.90625 
Q 44.90625 24.40625 44.90625 19 
Q 44.90625 13.59375 42.25 9.09375 
Q 39.59375 4.59375 35.046875 2 
Q 30.5 -0.59375 25.09375 -0.59375 
Q 19.703125 -0.59375 15.140625 1.953125 
Q 10.59375 4.5 8 9 
Q 5.40625 13.5 5.40625 19 
z
M 7.40625 19 
Q 7.40625 14.09375 9.75 10 
Q 12.09375 5.90625 16.140625 3.5 
Q 20.203125 1.09375 25.09375 1.09375 
Q 29.90625 1.09375 33.953125 3.5 
Q 38 5.90625 40.390625 10 
Q 42.796875 14.09375 42.796875 19 
Q 42.796875 23.796875 40.390625 27.9375 
Q 38 32.09375 33.953125 34.5 
Q 29.90625 36.90625 25.09375 36.90625 
Q 20.203125 36.90625 16.09375 34.34375 
Q 12 31.796875 9.703125 27.640625 
Q 7.40625 23.5 7.40625 19 
z
" id="JosefinSans-Thin-111"/>
      <path d="M 29.40625 38.59375 
Q 34.703125 38.59375 39.203125 35.9375 
Q 43.703125 33.296875 46.296875 28.796875 
Q 48.90625 24.296875 48.90625 18.90625 
Q 48.90625 13.5 46.296875 9.046875 
Q 43.703125 4.59375 39.203125 2 
Q 34.703125 -0.59375 29.296875 -0.59375 
Q 23.40625 -0.59375 18.59375 2.5 
Q 13.796875 5.59375 11.40625 10.703125 
L 11.40625 -18.09375 
L 9.40625 -18.09375 
L 9.40625 37.796875 
L 11.296875 37.796875 
L 11.40625 27 
Q 13.796875 32.203125 18.640625 35.390625 
Q 23.5 38.59375 29.40625 38.59375 
z
M 29.09375 1.09375 
Q 34 1.09375 38.046875 3.5 
Q 42.09375 5.90625 44.5 10 
Q 46.90625 14.09375 46.90625 18.90625 
Q 46.90625 23.796875 44.5 27.9375 
Q 42.09375 32.09375 38.046875 34.5 
Q 34 36.90625 29.203125 36.90625 
Q 24.40625 36.90625 20.34375 34.5 
Q 16.296875 32.09375 13.84375 28.046875 
Q 11.40625 24 11.40625 19.203125 
L 11.40625 18.203125 
Q 11.5 13.59375 13.953125 9.640625 
Q 16.40625 5.703125 20.40625 3.390625 
Q 24.40625 1.09375 29.09375 1.09375 
z
" id="JosefinSans-Thin-112"/>
      <path d="M 11.40625 75.203125 
L 11.40625 0 
L 9.40625 0 
L 9.40625 75.203125 
z
" id="JosefinSans-Thin-108"/>
      <path d="M 11.40625 37.796875 
L 11.40625 0 
L 9.40625 0 
L 9.40625 37.796875 
z
M 8.203125 49.703125 
Q 8.203125 50.609375 8.84375 51.25 
Q 9.5 51.90625 10.5 51.90625 
Q 11.40625 51.90625 12.046875 51.25 
Q 12.703125 50.609375 12.703125 49.703125 
Q 12.703125 48.796875 12.046875 48.140625 
Q 11.40625 47.5 10.5 47.5 
Q 9.59375 47.5 8.890625 48.203125 
Q 8.203125 48.90625 8.203125 49.703125 
z
" id="JosefinSans-Thin-105"/>
      <path d="M 17.09375 -0.796875 
Q 13.90625 -0.796875 10.65625 0.390625 
Q 7.40625 1.59375 5.40625 4 
L 6.59375 5.203125 
Q 8.09375 3.296875 10.9375 2.09375 
Q 13.796875 0.90625 17.09375 0.90625 
Q 21.203125 0.90625 24.09375 3 
Q 27 5.09375 27 9.703125 
Q 27 12.5 25.5 14.25 
Q 24 16 22 16.890625 
Q 20 17.796875 16.203125 19 
Q 11.703125 20.59375 9.296875 22.640625 
Q 6.90625 24.703125 6.90625 28.703125 
Q 6.90625 33.203125 9.953125 35.75 
Q 13 38.296875 17.203125 38.296875 
Q 19.796875 38.296875 22.640625 37.1875 
Q 25.5 36.09375 27.5 33.90625 
L 26.40625 32.59375 
Q 24.90625 34.5 22.25 35.5 
Q 19.59375 36.5 17.296875 36.5 
Q 14.203125 36.5 11.5 34.546875 
Q 8.796875 32.59375 8.796875 28.90625 
Q 8.796875 25.59375 10.9375 23.890625 
Q 13.09375 22.203125 17.296875 20.703125 
Q 21.40625 19.296875 23.546875 18.296875 
Q 25.703125 17.296875 27.296875 15.34375 
Q 28.90625 13.40625 28.90625 10.203125 
Q 28.90625 5.09375 25.84375 2.140625 
Q 22.796875 -0.796875 17.09375 -0.796875 
z
" id="JosefinSans-Thin-115"/>
      <path id="JosefinSans-Thin-32"/>
      <path d="M 44.796875 37.796875 
L 44.796875 0 
L 42.90625 0 
L 42.90625 10.796875 
Q 40.796875 5.796875 35.84375 2.59375 
Q 30.90625 -0.59375 24.90625 -0.59375 
Q 19.59375 -0.59375 15.09375 2 
Q 10.59375 4.59375 8 9.046875 
Q 5.40625 13.5 5.40625 18.90625 
Q 5.40625 25 8.046875 29.453125 
Q 10.703125 33.90625 15.203125 36.25 
Q 19.703125 38.59375 25.203125 38.59375 
Q 31 38.59375 35.796875 35.34375 
Q 40.59375 32.09375 42.90625 26.90625 
L 43.296875 37.796875 
z
M 25.09375 1.09375 
Q 30 1.09375 34.046875 3.296875 
Q 38.09375 5.5 40.5 9.390625 
Q 42.90625 13.296875 42.90625 18.09375 
L 42.90625 22.203125 
Q 41.703125 28.40625 36.640625 32.65625 
Q 31.59375 36.90625 25.09375 36.90625 
Q 20.203125 36.90625 16.140625 34.703125 
Q 12.09375 32.5 9.75 28.390625 
Q 7.40625 24.296875 7.40625 19 
Q 7.40625 14.09375 9.796875 10 
Q 12.203125 5.90625 16.25 3.5 
Q 20.296875 1.09375 25.09375 1.09375 
z
" id="JosefinSans-Thin-97"/>
      <path d="M 31.296875 0 
L 18.59375 17.296875 
L 6.09375 0 
L 3.796875 0 
L 17.40625 18.90625 
L 3.40625 37.796875 
L 5.90625 37.796875 
L 18.703125 20.296875 
L 31 37.703125 
L 33.203125 37.703125 
L 19.796875 18.703125 
L 33.5 0 
z
" id="JosefinSans-Thin-120"/>
      <path d="M 55.296875 38.5 
Q 60.5 38.5 63.703125 35.546875 
Q 66.90625 32.59375 67.09375 28.203125 
L 67.09375 0 
L 65.09375 0 
L 65.09375 27.703125 
Q 64.90625 31.40625 62.34375 34 
Q 59.796875 36.59375 55.296875 36.796875 
Q 51.203125 36.796875 47.59375 34.890625 
Q 44 33 41.703125 29.75 
Q 39.40625 26.5 39.203125 22.5 
L 39.203125 0 
L 37.296875 0 
L 37.296875 27.703125 
Q 37.09375 31.40625 34.5 34 
Q 31.90625 36.59375 27.40625 36.796875 
Q 23.203125 36.796875 19.5 34.84375 
Q 15.796875 32.90625 13.59375 29.5 
Q 11.40625 26.09375 11.40625 21.90625 
L 11.40625 0 
L 9.40625 0 
L 9.40625 37.796875 
L 10.90625 37.796875 
L 11.203125 27.90625 
Q 13.203125 32.796875 17.640625 35.640625 
Q 22.09375 38.5 27.5 38.5 
Q 32.09375 38.5 35.546875 35.703125 
Q 39 32.90625 39.40625 28.796875 
Q 41.5 33.40625 45.75 35.953125 
Q 50 38.5 55.296875 38.5 
z
" id="JosefinSans-Thin-109"/>
      <path d="M 27.59375 38.5 
Q 32.796875 38.5 35.9375 35.390625 
Q 39.09375 32.296875 39.296875 27.296875 
L 39.296875 0 
L 37.296875 0 
L 37.296875 27.09375 
Q 37.09375 31.296875 34.546875 33.9375 
Q 32 36.59375 27.40625 36.796875 
Q 23.203125 36.796875 19.546875 34.890625 
Q 15.90625 33 13.65625 29.59375 
Q 11.40625 26.203125 11.40625 21.90625 
L 11.40625 0 
L 9.40625 0 
L 9.40625 37.796875 
L 10.90625 37.796875 
L 11.203125 27.703125 
Q 13 32.703125 17.5 35.59375 
Q 22 38.5 27.59375 38.5 
z
" id="JosefinSans-Thin-110"/>
     </defs>
     <g style="fill:#262626;" transform="translate(78.18024 26.128677)scale(0.14 -0.14)">
      <use xlink:href="#JosefinSans-Thin-77"/>
      <use x="89.399994" xlink:href="#JosefinSans-Thin-101"/>
      <use x="136.099991" xlink:href="#JosefinSans-Thin-116"/>
      <use x="166.499985" xlink:href="#JosefinSans-Thin-114"/>
      <use x="198.599976" xlink:href="#JosefinSans-Thin-111"/>
      <use x="248.899963" xlink:href="#JosefinSans-Thin-112"/>
      <use x="303.199951" xlink:href="#JosefinSans-Thin-111"/>
      <use x="353.499939" xlink:href="#JosefinSans-Thin-108"/>
      <use x="374.299927" xlink:href="#JosefinSans-Thin-105"/>
      <use x="395.099915" xlink:href="#JosefinSans-Thin-115"/>
      <use x="429.499908" xlink:href="#JosefinSans-Thin-32"/>
      <use x="459.599899" xlink:href="#JosefinSans-Thin-97"/>
      <use x="513.799896" xlink:href="#JosefinSans-Thin-112"/>
      <use x="568.099884" xlink:href="#JosefinSans-Thin-112"/>
      <use x="622.399872" xlink:href="#JosefinSans-Thin-114"/>
      <use x="654.499863" xlink:href="#JosefinSans-Thin-111"/>
      <use x="704.79985" xlink:href="#JosefinSans-Thin-120"/>
      <use x="741.699844" xlink:href="#JosefinSans-Thin-105"/>
      <use x="762.499832" xlink:href="#JosefinSans-Thin-109"/>
      <use x="838.999817" xlink:href="#JosefinSans-Thin-97"/>
      <use x="893.199814" xlink:href="#JosefinSans-Thin-116"/>
      <use x="923.599808" xlink:href="#JosefinSans-Thin-105"/>
      <use x="944.399796" xlink:href="#JosefinSans-Thin-111"/>
      <use x="994.699783" xlink:href="#JosefinSans-Thin-110"/>
     </g>
    </g>
    <g id="line2d_29">
     <path d="M 38.98024 41.29024 
L 66.98024 41.29024 
" style="fill:none;stroke:#cfcbbf;stroke-linecap:round;stroke-width:1.5;"/>
    </g>
    <g id="line2d_30"/>
    <g id="text_14">
     <!-- True posterior -->
     <defs>
      <path d="M 51.5 70.203125 
L 51.5 68.296875 
L 29.703125 68.296875 
L 29.703125 0 
L 27.703125 0 
L 27.703125 68.296875 
L 5.90625 68.296875 
L 5.90625 70.203125 
z
" id="JosefinSans-Thin-84"/>
      <path d="M 39.296875 37.796875 
L 39.296875 0 
L 37.59375 0 
L 37.40625 9.90625 
Q 35.703125 5.40625 31.046875 2.296875 
Q 26.40625 -0.796875 21.09375 -0.796875 
Q 15.90625 -0.796875 12.75 2.34375 
Q 9.59375 5.5 9.40625 10.5 
L 9.40625 37.796875 
L 11.40625 37.796875 
L 11.40625 10.796875 
Q 11.59375 6.5 14.1875 3.84375 
Q 16.796875 1.203125 21.5 1 
Q 25.59375 1 29.1875 2.953125 
Q 32.796875 4.90625 35.046875 8.34375 
Q 37.296875 11.796875 37.296875 16 
L 37.296875 37.796875 
z
" id="JosefinSans-Thin-117"/>
     </defs>
     <g style="fill:#262626;" transform="translate(78.18024 46.19024)scale(0.14 -0.14)">
      <use xlink:href="#JosefinSans-Thin-84"/>
      <use x="57.499985" xlink:href="#JosefinSans-Thin-114"/>
      <use x="89.599976" xlink:href="#JosefinSans-Thin-117"/>
      <use x="138.299973" xlink:href="#JosefinSans-Thin-101"/>
      <use x="184.999969" xlink:href="#JosefinSans-Thin-32"/>
      <use x="215.09996" xlink:href="#JosefinSans-Thin-112"/>
      <use x="269.399948" xlink:href="#JosefinSans-Thin-111"/>
      <use x="319.699936" xlink:href="#JosefinSans-Thin-115"/>
      <use x="354.09993" xlink:href="#JosefinSans-Thin-116"/>
      <use x="384.499924" xlink:href="#JosefinSans-Thin-101"/>
      <use x="431.199921" xlink:href="#JosefinSans-Thin-114"/>
      <use x="463.299911" xlink:href="#JosefinSans-Thin-105"/>
      <use x="484.099899" xlink:href="#JosefinSans-Thin-111"/>
      <use x="534.399887" xlink:href="#JosefinSans-Thin-114"/>
     </g>
    </g>
   </g>
  </g>
 </g>
 <defs>
  <clipPath id="pbf4ba69631">
   <rect height="265.437958" width="834.61952" x="26.38024" y="3.00024"/>
  </clipPath>
 </defs>
</svg>
