<?xml version="1.0" encoding="utf-8" standalone="no"?>
<!DOCTYPE svg PUBLIC "-//W3C//DTD SVG 1.1//EN"
  "http://www.w3.org/Graphics/SVG/1.1/DTD/svg11.dtd">
<!-- Created with matplotlib (https://matplotlib.org/) -->
<svg height="288pt" version="1.1" viewBox="0 0 864 288" width="864pt" xmlns="http://www.w3.org/2000/svg" xmlns:xlink="http://www.w3.org/1999/xlink">
 <defs>
  <style type="text/css">
*{stroke-linecap:butt;stroke-linejoin:round;}
  </style>
 </defs>
 <g id="figure_1">
  <g id="patch_1">
   <path d="M 0 288 
L 864 288 
L 864 0 
L 0 0 
z
" style="fill:#ffffff;"/>
  </g>
  <g id="axes_1">
   <g id="patch_2">
    <path d="M 44.951803 249.251947 
L 286.426766 249.251947 
L 286.426766 21.40024 
L 44.951803 21.40024 
z
" style="fill:#ffffff;"/>
   </g>
   <g id="matplotlib.axis_1">
    <g id="xtick_1">
     <g id="line2d_1">
      <path clip-path="url(#p92ace98dfa)" d="M 55.927937 249.251947 
L 55.927937 21.40024 
" style="fill:none;stroke:#cccccc;stroke-dasharray:0.8,1.32;stroke-dashoffset:0;stroke-width:0.8;"/>
     </g>
     <g id="line2d_2"/>
     <g id="text_1">
      <!-- 0.00 -->
      <defs>
       <path d="M 31.203125 -0.296875 
Q 23.09375 -0.296875 16.84375 3.75 
Q 10.59375 7.796875 7.09375 15.390625 
Q 3.59375 23 3.59375 33.203125 
Q 3.59375 49.5 10.9375 58.046875 
Q 18.296875 66.59375 31.203125 66.5 
Q 39.296875 66.5 45.546875 62.5 
Q 51.796875 58.5 55.296875 50.890625 
Q 58.796875 43.296875 58.796875 33.203125 
Q 58.796875 22.796875 55.296875 15.1875 
Q 51.796875 7.59375 45.546875 3.59375 
Q 39.296875 -0.40625 31.203125 -0.296875 
z
M 31.09375 9 
Q 39.59375 9 44.140625 15.59375 
Q 48.703125 22.203125 48.796875 33.40625 
Q 48.703125 44.296875 44.140625 50.75 
Q 39.59375 57.203125 31.09375 57.203125 
Q 22.703125 57.203125 18.203125 50.703125 
Q 13.703125 44.203125 13.59375 33.203125 
Q 13.703125 22.09375 18.203125 15.546875 
Q 22.703125 9 31.09375 9 
z
" id="JosefinSans-Regular-48"/>
       <path d="M 3.40625 5.296875 
Q 3.40625 7.5 5 9.09375 
Q 6.59375 10.703125 8.703125 10.703125 
Q 10.59375 10.703125 12.25 9.09375 
Q 13.90625 7.5 13.90625 5.296875 
Q 13.90625 3 12.296875 1.5 
Q 10.703125 0 8.703125 0 
Q 6.59375 0 5 1.5 
Q 3.40625 3 3.40625 5.296875 
z
" id="JosefinSans-Regular-46"/>
      </defs>
      <g style="fill:#262626;" transform="translate(41.639187 263.601947)scale(0.14 -0.14)">
       <use xlink:href="#JosefinSans-Regular-48"/>
       <use x="62.399994" xlink:href="#JosefinSans-Regular-46"/>
       <use x="79.299988" xlink:href="#JosefinSans-Regular-48"/>
       <use x="141.699982" xlink:href="#JosefinSans-Regular-48"/>
      </g>
     </g>
    </g>
    <g id="xtick_2">
     <g id="line2d_3">
      <path clip-path="url(#p92ace98dfa)" d="M 110.808611 249.251947 
L 110.808611 21.40024 
" style="fill:none;stroke:#cccccc;stroke-dasharray:0.8,1.32;stroke-dashoffset:0;stroke-width:0.8;"/>
     </g>
     <g id="line2d_4"/>
     <g id="text_2">
      <!-- 0.25 -->
      <defs>
       <path d="M 50.203125 9.40625 
L 50.203125 0 
L 5.40625 0 
L 8.703125 3.296875 
Q 18.90625 13.5 24.59375 19.796875 
Q 30.296875 26.09375 34.140625 32.546875 
Q 38 39 38 44.796875 
Q 38 50.90625 34.390625 54.09375 
Q 30.796875 57.296875 25.59375 57.296875 
Q 21.5 57.296875 18.75 55.59375 
Q 16 53.90625 14.75 51.296875 
Q 13.5 48.703125 13.5 46.09375 
Q 13.5 39.703125 17.40625 35.59375 
L 11.5 30.203125 
Q 8.203125 32.203125 6.140625 36.953125 
Q 4.09375 41.703125 4.09375 45.90625 
Q 4.09375 51.40625 6.84375 56.15625 
Q 9.59375 60.90625 14.796875 63.75 
Q 20 66.59375 27.203125 66.59375 
Q 33.296875 66.59375 38.046875 63.75 
Q 42.796875 60.90625 45.390625 56.09375 
Q 48 51.296875 48 45.59375 
Q 48 39.90625 45.296875 34.203125 
Q 42.59375 28.5 38.640625 23.5 
Q 34.703125 18.5 28.09375 11.09375 
L 26.59375 9.40625 
z
" id="JosefinSans-Regular-50"/>
       <path d="M 25.703125 43 
Q 32.203125 43 36.84375 40.09375 
Q 41.5 37.203125 43.890625 32.34375 
Q 46.296875 27.5 46.296875 21.5 
Q 46.296875 15.296875 43.4375 10.1875 
Q 40.59375 5.09375 35.640625 2.140625 
Q 30.703125 -0.796875 24.5 -0.796875 
Q 19.40625 -0.796875 14.5 1.09375 
Q 9.59375 3 6.5 6 
L 11.703125 13.59375 
Q 13.703125 11.296875 17 9.890625 
Q 20.296875 8.5 23.703125 8.5 
Q 29.203125 8.5 32.75 12.046875 
Q 36.296875 15.59375 36.296875 21.203125 
Q 36.296875 27.296875 32.9375 31.046875 
Q 29.59375 34.796875 23.40625 34.796875 
Q 20.09375 34.796875 17.046875 33.84375 
Q 14 32.90625 10.703125 31 
L 10.59375 31 
L 10.59375 65.796875 
L 42.09375 65.796875 
L 42.09375 56.5 
L 19 56.5 
L 19 42.203125 
Q 22.203125 43 25.703125 43 
z
" id="JosefinSans-Regular-53"/>
      </defs>
      <g style="fill:#262626;" transform="translate(97.780955 263.601947)scale(0.14 -0.14)">
       <use xlink:href="#JosefinSans-Regular-48"/>
       <use x="62.399994" xlink:href="#JosefinSans-Regular-46"/>
       <use x="79.299988" xlink:href="#JosefinSans-Regular-50"/>
       <use x="133.799973" xlink:href="#JosefinSans-Regular-53"/>
      </g>
     </g>
    </g>
    <g id="xtick_3">
     <g id="line2d_5">
      <path clip-path="url(#p92ace98dfa)" d="M 165.689284 249.251947 
L 165.689284 21.40024 
" style="fill:none;stroke:#cccccc;stroke-dasharray:0.8,1.32;stroke-dashoffset:0;stroke-width:0.8;"/>
     </g>
     <g id="line2d_6"/>
     <g id="text_3">
      <!-- 0.50 -->
      <g style="fill:#262626;" transform="translate(152.108191 263.601947)scale(0.14 -0.14)">
       <use xlink:href="#JosefinSans-Regular-48"/>
       <use x="62.399994" xlink:href="#JosefinSans-Regular-46"/>
       <use x="79.299988" xlink:href="#JosefinSans-Regular-53"/>
       <use x="131.599976" xlink:href="#JosefinSans-Regular-48"/>
      </g>
     </g>
    </g>
    <g id="xtick_4">
     <g id="line2d_7">
      <path clip-path="url(#p92ace98dfa)" d="M 220.569958 249.251947 
L 220.569958 21.40024 
" style="fill:none;stroke:#cccccc;stroke-dasharray:0.8,1.32;stroke-dashoffset:0;stroke-width:0.8;"/>
     </g>
     <g id="line2d_8"/>
     <g id="text_4">
      <!-- 0.75 -->
      <defs>
       <path d="M 46.203125 65.796875 
L 19.796875 0 
L 8.90625 0 
L 32 56.5 
L 3.09375 56.5 
L 3.09375 65.796875 
z
" id="JosefinSans-Regular-55"/>
      </defs>
      <g style="fill:#262626;" transform="translate(207.927302 263.601947)scale(0.14 -0.14)">
       <use xlink:href="#JosefinSans-Regular-48"/>
       <use x="62.399994" xlink:href="#JosefinSans-Regular-46"/>
       <use x="79.299988" xlink:href="#JosefinSans-Regular-55"/>
       <use x="128.299973" xlink:href="#JosefinSans-Regular-53"/>
      </g>
     </g>
    </g>
    <g id="xtick_5">
     <g id="line2d_9">
      <path clip-path="url(#p92ace98dfa)" d="M 275.450631 249.251947 
L 275.450631 21.40024 
" style="fill:none;stroke:#cccccc;stroke-dasharray:0.8,1.32;stroke-dashoffset:0;stroke-width:0.8;"/>
     </g>
     <g id="line2d_10"/>
     <g id="text_5">
      <!-- 1.00 -->
      <defs>
       <path d="M 22.59375 65.796875 
L 22.59375 0 
L 12.796875 0 
L 12.796875 56.5 
L 5.296875 56.5 
L 5.296875 65.796875 
z
" id="JosefinSans-Regular-49"/>
      </defs>
      <g style="fill:#262626;" transform="translate(263.220319 263.601947)scale(0.14 -0.14)">
       <use xlink:href="#JosefinSans-Regular-49"/>
       <use x="32.999985" xlink:href="#JosefinSans-Regular-46"/>
       <use x="49.899979" xlink:href="#JosefinSans-Regular-48"/>
       <use x="112.299973" xlink:href="#JosefinSans-Regular-48"/>
      </g>
     </g>
    </g>
    <g id="text_6">
     <!-- probability of water -->
     <defs>
      <path d="M 34.296875 43.09375 
Q 40.09375 43.09375 44.796875 40.296875 
Q 49.5 37.5 52.203125 32.453125 
Q 54.90625 27.40625 54.90625 20.796875 
Q 54.90625 14.296875 52 9.34375 
Q 49.09375 4.40625 44 1.703125 
Q 38.90625 -1 32.59375 -1 
Q 28.09375 -1 24 0.953125 
Q 19.90625 2.90625 17.40625 6.203125 
L 17.40625 -19.90625 
L 8.09375 -19.90625 
L 8.09375 42.09375 
L 16.203125 42.09375 
L 17 35.09375 
Q 20.203125 38.703125 24.640625 40.890625 
Q 29.09375 43.09375 34.296875 43.09375 
z
M 30.796875 6.5 
Q 34.703125 6.5 38.046875 8.34375 
Q 41.40625 10.203125 43.40625 13.453125 
Q 45.40625 16.703125 45.40625 20.703125 
Q 45.40625 24.796875 43.546875 28.09375 
Q 41.703125 31.40625 38.5 33.296875 
Q 35.296875 35.203125 31.40625 35.203125 
Q 26.09375 35.203125 22.34375 32.25 
Q 18.59375 29.296875 17.40625 24.296875 
L 17.40625 17.40625 
Q 18.203125 12.59375 21.953125 9.546875 
Q 25.703125 6.5 30.796875 6.5 
z
" id="JosefinSans-Regular-112"/>
      <path d="M 17.09375 31.59375 
Q 18.703125 35 21.640625 37.59375 
Q 24.59375 40.203125 27.890625 41.59375 
Q 31.203125 43 33.703125 43.09375 
L 33.296875 33.796875 
Q 28.796875 34 25.140625 32 
Q 21.5 30 19.453125 26.453125 
Q 17.40625 22.90625 17.40625 18.90625 
L 17.40625 0 
L 8.09375 0 
L 8.09375 41.40625 
L 16.40625 41.40625 
L 17.09375 31.59375 
z
" id="JosefinSans-Regular-114"/>
      <path d="M 4.5 21.09375 
Q 4.5 27.203125 7.453125 32.25 
Q 10.40625 37.296875 15.65625 40.1875 
Q 20.90625 43.09375 27.5 43.09375 
Q 34.09375 43.09375 39.25 40.1875 
Q 44.40625 37.296875 47.25 32.296875 
Q 50.09375 27.296875 50.09375 21.09375 
Q 50.09375 14.90625 47.25 9.84375 
Q 44.40625 4.796875 39.203125 1.890625 
Q 34 -1 27.296875 -1 
Q 20.796875 -1 15.59375 1.75 
Q 10.40625 4.5 7.453125 9.5 
Q 4.5 14.5 4.5 21.09375 
z
M 13.90625 21 
Q 13.90625 17.09375 15.65625 13.796875 
Q 17.40625 10.5 20.453125 8.59375 
Q 23.5 6.703125 27.203125 6.703125 
Q 33 6.703125 36.796875 10.796875 
Q 40.59375 14.90625 40.59375 21 
Q 40.59375 27.09375 36.796875 31.25 
Q 33 35.40625 27.203125 35.40625 
Q 23.40625 35.40625 20.40625 33.453125 
Q 17.40625 31.5 15.65625 28.203125 
Q 13.90625 24.90625 13.90625 21 
z
" id="JosefinSans-Regular-111"/>
      <path d="M 34.59375 43.09375 
Q 40.203125 43.09375 44.84375 40.390625 
Q 49.5 37.703125 52.203125 32.796875 
Q 54.90625 27.90625 54.90625 21.40625 
Q 54.90625 14.59375 52 9.5 
Q 49.09375 4.40625 44.140625 1.703125 
Q 39.203125 -1 33.40625 -1 
Q 28.296875 -1 24.140625 1 
Q 20 3 17.40625 6.40625 
L 17.40625 0 
L 8.09375 0 
L 8.09375 77.5 
L 17.40625 77.5 
L 17.40625 35.90625 
Q 20 39.203125 24.546875 41.140625 
Q 29.09375 43.09375 34.59375 43.09375 
z
M 31.40625 7 
Q 37.5 7 41.453125 11.09375 
Q 45.40625 15.203125 45.40625 21.40625 
Q 45.40625 25.40625 43.546875 28.65625 
Q 41.703125 31.90625 38.5 33.796875 
Q 35.296875 35.703125 31.40625 35.703125 
Q 26.296875 35.703125 22.4375 32.953125 
Q 18.59375 30.203125 17.40625 25.703125 
L 17.40625 17.296875 
Q 18.59375 12.796875 22.390625 9.890625 
Q 26.203125 7 31.40625 7 
z
" id="JosefinSans-Regular-98"/>
      <path d="M 50.59375 41.40625 
L 50.59375 0 
L 41.296875 0 
L 41.296875 6.796875 
Q 39.09375 3.90625 34.890625 1.453125 
Q 30.703125 -1 25.40625 -1 
Q 19.5 -1 14.75 1.546875 
Q 10 4.09375 7.25 9 
Q 4.5 13.90625 4.5 20.703125 
Q 4.5 27.5 7.34375 32.546875 
Q 10.203125 37.59375 15.046875 40.34375 
Q 19.90625 43.09375 25.796875 43.09375 
Q 31.09375 43.09375 35 40.796875 
Q 38.90625 38.5 41.296875 34.796875 
L 42 41.40625 
z
M 27.90625 6.703125 
Q 33 6.703125 36.640625 9.546875 
Q 40.296875 12.40625 41.296875 17.296875 
L 41.296875 25.5 
Q 40.09375 29.90625 36.296875 32.65625 
Q 32.5 35.40625 27.59375 35.40625 
Q 23.90625 35.40625 20.75 33.59375 
Q 17.59375 31.796875 15.75 28.546875 
Q 13.90625 25.296875 13.90625 21.203125 
Q 13.90625 17.203125 15.796875 13.890625 
Q 17.703125 10.59375 20.890625 8.640625 
Q 24.09375 6.703125 27.90625 6.703125 
z
" id="JosefinSans-Regular-97"/>
      <path d="M 17.40625 41.40625 
L 17.40625 0 
L 8.09375 0 
L 8.09375 41.40625 
z
M 7.40625 56.296875 
Q 7.40625 58.5 9.09375 60 
Q 10.796875 61.5 13 61.5 
Q 15.203125 61.5 16.84375 60 
Q 18.5 58.5 18.5 56.296875 
Q 18.5 54.109375 16.84375 52.609375 
Q 15.203125 51.109375 13 51.109375 
Q 10.796875 51.109375 9.09375 52.609375 
Q 7.40625 54.109375 7.40625 56.296875 
z
" id="JosefinSans-Regular-105"/>
      <path d="M 17.40625 77.5 
L 17.40625 0 
L 8.09375 0 
L 8.09375 77.5 
z
" id="JosefinSans-Regular-108"/>
      <path d="M 21.5 59.59375 
L 21.5 41.296875 
L 32.796875 41.296875 
L 32.796875 33.90625 
L 21.5 33.90625 
L 21.5 0 
L 12.09375 0 
L 12.09375 33.90625 
L 4.5 33.90625 
L 4.5 41.296875 
L 12.09375 41.296875 
L 12.09375 59.59375 
z
" id="JosefinSans-Regular-116"/>
      <path d="M 47.5 41.40625 
L 20.796875 -19.90625 
L 11.59375 -19.90625 
L 21.09375 1.40625 
L 1.90625 41.40625 
L 12.40625 41.40625 
L 25.796875 11.90625 
L 38.90625 41.40625 
z
" id="JosefinSans-Regular-121"/>
      <path id="JosefinSans-Regular-32"/>
      <path d="M 11.5 33.09375 
L 4.40625 33.09375 
L 4.40625 41.5 
L 11.5 41.5 
L 11.5 58.90625 
Q 11.5 67.90625 15.59375 72.703125 
Q 19.703125 77.5 27.59375 77.5 
Q 29.796875 77.5 32.296875 76.84375 
Q 34.796875 76.203125 36.703125 75 
L 32.703125 68.203125 
Q 31.203125 69.796875 28.5 69.796875 
Q 24.703125 69.796875 22.75 67.1875 
Q 20.796875 64.59375 20.796875 58.796875 
L 20.796875 41.5 
L 34 41.5 
L 34 33.09375 
L 20.796875 33.09375 
L 20.796875 0 
L 11.5 0 
z
" id="JosefinSans-Regular-102"/>
      <path d="M 65.59375 41.40625 
L 46.5 -2.5 
L 33.203125 25.90625 
L 21.09375 -2.5 
L 1.90625 41.40625 
L 11.09375 41.40625 
L 22.203125 16.296875 
L 29.90625 34.296875 
L 26.59375 41.40625 
L 34.703125 41.40625 
L 45.90625 15.703125 
L 56.40625 41.40625 
z
" id="JosefinSans-Regular-119"/>
      <path d="M 27.5 7 
Q 32.703125 7 37.59375 10.59375 
L 41.90625 3.703125 
Q 38.59375 1.5 34.75 0.25 
Q 30.90625 -1 27.296875 -1 
Q 20.40625 -1 15.25 1.84375 
Q 10.09375 4.703125 7.296875 9.703125 
Q 4.5 14.703125 4.5 21 
Q 4.5 27.09375 7.546875 32.140625 
Q 10.59375 37.203125 15.890625 40.140625 
Q 21.203125 43.09375 27.5 43.09375 
Q 35.59375 43.09375 41.046875 38.34375 
Q 46.5 33.59375 48.5 25.09375 
L 15.703125 13.59375 
Q 17.5 10.5 20.546875 8.75 
Q 23.59375 7 27.5 7 
z
M 26.796875 35.703125 
Q 21.09375 35.703125 17.390625 31.703125 
Q 13.703125 27.703125 13.703125 21.5 
Q 13.703125 20 13.796875 19.203125 
L 37.90625 28.09375 
Q 36.40625 31.5 33.65625 33.59375 
Q 30.90625 35.703125 26.796875 35.703125 
z
" id="JosefinSans-Regular-101"/>
     </defs>
     <g style="fill:#262626;" transform="translate(98.333425 282.013823)scale(0.15 -0.15)">
      <use xlink:href="#JosefinSans-Regular-112"/>
      <use x="59.299988" xlink:href="#JosefinSans-Regular-114"/>
      <use x="96.899979" xlink:href="#JosefinSans-Regular-111"/>
      <use x="151.399963" xlink:href="#JosefinSans-Regular-98"/>
      <use x="210.699951" xlink:href="#JosefinSans-Regular-97"/>
      <use x="269.399948" xlink:href="#JosefinSans-Regular-98"/>
      <use x="328.699936" xlink:href="#JosefinSans-Regular-105"/>
      <use x="354.199921" xlink:href="#JosefinSans-Regular-108"/>
      <use x="379.699905" xlink:href="#JosefinSans-Regular-105"/>
      <use x="405.19989" xlink:href="#JosefinSans-Regular-116"/>
      <use x="441.199875" xlink:href="#JosefinSans-Regular-121"/>
      <use x="490.599869" xlink:href="#JosefinSans-Regular-32"/>
      <use x="522.19986" xlink:href="#JosefinSans-Regular-111"/>
      <use x="576.699844" xlink:href="#JosefinSans-Regular-102"/>
      <use x="614.699829" xlink:href="#JosefinSans-Regular-32"/>
      <use x="646.29982" xlink:href="#JosefinSans-Regular-119"/>
      <use x="713.799805" xlink:href="#JosefinSans-Regular-97"/>
      <use x="772.499802" xlink:href="#JosefinSans-Regular-116"/>
      <use x="808.499786" xlink:href="#JosefinSans-Regular-101"/>
      <use x="860.499771" xlink:href="#JosefinSans-Regular-114"/>
     </g>
    </g>
   </g>
   <g id="matplotlib.axis_2">
    <g id="ytick_1">
     <g id="line2d_11">
      <path clip-path="url(#p92ace98dfa)" d="M 44.951803 238.895052 
L 286.426766 238.895052 
" style="fill:none;stroke:#cccccc;stroke-dasharray:0.8,1.32;stroke-dashoffset:0;stroke-width:0.8;"/>
     </g>
     <g id="line2d_12"/>
     <g id="text_7">
      <!-- 0.0 -->
      <g style="fill:#262626;" transform="translate(21.611178 244.320052)scale(0.14 -0.14)">
       <use xlink:href="#JosefinSans-Regular-48"/>
       <use x="62.399994" xlink:href="#JosefinSans-Regular-46"/>
       <use x="79.299988" xlink:href="#JosefinSans-Regular-48"/>
      </g>
     </g>
    </g>
    <g id="ytick_2">
     <g id="line2d_13">
      <path clip-path="url(#p92ace98dfa)" d="M 44.951803 200.975636 
L 286.426766 200.975636 
" style="fill:none;stroke:#cccccc;stroke-dasharray:0.8,1.32;stroke-dashoffset:0;stroke-width:0.8;"/>
     </g>
     <g id="line2d_14"/>
     <g id="text_8">
      <!-- 0.5 -->
      <g style="fill:#262626;" transform="translate(23.02649 206.400636)scale(0.14 -0.14)">
       <use xlink:href="#JosefinSans-Regular-48"/>
       <use x="62.399994" xlink:href="#JosefinSans-Regular-46"/>
       <use x="79.299988" xlink:href="#JosefinSans-Regular-53"/>
      </g>
     </g>
    </g>
    <g id="ytick_3">
     <g id="line2d_15">
      <path clip-path="url(#p92ace98dfa)" d="M 44.951803 163.05622 
L 286.426766 163.05622 
" style="fill:none;stroke:#cccccc;stroke-dasharray:0.8,1.32;stroke-dashoffset:0;stroke-width:0.8;"/>
     </g>
     <g id="line2d_16"/>
     <g id="text_9">
      <!-- 1.0 -->
      <g style="fill:#262626;" transform="translate(25.728053 168.48122)scale(0.14 -0.14)">
       <use xlink:href="#JosefinSans-Regular-49"/>
       <use x="32.999985" xlink:href="#JosefinSans-Regular-46"/>
       <use x="49.899979" xlink:href="#JosefinSans-Regular-48"/>
      </g>
     </g>
    </g>
    <g id="ytick_4">
     <g id="line2d_17">
      <path clip-path="url(#p92ace98dfa)" d="M 44.951803 125.136804 
L 286.426766 125.136804 
" style="fill:none;stroke:#cccccc;stroke-dasharray:0.8,1.32;stroke-dashoffset:0;stroke-width:0.8;"/>
     </g>
     <g id="line2d_18"/>
     <g id="text_10">
      <!-- 1.5 -->
      <g style="fill:#262626;" transform="translate(27.143365 130.561804)scale(0.14 -0.14)">
       <use xlink:href="#JosefinSans-Regular-49"/>
       <use x="32.999985" xlink:href="#JosefinSans-Regular-46"/>
       <use x="49.899979" xlink:href="#JosefinSans-Regular-53"/>
      </g>
     </g>
    </g>
    <g id="ytick_5">
     <g id="line2d_19">
      <path clip-path="url(#p92ace98dfa)" d="M 44.951803 87.217388 
L 286.426766 87.217388 
" style="fill:none;stroke:#cccccc;stroke-dasharray:0.8,1.32;stroke-dashoffset:0;stroke-width:0.8;"/>
     </g>
     <g id="line2d_20"/>
     <g id="text_11">
      <!-- 2.0 -->
      <g style="fill:#262626;" transform="translate(22.718053 92.642388)scale(0.14 -0.14)">
       <use xlink:href="#JosefinSans-Regular-50"/>
       <use x="54.499985" xlink:href="#JosefinSans-Regular-46"/>
       <use x="71.399979" xlink:href="#JosefinSans-Regular-48"/>
      </g>
     </g>
    </g>
    <g id="ytick_6">
     <g id="line2d_21">
      <path clip-path="url(#p92ace98dfa)" d="M 44.951803 49.297972 
L 286.426766 49.297972 
" style="fill:none;stroke:#cccccc;stroke-dasharray:0.8,1.32;stroke-dashoffset:0;stroke-width:0.8;"/>
     </g>
     <g id="line2d_22"/>
     <g id="text_12">
      <!-- 2.5 -->
      <g style="fill:#262626;" transform="translate(24.133365 54.722972)scale(0.14 -0.14)">
       <use xlink:href="#JosefinSans-Regular-50"/>
       <use x="54.499985" xlink:href="#JosefinSans-Regular-46"/>
       <use x="71.399979" xlink:href="#JosefinSans-Regular-53"/>
      </g>
     </g>
    </g>
    <g id="text_13">
     <!-- density -->
     <defs>
      <path d="M 51.296875 77.5 
L 51.296875 0 
L 41.90625 0 
L 41.90625 6.5 
Q 38.90625 3 34.546875 1 
Q 30.203125 -1 25 -1 
Q 19.203125 -1 14.5 1.796875 
Q 9.796875 4.59375 7.140625 9.640625 
Q 4.5 14.703125 4.5 21.296875 
Q 4.5 28 7.296875 32.953125 
Q 10.09375 37.90625 15 40.5 
Q 19.90625 43.09375 26.09375 43.09375 
Q 30.796875 43.09375 35.140625 41.140625 
Q 39.5 39.203125 42 35.796875 
L 42 77.5 
z
M 27.90625 7 
Q 33.296875 7 37.046875 9.890625 
Q 40.796875 12.796875 41.90625 17.703125 
L 41.90625 25.5 
Q 40.703125 30 36.796875 32.84375 
Q 32.90625 35.703125 27.90625 35.703125 
Q 24.09375 35.703125 20.890625 33.84375 
Q 17.703125 32 15.796875 28.75 
Q 13.90625 25.5 13.90625 21.40625 
Q 13.90625 17.40625 15.796875 14.09375 
Q 17.703125 10.796875 20.890625 8.890625 
Q 24.09375 7 27.90625 7 
z
" id="JosefinSans-Regular-100"/>
      <path d="M 33.796875 43 
Q 39.59375 43 43.390625 39.546875 
Q 47.203125 36.09375 47.296875 30.59375 
L 47.296875 0 
L 37.90625 0 
L 37.90625 27.40625 
Q 37.703125 30.90625 35.796875 32.90625 
Q 33.90625 34.90625 30.09375 35 
Q 24.59375 35 21 30.59375 
Q 17.40625 26.203125 17.40625 19.40625 
L 17.40625 0 
L 8.09375 0 
L 8.09375 41.40625 
L 16.5 41.40625 
L 17.09375 33.40625 
Q 19.296875 37.90625 23.6875 40.453125 
Q 28.09375 43 33.796875 43 
z
" id="JosefinSans-Regular-110"/>
      <path d="M 19.796875 -0.90625 
Q 15.203125 -0.90625 11.046875 0.6875 
Q 6.90625 2.296875 4.296875 5.40625 
L 8.296875 10.796875 
Q 10.796875 8.40625 13.546875 7.09375 
Q 16.296875 5.796875 19 5.796875 
Q 22.296875 5.796875 24.390625 7.09375 
Q 26.5 8.40625 26.5 11.09375 
Q 26.5 13.203125 25.203125 14.5 
Q 23.90625 15.796875 22.25 16.390625 
Q 20.59375 17 16.703125 18.203125 
Q 6.09375 21.59375 6.09375 30.296875 
Q 6.09375 35.5 9.9375 39.203125 
Q 13.796875 42.90625 20.703125 42.90625 
Q 25.09375 42.90625 28.5 41.796875 
Q 31.90625 40.703125 34.796875 38.296875 
L 31.09375 32.59375 
Q 29.5 34.296875 27.046875 35.296875 
Q 24.59375 36.296875 22.40625 36.40625 
Q 19.59375 36.40625 17.59375 35.046875 
Q 15.59375 33.703125 15.59375 31.40625 
Q 15.59375 29.5 16.890625 28.25 
Q 18.203125 27 19.59375 26.453125 
Q 21 25.90625 25.09375 24.59375 
Q 30.203125 22.90625 33.046875 20.203125 
Q 35.90625 17.5 35.90625 12.90625 
Q 35.90625 6.90625 31.703125 3 
Q 27.5 -0.90625 19.796875 -0.90625 
z
" id="JosefinSans-Regular-115"/>
     </defs>
     <g style="fill:#262626;" transform="translate(14.62524 159.198359)rotate(-90)scale(0.15 -0.15)">
      <use xlink:href="#JosefinSans-Regular-100"/>
      <use x="59.299988" xlink:href="#JosefinSans-Regular-101"/>
      <use x="111.299973" xlink:href="#JosefinSans-Regular-110"/>
      <use x="166.59996" xlink:href="#JosefinSans-Regular-115"/>
      <use x="207.399948" xlink:href="#JosefinSans-Regular-105"/>
      <use x="232.899933" xlink:href="#JosefinSans-Regular-116"/>
      <use x="268.899918" xlink:href="#JosefinSans-Regular-121"/>
     </g>
    </g>
   </g>
   <g id="line2d_23">
    <path clip-path="url(#p92ace98dfa)" d="M 55.927937 238.895052 
L 58.145338 238.895052 
L 60.362739 238.895048 
L 62.58014 238.895007 
L 64.797541 238.894807 
L 67.014942 238.894147 
L 69.232343 238.892435 
L 71.449744 238.888663 
L 73.667145 238.881276 
L 75.884546 238.868035 
L 78.101947 238.84589 
L 80.319348 238.810862 
L 82.536749 238.757932 
L 84.75415 238.680955 
L 86.971551 238.572589 
L 89.188951 238.424248 
L 91.406352 238.226079 
L 93.623753 237.966963 
L 95.841154 237.634548 
L 98.058555 237.215298 
L 100.275956 236.694582 
L 102.493357 236.056781 
L 104.710758 235.285424 
L 106.928159 234.363343 
L 109.14556 233.272863 
L 111.362961 231.996 
L 113.580362 230.514689 
L 115.797763 228.811019 
L 118.015164 226.867495 
L 120.232565 224.6673 
L 122.449966 222.194571 
L 124.667367 219.434683 
L 126.884768 216.37453 
L 129.102169 213.002812 
L 131.31957 209.310313 
L 133.536971 205.290171 
L 135.754371 200.938144 
L 137.971772 196.252854 
L 140.189173 191.236016 
L 142.406574 185.892648 
L 144.623975 180.231257 
L 146.841376 174.26399 
L 149.058777 168.006765 
L 151.276178 161.479363 
L 153.493579 154.705481 
L 155.71098 147.712754 
L 157.928381 140.532731 
L 160.145782 133.200805 
L 162.363183 125.756107 
L 164.580584 118.241347 
L 166.797985 110.702605 
L 169.015386 103.189087 
L 171.232787 95.752813 
L 173.450188 88.448277 
L 175.667589 81.332041 
L 177.88499 74.462296 
L 180.10239 67.898364 
L 182.319791 61.700169 
L 184.537192 55.927658 
L 186.754593 50.640185 
L 188.971994 45.895859 
L 191.189395 41.750868 
L 193.406796 38.258766 
L 195.624197 35.46975 
L 197.841598 33.429913 
L 200.058999 32.180495 
L 202.2764 31.757136 
L 204.493801 32.189129 
L 206.711202 33.498699 
L 208.928603 35.700304 
L 211.146004 38.799975 
L 213.363405 42.794708 
L 215.580806 47.671914 
L 217.798207 53.40895 
L 220.015608 59.972735 
L 222.233009 67.319472 
L 224.45041 75.394497 
L 226.66781 84.132257 
L 228.885211 93.456457 
L 231.102612 103.280371 
L 233.320013 113.507364 
L 235.537414 124.031617 
L 237.754815 134.73911 
L 239.972216 145.508859 
L 242.189617 156.214443 
L 244.407018 166.725862 
L 246.624419 176.911718 
L 248.84182 186.641788 
L 251.059221 195.789991 
L 253.276622 204.237793 
L 255.494023 211.878075 
L 257.711424 218.619509 
L 259.928825 224.39147 
L 262.146226 229.149518 
L 264.363627 232.881496 
L 266.581028 235.614282 
L 268.798429 237.421229 
L 271.015829 238.43035 
L 273.23323 238.833277 
L 275.450631 238.895052 
" style="fill:none;stroke:#cfcbbf;stroke-linecap:round;stroke-width:1.5;"/>
   </g>
   <g id="line2d_24">
    <path clip-path="url(#p92ace98dfa)" d="M 55.927937 238.87129 
L 58.145338 238.863904 
L 60.362739 238.854391 
L 62.58014 238.842191 
L 64.797541 238.826614 
L 67.014942 238.806812 
L 69.232343 238.781749 
L 71.449744 238.750168 
L 73.667145 238.710549 
L 75.884546 238.661064 
L 78.101947 238.599531 
L 80.319348 238.523355 
L 82.536749 238.429471 
L 84.75415 238.314279 
L 86.971551 238.173574 
L 89.188951 238.002476 
L 91.406352 237.795356 
L 93.623753 237.545761 
L 95.841154 237.246343 
L 98.058555 236.88879 
L 100.275956 236.463761 
L 102.493357 235.960841 
L 104.710758 235.368492 
L 106.928159 234.674039 
L 109.14556 233.863669 
L 111.362961 232.922451 
L 113.580362 231.834397 
L 115.797763 230.582547 
L 118.015164 229.149102 
L 120.232565 227.515586 
L 122.449966 225.663067 
L 124.667367 223.572416 
L 126.884768 221.224612 
L 129.102169 218.6011 
L 131.31957 215.684188 
L 133.536971 212.457492 
L 135.754371 208.906408 
L 137.971772 205.018618 
L 140.189173 200.784614 
L 142.406574 196.198227 
L 144.623975 191.257151 
L 146.841376 185.963448 
L 149.058777 180.324019 
L 151.276178 174.351017 
L 153.493579 168.0622 
L 155.71098 161.481188 
L 157.928381 154.637633 
L 160.145782 147.56726 
L 162.363183 140.311797 
L 164.580584 132.918754 
L 166.797985 125.441072 
L 169.015386 117.936629 
L 171.232787 110.467592 
L 173.450188 103.09965 
L 175.667589 95.901113 
L 177.88499 88.941903 
L 180.10239 82.292459 
L 182.319791 76.022576 
L 184.537192 70.200195 
L 186.754593 64.89019 
L 188.971994 60.153174 
L 191.189395 56.044344 
L 193.406796 52.612418 
L 195.624197 49.898671 
L 197.841598 47.936109 
L 200.058999 46.748803 
L 202.2764 46.351396 
L 204.493801 46.748803 
L 206.711202 47.936109 
L 208.928603 49.89867 
L 211.146004 52.612418 
L 213.363405 56.044344 
L 215.580806 60.153173 
L 217.798207 64.89019 
L 220.015608 70.200194 
L 222.233009 76.022576 
L 224.45041 82.292459 
L 226.66781 88.941902 
L 228.885211 95.901112 
L 231.102612 103.099649 
L 233.320013 110.467591 
L 235.537414 117.936628 
L 237.754815 125.441072 
L 239.972216 132.918753 
L 242.189617 140.311796 
L 244.407018 147.56726 
L 246.624419 154.637632 
L 248.84182 161.481188 
L 251.059221 168.062199 
L 253.276622 174.351017 
L 255.494023 180.324018 
L 257.711424 185.963447 
L 259.928825 191.25715 
L 262.146226 196.198227 
L 264.363627 200.784614 
L 266.581028 205.018618 
L 268.798429 208.906408 
L 271.015829 212.457492 
L 273.23323 215.684188 
L 275.450631 218.6011 
" style="fill:none;stroke:#81aca4;stroke-linecap:round;stroke-width:1.5;"/>
   </g>
   <g id="text_14">
    <!-- $n=9$ -->
    <defs>
     <path d="M 55.71875 33.015625 
L 49.3125 0 
L 40.28125 0 
L 46.6875 32.671875 
Q 47.125 34.96875 47.359375 36.71875 
Q 47.609375 38.484375 47.609375 39.5 
Q 47.609375 43.609375 45.015625 45.890625 
Q 42.4375 48.1875 37.796875 48.1875 
Q 30.5625 48.1875 25.34375 43.375 
Q 20.125 38.578125 18.5 30.328125 
L 12.5 0 
L 3.515625 0 
L 14.109375 54.6875 
L 23.09375 54.6875 
L 21.296875 46.09375 
Q 25.046875 50.828125 30.3125 53.40625 
Q 35.59375 56 41.40625 56 
Q 48.640625 56 52.609375 52.09375 
Q 56.59375 48.1875 56.59375 41.109375 
Q 56.59375 39.359375 56.375 37.359375 
Q 56.15625 35.359375 55.71875 33.015625 
z
" id="DejaVuSans-Oblique-110"/>
     <path d="M 10.59375 45.40625 
L 73.1875 45.40625 
L 73.1875 37.203125 
L 10.59375 37.203125 
z
M 10.59375 25.484375 
L 73.1875 25.484375 
L 73.1875 17.1875 
L 10.59375 17.1875 
z
" id="DejaVuSans-61"/>
     <path d="M 10.984375 1.515625 
L 10.984375 10.5 
Q 14.703125 8.734375 18.5 7.8125 
Q 22.3125 6.890625 25.984375 6.890625 
Q 35.75 6.890625 40.890625 13.453125 
Q 46.046875 20.015625 46.78125 33.40625 
Q 43.953125 29.203125 39.59375 26.953125 
Q 35.25 24.703125 29.984375 24.703125 
Q 19.046875 24.703125 12.671875 31.3125 
Q 6.296875 37.9375 6.296875 49.421875 
Q 6.296875 60.640625 12.9375 67.421875 
Q 19.578125 74.21875 30.609375 74.21875 
Q 43.265625 74.21875 49.921875 64.515625 
Q 56.59375 54.828125 56.59375 36.375 
Q 56.59375 19.140625 48.40625 8.859375 
Q 40.234375 -1.421875 26.421875 -1.421875 
Q 22.703125 -1.421875 18.890625 -0.6875 
Q 15.09375 0.046875 10.984375 1.515625 
z
M 30.609375 32.421875 
Q 37.25 32.421875 41.125 36.953125 
Q 45.015625 41.5 45.015625 49.421875 
Q 45.015625 57.28125 41.125 61.84375 
Q 37.25 66.40625 30.609375 66.40625 
Q 23.96875 66.40625 20.09375 61.84375 
Q 16.21875 57.28125 16.21875 49.421875 
Q 16.21875 41.5 20.09375 36.953125 
Q 23.96875 32.421875 30.609375 32.421875 
z
" id="DejaVuSans-57"/>
    </defs>
    <g style="fill:#262626;" transform="translate(145.689284 15.40024)scale(0.16 -0.16)">
     <use transform="translate(0 0.78125)" xlink:href="#DejaVuSans-Oblique-110"/>
     <use transform="translate(82.861328 0.78125)" xlink:href="#DejaVuSans-61"/>
     <use transform="translate(186.132812 0.78125)" xlink:href="#DejaVuSans-57"/>
    </g>
   </g>
   <g id="legend_1">
    <g id="line2d_25">
     <path d="M 57.551803 39.95024 
L 85.551803 39.95024 
" style="fill:none;stroke:#cfcbbf;stroke-linecap:round;stroke-width:1.5;"/>
    </g>
    <g id="line2d_26"/>
    <g id="text_15">
     <!-- True posterior -->
     <defs>
      <path d="M 53.09375 72.296875 
L 53.09375 63 
L 33.703125 63 
L 33.703125 0 
L 24 0 
L 24 63 
L 5.09375 63 
L 5.09375 72.296875 
z
" id="JosefinSans-Regular-84"/>
      <path d="M 46.59375 41.40625 
L 46.59375 0 
L 38.203125 0 
L 37.59375 7.90625 
Q 35.5 3.703125 31.09375 1.046875 
Q 26.703125 -1.59375 21.296875 -1.59375 
Q 15.59375 -1.59375 11.9375 1.84375 
Q 8.296875 5.296875 8.09375 10.796875 
L 8.09375 41.40625 
L 17.40625 41.40625 
L 17.40625 14.09375 
Q 17.59375 10.59375 19.4375 8.546875 
Q 21.296875 6.5 25 6.40625 
Q 28.40625 6.40625 31.203125 8.453125 
Q 34 10.5 35.640625 14.09375 
Q 37.296875 17.703125 37.296875 22.09375 
L 37.296875 41.40625 
z
" id="JosefinSans-Regular-117"/>
     </defs>
     <g style="fill:#262626;" transform="translate(96.751803 44.85024)scale(0.14 -0.14)">
      <use xlink:href="#JosefinSans-Regular-84"/>
      <use x="58.199997" xlink:href="#JosefinSans-Regular-114"/>
      <use x="95.799988" xlink:href="#JosefinSans-Regular-117"/>
      <use x="150.499985" xlink:href="#JosefinSans-Regular-101"/>
      <use x="202.499969" xlink:href="#JosefinSans-Regular-32"/>
      <use x="234.09996" xlink:href="#JosefinSans-Regular-112"/>
      <use x="293.399948" xlink:href="#JosefinSans-Regular-111"/>
      <use x="347.899933" xlink:href="#JosefinSans-Regular-115"/>
      <use x="388.699921" xlink:href="#JosefinSans-Regular-116"/>
      <use x="424.699905" xlink:href="#JosefinSans-Regular-101"/>
      <use x="476.69989" xlink:href="#JosefinSans-Regular-114"/>
      <use x="514.299881" xlink:href="#JosefinSans-Regular-105"/>
      <use x="539.799866" xlink:href="#JosefinSans-Regular-111"/>
      <use x="594.29985" xlink:href="#JosefinSans-Regular-114"/>
     </g>
    </g>
    <g id="line2d_27">
     <path d="M 57.551803 60.587115 
L 85.551803 60.587115 
" style="fill:none;stroke:#81aca4;stroke-linecap:round;stroke-width:1.5;"/>
    </g>
    <g id="line2d_28"/>
    <g id="text_16">
     <!-- Quadratic approximation -->
     <defs>
      <path d="M 82.90625 0 
L 50.40625 0 
Q 46.59375 -0.796875 42.796875 -0.796875 
Q 32.796875 -0.796875 24.296875 4.09375 
Q 15.796875 9 10.84375 17.453125 
Q 5.90625 25.90625 5.90625 36.09375 
Q 5.90625 46 10.90625 54.5 
Q 15.90625 63 24.34375 68.046875 
Q 32.796875 73.09375 42.796875 73.09375 
Q 52.703125 73.09375 61.203125 68.046875 
Q 69.703125 63 74.75 54.5 
Q 79.796875 46 79.796875 36.09375 
Q 79.796875 28.40625 76.796875 21.5 
Q 73.796875 14.59375 68.40625 9.5 
L 82.90625 9.5 
z
M 15.90625 36 
Q 15.90625 28.59375 19.5 22.296875 
Q 23.09375 16 29.34375 12.296875 
Q 35.59375 8.59375 43 8.59375 
Q 50.40625 8.59375 56.546875 12.25 
Q 62.703125 15.90625 66.25 22.25 
Q 69.796875 28.59375 69.796875 36.09375 
Q 69.796875 43.5 66.1875 49.796875 
Q 62.59375 56.09375 56.390625 59.796875 
Q 50.203125 63.5 42.796875 63.5 
Q 35.40625 63.5 29.203125 59.75 
Q 23 56 19.453125 49.703125 
Q 15.90625 43.40625 15.90625 36 
z
" id="JosefinSans-Regular-81"/>
      <path d="M 41.703125 3.90625 
Q 38.90625 1.59375 35.046875 0.296875 
Q 31.203125 -1 27.203125 -1 
Q 20.5 -1 15.34375 1.703125 
Q 10.203125 4.40625 7.34375 9.34375 
Q 4.5 14.296875 4.5 20.796875 
Q 4.5 27.203125 7.5 32.140625 
Q 10.5 37.09375 15.5 39.796875 
Q 20.5 42.5 26.296875 42.5 
Q 35.796875 42.5 42 37.296875 
L 37.296875 31.203125 
Q 35.296875 32.703125 32.6875 33.75 
Q 30.09375 34.796875 27.09375 34.796875 
Q 23.40625 34.796875 20.34375 32.9375 
Q 17.296875 31.09375 15.546875 27.890625 
Q 13.796875 24.703125 13.796875 20.796875 
Q 13.796875 16.90625 15.640625 13.703125 
Q 17.5 10.5 20.703125 8.59375 
Q 23.90625 6.703125 28 6.703125 
Q 33.09375 6.703125 36.90625 9.703125 
L 41.703125 3.90625 
z
" id="JosefinSans-Regular-99"/>
      <path d="M 33.40625 0 
L 22.296875 14.59375 
L 11.90625 0 
L 2.40625 0 
L 17.59375 20.796875 
L 1.90625 41.40625 
L 13.5 41.40625 
L 24.40625 27 
L 33.703125 41.40625 
L 43.09375 41.40625 
L 28.703125 21.296875 
L 44.703125 0 
z
" id="JosefinSans-Regular-120"/>
      <path d="M 61.203125 43.09375 
Q 67.203125 43.09375 70.75 39.6875 
Q 74.296875 36.296875 74.5 30.703125 
L 74.5 0 
L 65.203125 0 
L 65.203125 27.296875 
Q 64.90625 34.59375 58.59375 35 
Q 55 35 52.140625 32.84375 
Q 49.296875 30.703125 47.6875 27.203125 
Q 46.09375 23.703125 46 19.703125 
L 46 0 
L 36.59375 0 
L 36.59375 27.296875 
Q 36.296875 34.59375 29.796875 35 
Q 26.296875 35 23.4375 32.84375 
Q 20.59375 30.703125 19 27.140625 
Q 17.40625 23.59375 17.40625 19.59375 
L 17.40625 0 
L 8.09375 0 
L 8.09375 41.40625 
L 16.5 41.40625 
L 17.203125 33.59375 
Q 19.59375 38.09375 23.75 40.59375 
Q 27.90625 43.09375 33.203125 43.09375 
Q 38.203125 43.09375 41.59375 40.75 
Q 45 38.40625 46 34.296875 
Q 48.59375 38.40625 52.59375 40.75 
Q 56.59375 43.09375 61.203125 43.09375 
z
" id="JosefinSans-Regular-109"/>
     </defs>
     <g style="fill:#262626;" transform="translate(96.751803 65.487115)scale(0.14 -0.14)">
      <use xlink:href="#JosefinSans-Regular-81"/>
      <use x="88.799988" xlink:href="#JosefinSans-Regular-117"/>
      <use x="143.499985" xlink:href="#JosefinSans-Regular-97"/>
      <use x="202.199982" xlink:href="#JosefinSans-Regular-100"/>
      <use x="261.499969" xlink:href="#JosefinSans-Regular-114"/>
      <use x="299.09996" xlink:href="#JosefinSans-Regular-97"/>
      <use x="357.799957" xlink:href="#JosefinSans-Regular-116"/>
      <use x="393.799942" xlink:href="#JosefinSans-Regular-105"/>
      <use x="419.299927" xlink:href="#JosefinSans-Regular-99"/>
      <use x="464.899918" xlink:href="#JosefinSans-Regular-32"/>
      <use x="496.499908" xlink:href="#JosefinSans-Regular-97"/>
      <use x="555.199905" xlink:href="#JosefinSans-Regular-112"/>
      <use x="614.499893" xlink:href="#JosefinSans-Regular-112"/>
      <use x="673.799881" xlink:href="#JosefinSans-Regular-114"/>
      <use x="711.399872" xlink:href="#JosefinSans-Regular-111"/>
      <use x="765.899857" xlink:href="#JosefinSans-Regular-120"/>
      <use x="812.499847" xlink:href="#JosefinSans-Regular-105"/>
      <use x="837.999832" xlink:href="#JosefinSans-Regular-109"/>
      <use x="920.499817" xlink:href="#JosefinSans-Regular-97"/>
      <use x="979.199814" xlink:href="#JosefinSans-Regular-116"/>
      <use x="1015.199799" xlink:href="#JosefinSans-Regular-105"/>
      <use x="1040.699783" xlink:href="#JosefinSans-Regular-111"/>
      <use x="1095.199768" xlink:href="#JosefinSans-Regular-110"/>
     </g>
    </g>
   </g>
  </g>
  <g id="axes_2">
   <g id="patch_3">
    <path d="M 331.170552 249.251947 
L 572.645516 249.251947 
L 572.645516 21.40024 
L 331.170552 21.40024 
z
" style="fill:#ffffff;"/>
   </g>
   <g id="matplotlib.axis_3">
    <g id="xtick_6">
     <g id="line2d_29">
      <path clip-path="url(#pea099facf4)" d="M 342.146687 249.251947 
L 342.146687 21.40024 
" style="fill:none;stroke:#cccccc;stroke-dasharray:0.8,1.32;stroke-dashoffset:0;stroke-width:0.8;"/>
     </g>
     <g id="line2d_30"/>
     <g id="text_17">
      <!-- 0.00 -->
      <g style="fill:#262626;" transform="translate(327.857937 263.601947)scale(0.14 -0.14)">
       <use xlink:href="#JosefinSans-Regular-48"/>
       <use x="62.399994" xlink:href="#JosefinSans-Regular-46"/>
       <use x="79.299988" xlink:href="#JosefinSans-Regular-48"/>
       <use x="141.699982" xlink:href="#JosefinSans-Regular-48"/>
      </g>
     </g>
    </g>
    <g id="xtick_7">
     <g id="line2d_31">
      <path clip-path="url(#pea099facf4)" d="M 397.027361 249.251947 
L 397.027361 21.40024 
" style="fill:none;stroke:#cccccc;stroke-dasharray:0.8,1.32;stroke-dashoffset:0;stroke-width:0.8;"/>
     </g>
     <g id="line2d_32"/>
     <g id="text_18">
      <!-- 0.25 -->
      <g style="fill:#262626;" transform="translate(383.999705 263.601947)scale(0.14 -0.14)">
       <use xlink:href="#JosefinSans-Regular-48"/>
       <use x="62.399994" xlink:href="#JosefinSans-Regular-46"/>
       <use x="79.299988" xlink:href="#JosefinSans-Regular-50"/>
       <use x="133.799973" xlink:href="#JosefinSans-Regular-53"/>
      </g>
     </g>
    </g>
    <g id="xtick_8">
     <g id="line2d_33">
      <path clip-path="url(#pea099facf4)" d="M 451.908034 249.251947 
L 451.908034 21.40024 
" style="fill:none;stroke:#cccccc;stroke-dasharray:0.8,1.32;stroke-dashoffset:0;stroke-width:0.8;"/>
     </g>
     <g id="line2d_34"/>
     <g id="text_19">
      <!-- 0.50 -->
      <g style="fill:#262626;" transform="translate(438.326941 263.601947)scale(0.14 -0.14)">
       <use xlink:href="#JosefinSans-Regular-48"/>
       <use x="62.399994" xlink:href="#JosefinSans-Regular-46"/>
       <use x="79.299988" xlink:href="#JosefinSans-Regular-53"/>
       <use x="131.599976" xlink:href="#JosefinSans-Regular-48"/>
      </g>
     </g>
    </g>
    <g id="xtick_9">
     <g id="line2d_35">
      <path clip-path="url(#pea099facf4)" d="M 506.788708 249.251947 
L 506.788708 21.40024 
" style="fill:none;stroke:#cccccc;stroke-dasharray:0.8,1.32;stroke-dashoffset:0;stroke-width:0.8;"/>
     </g>
     <g id="line2d_36"/>
     <g id="text_20">
      <!-- 0.75 -->
      <g style="fill:#262626;" transform="translate(494.146052 263.601947)scale(0.14 -0.14)">
       <use xlink:href="#JosefinSans-Regular-48"/>
       <use x="62.399994" xlink:href="#JosefinSans-Regular-46"/>
       <use x="79.299988" xlink:href="#JosefinSans-Regular-55"/>
       <use x="128.299973" xlink:href="#JosefinSans-Regular-53"/>
      </g>
     </g>
    </g>
    <g id="xtick_10">
     <g id="line2d_37">
      <path clip-path="url(#pea099facf4)" d="M 561.669381 249.251947 
L 561.669381 21.40024 
" style="fill:none;stroke:#cccccc;stroke-dasharray:0.8,1.32;stroke-dashoffset:0;stroke-width:0.8;"/>
     </g>
     <g id="line2d_38"/>
     <g id="text_21">
      <!-- 1.00 -->
      <g style="fill:#262626;" transform="translate(549.439069 263.601947)scale(0.14 -0.14)">
       <use xlink:href="#JosefinSans-Regular-49"/>
       <use x="32.999985" xlink:href="#JosefinSans-Regular-46"/>
       <use x="49.899979" xlink:href="#JosefinSans-Regular-48"/>
       <use x="112.299973" xlink:href="#JosefinSans-Regular-48"/>
      </g>
     </g>
    </g>
    <g id="text_22">
     <!-- probability of water -->
     <g style="fill:#262626;" transform="translate(384.552175 282.013823)scale(0.15 -0.15)">
      <use xlink:href="#JosefinSans-Regular-112"/>
      <use x="59.299988" xlink:href="#JosefinSans-Regular-114"/>
      <use x="96.899979" xlink:href="#JosefinSans-Regular-111"/>
      <use x="151.399963" xlink:href="#JosefinSans-Regular-98"/>
      <use x="210.699951" xlink:href="#JosefinSans-Regular-97"/>
      <use x="269.399948" xlink:href="#JosefinSans-Regular-98"/>
      <use x="328.699936" xlink:href="#JosefinSans-Regular-105"/>
      <use x="354.199921" xlink:href="#JosefinSans-Regular-108"/>
      <use x="379.699905" xlink:href="#JosefinSans-Regular-105"/>
      <use x="405.19989" xlink:href="#JosefinSans-Regular-116"/>
      <use x="441.199875" xlink:href="#JosefinSans-Regular-121"/>
      <use x="490.599869" xlink:href="#JosefinSans-Regular-32"/>
      <use x="522.19986" xlink:href="#JosefinSans-Regular-111"/>
      <use x="576.699844" xlink:href="#JosefinSans-Regular-102"/>
      <use x="614.699829" xlink:href="#JosefinSans-Regular-32"/>
      <use x="646.29982" xlink:href="#JosefinSans-Regular-119"/>
      <use x="713.799805" xlink:href="#JosefinSans-Regular-97"/>
      <use x="772.499802" xlink:href="#JosefinSans-Regular-116"/>
      <use x="808.499786" xlink:href="#JosefinSans-Regular-101"/>
      <use x="860.499771" xlink:href="#JosefinSans-Regular-114"/>
     </g>
    </g>
   </g>
   <g id="matplotlib.axis_4">
    <g id="ytick_7">
     <g id="line2d_39">
      <path clip-path="url(#pea099facf4)" d="M 331.170552 238.895052 
L 572.645516 238.895052 
" style="fill:none;stroke:#cccccc;stroke-dasharray:0.8,1.32;stroke-dashoffset:0;stroke-width:0.8;"/>
     </g>
     <g id="line2d_40"/>
     <g id="text_23">
      <!-- 0 -->
      <g style="fill:#262626;" transform="translate(318.933677 244.320052)scale(0.14 -0.14)">
       <use xlink:href="#JosefinSans-Regular-48"/>
      </g>
     </g>
    </g>
    <g id="ytick_8">
     <g id="line2d_41">
      <path clip-path="url(#pea099facf4)" d="M 331.170552 183.348503 
L 572.645516 183.348503 
" style="fill:none;stroke:#cccccc;stroke-dasharray:0.8,1.32;stroke-dashoffset:0;stroke-width:0.8;"/>
     </g>
     <g id="line2d_42"/>
     <g id="text_24">
      <!-- 1 -->
      <g style="fill:#262626;" transform="translate(323.050552 188.773503)scale(0.14 -0.14)">
       <use xlink:href="#JosefinSans-Regular-49"/>
      </g>
     </g>
    </g>
    <g id="ytick_9">
     <g id="line2d_43">
      <path clip-path="url(#pea099facf4)" d="M 331.170552 127.801955 
L 572.645516 127.801955 
" style="fill:none;stroke:#cccccc;stroke-dasharray:0.8,1.32;stroke-dashoffset:0;stroke-width:0.8;"/>
     </g>
     <g id="line2d_44"/>
     <g id="text_25">
      <!-- 2 -->
      <g style="fill:#262626;" transform="translate(320.040552 133.226955)scale(0.14 -0.14)">
       <use xlink:href="#JosefinSans-Regular-50"/>
      </g>
     </g>
    </g>
    <g id="ytick_10">
     <g id="line2d_45">
      <path clip-path="url(#pea099facf4)" d="M 331.170552 72.255406 
L 572.645516 72.255406 
" style="fill:none;stroke:#cccccc;stroke-dasharray:0.8,1.32;stroke-dashoffset:0;stroke-width:0.8;"/>
     </g>
     <g id="line2d_46"/>
     <g id="text_26">
      <!-- 3 -->
      <defs>
       <path d="M 28.59375 41.59375 
Q 36.203125 41.203125 41.09375 36.390625 
Q 46 31.59375 46 21.90625 
Q 46 15.09375 42.890625 9.9375 
Q 39.796875 4.796875 34.4375 2 
Q 29.09375 -0.796875 22.703125 -0.796875 
Q 18 -0.796875 13.203125 1.203125 
Q 8.40625 3.203125 5.296875 6.40625 
L 10.296875 14.40625 
Q 12.203125 12 15.59375 10.296875 
Q 19 8.59375 22.5 8.59375 
Q 28.203125 8.59375 32.09375 12.390625 
Q 36 16.203125 36 22.5 
Q 36 28.09375 32.640625 31.4375 
Q 29.296875 34.796875 23.5 34.796875 
Q 19.09375 34.796875 15 33.296875 
L 14.703125 33.703125 
L 29.40625 56.5 
L 9.203125 56.5 
L 9.203125 65.796875 
L 43.703125 65.796875 
L 28.59375 41.59375 
z
" id="JosefinSans-Regular-51"/>
      </defs>
      <g style="fill:#262626;" transform="translate(320.333677 77.680406)scale(0.14 -0.14)">
       <use xlink:href="#JosefinSans-Regular-51"/>
      </g>
     </g>
    </g>
    <g id="text_27">
     <!-- density -->
     <g style="fill:#262626;" transform="translate(311.94774 159.198359)rotate(-90)scale(0.15 -0.15)">
      <use xlink:href="#JosefinSans-Regular-100"/>
      <use x="59.299988" xlink:href="#JosefinSans-Regular-101"/>
      <use x="111.299973" xlink:href="#JosefinSans-Regular-110"/>
      <use x="166.59996" xlink:href="#JosefinSans-Regular-115"/>
      <use x="207.399948" xlink:href="#JosefinSans-Regular-105"/>
      <use x="232.899933" xlink:href="#JosefinSans-Regular-116"/>
      <use x="268.899918" xlink:href="#JosefinSans-Regular-121"/>
     </g>
    </g>
   </g>
   <g id="line2d_47">
    <path clip-path="url(#pea099facf4)" d="M 342.146687 238.895052 
L 344.364088 238.895052 
L 346.581489 238.895052 
L 348.79889 238.895052 
L 351.016291 238.895052 
L 353.233692 238.895052 
L 355.451093 238.895052 
L 357.668494 238.895052 
L 359.885895 238.895051 
L 362.103296 238.895048 
L 364.320697 238.89504 
L 366.538098 238.895017 
L 368.755499 238.894961 
L 370.9729 238.89483 
L 373.190301 238.89455 
L 375.407701 238.893982 
L 377.625102 238.892891 
L 379.842503 238.890893 
L 382.059904 238.887381 
L 384.277305 238.88143 
L 386.494706 238.871676 
L 388.712107 238.856161 
L 390.929508 238.83215 
L 393.146909 238.795908 
L 395.36431 238.742453 
L 397.581711 238.665268 
L 399.799112 238.556 
L 402.016513 238.404134 
L 404.233914 238.196666 
L 406.451315 237.917785 
L 408.668716 237.548577 
L 410.886117 237.066772 
L 413.103518 236.446568 
L 415.320919 235.658522 
L 417.53832 234.669573 
L 419.755721 233.443186 
L 421.973121 231.939653 
L 424.190522 230.116567 
L 426.407923 227.929489 
L 428.625324 225.332809 
L 430.842725 222.280803 
L 433.060126 218.728902 
L 435.277527 214.635132 
L 437.494928 209.961725 
L 439.712329 204.676865 
L 441.92973 198.756522 
L 444.147131 192.186335 
L 446.364532 184.963478 
L 448.581933 177.098443 
L 450.799334 168.616675 
L 453.016735 159.559971 
L 455.234136 149.987577 
L 457.451537 139.976897 
L 459.668938 129.623739 
L 461.886339 119.042044 
L 464.10374 108.363029 
L 466.32114 97.733705 
L 468.538541 87.314757 
L 470.755942 77.277769 
L 472.973343 67.801822 
L 475.190744 59.069507 
L 477.408145 51.262434 
L 479.625546 44.556324 
L 481.842947 39.115822 
L 484.060348 35.089181 
L 486.277749 32.602989 
L 488.49515 31.757136 
L 490.712551 32.620221 
L 492.929952 35.22562 
L 495.147353 39.568408 
L 497.364754 45.603352 
L 499.582155 53.24413 
L 501.799556 62.363931 
L 504.016957 72.797533 
L 506.234358 84.344904 
L 508.451759 96.776312 
L 510.66916 109.838856 
L 512.88656 123.264254 
L 515.103961 136.777654 
L 517.321362 150.107147 
L 519.538763 162.993582 
L 521.756164 175.200249 
L 523.973565 186.521926 
L 526.190966 196.79276 
L 528.408367 205.892485 
L 530.625768 213.750491 
L 532.843169 220.347343 
L 535.06057 225.713479 
L 537.277971 229.924959 
L 539.495372 233.096376 
L 541.712773 235.37123 
L 543.930174 236.910395 
L 546.147575 237.879526 
L 548.364976 238.436539 
L 550.582377 238.720468 
L 552.799778 238.843089 
L 555.017179 238.884565 
L 557.234579 238.894009 
L 559.45198 238.895033 
L 561.669381 238.895052 
" style="fill:none;stroke:#cfcbbf;stroke-linecap:round;stroke-width:1.5;"/>
   </g>
   <g id="line2d_48">
    <path clip-path="url(#pea099facf4)" d="M 342.146687 238.895049 
L 344.364088 238.895046 
L 346.581489 238.895043 
L 348.79889 238.895037 
L 351.016291 238.895027 
L 353.233692 238.89501 
L 355.451093 238.894983 
L 357.668494 238.894939 
L 359.885895 238.894869 
L 362.103296 238.894757 
L 364.320697 238.894582 
L 366.538098 238.894308 
L 368.755499 238.893886 
L 370.9729 238.893237 
L 373.190301 238.892251 
L 375.407701 238.890766 
L 377.625102 238.888546 
L 379.842503 238.885258 
L 382.059904 238.880429 
L 384.277305 238.873398 
L 386.494706 238.863252 
L 388.712107 238.848735 
L 390.929508 238.828147 
L 393.146909 238.799203 
L 395.36431 238.758868 
L 397.581711 238.70315 
L 399.799112 238.626863 
L 402.016513 238.523333 
L 404.233914 238.384077 
L 406.451315 238.198433 
L 408.668716 237.95316 
L 410.886117 237.632009 
L 413.103518 237.215297 
L 415.320919 236.679487 
L 417.53832 235.996815 
L 419.755721 235.134999 
L 421.973121 234.057063 
L 424.190522 232.721336 
L 426.407923 231.081669 
L 428.625324 229.087911 
L 430.842725 226.686716 
L 433.060126 223.822689 
L 435.277527 220.439926 
L 437.494928 216.483938 
L 439.712329 211.903945 
L 441.92973 206.655521 
L 444.147131 200.70348 
L 446.364532 194.024941 
L 448.581933 186.612409 
L 450.799334 178.476721 
L 453.016735 169.649689 
L 455.234136 160.186221 
L 457.451537 150.16576 
L 459.668938 139.69284 
L 461.886339 128.896621 
L 464.10374 117.929305 
L 466.32114 106.963363 
L 468.538541 96.187609 
L 470.755942 85.8022 
L 472.973343 76.012714 
L 475.190744 67.023554 
L 477.408145 59.030938 
L 479.625546 52.215836 
L 481.842947 46.737168 
L 484.060348 42.725666 
L 486.277749 40.278678 
L 488.49515 39.456251 
L 490.712551 40.278678 
L 492.929952 42.725665 
L 495.147353 46.737168 
L 497.364754 52.215835 
L 499.582155 59.030938 
L 501.799556 67.023553 
L 504.016957 76.012713 
L 506.234358 85.802199 
L 508.451759 96.187608 
L 510.66916 106.963362 
L 512.88656 117.929304 
L 515.103961 128.89662 
L 517.321362 139.692839 
L 519.538763 150.165759 
L 521.756164 160.18622 
L 523.973565 169.649688 
L 526.190966 178.476721 
L 528.408367 186.612408 
L 530.625768 194.024941 
L 532.843169 200.703479 
L 535.06057 206.65552 
L 537.277971 211.903945 
L 539.495372 216.483937 
L 541.712773 220.439926 
L 543.930174 223.822689 
L 546.147575 226.686716 
L 548.364976 229.087911 
L 550.582377 231.081669 
L 552.799778 232.721336 
L 555.017179 234.057063 
L 557.234579 235.134999 
L 559.45198 235.996815 
L 561.669381 236.679487 
" style="fill:none;stroke:#81aca4;stroke-linecap:round;stroke-width:1.5;"/>
   </g>
   <g id="text_28">
    <!-- $n=18$ -->
    <defs>
     <path d="M 12.40625 8.296875 
L 28.515625 8.296875 
L 28.515625 63.921875 
L 10.984375 60.40625 
L 10.984375 69.390625 
L 28.421875 72.90625 
L 38.28125 72.90625 
L 38.28125 8.296875 
L 54.390625 8.296875 
L 54.390625 0 
L 12.40625 0 
z
" id="DejaVuSans-49"/>
     <path d="M 31.78125 34.625 
Q 24.75 34.625 20.71875 30.859375 
Q 16.703125 27.09375 16.703125 20.515625 
Q 16.703125 13.921875 20.71875 10.15625 
Q 24.75 6.390625 31.78125 6.390625 
Q 38.8125 6.390625 42.859375 10.171875 
Q 46.921875 13.96875 46.921875 20.515625 
Q 46.921875 27.09375 42.890625 30.859375 
Q 38.875 34.625 31.78125 34.625 
z
M 21.921875 38.8125 
Q 15.578125 40.375 12.03125 44.71875 
Q 8.5 49.078125 8.5 55.328125 
Q 8.5 64.0625 14.71875 69.140625 
Q 20.953125 74.21875 31.78125 74.21875 
Q 42.671875 74.21875 48.875 69.140625 
Q 55.078125 64.0625 55.078125 55.328125 
Q 55.078125 49.078125 51.53125 44.71875 
Q 48 40.375 41.703125 38.8125 
Q 48.828125 37.15625 52.796875 32.3125 
Q 56.78125 27.484375 56.78125 20.515625 
Q 56.78125 9.90625 50.3125 4.234375 
Q 43.84375 -1.421875 31.78125 -1.421875 
Q 19.734375 -1.421875 13.25 4.234375 
Q 6.78125 9.90625 6.78125 20.515625 
Q 6.78125 27.484375 10.78125 32.3125 
Q 14.796875 37.15625 21.921875 38.8125 
z
M 18.3125 54.390625 
Q 18.3125 48.734375 21.84375 45.5625 
Q 25.390625 42.390625 31.78125 42.390625 
Q 38.140625 42.390625 41.71875 45.5625 
Q 45.3125 48.734375 45.3125 54.390625 
Q 45.3125 60.0625 41.71875 63.234375 
Q 38.140625 66.40625 31.78125 66.40625 
Q 25.390625 66.40625 21.84375 63.234375 
Q 18.3125 60.0625 18.3125 54.390625 
z
" id="DejaVuSans-56"/>
    </defs>
    <g style="fill:#262626;" transform="translate(426.788034 15.40024)scale(0.16 -0.16)">
     <use transform="translate(0 0.78125)" xlink:href="#DejaVuSans-Oblique-110"/>
     <use transform="translate(82.861328 0.78125)" xlink:href="#DejaVuSans-61"/>
     <use transform="translate(186.132812 0.78125)" xlink:href="#DejaVuSans-49"/>
     <use transform="translate(249.755859 0.78125)" xlink:href="#DejaVuSans-56"/>
    </g>
   </g>
   <g id="legend_2">
    <g id="line2d_49">
     <path d="M 343.770553 39.95024 
L 371.770553 39.95024 
" style="fill:none;stroke:#cfcbbf;stroke-linecap:round;stroke-width:1.5;"/>
    </g>
    <g id="line2d_50"/>
    <g id="text_29">
     <!-- True posterior -->
     <g style="fill:#262626;" transform="translate(382.970552 44.85024)scale(0.14 -0.14)">
      <use xlink:href="#JosefinSans-Regular-84"/>
      <use x="58.199997" xlink:href="#JosefinSans-Regular-114"/>
      <use x="95.799988" xlink:href="#JosefinSans-Regular-117"/>
      <use x="150.499985" xlink:href="#JosefinSans-Regular-101"/>
      <use x="202.499969" xlink:href="#JosefinSans-Regular-32"/>
      <use x="234.09996" xlink:href="#JosefinSans-Regular-112"/>
      <use x="293.399948" xlink:href="#JosefinSans-Regular-111"/>
      <use x="347.899933" xlink:href="#JosefinSans-Regular-115"/>
      <use x="388.699921" xlink:href="#JosefinSans-Regular-116"/>
      <use x="424.699905" xlink:href="#JosefinSans-Regular-101"/>
      <use x="476.69989" xlink:href="#JosefinSans-Regular-114"/>
      <use x="514.299881" xlink:href="#JosefinSans-Regular-105"/>
      <use x="539.799866" xlink:href="#JosefinSans-Regular-111"/>
      <use x="594.29985" xlink:href="#JosefinSans-Regular-114"/>
     </g>
    </g>
    <g id="line2d_51">
     <path d="M 343.770553 60.587115 
L 371.770553 60.587115 
" style="fill:none;stroke:#81aca4;stroke-linecap:round;stroke-width:1.5;"/>
    </g>
    <g id="line2d_52"/>
    <g id="text_30">
     <!-- Quadratic approximation -->
     <g style="fill:#262626;" transform="translate(382.970552 65.487115)scale(0.14 -0.14)">
      <use xlink:href="#JosefinSans-Regular-81"/>
      <use x="88.799988" xlink:href="#JosefinSans-Regular-117"/>
      <use x="143.499985" xlink:href="#JosefinSans-Regular-97"/>
      <use x="202.199982" xlink:href="#JosefinSans-Regular-100"/>
      <use x="261.499969" xlink:href="#JosefinSans-Regular-114"/>
      <use x="299.09996" xlink:href="#JosefinSans-Regular-97"/>
      <use x="357.799957" xlink:href="#JosefinSans-Regular-116"/>
      <use x="393.799942" xlink:href="#JosefinSans-Regular-105"/>
      <use x="419.299927" xlink:href="#JosefinSans-Regular-99"/>
      <use x="464.899918" xlink:href="#JosefinSans-Regular-32"/>
      <use x="496.499908" xlink:href="#JosefinSans-Regular-97"/>
      <use x="555.199905" xlink:href="#JosefinSans-Regular-112"/>
      <use x="614.499893" xlink:href="#JosefinSans-Regular-112"/>
      <use x="673.799881" xlink:href="#JosefinSans-Regular-114"/>
      <use x="711.399872" xlink:href="#JosefinSans-Regular-111"/>
      <use x="765.899857" xlink:href="#JosefinSans-Regular-120"/>
      <use x="812.499847" xlink:href="#JosefinSans-Regular-105"/>
      <use x="837.999832" xlink:href="#JosefinSans-Regular-109"/>
      <use x="920.499817" xlink:href="#JosefinSans-Regular-97"/>
      <use x="979.199814" xlink:href="#JosefinSans-Regular-116"/>
      <use x="1015.199799" xlink:href="#JosefinSans-Regular-105"/>
      <use x="1040.699783" xlink:href="#JosefinSans-Regular-111"/>
      <use x="1095.199768" xlink:href="#JosefinSans-Regular-110"/>
     </g>
    </g>
   </g>
  </g>
  <g id="axes_3">
   <g id="patch_4">
    <path d="M 617.389303 249.251947 
L 858.864266 249.251947 
L 858.864266 21.40024 
L 617.389303 21.40024 
z
" style="fill:#ffffff;"/>
   </g>
   <g id="matplotlib.axis_5">
    <g id="xtick_11">
     <g id="line2d_53">
      <path clip-path="url(#p622e436366)" d="M 628.365437 249.251947 
L 628.365437 21.40024 
" style="fill:none;stroke:#cccccc;stroke-dasharray:0.8,1.32;stroke-dashoffset:0;stroke-width:0.8;"/>
     </g>
     <g id="line2d_54"/>
     <g id="text_31">
      <!-- 0.00 -->
      <g style="fill:#262626;" transform="translate(614.076687 263.601947)scale(0.14 -0.14)">
       <use xlink:href="#JosefinSans-Regular-48"/>
       <use x="62.399994" xlink:href="#JosefinSans-Regular-46"/>
       <use x="79.299988" xlink:href="#JosefinSans-Regular-48"/>
       <use x="141.699982" xlink:href="#JosefinSans-Regular-48"/>
      </g>
     </g>
    </g>
    <g id="xtick_12">
     <g id="line2d_55">
      <path clip-path="url(#p622e436366)" d="M 683.246111 249.251947 
L 683.246111 21.40024 
" style="fill:none;stroke:#cccccc;stroke-dasharray:0.8,1.32;stroke-dashoffset:0;stroke-width:0.8;"/>
     </g>
     <g id="line2d_56"/>
     <g id="text_32">
      <!-- 0.25 -->
      <g style="fill:#262626;" transform="translate(670.218455 263.601947)scale(0.14 -0.14)">
       <use xlink:href="#JosefinSans-Regular-48"/>
       <use x="62.399994" xlink:href="#JosefinSans-Regular-46"/>
       <use x="79.299988" xlink:href="#JosefinSans-Regular-50"/>
       <use x="133.799973" xlink:href="#JosefinSans-Regular-53"/>
      </g>
     </g>
    </g>
    <g id="xtick_13">
     <g id="line2d_57">
      <path clip-path="url(#p622e436366)" d="M 738.126784 249.251947 
L 738.126784 21.40024 
" style="fill:none;stroke:#cccccc;stroke-dasharray:0.8,1.32;stroke-dashoffset:0;stroke-width:0.8;"/>
     </g>
     <g id="line2d_58"/>
     <g id="text_33">
      <!-- 0.50 -->
      <g style="fill:#262626;" transform="translate(724.545691 263.601947)scale(0.14 -0.14)">
       <use xlink:href="#JosefinSans-Regular-48"/>
       <use x="62.399994" xlink:href="#JosefinSans-Regular-46"/>
       <use x="79.299988" xlink:href="#JosefinSans-Regular-53"/>
       <use x="131.599976" xlink:href="#JosefinSans-Regular-48"/>
      </g>
     </g>
    </g>
    <g id="xtick_14">
     <g id="line2d_59">
      <path clip-path="url(#p622e436366)" d="M 793.007458 249.251947 
L 793.007458 21.40024 
" style="fill:none;stroke:#cccccc;stroke-dasharray:0.8,1.32;stroke-dashoffset:0;stroke-width:0.8;"/>
     </g>
     <g id="line2d_60"/>
     <g id="text_34">
      <!-- 0.75 -->
      <g style="fill:#262626;" transform="translate(780.364802 263.601947)scale(0.14 -0.14)">
       <use xlink:href="#JosefinSans-Regular-48"/>
       <use x="62.399994" xlink:href="#JosefinSans-Regular-46"/>
       <use x="79.299988" xlink:href="#JosefinSans-Regular-55"/>
       <use x="128.299973" xlink:href="#JosefinSans-Regular-53"/>
      </g>
     </g>
    </g>
    <g id="xtick_15">
     <g id="line2d_61">
      <path clip-path="url(#p622e436366)" d="M 847.888131 249.251947 
L 847.888131 21.40024 
" style="fill:none;stroke:#cccccc;stroke-dasharray:0.8,1.32;stroke-dashoffset:0;stroke-width:0.8;"/>
     </g>
     <g id="line2d_62"/>
     <g id="text_35">
      <!-- 1.00 -->
      <g style="fill:#262626;" transform="translate(835.657819 263.601947)scale(0.14 -0.14)">
       <use xlink:href="#JosefinSans-Regular-49"/>
       <use x="32.999985" xlink:href="#JosefinSans-Regular-46"/>
       <use x="49.899979" xlink:href="#JosefinSans-Regular-48"/>
       <use x="112.299973" xlink:href="#JosefinSans-Regular-48"/>
      </g>
     </g>
    </g>
    <g id="text_36">
     <!-- probability of water -->
     <g style="fill:#262626;" transform="translate(670.770925 282.013823)scale(0.15 -0.15)">
      <use xlink:href="#JosefinSans-Regular-112"/>
      <use x="59.299988" xlink:href="#JosefinSans-Regular-114"/>
      <use x="96.899979" xlink:href="#JosefinSans-Regular-111"/>
      <use x="151.399963" xlink:href="#JosefinSans-Regular-98"/>
      <use x="210.699951" xlink:href="#JosefinSans-Regular-97"/>
      <use x="269.399948" xlink:href="#JosefinSans-Regular-98"/>
      <use x="328.699936" xlink:href="#JosefinSans-Regular-105"/>
      <use x="354.199921" xlink:href="#JosefinSans-Regular-108"/>
      <use x="379.699905" xlink:href="#JosefinSans-Regular-105"/>
      <use x="405.19989" xlink:href="#JosefinSans-Regular-116"/>
      <use x="441.199875" xlink:href="#JosefinSans-Regular-121"/>
      <use x="490.599869" xlink:href="#JosefinSans-Regular-32"/>
      <use x="522.19986" xlink:href="#JosefinSans-Regular-111"/>
      <use x="576.699844" xlink:href="#JosefinSans-Regular-102"/>
      <use x="614.699829" xlink:href="#JosefinSans-Regular-32"/>
      <use x="646.29982" xlink:href="#JosefinSans-Regular-119"/>
      <use x="713.799805" xlink:href="#JosefinSans-Regular-97"/>
      <use x="772.499802" xlink:href="#JosefinSans-Regular-116"/>
      <use x="808.499786" xlink:href="#JosefinSans-Regular-101"/>
      <use x="860.499771" xlink:href="#JosefinSans-Regular-114"/>
     </g>
    </g>
   </g>
   <g id="matplotlib.axis_6">
    <g id="ytick_11">
     <g id="line2d_63">
      <path clip-path="url(#p622e436366)" d="M 617.389303 238.895052 
L 858.864266 238.895052 
" style="fill:none;stroke:#cccccc;stroke-dasharray:0.8,1.32;stroke-dashoffset:0;stroke-width:0.8;"/>
     </g>
     <g id="line2d_64"/>
     <g id="text_37">
      <!-- 0 -->
      <g style="fill:#262626;" transform="translate(605.152428 244.320052)scale(0.14 -0.14)">
       <use xlink:href="#JosefinSans-Regular-48"/>
      </g>
     </g>
    </g>
    <g id="ytick_12">
     <g id="line2d_65">
      <path clip-path="url(#p622e436366)" d="M 617.389303 198.881174 
L 858.864266 198.881174 
" style="fill:none;stroke:#cccccc;stroke-dasharray:0.8,1.32;stroke-dashoffset:0;stroke-width:0.8;"/>
     </g>
     <g id="line2d_66"/>
     <g id="text_38">
      <!-- 1 -->
      <g style="fill:#262626;" transform="translate(609.269303 204.306174)scale(0.14 -0.14)">
       <use xlink:href="#JosefinSans-Regular-49"/>
      </g>
     </g>
    </g>
    <g id="ytick_13">
     <g id="line2d_67">
      <path clip-path="url(#p622e436366)" d="M 617.389303 158.867297 
L 858.864266 158.867297 
" style="fill:none;stroke:#cccccc;stroke-dasharray:0.8,1.32;stroke-dashoffset:0;stroke-width:0.8;"/>
     </g>
     <g id="line2d_68"/>
     <g id="text_39">
      <!-- 2 -->
      <g style="fill:#262626;" transform="translate(606.259303 164.292297)scale(0.14 -0.14)">
       <use xlink:href="#JosefinSans-Regular-50"/>
      </g>
     </g>
    </g>
    <g id="ytick_14">
     <g id="line2d_69">
      <path clip-path="url(#p622e436366)" d="M 617.389303 118.853419 
L 858.864266 118.853419 
" style="fill:none;stroke:#cccccc;stroke-dasharray:0.8,1.32;stroke-dashoffset:0;stroke-width:0.8;"/>
     </g>
     <g id="line2d_70"/>
     <g id="text_40">
      <!-- 3 -->
      <g style="fill:#262626;" transform="translate(606.552428 124.278419)scale(0.14 -0.14)">
       <use xlink:href="#JosefinSans-Regular-51"/>
      </g>
     </g>
    </g>
    <g id="ytick_15">
     <g id="line2d_71">
      <path clip-path="url(#p622e436366)" d="M 617.389303 78.839542 
L 858.864266 78.839542 
" style="fill:none;stroke:#cccccc;stroke-dasharray:0.8,1.32;stroke-dashoffset:0;stroke-width:0.8;"/>
     </g>
     <g id="line2d_72"/>
     <g id="text_41">
      <!-- 4 -->
      <defs>
       <path d="M 50.09375 23.40625 
L 50.09375 15.90625 
L 41.5 15.90625 
L 41.5 0 
L 31.796875 0 
L 31.796875 15.90625 
L 1.296875 15.90625 
L 1.296875 16 
L 41.40625 66.59375 
L 41.5 66.59375 
L 41.5 23.40625 
z
M 31.796875 23.40625 
L 31.796875 43.90625 
L 15.90625 23.40625 
z
" id="JosefinSans-Regular-52"/>
      </defs>
      <g style="fill:#262626;" transform="translate(606.386178 84.264542)scale(0.14 -0.14)">
       <use xlink:href="#JosefinSans-Regular-52"/>
      </g>
     </g>
    </g>
    <g id="ytick_16">
     <g id="line2d_73">
      <path clip-path="url(#p622e436366)" d="M 617.389303 38.825665 
L 858.864266 38.825665 
" style="fill:none;stroke:#cccccc;stroke-dasharray:0.8,1.32;stroke-dashoffset:0;stroke-width:0.8;"/>
     </g>
     <g id="line2d_74"/>
     <g id="text_42">
      <!-- 5 -->
      <g style="fill:#262626;" transform="translate(606.56774 44.250665)scale(0.14 -0.14)">
       <use xlink:href="#JosefinSans-Regular-53"/>
      </g>
     </g>
    </g>
    <g id="text_43">
     <!-- density -->
     <g style="fill:#262626;" transform="translate(598.16649 159.198359)rotate(-90)scale(0.15 -0.15)">
      <use xlink:href="#JosefinSans-Regular-100"/>
      <use x="59.299988" xlink:href="#JosefinSans-Regular-101"/>
      <use x="111.299973" xlink:href="#JosefinSans-Regular-110"/>
      <use x="166.59996" xlink:href="#JosefinSans-Regular-115"/>
      <use x="207.399948" xlink:href="#JosefinSans-Regular-105"/>
      <use x="232.899933" xlink:href="#JosefinSans-Regular-116"/>
      <use x="268.899918" xlink:href="#JosefinSans-Regular-121"/>
     </g>
    </g>
   </g>
   <g id="line2d_75">
    <path clip-path="url(#p622e436366)" d="M 628.365437 238.895052 
L 630.582838 238.895052 
L 632.800239 238.895052 
L 635.01764 238.895052 
L 637.235041 238.895052 
L 639.452442 238.895052 
L 641.669843 238.895052 
L 643.887244 238.895052 
L 646.104645 238.895052 
L 648.322046 238.895052 
L 650.539447 238.895052 
L 652.756848 238.895052 
L 654.974249 238.895052 
L 657.19165 238.895052 
L 659.409051 238.895052 
L 661.626451 238.895052 
L 663.843852 238.895052 
L 666.061253 238.895052 
L 668.278654 238.895051 
L 670.496055 238.895051 
L 672.713456 238.895049 
L 674.930857 238.895044 
L 677.148258 238.895033 
L 679.365659 238.895004 
L 681.58306 238.894939 
L 683.800461 238.894797 
L 686.017862 238.894497 
L 688.235263 238.893888 
L 690.452664 238.892697 
L 692.670065 238.890441 
L 694.887466 238.886299 
L 697.104867 238.878915 
L 699.322268 238.866109 
L 701.539669 238.844481 
L 703.75707 238.808855 
L 705.974471 238.751559 
L 708.191871 238.661499 
L 710.409272 238.52302 
L 712.626673 238.314552 
L 714.844074 238.007071 
L 717.061475 237.562446 
L 719.278876 236.931753 
L 721.496277 236.053739 
L 723.713678 234.853602 
L 725.931079 233.242372 
L 728.14848 231.117134 
L 730.365881 228.362435 
L 732.583282 224.853129 
L 734.800683 220.458925 
L 737.018084 215.050792 
L 739.235485 208.509233 
L 741.452886 200.734298 
L 743.670287 191.656953 
L 745.887688 181.251236 
L 748.105089 169.54636 
L 750.32249 156.637735 
L 752.53989 142.695735 
L 754.757291 127.970957 
L 756.974692 112.794787 
L 759.192093 97.574265 
L 761.409494 82.78058 
L 763.626895 68.931002 
L 765.844296 56.564642 
L 768.061697 46.213087 
L 770.279098 38.367626 
L 772.496499 33.445388 
L 774.7139 31.757136 
L 776.931301 33.47971 
L 779.148702 38.636025 
L 781.366103 47.085114 
L 783.583504 58.524013 
L 785.800905 72.502219 
L 788.018306 88.448252 
L 790.235707 105.706564 
L 792.453108 123.581792 
L 794.670509 141.386413 
L 796.88791 158.487263 
L 799.10531 174.34636 
L 801.322711 188.551961 
L 803.540112 200.836872 
L 805.757513 211.082504 
L 807.974914 219.308933 
L 810.192315 225.652936 
L 812.409716 230.337454 
L 814.627117 233.636867 
L 816.844518 235.842743 
L 819.061919 237.234238 
L 821.27932 238.05622 
L 823.496721 238.506603 
L 825.714122 238.732722 
L 827.931523 238.835105 
L 830.148924 238.876036 
L 832.366325 238.890073 
L 834.583726 238.894037 
L 836.801127 238.894905 
L 839.018528 238.895039 
L 841.235929 238.895051 
L 843.453329 238.895052 
L 845.67073 238.895052 
L 847.888131 238.895052 
" style="fill:none;stroke:#cfcbbf;stroke-linecap:round;stroke-width:1.5;"/>
   </g>
   <g id="line2d_76">
    <path clip-path="url(#p622e436366)" d="M 628.365437 238.895052 
L 630.582838 238.895052 
L 632.800239 238.895052 
L 635.01764 238.895052 
L 637.235041 238.895052 
L 639.452442 238.895052 
L 641.669843 238.895052 
L 643.887244 238.895052 
L 646.104645 238.895052 
L 648.322046 238.895052 
L 650.539447 238.895052 
L 652.756848 238.895052 
L 654.974249 238.895052 
L 657.19165 238.895052 
L 659.409051 238.895052 
L 661.626451 238.895052 
L 663.843852 238.895051 
L 666.061253 238.895051 
L 668.278654 238.895051 
L 670.496055 238.895049 
L 672.713456 238.895047 
L 674.930857 238.895041 
L 677.148258 238.895029 
L 679.365659 238.895005 
L 681.58306 238.894957 
L 683.800461 238.894864 
L 686.017862 238.894684 
L 688.235263 238.894346 
L 690.452664 238.893718 
L 692.670065 238.892573 
L 694.887466 238.89052 
L 697.104867 238.886903 
L 699.322268 238.880639 
L 701.539669 238.869977 
L 703.75707 238.852145 
L 705.974471 238.822833 
L 708.191871 238.775491 
L 710.409272 238.700358 
L 712.626673 238.583208 
L 714.844074 238.403755 
L 717.061475 238.133724 
L 719.278876 237.734615 
L 721.496277 237.155277 
L 723.713678 236.32947 
L 725.931079 235.173704 
L 728.14848 233.585763 
L 730.365881 231.444405 
L 732.583282 228.610789 
L 734.800683 224.932205 
L 737.018084 220.248594 
L 739.235485 214.402147 
L 741.452886 207.249999 
L 743.670287 198.679602 
L 745.887688 188.625893 
L 748.105089 177.088875 
L 750.32249 164.14978 
L 752.53989 149.983713 
L 754.757291 134.866597 
L 756.974692 119.174494 
L 759.192093 103.373961 
L 761.409494 88.002909 
L 763.626895 73.642588 
L 765.844296 60.882412 
L 768.061697 50.280448 
L 770.279098 42.323182 
L 772.496499 37.38858 
L 774.7139 35.716336 
L 776.931301 37.388579 
L 779.148702 42.323182 
L 781.366103 50.280448 
L 783.583504 60.882411 
L 785.800905 73.642586 
L 788.018306 88.002907 
L 790.235707 103.373959 
L 792.453108 119.174493 
L 794.670509 134.866595 
L 796.88791 149.983712 
L 799.10531 164.149779 
L 801.322711 177.088874 
L 803.540112 188.625892 
L 805.757513 198.679601 
L 807.974914 207.249998 
L 810.192315 214.402146 
L 812.409716 220.248593 
L 814.627117 224.932205 
L 816.844518 228.610788 
L 819.061919 231.444405 
L 821.27932 233.585763 
L 823.496721 235.173704 
L 825.714122 236.32947 
L 827.931523 237.155277 
L 830.148924 237.734615 
L 832.366325 238.133724 
L 834.583726 238.403755 
L 836.801127 238.583208 
L 839.018528 238.700358 
L 841.235929 238.775491 
L 843.453329 238.822833 
L 845.67073 238.852145 
L 847.888131 238.869977 
" style="fill:none;stroke:#81aca4;stroke-linecap:round;stroke-width:1.5;"/>
   </g>
   <g id="text_44">
    <!-- $n=36$ -->
    <defs>
     <path d="M 40.578125 39.3125 
Q 47.65625 37.796875 51.625 33 
Q 55.609375 28.21875 55.609375 21.1875 
Q 55.609375 10.40625 48.1875 4.484375 
Q 40.765625 -1.421875 27.09375 -1.421875 
Q 22.515625 -1.421875 17.65625 -0.515625 
Q 12.796875 0.390625 7.625 2.203125 
L 7.625 11.71875 
Q 11.71875 9.328125 16.59375 8.109375 
Q 21.484375 6.890625 26.8125 6.890625 
Q 36.078125 6.890625 40.9375 10.546875 
Q 45.796875 14.203125 45.796875 21.1875 
Q 45.796875 27.640625 41.28125 31.265625 
Q 36.765625 34.90625 28.71875 34.90625 
L 20.21875 34.90625 
L 20.21875 43.015625 
L 29.109375 43.015625 
Q 36.375 43.015625 40.234375 45.921875 
Q 44.09375 48.828125 44.09375 54.296875 
Q 44.09375 59.90625 40.109375 62.90625 
Q 36.140625 65.921875 28.71875 65.921875 
Q 24.65625 65.921875 20.015625 65.03125 
Q 15.375 64.15625 9.8125 62.3125 
L 9.8125 71.09375 
Q 15.4375 72.65625 20.34375 73.4375 
Q 25.25 74.21875 29.59375 74.21875 
Q 40.828125 74.21875 47.359375 69.109375 
Q 53.90625 64.015625 53.90625 55.328125 
Q 53.90625 49.265625 50.4375 45.09375 
Q 46.96875 40.921875 40.578125 39.3125 
z
" id="DejaVuSans-51"/>
     <path d="M 33.015625 40.375 
Q 26.375 40.375 22.484375 35.828125 
Q 18.609375 31.296875 18.609375 23.390625 
Q 18.609375 15.53125 22.484375 10.953125 
Q 26.375 6.390625 33.015625 6.390625 
Q 39.65625 6.390625 43.53125 10.953125 
Q 47.40625 15.53125 47.40625 23.390625 
Q 47.40625 31.296875 43.53125 35.828125 
Q 39.65625 40.375 33.015625 40.375 
z
M 52.59375 71.296875 
L 52.59375 62.3125 
Q 48.875 64.0625 45.09375 64.984375 
Q 41.3125 65.921875 37.59375 65.921875 
Q 27.828125 65.921875 22.671875 59.328125 
Q 17.53125 52.734375 16.796875 39.40625 
Q 19.671875 43.65625 24.015625 45.921875 
Q 28.375 48.1875 33.59375 48.1875 
Q 44.578125 48.1875 50.953125 41.515625 
Q 57.328125 34.859375 57.328125 23.390625 
Q 57.328125 12.15625 50.6875 5.359375 
Q 44.046875 -1.421875 33.015625 -1.421875 
Q 20.359375 -1.421875 13.671875 8.265625 
Q 6.984375 17.96875 6.984375 36.375 
Q 6.984375 53.65625 15.1875 63.9375 
Q 23.390625 74.21875 37.203125 74.21875 
Q 40.921875 74.21875 44.703125 73.484375 
Q 48.484375 72.75 52.59375 71.296875 
z
" id="DejaVuSans-54"/>
    </defs>
    <g style="fill:#262626;" transform="translate(713.006784 15.40024)scale(0.16 -0.16)">
     <use transform="translate(0 0.78125)" xlink:href="#DejaVuSans-Oblique-110"/>
     <use transform="translate(82.861328 0.78125)" xlink:href="#DejaVuSans-61"/>
     <use transform="translate(186.132812 0.78125)" xlink:href="#DejaVuSans-51"/>
     <use transform="translate(249.755859 0.78125)" xlink:href="#DejaVuSans-54"/>
    </g>
   </g>
   <g id="legend_3">
    <g id="line2d_77">
     <path d="M 629.989303 39.95024 
L 657.989303 39.95024 
" style="fill:none;stroke:#cfcbbf;stroke-linecap:round;stroke-width:1.5;"/>
    </g>
    <g id="line2d_78"/>
    <g id="text_45">
     <!-- True posterior -->
     <g style="fill:#262626;" transform="translate(669.189303 44.85024)scale(0.14 -0.14)">
      <use xlink:href="#JosefinSans-Regular-84"/>
      <use x="58.199997" xlink:href="#JosefinSans-Regular-114"/>
      <use x="95.799988" xlink:href="#JosefinSans-Regular-117"/>
      <use x="150.499985" xlink:href="#JosefinSans-Regular-101"/>
      <use x="202.499969" xlink:href="#JosefinSans-Regular-32"/>
      <use x="234.09996" xlink:href="#JosefinSans-Regular-112"/>
      <use x="293.399948" xlink:href="#JosefinSans-Regular-111"/>
      <use x="347.899933" xlink:href="#JosefinSans-Regular-115"/>
      <use x="388.699921" xlink:href="#JosefinSans-Regular-116"/>
      <use x="424.699905" xlink:href="#JosefinSans-Regular-101"/>
      <use x="476.69989" xlink:href="#JosefinSans-Regular-114"/>
      <use x="514.299881" xlink:href="#JosefinSans-Regular-105"/>
      <use x="539.799866" xlink:href="#JosefinSans-Regular-111"/>
      <use x="594.29985" xlink:href="#JosefinSans-Regular-114"/>
     </g>
    </g>
    <g id="line2d_79">
     <path d="M 629.989303 60.587115 
L 657.989303 60.587115 
" style="fill:none;stroke:#81aca4;stroke-linecap:round;stroke-width:1.5;"/>
    </g>
    <g id="line2d_80"/>
    <g id="text_46">
     <!-- Quadratic approximation -->
     <g style="fill:#262626;" transform="translate(669.189303 65.487115)scale(0.14 -0.14)">
      <use xlink:href="#JosefinSans-Regular-81"/>
      <use x="88.799988" xlink:href="#JosefinSans-Regular-117"/>
      <use x="143.499985" xlink:href="#JosefinSans-Regular-97"/>
      <use x="202.199982" xlink:href="#JosefinSans-Regular-100"/>
      <use x="261.499969" xlink:href="#JosefinSans-Regular-114"/>
      <use x="299.09996" xlink:href="#JosefinSans-Regular-97"/>
      <use x="357.799957" xlink:href="#JosefinSans-Regular-116"/>
      <use x="393.799942" xlink:href="#JosefinSans-Regular-105"/>
      <use x="419.299927" xlink:href="#JosefinSans-Regular-99"/>
      <use x="464.899918" xlink:href="#JosefinSans-Regular-32"/>
      <use x="496.499908" xlink:href="#JosefinSans-Regular-97"/>
      <use x="555.199905" xlink:href="#JosefinSans-Regular-112"/>
      <use x="614.499893" xlink:href="#JosefinSans-Regular-112"/>
      <use x="673.799881" xlink:href="#JosefinSans-Regular-114"/>
      <use x="711.399872" xlink:href="#JosefinSans-Regular-111"/>
      <use x="765.899857" xlink:href="#JosefinSans-Regular-120"/>
      <use x="812.499847" xlink:href="#JosefinSans-Regular-105"/>
      <use x="837.999832" xlink:href="#JosefinSans-Regular-109"/>
      <use x="920.499817" xlink:href="#JosefinSans-Regular-97"/>
      <use x="979.199814" xlink:href="#JosefinSans-Regular-116"/>
      <use x="1015.199799" xlink:href="#JosefinSans-Regular-105"/>
      <use x="1040.699783" xlink:href="#JosefinSans-Regular-111"/>
      <use x="1095.199768" xlink:href="#JosefinSans-Regular-110"/>
     </g>
    </g>
   </g>
  </g>
 </g>
 <defs>
  <clipPath id="p92ace98dfa">
   <rect height="227.851708" width="241.474964" x="44.951803" y="21.40024"/>
  </clipPath>
  <clipPath id="pea099facf4">
   <rect height="227.851708" width="241.474964" x="331.170552" y="21.40024"/>
  </clipPath>
  <clipPath id="p622e436366">
   <rect height="227.851708" width="241.474964" x="617.389303" y="21.40024"/>
  </clipPath>
 </defs>
</svg>
