<?xml version="1.0" encoding="utf-8" standalone="no"?>
<!DOCTYPE svg PUBLIC "-//W3C//DTD SVG 1.1//EN"
  "http://www.w3.org/Graphics/SVG/1.1/DTD/svg11.dtd">
<svg xmlns:xlink="http://www.w3.org/1999/xlink" width="864pt" height="288pt" viewBox="0 0 864 288" xmlns="http://www.w3.org/2000/svg" version="1.1">
 <metadata>
  <rdf:RDF xmlns:dc="http://purl.org/dc/elements/1.1/" xmlns:cc="http://creativecommons.org/ns#" xmlns:rdf="http://www.w3.org/1999/02/22-rdf-syntax-ns#">
   <cc:Work>
    <dc:type rdf:resource="http://purl.org/dc/dcmitype/StillImage"/>
    <dc:date>2022-01-21T17:50:53.191796</dc:date>
    <dc:format>image/svg+xml</dc:format>
    <dc:creator>
     <cc:Agent>
      <dc:title>Matplotlib v3.5.1, https://matplotlib.org/</dc:title>
     </cc:Agent>
    </dc:creator>
   </cc:Work>
  </rdf:RDF>
 </metadata>
 <defs>
  <style type="text/css">*{stroke-linejoin: round; stroke-linecap: butt}</style>
 </defs>
 <g id="figure_1">
  <g id="patch_1">
   <path d="M 0 288 
L 864 288 
L 864 0 
L 0 0 
z
" style="fill: #ffffff"/>
  </g>
  <g id="axes_1">
   <g id="patch_2">
    <path d="M 44.951803 249.251947 
L 290.441312 249.251947 
L 290.441312 21.40024 
L 44.951803 21.40024 
z
" style="fill: #ffffff"/>
   </g>
   <g id="matplotlib.axis_1">
    <g id="xtick_1">
     <g id="line2d_1">
      <path d="M 56.110417 249.251947 
L 56.110417 21.40024 
" clip-path="url(#pbbd6463207)" style="fill: none; stroke-dasharray: 0.8,1.32; stroke-dashoffset: 0; stroke: #cccccc; stroke-width: 0.8"/>
     </g>
     <g id="line2d_2"/>
     <g id="text_1">
      <!-- 0.00 -->
      <g style="fill: #262626" transform="translate(41.821667 263.601947)scale(0.14 -0.14)">
       <defs>
        <path id="JosefinSans-Regular-30" d="M 1997 -19 
Q 1478 -19 1078 240 
Q 678 499 454 985 
Q 230 1472 230 2125 
Q 230 3168 700 3715 
Q 1171 4262 1997 4256 
Q 2515 4256 2915 4000 
Q 3315 3744 3539 3257 
Q 3763 2771 3763 2125 
Q 3763 1459 3539 972 
Q 3315 486 2915 230 
Q 2515 -26 1997 -19 
z
M 1990 576 
Q 2534 576 2825 998 
Q 3117 1421 3123 2138 
Q 3117 2835 2825 3248 
Q 2534 3661 1990 3661 
Q 1453 3661 1165 3245 
Q 877 2829 870 2125 
Q 877 1414 1165 995 
Q 1453 576 1990 576 
z
" transform="scale(0.015625)"/>
        <path id="JosefinSans-Regular-2e" d="M 218 339 
Q 218 480 320 582 
Q 422 685 557 685 
Q 678 685 784 582 
Q 890 480 890 339 
Q 890 192 787 96 
Q 685 0 557 0 
Q 422 0 320 96 
Q 218 192 218 339 
z
" transform="scale(0.015625)"/>
       </defs>
       <use xlink:href="#JosefinSans-Regular-30"/>
       <use xlink:href="#JosefinSans-Regular-2e" x="62.399994"/>
       <use xlink:href="#JosefinSans-Regular-30" x="79.299988"/>
       <use xlink:href="#JosefinSans-Regular-30" x="141.699982"/>
      </g>
     </g>
    </g>
    <g id="xtick_2">
     <g id="line2d_3">
      <path d="M 111.903487 249.251947 
L 111.903487 21.40024 
" clip-path="url(#pbbd6463207)" style="fill: none; stroke-dasharray: 0.8,1.32; stroke-dashoffset: 0; stroke: #cccccc; stroke-width: 0.8"/>
     </g>
     <g id="line2d_4"/>
     <g id="text_2">
      <!-- 0.25 -->
      <g style="fill: #262626" transform="translate(98.875831 263.601947)scale(0.14 -0.14)">
       <defs>
        <path id="JosefinSans-Regular-32" d="M 3213 602 
L 3213 0 
L 346 0 
L 557 211 
Q 1210 864 1574 1267 
Q 1939 1670 2185 2083 
Q 2432 2496 2432 2867 
Q 2432 3258 2201 3462 
Q 1971 3667 1638 3667 
Q 1376 3667 1200 3558 
Q 1024 3450 944 3283 
Q 864 3117 864 2950 
Q 864 2541 1114 2278 
L 736 1933 
Q 525 2061 393 2365 
Q 262 2669 262 2938 
Q 262 3290 438 3594 
Q 614 3898 947 4080 
Q 1280 4262 1741 4262 
Q 2131 4262 2435 4080 
Q 2739 3898 2905 3590 
Q 3072 3283 3072 2918 
Q 3072 2554 2899 2189 
Q 2726 1824 2473 1504 
Q 2221 1184 1798 710 
L 1702 602 
L 3213 602 
z
" transform="scale(0.015625)"/>
        <path id="JosefinSans-Regular-35" d="M 1645 2752 
Q 2061 2752 2358 2566 
Q 2656 2381 2809 2070 
Q 2963 1760 2963 1376 
Q 2963 979 2780 652 
Q 2598 326 2281 137 
Q 1965 -51 1568 -51 
Q 1242 -51 928 70 
Q 614 192 416 384 
L 749 870 
Q 877 723 1088 633 
Q 1299 544 1517 544 
Q 1869 544 2096 771 
Q 2323 998 2323 1357 
Q 2323 1747 2108 1987 
Q 1894 2227 1498 2227 
Q 1286 2227 1091 2166 
Q 896 2106 685 1984 
L 678 1984 
L 678 4211 
L 2694 4211 
L 2694 3616 
L 1216 3616 
L 1216 2701 
Q 1421 2752 1645 2752 
z
" transform="scale(0.015625)"/>
       </defs>
       <use xlink:href="#JosefinSans-Regular-30"/>
       <use xlink:href="#JosefinSans-Regular-2e" x="62.399994"/>
       <use xlink:href="#JosefinSans-Regular-32" x="79.299988"/>
       <use xlink:href="#JosefinSans-Regular-35" x="133.799973"/>
      </g>
     </g>
    </g>
    <g id="xtick_3">
     <g id="line2d_5">
      <path d="M 167.696557 249.251947 
L 167.696557 21.40024 
" clip-path="url(#pbbd6463207)" style="fill: none; stroke-dasharray: 0.8,1.32; stroke-dashoffset: 0; stroke: #cccccc; stroke-width: 0.8"/>
     </g>
     <g id="line2d_6"/>
     <g id="text_3">
      <!-- 0.50 -->
      <g style="fill: #262626" transform="translate(154.115463 263.601947)scale(0.14 -0.14)">
       <use xlink:href="#JosefinSans-Regular-30"/>
       <use xlink:href="#JosefinSans-Regular-2e" x="62.399994"/>
       <use xlink:href="#JosefinSans-Regular-35" x="79.299988"/>
       <use xlink:href="#JosefinSans-Regular-30" x="131.599976"/>
      </g>
     </g>
    </g>
    <g id="xtick_4">
     <g id="line2d_7">
      <path d="M 223.489627 249.251947 
L 223.489627 21.40024 
" clip-path="url(#pbbd6463207)" style="fill: none; stroke-dasharray: 0.8,1.32; stroke-dashoffset: 0; stroke: #cccccc; stroke-width: 0.8"/>
     </g>
     <g id="line2d_8"/>
     <g id="text_4">
      <!-- 0.75 -->
      <g style="fill: #262626" transform="translate(210.846971 263.601947)scale(0.14 -0.14)">
       <defs>
        <path id="JosefinSans-Regular-37" d="M 2957 4211 
L 1267 0 
L 570 0 
L 2048 3616 
L 198 3616 
L 198 4211 
L 2957 4211 
z
" transform="scale(0.015625)"/>
       </defs>
       <use xlink:href="#JosefinSans-Regular-30"/>
       <use xlink:href="#JosefinSans-Regular-2e" x="62.399994"/>
       <use xlink:href="#JosefinSans-Regular-37" x="79.299988"/>
       <use xlink:href="#JosefinSans-Regular-35" x="128.299973"/>
      </g>
     </g>
    </g>
    <g id="xtick_5">
     <g id="line2d_9">
      <path d="M 279.282697 249.251947 
L 279.282697 21.40024 
" clip-path="url(#pbbd6463207)" style="fill: none; stroke-dasharray: 0.8,1.32; stroke-dashoffset: 0; stroke: #cccccc; stroke-width: 0.8"/>
     </g>
     <g id="line2d_10"/>
     <g id="text_5">
      <!-- 1.00 -->
      <g style="fill: #262626" transform="translate(267.052385 263.601947)scale(0.14 -0.14)">
       <defs>
        <path id="JosefinSans-Regular-31" d="M 1446 4211 
L 1446 0 
L 819 0 
L 819 3616 
L 339 3616 
L 339 4211 
L 1446 4211 
z
" transform="scale(0.015625)"/>
       </defs>
       <use xlink:href="#JosefinSans-Regular-31"/>
       <use xlink:href="#JosefinSans-Regular-2e" x="32.999985"/>
       <use xlink:href="#JosefinSans-Regular-30" x="49.899979"/>
       <use xlink:href="#JosefinSans-Regular-30" x="112.299973"/>
      </g>
     </g>
    </g>
    <g id="text_6">
     <!-- probability of water -->
     <g style="fill: #262626" transform="translate(100.340698 282.013823)scale(0.15 -0.15)">
      <defs>
       <path id="JosefinSans-Regular-70" d="M 2195 2758 
Q 2566 2758 2867 2579 
Q 3168 2400 3341 2077 
Q 3514 1754 3514 1331 
Q 3514 915 3328 598 
Q 3142 282 2816 109 
Q 2490 -64 2086 -64 
Q 1798 -64 1536 61 
Q 1274 186 1114 397 
L 1114 -1274 
L 518 -1274 
L 518 2694 
L 1037 2694 
L 1088 2246 
Q 1293 2477 1577 2617 
Q 1862 2758 2195 2758 
z
M 1971 416 
Q 2221 416 2435 534 
Q 2650 653 2778 861 
Q 2906 1069 2906 1325 
Q 2906 1587 2787 1798 
Q 2669 2010 2464 2131 
Q 2259 2253 2010 2253 
Q 1670 2253 1430 2064 
Q 1190 1875 1114 1555 
L 1114 1114 
Q 1165 806 1405 611 
Q 1645 416 1971 416 
z
" transform="scale(0.015625)"/>
       <path id="JosefinSans-Regular-72" d="M 1094 2022 
Q 1197 2240 1385 2406 
Q 1574 2573 1785 2662 
Q 1997 2752 2157 2758 
L 2131 2163 
Q 1843 2176 1609 2048 
Q 1376 1920 1245 1693 
Q 1114 1466 1114 1210 
L 1114 0 
L 518 0 
L 518 2650 
L 1050 2650 
L 1094 2022 
z
" transform="scale(0.015625)"/>
       <path id="JosefinSans-Regular-6f" d="M 288 1350 
Q 288 1741 477 2064 
Q 666 2387 1002 2572 
Q 1338 2758 1760 2758 
Q 2182 2758 2512 2572 
Q 2842 2387 3024 2067 
Q 3206 1747 3206 1350 
Q 3206 954 3024 630 
Q 2842 307 2509 121 
Q 2176 -64 1747 -64 
Q 1331 -64 998 112 
Q 666 288 477 608 
Q 288 928 288 1350 
z
M 890 1344 
Q 890 1094 1002 883 
Q 1114 672 1309 550 
Q 1504 429 1741 429 
Q 2112 429 2355 691 
Q 2598 954 2598 1344 
Q 2598 1734 2355 2000 
Q 2112 2266 1741 2266 
Q 1498 2266 1306 2141 
Q 1114 2016 1002 1805 
Q 890 1594 890 1344 
z
" transform="scale(0.015625)"/>
       <path id="JosefinSans-Regular-62" d="M 2214 2758 
Q 2573 2758 2870 2585 
Q 3168 2413 3341 2099 
Q 3514 1786 3514 1370 
Q 3514 934 3328 608 
Q 3142 282 2825 109 
Q 2509 -64 2138 -64 
Q 1811 -64 1545 64 
Q 1280 192 1114 410 
L 1114 0 
L 518 0 
L 518 4960 
L 1114 4960 
L 1114 2298 
Q 1280 2509 1571 2633 
Q 1862 2758 2214 2758 
z
M 2010 448 
Q 2400 448 2653 710 
Q 2906 973 2906 1370 
Q 2906 1626 2787 1834 
Q 2669 2042 2464 2163 
Q 2259 2285 2010 2285 
Q 1683 2285 1436 2109 
Q 1190 1933 1114 1645 
L 1114 1107 
Q 1190 819 1433 633 
Q 1677 448 2010 448 
z
" transform="scale(0.015625)"/>
       <path id="JosefinSans-Regular-61" d="M 3238 2650 
L 3238 0 
L 2643 0 
L 2643 435 
Q 2502 250 2233 93 
Q 1965 -64 1626 -64 
Q 1248 -64 944 99 
Q 640 262 464 576 
Q 288 890 288 1325 
Q 288 1760 470 2083 
Q 653 2406 963 2582 
Q 1274 2758 1651 2758 
Q 1990 2758 2240 2611 
Q 2490 2464 2643 2227 
L 2688 2650 
L 3238 2650 
z
M 1786 429 
Q 2112 429 2345 611 
Q 2579 794 2643 1107 
L 2643 1632 
Q 2566 1914 2323 2090 
Q 2080 2266 1766 2266 
Q 1530 2266 1328 2150 
Q 1126 2035 1008 1827 
Q 890 1619 890 1357 
Q 890 1101 1011 889 
Q 1133 678 1337 553 
Q 1542 429 1786 429 
z
" transform="scale(0.015625)"/>
       <path id="JosefinSans-Regular-69" d="M 1114 2650 
L 1114 0 
L 518 0 
L 518 2650 
L 1114 2650 
z
M 477 3590 
Q 477 3731 585 3827 
Q 694 3923 835 3923 
Q 976 3923 1081 3827 
Q 1187 3731 1187 3590 
Q 1187 3450 1081 3354 
Q 976 3258 835 3258 
Q 694 3258 585 3354 
Q 477 3450 477 3590 
z
" transform="scale(0.015625)"/>
       <path id="JosefinSans-Regular-6c" d="M 1114 4960 
L 1114 0 
L 518 0 
L 518 4960 
L 1114 4960 
z
" transform="scale(0.015625)"/>
       <path id="JosefinSans-Regular-74" d="M 1376 3814 
L 1376 2643 
L 2099 2643 
L 2099 2170 
L 1376 2170 
L 1376 0 
L 774 0 
L 774 2170 
L 288 2170 
L 288 2643 
L 774 2643 
L 774 3814 
L 1376 3814 
z
" transform="scale(0.015625)"/>
       <path id="JosefinSans-Regular-79" d="M 3040 2650 
L 1331 -1274 
L 742 -1274 
L 1350 90 
L 122 2650 
L 794 2650 
L 1651 762 
L 2490 2650 
L 3040 2650 
z
" transform="scale(0.015625)"/>
       <path id="JosefinSans-Regular-20" transform="scale(0.015625)"/>
       <path id="JosefinSans-Regular-66" d="M 736 2118 
L 282 2118 
L 282 2656 
L 736 2656 
L 736 3770 
Q 736 4346 998 4653 
Q 1261 4960 1766 4960 
Q 1907 4960 2067 4918 
Q 2227 4877 2349 4800 
L 2093 4365 
Q 1997 4467 1824 4467 
Q 1581 4467 1456 4300 
Q 1331 4134 1331 3763 
L 1331 2656 
L 2176 2656 
L 2176 2118 
L 1331 2118 
L 1331 0 
L 736 0 
L 736 2118 
z
" transform="scale(0.015625)"/>
       <path id="JosefinSans-Regular-77" d="M 4198 2650 
L 2976 -160 
L 2125 1658 
L 1350 -160 
L 122 2650 
L 710 2650 
L 1421 1043 
L 1914 2195 
L 1702 2650 
L 2221 2650 
L 2938 1005 
L 3610 2650 
L 4198 2650 
z
" transform="scale(0.015625)"/>
       <path id="JosefinSans-Regular-65" d="M 1760 448 
Q 2093 448 2406 678 
L 2682 237 
Q 2470 96 2224 16 
Q 1978 -64 1747 -64 
Q 1306 -64 976 118 
Q 646 301 467 621 
Q 288 941 288 1344 
Q 288 1734 483 2057 
Q 678 2381 1017 2569 
Q 1357 2758 1760 2758 
Q 2278 2758 2627 2454 
Q 2976 2150 3104 1606 
L 1005 870 
Q 1120 672 1315 560 
Q 1510 448 1760 448 
z
M 1715 2285 
Q 1350 2285 1113 2029 
Q 877 1773 877 1376 
Q 877 1280 883 1229 
L 2426 1798 
Q 2330 2016 2154 2150 
Q 1978 2285 1715 2285 
z
" transform="scale(0.015625)"/>
      </defs>
      <use xlink:href="#JosefinSans-Regular-70"/>
      <use xlink:href="#JosefinSans-Regular-72" x="59.299988"/>
      <use xlink:href="#JosefinSans-Regular-6f" x="96.899979"/>
      <use xlink:href="#JosefinSans-Regular-62" x="151.399963"/>
      <use xlink:href="#JosefinSans-Regular-61" x="210.699951"/>
      <use xlink:href="#JosefinSans-Regular-62" x="269.399948"/>
      <use xlink:href="#JosefinSans-Regular-69" x="328.699936"/>
      <use xlink:href="#JosefinSans-Regular-6c" x="354.199921"/>
      <use xlink:href="#JosefinSans-Regular-69" x="379.699905"/>
      <use xlink:href="#JosefinSans-Regular-74" x="405.19989"/>
      <use xlink:href="#JosefinSans-Regular-79" x="441.199875"/>
      <use xlink:href="#JosefinSans-Regular-20" x="490.599869"/>
      <use xlink:href="#JosefinSans-Regular-6f" x="522.19986"/>
      <use xlink:href="#JosefinSans-Regular-66" x="576.699844"/>
      <use xlink:href="#JosefinSans-Regular-20" x="614.699829"/>
      <use xlink:href="#JosefinSans-Regular-77" x="646.29982"/>
      <use xlink:href="#JosefinSans-Regular-61" x="713.799805"/>
      <use xlink:href="#JosefinSans-Regular-74" x="772.499802"/>
      <use xlink:href="#JosefinSans-Regular-65" x="808.499786"/>
      <use xlink:href="#JosefinSans-Regular-72" x="860.499771"/>
     </g>
    </g>
   </g>
   <g id="matplotlib.axis_2">
    <g id="ytick_1">
     <g id="line2d_11">
      <path d="M 44.951803 238.895052 
L 290.441312 238.895052 
" clip-path="url(#pbbd6463207)" style="fill: none; stroke-dasharray: 0.8,1.32; stroke-dashoffset: 0; stroke: #cccccc; stroke-width: 0.8"/>
     </g>
     <g id="line2d_12"/>
     <g id="text_7">
      <!-- 0.0 -->
      <g style="fill: #262626" transform="translate(21.611178 244.320052)scale(0.14 -0.14)">
       <use xlink:href="#JosefinSans-Regular-30"/>
       <use xlink:href="#JosefinSans-Regular-2e" x="62.399994"/>
       <use xlink:href="#JosefinSans-Regular-30" x="79.299988"/>
      </g>
     </g>
    </g>
    <g id="ytick_2">
     <g id="line2d_13">
      <path d="M 44.951803 200.975636 
L 290.441312 200.975636 
" clip-path="url(#pbbd6463207)" style="fill: none; stroke-dasharray: 0.8,1.32; stroke-dashoffset: 0; stroke: #cccccc; stroke-width: 0.8"/>
     </g>
     <g id="line2d_14"/>
     <g id="text_8">
      <!-- 0.5 -->
      <g style="fill: #262626" transform="translate(23.02649 206.400636)scale(0.14 -0.14)">
       <use xlink:href="#JosefinSans-Regular-30"/>
       <use xlink:href="#JosefinSans-Regular-2e" x="62.399994"/>
       <use xlink:href="#JosefinSans-Regular-35" x="79.299988"/>
      </g>
     </g>
    </g>
    <g id="ytick_3">
     <g id="line2d_15">
      <path d="M 44.951803 163.05622 
L 290.441312 163.05622 
" clip-path="url(#pbbd6463207)" style="fill: none; stroke-dasharray: 0.8,1.32; stroke-dashoffset: 0; stroke: #cccccc; stroke-width: 0.8"/>
     </g>
     <g id="line2d_16"/>
     <g id="text_9">
      <!-- 1.0 -->
      <g style="fill: #262626" transform="translate(25.728053 168.48122)scale(0.14 -0.14)">
       <use xlink:href="#JosefinSans-Regular-31"/>
       <use xlink:href="#JosefinSans-Regular-2e" x="32.999985"/>
       <use xlink:href="#JosefinSans-Regular-30" x="49.899979"/>
      </g>
     </g>
    </g>
    <g id="ytick_4">
     <g id="line2d_17">
      <path d="M 44.951803 125.136804 
L 290.441312 125.136804 
" clip-path="url(#pbbd6463207)" style="fill: none; stroke-dasharray: 0.8,1.32; stroke-dashoffset: 0; stroke: #cccccc; stroke-width: 0.8"/>
     </g>
     <g id="line2d_18"/>
     <g id="text_10">
      <!-- 1.5 -->
      <g style="fill: #262626" transform="translate(27.143365 130.561804)scale(0.14 -0.14)">
       <use xlink:href="#JosefinSans-Regular-31"/>
       <use xlink:href="#JosefinSans-Regular-2e" x="32.999985"/>
       <use xlink:href="#JosefinSans-Regular-35" x="49.899979"/>
      </g>
     </g>
    </g>
    <g id="ytick_5">
     <g id="line2d_19">
      <path d="M 44.951803 87.217388 
L 290.441312 87.217388 
" clip-path="url(#pbbd6463207)" style="fill: none; stroke-dasharray: 0.8,1.32; stroke-dashoffset: 0; stroke: #cccccc; stroke-width: 0.8"/>
     </g>
     <g id="line2d_20"/>
     <g id="text_11">
      <!-- 2.0 -->
      <g style="fill: #262626" transform="translate(22.718053 92.642388)scale(0.14 -0.14)">
       <use xlink:href="#JosefinSans-Regular-32"/>
       <use xlink:href="#JosefinSans-Regular-2e" x="54.499985"/>
       <use xlink:href="#JosefinSans-Regular-30" x="71.399979"/>
      </g>
     </g>
    </g>
    <g id="ytick_6">
     <g id="line2d_21">
      <path d="M 44.951803 49.297972 
L 290.441312 49.297972 
" clip-path="url(#pbbd6463207)" style="fill: none; stroke-dasharray: 0.8,1.32; stroke-dashoffset: 0; stroke: #cccccc; stroke-width: 0.8"/>
     </g>
     <g id="line2d_22"/>
     <g id="text_12">
      <!-- 2.5 -->
      <g style="fill: #262626" transform="translate(24.133365 54.722972)scale(0.14 -0.14)">
       <use xlink:href="#JosefinSans-Regular-32"/>
       <use xlink:href="#JosefinSans-Regular-2e" x="54.499985"/>
       <use xlink:href="#JosefinSans-Regular-35" x="71.399979"/>
      </g>
     </g>
    </g>
    <g id="text_13">
     <!-- density -->
     <g style="fill: #262626" transform="translate(14.62524 159.198359)rotate(-90)scale(0.15 -0.15)">
      <defs>
       <path id="JosefinSans-Regular-64" d="M 3283 4960 
L 3283 0 
L 2682 0 
L 2682 416 
Q 2490 192 2211 64 
Q 1933 -64 1600 -64 
Q 1229 -64 928 115 
Q 627 294 457 617 
Q 288 941 288 1363 
Q 288 1792 467 2109 
Q 646 2426 960 2592 
Q 1274 2758 1670 2758 
Q 1971 2758 2249 2633 
Q 2528 2509 2688 2291 
L 2688 4960 
L 3283 4960 
z
M 1786 448 
Q 2131 448 2371 633 
Q 2611 819 2682 1133 
L 2682 1632 
Q 2605 1920 2355 2102 
Q 2106 2285 1786 2285 
Q 1542 2285 1337 2166 
Q 1133 2048 1011 1840 
Q 890 1632 890 1370 
Q 890 1114 1011 902 
Q 1133 691 1337 569 
Q 1542 448 1786 448 
z
" transform="scale(0.015625)"/>
       <path id="JosefinSans-Regular-6e" d="M 2163 2752 
Q 2534 2752 2777 2531 
Q 3021 2310 3027 1958 
L 3027 0 
L 2426 0 
L 2426 1754 
Q 2413 1978 2291 2106 
Q 2170 2234 1926 2240 
Q 1574 2240 1344 1958 
Q 1114 1677 1114 1242 
L 1114 0 
L 518 0 
L 518 2650 
L 1056 2650 
L 1094 2138 
Q 1235 2426 1516 2589 
Q 1798 2752 2163 2752 
z
" transform="scale(0.015625)"/>
       <path id="JosefinSans-Regular-73" d="M 1267 -58 
Q 973 -58 707 44 
Q 442 147 275 346 
L 531 691 
Q 691 538 867 454 
Q 1043 371 1216 371 
Q 1427 371 1561 454 
Q 1696 538 1696 710 
Q 1696 845 1613 928 
Q 1530 1011 1424 1049 
Q 1318 1088 1069 1165 
Q 390 1382 390 1939 
Q 390 2272 636 2509 
Q 883 2746 1325 2746 
Q 1606 2746 1824 2675 
Q 2042 2605 2227 2451 
L 1990 2086 
Q 1888 2195 1731 2259 
Q 1574 2323 1434 2330 
Q 1254 2330 1126 2243 
Q 998 2157 998 2010 
Q 998 1888 1081 1808 
Q 1165 1728 1254 1693 
Q 1344 1658 1606 1574 
Q 1933 1466 2115 1293 
Q 2298 1120 2298 826 
Q 2298 442 2029 192 
Q 1760 -58 1267 -58 
z
" transform="scale(0.015625)"/>
      </defs>
      <use xlink:href="#JosefinSans-Regular-64"/>
      <use xlink:href="#JosefinSans-Regular-65" x="59.299988"/>
      <use xlink:href="#JosefinSans-Regular-6e" x="111.299973"/>
      <use xlink:href="#JosefinSans-Regular-73" x="166.59996"/>
      <use xlink:href="#JosefinSans-Regular-69" x="207.399948"/>
      <use xlink:href="#JosefinSans-Regular-74" x="232.899933"/>
      <use xlink:href="#JosefinSans-Regular-79" x="268.899918"/>
     </g>
    </g>
   </g>
   <g id="line2d_23">
    <path d="M 56.110417 238.895052 
L 58.364682 238.895052 
L 60.618947 238.895048 
L 62.873213 238.895007 
L 65.127478 238.894807 
L 67.381744 238.894147 
L 69.636009 238.892435 
L 71.890275 238.888663 
L 74.14454 238.881276 
L 76.398806 238.868035 
L 78.653071 238.84589 
L 80.907337 238.810862 
L 83.161602 238.757932 
L 85.415868 238.680955 
L 87.670133 238.572589 
L 89.924399 238.424248 
L 92.178664 238.226079 
L 94.432929 237.966963 
L 96.687195 237.634548 
L 98.94146 237.215298 
L 101.195726 236.694582 
L 103.449991 236.056781 
L 105.704257 235.285424 
L 107.958522 234.363343 
L 110.212788 233.272863 
L 112.467053 231.996 
L 114.721319 230.514689 
L 116.975584 228.811019 
L 119.22985 226.867495 
L 121.484115 224.6673 
L 123.73838 222.194571 
L 125.992646 219.434683 
L 128.246911 216.37453 
L 130.501177 213.002812 
L 132.755442 209.310313 
L 135.009708 205.290171 
L 137.263973 200.938144 
L 139.518239 196.252854 
L 141.772504 191.236016 
L 144.02677 185.892648 
L 146.281035 180.231257 
L 148.535301 174.26399 
L 150.789566 168.006765 
L 153.043832 161.479363 
L 155.298097 154.705481 
L 157.552362 147.712754 
L 159.806628 140.532731 
L 162.060893 133.200805 
L 164.315159 125.756107 
L 166.569424 118.241347 
L 168.82369 110.702605 
L 171.077955 103.189087 
L 173.332221 95.752813 
L 175.586486 88.448277 
L 177.840752 81.332041 
L 180.095017 74.462296 
L 182.349283 67.898364 
L 184.603548 61.700169 
L 186.857813 55.927658 
L 189.112079 50.640185 
L 191.366344 45.895859 
L 193.62061 41.750868 
L 195.874875 38.258766 
L 198.129141 35.46975 
L 200.383406 33.429913 
L 202.637672 32.180495 
L 204.891937 31.757136 
L 207.146203 32.189129 
L 209.400468 33.498699 
L 211.654734 35.700304 
L 213.908999 38.799975 
L 216.163265 42.794708 
L 218.41753 47.671914 
L 220.671795 53.40895 
L 222.926061 59.972735 
L 225.180326 67.319472 
L 227.434592 75.394497 
L 229.688857 84.132257 
L 231.943123 93.456457 
L 234.197388 103.280371 
L 236.451654 113.507364 
L 238.705919 124.031617 
L 240.960185 134.73911 
L 243.21445 145.508859 
L 245.468716 156.214443 
L 247.722981 166.725862 
L 249.977246 176.911718 
L 252.231512 186.641788 
L 254.485777 195.789991 
L 256.740043 204.237793 
L 258.994308 211.878075 
L 261.248574 218.619509 
L 263.502839 224.39147 
L 265.757105 229.149518 
L 268.01137 232.881496 
L 270.265636 235.614282 
L 272.519901 237.421229 
L 274.774167 238.43035 
L 277.028432 238.833277 
L 279.282697 238.895052 
" clip-path="url(#pbbd6463207)" style="fill: none; stroke: #cfcfcf; stroke-width: 1.5; stroke-linecap: round"/>
   </g>
   <g id="line2d_24">
    <path d="M 56.110417 238.87129 
L 58.364682 238.863904 
L 60.618947 238.854391 
L 62.873213 238.842191 
L 65.127478 238.826614 
L 67.381744 238.806812 
L 69.636009 238.781749 
L 71.890275 238.750168 
L 74.14454 238.710549 
L 76.398806 238.661064 
L 78.653071 238.599531 
L 80.907337 238.523355 
L 83.161602 238.429471 
L 85.415868 238.314279 
L 87.670133 238.173574 
L 89.924399 238.002476 
L 92.178664 237.795356 
L 94.432929 237.545761 
L 96.687195 237.246343 
L 98.94146 236.88879 
L 101.195726 236.463761 
L 103.449991 235.960841 
L 105.704257 235.368492 
L 107.958522 234.674039 
L 110.212788 233.863669 
L 112.467053 232.922451 
L 114.721319 231.834397 
L 116.975584 230.582547 
L 119.22985 229.149102 
L 121.484115 227.515586 
L 123.73838 225.663067 
L 125.992646 223.572416 
L 128.246911 221.224612 
L 130.501177 218.6011 
L 132.755442 215.684188 
L 135.009708 212.457492 
L 137.263973 208.906408 
L 139.518239 205.018618 
L 141.772504 200.784614 
L 144.02677 196.198227 
L 146.281035 191.257151 
L 148.535301 185.963448 
L 150.789566 180.324019 
L 153.043832 174.351017 
L 155.298097 168.0622 
L 157.552362 161.481188 
L 159.806628 154.637633 
L 162.060893 147.56726 
L 164.315159 140.311797 
L 166.569424 132.918754 
L 168.82369 125.441072 
L 171.077955 117.936629 
L 173.332221 110.467592 
L 175.586486 103.09965 
L 177.840752 95.901113 
L 180.095017 88.941903 
L 182.349283 82.292459 
L 184.603548 76.022576 
L 186.857813 70.200195 
L 189.112079 64.89019 
L 191.366344 60.153174 
L 193.62061 56.044344 
L 195.874875 52.612418 
L 198.129141 49.898671 
L 200.383406 47.936109 
L 202.637672 46.748803 
L 204.891937 46.351396 
L 207.146203 46.748803 
L 209.400468 47.936109 
L 211.654734 49.89867 
L 213.908999 52.612418 
L 216.163265 56.044344 
L 218.41753 60.153173 
L 220.671795 64.89019 
L 222.926061 70.200194 
L 225.180326 76.022576 
L 227.434592 82.292459 
L 229.688857 88.941902 
L 231.943123 95.901112 
L 234.197388 103.099649 
L 236.451654 110.467591 
L 238.705919 117.936628 
L 240.960185 125.441072 
L 243.21445 132.918753 
L 245.468716 140.311796 
L 247.722981 147.56726 
L 249.977246 154.637632 
L 252.231512 161.481188 
L 254.485777 168.062199 
L 256.740043 174.351017 
L 258.994308 180.324018 
L 261.248574 185.963447 
L 263.502839 191.25715 
L 265.757105 196.198227 
L 268.01137 200.784614 
L 270.265636 205.018618 
L 272.519901 208.906408 
L 274.774167 212.457492 
L 277.028432 215.684188 
L 279.282697 218.6011 
" clip-path="url(#pbbd6463207)" style="fill: none; stroke: #81aca4; stroke-width: 1.5; stroke-linecap: round"/>
   </g>
   <g id="text_14">
    <!-- $n=9$ -->
    <g style="fill: #262626" transform="translate(147.696557 15.40024)scale(0.16 -0.16)">
     <defs>
      <path id="DejaVuSans-Oblique-6e" d="M 3566 2113 
L 3156 0 
L 2578 0 
L 2988 2091 
Q 3016 2238 3031 2350 
Q 3047 2463 3047 2528 
Q 3047 2791 2881 2937 
Q 2716 3084 2419 3084 
Q 1956 3084 1622 2776 
Q 1288 2469 1184 1941 
L 800 0 
L 225 0 
L 903 3500 
L 1478 3500 
L 1363 2950 
Q 1603 3253 1940 3418 
Q 2278 3584 2650 3584 
Q 3113 3584 3367 3334 
Q 3622 3084 3622 2631 
Q 3622 2519 3608 2391 
Q 3594 2263 3566 2113 
z
" transform="scale(0.015625)"/>
      <path id="DejaVuSans-3d" d="M 678 2906 
L 4684 2906 
L 4684 2381 
L 678 2381 
L 678 2906 
z
M 678 1631 
L 4684 1631 
L 4684 1100 
L 678 1100 
L 678 1631 
z
" transform="scale(0.015625)"/>
      <path id="DejaVuSans-39" d="M 703 97 
L 703 672 
Q 941 559 1184 500 
Q 1428 441 1663 441 
Q 2288 441 2617 861 
Q 2947 1281 2994 2138 
Q 2813 1869 2534 1725 
Q 2256 1581 1919 1581 
Q 1219 1581 811 2004 
Q 403 2428 403 3163 
Q 403 3881 828 4315 
Q 1253 4750 1959 4750 
Q 2769 4750 3195 4129 
Q 3622 3509 3622 2328 
Q 3622 1225 3098 567 
Q 2575 -91 1691 -91 
Q 1453 -91 1209 -44 
Q 966 3 703 97 
z
M 1959 2075 
Q 2384 2075 2632 2365 
Q 2881 2656 2881 3163 
Q 2881 3666 2632 3958 
Q 2384 4250 1959 4250 
Q 1534 4250 1286 3958 
Q 1038 3666 1038 3163 
Q 1038 2656 1286 2365 
Q 1534 2075 1959 2075 
z
" transform="scale(0.015625)"/>
     </defs>
     <use xlink:href="#DejaVuSans-Oblique-6e" transform="translate(0 0.78125)"/>
     <use xlink:href="#DejaVuSans-3d" transform="translate(82.861328 0.78125)"/>
     <use xlink:href="#DejaVuSans-39" transform="translate(186.132812 0.78125)"/>
    </g>
   </g>
   <g id="legend_1">
    <g id="line2d_25">
     <path d="M 57.551803 39.95024 
L 71.551803 39.95024 
L 85.551803 39.95024 
" style="fill: none; stroke: #cfcfcf; stroke-width: 1.5; stroke-linecap: round"/>
    </g>
    <g id="text_15">
     <!-- True posterior -->
     <g style="fill: #262626" transform="translate(96.751803 44.85024)scale(0.14 -0.14)">
      <defs>
       <path id="JosefinSans-Regular-54" d="M 3398 4627 
L 3398 4032 
L 2157 4032 
L 2157 0 
L 1536 0 
L 1536 4032 
L 326 4032 
L 326 4627 
L 3398 4627 
z
" transform="scale(0.015625)"/>
       <path id="JosefinSans-Regular-75" d="M 2982 2650 
L 2982 0 
L 2445 0 
L 2406 506 
Q 2272 237 1990 67 
Q 1709 -102 1363 -102 
Q 998 -102 764 118 
Q 531 339 518 691 
L 518 2650 
L 1114 2650 
L 1114 902 
Q 1126 678 1244 547 
Q 1363 416 1600 410 
Q 1818 410 1997 541 
Q 2176 672 2281 902 
Q 2387 1133 2387 1414 
L 2387 2650 
L 2982 2650 
z
" transform="scale(0.015625)"/>
      </defs>
      <use xlink:href="#JosefinSans-Regular-54"/>
      <use xlink:href="#JosefinSans-Regular-72" x="58.199997"/>
      <use xlink:href="#JosefinSans-Regular-75" x="95.799988"/>
      <use xlink:href="#JosefinSans-Regular-65" x="150.499985"/>
      <use xlink:href="#JosefinSans-Regular-20" x="202.499969"/>
      <use xlink:href="#JosefinSans-Regular-70" x="234.09996"/>
      <use xlink:href="#JosefinSans-Regular-6f" x="293.399948"/>
      <use xlink:href="#JosefinSans-Regular-73" x="347.899933"/>
      <use xlink:href="#JosefinSans-Regular-74" x="388.699921"/>
      <use xlink:href="#JosefinSans-Regular-65" x="424.699905"/>
      <use xlink:href="#JosefinSans-Regular-72" x="476.69989"/>
      <use xlink:href="#JosefinSans-Regular-69" x="514.299881"/>
      <use xlink:href="#JosefinSans-Regular-6f" x="539.799866"/>
      <use xlink:href="#JosefinSans-Regular-72" x="594.29985"/>
     </g>
    </g>
    <g id="line2d_26">
     <path d="M 57.551803 60.587115 
L 71.551803 60.587115 
L 85.551803 60.587115 
" style="fill: none; stroke: #81aca4; stroke-width: 1.5; stroke-linecap: round"/>
    </g>
    <g id="text_16">
     <!-- Quadratic approximation -->
     <g style="fill: #262626" transform="translate(96.751803 65.487115)scale(0.14 -0.14)">
      <defs>
       <path id="JosefinSans-Regular-51" d="M 5306 0 
L 3226 0 
Q 2982 -51 2739 -51 
Q 2099 -51 1555 262 
Q 1011 576 694 1117 
Q 378 1658 378 2310 
Q 378 2944 698 3488 
Q 1018 4032 1558 4355 
Q 2099 4678 2739 4678 
Q 3373 4678 3917 4355 
Q 4461 4032 4784 3488 
Q 5107 2944 5107 2310 
Q 5107 1818 4915 1376 
Q 4723 934 4378 608 
L 5306 608 
L 5306 0 
z
M 1018 2304 
Q 1018 1830 1248 1427 
Q 1478 1024 1878 787 
Q 2278 550 2752 550 
Q 3226 550 3619 784 
Q 4013 1018 4240 1424 
Q 4467 1830 4467 2310 
Q 4467 2784 4236 3187 
Q 4006 3590 3609 3827 
Q 3213 4064 2739 4064 
Q 2266 4064 1869 3824 
Q 1472 3584 1245 3181 
Q 1018 2778 1018 2304 
z
" transform="scale(0.015625)"/>
       <path id="JosefinSans-Regular-63" d="M 2669 250 
Q 2490 102 2243 19 
Q 1997 -64 1741 -64 
Q 1312 -64 982 109 
Q 653 282 470 598 
Q 288 915 288 1331 
Q 288 1741 480 2057 
Q 672 2374 992 2547 
Q 1312 2720 1683 2720 
Q 2291 2720 2688 2387 
L 2387 1997 
Q 2259 2093 2092 2160 
Q 1926 2227 1734 2227 
Q 1498 2227 1302 2108 
Q 1107 1990 995 1785 
Q 883 1581 883 1331 
Q 883 1082 1001 877 
Q 1120 672 1325 550 
Q 1530 429 1792 429 
Q 2118 429 2362 621 
L 2669 250 
z
" transform="scale(0.015625)"/>
       <path id="JosefinSans-Regular-78" d="M 2138 0 
L 1427 934 
L 762 0 
L 154 0 
L 1126 1331 
L 122 2650 
L 864 2650 
L 1562 1728 
L 2157 2650 
L 2758 2650 
L 1837 1363 
L 2861 0 
L 2138 0 
z
" transform="scale(0.015625)"/>
       <path id="JosefinSans-Regular-6d" d="M 3917 2758 
Q 4301 2758 4528 2540 
Q 4755 2323 4768 1965 
L 4768 0 
L 4173 0 
L 4173 1747 
Q 4154 2214 3750 2240 
Q 3520 2240 3337 2102 
Q 3155 1965 3052 1741 
Q 2950 1517 2944 1261 
L 2944 0 
L 2342 0 
L 2342 1747 
Q 2323 2214 1907 2240 
Q 1683 2240 1500 2102 
Q 1318 1965 1216 1737 
Q 1114 1510 1114 1254 
L 1114 0 
L 518 0 
L 518 2650 
L 1056 2650 
L 1101 2150 
Q 1254 2438 1520 2598 
Q 1786 2758 2125 2758 
Q 2445 2758 2662 2608 
Q 2880 2458 2944 2195 
Q 3110 2458 3366 2608 
Q 3622 2758 3917 2758 
z
" transform="scale(0.015625)"/>
      </defs>
      <use xlink:href="#JosefinSans-Regular-51"/>
      <use xlink:href="#JosefinSans-Regular-75" x="88.799988"/>
      <use xlink:href="#JosefinSans-Regular-61" x="143.499985"/>
      <use xlink:href="#JosefinSans-Regular-64" x="202.199982"/>
      <use xlink:href="#JosefinSans-Regular-72" x="261.499969"/>
      <use xlink:href="#JosefinSans-Regular-61" x="299.09996"/>
      <use xlink:href="#JosefinSans-Regular-74" x="357.799957"/>
      <use xlink:href="#JosefinSans-Regular-69" x="393.799942"/>
      <use xlink:href="#JosefinSans-Regular-63" x="419.299927"/>
      <use xlink:href="#JosefinSans-Regular-20" x="464.899918"/>
      <use xlink:href="#JosefinSans-Regular-61" x="496.499908"/>
      <use xlink:href="#JosefinSans-Regular-70" x="555.199905"/>
      <use xlink:href="#JosefinSans-Regular-70" x="614.499893"/>
      <use xlink:href="#JosefinSans-Regular-72" x="673.799881"/>
      <use xlink:href="#JosefinSans-Regular-6f" x="711.399872"/>
      <use xlink:href="#JosefinSans-Regular-78" x="765.899857"/>
      <use xlink:href="#JosefinSans-Regular-69" x="812.499847"/>
      <use xlink:href="#JosefinSans-Regular-6d" x="837.999832"/>
      <use xlink:href="#JosefinSans-Regular-61" x="920.499817"/>
      <use xlink:href="#JosefinSans-Regular-74" x="979.199814"/>
      <use xlink:href="#JosefinSans-Regular-69" x="1015.199799"/>
      <use xlink:href="#JosefinSans-Regular-6f" x="1040.699783"/>
      <use xlink:href="#JosefinSans-Regular-6e" x="1095.199768"/>
     </g>
    </g>
   </g>
  </g>
  <g id="axes_2">
   <g id="patch_3">
    <path d="M 329.250553 249.251947 
L 574.740062 249.251947 
L 574.740062 21.40024 
L 329.250553 21.40024 
z
" style="fill: #ffffff"/>
   </g>
   <g id="matplotlib.axis_3">
    <g id="xtick_6">
     <g id="line2d_27">
      <path d="M 340.409167 249.251947 
L 340.409167 21.40024 
" clip-path="url(#pdac9500e1b)" style="fill: none; stroke-dasharray: 0.8,1.32; stroke-dashoffset: 0; stroke: #cccccc; stroke-width: 0.8"/>
     </g>
     <g id="line2d_28"/>
     <g id="text_17">
      <!-- 0.00 -->
      <g style="fill: #262626" transform="translate(326.120417 263.601947)scale(0.14 -0.14)">
       <use xlink:href="#JosefinSans-Regular-30"/>
       <use xlink:href="#JosefinSans-Regular-2e" x="62.399994"/>
       <use xlink:href="#JosefinSans-Regular-30" x="79.299988"/>
       <use xlink:href="#JosefinSans-Regular-30" x="141.699982"/>
      </g>
     </g>
    </g>
    <g id="xtick_7">
     <g id="line2d_29">
      <path d="M 396.202237 249.251947 
L 396.202237 21.40024 
" clip-path="url(#pdac9500e1b)" style="fill: none; stroke-dasharray: 0.8,1.32; stroke-dashoffset: 0; stroke: #cccccc; stroke-width: 0.8"/>
     </g>
     <g id="line2d_30"/>
     <g id="text_18">
      <!-- 0.25 -->
      <g style="fill: #262626" transform="translate(383.174581 263.601947)scale(0.14 -0.14)">
       <use xlink:href="#JosefinSans-Regular-30"/>
       <use xlink:href="#JosefinSans-Regular-2e" x="62.399994"/>
       <use xlink:href="#JosefinSans-Regular-32" x="79.299988"/>
       <use xlink:href="#JosefinSans-Regular-35" x="133.799973"/>
      </g>
     </g>
    </g>
    <g id="xtick_8">
     <g id="line2d_31">
      <path d="M 451.995307 249.251947 
L 451.995307 21.40024 
" clip-path="url(#pdac9500e1b)" style="fill: none; stroke-dasharray: 0.8,1.32; stroke-dashoffset: 0; stroke: #cccccc; stroke-width: 0.8"/>
     </g>
     <g id="line2d_32"/>
     <g id="text_19">
      <!-- 0.50 -->
      <g style="fill: #262626" transform="translate(438.414213 263.601947)scale(0.14 -0.14)">
       <use xlink:href="#JosefinSans-Regular-30"/>
       <use xlink:href="#JosefinSans-Regular-2e" x="62.399994"/>
       <use xlink:href="#JosefinSans-Regular-35" x="79.299988"/>
       <use xlink:href="#JosefinSans-Regular-30" x="131.599976"/>
      </g>
     </g>
    </g>
    <g id="xtick_9">
     <g id="line2d_33">
      <path d="M 507.788377 249.251947 
L 507.788377 21.40024 
" clip-path="url(#pdac9500e1b)" style="fill: none; stroke-dasharray: 0.8,1.32; stroke-dashoffset: 0; stroke: #cccccc; stroke-width: 0.8"/>
     </g>
     <g id="line2d_34"/>
     <g id="text_20">
      <!-- 0.75 -->
      <g style="fill: #262626" transform="translate(495.145721 263.601947)scale(0.14 -0.14)">
       <use xlink:href="#JosefinSans-Regular-30"/>
       <use xlink:href="#JosefinSans-Regular-2e" x="62.399994"/>
       <use xlink:href="#JosefinSans-Regular-37" x="79.299988"/>
       <use xlink:href="#JosefinSans-Regular-35" x="128.299973"/>
      </g>
     </g>
    </g>
    <g id="xtick_10">
     <g id="line2d_35">
      <path d="M 563.581447 249.251947 
L 563.581447 21.40024 
" clip-path="url(#pdac9500e1b)" style="fill: none; stroke-dasharray: 0.8,1.32; stroke-dashoffset: 0; stroke: #cccccc; stroke-width: 0.8"/>
     </g>
     <g id="line2d_36"/>
     <g id="text_21">
      <!-- 1.00 -->
      <g style="fill: #262626" transform="translate(551.351135 263.601947)scale(0.14 -0.14)">
       <use xlink:href="#JosefinSans-Regular-31"/>
       <use xlink:href="#JosefinSans-Regular-2e" x="32.999985"/>
       <use xlink:href="#JosefinSans-Regular-30" x="49.899979"/>
       <use xlink:href="#JosefinSans-Regular-30" x="112.299973"/>
      </g>
     </g>
    </g>
    <g id="text_22">
     <!-- probability of water -->
     <g style="fill: #262626" transform="translate(384.639448 282.013823)scale(0.15 -0.15)">
      <use xlink:href="#JosefinSans-Regular-70"/>
      <use xlink:href="#JosefinSans-Regular-72" x="59.299988"/>
      <use xlink:href="#JosefinSans-Regular-6f" x="96.899979"/>
      <use xlink:href="#JosefinSans-Regular-62" x="151.399963"/>
      <use xlink:href="#JosefinSans-Regular-61" x="210.699951"/>
      <use xlink:href="#JosefinSans-Regular-62" x="269.399948"/>
      <use xlink:href="#JosefinSans-Regular-69" x="328.699936"/>
      <use xlink:href="#JosefinSans-Regular-6c" x="354.199921"/>
      <use xlink:href="#JosefinSans-Regular-69" x="379.699905"/>
      <use xlink:href="#JosefinSans-Regular-74" x="405.19989"/>
      <use xlink:href="#JosefinSans-Regular-79" x="441.199875"/>
      <use xlink:href="#JosefinSans-Regular-20" x="490.599869"/>
      <use xlink:href="#JosefinSans-Regular-6f" x="522.19986"/>
      <use xlink:href="#JosefinSans-Regular-66" x="576.699844"/>
      <use xlink:href="#JosefinSans-Regular-20" x="614.699829"/>
      <use xlink:href="#JosefinSans-Regular-77" x="646.29982"/>
      <use xlink:href="#JosefinSans-Regular-61" x="713.799805"/>
      <use xlink:href="#JosefinSans-Regular-74" x="772.499802"/>
      <use xlink:href="#JosefinSans-Regular-65" x="808.499786"/>
      <use xlink:href="#JosefinSans-Regular-72" x="860.499771"/>
     </g>
    </g>
   </g>
   <g id="matplotlib.axis_4">
    <g id="ytick_7">
     <g id="line2d_37">
      <path d="M 329.250553 238.895052 
L 574.740062 238.895052 
" clip-path="url(#pdac9500e1b)" style="fill: none; stroke-dasharray: 0.8,1.32; stroke-dashoffset: 0; stroke: #cccccc; stroke-width: 0.8"/>
     </g>
     <g id="line2d_38"/>
     <g id="text_23">
      <!-- 0 -->
      <g style="fill: #262626" transform="translate(317.013678 244.320052)scale(0.14 -0.14)">
       <use xlink:href="#JosefinSans-Regular-30"/>
      </g>
     </g>
    </g>
    <g id="ytick_8">
     <g id="line2d_39">
      <path d="M 329.250553 183.348503 
L 574.740062 183.348503 
" clip-path="url(#pdac9500e1b)" style="fill: none; stroke-dasharray: 0.8,1.32; stroke-dashoffset: 0; stroke: #cccccc; stroke-width: 0.8"/>
     </g>
     <g id="line2d_40"/>
     <g id="text_24">
      <!-- 1 -->
      <g style="fill: #262626" transform="translate(321.130553 188.773503)scale(0.14 -0.14)">
       <use xlink:href="#JosefinSans-Regular-31"/>
      </g>
     </g>
    </g>
    <g id="ytick_9">
     <g id="line2d_41">
      <path d="M 329.250553 127.801955 
L 574.740062 127.801955 
" clip-path="url(#pdac9500e1b)" style="fill: none; stroke-dasharray: 0.8,1.32; stroke-dashoffset: 0; stroke: #cccccc; stroke-width: 0.8"/>
     </g>
     <g id="line2d_42"/>
     <g id="text_25">
      <!-- 2 -->
      <g style="fill: #262626" transform="translate(318.120553 133.226955)scale(0.14 -0.14)">
       <use xlink:href="#JosefinSans-Regular-32"/>
      </g>
     </g>
    </g>
    <g id="ytick_10">
     <g id="line2d_43">
      <path d="M 329.250553 72.255406 
L 574.740062 72.255406 
" clip-path="url(#pdac9500e1b)" style="fill: none; stroke-dasharray: 0.8,1.32; stroke-dashoffset: 0; stroke: #cccccc; stroke-width: 0.8"/>
     </g>
     <g id="line2d_44"/>
     <g id="text_26">
      <!-- 3 -->
      <g style="fill: #262626" transform="translate(318.413678 77.680406)scale(0.14 -0.14)">
       <defs>
        <path id="JosefinSans-Regular-33" d="M 1830 2662 
Q 2317 2637 2630 2329 
Q 2944 2022 2944 1402 
Q 2944 966 2745 636 
Q 2547 307 2204 128 
Q 1862 -51 1453 -51 
Q 1152 -51 845 77 
Q 538 205 339 410 
L 659 922 
Q 781 768 998 659 
Q 1216 550 1440 550 
Q 1805 550 2054 793 
Q 2304 1037 2304 1440 
Q 2304 1798 2089 2012 
Q 1875 2227 1504 2227 
Q 1222 2227 960 2131 
L 941 2157 
L 1882 3616 
L 589 3616 
L 589 4211 
L 2797 4211 
L 1830 2662 
z
" transform="scale(0.015625)"/>
       </defs>
       <use xlink:href="#JosefinSans-Regular-33"/>
      </g>
     </g>
    </g>
    <g id="text_27">
     <!-- density -->
     <g style="fill: #262626" transform="translate(310.02774 159.198359)rotate(-90)scale(0.15 -0.15)">
      <use xlink:href="#JosefinSans-Regular-64"/>
      <use xlink:href="#JosefinSans-Regular-65" x="59.299988"/>
      <use xlink:href="#JosefinSans-Regular-6e" x="111.299973"/>
      <use xlink:href="#JosefinSans-Regular-73" x="166.59996"/>
      <use xlink:href="#JosefinSans-Regular-69" x="207.399948"/>
      <use xlink:href="#JosefinSans-Regular-74" x="232.899933"/>
      <use xlink:href="#JosefinSans-Regular-79" x="268.899918"/>
     </g>
    </g>
   </g>
   <g id="line2d_45">
    <path d="M 340.409167 238.895052 
L 342.663432 238.895052 
L 344.917697 238.895052 
L 347.171963 238.895052 
L 349.426228 238.895052 
L 351.680494 238.895052 
L 353.934759 238.895052 
L 356.189025 238.895052 
L 358.44329 238.895051 
L 360.697556 238.895048 
L 362.951821 238.89504 
L 365.206087 238.895017 
L 367.460352 238.894961 
L 369.714618 238.89483 
L 371.968883 238.89455 
L 374.223149 238.893982 
L 376.477414 238.892891 
L 378.731679 238.890893 
L 380.985945 238.887381 
L 383.24021 238.88143 
L 385.494476 238.871676 
L 387.748741 238.856161 
L 390.003007 238.83215 
L 392.257272 238.795908 
L 394.511538 238.742453 
L 396.765803 238.665268 
L 399.020069 238.556 
L 401.274334 238.404134 
L 403.5286 238.196666 
L 405.782865 237.917785 
L 408.03713 237.548577 
L 410.291396 237.066772 
L 412.545661 236.446568 
L 414.799927 235.658522 
L 417.054192 234.669573 
L 419.308458 233.443186 
L 421.562723 231.939653 
L 423.816989 230.116567 
L 426.071254 227.929489 
L 428.32552 225.332809 
L 430.579785 222.280803 
L 432.834051 218.728902 
L 435.088316 214.635132 
L 437.342582 209.961725 
L 439.596847 204.676865 
L 441.851112 198.756522 
L 444.105378 192.186335 
L 446.359643 184.963478 
L 448.613909 177.098443 
L 450.868174 168.616675 
L 453.12244 159.559971 
L 455.376705 149.987577 
L 457.630971 139.976897 
L 459.885236 129.623739 
L 462.139502 119.042044 
L 464.393767 108.363029 
L 466.648033 97.733705 
L 468.902298 87.314757 
L 471.156563 77.277769 
L 473.410829 67.801822 
L 475.665094 59.069507 
L 477.91936 51.262434 
L 480.173625 44.556324 
L 482.427891 39.115822 
L 484.682156 35.089181 
L 486.936422 32.602989 
L 489.190687 31.757136 
L 491.444953 32.620221 
L 493.699218 35.22562 
L 495.953484 39.568408 
L 498.207749 45.603352 
L 500.462015 53.24413 
L 502.71628 62.363931 
L 504.970545 72.797533 
L 507.224811 84.344904 
L 509.479076 96.776312 
L 511.733342 109.838856 
L 513.987607 123.264254 
L 516.241873 136.777654 
L 518.496138 150.107147 
L 520.750404 162.993582 
L 523.004669 175.200249 
L 525.258935 186.521926 
L 527.5132 196.79276 
L 529.767466 205.892485 
L 532.021731 213.750491 
L 534.275996 220.347343 
L 536.530262 225.713479 
L 538.784527 229.924959 
L 541.038793 233.096376 
L 543.293058 235.37123 
L 545.547324 236.910395 
L 547.801589 237.879526 
L 550.055855 238.436539 
L 552.31012 238.720468 
L 554.564386 238.843089 
L 556.818651 238.884565 
L 559.072917 238.894009 
L 561.327182 238.895033 
L 563.581447 238.895052 
" clip-path="url(#pdac9500e1b)" style="fill: none; stroke: #cfcfcf; stroke-width: 1.5; stroke-linecap: round"/>
   </g>
   <g id="line2d_46">
    <path d="M 340.409167 238.895049 
L 342.663432 238.895046 
L 344.917697 238.895043 
L 347.171963 238.895037 
L 349.426228 238.895027 
L 351.680494 238.89501 
L 353.934759 238.894983 
L 356.189025 238.894939 
L 358.44329 238.894869 
L 360.697556 238.894757 
L 362.951821 238.894582 
L 365.206087 238.894308 
L 367.460352 238.893886 
L 369.714618 238.893237 
L 371.968883 238.892251 
L 374.223149 238.890766 
L 376.477414 238.888546 
L 378.731679 238.885258 
L 380.985945 238.880429 
L 383.24021 238.873398 
L 385.494476 238.863252 
L 387.748741 238.848735 
L 390.003007 238.828147 
L 392.257272 238.799203 
L 394.511538 238.758868 
L 396.765803 238.70315 
L 399.020069 238.626863 
L 401.274334 238.523333 
L 403.5286 238.384077 
L 405.782865 238.198433 
L 408.03713 237.95316 
L 410.291396 237.632009 
L 412.545661 237.215297 
L 414.799927 236.679487 
L 417.054192 235.996815 
L 419.308458 235.134999 
L 421.562723 234.057063 
L 423.816989 232.721336 
L 426.071254 231.081669 
L 428.32552 229.087911 
L 430.579785 226.686716 
L 432.834051 223.822689 
L 435.088316 220.439926 
L 437.342582 216.483938 
L 439.596847 211.903945 
L 441.851112 206.655521 
L 444.105378 200.70348 
L 446.359643 194.024941 
L 448.613909 186.612409 
L 450.868174 178.476721 
L 453.12244 169.649689 
L 455.376705 160.186221 
L 457.630971 150.16576 
L 459.885236 139.69284 
L 462.139502 128.896621 
L 464.393767 117.929305 
L 466.648033 106.963363 
L 468.902298 96.187609 
L 471.156563 85.8022 
L 473.410829 76.012714 
L 475.665094 67.023554 
L 477.91936 59.030938 
L 480.173625 52.215836 
L 482.427891 46.737168 
L 484.682156 42.725666 
L 486.936422 40.278678 
L 489.190687 39.456251 
L 491.444953 40.278678 
L 493.699218 42.725665 
L 495.953484 46.737168 
L 498.207749 52.215835 
L 500.462015 59.030938 
L 502.71628 67.023553 
L 504.970545 76.012713 
L 507.224811 85.802199 
L 509.479076 96.187608 
L 511.733342 106.963362 
L 513.987607 117.929304 
L 516.241873 128.89662 
L 518.496138 139.692839 
L 520.750404 150.165759 
L 523.004669 160.18622 
L 525.258935 169.649688 
L 527.5132 178.476721 
L 529.767466 186.612408 
L 532.021731 194.024941 
L 534.275996 200.703479 
L 536.530262 206.65552 
L 538.784527 211.903945 
L 541.038793 216.483937 
L 543.293058 220.439926 
L 545.547324 223.822689 
L 547.801589 226.686716 
L 550.055855 229.087911 
L 552.31012 231.081669 
L 554.564386 232.721336 
L 556.818651 234.057063 
L 559.072917 235.134999 
L 561.327182 235.996815 
L 563.581447 236.679487 
" clip-path="url(#pdac9500e1b)" style="fill: none; stroke: #81aca4; stroke-width: 1.5; stroke-linecap: round"/>
   </g>
   <g id="text_28">
    <!-- $n=18$ -->
    <g style="fill: #262626" transform="translate(426.875307 15.40024)scale(0.16 -0.16)">
     <defs>
      <path id="DejaVuSans-31" d="M 794 531 
L 1825 531 
L 1825 4091 
L 703 3866 
L 703 4441 
L 1819 4666 
L 2450 4666 
L 2450 531 
L 3481 531 
L 3481 0 
L 794 0 
L 794 531 
z
" transform="scale(0.015625)"/>
      <path id="DejaVuSans-38" d="M 2034 2216 
Q 1584 2216 1326 1975 
Q 1069 1734 1069 1313 
Q 1069 891 1326 650 
Q 1584 409 2034 409 
Q 2484 409 2743 651 
Q 3003 894 3003 1313 
Q 3003 1734 2745 1975 
Q 2488 2216 2034 2216 
z
M 1403 2484 
Q 997 2584 770 2862 
Q 544 3141 544 3541 
Q 544 4100 942 4425 
Q 1341 4750 2034 4750 
Q 2731 4750 3128 4425 
Q 3525 4100 3525 3541 
Q 3525 3141 3298 2862 
Q 3072 2584 2669 2484 
Q 3125 2378 3379 2068 
Q 3634 1759 3634 1313 
Q 3634 634 3220 271 
Q 2806 -91 2034 -91 
Q 1263 -91 848 271 
Q 434 634 434 1313 
Q 434 1759 690 2068 
Q 947 2378 1403 2484 
z
M 1172 3481 
Q 1172 3119 1398 2916 
Q 1625 2713 2034 2713 
Q 2441 2713 2670 2916 
Q 2900 3119 2900 3481 
Q 2900 3844 2670 4047 
Q 2441 4250 2034 4250 
Q 1625 4250 1398 4047 
Q 1172 3844 1172 3481 
z
" transform="scale(0.015625)"/>
     </defs>
     <use xlink:href="#DejaVuSans-Oblique-6e" transform="translate(0 0.78125)"/>
     <use xlink:href="#DejaVuSans-3d" transform="translate(82.861328 0.78125)"/>
     <use xlink:href="#DejaVuSans-31" transform="translate(186.132812 0.78125)"/>
     <use xlink:href="#DejaVuSans-38" transform="translate(249.755859 0.78125)"/>
    </g>
   </g>
   <g id="legend_2">
    <g id="line2d_47">
     <path d="M 341.850553 39.95024 
L 355.850553 39.95024 
L 369.850553 39.95024 
" style="fill: none; stroke: #cfcfcf; stroke-width: 1.5; stroke-linecap: round"/>
    </g>
    <g id="text_29">
     <!-- True posterior -->
     <g style="fill: #262626" transform="translate(381.050553 44.85024)scale(0.14 -0.14)">
      <use xlink:href="#JosefinSans-Regular-54"/>
      <use xlink:href="#JosefinSans-Regular-72" x="58.199997"/>
      <use xlink:href="#JosefinSans-Regular-75" x="95.799988"/>
      <use xlink:href="#JosefinSans-Regular-65" x="150.499985"/>
      <use xlink:href="#JosefinSans-Regular-20" x="202.499969"/>
      <use xlink:href="#JosefinSans-Regular-70" x="234.09996"/>
      <use xlink:href="#JosefinSans-Regular-6f" x="293.399948"/>
      <use xlink:href="#JosefinSans-Regular-73" x="347.899933"/>
      <use xlink:href="#JosefinSans-Regular-74" x="388.699921"/>
      <use xlink:href="#JosefinSans-Regular-65" x="424.699905"/>
      <use xlink:href="#JosefinSans-Regular-72" x="476.69989"/>
      <use xlink:href="#JosefinSans-Regular-69" x="514.299881"/>
      <use xlink:href="#JosefinSans-Regular-6f" x="539.799866"/>
      <use xlink:href="#JosefinSans-Regular-72" x="594.29985"/>
     </g>
    </g>
    <g id="line2d_48">
     <path d="M 341.850553 60.587115 
L 355.850553 60.587115 
L 369.850553 60.587115 
" style="fill: none; stroke: #81aca4; stroke-width: 1.5; stroke-linecap: round"/>
    </g>
    <g id="text_30">
     <!-- Quadratic approximation -->
     <g style="fill: #262626" transform="translate(381.050553 65.487115)scale(0.14 -0.14)">
      <use xlink:href="#JosefinSans-Regular-51"/>
      <use xlink:href="#JosefinSans-Regular-75" x="88.799988"/>
      <use xlink:href="#JosefinSans-Regular-61" x="143.499985"/>
      <use xlink:href="#JosefinSans-Regular-64" x="202.199982"/>
      <use xlink:href="#JosefinSans-Regular-72" x="261.499969"/>
      <use xlink:href="#JosefinSans-Regular-61" x="299.09996"/>
      <use xlink:href="#JosefinSans-Regular-74" x="357.799957"/>
      <use xlink:href="#JosefinSans-Regular-69" x="393.799942"/>
      <use xlink:href="#JosefinSans-Regular-63" x="419.299927"/>
      <use xlink:href="#JosefinSans-Regular-20" x="464.899918"/>
      <use xlink:href="#JosefinSans-Regular-61" x="496.499908"/>
      <use xlink:href="#JosefinSans-Regular-70" x="555.199905"/>
      <use xlink:href="#JosefinSans-Regular-70" x="614.499893"/>
      <use xlink:href="#JosefinSans-Regular-72" x="673.799881"/>
      <use xlink:href="#JosefinSans-Regular-6f" x="711.399872"/>
      <use xlink:href="#JosefinSans-Regular-78" x="765.899857"/>
      <use xlink:href="#JosefinSans-Regular-69" x="812.499847"/>
      <use xlink:href="#JosefinSans-Regular-6d" x="837.999832"/>
      <use xlink:href="#JosefinSans-Regular-61" x="920.499817"/>
      <use xlink:href="#JosefinSans-Regular-74" x="979.199814"/>
      <use xlink:href="#JosefinSans-Regular-69" x="1015.199799"/>
      <use xlink:href="#JosefinSans-Regular-6f" x="1040.699783"/>
      <use xlink:href="#JosefinSans-Regular-6e" x="1095.199768"/>
     </g>
    </g>
   </g>
  </g>
  <g id="axes_3">
   <g id="patch_4">
    <path d="M 613.549303 249.251947 
L 859.038812 249.251947 
L 859.038812 21.40024 
L 613.549303 21.40024 
z
" style="fill: #ffffff"/>
   </g>
   <g id="matplotlib.axis_5">
    <g id="xtick_11">
     <g id="line2d_49">
      <path d="M 624.707917 249.251947 
L 624.707917 21.40024 
" clip-path="url(#p706fc3710f)" style="fill: none; stroke-dasharray: 0.8,1.32; stroke-dashoffset: 0; stroke: #cccccc; stroke-width: 0.8"/>
     </g>
     <g id="line2d_50"/>
     <g id="text_31">
      <!-- 0.00 -->
      <g style="fill: #262626" transform="translate(610.419167 263.601947)scale(0.14 -0.14)">
       <use xlink:href="#JosefinSans-Regular-30"/>
       <use xlink:href="#JosefinSans-Regular-2e" x="62.399994"/>
       <use xlink:href="#JosefinSans-Regular-30" x="79.299988"/>
       <use xlink:href="#JosefinSans-Regular-30" x="141.699982"/>
      </g>
     </g>
    </g>
    <g id="xtick_12">
     <g id="line2d_51">
      <path d="M 680.500987 249.251947 
L 680.500987 21.40024 
" clip-path="url(#p706fc3710f)" style="fill: none; stroke-dasharray: 0.8,1.32; stroke-dashoffset: 0; stroke: #cccccc; stroke-width: 0.8"/>
     </g>
     <g id="line2d_52"/>
     <g id="text_32">
      <!-- 0.25 -->
      <g style="fill: #262626" transform="translate(667.473331 263.601947)scale(0.14 -0.14)">
       <use xlink:href="#JosefinSans-Regular-30"/>
       <use xlink:href="#JosefinSans-Regular-2e" x="62.399994"/>
       <use xlink:href="#JosefinSans-Regular-32" x="79.299988"/>
       <use xlink:href="#JosefinSans-Regular-35" x="133.799973"/>
      </g>
     </g>
    </g>
    <g id="xtick_13">
     <g id="line2d_53">
      <path d="M 736.294057 249.251947 
L 736.294057 21.40024 
" clip-path="url(#p706fc3710f)" style="fill: none; stroke-dasharray: 0.8,1.32; stroke-dashoffset: 0; stroke: #cccccc; stroke-width: 0.8"/>
     </g>
     <g id="line2d_54"/>
     <g id="text_33">
      <!-- 0.50 -->
      <g style="fill: #262626" transform="translate(722.712963 263.601947)scale(0.14 -0.14)">
       <use xlink:href="#JosefinSans-Regular-30"/>
       <use xlink:href="#JosefinSans-Regular-2e" x="62.399994"/>
       <use xlink:href="#JosefinSans-Regular-35" x="79.299988"/>
       <use xlink:href="#JosefinSans-Regular-30" x="131.599976"/>
      </g>
     </g>
    </g>
    <g id="xtick_14">
     <g id="line2d_55">
      <path d="M 792.087127 249.251947 
L 792.087127 21.40024 
" clip-path="url(#p706fc3710f)" style="fill: none; stroke-dasharray: 0.8,1.32; stroke-dashoffset: 0; stroke: #cccccc; stroke-width: 0.8"/>
     </g>
     <g id="line2d_56"/>
     <g id="text_34">
      <!-- 0.75 -->
      <g style="fill: #262626" transform="translate(779.444471 263.601947)scale(0.14 -0.14)">
       <use xlink:href="#JosefinSans-Regular-30"/>
       <use xlink:href="#JosefinSans-Regular-2e" x="62.399994"/>
       <use xlink:href="#JosefinSans-Regular-37" x="79.299988"/>
       <use xlink:href="#JosefinSans-Regular-35" x="128.299973"/>
      </g>
     </g>
    </g>
    <g id="xtick_15">
     <g id="line2d_57">
      <path d="M 847.880197 249.251947 
L 847.880197 21.40024 
" clip-path="url(#p706fc3710f)" style="fill: none; stroke-dasharray: 0.8,1.32; stroke-dashoffset: 0; stroke: #cccccc; stroke-width: 0.8"/>
     </g>
     <g id="line2d_58"/>
     <g id="text_35">
      <!-- 1.00 -->
      <g style="fill: #262626" transform="translate(835.649885 263.601947)scale(0.14 -0.14)">
       <use xlink:href="#JosefinSans-Regular-31"/>
       <use xlink:href="#JosefinSans-Regular-2e" x="32.999985"/>
       <use xlink:href="#JosefinSans-Regular-30" x="49.899979"/>
       <use xlink:href="#JosefinSans-Regular-30" x="112.299973"/>
      </g>
     </g>
    </g>
    <g id="text_36">
     <!-- probability of water -->
     <g style="fill: #262626" transform="translate(668.938198 282.013823)scale(0.15 -0.15)">
      <use xlink:href="#JosefinSans-Regular-70"/>
      <use xlink:href="#JosefinSans-Regular-72" x="59.299988"/>
      <use xlink:href="#JosefinSans-Regular-6f" x="96.899979"/>
      <use xlink:href="#JosefinSans-Regular-62" x="151.399963"/>
      <use xlink:href="#JosefinSans-Regular-61" x="210.699951"/>
      <use xlink:href="#JosefinSans-Regular-62" x="269.399948"/>
      <use xlink:href="#JosefinSans-Regular-69" x="328.699936"/>
      <use xlink:href="#JosefinSans-Regular-6c" x="354.199921"/>
      <use xlink:href="#JosefinSans-Regular-69" x="379.699905"/>
      <use xlink:href="#JosefinSans-Regular-74" x="405.19989"/>
      <use xlink:href="#JosefinSans-Regular-79" x="441.199875"/>
      <use xlink:href="#JosefinSans-Regular-20" x="490.599869"/>
      <use xlink:href="#JosefinSans-Regular-6f" x="522.19986"/>
      <use xlink:href="#JosefinSans-Regular-66" x="576.699844"/>
      <use xlink:href="#JosefinSans-Regular-20" x="614.699829"/>
      <use xlink:href="#JosefinSans-Regular-77" x="646.29982"/>
      <use xlink:href="#JosefinSans-Regular-61" x="713.799805"/>
      <use xlink:href="#JosefinSans-Regular-74" x="772.499802"/>
      <use xlink:href="#JosefinSans-Regular-65" x="808.499786"/>
      <use xlink:href="#JosefinSans-Regular-72" x="860.499771"/>
     </g>
    </g>
   </g>
   <g id="matplotlib.axis_6">
    <g id="ytick_11">
     <g id="line2d_59">
      <path d="M 613.549303 238.895052 
L 859.038812 238.895052 
" clip-path="url(#p706fc3710f)" style="fill: none; stroke-dasharray: 0.8,1.32; stroke-dashoffset: 0; stroke: #cccccc; stroke-width: 0.8"/>
     </g>
     <g id="line2d_60"/>
     <g id="text_37">
      <!-- 0 -->
      <g style="fill: #262626" transform="translate(601.312428 244.320052)scale(0.14 -0.14)">
       <use xlink:href="#JosefinSans-Regular-30"/>
      </g>
     </g>
    </g>
    <g id="ytick_12">
     <g id="line2d_61">
      <path d="M 613.549303 198.881174 
L 859.038812 198.881174 
" clip-path="url(#p706fc3710f)" style="fill: none; stroke-dasharray: 0.8,1.32; stroke-dashoffset: 0; stroke: #cccccc; stroke-width: 0.8"/>
     </g>
     <g id="line2d_62"/>
     <g id="text_38">
      <!-- 1 -->
      <g style="fill: #262626" transform="translate(605.429303 204.306174)scale(0.14 -0.14)">
       <use xlink:href="#JosefinSans-Regular-31"/>
      </g>
     </g>
    </g>
    <g id="ytick_13">
     <g id="line2d_63">
      <path d="M 613.549303 158.867297 
L 859.038812 158.867297 
" clip-path="url(#p706fc3710f)" style="fill: none; stroke-dasharray: 0.8,1.32; stroke-dashoffset: 0; stroke: #cccccc; stroke-width: 0.8"/>
     </g>
     <g id="line2d_64"/>
     <g id="text_39">
      <!-- 2 -->
      <g style="fill: #262626" transform="translate(602.419303 164.292297)scale(0.14 -0.14)">
       <use xlink:href="#JosefinSans-Regular-32"/>
      </g>
     </g>
    </g>
    <g id="ytick_14">
     <g id="line2d_65">
      <path d="M 613.549303 118.853419 
L 859.038812 118.853419 
" clip-path="url(#p706fc3710f)" style="fill: none; stroke-dasharray: 0.8,1.32; stroke-dashoffset: 0; stroke: #cccccc; stroke-width: 0.8"/>
     </g>
     <g id="line2d_66"/>
     <g id="text_40">
      <!-- 3 -->
      <g style="fill: #262626" transform="translate(602.712428 124.278419)scale(0.14 -0.14)">
       <use xlink:href="#JosefinSans-Regular-33"/>
      </g>
     </g>
    </g>
    <g id="ytick_15">
     <g id="line2d_67">
      <path d="M 613.549303 78.839542 
L 859.038812 78.839542 
" clip-path="url(#p706fc3710f)" style="fill: none; stroke-dasharray: 0.8,1.32; stroke-dashoffset: 0; stroke: #cccccc; stroke-width: 0.8"/>
     </g>
     <g id="line2d_68"/>
     <g id="text_41">
      <!-- 4 -->
      <g style="fill: #262626" transform="translate(602.546178 84.264542)scale(0.14 -0.14)">
       <defs>
        <path id="JosefinSans-Regular-34" d="M 3206 1498 
L 3206 1018 
L 2656 1018 
L 2656 0 
L 2035 0 
L 2035 1018 
L 83 1018 
L 83 1024 
L 2650 4262 
L 2656 4262 
L 2656 1498 
L 3206 1498 
z
M 2035 1498 
L 2035 2810 
L 1018 1498 
L 2035 1498 
z
" transform="scale(0.015625)"/>
       </defs>
       <use xlink:href="#JosefinSans-Regular-34"/>
      </g>
     </g>
    </g>
    <g id="ytick_16">
     <g id="line2d_69">
      <path d="M 613.549303 38.825665 
L 859.038812 38.825665 
" clip-path="url(#p706fc3710f)" style="fill: none; stroke-dasharray: 0.8,1.32; stroke-dashoffset: 0; stroke: #cccccc; stroke-width: 0.8"/>
     </g>
     <g id="line2d_70"/>
     <g id="text_42">
      <!-- 5 -->
      <g style="fill: #262626" transform="translate(602.72774 44.250665)scale(0.14 -0.14)">
       <use xlink:href="#JosefinSans-Regular-35"/>
      </g>
     </g>
    </g>
    <g id="text_43">
     <!-- density -->
     <g style="fill: #262626" transform="translate(594.32649 159.198359)rotate(-90)scale(0.15 -0.15)">
      <use xlink:href="#JosefinSans-Regular-64"/>
      <use xlink:href="#JosefinSans-Regular-65" x="59.299988"/>
      <use xlink:href="#JosefinSans-Regular-6e" x="111.299973"/>
      <use xlink:href="#JosefinSans-Regular-73" x="166.59996"/>
      <use xlink:href="#JosefinSans-Regular-69" x="207.399948"/>
      <use xlink:href="#JosefinSans-Regular-74" x="232.899933"/>
      <use xlink:href="#JosefinSans-Regular-79" x="268.899918"/>
     </g>
    </g>
   </g>
   <g id="line2d_71">
    <path d="M 624.707917 238.895052 
L 626.962182 238.895052 
L 629.216447 238.895052 
L 631.470713 238.895052 
L 633.724978 238.895052 
L 635.979244 238.895052 
L 638.233509 238.895052 
L 640.487775 238.895052 
L 642.74204 238.895052 
L 644.996306 238.895052 
L 647.250571 238.895052 
L 649.504837 238.895052 
L 651.759102 238.895052 
L 654.013368 238.895052 
L 656.267633 238.895052 
L 658.521899 238.895052 
L 660.776164 238.895052 
L 663.030429 238.895052 
L 665.284695 238.895051 
L 667.53896 238.895051 
L 669.793226 238.895049 
L 672.047491 238.895044 
L 674.301757 238.895033 
L 676.556022 238.895004 
L 678.810288 238.894939 
L 681.064553 238.894797 
L 683.318819 238.894497 
L 685.573084 238.893888 
L 687.82735 238.892697 
L 690.081615 238.890441 
L 692.33588 238.886299 
L 694.590146 238.878915 
L 696.844411 238.866109 
L 699.098677 238.844481 
L 701.352942 238.808855 
L 703.607208 238.751559 
L 705.861473 238.661499 
L 708.115739 238.52302 
L 710.370004 238.314552 
L 712.62427 238.007071 
L 714.878535 237.562446 
L 717.132801 236.931753 
L 719.387066 236.053739 
L 721.641332 234.853602 
L 723.895597 233.242372 
L 726.149862 231.117134 
L 728.404128 228.362435 
L 730.658393 224.853129 
L 732.912659 220.458925 
L 735.166924 215.050792 
L 737.42119 208.509233 
L 739.675455 200.734298 
L 741.929721 191.656953 
L 744.183986 181.251236 
L 746.438252 169.54636 
L 748.692517 156.637735 
L 750.946783 142.695735 
L 753.201048 127.970957 
L 755.455313 112.794787 
L 757.709579 97.574265 
L 759.963844 82.78058 
L 762.21811 68.931002 
L 764.472375 56.564642 
L 766.726641 46.213087 
L 768.980906 38.367626 
L 771.235172 33.445388 
L 773.489437 31.757136 
L 775.743703 33.47971 
L 777.997968 38.636025 
L 780.252234 47.085114 
L 782.506499 58.524013 
L 784.760765 72.502219 
L 787.01503 88.448252 
L 789.269295 105.706564 
L 791.523561 123.581792 
L 793.777826 141.386413 
L 796.032092 158.487263 
L 798.286357 174.34636 
L 800.540623 188.551961 
L 802.794888 200.836872 
L 805.049154 211.082504 
L 807.303419 219.308933 
L 809.557685 225.652936 
L 811.81195 230.337454 
L 814.066216 233.636867 
L 816.320481 235.842743 
L 818.574746 237.234238 
L 820.829012 238.05622 
L 823.083277 238.506603 
L 825.337543 238.732722 
L 827.591808 238.835105 
L 829.846074 238.876036 
L 832.100339 238.890073 
L 834.354605 238.894037 
L 836.60887 238.894905 
L 838.863136 238.895039 
L 841.117401 238.895051 
L 843.371667 238.895052 
L 845.625932 238.895052 
L 847.880197 238.895052 
" clip-path="url(#p706fc3710f)" style="fill: none; stroke: #cfcfcf; stroke-width: 1.5; stroke-linecap: round"/>
   </g>
   <g id="line2d_72">
    <path d="M 624.707917 238.895052 
L 626.962182 238.895052 
L 629.216447 238.895052 
L 631.470713 238.895052 
L 633.724978 238.895052 
L 635.979244 238.895052 
L 638.233509 238.895052 
L 640.487775 238.895052 
L 642.74204 238.895052 
L 644.996306 238.895052 
L 647.250571 238.895052 
L 649.504837 238.895052 
L 651.759102 238.895052 
L 654.013368 238.895052 
L 656.267633 238.895052 
L 658.521899 238.895052 
L 660.776164 238.895051 
L 663.030429 238.895051 
L 665.284695 238.895051 
L 667.53896 238.895049 
L 669.793226 238.895047 
L 672.047491 238.895041 
L 674.301757 238.895029 
L 676.556022 238.895005 
L 678.810288 238.894957 
L 681.064553 238.894864 
L 683.318819 238.894684 
L 685.573084 238.894346 
L 687.82735 238.893718 
L 690.081615 238.892573 
L 692.33588 238.89052 
L 694.590146 238.886903 
L 696.844411 238.880639 
L 699.098677 238.869977 
L 701.352942 238.852145 
L 703.607208 238.822833 
L 705.861473 238.775491 
L 708.115739 238.700358 
L 710.370004 238.583208 
L 712.62427 238.403755 
L 714.878535 238.133724 
L 717.132801 237.734615 
L 719.387066 237.155277 
L 721.641332 236.32947 
L 723.895597 235.173704 
L 726.149862 233.585763 
L 728.404128 231.444405 
L 730.658393 228.610789 
L 732.912659 224.932205 
L 735.166924 220.248594 
L 737.42119 214.402147 
L 739.675455 207.249999 
L 741.929721 198.679602 
L 744.183986 188.625893 
L 746.438252 177.088875 
L 748.692517 164.14978 
L 750.946783 149.983713 
L 753.201048 134.866597 
L 755.455313 119.174494 
L 757.709579 103.373961 
L 759.963844 88.002909 
L 762.21811 73.642588 
L 764.472375 60.882412 
L 766.726641 50.280448 
L 768.980906 42.323182 
L 771.235172 37.38858 
L 773.489437 35.716336 
L 775.743703 37.388579 
L 777.997968 42.323182 
L 780.252234 50.280448 
L 782.506499 60.882411 
L 784.760765 73.642586 
L 787.01503 88.002907 
L 789.269295 103.373959 
L 791.523561 119.174493 
L 793.777826 134.866595 
L 796.032092 149.983712 
L 798.286357 164.149779 
L 800.540623 177.088874 
L 802.794888 188.625892 
L 805.049154 198.679601 
L 807.303419 207.249998 
L 809.557685 214.402146 
L 811.81195 220.248593 
L 814.066216 224.932205 
L 816.320481 228.610788 
L 818.574746 231.444405 
L 820.829012 233.585763 
L 823.083277 235.173704 
L 825.337543 236.32947 
L 827.591808 237.155277 
L 829.846074 237.734615 
L 832.100339 238.133724 
L 834.354605 238.403755 
L 836.60887 238.583208 
L 838.863136 238.700358 
L 841.117401 238.775491 
L 843.371667 238.822833 
L 845.625932 238.852145 
L 847.880197 238.869977 
" clip-path="url(#p706fc3710f)" style="fill: none; stroke: #81aca4; stroke-width: 1.5; stroke-linecap: round"/>
   </g>
   <g id="text_44">
    <!-- $n=36$ -->
    <g style="fill: #262626" transform="translate(711.174057 15.40024)scale(0.16 -0.16)">
     <defs>
      <path id="DejaVuSans-33" d="M 2597 2516 
Q 3050 2419 3304 2112 
Q 3559 1806 3559 1356 
Q 3559 666 3084 287 
Q 2609 -91 1734 -91 
Q 1441 -91 1130 -33 
Q 819 25 488 141 
L 488 750 
Q 750 597 1062 519 
Q 1375 441 1716 441 
Q 2309 441 2620 675 
Q 2931 909 2931 1356 
Q 2931 1769 2642 2001 
Q 2353 2234 1838 2234 
L 1294 2234 
L 1294 2753 
L 1863 2753 
Q 2328 2753 2575 2939 
Q 2822 3125 2822 3475 
Q 2822 3834 2567 4026 
Q 2313 4219 1838 4219 
Q 1578 4219 1281 4162 
Q 984 4106 628 3988 
L 628 4550 
Q 988 4650 1302 4700 
Q 1616 4750 1894 4750 
Q 2613 4750 3031 4423 
Q 3450 4097 3450 3541 
Q 3450 3153 3228 2886 
Q 3006 2619 2597 2516 
z
" transform="scale(0.015625)"/>
      <path id="DejaVuSans-36" d="M 2113 2584 
Q 1688 2584 1439 2293 
Q 1191 2003 1191 1497 
Q 1191 994 1439 701 
Q 1688 409 2113 409 
Q 2538 409 2786 701 
Q 3034 994 3034 1497 
Q 3034 2003 2786 2293 
Q 2538 2584 2113 2584 
z
M 3366 4563 
L 3366 3988 
Q 3128 4100 2886 4159 
Q 2644 4219 2406 4219 
Q 1781 4219 1451 3797 
Q 1122 3375 1075 2522 
Q 1259 2794 1537 2939 
Q 1816 3084 2150 3084 
Q 2853 3084 3261 2657 
Q 3669 2231 3669 1497 
Q 3669 778 3244 343 
Q 2819 -91 2113 -91 
Q 1303 -91 875 529 
Q 447 1150 447 2328 
Q 447 3434 972 4092 
Q 1497 4750 2381 4750 
Q 2619 4750 2861 4703 
Q 3103 4656 3366 4563 
z
" transform="scale(0.015625)"/>
     </defs>
     <use xlink:href="#DejaVuSans-Oblique-6e" transform="translate(0 0.78125)"/>
     <use xlink:href="#DejaVuSans-3d" transform="translate(82.861328 0.78125)"/>
     <use xlink:href="#DejaVuSans-33" transform="translate(186.132812 0.78125)"/>
     <use xlink:href="#DejaVuSans-36" transform="translate(249.755859 0.78125)"/>
    </g>
   </g>
   <g id="legend_3">
    <g id="line2d_73">
     <path d="M 626.149303 39.95024 
L 640.149303 39.95024 
L 654.149303 39.95024 
" style="fill: none; stroke: #cfcfcf; stroke-width: 1.5; stroke-linecap: round"/>
    </g>
    <g id="text_45">
     <!-- True posterior -->
     <g style="fill: #262626" transform="translate(665.349303 44.85024)scale(0.14 -0.14)">
      <use xlink:href="#JosefinSans-Regular-54"/>
      <use xlink:href="#JosefinSans-Regular-72" x="58.199997"/>
      <use xlink:href="#JosefinSans-Regular-75" x="95.799988"/>
      <use xlink:href="#JosefinSans-Regular-65" x="150.499985"/>
      <use xlink:href="#JosefinSans-Regular-20" x="202.499969"/>
      <use xlink:href="#JosefinSans-Regular-70" x="234.09996"/>
      <use xlink:href="#JosefinSans-Regular-6f" x="293.399948"/>
      <use xlink:href="#JosefinSans-Regular-73" x="347.899933"/>
      <use xlink:href="#JosefinSans-Regular-74" x="388.699921"/>
      <use xlink:href="#JosefinSans-Regular-65" x="424.699905"/>
      <use xlink:href="#JosefinSans-Regular-72" x="476.69989"/>
      <use xlink:href="#JosefinSans-Regular-69" x="514.299881"/>
      <use xlink:href="#JosefinSans-Regular-6f" x="539.799866"/>
      <use xlink:href="#JosefinSans-Regular-72" x="594.29985"/>
     </g>
    </g>
    <g id="line2d_74">
     <path d="M 626.149303 60.587115 
L 640.149303 60.587115 
L 654.149303 60.587115 
" style="fill: none; stroke: #81aca4; stroke-width: 1.5; stroke-linecap: round"/>
    </g>
    <g id="text_46">
     <!-- Quadratic approximation -->
     <g style="fill: #262626" transform="translate(665.349303 65.487115)scale(0.14 -0.14)">
      <use xlink:href="#JosefinSans-Regular-51"/>
      <use xlink:href="#JosefinSans-Regular-75" x="88.799988"/>
      <use xlink:href="#JosefinSans-Regular-61" x="143.499985"/>
      <use xlink:href="#JosefinSans-Regular-64" x="202.199982"/>
      <use xlink:href="#JosefinSans-Regular-72" x="261.499969"/>
      <use xlink:href="#JosefinSans-Regular-61" x="299.09996"/>
      <use xlink:href="#JosefinSans-Regular-74" x="357.799957"/>
      <use xlink:href="#JosefinSans-Regular-69" x="393.799942"/>
      <use xlink:href="#JosefinSans-Regular-63" x="419.299927"/>
      <use xlink:href="#JosefinSans-Regular-20" x="464.899918"/>
      <use xlink:href="#JosefinSans-Regular-61" x="496.499908"/>
      <use xlink:href="#JosefinSans-Regular-70" x="555.199905"/>
      <use xlink:href="#JosefinSans-Regular-70" x="614.499893"/>
      <use xlink:href="#JosefinSans-Regular-72" x="673.799881"/>
      <use xlink:href="#JosefinSans-Regular-6f" x="711.399872"/>
      <use xlink:href="#JosefinSans-Regular-78" x="765.899857"/>
      <use xlink:href="#JosefinSans-Regular-69" x="812.499847"/>
      <use xlink:href="#JosefinSans-Regular-6d" x="837.999832"/>
      <use xlink:href="#JosefinSans-Regular-61" x="920.499817"/>
      <use xlink:href="#JosefinSans-Regular-74" x="979.199814"/>
      <use xlink:href="#JosefinSans-Regular-69" x="1015.199799"/>
      <use xlink:href="#JosefinSans-Regular-6f" x="1040.699783"/>
      <use xlink:href="#JosefinSans-Regular-6e" x="1095.199768"/>
     </g>
    </g>
   </g>
  </g>
 </g>
 <defs>
  <clipPath id="pbbd6463207">
   <rect x="44.951803" y="21.40024" width="245.489509" height="227.851708"/>
  </clipPath>
  <clipPath id="pdac9500e1b">
   <rect x="329.250553" y="21.40024" width="245.489509" height="227.851708"/>
  </clipPath>
  <clipPath id="p706fc3710f">
   <rect x="613.549303" y="21.40024" width="245.489509" height="227.851708"/>
  </clipPath>
 </defs>
</svg>
