<?xml version="1.0" encoding="utf-8" standalone="no"?>
<!DOCTYPE svg PUBLIC "-//W3C//DTD SVG 1.1//EN"
  "http://www.w3.org/Graphics/SVG/1.1/DTD/svg11.dtd">
<!-- Created with matplotlib (https://matplotlib.org/) -->
<svg height="288pt" version="1.1" viewBox="0 0 864 288" width="864pt" xmlns="http://www.w3.org/2000/svg" xmlns:xlink="http://www.w3.org/1999/xlink">
 <defs>
  <style type="text/css">
*{stroke-linecap:butt;stroke-linejoin:round;}
  </style>
 </defs>
 <g id="figure_1">
  <g id="patch_1">
   <path d="M 0 288 
L 864 288 
L 864 0 
L 0 0 
z
" style="fill:#ffffff;"/>
  </g>
  <g id="axes_1">
   <g id="patch_2">
    <path d="M 44.374771 250.368666 
L 273.675318 250.368666 
L 273.675318 21.03274 
L 44.374771 21.03274 
z
" style="fill:#ffffff;"/>
   </g>
   <g id="matplotlib.axis_1">
    <g id="xtick_1">
     <g id="line2d_1">
      <path clip-path="url(#pe01c9f3a87)" d="M 54.797523 250.368666 
L 54.797523 21.03274 
" style="fill:none;stroke:#cccccc;stroke-dasharray:0.8,1.32;stroke-dashoffset:0;stroke-width:0.8;"/>
     </g>
     <g id="line2d_2"/>
     <g id="text_1">
      <!-- 0.00 -->
      <defs>
       <path d="M 30.796875 -0.59375 
Q 22.203125 -0.59375 16.046875 4 
Q 9.90625 8.59375 6.75 16.1875 
Q 3.59375 23.796875 3.59375 32.59375 
Q 3.59375 41.40625 6.75 48.90625 
Q 9.90625 56.40625 16.046875 60.953125 
Q 22.203125 65.5 30.796875 65.5 
Q 39.40625 65.5 45.59375 60.953125 
Q 51.796875 56.40625 54.9375 48.84375 
Q 58.09375 41.296875 58.09375 32.59375 
Q 58.09375 23.796875 54.9375 16.1875 
Q 51.796875 8.59375 45.59375 4 
Q 39.40625 -0.59375 30.796875 -0.59375 
z
M 30.796875 1.296875 
Q 37.90625 1.203125 43.65625 5 
Q 49.40625 8.796875 52.75 15.890625 
Q 56.09375 23 56.09375 32.5 
Q 56.09375 42 52.75 49.046875 
Q 49.40625 56.09375 43.65625 59.890625 
Q 37.90625 63.703125 30.796875 63.59375 
Q 23.703125 63.703125 18 59.890625 
Q 12.296875 56.09375 8.9375 49.046875 
Q 5.59375 42 5.59375 32.5 
Q 5.59375 23 8.9375 15.890625 
Q 12.296875 8.796875 18 5 
Q 23.703125 1.203125 30.796875 1.296875 
z
" id="JosefinSans-Thin-48"/>
       <path d="M 7.09375 2.203125 
Q 7.09375 3.203125 7.796875 3.84375 
Q 8.5 4.5 9.40625 4.5 
Q 10.296875 4.5 10.9375 3.84375 
Q 11.59375 3.203125 11.59375 2.203125 
Q 11.59375 1.296875 10.9375 0.640625 
Q 10.296875 0 9.40625 0 
Q 8.5 0 7.796875 0.640625 
Q 7.09375 1.296875 7.09375 2.203125 
z
" id="JosefinSans-Thin-46"/>
      </defs>
      <g style="fill:#262626;" transform="translate(40.538305 264.397104)scale(0.14 -0.14)">
       <use xlink:href="#JosefinSans-Thin-48"/>
       <use x="61.699997" xlink:href="#JosefinSans-Thin-46"/>
       <use x="80.299988" xlink:href="#JosefinSans-Thin-48"/>
       <use x="141.999985" xlink:href="#JosefinSans-Thin-48"/>
      </g>
     </g>
    </g>
    <g id="xtick_2">
     <g id="line2d_3">
      <path clip-path="url(#pe01c9f3a87)" d="M 106.911284 250.368666 
L 106.911284 21.03274 
" style="fill:none;stroke:#cccccc;stroke-dasharray:0.8,1.32;stroke-dashoffset:0;stroke-width:0.8;"/>
     </g>
     <g id="line2d_4"/>
     <g id="text_2">
      <!-- 0.25 -->
      <defs>
       <path d="M 45.296875 1.90625 
L 45.296875 0 
L 5.296875 0 
Q 16.296875 10.59375 23.046875 17.84375 
Q 29.796875 25.09375 34.296875 32.4375 
Q 38.796875 39.796875 38.796875 46.296875 
Q 38.796875 52.59375 36.34375 56.546875 
Q 33.90625 60.5 30.296875 62.25 
Q 26.703125 64 23 64 
Q 17 64 13.390625 61.296875 
Q 9.796875 58.59375 8.34375 54.6875 
Q 6.90625 50.796875 6.90625 46.90625 
Q 6.90625 39.703125 10.796875 35.5 
L 9.59375 34.40625 
Q 4.90625 39.59375 4.90625 46.796875 
Q 4.90625 55.09375 9.75 60.5 
Q 14.59375 65.90625 23.09375 65.90625 
Q 28.296875 65.90625 32.34375 63.40625 
Q 36.40625 60.90625 38.59375 56.453125 
Q 40.796875 52 40.796875 46.40625 
Q 40.796875 40.296875 37.25 33.84375 
Q 33.703125 27.40625 28.640625 21.59375 
Q 23.59375 15.796875 15.296875 7.5 
L 9.796875 1.90625 
z
" id="JosefinSans-Thin-50"/>
       <path d="M 25.703125 39.796875 
Q 31.40625 39.796875 36.046875 37.09375 
Q 40.703125 34.40625 43.34375 29.796875 
Q 46 25.203125 46 19.59375 
Q 46 14.09375 43.25 9.390625 
Q 40.5 4.703125 35.75 1.953125 
Q 31 -0.796875 25.40625 -0.796875 
Q 21.40625 -0.796875 17.65625 0.703125 
Q 13.90625 2.203125 11.09375 4.90625 
L 12.40625 6.203125 
Q 14.796875 3.703125 18.09375 2.34375 
Q 21.40625 1 25.09375 1 
Q 30.203125 1 34.546875 3.546875 
Q 38.90625 6.09375 41.453125 10.390625 
Q 44 14.703125 44 19.59375 
Q 44 24.59375 41.546875 28.84375 
Q 39.09375 33.09375 34.796875 35.546875 
Q 30.5 38 25.296875 38 
Q 22 38 19.046875 36.890625 
Q 16.09375 35.796875 14.09375 34 
L 14 34 
L 14 65.09375 
L 42.90625 65.09375 
L 42.90625 63.203125 
L 15.90625 63.203125 
L 15.90625 37.5 
Q 17.796875 38.5 20.5 39.140625 
Q 23.203125 39.796875 25.703125 39.796875 
z
" id="JosefinSans-Thin-53"/>
      </defs>
      <g style="fill:#262626;" transform="translate(94.018159 264.397104)scale(0.14 -0.14)">
       <use xlink:href="#JosefinSans-Thin-48"/>
       <use x="61.699997" xlink:href="#JosefinSans-Thin-46"/>
       <use x="80.299988" xlink:href="#JosefinSans-Thin-50"/>
       <use x="129.899979" xlink:href="#JosefinSans-Thin-53"/>
      </g>
     </g>
    </g>
    <g id="xtick_3">
     <g id="line2d_5">
      <path clip-path="url(#pe01c9f3a87)" d="M 159.025045 250.368666 
L 159.025045 21.03274 
" style="fill:none;stroke:#cccccc;stroke-dasharray:0.8,1.32;stroke-dashoffset:0;stroke-width:0.8;"/>
     </g>
     <g id="line2d_6"/>
     <g id="text_3">
      <!-- 0.50 -->
      <g style="fill:#262626;" transform="translate(145.284263 264.397104)scale(0.14 -0.14)">
       <use xlink:href="#JosefinSans-Thin-48"/>
       <use x="61.699997" xlink:href="#JosefinSans-Thin-46"/>
       <use x="80.299988" xlink:href="#JosefinSans-Thin-53"/>
       <use x="134.599976" xlink:href="#JosefinSans-Thin-48"/>
      </g>
     </g>
    </g>
    <g id="xtick_4">
     <g id="line2d_7">
      <path clip-path="url(#pe01c9f3a87)" d="M 211.138805 250.368666 
L 211.138805 21.03274 
" style="fill:none;stroke:#cccccc;stroke-dasharray:0.8,1.32;stroke-dashoffset:0;stroke-width:0.8;"/>
     </g>
     <g id="line2d_8"/>
     <g id="text_4">
      <!-- 0.75 -->
      <defs>
       <path d="M 44.796875 65.09375 
L 15.796875 0 
L 13.40625 0 
L 41.796875 63.203125 
L 4.5 63.203125 
L 4.5 65.09375 
z
" id="JosefinSans-Thin-55"/>
      </defs>
      <g style="fill:#262626;" transform="translate(198.38568 264.397104)scale(0.14 -0.14)">
       <use xlink:href="#JosefinSans-Thin-48"/>
       <use x="61.699997" xlink:href="#JosefinSans-Thin-46"/>
       <use x="80.299988" xlink:href="#JosefinSans-Thin-55"/>
       <use x="127.899979" xlink:href="#JosefinSans-Thin-53"/>
      </g>
     </g>
    </g>
    <g id="xtick_5">
     <g id="line2d_9">
      <path clip-path="url(#pe01c9f3a87)" d="M 263.252566 250.368666 
L 263.252566 21.03274 
" style="fill:none;stroke:#cccccc;stroke-dasharray:0.8,1.32;stroke-dashoffset:0;stroke-width:0.8;"/>
     </g>
     <g id="line2d_10"/>
     <g id="text_5">
      <!-- 1.00 -->
      <defs>
       <path d="M 19 65.09375 
L 19 0 
L 17 0 
L 17 63.09375 
L 5.90625 63.09375 
L 5.90625 65.09375 
z
" id="JosefinSans-Thin-49"/>
      </defs>
      <g style="fill:#262626;" transform="translate(251.156785 264.397104)scale(0.14 -0.14)">
       <use xlink:href="#JosefinSans-Thin-49"/>
       <use x="30.799988" xlink:href="#JosefinSans-Thin-46"/>
       <use x="49.399979" xlink:href="#JosefinSans-Thin-48"/>
       <use x="111.099976" xlink:href="#JosefinSans-Thin-48"/>
      </g>
     </g>
    </g>
    <g id="text_6">
     <!-- probability of water -->
     <defs>
      <path d="M 29.40625 38.59375 
Q 34.703125 38.59375 39.203125 35.9375 
Q 43.703125 33.296875 46.296875 28.796875 
Q 48.90625 24.296875 48.90625 18.90625 
Q 48.90625 13.5 46.296875 9.046875 
Q 43.703125 4.59375 39.203125 2 
Q 34.703125 -0.59375 29.296875 -0.59375 
Q 23.40625 -0.59375 18.59375 2.5 
Q 13.796875 5.59375 11.40625 10.703125 
L 11.40625 -18.09375 
L 9.40625 -18.09375 
L 9.40625 37.796875 
L 11.296875 37.796875 
L 11.40625 27 
Q 13.796875 32.203125 18.640625 35.390625 
Q 23.5 38.59375 29.40625 38.59375 
z
M 29.09375 1.09375 
Q 34 1.09375 38.046875 3.5 
Q 42.09375 5.90625 44.5 10 
Q 46.90625 14.09375 46.90625 18.90625 
Q 46.90625 23.796875 44.5 27.9375 
Q 42.09375 32.09375 38.046875 34.5 
Q 34 36.90625 29.203125 36.90625 
Q 24.40625 36.90625 20.34375 34.5 
Q 16.296875 32.09375 13.84375 28.046875 
Q 11.40625 24 11.40625 19.203125 
L 11.40625 18.203125 
Q 11.5 13.59375 13.953125 9.640625 
Q 16.40625 5.703125 20.40625 3.390625 
Q 24.40625 1.09375 29.09375 1.09375 
z
" id="JosefinSans-Thin-112"/>
      <path d="M 11.203125 27.59375 
Q 13 32.59375 17.546875 35.5 
Q 22.09375 38.40625 27.703125 38.5 
L 27.59375 36.703125 
Q 23.203125 36.5 19.5 34.59375 
Q 15.796875 32.703125 13.59375 29.34375 
Q 11.40625 26 11.40625 21.796875 
L 11.40625 0 
L 9.40625 0 
L 9.40625 37.796875 
L 10.90625 37.796875 
L 11.203125 27.59375 
z
" id="JosefinSans-Thin-114"/>
      <path d="M 5.40625 19 
Q 5.40625 24.40625 8.046875 28.90625 
Q 10.703125 33.40625 15.203125 36.046875 
Q 19.703125 38.703125 25.09375 38.703125 
Q 30.5 38.703125 35.046875 36.046875 
Q 39.59375 33.40625 42.25 28.90625 
Q 44.90625 24.40625 44.90625 19 
Q 44.90625 13.59375 42.25 9.09375 
Q 39.59375 4.59375 35.046875 2 
Q 30.5 -0.59375 25.09375 -0.59375 
Q 19.703125 -0.59375 15.140625 1.953125 
Q 10.59375 4.5 8 9 
Q 5.40625 13.5 5.40625 19 
z
M 7.40625 19 
Q 7.40625 14.09375 9.75 10 
Q 12.09375 5.90625 16.140625 3.5 
Q 20.203125 1.09375 25.09375 1.09375 
Q 29.90625 1.09375 33.953125 3.5 
Q 38 5.90625 40.390625 10 
Q 42.796875 14.09375 42.796875 19 
Q 42.796875 23.796875 40.390625 27.9375 
Q 38 32.09375 33.953125 34.5 
Q 29.90625 36.90625 25.09375 36.90625 
Q 20.203125 36.90625 16.09375 34.34375 
Q 12 31.796875 9.703125 27.640625 
Q 7.40625 23.5 7.40625 19 
z
" id="JosefinSans-Thin-111"/>
      <path d="M 29.40625 38.59375 
Q 34.703125 38.59375 39.203125 36 
Q 43.703125 33.40625 46.296875 28.90625 
Q 48.90625 24.40625 48.90625 19 
Q 48.90625 12.796875 46.296875 8.34375 
Q 43.703125 3.90625 39.25 1.65625 
Q 34.796875 -0.59375 29.296875 -0.59375 
Q 23.5 -0.59375 18.640625 2.65625 
Q 13.796875 5.90625 11.40625 11 
L 11.40625 0 
L 9.40625 0 
L 9.40625 75.203125 
L 11.40625 75.203125 
L 11.40625 26.90625 
Q 13.703125 32.203125 18.546875 35.390625 
Q 23.40625 38.59375 29.40625 38.59375 
z
M 29.203125 1.09375 
Q 37.40625 1.09375 42.15625 6.046875 
Q 46.90625 11 46.90625 19 
Q 46.90625 23.796875 44.703125 27.890625 
Q 42.5 32 38.453125 34.453125 
Q 34.40625 36.90625 29.203125 36.90625 
Q 22.40625 36.90625 17.453125 32.703125 
Q 12.5 28.5 11.40625 22.09375 
L 11.40625 17.40625 
Q 11.40625 13.296875 13.84375 9.5 
Q 16.296875 5.703125 20.34375 3.390625 
Q 24.40625 1.09375 29.203125 1.09375 
z
" id="JosefinSans-Thin-98"/>
      <path d="M 44.796875 37.796875 
L 44.796875 0 
L 42.90625 0 
L 42.90625 10.796875 
Q 40.796875 5.796875 35.84375 2.59375 
Q 30.90625 -0.59375 24.90625 -0.59375 
Q 19.59375 -0.59375 15.09375 2 
Q 10.59375 4.59375 8 9.046875 
Q 5.40625 13.5 5.40625 18.90625 
Q 5.40625 25 8.046875 29.453125 
Q 10.703125 33.90625 15.203125 36.25 
Q 19.703125 38.59375 25.203125 38.59375 
Q 31 38.59375 35.796875 35.34375 
Q 40.59375 32.09375 42.90625 26.90625 
L 43.296875 37.796875 
z
M 25.09375 1.09375 
Q 30 1.09375 34.046875 3.296875 
Q 38.09375 5.5 40.5 9.390625 
Q 42.90625 13.296875 42.90625 18.09375 
L 42.90625 22.203125 
Q 41.703125 28.40625 36.640625 32.65625 
Q 31.59375 36.90625 25.09375 36.90625 
Q 20.203125 36.90625 16.140625 34.703125 
Q 12.09375 32.5 9.75 28.390625 
Q 7.40625 24.296875 7.40625 19 
Q 7.40625 14.09375 9.796875 10 
Q 12.203125 5.90625 16.25 3.5 
Q 20.296875 1.09375 25.09375 1.09375 
z
" id="JosefinSans-Thin-97"/>
      <path d="M 11.40625 37.796875 
L 11.40625 0 
L 9.40625 0 
L 9.40625 37.796875 
z
M 8.203125 49.703125 
Q 8.203125 50.609375 8.84375 51.25 
Q 9.5 51.90625 10.5 51.90625 
Q 11.40625 51.90625 12.046875 51.25 
Q 12.703125 50.609375 12.703125 49.703125 
Q 12.703125 48.796875 12.046875 48.140625 
Q 11.40625 47.5 10.5 47.5 
Q 9.59375 47.5 8.890625 48.203125 
Q 8.203125 48.90625 8.203125 49.703125 
z
" id="JosefinSans-Thin-105"/>
      <path d="M 11.40625 75.203125 
L 11.40625 0 
L 9.40625 0 
L 9.40625 75.203125 
z
" id="JosefinSans-Thin-108"/>
      <path d="M 15.296875 54.296875 
L 15.296875 37 
L 27.90625 37 
L 27.90625 35.296875 
L 15.296875 35.296875 
L 15.296875 0 
L 13.296875 0 
L 13.296875 35.296875 
L 4.5 35.296875 
L 4.5 37 
L 13.296875 37 
L 13.296875 54.296875 
z
" id="JosefinSans-Thin-116"/>
      <path d="M 39.703125 37.796875 
L 15.40625 -18.09375 
L 13 -18.09375 
L 20.90625 -0.203125 
L 3.40625 37.796875 
L 5.5 37.796875 
L 21.90625 2.203125 
L 37.5 37.796875 
z
" id="JosefinSans-Thin-121"/>
      <path id="JosefinSans-Thin-32"/>
      <path d="M 11.5 35.703125 
L 5 35.703125 
L 5 37.5 
L 11.5 37.5 
L 11.5 58.5 
Q 11.5 68 14.140625 71.84375 
Q 16.796875 75.703125 22.5 75.703125 
Q 24.40625 75.703125 26.5 74.90625 
L 25.59375 73.5 
Q 24.40625 74.203125 22.59375 74.203125 
Q 17.796875 74.203125 15.640625 70.75 
Q 13.5 67.296875 13.5 58.90625 
L 13.5 37.5 
L 26.5 37.5 
L 26.5 35.703125 
L 13.5 35.703125 
L 13.5 0 
L 11.5 0 
z
" id="JosefinSans-Thin-102"/>
      <path d="M 62.5 37.796875 
L 44.59375 -2.296875 
L 32.5 25.203125 
L 21.296875 -2.296875 
L 3.40625 37.796875 
L 5.40625 37.796875 
L 21.40625 2 
L 31.5 27.09375 
L 26.703125 37.796875 
L 28.703125 37.796875 
L 44.703125 1.796875 
L 60.5 37.796875 
z
" id="JosefinSans-Thin-119"/>
      <path d="M 25.09375 1.09375 
Q 28.59375 1.09375 31.75 2.34375 
Q 34.90625 3.59375 37.296875 5.90625 
L 38.59375 4.5 
Q 35.796875 2.09375 32.34375 0.75 
Q 28.90625 -0.59375 25.09375 -0.59375 
Q 19.59375 -0.59375 15.09375 2 
Q 10.59375 4.59375 8 9.09375 
Q 5.40625 13.59375 5.40625 19 
Q 5.40625 24.40625 8.046875 28.90625 
Q 10.703125 33.40625 15.203125 36.046875 
Q 19.703125 38.703125 25.09375 38.703125 
Q 31.09375 38.703125 35.546875 35.203125 
Q 40 31.703125 42.296875 25.90625 
L 8.703125 12.296875 
Q 10.703125 7.40625 15 4.25 
Q 19.296875 1.09375 25.09375 1.09375 
z
M 25 36.90625 
Q 20.203125 36.90625 16.140625 34.5 
Q 12.09375 32.09375 9.75 28 
Q 7.40625 23.90625 7.40625 19 
Q 7.40625 16.203125 8.09375 14 
L 39.796875 26.796875 
Q 37.5 31.296875 33.640625 34.09375 
Q 29.796875 36.90625 25 36.90625 
z
" id="JosefinSans-Thin-101"/>
     </defs>
     <g style="fill:#262626;" transform="translate(98.705123 282.285697)scale(0.15 -0.15)">
      <use xlink:href="#JosefinSans-Thin-112"/>
      <use x="54.299988" xlink:href="#JosefinSans-Thin-114"/>
      <use x="86.399979" xlink:href="#JosefinSans-Thin-111"/>
      <use x="136.699966" xlink:href="#JosefinSans-Thin-98"/>
      <use x="190.999954" xlink:href="#JosefinSans-Thin-97"/>
      <use x="245.199951" xlink:href="#JosefinSans-Thin-98"/>
      <use x="299.499939" xlink:href="#JosefinSans-Thin-105"/>
      <use x="320.299927" xlink:href="#JosefinSans-Thin-108"/>
      <use x="341.099915" xlink:href="#JosefinSans-Thin-105"/>
      <use x="361.899902" xlink:href="#JosefinSans-Thin-116"/>
      <use x="392.299896" xlink:href="#JosefinSans-Thin-121"/>
      <use x="435.399887" xlink:href="#JosefinSans-Thin-32"/>
      <use x="465.499878" xlink:href="#JosefinSans-Thin-111"/>
      <use x="515.799866" xlink:href="#JosefinSans-Thin-102"/>
      <use x="544.899857" xlink:href="#JosefinSans-Thin-32"/>
      <use x="574.999847" xlink:href="#JosefinSans-Thin-119"/>
      <use x="640.899841" xlink:href="#JosefinSans-Thin-97"/>
      <use x="695.099838" xlink:href="#JosefinSans-Thin-116"/>
      <use x="725.499832" xlink:href="#JosefinSans-Thin-101"/>
      <use x="772.199829" xlink:href="#JosefinSans-Thin-114"/>
     </g>
    </g>
   </g>
   <g id="matplotlib.axis_2">
    <g id="ytick_1">
     <g id="line2d_11">
      <path clip-path="url(#pe01c9f3a87)" d="M 44.374771 239.944306 
L 273.675318 239.944306 
" style="fill:none;stroke:#cccccc;stroke-dasharray:0.8,1.32;stroke-dashoffset:0;stroke-width:0.8;"/>
     </g>
     <g id="line2d_12"/>
     <g id="text_7">
      <!-- 0.0 -->
      <g style="fill:#262626;" transform="translate(20.994771 245.208525)scale(0.14 -0.14)">
       <use xlink:href="#JosefinSans-Thin-48"/>
       <use x="61.699997" xlink:href="#JosefinSans-Thin-46"/>
       <use x="80.299988" xlink:href="#JosefinSans-Thin-48"/>
      </g>
     </g>
    </g>
    <g id="ytick_2">
     <g id="line2d_13">
      <path clip-path="url(#pe01c9f3a87)" d="M 44.374771 203.680688 
L 273.675318 203.680688 
" style="fill:none;stroke:#cccccc;stroke-dasharray:0.8,1.32;stroke-dashoffset:0;stroke-width:0.8;"/>
     </g>
     <g id="line2d_14"/>
     <g id="text_8">
      <!-- 0.1 -->
      <g style="fill:#262626;" transform="translate(25.321646 208.944906)scale(0.14 -0.14)">
       <use xlink:href="#JosefinSans-Thin-48"/>
       <use x="61.699997" xlink:href="#JosefinSans-Thin-46"/>
       <use x="80.299988" xlink:href="#JosefinSans-Thin-49"/>
      </g>
     </g>
    </g>
    <g id="ytick_3">
     <g id="line2d_15">
      <path clip-path="url(#pe01c9f3a87)" d="M 44.374771 167.41707 
L 273.675318 167.41707 
" style="fill:none;stroke:#cccccc;stroke-dasharray:0.8,1.32;stroke-dashoffset:0;stroke-width:0.8;"/>
     </g>
     <g id="line2d_16"/>
     <g id="text_9">
      <!-- 0.2 -->
      <g style="fill:#262626;" transform="translate(22.690084 172.681288)scale(0.14 -0.14)">
       <use xlink:href="#JosefinSans-Thin-48"/>
       <use x="61.699997" xlink:href="#JosefinSans-Thin-46"/>
       <use x="80.299988" xlink:href="#JosefinSans-Thin-50"/>
      </g>
     </g>
    </g>
    <g id="ytick_4">
     <g id="line2d_17">
      <path clip-path="url(#pe01c9f3a87)" d="M 44.374771 131.153451 
L 273.675318 131.153451 
" style="fill:none;stroke:#cccccc;stroke-dasharray:0.8,1.32;stroke-dashoffset:0;stroke-width:0.8;"/>
     </g>
     <g id="line2d_18"/>
     <g id="text_10">
      <!-- 0.3 -->
      <defs>
       <path d="M 25.5 39.90625 
Q 30.90625 40.203125 35.296875 38.09375 
Q 39.703125 36 42.296875 31.75 
Q 44.90625 27.5 44.90625 21.5 
Q 44.90625 15 42.046875 9.890625 
Q 39.203125 4.796875 34.046875 2 
Q 28.90625 -0.796875 22.40625 -0.796875 
Q 18 -0.796875 14.140625 0.953125 
Q 10.296875 2.703125 7.40625 5.796875 
L 8.40625 7.296875 
Q 10.796875 4.5 14.59375 2.796875 
Q 18.40625 1.09375 22.40625 1.09375 
Q 28.40625 1.09375 33.046875 3.6875 
Q 37.703125 6.296875 40.296875 11 
Q 42.90625 15.703125 42.90625 21.59375 
Q 42.90625 29.296875 38.09375 33.75 
Q 33.296875 38.203125 25.203125 38.203125 
Q 22.5 38.203125 19.796875 37.546875 
Q 17.09375 36.90625 15.296875 35.796875 
L 14.90625 36.09375 
L 36.796875 63.203125 
L 8.59375 63.203125 
L 8.59375 65.09375 
L 40.59375 65.09375 
L 19.296875 39 
Q 22.09375 39.90625 25.5 39.90625 
z
" id="JosefinSans-Thin-51"/>
      </defs>
      <g style="fill:#262626;" transform="translate(22.381646 136.41767)scale(0.14 -0.14)">
       <use xlink:href="#JosefinSans-Thin-48"/>
       <use x="61.699997" xlink:href="#JosefinSans-Thin-46"/>
       <use x="80.299988" xlink:href="#JosefinSans-Thin-51"/>
      </g>
     </g>
    </g>
    <g id="ytick_5">
     <g id="line2d_19">
      <path clip-path="url(#pe01c9f3a87)" d="M 44.374771 94.889833 
L 273.675318 94.889833 
" style="fill:none;stroke:#cccccc;stroke-dasharray:0.8,1.32;stroke-dashoffset:0;stroke-width:0.8;"/>
     </g>
     <g id="line2d_20"/>
     <g id="text_11">
      <!-- 0.4 -->
      <defs>
       <path d="M 48.796875 19.90625 
L 48.796875 18.09375 
L 39.203125 18.09375 
L 39.203125 0 
L 37.203125 0 
L 37.203125 18.09375 
L 2.296875 18.09375 
L 2.296875 18.203125 
L 39.09375 65.90625 
L 39.203125 65.90625 
L 39.203125 19.90625 
z
M 37.203125 19.90625 
L 37.203125 60.5 
L 5.796875 19.90625 
z
" id="JosefinSans-Thin-52"/>
      </defs>
      <g style="fill:#262626;" transform="translate(22.550084 100.154052)scale(0.14 -0.14)">
       <use xlink:href="#JosefinSans-Thin-48"/>
       <use x="61.699997" xlink:href="#JosefinSans-Thin-46"/>
       <use x="80.299988" xlink:href="#JosefinSans-Thin-52"/>
      </g>
     </g>
    </g>
    <g id="ytick_6">
     <g id="line2d_21">
      <path clip-path="url(#pe01c9f3a87)" d="M 44.374771 58.626215 
L 273.675318 58.626215 
" style="fill:none;stroke:#cccccc;stroke-dasharray:0.8,1.32;stroke-dashoffset:0;stroke-width:0.8;"/>
     </g>
     <g id="line2d_22"/>
     <g id="text_12">
      <!-- 0.5 -->
      <g style="fill:#262626;" transform="translate(22.031646 63.890434)scale(0.14 -0.14)">
       <use xlink:href="#JosefinSans-Thin-48"/>
       <use x="61.699997" xlink:href="#JosefinSans-Thin-46"/>
       <use x="80.299988" xlink:href="#JosefinSans-Thin-53"/>
      </g>
     </g>
    </g>
    <g id="ytick_7">
     <g id="line2d_23">
      <path clip-path="url(#pe01c9f3a87)" d="M 44.374771 22.362597 
L 273.675318 22.362597 
" style="fill:none;stroke:#cccccc;stroke-dasharray:0.8,1.32;stroke-dashoffset:0;stroke-width:0.8;"/>
     </g>
     <g id="line2d_24"/>
     <g id="text_13">
      <!-- 0.6 -->
      <defs>
       <path d="M 25.796875 39.703125 
Q 31.296875 39.703125 35.9375 36.953125 
Q 40.59375 34.203125 43.34375 29.546875 
Q 46.09375 24.90625 46.09375 19.40625 
Q 46.09375 13.90625 43.34375 9.25 
Q 40.59375 4.59375 35.84375 1.890625 
Q 31.09375 -0.796875 25.5 -0.796875 
Q 19.90625 -0.796875 15.15625 1.953125 
Q 10.40625 4.703125 7.65625 9.390625 
Q 4.90625 14.09375 4.90625 19.703125 
Q 4.90625 29.09375 9.703125 37.09375 
Q 14.5 45.09375 21.046875 50.9375 
Q 27.59375 56.796875 37.90625 64.40625 
L 39.203125 62.703125 
Q 27.703125 55 20.25 47.34375 
Q 12.796875 39.703125 9.90625 32.703125 
Q 12.796875 36.09375 16.9375 37.890625 
Q 21.09375 39.703125 25.796875 39.703125 
z
M 25.40625 1 
Q 30.5 1 34.796875 3.453125 
Q 39.09375 5.90625 41.59375 10.15625 
Q 44.09375 14.40625 44.09375 19.40625 
Q 44.09375 24.5 41.59375 28.75 
Q 39.09375 33 34.796875 35.453125 
Q 30.5 37.90625 25.40625 37.90625 
Q 20.296875 37.90625 16.046875 35.65625 
Q 11.796875 33.40625 9.296875 29.40625 
Q 6.796875 25.40625 6.796875 20.203125 
L 6.796875 19.40625 
Q 6.796875 14.40625 9.296875 10.203125 
Q 11.796875 6 16.046875 3.5 
Q 20.296875 1 25.40625 1 
z
" id="JosefinSans-Thin-54"/>
      </defs>
      <g style="fill:#262626;" transform="translate(22.353209 27.626815)scale(0.14 -0.14)">
       <use xlink:href="#JosefinSans-Thin-48"/>
       <use x="61.699997" xlink:href="#JosefinSans-Thin-46"/>
       <use x="80.299988" xlink:href="#JosefinSans-Thin-54"/>
      </g>
     </g>
    </g>
    <g id="text_14">
     <!-- posterior probability -->
     <defs>
      <path d="M 17.09375 -0.796875 
Q 13.90625 -0.796875 10.65625 0.390625 
Q 7.40625 1.59375 5.40625 4 
L 6.59375 5.203125 
Q 8.09375 3.296875 10.9375 2.09375 
Q 13.796875 0.90625 17.09375 0.90625 
Q 21.203125 0.90625 24.09375 3 
Q 27 5.09375 27 9.703125 
Q 27 12.5 25.5 14.25 
Q 24 16 22 16.890625 
Q 20 17.796875 16.203125 19 
Q 11.703125 20.59375 9.296875 22.640625 
Q 6.90625 24.703125 6.90625 28.703125 
Q 6.90625 33.203125 9.953125 35.75 
Q 13 38.296875 17.203125 38.296875 
Q 19.796875 38.296875 22.640625 37.1875 
Q 25.5 36.09375 27.5 33.90625 
L 26.40625 32.59375 
Q 24.90625 34.5 22.25 35.5 
Q 19.59375 36.5 17.296875 36.5 
Q 14.203125 36.5 11.5 34.546875 
Q 8.796875 32.59375 8.796875 28.90625 
Q 8.796875 25.59375 10.9375 23.890625 
Q 13.09375 22.203125 17.296875 20.703125 
Q 21.40625 19.296875 23.546875 18.296875 
Q 25.703125 17.296875 27.296875 15.34375 
Q 28.90625 13.40625 28.90625 10.203125 
Q 28.90625 5.09375 25.84375 2.140625 
Q 22.796875 -0.796875 17.09375 -0.796875 
z
" id="JosefinSans-Thin-115"/>
     </defs>
     <g style="fill:#262626;" transform="translate(14.280709 196.965156)rotate(-90)scale(0.15 -0.15)">
      <use xlink:href="#JosefinSans-Thin-112"/>
      <use x="54.299988" xlink:href="#JosefinSans-Thin-111"/>
      <use x="104.599976" xlink:href="#JosefinSans-Thin-115"/>
      <use x="138.999969" xlink:href="#JosefinSans-Thin-116"/>
      <use x="169.399963" xlink:href="#JosefinSans-Thin-101"/>
      <use x="216.09996" xlink:href="#JosefinSans-Thin-114"/>
      <use x="248.199951" xlink:href="#JosefinSans-Thin-105"/>
      <use x="268.999939" xlink:href="#JosefinSans-Thin-111"/>
      <use x="319.299927" xlink:href="#JosefinSans-Thin-114"/>
      <use x="351.399918" xlink:href="#JosefinSans-Thin-32"/>
      <use x="381.499908" xlink:href="#JosefinSans-Thin-112"/>
      <use x="435.799896" xlink:href="#JosefinSans-Thin-114"/>
      <use x="467.899887" xlink:href="#JosefinSans-Thin-111"/>
      <use x="518.199875" xlink:href="#JosefinSans-Thin-98"/>
      <use x="572.499863" xlink:href="#JosefinSans-Thin-97"/>
      <use x="626.69986" xlink:href="#JosefinSans-Thin-98"/>
      <use x="680.999847" xlink:href="#JosefinSans-Thin-105"/>
      <use x="701.799835" xlink:href="#JosefinSans-Thin-108"/>
      <use x="722.599823" xlink:href="#JosefinSans-Thin-105"/>
      <use x="743.399811" xlink:href="#JosefinSans-Thin-116"/>
      <use x="773.799805" xlink:href="#JosefinSans-Thin-121"/>
     </g>
    </g>
   </g>
   <g id="line2d_25">
    <path clip-path="url(#pe01c9f3a87)" d="M 54.797523 239.944306 
L 106.911284 232.222558 
L 159.025045 93.517078 
L 211.138805 31.4571 
L 263.252566 239.944306 
" style="fill:none;stroke:#81aca4;stroke-linecap:round;stroke-width:1.5;"/>
    <defs>
     <path d="M 0 3 
C 0.795609 3 1.55874 2.683901 2.12132 2.12132 
C 2.683901 1.55874 3 0.795609 3 0 
C 3 -0.795609 2.683901 -1.55874 2.12132 -2.12132 
C 1.55874 -2.683901 0.795609 -3 0 -3 
C -0.795609 -3 -1.55874 -2.683901 -2.12132 -2.12132 
C -2.683901 -1.55874 -3 -0.795609 -3 0 
C -3 0.795609 -2.683901 1.55874 -2.12132 2.12132 
C -1.55874 2.683901 -0.795609 3 0 3 
z
" id="mc7f3c50b05" style="stroke:#81aca4;"/>
    </defs>
    <g clip-path="url(#pe01c9f3a87)">
     <use style="fill:#81aca4;stroke:#81aca4;" x="54.797523" xlink:href="#mc7f3c50b05" y="239.944306"/>
     <use style="fill:#81aca4;stroke:#81aca4;" x="106.911284" xlink:href="#mc7f3c50b05" y="232.222558"/>
     <use style="fill:#81aca4;stroke:#81aca4;" x="159.025045" xlink:href="#mc7f3c50b05" y="93.517078"/>
     <use style="fill:#81aca4;stroke:#81aca4;" x="211.138805" xlink:href="#mc7f3c50b05" y="31.4571"/>
     <use style="fill:#81aca4;stroke:#81aca4;" x="263.252566" xlink:href="#mc7f3c50b05" y="239.944306"/>
    </g>
   </g>
   <g id="text_15">
    <!-- 5 points -->
    <defs>
     <path d="M 27.59375 38.5 
Q 32.796875 38.5 35.9375 35.390625 
Q 39.09375 32.296875 39.296875 27.296875 
L 39.296875 0 
L 37.296875 0 
L 37.296875 27.09375 
Q 37.09375 31.296875 34.546875 33.9375 
Q 32 36.59375 27.40625 36.796875 
Q 23.203125 36.796875 19.546875 34.890625 
Q 15.90625 33 13.65625 29.59375 
Q 11.40625 26.203125 11.40625 21.90625 
L 11.40625 0 
L 9.40625 0 
L 9.40625 37.796875 
L 10.90625 37.796875 
L 11.203125 27.703125 
Q 13 32.703125 17.5 35.59375 
Q 22 38.5 27.59375 38.5 
z
" id="JosefinSans-Thin-110"/>
    </defs>
    <g style="fill:#262626;" transform="translate(133.161295 15.03274)scale(0.16 -0.16)">
     <use xlink:href="#JosefinSans-Thin-53"/>
     <use x="54.299988" xlink:href="#JosefinSans-Thin-32"/>
     <use x="84.399979" xlink:href="#JosefinSans-Thin-112"/>
     <use x="138.699966" xlink:href="#JosefinSans-Thin-111"/>
     <use x="188.999954" xlink:href="#JosefinSans-Thin-105"/>
     <use x="209.799942" xlink:href="#JosefinSans-Thin-110"/>
     <use x="258.499939" xlink:href="#JosefinSans-Thin-116"/>
     <use x="288.899933" xlink:href="#JosefinSans-Thin-115"/>
    </g>
   </g>
   <g id="legend_1">
    <g id="line2d_26">
     <path d="M 56.974771 48.111365 
L 84.974771 48.111365 
" style="fill:none;stroke:#81aca4;stroke-linecap:round;stroke-width:1.5;"/>
    </g>
    <g id="line2d_27">
     <g>
      <use style="fill:#81aca4;stroke:#81aca4;" x="70.974771" xlink:href="#mc7f3c50b05" y="48.111365"/>
     </g>
    </g>
    <g id="text_16">
     <!-- successes = 6 -->
     <defs>
      <path d="M 39.296875 37.796875 
L 39.296875 0 
L 37.59375 0 
L 37.40625 9.90625 
Q 35.703125 5.40625 31.046875 2.296875 
Q 26.40625 -0.796875 21.09375 -0.796875 
Q 15.90625 -0.796875 12.75 2.34375 
Q 9.59375 5.5 9.40625 10.5 
L 9.40625 37.796875 
L 11.40625 37.796875 
L 11.40625 10.796875 
Q 11.59375 6.5 14.1875 3.84375 
Q 16.796875 1.203125 21.5 1 
Q 25.59375 1 29.1875 2.953125 
Q 32.796875 4.90625 35.046875 8.34375 
Q 37.296875 11.796875 37.296875 16 
L 37.296875 37.796875 
z
" id="JosefinSans-Thin-117"/>
      <path d="M 37.5 3.703125 
Q 32.09375 -0.59375 25.09375 -0.59375 
Q 19.703125 -0.59375 15.203125 2 
Q 10.703125 4.59375 8.046875 9.046875 
Q 5.40625 13.5 5.40625 18.90625 
Q 5.40625 24.296875 8.046875 28.796875 
Q 10.703125 33.296875 15.203125 35.9375 
Q 19.703125 38.59375 25 38.59375 
Q 28.59375 38.59375 31.796875 37.4375 
Q 35 36.296875 37.5 34.203125 
L 36.40625 32.796875 
Q 31.09375 36.90625 25.09375 36.90625 
Q 20.203125 36.90625 16.140625 34.453125 
Q 12.09375 32 9.75 27.890625 
Q 7.40625 23.796875 7.40625 18.90625 
Q 7.40625 14.09375 9.75 10 
Q 12.09375 5.90625 16.140625 3.5 
Q 20.203125 1.09375 25.09375 1.09375 
Q 31.296875 1.09375 36.296875 5 
L 37.5 3.703125 
z
" id="JosefinSans-Thin-99"/>
      <path d="M 60.703125 36 
L 60.703125 34.203125 
L 10 34.203125 
L 10 36 
z
M 60.703125 16.59375 
L 60.703125 14.796875 
L 10 14.796875 
L 10 16.59375 
z
" id="JosefinSans-Thin-61"/>
     </defs>
     <g style="fill:#262626;" transform="translate(96.174771 44.161177)scale(0.14 -0.14)">
      <use xlink:href="#JosefinSans-Thin-115"/>
      <use x="34.399994" xlink:href="#JosefinSans-Thin-117"/>
      <use x="83.099991" xlink:href="#JosefinSans-Thin-99"/>
      <use x="125.099976" xlink:href="#JosefinSans-Thin-99"/>
      <use x="167.09996" xlink:href="#JosefinSans-Thin-101"/>
      <use x="213.799957" xlink:href="#JosefinSans-Thin-115"/>
      <use x="248.199951" xlink:href="#JosefinSans-Thin-115"/>
      <use x="282.599945" xlink:href="#JosefinSans-Thin-101"/>
      <use x="329.299942" xlink:href="#JosefinSans-Thin-115"/>
      <use x="363.699936" xlink:href="#JosefinSans-Thin-32"/>
      <use x="393.799927" xlink:href="#JosefinSans-Thin-61"/>
      <use x="464.699921" xlink:href="#JosefinSans-Thin-32"/>
      <use x="494.799911" xlink:href="#JosefinSans-Thin-54"/>
     </g>
     <!-- tosses = 9 -->
     <defs>
      <path d="M 25.5 65.09375 
Q 31.203125 65.09375 35.890625 62.5 
Q 40.59375 59.90625 43.34375 55.09375 
Q 46.09375 50.296875 46.09375 43.90625 
Q 46.09375 34.703125 41.296875 26.75 
Q 36.5 18.796875 29.75 12.6875 
Q 23 6.59375 13 -0.796875 
L 11.59375 0.90625 
Q 22.703125 8.203125 29.890625 15.390625 
Q 37.09375 22.59375 40.296875 28.59375 
Q 37.296875 25.59375 33.75 24.25 
Q 30.203125 22.90625 25.296875 22.90625 
Q 19.796875 22.90625 15.09375 25.75 
Q 10.40625 28.59375 7.65625 33.4375 
Q 4.90625 38.296875 4.90625 44 
Q 4.90625 49.796875 7.703125 54.640625 
Q 10.5 59.5 15.203125 62.296875 
Q 19.90625 65.09375 25.5 65.09375 
z
M 25.59375 24.796875 
Q 34.203125 24.796875 39.203125 29.75 
Q 44.203125 34.703125 44.203125 43.5 
L 44.203125 44.796875 
Q 44 50.09375 41.453125 54.296875 
Q 38.90625 58.5 34.703125 60.796875 
Q 30.5 63.09375 25.59375 63.09375 
Q 20.5 63.09375 16.203125 60.546875 
Q 11.90625 58 9.40625 53.640625 
Q 6.90625 49.296875 6.90625 44 
Q 6.90625 38.703125 9.40625 34.296875 
Q 11.90625 29.90625 16.203125 27.34375 
Q 20.5 24.796875 25.59375 24.796875 
z
" id="JosefinSans-Thin-57"/>
     </defs>
     <g style="fill:#262626;" transform="translate(96.174771 59.328427)scale(0.14 -0.14)">
      <use xlink:href="#JosefinSans-Thin-116"/>
      <use x="30.399994" xlink:href="#JosefinSans-Thin-111"/>
      <use x="80.699982" xlink:href="#JosefinSans-Thin-115"/>
      <use x="115.099976" xlink:href="#JosefinSans-Thin-115"/>
      <use x="149.499969" xlink:href="#JosefinSans-Thin-101"/>
      <use x="196.199966" xlink:href="#JosefinSans-Thin-115"/>
      <use x="230.59996" xlink:href="#JosefinSans-Thin-32"/>
      <use x="260.699951" xlink:href="#JosefinSans-Thin-61"/>
      <use x="331.599945" xlink:href="#JosefinSans-Thin-32"/>
      <use x="361.699936" xlink:href="#JosefinSans-Thin-57"/>
     </g>
    </g>
   </g>
  </g>
  <g id="axes_2">
   <g id="patch_3">
    <path d="M 337.17425 250.368666 
L 566.474797 250.368666 
L 566.474797 21.03274 
L 337.17425 21.03274 
z
" style="fill:#ffffff;"/>
   </g>
   <g id="matplotlib.axis_3">
    <g id="xtick_6">
     <g id="line2d_28">
      <path clip-path="url(#p03e1056b0d)" d="M 347.597003 250.368666 
L 347.597003 21.03274 
" style="fill:none;stroke:#cccccc;stroke-dasharray:0.8,1.32;stroke-dashoffset:0;stroke-width:0.8;"/>
     </g>
     <g id="line2d_29"/>
     <g id="text_17">
      <!-- 0.00 -->
      <g style="fill:#262626;" transform="translate(333.337784 264.397104)scale(0.14 -0.14)">
       <use xlink:href="#JosefinSans-Thin-48"/>
       <use x="61.699997" xlink:href="#JosefinSans-Thin-46"/>
       <use x="80.299988" xlink:href="#JosefinSans-Thin-48"/>
       <use x="141.999985" xlink:href="#JosefinSans-Thin-48"/>
      </g>
     </g>
    </g>
    <g id="xtick_7">
     <g id="line2d_30">
      <path clip-path="url(#p03e1056b0d)" d="M 399.710763 250.368666 
L 399.710763 21.03274 
" style="fill:none;stroke:#cccccc;stroke-dasharray:0.8,1.32;stroke-dashoffset:0;stroke-width:0.8;"/>
     </g>
     <g id="line2d_31"/>
     <g id="text_18">
      <!-- 0.25 -->
      <g style="fill:#262626;" transform="translate(386.817638 264.397104)scale(0.14 -0.14)">
       <use xlink:href="#JosefinSans-Thin-48"/>
       <use x="61.699997" xlink:href="#JosefinSans-Thin-46"/>
       <use x="80.299988" xlink:href="#JosefinSans-Thin-50"/>
       <use x="129.899979" xlink:href="#JosefinSans-Thin-53"/>
      </g>
     </g>
    </g>
    <g id="xtick_8">
     <g id="line2d_32">
      <path clip-path="url(#p03e1056b0d)" d="M 451.824524 250.368666 
L 451.824524 21.03274 
" style="fill:none;stroke:#cccccc;stroke-dasharray:0.8,1.32;stroke-dashoffset:0;stroke-width:0.8;"/>
     </g>
     <g id="line2d_33"/>
     <g id="text_19">
      <!-- 0.50 -->
      <g style="fill:#262626;" transform="translate(438.083743 264.397104)scale(0.14 -0.14)">
       <use xlink:href="#JosefinSans-Thin-48"/>
       <use x="61.699997" xlink:href="#JosefinSans-Thin-46"/>
       <use x="80.299988" xlink:href="#JosefinSans-Thin-53"/>
       <use x="134.599976" xlink:href="#JosefinSans-Thin-48"/>
      </g>
     </g>
    </g>
    <g id="xtick_9">
     <g id="line2d_34">
      <path clip-path="url(#p03e1056b0d)" d="M 503.938285 250.368666 
L 503.938285 21.03274 
" style="fill:none;stroke:#cccccc;stroke-dasharray:0.8,1.32;stroke-dashoffset:0;stroke-width:0.8;"/>
     </g>
     <g id="line2d_35"/>
     <g id="text_20">
      <!-- 0.75 -->
      <g style="fill:#262626;" transform="translate(491.18516 264.397104)scale(0.14 -0.14)">
       <use xlink:href="#JosefinSans-Thin-48"/>
       <use x="61.699997" xlink:href="#JosefinSans-Thin-46"/>
       <use x="80.299988" xlink:href="#JosefinSans-Thin-55"/>
       <use x="127.899979" xlink:href="#JosefinSans-Thin-53"/>
      </g>
     </g>
    </g>
    <g id="xtick_10">
     <g id="line2d_36">
      <path clip-path="url(#p03e1056b0d)" d="M 556.052045 250.368666 
L 556.052045 21.03274 
" style="fill:none;stroke:#cccccc;stroke-dasharray:0.8,1.32;stroke-dashoffset:0;stroke-width:0.8;"/>
     </g>
     <g id="line2d_37"/>
     <g id="text_21">
      <!-- 1.00 -->
      <g style="fill:#262626;" transform="translate(543.956264 264.397104)scale(0.14 -0.14)">
       <use xlink:href="#JosefinSans-Thin-49"/>
       <use x="30.799988" xlink:href="#JosefinSans-Thin-46"/>
       <use x="49.399979" xlink:href="#JosefinSans-Thin-48"/>
       <use x="111.099976" xlink:href="#JosefinSans-Thin-48"/>
      </g>
     </g>
    </g>
    <g id="text_22">
     <!-- probability of water -->
     <g style="fill:#262626;" transform="translate(391.504602 282.285697)scale(0.15 -0.15)">
      <use xlink:href="#JosefinSans-Thin-112"/>
      <use x="54.299988" xlink:href="#JosefinSans-Thin-114"/>
      <use x="86.399979" xlink:href="#JosefinSans-Thin-111"/>
      <use x="136.699966" xlink:href="#JosefinSans-Thin-98"/>
      <use x="190.999954" xlink:href="#JosefinSans-Thin-97"/>
      <use x="245.199951" xlink:href="#JosefinSans-Thin-98"/>
      <use x="299.499939" xlink:href="#JosefinSans-Thin-105"/>
      <use x="320.299927" xlink:href="#JosefinSans-Thin-108"/>
      <use x="341.099915" xlink:href="#JosefinSans-Thin-105"/>
      <use x="361.899902" xlink:href="#JosefinSans-Thin-116"/>
      <use x="392.299896" xlink:href="#JosefinSans-Thin-121"/>
      <use x="435.399887" xlink:href="#JosefinSans-Thin-32"/>
      <use x="465.499878" xlink:href="#JosefinSans-Thin-111"/>
      <use x="515.799866" xlink:href="#JosefinSans-Thin-102"/>
      <use x="544.899857" xlink:href="#JosefinSans-Thin-32"/>
      <use x="574.999847" xlink:href="#JosefinSans-Thin-119"/>
      <use x="640.899841" xlink:href="#JosefinSans-Thin-97"/>
      <use x="695.099838" xlink:href="#JosefinSans-Thin-116"/>
      <use x="725.499832" xlink:href="#JosefinSans-Thin-101"/>
      <use x="772.199829" xlink:href="#JosefinSans-Thin-114"/>
     </g>
    </g>
   </g>
   <g id="matplotlib.axis_4">
    <g id="ytick_8">
     <g id="line2d_38">
      <path clip-path="url(#p03e1056b0d)" d="M 337.17425 239.944306 
L 566.474797 239.944306 
" style="fill:none;stroke:#cccccc;stroke-dasharray:0.8,1.32;stroke-dashoffset:0;stroke-width:0.8;"/>
     </g>
     <g id="line2d_39"/>
     <g id="text_23">
      <!-- 0.00 -->
      <g style="fill:#262626;" transform="translate(305.155813 245.208525)scale(0.14 -0.14)">
       <use xlink:href="#JosefinSans-Thin-48"/>
       <use x="61.699997" xlink:href="#JosefinSans-Thin-46"/>
       <use x="80.299988" xlink:href="#JosefinSans-Thin-48"/>
       <use x="141.999985" xlink:href="#JosefinSans-Thin-48"/>
      </g>
     </g>
    </g>
    <g id="ytick_9">
     <g id="line2d_40">
      <path clip-path="url(#p03e1056b0d)" d="M 337.17425 205.561076 
L 566.474797 205.561076 
" style="fill:none;stroke:#cccccc;stroke-dasharray:0.8,1.32;stroke-dashoffset:0;stroke-width:0.8;"/>
     </g>
     <g id="line2d_41"/>
     <g id="text_24">
      <!-- 0.05 -->
      <g style="fill:#262626;" transform="translate(306.192688 210.825295)scale(0.14 -0.14)">
       <use xlink:href="#JosefinSans-Thin-48"/>
       <use x="61.699997" xlink:href="#JosefinSans-Thin-46"/>
       <use x="80.299988" xlink:href="#JosefinSans-Thin-48"/>
       <use x="141.999985" xlink:href="#JosefinSans-Thin-53"/>
      </g>
     </g>
    </g>
    <g id="ytick_10">
     <g id="line2d_42">
      <path clip-path="url(#p03e1056b0d)" d="M 337.17425 171.177847 
L 566.474797 171.177847 
" style="fill:none;stroke:#cccccc;stroke-dasharray:0.8,1.32;stroke-dashoffset:0;stroke-width:0.8;"/>
     </g>
     <g id="line2d_43"/>
     <g id="text_25">
      <!-- 0.10 -->
      <g style="fill:#262626;" transform="translate(309.482688 176.442066)scale(0.14 -0.14)">
       <use xlink:href="#JosefinSans-Thin-48"/>
       <use x="61.699997" xlink:href="#JosefinSans-Thin-46"/>
       <use x="80.299988" xlink:href="#JosefinSans-Thin-49"/>
       <use x="111.099976" xlink:href="#JosefinSans-Thin-48"/>
      </g>
     </g>
    </g>
    <g id="ytick_11">
     <g id="line2d_44">
      <path clip-path="url(#p03e1056b0d)" d="M 337.17425 136.794617 
L 566.474797 136.794617 
" style="fill:none;stroke:#cccccc;stroke-dasharray:0.8,1.32;stroke-dashoffset:0;stroke-width:0.8;"/>
     </g>
     <g id="line2d_45"/>
     <g id="text_26">
      <!-- 0.15 -->
      <g style="fill:#262626;" transform="translate(310.519563 142.058836)scale(0.14 -0.14)">
       <use xlink:href="#JosefinSans-Thin-48"/>
       <use x="61.699997" xlink:href="#JosefinSans-Thin-46"/>
       <use x="80.299988" xlink:href="#JosefinSans-Thin-49"/>
       <use x="111.099976" xlink:href="#JosefinSans-Thin-53"/>
      </g>
     </g>
    </g>
    <g id="ytick_12">
     <g id="line2d_46">
      <path clip-path="url(#p03e1056b0d)" d="M 337.17425 102.411388 
L 566.474797 102.411388 
" style="fill:none;stroke:#cccccc;stroke-dasharray:0.8,1.32;stroke-dashoffset:0;stroke-width:0.8;"/>
     </g>
     <g id="line2d_47"/>
     <g id="text_27">
      <!-- 0.20 -->
      <g style="fill:#262626;" transform="translate(306.851125 107.675607)scale(0.14 -0.14)">
       <use xlink:href="#JosefinSans-Thin-48"/>
       <use x="61.699997" xlink:href="#JosefinSans-Thin-46"/>
       <use x="80.299988" xlink:href="#JosefinSans-Thin-50"/>
       <use x="129.899979" xlink:href="#JosefinSans-Thin-48"/>
      </g>
     </g>
    </g>
    <g id="ytick_13">
     <g id="line2d_48">
      <path clip-path="url(#p03e1056b0d)" d="M 337.17425 68.028158 
L 566.474797 68.028158 
" style="fill:none;stroke:#cccccc;stroke-dasharray:0.8,1.32;stroke-dashoffset:0;stroke-width:0.8;"/>
     </g>
     <g id="line2d_49"/>
     <g id="text_28">
      <!-- 0.25 -->
      <g style="fill:#262626;" transform="translate(307.888 73.292377)scale(0.14 -0.14)">
       <use xlink:href="#JosefinSans-Thin-48"/>
       <use x="61.699997" xlink:href="#JosefinSans-Thin-46"/>
       <use x="80.299988" xlink:href="#JosefinSans-Thin-50"/>
       <use x="129.899979" xlink:href="#JosefinSans-Thin-53"/>
      </g>
     </g>
    </g>
    <g id="ytick_14">
     <g id="line2d_50">
      <path clip-path="url(#p03e1056b0d)" d="M 337.17425 33.644929 
L 566.474797 33.644929 
" style="fill:none;stroke:#cccccc;stroke-dasharray:0.8,1.32;stroke-dashoffset:0;stroke-width:0.8;"/>
     </g>
     <g id="line2d_51"/>
     <g id="text_29">
      <!-- 0.30 -->
      <g style="fill:#262626;" transform="translate(306.542688 38.909148)scale(0.14 -0.14)">
       <use xlink:href="#JosefinSans-Thin-48"/>
       <use x="61.699997" xlink:href="#JosefinSans-Thin-46"/>
       <use x="80.299988" xlink:href="#JosefinSans-Thin-51"/>
       <use x="132.099976" xlink:href="#JosefinSans-Thin-48"/>
      </g>
     </g>
    </g>
    <g id="text_30">
     <!-- posterior probability -->
     <g style="fill:#262626;" transform="translate(298.44175 196.965156)rotate(-90)scale(0.15 -0.15)">
      <use xlink:href="#JosefinSans-Thin-112"/>
      <use x="54.299988" xlink:href="#JosefinSans-Thin-111"/>
      <use x="104.599976" xlink:href="#JosefinSans-Thin-115"/>
      <use x="138.999969" xlink:href="#JosefinSans-Thin-116"/>
      <use x="169.399963" xlink:href="#JosefinSans-Thin-101"/>
      <use x="216.09996" xlink:href="#JosefinSans-Thin-114"/>
      <use x="248.199951" xlink:href="#JosefinSans-Thin-105"/>
      <use x="268.999939" xlink:href="#JosefinSans-Thin-111"/>
      <use x="319.299927" xlink:href="#JosefinSans-Thin-114"/>
      <use x="351.399918" xlink:href="#JosefinSans-Thin-32"/>
      <use x="381.499908" xlink:href="#JosefinSans-Thin-112"/>
      <use x="435.799896" xlink:href="#JosefinSans-Thin-114"/>
      <use x="467.899887" xlink:href="#JosefinSans-Thin-111"/>
      <use x="518.199875" xlink:href="#JosefinSans-Thin-98"/>
      <use x="572.499863" xlink:href="#JosefinSans-Thin-97"/>
      <use x="626.69986" xlink:href="#JosefinSans-Thin-98"/>
      <use x="680.999847" xlink:href="#JosefinSans-Thin-105"/>
      <use x="701.799835" xlink:href="#JosefinSans-Thin-108"/>
      <use x="722.599823" xlink:href="#JosefinSans-Thin-105"/>
      <use x="743.399811" xlink:href="#JosefinSans-Thin-116"/>
      <use x="773.799805" xlink:href="#JosefinSans-Thin-121"/>
     </g>
    </g>
   </g>
   <g id="line2d_52">
    <path clip-path="url(#p03e1056b0d)" d="M 347.597003 239.944306 
L 370.758674 239.859568 
L 393.920345 236.311165 
L 417.082017 213.883405 
L 440.243688 155.206327 
L 463.40536 74.44044 
L 486.567031 31.4571 
L 509.728702 84.173392 
L 532.890374 196.558461 
L 556.052045 239.944306 
" style="fill:none;stroke:#81aca4;stroke-linecap:round;stroke-width:1.5;"/>
    <g clip-path="url(#p03e1056b0d)">
     <use style="fill:#81aca4;stroke:#81aca4;" x="347.597003" xlink:href="#mc7f3c50b05" y="239.944306"/>
     <use style="fill:#81aca4;stroke:#81aca4;" x="370.758674" xlink:href="#mc7f3c50b05" y="239.859568"/>
     <use style="fill:#81aca4;stroke:#81aca4;" x="393.920345" xlink:href="#mc7f3c50b05" y="236.311165"/>
     <use style="fill:#81aca4;stroke:#81aca4;" x="417.082017" xlink:href="#mc7f3c50b05" y="213.883405"/>
     <use style="fill:#81aca4;stroke:#81aca4;" x="440.243688" xlink:href="#mc7f3c50b05" y="155.206327"/>
     <use style="fill:#81aca4;stroke:#81aca4;" x="463.40536" xlink:href="#mc7f3c50b05" y="74.44044"/>
     <use style="fill:#81aca4;stroke:#81aca4;" x="486.567031" xlink:href="#mc7f3c50b05" y="31.4571"/>
     <use style="fill:#81aca4;stroke:#81aca4;" x="509.728702" xlink:href="#mc7f3c50b05" y="84.173392"/>
     <use style="fill:#81aca4;stroke:#81aca4;" x="532.890374" xlink:href="#mc7f3c50b05" y="196.558461"/>
     <use style="fill:#81aca4;stroke:#81aca4;" x="556.052045" xlink:href="#mc7f3c50b05" y="239.944306"/>
    </g>
   </g>
   <g id="text_31">
    <!-- 10 points -->
    <g style="fill:#262626;" transform="translate(422.904524 15.03274)scale(0.16 -0.16)">
     <use xlink:href="#JosefinSans-Thin-49"/>
     <use x="30.799988" xlink:href="#JosefinSans-Thin-48"/>
     <use x="92.499985" xlink:href="#JosefinSans-Thin-32"/>
     <use x="122.599976" xlink:href="#JosefinSans-Thin-112"/>
     <use x="176.899963" xlink:href="#JosefinSans-Thin-111"/>
     <use x="227.199951" xlink:href="#JosefinSans-Thin-105"/>
     <use x="247.999939" xlink:href="#JosefinSans-Thin-110"/>
     <use x="296.699936" xlink:href="#JosefinSans-Thin-116"/>
     <use x="327.09993" xlink:href="#JosefinSans-Thin-115"/>
    </g>
   </g>
   <g id="legend_2">
    <g id="line2d_53">
     <path d="M 349.77425 48.111365 
L 377.77425 48.111365 
" style="fill:none;stroke:#81aca4;stroke-linecap:round;stroke-width:1.5;"/>
    </g>
    <g id="line2d_54">
     <g>
      <use style="fill:#81aca4;stroke:#81aca4;" x="363.77425" xlink:href="#mc7f3c50b05" y="48.111365"/>
     </g>
    </g>
    <g id="text_32">
     <!-- successes = 6 -->
     <g style="fill:#262626;" transform="translate(388.97425 44.161177)scale(0.14 -0.14)">
      <use xlink:href="#JosefinSans-Thin-115"/>
      <use x="34.399994" xlink:href="#JosefinSans-Thin-117"/>
      <use x="83.099991" xlink:href="#JosefinSans-Thin-99"/>
      <use x="125.099976" xlink:href="#JosefinSans-Thin-99"/>
      <use x="167.09996" xlink:href="#JosefinSans-Thin-101"/>
      <use x="213.799957" xlink:href="#JosefinSans-Thin-115"/>
      <use x="248.199951" xlink:href="#JosefinSans-Thin-115"/>
      <use x="282.599945" xlink:href="#JosefinSans-Thin-101"/>
      <use x="329.299942" xlink:href="#JosefinSans-Thin-115"/>
      <use x="363.699936" xlink:href="#JosefinSans-Thin-32"/>
      <use x="393.799927" xlink:href="#JosefinSans-Thin-61"/>
      <use x="464.699921" xlink:href="#JosefinSans-Thin-32"/>
      <use x="494.799911" xlink:href="#JosefinSans-Thin-54"/>
     </g>
     <!-- tosses = 9 -->
     <g style="fill:#262626;" transform="translate(388.97425 59.328427)scale(0.14 -0.14)">
      <use xlink:href="#JosefinSans-Thin-116"/>
      <use x="30.399994" xlink:href="#JosefinSans-Thin-111"/>
      <use x="80.699982" xlink:href="#JosefinSans-Thin-115"/>
      <use x="115.099976" xlink:href="#JosefinSans-Thin-115"/>
      <use x="149.499969" xlink:href="#JosefinSans-Thin-101"/>
      <use x="196.199966" xlink:href="#JosefinSans-Thin-115"/>
      <use x="230.59996" xlink:href="#JosefinSans-Thin-32"/>
      <use x="260.699951" xlink:href="#JosefinSans-Thin-61"/>
      <use x="331.599945" xlink:href="#JosefinSans-Thin-32"/>
      <use x="361.699936" xlink:href="#JosefinSans-Thin-57"/>
     </g>
    </g>
   </g>
  </g>
  <g id="axes_3">
   <g id="patch_4">
    <path d="M 629.97373 250.368666 
L 859.274277 250.368666 
L 859.274277 21.03274 
L 629.97373 21.03274 
z
" style="fill:#ffffff;"/>
   </g>
   <g id="matplotlib.axis_5">
    <g id="xtick_11">
     <g id="line2d_55">
      <path clip-path="url(#p0797b78666)" d="M 640.396482 250.368666 
L 640.396482 21.03274 
" style="fill:none;stroke:#cccccc;stroke-dasharray:0.8,1.32;stroke-dashoffset:0;stroke-width:0.8;"/>
     </g>
     <g id="line2d_56"/>
     <g id="text_33">
      <!-- 0.00 -->
      <g style="fill:#262626;" transform="translate(626.137263 264.397104)scale(0.14 -0.14)">
       <use xlink:href="#JosefinSans-Thin-48"/>
       <use x="61.699997" xlink:href="#JosefinSans-Thin-46"/>
       <use x="80.299988" xlink:href="#JosefinSans-Thin-48"/>
       <use x="141.999985" xlink:href="#JosefinSans-Thin-48"/>
      </g>
     </g>
    </g>
    <g id="xtick_12">
     <g id="line2d_57">
      <path clip-path="url(#p0797b78666)" d="M 692.510242 250.368666 
L 692.510242 21.03274 
" style="fill:none;stroke:#cccccc;stroke-dasharray:0.8,1.32;stroke-dashoffset:0;stroke-width:0.8;"/>
     </g>
     <g id="line2d_58"/>
     <g id="text_34">
      <!-- 0.25 -->
      <g style="fill:#262626;" transform="translate(679.617117 264.397104)scale(0.14 -0.14)">
       <use xlink:href="#JosefinSans-Thin-48"/>
       <use x="61.699997" xlink:href="#JosefinSans-Thin-46"/>
       <use x="80.299988" xlink:href="#JosefinSans-Thin-50"/>
       <use x="129.899979" xlink:href="#JosefinSans-Thin-53"/>
      </g>
     </g>
    </g>
    <g id="xtick_13">
     <g id="line2d_59">
      <path clip-path="url(#p0797b78666)" d="M 744.624003 250.368666 
L 744.624003 21.03274 
" style="fill:none;stroke:#cccccc;stroke-dasharray:0.8,1.32;stroke-dashoffset:0;stroke-width:0.8;"/>
     </g>
     <g id="line2d_60"/>
     <g id="text_35">
      <!-- 0.50 -->
      <g style="fill:#262626;" transform="translate(730.883222 264.397104)scale(0.14 -0.14)">
       <use xlink:href="#JosefinSans-Thin-48"/>
       <use x="61.699997" xlink:href="#JosefinSans-Thin-46"/>
       <use x="80.299988" xlink:href="#JosefinSans-Thin-53"/>
       <use x="134.599976" xlink:href="#JosefinSans-Thin-48"/>
      </g>
     </g>
    </g>
    <g id="xtick_14">
     <g id="line2d_61">
      <path clip-path="url(#p0797b78666)" d="M 796.737764 250.368666 
L 796.737764 21.03274 
" style="fill:none;stroke:#cccccc;stroke-dasharray:0.8,1.32;stroke-dashoffset:0;stroke-width:0.8;"/>
     </g>
     <g id="line2d_62"/>
     <g id="text_36">
      <!-- 0.75 -->
      <g style="fill:#262626;" transform="translate(783.984639 264.397104)scale(0.14 -0.14)">
       <use xlink:href="#JosefinSans-Thin-48"/>
       <use x="61.699997" xlink:href="#JosefinSans-Thin-46"/>
       <use x="80.299988" xlink:href="#JosefinSans-Thin-55"/>
       <use x="127.899979" xlink:href="#JosefinSans-Thin-53"/>
      </g>
     </g>
    </g>
    <g id="xtick_15">
     <g id="line2d_63">
      <path clip-path="url(#p0797b78666)" d="M 848.851524 250.368666 
L 848.851524 21.03274 
" style="fill:none;stroke:#cccccc;stroke-dasharray:0.8,1.32;stroke-dashoffset:0;stroke-width:0.8;"/>
     </g>
     <g id="line2d_64"/>
     <g id="text_37">
      <!-- 1.00 -->
      <g style="fill:#262626;" transform="translate(836.755743 264.397104)scale(0.14 -0.14)">
       <use xlink:href="#JosefinSans-Thin-49"/>
       <use x="30.799988" xlink:href="#JosefinSans-Thin-46"/>
       <use x="49.399979" xlink:href="#JosefinSans-Thin-48"/>
       <use x="111.099976" xlink:href="#JosefinSans-Thin-48"/>
      </g>
     </g>
    </g>
    <g id="text_38">
     <!-- probability of water -->
     <g style="fill:#262626;" transform="translate(684.304081 282.285697)scale(0.15 -0.15)">
      <use xlink:href="#JosefinSans-Thin-112"/>
      <use x="54.299988" xlink:href="#JosefinSans-Thin-114"/>
      <use x="86.399979" xlink:href="#JosefinSans-Thin-111"/>
      <use x="136.699966" xlink:href="#JosefinSans-Thin-98"/>
      <use x="190.999954" xlink:href="#JosefinSans-Thin-97"/>
      <use x="245.199951" xlink:href="#JosefinSans-Thin-98"/>
      <use x="299.499939" xlink:href="#JosefinSans-Thin-105"/>
      <use x="320.299927" xlink:href="#JosefinSans-Thin-108"/>
      <use x="341.099915" xlink:href="#JosefinSans-Thin-105"/>
      <use x="361.899902" xlink:href="#JosefinSans-Thin-116"/>
      <use x="392.299896" xlink:href="#JosefinSans-Thin-121"/>
      <use x="435.399887" xlink:href="#JosefinSans-Thin-32"/>
      <use x="465.499878" xlink:href="#JosefinSans-Thin-111"/>
      <use x="515.799866" xlink:href="#JosefinSans-Thin-102"/>
      <use x="544.899857" xlink:href="#JosefinSans-Thin-32"/>
      <use x="574.999847" xlink:href="#JosefinSans-Thin-119"/>
      <use x="640.899841" xlink:href="#JosefinSans-Thin-97"/>
      <use x="695.099838" xlink:href="#JosefinSans-Thin-116"/>
      <use x="725.499832" xlink:href="#JosefinSans-Thin-101"/>
      <use x="772.199829" xlink:href="#JosefinSans-Thin-114"/>
     </g>
    </g>
   </g>
   <g id="matplotlib.axis_6">
    <g id="ytick_15">
     <g id="line2d_65">
      <path clip-path="url(#p0797b78666)" d="M 629.97373 239.944306 
L 859.274277 239.944306 
" style="fill:none;stroke:#cccccc;stroke-dasharray:0.8,1.32;stroke-dashoffset:0;stroke-width:0.8;"/>
     </g>
     <g id="line2d_66"/>
     <g id="text_39">
      <!-- 0.00 -->
      <g style="fill:#262626;" transform="translate(597.955292 245.208525)scale(0.14 -0.14)">
       <use xlink:href="#JosefinSans-Thin-48"/>
       <use x="61.699997" xlink:href="#JosefinSans-Thin-46"/>
       <use x="80.299988" xlink:href="#JosefinSans-Thin-48"/>
       <use x="141.999985" xlink:href="#JosefinSans-Thin-48"/>
      </g>
     </g>
    </g>
    <g id="ytick_16">
     <g id="line2d_67">
      <path clip-path="url(#p0797b78666)" d="M 629.97373 210.751548 
L 859.274277 210.751548 
" style="fill:none;stroke:#cccccc;stroke-dasharray:0.8,1.32;stroke-dashoffset:0;stroke-width:0.8;"/>
     </g>
     <g id="line2d_68"/>
     <g id="text_40">
      <!-- 0.02 -->
      <g style="fill:#262626;" transform="translate(599.650605 216.015767)scale(0.14 -0.14)">
       <use xlink:href="#JosefinSans-Thin-48"/>
       <use x="61.699997" xlink:href="#JosefinSans-Thin-46"/>
       <use x="80.299988" xlink:href="#JosefinSans-Thin-48"/>
       <use x="141.999985" xlink:href="#JosefinSans-Thin-50"/>
      </g>
     </g>
    </g>
    <g id="ytick_17">
     <g id="line2d_69">
      <path clip-path="url(#p0797b78666)" d="M 629.97373 181.55879 
L 859.274277 181.55879 
" style="fill:none;stroke:#cccccc;stroke-dasharray:0.8,1.32;stroke-dashoffset:0;stroke-width:0.8;"/>
     </g>
     <g id="line2d_70"/>
     <g id="text_41">
      <!-- 0.04 -->
      <g style="fill:#262626;" transform="translate(599.510605 186.823008)scale(0.14 -0.14)">
       <use xlink:href="#JosefinSans-Thin-48"/>
       <use x="61.699997" xlink:href="#JosefinSans-Thin-46"/>
       <use x="80.299988" xlink:href="#JosefinSans-Thin-48"/>
       <use x="141.999985" xlink:href="#JosefinSans-Thin-52"/>
      </g>
     </g>
    </g>
    <g id="ytick_18">
     <g id="line2d_71">
      <path clip-path="url(#p0797b78666)" d="M 629.97373 152.366032 
L 859.274277 152.366032 
" style="fill:none;stroke:#cccccc;stroke-dasharray:0.8,1.32;stroke-dashoffset:0;stroke-width:0.8;"/>
     </g>
     <g id="line2d_72"/>
     <g id="text_42">
      <!-- 0.06 -->
      <g style="fill:#262626;" transform="translate(599.31373 157.63025)scale(0.14 -0.14)">
       <use xlink:href="#JosefinSans-Thin-48"/>
       <use x="61.699997" xlink:href="#JosefinSans-Thin-46"/>
       <use x="80.299988" xlink:href="#JosefinSans-Thin-48"/>
       <use x="141.999985" xlink:href="#JosefinSans-Thin-54"/>
      </g>
     </g>
    </g>
    <g id="ytick_19">
     <g id="line2d_73">
      <path clip-path="url(#p0797b78666)" d="M 629.97373 123.173273 
L 859.274277 123.173273 
" style="fill:none;stroke:#cccccc;stroke-dasharray:0.8,1.32;stroke-dashoffset:0;stroke-width:0.8;"/>
     </g>
     <g id="line2d_74"/>
     <g id="text_43">
      <!-- 0.08 -->
      <defs>
       <path d="M 4.90625 19.59375 
Q 4.90625 26.5 9.09375 31.84375 
Q 13.296875 37.203125 19.796875 39 
Q 15.59375 40.40625 13 43.75 
Q 10.40625 47.09375 10.40625 51.203125 
Q 10.40625 57.59375 14.40625 61.75 
Q 18.40625 65.90625 25 65.90625 
Q 31.59375 65.90625 35.59375 61.703125 
Q 39.59375 57.5 39.59375 51.09375 
Q 39.59375 47 37.09375 43.703125 
Q 34.59375 40.40625 30.59375 39 
Q 37.296875 37.296875 41.640625 31.9375 
Q 46 26.59375 46 19.59375 
Q 46 14.09375 43.203125 9.390625 
Q 40.40625 4.703125 35.65625 1.953125 
Q 30.90625 -0.796875 25.296875 -0.796875 
Q 19.703125 -0.796875 15.046875 1.953125 
Q 10.40625 4.703125 7.65625 9.390625 
Q 4.90625 14.09375 4.90625 19.59375 
z
M 12.296875 51.09375 
Q 12.296875 46.203125 16.046875 42.953125 
Q 19.796875 39.703125 25.203125 39.703125 
Q 30.5 39.703125 34.046875 42.953125 
Q 37.59375 46.203125 37.59375 51.09375 
Q 37.59375 56.90625 34.09375 60.5 
Q 30.59375 64.09375 25.203125 64.09375 
Q 19.703125 64.09375 16 60.5 
Q 12.296875 56.90625 12.296875 51.09375 
z
M 6.796875 19.59375 
Q 6.796875 14.703125 9.25 10.390625 
Q 11.703125 6.09375 15.890625 3.546875 
Q 20.09375 1 25.09375 1 
Q 30.203125 1 34.546875 3.546875 
Q 38.90625 6.09375 41.453125 10.390625 
Q 44 14.703125 44 19.59375 
Q 44 24.59375 41.453125 28.796875 
Q 38.90625 33 34.546875 35.5 
Q 30.203125 38 25.09375 38 
Q 20.09375 38 15.890625 35.5 
Q 11.703125 33 9.25 28.796875 
Q 6.796875 24.59375 6.796875 19.59375 
z
" id="JosefinSans-Thin-56"/>
      </defs>
      <g style="fill:#262626;" transform="translate(599.482167 128.437492)scale(0.14 -0.14)">
       <use xlink:href="#JosefinSans-Thin-48"/>
       <use x="61.699997" xlink:href="#JosefinSans-Thin-46"/>
       <use x="80.299988" xlink:href="#JosefinSans-Thin-48"/>
       <use x="141.999985" xlink:href="#JosefinSans-Thin-56"/>
      </g>
     </g>
    </g>
    <g id="ytick_20">
     <g id="line2d_75">
      <path clip-path="url(#p0797b78666)" d="M 629.97373 93.980515 
L 859.274277 93.980515 
" style="fill:none;stroke:#cccccc;stroke-dasharray:0.8,1.32;stroke-dashoffset:0;stroke-width:0.8;"/>
     </g>
     <g id="line2d_76"/>
     <g id="text_44">
      <!-- 0.10 -->
      <g style="fill:#262626;" transform="translate(602.282167 99.244734)scale(0.14 -0.14)">
       <use xlink:href="#JosefinSans-Thin-48"/>
       <use x="61.699997" xlink:href="#JosefinSans-Thin-46"/>
       <use x="80.299988" xlink:href="#JosefinSans-Thin-49"/>
       <use x="111.099976" xlink:href="#JosefinSans-Thin-48"/>
      </g>
     </g>
    </g>
    <g id="ytick_21">
     <g id="line2d_77">
      <path clip-path="url(#p0797b78666)" d="M 629.97373 64.787757 
L 859.274277 64.787757 
" style="fill:none;stroke:#cccccc;stroke-dasharray:0.8,1.32;stroke-dashoffset:0;stroke-width:0.8;"/>
     </g>
     <g id="line2d_78"/>
     <g id="text_45">
      <!-- 0.12 -->
      <g style="fill:#262626;" transform="translate(603.97748 70.051976)scale(0.14 -0.14)">
       <use xlink:href="#JosefinSans-Thin-48"/>
       <use x="61.699997" xlink:href="#JosefinSans-Thin-46"/>
       <use x="80.299988" xlink:href="#JosefinSans-Thin-49"/>
       <use x="111.099976" xlink:href="#JosefinSans-Thin-50"/>
      </g>
     </g>
    </g>
    <g id="ytick_22">
     <g id="line2d_79">
      <path clip-path="url(#p0797b78666)" d="M 629.97373 35.594999 
L 859.274277 35.594999 
" style="fill:none;stroke:#cccccc;stroke-dasharray:0.8,1.32;stroke-dashoffset:0;stroke-width:0.8;"/>
     </g>
     <g id="line2d_80"/>
     <g id="text_46">
      <!-- 0.14 -->
      <g style="fill:#262626;" transform="translate(603.83748 40.859218)scale(0.14 -0.14)">
       <use xlink:href="#JosefinSans-Thin-48"/>
       <use x="61.699997" xlink:href="#JosefinSans-Thin-46"/>
       <use x="80.299988" xlink:href="#JosefinSans-Thin-49"/>
       <use x="111.099976" xlink:href="#JosefinSans-Thin-52"/>
      </g>
     </g>
    </g>
    <g id="text_47">
     <!-- posterior probability -->
     <g style="fill:#262626;" transform="translate(591.24123 196.965156)rotate(-90)scale(0.15 -0.15)">
      <use xlink:href="#JosefinSans-Thin-112"/>
      <use x="54.299988" xlink:href="#JosefinSans-Thin-111"/>
      <use x="104.599976" xlink:href="#JosefinSans-Thin-115"/>
      <use x="138.999969" xlink:href="#JosefinSans-Thin-116"/>
      <use x="169.399963" xlink:href="#JosefinSans-Thin-101"/>
      <use x="216.09996" xlink:href="#JosefinSans-Thin-114"/>
      <use x="248.199951" xlink:href="#JosefinSans-Thin-105"/>
      <use x="268.999939" xlink:href="#JosefinSans-Thin-111"/>
      <use x="319.299927" xlink:href="#JosefinSans-Thin-114"/>
      <use x="351.399918" xlink:href="#JosefinSans-Thin-32"/>
      <use x="381.499908" xlink:href="#JosefinSans-Thin-112"/>
      <use x="435.799896" xlink:href="#JosefinSans-Thin-114"/>
      <use x="467.899887" xlink:href="#JosefinSans-Thin-111"/>
      <use x="518.199875" xlink:href="#JosefinSans-Thin-98"/>
      <use x="572.499863" xlink:href="#JosefinSans-Thin-97"/>
      <use x="626.69986" xlink:href="#JosefinSans-Thin-98"/>
      <use x="680.999847" xlink:href="#JosefinSans-Thin-105"/>
      <use x="701.799835" xlink:href="#JosefinSans-Thin-108"/>
      <use x="722.599823" xlink:href="#JosefinSans-Thin-105"/>
      <use x="743.399811" xlink:href="#JosefinSans-Thin-116"/>
      <use x="773.799805" xlink:href="#JosefinSans-Thin-121"/>
     </g>
    </g>
   </g>
   <g id="line2d_81">
    <path clip-path="url(#p0797b78666)" d="M 640.396482 239.944306 
L 651.3678 239.94314 
L 662.339118 239.881429 
L 673.310436 239.347198 
L 684.281754 237.179916 
L 695.253072 231.370578 
L 706.22439 219.446702 
L 717.195708 199.290845 
L 728.167026 170.171929 
L 739.138344 133.671879 
L 750.109662 94.165942 
L 761.08098 58.56338 
L 772.052298 35.136201 
L 783.023616 31.4571 
L 793.994934 51.73384 
L 804.966252 94.165942 
L 815.93757 149.360784 
L 826.908888 201.329927 
L 837.880206 233.142871 
L 848.851524 239.944306 
" style="fill:none;stroke:#81aca4;stroke-linecap:round;stroke-width:1.5;"/>
    <g clip-path="url(#p0797b78666)">
     <use style="fill:#81aca4;stroke:#81aca4;" x="640.396482" xlink:href="#mc7f3c50b05" y="239.944306"/>
     <use style="fill:#81aca4;stroke:#81aca4;" x="651.3678" xlink:href="#mc7f3c50b05" y="239.94314"/>
     <use style="fill:#81aca4;stroke:#81aca4;" x="662.339118" xlink:href="#mc7f3c50b05" y="239.881429"/>
     <use style="fill:#81aca4;stroke:#81aca4;" x="673.310436" xlink:href="#mc7f3c50b05" y="239.347198"/>
     <use style="fill:#81aca4;stroke:#81aca4;" x="684.281754" xlink:href="#mc7f3c50b05" y="237.179916"/>
     <use style="fill:#81aca4;stroke:#81aca4;" x="695.253072" xlink:href="#mc7f3c50b05" y="231.370578"/>
     <use style="fill:#81aca4;stroke:#81aca4;" x="706.22439" xlink:href="#mc7f3c50b05" y="219.446702"/>
     <use style="fill:#81aca4;stroke:#81aca4;" x="717.195708" xlink:href="#mc7f3c50b05" y="199.290845"/>
     <use style="fill:#81aca4;stroke:#81aca4;" x="728.167026" xlink:href="#mc7f3c50b05" y="170.171929"/>
     <use style="fill:#81aca4;stroke:#81aca4;" x="739.138344" xlink:href="#mc7f3c50b05" y="133.671879"/>
     <use style="fill:#81aca4;stroke:#81aca4;" x="750.109662" xlink:href="#mc7f3c50b05" y="94.165942"/>
     <use style="fill:#81aca4;stroke:#81aca4;" x="761.08098" xlink:href="#mc7f3c50b05" y="58.56338"/>
     <use style="fill:#81aca4;stroke:#81aca4;" x="772.052298" xlink:href="#mc7f3c50b05" y="35.136201"/>
     <use style="fill:#81aca4;stroke:#81aca4;" x="783.023616" xlink:href="#mc7f3c50b05" y="31.4571"/>
     <use style="fill:#81aca4;stroke:#81aca4;" x="793.994934" xlink:href="#mc7f3c50b05" y="51.73384"/>
     <use style="fill:#81aca4;stroke:#81aca4;" x="804.966252" xlink:href="#mc7f3c50b05" y="94.165942"/>
     <use style="fill:#81aca4;stroke:#81aca4;" x="815.93757" xlink:href="#mc7f3c50b05" y="149.360784"/>
     <use style="fill:#81aca4;stroke:#81aca4;" x="826.908888" xlink:href="#mc7f3c50b05" y="201.329927"/>
     <use style="fill:#81aca4;stroke:#81aca4;" x="837.880206" xlink:href="#mc7f3c50b05" y="233.142871"/>
     <use style="fill:#81aca4;stroke:#81aca4;" x="848.851524" xlink:href="#mc7f3c50b05" y="239.944306"/>
    </g>
   </g>
   <g id="text_48">
    <!-- 20 points -->
    <g style="fill:#262626;" transform="translate(714.200253 15.03274)scale(0.16 -0.16)">
     <use xlink:href="#JosefinSans-Thin-50"/>
     <use x="49.599991" xlink:href="#JosefinSans-Thin-48"/>
     <use x="111.299988" xlink:href="#JosefinSans-Thin-32"/>
     <use x="141.399979" xlink:href="#JosefinSans-Thin-112"/>
     <use x="195.699966" xlink:href="#JosefinSans-Thin-111"/>
     <use x="245.999954" xlink:href="#JosefinSans-Thin-105"/>
     <use x="266.799942" xlink:href="#JosefinSans-Thin-110"/>
     <use x="315.499939" xlink:href="#JosefinSans-Thin-116"/>
     <use x="345.899933" xlink:href="#JosefinSans-Thin-115"/>
    </g>
   </g>
   <g id="legend_3">
    <g id="line2d_82">
     <path d="M 642.57373 48.111365 
L 670.57373 48.111365 
" style="fill:none;stroke:#81aca4;stroke-linecap:round;stroke-width:1.5;"/>
    </g>
    <g id="line2d_83">
     <g>
      <use style="fill:#81aca4;stroke:#81aca4;" x="656.57373" xlink:href="#mc7f3c50b05" y="48.111365"/>
     </g>
    </g>
    <g id="text_49">
     <!-- successes = 6 -->
     <g style="fill:#262626;" transform="translate(681.77373 44.161177)scale(0.14 -0.14)">
      <use xlink:href="#JosefinSans-Thin-115"/>
      <use x="34.399994" xlink:href="#JosefinSans-Thin-117"/>
      <use x="83.099991" xlink:href="#JosefinSans-Thin-99"/>
      <use x="125.099976" xlink:href="#JosefinSans-Thin-99"/>
      <use x="167.09996" xlink:href="#JosefinSans-Thin-101"/>
      <use x="213.799957" xlink:href="#JosefinSans-Thin-115"/>
      <use x="248.199951" xlink:href="#JosefinSans-Thin-115"/>
      <use x="282.599945" xlink:href="#JosefinSans-Thin-101"/>
      <use x="329.299942" xlink:href="#JosefinSans-Thin-115"/>
      <use x="363.699936" xlink:href="#JosefinSans-Thin-32"/>
      <use x="393.799927" xlink:href="#JosefinSans-Thin-61"/>
      <use x="464.699921" xlink:href="#JosefinSans-Thin-32"/>
      <use x="494.799911" xlink:href="#JosefinSans-Thin-54"/>
     </g>
     <!-- tosses = 9 -->
     <g style="fill:#262626;" transform="translate(681.77373 59.328427)scale(0.14 -0.14)">
      <use xlink:href="#JosefinSans-Thin-116"/>
      <use x="30.399994" xlink:href="#JosefinSans-Thin-111"/>
      <use x="80.699982" xlink:href="#JosefinSans-Thin-115"/>
      <use x="115.099976" xlink:href="#JosefinSans-Thin-115"/>
      <use x="149.499969" xlink:href="#JosefinSans-Thin-101"/>
      <use x="196.199966" xlink:href="#JosefinSans-Thin-115"/>
      <use x="230.59996" xlink:href="#JosefinSans-Thin-32"/>
      <use x="260.699951" xlink:href="#JosefinSans-Thin-61"/>
      <use x="331.599945" xlink:href="#JosefinSans-Thin-32"/>
      <use x="361.699936" xlink:href="#JosefinSans-Thin-57"/>
     </g>
    </g>
   </g>
  </g>
 </g>
 <defs>
  <clipPath id="pe01c9f3a87">
   <rect height="229.335926" width="229.300547" x="44.374771" y="21.03274"/>
  </clipPath>
  <clipPath id="p03e1056b0d">
   <rect height="229.335926" width="229.300547" x="337.17425" y="21.03274"/>
  </clipPath>
  <clipPath id="p0797b78666">
   <rect height="229.335926" width="229.300547" x="629.97373" y="21.03274"/>
  </clipPath>
 </defs>
</svg>
