<?xml version="1.0" encoding="utf-8" standalone="no"?>
<!DOCTYPE svg PUBLIC "-//W3C//DTD SVG 1.1//EN"
  "http://www.w3.org/Graphics/SVG/1.1/DTD/svg11.dtd">
<svg xmlns:xlink="http://www.w3.org/1999/xlink" width="864pt" height="288pt" viewBox="0 0 864 288" xmlns="http://www.w3.org/2000/svg" version="1.1">
 <metadata>
  <rdf:RDF xmlns:dc="http://purl.org/dc/elements/1.1/" xmlns:cc="http://creativecommons.org/ns#" xmlns:rdf="http://www.w3.org/1999/02/22-rdf-syntax-ns#">
   <cc:Work>
    <dc:type rdf:resource="http://purl.org/dc/dcmitype/StillImage"/>
    <dc:date>2022-01-05T00:27:03.332484</dc:date>
    <dc:format>image/svg+xml</dc:format>
    <dc:creator>
     <cc:Agent>
      <dc:title>Matplotlib v3.5.1, https://matplotlib.org/</dc:title>
     </cc:Agent>
    </dc:creator>
   </cc:Work>
  </rdf:RDF>
 </metadata>
 <defs>
  <style type="text/css">*{stroke-linejoin: round; stroke-linecap: butt}</style>
 </defs>
 <g id="figure_1">
  <g id="patch_1">
   <path d="M 0 288 
L 864 288 
L 864 0 
L 0 0 
z
" style="fill: #ffffff"/>
  </g>
  <g id="axes_1">
   <g id="patch_2">
    <path d="M 26.340865 267.862885 
L 860.99976 267.862885 
L 860.99976 3.00024 
L 26.340865 3.00024 
z
" style="fill: #ffffff"/>
   </g>
   <g id="matplotlib.axis_1">
    <g id="xtick_1">
     <g id="line2d_1">
      <path d="M 64.279906 267.862885 
L 64.279906 3.00024 
" clip-path="url(#pee87baa0ff)" style="fill: none; stroke-dasharray: 0.8,1.32; stroke-dashoffset: 0; stroke: #cccccc; stroke-width: 0.8"/>
     </g>
     <g id="line2d_2"/>
     <g id="text_1">
      <!-- 0.0 -->
      <g style="fill: #262626" transform="translate(54.359593 282.212885)scale(0.14 -0.14)">
       <defs>
        <path id="JosefinSans-Regular-30" d="M 1997 -19 
Q 1478 -19 1078 240 
Q 678 499 454 985 
Q 230 1472 230 2125 
Q 230 3168 700 3715 
Q 1171 4262 1997 4256 
Q 2515 4256 2915 4000 
Q 3315 3744 3539 3257 
Q 3763 2771 3763 2125 
Q 3763 1459 3539 972 
Q 3315 486 2915 230 
Q 2515 -26 1997 -19 
z
M 1990 576 
Q 2534 576 2825 998 
Q 3117 1421 3123 2138 
Q 3117 2835 2825 3248 
Q 2534 3661 1990 3661 
Q 1453 3661 1165 3245 
Q 877 2829 870 2125 
Q 877 1414 1165 995 
Q 1453 576 1990 576 
z
" transform="scale(0.015625)"/>
        <path id="JosefinSans-Regular-2e" d="M 218 339 
Q 218 480 320 582 
Q 422 685 557 685 
Q 678 685 784 582 
Q 890 480 890 339 
Q 890 192 787 96 
Q 685 0 557 0 
Q 422 0 320 96 
Q 218 192 218 339 
z
" transform="scale(0.015625)"/>
       </defs>
       <use xlink:href="#JosefinSans-Regular-30"/>
       <use xlink:href="#JosefinSans-Regular-2e" x="62.399994"/>
       <use xlink:href="#JosefinSans-Regular-30" x="79.299988"/>
      </g>
     </g>
    </g>
    <g id="xtick_2">
     <g id="line2d_3">
      <path d="M 216.036068 267.862885 
L 216.036068 3.00024 
" clip-path="url(#pee87baa0ff)" style="fill: none; stroke-dasharray: 0.8,1.32; stroke-dashoffset: 0; stroke: #cccccc; stroke-width: 0.8"/>
     </g>
     <g id="line2d_4"/>
     <g id="text_2">
      <!-- 0.2 -->
      <g style="fill: #262626" transform="translate(206.669193 282.212885)scale(0.14 -0.14)">
       <defs>
        <path id="JosefinSans-Regular-32" d="M 3213 602 
L 3213 0 
L 346 0 
L 557 211 
Q 1210 864 1574 1267 
Q 1939 1670 2185 2083 
Q 2432 2496 2432 2867 
Q 2432 3258 2201 3462 
Q 1971 3667 1638 3667 
Q 1376 3667 1200 3558 
Q 1024 3450 944 3283 
Q 864 3117 864 2950 
Q 864 2541 1114 2278 
L 736 1933 
Q 525 2061 393 2365 
Q 262 2669 262 2938 
Q 262 3290 438 3594 
Q 614 3898 947 4080 
Q 1280 4262 1741 4262 
Q 2131 4262 2435 4080 
Q 2739 3898 2905 3590 
Q 3072 3283 3072 2918 
Q 3072 2554 2899 2189 
Q 2726 1824 2473 1504 
Q 2221 1184 1798 710 
L 1702 602 
L 3213 602 
z
" transform="scale(0.015625)"/>
       </defs>
       <use xlink:href="#JosefinSans-Regular-30"/>
       <use xlink:href="#JosefinSans-Regular-2e" x="62.399994"/>
       <use xlink:href="#JosefinSans-Regular-32" x="79.299988"/>
      </g>
     </g>
    </g>
    <g id="xtick_3">
     <g id="line2d_5">
      <path d="M 367.792231 267.862885 
L 367.792231 3.00024 
" clip-path="url(#pee87baa0ff)" style="fill: none; stroke-dasharray: 0.8,1.32; stroke-dashoffset: 0; stroke: #cccccc; stroke-width: 0.8"/>
     </g>
     <g id="line2d_6"/>
     <g id="text_3">
      <!-- 0.4 -->
      <g style="fill: #262626" transform="translate(358.488794 282.212885)scale(0.14 -0.14)">
       <defs>
        <path id="JosefinSans-Regular-34" d="M 3206 1498 
L 3206 1018 
L 2656 1018 
L 2656 0 
L 2035 0 
L 2035 1018 
L 83 1018 
L 83 1024 
L 2650 4262 
L 2656 4262 
L 2656 1498 
L 3206 1498 
z
M 2035 1498 
L 2035 2810 
L 1018 1498 
L 2035 1498 
z
" transform="scale(0.015625)"/>
       </defs>
       <use xlink:href="#JosefinSans-Regular-30"/>
       <use xlink:href="#JosefinSans-Regular-2e" x="62.399994"/>
       <use xlink:href="#JosefinSans-Regular-34" x="79.299988"/>
      </g>
     </g>
    </g>
    <g id="xtick_4">
     <g id="line2d_7">
      <path d="M 519.548394 267.862885 
L 519.548394 3.00024 
" clip-path="url(#pee87baa0ff)" style="fill: none; stroke-dasharray: 0.8,1.32; stroke-dashoffset: 0; stroke: #cccccc; stroke-width: 0.8"/>
     </g>
     <g id="line2d_8"/>
     <g id="text_4">
      <!-- 0.6 -->
      <g style="fill: #262626" transform="translate(510.181519 282.212885)scale(0.14 -0.14)">
       <defs>
        <path id="JosefinSans-Regular-36" d="M 1958 2701 
Q 2285 2701 2576 2525 
Q 2867 2349 3046 2041 
Q 3226 1734 3226 1357 
Q 3226 941 3021 621 
Q 2816 301 2477 125 
Q 2138 -51 1754 -51 
Q 1325 -51 982 153 
Q 640 358 441 736 
Q 243 1114 243 1619 
Q 243 2381 784 3040 
Q 1325 3699 2182 4250 
L 2598 3795 
Q 2029 3514 1645 3139 
Q 1261 2765 1082 2368 
Q 1414 2701 1958 2701 
z
M 1728 506 
Q 2093 506 2339 742 
Q 2586 979 2586 1357 
Q 2586 1722 2339 1949 
Q 2093 2176 1728 2176 
Q 1498 2176 1302 2077 
Q 1107 1978 992 1808 
Q 877 1638 877 1440 
L 877 1325 
Q 877 1107 992 918 
Q 1107 730 1302 618 
Q 1498 506 1728 506 
z
" transform="scale(0.015625)"/>
       </defs>
       <use xlink:href="#JosefinSans-Regular-30"/>
       <use xlink:href="#JosefinSans-Regular-2e" x="62.399994"/>
       <use xlink:href="#JosefinSans-Regular-36" x="79.299988"/>
      </g>
     </g>
    </g>
    <g id="xtick_5">
     <g id="line2d_9">
      <path d="M 671.304557 267.862885 
L 671.304557 3.00024 
" clip-path="url(#pee87baa0ff)" style="fill: none; stroke-dasharray: 0.8,1.32; stroke-dashoffset: 0; stroke: #cccccc; stroke-width: 0.8"/>
     </g>
     <g id="line2d_10"/>
     <g id="text_5">
      <!-- 0.8 -->
      <g style="fill: #262626" transform="translate(662.0919 282.212885)scale(0.14 -0.14)">
       <defs>
        <path id="JosefinSans-Regular-38" d="M 179 1331 
Q 179 1773 422 2083 
Q 666 2394 1005 2534 
Q 794 2669 678 2851 
Q 563 3034 563 3296 
Q 563 3571 707 3792 
Q 851 4013 1104 4137 
Q 1357 4262 1670 4262 
Q 1978 4262 2234 4137 
Q 2490 4013 2637 3798 
Q 2784 3584 2784 3322 
Q 2784 3046 2669 2864 
Q 2554 2682 2336 2534 
Q 2682 2387 2925 2076 
Q 3168 1766 3168 1331 
Q 3168 966 2969 649 
Q 2771 333 2425 141 
Q 2080 -51 1664 -51 
Q 1248 -51 909 137 
Q 570 326 374 646 
Q 179 966 179 1331 
z
M 1165 3226 
Q 1165 3027 1321 2886 
Q 1478 2746 1683 2746 
Q 1888 2746 2038 2886 
Q 2189 3027 2189 3226 
Q 2189 3450 2041 3597 
Q 1894 3744 1683 3744 
Q 1472 3744 1318 3597 
Q 1165 3450 1165 3226 
z
M 813 1357 
Q 813 1120 928 918 
Q 1043 717 1238 595 
Q 1434 474 1664 474 
Q 1901 474 2102 595 
Q 2304 717 2425 918 
Q 2547 1120 2547 1357 
Q 2547 1594 2432 1792 
Q 2317 1990 2115 2108 
Q 1914 2227 1677 2227 
Q 1446 2227 1248 2112 
Q 1050 1997 931 1795 
Q 813 1594 813 1357 
z
" transform="scale(0.015625)"/>
       </defs>
       <use xlink:href="#JosefinSans-Regular-30"/>
       <use xlink:href="#JosefinSans-Regular-2e" x="62.399994"/>
       <use xlink:href="#JosefinSans-Regular-38" x="79.299988"/>
      </g>
     </g>
    </g>
    <g id="xtick_6">
     <g id="line2d_11">
      <path d="M 823.060719 267.862885 
L 823.060719 3.00024 
" clip-path="url(#pee87baa0ff)" style="fill: none; stroke-dasharray: 0.8,1.32; stroke-dashoffset: 0; stroke: #cccccc; stroke-width: 0.8"/>
     </g>
     <g id="line2d_12"/>
     <g id="text_6">
      <!-- 1.0 -->
      <g style="fill: #262626" transform="translate(815.198844 282.212885)scale(0.14 -0.14)">
       <defs>
        <path id="JosefinSans-Regular-31" d="M 1446 4211 
L 1446 0 
L 819 0 
L 819 3616 
L 339 3616 
L 339 4211 
L 1446 4211 
z
" transform="scale(0.015625)"/>
       </defs>
       <use xlink:href="#JosefinSans-Regular-31"/>
       <use xlink:href="#JosefinSans-Regular-2e" x="32.999985"/>
       <use xlink:href="#JosefinSans-Regular-30" x="49.899979"/>
      </g>
     </g>
    </g>
   </g>
   <g id="matplotlib.axis_2">
    <g id="ytick_1">
     <g id="line2d_13">
      <path d="M 26.340865 255.823674 
L 860.99976 255.823674 
" clip-path="url(#pee87baa0ff)" style="fill: none; stroke-dasharray: 0.8,1.32; stroke-dashoffset: 0; stroke: #cccccc; stroke-width: 0.8"/>
     </g>
     <g id="line2d_14"/>
     <g id="text_7">
      <!-- 0.0 -->
      <g style="fill: #262626" transform="translate(3.00024 261.248674)scale(0.14 -0.14)">
       <use xlink:href="#JosefinSans-Regular-30"/>
       <use xlink:href="#JosefinSans-Regular-2e" x="62.399994"/>
       <use xlink:href="#JosefinSans-Regular-30" x="79.299988"/>
      </g>
     </g>
    </g>
    <g id="ytick_2">
     <g id="line2d_15">
      <path d="M 26.340865 212.607899 
L 860.99976 212.607899 
" clip-path="url(#pee87baa0ff)" style="fill: none; stroke-dasharray: 0.8,1.32; stroke-dashoffset: 0; stroke: #cccccc; stroke-width: 0.8"/>
     </g>
     <g id="line2d_16"/>
     <g id="text_8">
      <!-- 0.5 -->
      <g style="fill: #262626" transform="translate(4.415553 218.032899)scale(0.14 -0.14)">
       <defs>
        <path id="JosefinSans-Regular-35" d="M 1645 2752 
Q 2061 2752 2358 2566 
Q 2656 2381 2809 2070 
Q 2963 1760 2963 1376 
Q 2963 979 2780 652 
Q 2598 326 2281 137 
Q 1965 -51 1568 -51 
Q 1242 -51 928 70 
Q 614 192 416 384 
L 749 870 
Q 877 723 1088 633 
Q 1299 544 1517 544 
Q 1869 544 2096 771 
Q 2323 998 2323 1357 
Q 2323 1747 2108 1987 
Q 1894 2227 1498 2227 
Q 1286 2227 1091 2166 
Q 896 2106 685 1984 
L 678 1984 
L 678 4211 
L 2694 4211 
L 2694 3616 
L 1216 3616 
L 1216 2701 
Q 1421 2752 1645 2752 
z
" transform="scale(0.015625)"/>
       </defs>
       <use xlink:href="#JosefinSans-Regular-30"/>
       <use xlink:href="#JosefinSans-Regular-2e" x="62.399994"/>
       <use xlink:href="#JosefinSans-Regular-35" x="79.299988"/>
      </g>
     </g>
    </g>
    <g id="ytick_3">
     <g id="line2d_17">
      <path d="M 26.340865 169.392124 
L 860.99976 169.392124 
" clip-path="url(#pee87baa0ff)" style="fill: none; stroke-dasharray: 0.8,1.32; stroke-dashoffset: 0; stroke: #cccccc; stroke-width: 0.8"/>
     </g>
     <g id="line2d_18"/>
     <g id="text_9">
      <!-- 1.0 -->
      <g style="fill: #262626" transform="translate(7.117115 174.817124)scale(0.14 -0.14)">
       <use xlink:href="#JosefinSans-Regular-31"/>
       <use xlink:href="#JosefinSans-Regular-2e" x="32.999985"/>
       <use xlink:href="#JosefinSans-Regular-30" x="49.899979"/>
      </g>
     </g>
    </g>
    <g id="ytick_4">
     <g id="line2d_19">
      <path d="M 26.340865 126.176348 
L 860.99976 126.176348 
" clip-path="url(#pee87baa0ff)" style="fill: none; stroke-dasharray: 0.8,1.32; stroke-dashoffset: 0; stroke: #cccccc; stroke-width: 0.8"/>
     </g>
     <g id="line2d_20"/>
     <g id="text_10">
      <!-- 1.5 -->
      <g style="fill: #262626" transform="translate(8.532427 131.601348)scale(0.14 -0.14)">
       <use xlink:href="#JosefinSans-Regular-31"/>
       <use xlink:href="#JosefinSans-Regular-2e" x="32.999985"/>
       <use xlink:href="#JosefinSans-Regular-35" x="49.899979"/>
      </g>
     </g>
    </g>
    <g id="ytick_5">
     <g id="line2d_21">
      <path d="M 26.340865 82.960573 
L 860.99976 82.960573 
" clip-path="url(#pee87baa0ff)" style="fill: none; stroke-dasharray: 0.8,1.32; stroke-dashoffset: 0; stroke: #cccccc; stroke-width: 0.8"/>
     </g>
     <g id="line2d_22"/>
     <g id="text_11">
      <!-- 2.0 -->
      <g style="fill: #262626" transform="translate(4.107115 88.385573)scale(0.14 -0.14)">
       <use xlink:href="#JosefinSans-Regular-32"/>
       <use xlink:href="#JosefinSans-Regular-2e" x="54.499985"/>
       <use xlink:href="#JosefinSans-Regular-30" x="71.399979"/>
      </g>
     </g>
    </g>
    <g id="ytick_6">
     <g id="line2d_23">
      <path d="M 26.340865 39.744798 
L 860.99976 39.744798 
" clip-path="url(#pee87baa0ff)" style="fill: none; stroke-dasharray: 0.8,1.32; stroke-dashoffset: 0; stroke: #cccccc; stroke-width: 0.8"/>
     </g>
     <g id="line2d_24"/>
     <g id="text_12">
      <!-- 2.5 -->
      <g style="fill: #262626" transform="translate(5.522427 45.169798)scale(0.14 -0.14)">
       <use xlink:href="#JosefinSans-Regular-32"/>
       <use xlink:href="#JosefinSans-Regular-2e" x="54.499985"/>
       <use xlink:href="#JosefinSans-Regular-35" x="71.399979"/>
      </g>
     </g>
    </g>
   </g>
   <g id="PolyCollection_1">
    <defs>
     <path id="m8ff8c56884" d="M 257.755002 -32.176326 
L 257.755002 -39.254821 
L 258.769683 -39.258823 
L 259.784364 -39.266842 
L 260.799045 -39.278905 
L 261.813726 -39.31267 
L 262.828407 -39.335427 
L 263.843088 -39.36269 
L 264.857769 -39.412174 
L 265.87245 -39.451227 
L 266.887131 -39.4877 
L 267.901812 -39.538132 
L 268.916493 -39.586162 
L 269.931174 -39.657145 
L 270.945855 -39.726048 
L 271.960536 -39.793031 
L 272.975217 -39.866921 
L 273.989898 -39.955439 
L 275.004579 -40.042193 
L 276.01926 -40.152483 
L 277.033941 -40.261198 
L 278.048622 -40.376107 
L 279.063303 -40.514847 
L 280.077984 -40.653447 
L 281.092665 -40.790917 
L 282.107346 -40.936011 
L 283.122027 -41.097454 
L 284.136708 -41.27747 
L 285.151389 -41.459706 
L 286.16607 -41.65853 
L 287.180751 -41.8752 
L 288.195432 -42.075875 
L 289.210113 -42.292386 
L 290.224794 -42.508219 
L 291.239475 -42.730943 
L 292.254156 -43.013245 
L 293.268837 -43.265472 
L 294.283518 -43.509692 
L 295.298199 -43.778722 
L 296.31288 -44.047292 
L 297.327561 -44.323045 
L 298.342242 -44.605921 
L 299.356923 -44.888156 
L 300.371604 -45.186101 
L 301.386285 -45.490928 
L 302.400966 -45.80263 
L 303.415647 -46.121214 
L 304.430328 -46.455506 
L 305.445009 -46.789159 
L 306.45969 -47.165173 
L 307.474371 -47.518097 
L 308.489052 -47.878911 
L 309.503733 -48.247766 
L 310.518414 -48.633628 
L 311.533095 -49.020278 
L 312.547776 -49.415605 
L 313.562457 -49.828588 
L 314.577138 -50.269435 
L 315.591819 -50.696874 
L 316.6065 -51.13422 
L 317.621181 -51.581631 
L 318.635862 -52.039231 
L 319.650543 -52.515916 
L 320.665224 -53.004149 
L 321.679905 -53.49526 
L 322.694586 -54.014527 
L 323.709267 -54.529071 
L 324.723948 -55.062962 
L 325.738629 -55.643619 
L 326.75331 -56.196541 
L 327.767991 -56.759954 
L 328.782672 -57.333444 
L 329.797353 -57.916507 
L 330.812034 -58.508543 
L 331.826715 -59.093432 
L 332.841396 -59.722979 
L 333.856077 -60.37239 
L 334.870758 -61.022479 
L 335.885439 -61.680296 
L 336.90012 -62.353928 
L 337.914801 -63.017413 
L 338.929482 -63.67642 
L 339.944163 -64.33753 
L 340.958844 -64.999554 
L 341.973525 -65.661254 
L 342.988206 -66.321354 
L 344.002887 -67.004969 
L 345.017568 -67.679243 
L 346.032249 -68.368478 
L 347.04693 -69.021303 
L 348.061611 -69.667363 
L 349.076292 -70.314295 
L 350.090973 -70.962201 
L 351.105654 -71.584957 
L 352.120335 -72.205805 
L 353.135016 -72.851485 
L 354.149697 -73.455779 
L 355.164378 -74.048987 
L 356.179059 -74.630673 
L 357.19374 -75.20932 
L 358.208421 -75.768338 
L 359.223102 -76.324167 
L 360.237783 -76.878083 
L 361.252464 -77.414018 
L 362.267145 -77.940143 
L 363.281826 -78.501091 
L 364.296507 -79.015678 
L 365.311188 -79.506857 
L 366.325869 -79.999633 
L 367.34055 -80.486216 
L 368.355231 -80.994137 
L 369.369912 -81.493059 
L 370.384593 -81.966942 
L 371.399274 -82.501839 
L 372.413955 -82.99211 
L 373.428636 -83.494399 
L 374.443317 -84.029159 
L 375.457998 -84.557821 
L 376.472679 -85.088961 
L 377.48736 -85.658556 
L 378.502041 -86.210492 
L 379.516722 -86.78614 
L 380.531403 -87.355374 
L 381.546084 -87.95152 
L 382.560765 -88.576028 
L 383.575446 -89.266733 
L 384.590127 -89.950866 
L 385.604808 -90.643179 
L 386.619489 -91.360246 
L 387.63417 -92.13832 
L 388.648851 -92.956797 
L 389.663532 -93.775303 
L 390.678213 -94.625531 
L 391.692894 -95.499395 
L 392.707575 -96.41496 
L 393.722256 -97.363865 
L 394.736937 -98.345314 
L 395.751618 -99.342931 
L 396.766299 -100.407087 
L 397.78098 -101.489408 
L 398.795661 -102.605001 
L 399.810342 -103.752298 
L 400.825023 -104.957084 
L 401.839704 -106.1606 
L 402.854385 -107.410235 
L 403.869066 -108.724826 
L 404.883747 -110.064149 
L 405.898428 -111.426306 
L 406.913109 -112.826782 
L 407.92779 -114.212824 
L 408.942471 -115.630016 
L 409.957152 -117.086479 
L 410.971833 -118.558538 
L 411.986514 -120.052051 
L 413.001195 -121.562895 
L 414.015876 -123.082429 
L 415.030557 -124.633747 
L 416.045238 -126.17078 
L 417.059919 -127.78462 
L 418.0746 -129.394469 
L 419.089281 -130.971057 
L 420.103962 -132.603376 
L 421.118643 -134.207222 
L 422.133324 -135.793709 
L 423.148005 -137.375885 
L 424.162686 -138.968988 
L 425.177367 -140.538986 
L 426.192048 -142.090183 
L 427.206729 -143.653214 
L 428.22141 -145.169952 
L 429.236091 -146.696357 
L 430.250772 -148.205192 
L 431.265453 -149.685837 
L 432.280134 -151.180494 
L 433.294815 -152.607601 
L 434.309496 -154.046887 
L 435.324177 -155.429018 
L 436.338858 -156.785603 
L 437.353539 -158.130794 
L 438.36822 -159.463738 
L 439.382901 -160.759766 
L 440.397582 -162.016275 
L 441.412263 -163.194308 
L 442.426944 -164.401858 
L 443.441625 -165.596053 
L 444.456306 -166.726724 
L 445.470987 -167.895274 
L 446.485668 -168.996175 
L 447.500349 -170.05997 
L 448.51503 -171.130373 
L 449.529711 -172.142721 
L 450.544392 -173.13766 
L 451.559073 -174.117485 
L 452.573754 -175.102314 
L 453.588435 -176.036766 
L 454.603116 -176.970743 
L 455.617797 -177.876264 
L 456.632478 -178.752719 
L 457.647159 -179.630121 
L 458.66184 -180.49465 
L 459.67652 -181.340173 
L 460.691201 -182.175812 
L 461.705882 -183.028257 
L 462.720563 -183.859555 
L 463.735244 -184.636964 
L 464.749925 -185.441419 
L 465.764606 -186.248549 
L 466.779287 -187.060419 
L 467.793968 -187.87911 
L 468.808649 -188.663788 
L 469.82333 -189.455578 
L 470.838011 -190.307713 
L 471.852692 -191.124501 
L 472.867373 -191.927395 
L 473.882054 -192.748501 
L 474.896735 -193.516553 
L 475.911416 -194.424699 
L 476.926097 -195.275044 
L 477.940778 -196.138439 
L 478.955459 -196.989997 
L 479.97014 -197.854074 
L 480.984821 -198.705553 
L 481.999502 -199.528912 
L 483.014183 -200.39287 
L 484.028864 -201.246664 
L 485.043545 -202.11306 
L 486.058226 -202.976396 
L 487.072907 -203.860537 
L 488.087588 -204.773091 
L 489.102269 -205.681314 
L 490.11695 -206.593081 
L 491.131631 -207.552595 
L 492.146312 -208.504545 
L 493.160993 -209.406642 
L 494.175674 -210.35007 
L 495.190355 -211.252593 
L 496.205036 -212.193125 
L 497.219717 -213.118957 
L 498.234398 -214.055245 
L 499.249079 -215.005196 
L 500.26376 -216.012883 
L 501.278441 -216.996549 
L 502.293122 -217.97523 
L 503.307803 -218.982065 
L 504.322484 -219.962405 
L 505.337165 -220.990963 
L 506.351846 -222.00431 
L 507.366527 -223.025618 
L 508.381208 -224.063701 
L 509.395889 -225.077911 
L 510.41057 -226.098633 
L 511.425251 -227.150675 
L 512.439932 -228.163356 
L 513.454613 -229.252412 
L 514.469294 -230.323194 
L 515.483975 -231.441372 
L 516.498656 -232.51574 
L 517.513337 -233.595202 
L 518.528018 -234.672435 
L 519.542699 -235.795013 
L 520.55738 -236.884451 
L 521.572061 -237.995984 
L 522.586742 -239.108013 
L 523.601423 -240.188935 
L 524.616104 -241.278173 
L 525.630785 -242.381095 
L 526.645466 -243.545077 
L 527.660147 -244.653275 
L 528.674828 -245.764149 
L 529.689509 -246.904262 
L 530.70419 -248.031296 
L 531.718871 -249.127002 
L 532.733552 -250.15837 
L 533.748233 -251.221398 
L 534.762914 -252.295969 
L 535.777595 -253.355671 
L 536.792276 -254.394923 
L 537.806957 -255.39037 
L 538.821638 -256.395243 
L 539.836319 -257.406967 
L 540.851 -258.382573 
L 541.865681 -259.345956 
L 542.880362 -260.305687 
L 543.895043 -261.208929 
L 544.909724 -262.092597 
L 545.924405 -262.958409 
L 546.939086 -263.799392 
L 547.953767 -264.603106 
L 548.968448 -265.392202 
L 549.983129 -266.153234 
L 550.99781 -266.883835 
L 552.012491 -267.545363 
L 553.027172 -268.173506 
L 554.041853 -268.761078 
L 555.056534 -269.311891 
L 556.071215 -269.806704 
L 557.085896 -270.307572 
L 558.100577 -270.780466 
L 559.115258 -271.212582 
L 560.129939 -271.571421 
L 561.14462 -271.921021 
L 562.159301 -272.201643 
L 563.173982 -272.445785 
L 564.188663 -272.637751 
L 565.203344 -272.799331 
L 566.218025 -272.867895 
L 567.232706 -272.931068 
L 568.247387 -272.960549 
L 569.262068 -272.906343 
L 570.276749 -272.81711 
L 571.29143 -272.731919 
L 572.306111 -272.603766 
L 573.320792 -272.383621 
L 574.335473 -272.15507 
L 575.350154 -271.929686 
L 576.364835 -271.672513 
L 577.379516 -271.352131 
L 578.394197 -271.010592 
L 579.408878 -270.591148 
L 580.423559 -270.176281 
L 581.43824 -269.724654 
L 582.452921 -269.246621 
L 583.467602 -268.74156 
L 584.482283 -268.226437 
L 585.496964 -267.694178 
L 586.511645 -267.165252 
L 587.526326 -266.585525 
L 588.541007 -266.023553 
L 589.555688 -265.473387 
L 590.570369 -264.912774 
L 591.58505 -264.398536 
L 592.599731 -263.82844 
L 593.614412 -263.334847 
L 594.629093 -262.75814 
L 595.643774 -262.274038 
L 596.658455 -261.791757 
L 597.673136 -261.288373 
L 598.687817 -260.883287 
L 599.702498 -260.5064 
L 600.717179 -260.11829 
L 601.73186 -259.710643 
L 602.746541 -259.365538 
L 603.761222 -259.0508 
L 604.775903 -258.770315 
L 605.790584 -258.564093 
L 606.805265 -258.37232 
L 607.819946 -258.2216 
L 608.834627 -258.104242 
L 609.849308 -258.054121 
L 610.863989 -257.963318 
L 611.87867 -257.919593 
L 612.893351 -257.926997 
L 613.908032 -257.984151 
L 614.922713 -258.051222 
L 615.937394 -258.12642 
L 616.952075 -258.216272 
L 617.966756 -258.332486 
L 618.981437 -258.444844 
L 619.996118 -258.529224 
L 621.010799 -258.6499 
L 622.02548 -258.816379 
L 623.040161 -258.941778 
L 624.054842 -259.11353 
L 625.069523 -259.193997 
L 626.084204 -259.310631 
L 627.098885 -259.422003 
L 628.113566 -259.515436 
L 629.128247 -259.621226 
L 630.142928 -259.704181 
L 631.157609 -259.732535 
L 632.17229 -259.702836 
L 633.186971 -259.678519 
L 634.201652 -259.60709 
L 635.216333 -259.494455 
L 636.231014 -259.373133 
L 637.245695 -259.150867 
L 638.260376 -258.888928 
L 639.275057 -258.567466 
L 640.289738 -258.153513 
L 641.304419 -257.704022 
L 642.3191 -257.256684 
L 643.333781 -256.702808 
L 644.348462 -256.165533 
L 645.363143 -255.553605 
L 646.377824 -254.898006 
L 647.392505 -254.139905 
L 648.407186 -253.304806 
L 649.421867 -252.38841 
L 650.436548 -251.43252 
L 651.451229 -250.403444 
L 652.46591 -249.334592 
L 653.480591 -248.239998 
L 654.495272 -247.047323 
L 655.509953 -245.816925 
L 656.524634 -244.540162 
L 657.539315 -243.238306 
L 658.553996 -241.87146 
L 659.568677 -240.461219 
L 660.583358 -238.986335 
L 661.598039 -237.474859 
L 662.61272 -235.90543 
L 663.627401 -234.329132 
L 664.642082 -232.656626 
L 665.656763 -230.994776 
L 666.671444 -229.287109 
L 667.686125 -227.561763 
L 668.700806 -225.771127 
L 669.715487 -223.943012 
L 670.730168 -222.109504 
L 671.744849 -220.236964 
L 672.75953 -218.343303 
L 673.774211 -216.437688 
L 674.788892 -214.488732 
L 675.803573 -212.445976 
L 676.818254 -210.465956 
L 677.832935 -208.445545 
L 678.847616 -206.380382 
L 679.862297 -204.313056 
L 680.876978 -202.234663 
L 681.891659 -200.17825 
L 682.90634 -198.087187 
L 683.921021 -195.962919 
L 684.935702 -193.831936 
L 685.950383 -191.655875 
L 686.965064 -189.510401 
L 687.979745 -187.337517 
L 688.994426 -185.138441 
L 690.009107 -182.947177 
L 691.023788 -180.731935 
L 692.038469 -178.503621 
L 693.05315 -176.302792 
L 694.067831 -174.095658 
L 695.082512 -171.852807 
L 696.097193 -169.626905 
L 697.111874 -167.418069 
L 698.126555 -165.185949 
L 699.141236 -162.933851 
L 700.155917 -160.719789 
L 701.170598 -158.534051 
L 702.185279 -156.339748 
L 703.19996 -154.173525 
L 704.214641 -152.009571 
L 705.229322 -149.854981 
L 706.244003 -147.702493 
L 707.258684 -145.539155 
L 708.273365 -143.385739 
L 709.288046 -141.276125 
L 710.302727 -139.160908 
L 711.317408 -137.089394 
L 712.332089 -135.020951 
L 713.34677 -132.981825 
L 714.361451 -130.971936 
L 715.376132 -128.968155 
L 716.390813 -126.973474 
L 717.405494 -125.029157 
L 718.420175 -123.127273 
L 719.434856 -121.259022 
L 720.449537 -119.392543 
L 721.464218 -117.547281 
L 722.478899 -115.771166 
L 723.49358 -114.008101 
L 724.508261 -112.236913 
L 725.522942 -110.47651 
L 726.537623 -108.79939 
L 727.552304 -107.13016 
L 728.566985 -105.549374 
L 729.581666 -103.974356 
L 730.596347 -102.408943 
L 731.611028 -100.918231 
L 732.625709 -99.4512 
L 733.64039 -98.031505 
L 734.655071 -96.63452 
L 735.669752 -95.270625 
L 736.684433 -93.956743 
L 737.699113 -92.676954 
L 738.713794 -91.425181 
L 739.728475 -90.20069 
L 740.743156 -88.956303 
L 741.757837 -87.824506 
L 742.772518 -86.690078 
L 743.787199 -85.626542 
L 744.80188 -84.566973 
L 745.816561 -83.560616 
L 746.831242 -82.596388 
L 747.845923 -81.670957 
L 748.860604 -80.738045 
L 749.875285 -79.875091 
L 750.889966 -79.069738 
L 751.904647 -78.287926 
L 752.919328 -77.530618 
L 753.934009 -76.79088 
L 754.94869 -76.093416 
L 755.963371 -75.437704 
L 756.978052 -74.799095 
L 757.992733 -74.193404 
L 759.007414 -73.623196 
L 760.022095 -73.13732 
L 761.036776 -72.692931 
L 762.051457 -72.247322 
L 763.066138 -71.825523 
L 764.080819 -71.420496 
L 765.0955 -71.053615 
L 766.110181 -70.715535 
L 767.124862 -70.429938 
L 768.139543 -70.179034 
L 769.154224 -69.990279 
L 770.168905 -69.799163 
L 771.183586 -69.628796 
L 772.198267 -69.503272 
L 773.212948 -69.364367 
L 774.227629 -69.253422 
L 775.24231 -69.219509 
L 776.256991 -69.215582 
L 776.256991 -32.176326 
L 776.256991 -32.176326 
L 775.24231 -32.176326 
L 774.227629 -32.176326 
L 773.212948 -32.176326 
L 772.198267 -32.176326 
L 771.183586 -32.176326 
L 770.168905 -32.176326 
L 769.154224 -32.176326 
L 768.139543 -32.176326 
L 767.124862 -32.176326 
L 766.110181 -32.176326 
L 765.0955 -32.176326 
L 764.080819 -32.176326 
L 763.066138 -32.176326 
L 762.051457 -32.176326 
L 761.036776 -32.176326 
L 760.022095 -32.176326 
L 759.007414 -32.176326 
L 757.992733 -32.176326 
L 756.978052 -32.176326 
L 755.963371 -32.176326 
L 754.94869 -32.176326 
L 753.934009 -32.176326 
L 752.919328 -32.176326 
L 751.904647 -32.176326 
L 750.889966 -32.176326 
L 749.875285 -32.176326 
L 748.860604 -32.176326 
L 747.845923 -32.176326 
L 746.831242 -32.176326 
L 745.816561 -32.176326 
L 744.80188 -32.176326 
L 743.787199 -32.176326 
L 742.772518 -32.176326 
L 741.757837 -32.176326 
L 740.743156 -32.176326 
L 739.728475 -32.176326 
L 738.713794 -32.176326 
L 737.699113 -32.176326 
L 736.684433 -32.176326 
L 735.669752 -32.176326 
L 734.655071 -32.176326 
L 733.64039 -32.176326 
L 732.625709 -32.176326 
L 731.611028 -32.176326 
L 730.596347 -32.176326 
L 729.581666 -32.176326 
L 728.566985 -32.176326 
L 727.552304 -32.176326 
L 726.537623 -32.176326 
L 725.522942 -32.176326 
L 724.508261 -32.176326 
L 723.49358 -32.176326 
L 722.478899 -32.176326 
L 721.464218 -32.176326 
L 720.449537 -32.176326 
L 719.434856 -32.176326 
L 718.420175 -32.176326 
L 717.405494 -32.176326 
L 716.390813 -32.176326 
L 715.376132 -32.176326 
L 714.361451 -32.176326 
L 713.34677 -32.176326 
L 712.332089 -32.176326 
L 711.317408 -32.176326 
L 710.302727 -32.176326 
L 709.288046 -32.176326 
L 708.273365 -32.176326 
L 707.258684 -32.176326 
L 706.244003 -32.176326 
L 705.229322 -32.176326 
L 704.214641 -32.176326 
L 703.19996 -32.176326 
L 702.185279 -32.176326 
L 701.170598 -32.176326 
L 700.155917 -32.176326 
L 699.141236 -32.176326 
L 698.126555 -32.176326 
L 697.111874 -32.176326 
L 696.097193 -32.176326 
L 695.082512 -32.176326 
L 694.067831 -32.176326 
L 693.05315 -32.176326 
L 692.038469 -32.176326 
L 691.023788 -32.176326 
L 690.009107 -32.176326 
L 688.994426 -32.176326 
L 687.979745 -32.176326 
L 686.965064 -32.176326 
L 685.950383 -32.176326 
L 684.935702 -32.176326 
L 683.921021 -32.176326 
L 682.90634 -32.176326 
L 681.891659 -32.176326 
L 680.876978 -32.176326 
L 679.862297 -32.176326 
L 678.847616 -32.176326 
L 677.832935 -32.176326 
L 676.818254 -32.176326 
L 675.803573 -32.176326 
L 674.788892 -32.176326 
L 673.774211 -32.176326 
L 672.75953 -32.176326 
L 671.744849 -32.176326 
L 670.730168 -32.176326 
L 669.715487 -32.176326 
L 668.700806 -32.176326 
L 667.686125 -32.176326 
L 666.671444 -32.176326 
L 665.656763 -32.176326 
L 664.642082 -32.176326 
L 663.627401 -32.176326 
L 662.61272 -32.176326 
L 661.598039 -32.176326 
L 660.583358 -32.176326 
L 659.568677 -32.176326 
L 658.553996 -32.176326 
L 657.539315 -32.176326 
L 656.524634 -32.176326 
L 655.509953 -32.176326 
L 654.495272 -32.176326 
L 653.480591 -32.176326 
L 652.46591 -32.176326 
L 651.451229 -32.176326 
L 650.436548 -32.176326 
L 649.421867 -32.176326 
L 648.407186 -32.176326 
L 647.392505 -32.176326 
L 646.377824 -32.176326 
L 645.363143 -32.176326 
L 644.348462 -32.176326 
L 643.333781 -32.176326 
L 642.3191 -32.176326 
L 641.304419 -32.176326 
L 640.289738 -32.176326 
L 639.275057 -32.176326 
L 638.260376 -32.176326 
L 637.245695 -32.176326 
L 636.231014 -32.176326 
L 635.216333 -32.176326 
L 634.201652 -32.176326 
L 633.186971 -32.176326 
L 632.17229 -32.176326 
L 631.157609 -32.176326 
L 630.142928 -32.176326 
L 629.128247 -32.176326 
L 628.113566 -32.176326 
L 627.098885 -32.176326 
L 626.084204 -32.176326 
L 625.069523 -32.176326 
L 624.054842 -32.176326 
L 623.040161 -32.176326 
L 622.02548 -32.176326 
L 621.010799 -32.176326 
L 619.996118 -32.176326 
L 618.981437 -32.176326 
L 617.966756 -32.176326 
L 616.952075 -32.176326 
L 615.937394 -32.176326 
L 614.922713 -32.176326 
L 613.908032 -32.176326 
L 612.893351 -32.176326 
L 611.87867 -32.176326 
L 610.863989 -32.176326 
L 609.849308 -32.176326 
L 608.834627 -32.176326 
L 607.819946 -32.176326 
L 606.805265 -32.176326 
L 605.790584 -32.176326 
L 604.775903 -32.176326 
L 603.761222 -32.176326 
L 602.746541 -32.176326 
L 601.73186 -32.176326 
L 600.717179 -32.176326 
L 599.702498 -32.176326 
L 598.687817 -32.176326 
L 597.673136 -32.176326 
L 596.658455 -32.176326 
L 595.643774 -32.176326 
L 594.629093 -32.176326 
L 593.614412 -32.176326 
L 592.599731 -32.176326 
L 591.58505 -32.176326 
L 590.570369 -32.176326 
L 589.555688 -32.176326 
L 588.541007 -32.176326 
L 587.526326 -32.176326 
L 586.511645 -32.176326 
L 585.496964 -32.176326 
L 584.482283 -32.176326 
L 583.467602 -32.176326 
L 582.452921 -32.176326 
L 581.43824 -32.176326 
L 580.423559 -32.176326 
L 579.408878 -32.176326 
L 578.394197 -32.176326 
L 577.379516 -32.176326 
L 576.364835 -32.176326 
L 575.350154 -32.176326 
L 574.335473 -32.176326 
L 573.320792 -32.176326 
L 572.306111 -32.176326 
L 571.29143 -32.176326 
L 570.276749 -32.176326 
L 569.262068 -32.176326 
L 568.247387 -32.176326 
L 567.232706 -32.176326 
L 566.218025 -32.176326 
L 565.203344 -32.176326 
L 564.188663 -32.176326 
L 563.173982 -32.176326 
L 562.159301 -32.176326 
L 561.14462 -32.176326 
L 560.129939 -32.176326 
L 559.115258 -32.176326 
L 558.100577 -32.176326 
L 557.085896 -32.176326 
L 556.071215 -32.176326 
L 555.056534 -32.176326 
L 554.041853 -32.176326 
L 553.027172 -32.176326 
L 552.012491 -32.176326 
L 550.99781 -32.176326 
L 549.983129 -32.176326 
L 548.968448 -32.176326 
L 547.953767 -32.176326 
L 546.939086 -32.176326 
L 545.924405 -32.176326 
L 544.909724 -32.176326 
L 543.895043 -32.176326 
L 542.880362 -32.176326 
L 541.865681 -32.176326 
L 540.851 -32.176326 
L 539.836319 -32.176326 
L 538.821638 -32.176326 
L 537.806957 -32.176326 
L 536.792276 -32.176326 
L 535.777595 -32.176326 
L 534.762914 -32.176326 
L 533.748233 -32.176326 
L 532.733552 -32.176326 
L 531.718871 -32.176326 
L 530.70419 -32.176326 
L 529.689509 -32.176326 
L 528.674828 -32.176326 
L 527.660147 -32.176326 
L 526.645466 -32.176326 
L 525.630785 -32.176326 
L 524.616104 -32.176326 
L 523.601423 -32.176326 
L 522.586742 -32.176326 
L 521.572061 -32.176326 
L 520.55738 -32.176326 
L 519.542699 -32.176326 
L 518.528018 -32.176326 
L 517.513337 -32.176326 
L 516.498656 -32.176326 
L 515.483975 -32.176326 
L 514.469294 -32.176326 
L 513.454613 -32.176326 
L 512.439932 -32.176326 
L 511.425251 -32.176326 
L 510.41057 -32.176326 
L 509.395889 -32.176326 
L 508.381208 -32.176326 
L 507.366527 -32.176326 
L 506.351846 -32.176326 
L 505.337165 -32.176326 
L 504.322484 -32.176326 
L 503.307803 -32.176326 
L 502.293122 -32.176326 
L 501.278441 -32.176326 
L 500.26376 -32.176326 
L 499.249079 -32.176326 
L 498.234398 -32.176326 
L 497.219717 -32.176326 
L 496.205036 -32.176326 
L 495.190355 -32.176326 
L 494.175674 -32.176326 
L 493.160993 -32.176326 
L 492.146312 -32.176326 
L 491.131631 -32.176326 
L 490.11695 -32.176326 
L 489.102269 -32.176326 
L 488.087588 -32.176326 
L 487.072907 -32.176326 
L 486.058226 -32.176326 
L 485.043545 -32.176326 
L 484.028864 -32.176326 
L 483.014183 -32.176326 
L 481.999502 -32.176326 
L 480.984821 -32.176326 
L 479.97014 -32.176326 
L 478.955459 -32.176326 
L 477.940778 -32.176326 
L 476.926097 -32.176326 
L 475.911416 -32.176326 
L 474.896735 -32.176326 
L 473.882054 -32.176326 
L 472.867373 -32.176326 
L 471.852692 -32.176326 
L 470.838011 -32.176326 
L 469.82333 -32.176326 
L 468.808649 -32.176326 
L 467.793968 -32.176326 
L 466.779287 -32.176326 
L 465.764606 -32.176326 
L 464.749925 -32.176326 
L 463.735244 -32.176326 
L 462.720563 -32.176326 
L 461.705882 -32.176326 
L 460.691201 -32.176326 
L 459.67652 -32.176326 
L 458.66184 -32.176326 
L 457.647159 -32.176326 
L 456.632478 -32.176326 
L 455.617797 -32.176326 
L 454.603116 -32.176326 
L 453.588435 -32.176326 
L 452.573754 -32.176326 
L 451.559073 -32.176326 
L 450.544392 -32.176326 
L 449.529711 -32.176326 
L 448.51503 -32.176326 
L 447.500349 -32.176326 
L 446.485668 -32.176326 
L 445.470987 -32.176326 
L 444.456306 -32.176326 
L 443.441625 -32.176326 
L 442.426944 -32.176326 
L 441.412263 -32.176326 
L 440.397582 -32.176326 
L 439.382901 -32.176326 
L 438.36822 -32.176326 
L 437.353539 -32.176326 
L 436.338858 -32.176326 
L 435.324177 -32.176326 
L 434.309496 -32.176326 
L 433.294815 -32.176326 
L 432.280134 -32.176326 
L 431.265453 -32.176326 
L 430.250772 -32.176326 
L 429.236091 -32.176326 
L 428.22141 -32.176326 
L 427.206729 -32.176326 
L 426.192048 -32.176326 
L 425.177367 -32.176326 
L 424.162686 -32.176326 
L 423.148005 -32.176326 
L 422.133324 -32.176326 
L 421.118643 -32.176326 
L 420.103962 -32.176326 
L 419.089281 -32.176326 
L 418.0746 -32.176326 
L 417.059919 -32.176326 
L 416.045238 -32.176326 
L 415.030557 -32.176326 
L 414.015876 -32.176326 
L 413.001195 -32.176326 
L 411.986514 -32.176326 
L 410.971833 -32.176326 
L 409.957152 -32.176326 
L 408.942471 -32.176326 
L 407.92779 -32.176326 
L 406.913109 -32.176326 
L 405.898428 -32.176326 
L 404.883747 -32.176326 
L 403.869066 -32.176326 
L 402.854385 -32.176326 
L 401.839704 -32.176326 
L 400.825023 -32.176326 
L 399.810342 -32.176326 
L 398.795661 -32.176326 
L 397.78098 -32.176326 
L 396.766299 -32.176326 
L 395.751618 -32.176326 
L 394.736937 -32.176326 
L 393.722256 -32.176326 
L 392.707575 -32.176326 
L 391.692894 -32.176326 
L 390.678213 -32.176326 
L 389.663532 -32.176326 
L 388.648851 -32.176326 
L 387.63417 -32.176326 
L 386.619489 -32.176326 
L 385.604808 -32.176326 
L 384.590127 -32.176326 
L 383.575446 -32.176326 
L 382.560765 -32.176326 
L 381.546084 -32.176326 
L 380.531403 -32.176326 
L 379.516722 -32.176326 
L 378.502041 -32.176326 
L 377.48736 -32.176326 
L 376.472679 -32.176326 
L 375.457998 -32.176326 
L 374.443317 -32.176326 
L 373.428636 -32.176326 
L 372.413955 -32.176326 
L 371.399274 -32.176326 
L 370.384593 -32.176326 
L 369.369912 -32.176326 
L 368.355231 -32.176326 
L 367.34055 -32.176326 
L 366.325869 -32.176326 
L 365.311188 -32.176326 
L 364.296507 -32.176326 
L 363.281826 -32.176326 
L 362.267145 -32.176326 
L 361.252464 -32.176326 
L 360.237783 -32.176326 
L 359.223102 -32.176326 
L 358.208421 -32.176326 
L 357.19374 -32.176326 
L 356.179059 -32.176326 
L 355.164378 -32.176326 
L 354.149697 -32.176326 
L 353.135016 -32.176326 
L 352.120335 -32.176326 
L 351.105654 -32.176326 
L 350.090973 -32.176326 
L 349.076292 -32.176326 
L 348.061611 -32.176326 
L 347.04693 -32.176326 
L 346.032249 -32.176326 
L 345.017568 -32.176326 
L 344.002887 -32.176326 
L 342.988206 -32.176326 
L 341.973525 -32.176326 
L 340.958844 -32.176326 
L 339.944163 -32.176326 
L 338.929482 -32.176326 
L 337.914801 -32.176326 
L 336.90012 -32.176326 
L 335.885439 -32.176326 
L 334.870758 -32.176326 
L 333.856077 -32.176326 
L 332.841396 -32.176326 
L 331.826715 -32.176326 
L 330.812034 -32.176326 
L 329.797353 -32.176326 
L 328.782672 -32.176326 
L 327.767991 -32.176326 
L 326.75331 -32.176326 
L 325.738629 -32.176326 
L 324.723948 -32.176326 
L 323.709267 -32.176326 
L 322.694586 -32.176326 
L 321.679905 -32.176326 
L 320.665224 -32.176326 
L 319.650543 -32.176326 
L 318.635862 -32.176326 
L 317.621181 -32.176326 
L 316.6065 -32.176326 
L 315.591819 -32.176326 
L 314.577138 -32.176326 
L 313.562457 -32.176326 
L 312.547776 -32.176326 
L 311.533095 -32.176326 
L 310.518414 -32.176326 
L 309.503733 -32.176326 
L 308.489052 -32.176326 
L 307.474371 -32.176326 
L 306.45969 -32.176326 
L 305.445009 -32.176326 
L 304.430328 -32.176326 
L 303.415647 -32.176326 
L 302.400966 -32.176326 
L 301.386285 -32.176326 
L 300.371604 -32.176326 
L 299.356923 -32.176326 
L 298.342242 -32.176326 
L 297.327561 -32.176326 
L 296.31288 -32.176326 
L 295.298199 -32.176326 
L 294.283518 -32.176326 
L 293.268837 -32.176326 
L 292.254156 -32.176326 
L 291.239475 -32.176326 
L 290.224794 -32.176326 
L 289.210113 -32.176326 
L 288.195432 -32.176326 
L 287.180751 -32.176326 
L 286.16607 -32.176326 
L 285.151389 -32.176326 
L 284.136708 -32.176326 
L 283.122027 -32.176326 
L 282.107346 -32.176326 
L 281.092665 -32.176326 
L 280.077984 -32.176326 
L 279.063303 -32.176326 
L 278.048622 -32.176326 
L 277.033941 -32.176326 
L 276.01926 -32.176326 
L 275.004579 -32.176326 
L 273.989898 -32.176326 
L 272.975217 -32.176326 
L 271.960536 -32.176326 
L 270.945855 -32.176326 
L 269.931174 -32.176326 
L 268.916493 -32.176326 
L 267.901812 -32.176326 
L 266.887131 -32.176326 
L 265.87245 -32.176326 
L 264.857769 -32.176326 
L 263.843088 -32.176326 
L 262.828407 -32.176326 
L 261.813726 -32.176326 
L 260.799045 -32.176326 
L 259.784364 -32.176326 
L 258.769683 -32.176326 
L 257.755002 -32.176326 
z
" style="stroke: #81aca4; stroke-opacity: 0"/>
    </defs>
    <g clip-path="url(#pee87baa0ff)">
     <use xlink:href="#m8ff8c56884" x="0" y="288" style="fill: #81aca4; fill-opacity: 0; stroke: #81aca4; stroke-opacity: 0"/>
    </g>
   </g>
   <g id="line2d_25">
    <path d="M 257.755002 248.745179 
L 263.843088 248.63731 
L 273.989898 248.044561 
L 278.048622 247.623893 
L 284.136708 246.72253 
L 289.210113 245.707614 
L 293.268837 244.734528 
L 297.327561 243.676955 
L 303.415647 241.878786 
L 308.489052 240.121089 
L 313.562457 238.171412 
L 320.665224 234.995851 
L 324.723948 232.937038 
L 333.856077 227.62761 
L 344.002887 220.995031 
L 350.090973 217.037799 
L 357.19374 212.79068 
L 364.296507 208.984322 
L 374.443317 203.970841 
L 379.516722 201.21386 
L 382.560765 199.423972 
L 387.63417 195.86168 
L 391.692894 192.500605 
L 394.736937 189.654686 
L 397.78098 186.510592 
L 400.825023 183.042916 
L 403.869066 179.275174 
L 407.92779 173.787176 
L 411.986514 167.947949 
L 417.059919 160.21538 
L 426.192048 145.909817 
L 430.250772 139.794808 
L 435.324177 132.570982 
L 439.382901 127.240234 
L 442.426944 123.598142 
L 445.470987 120.104726 
L 449.529711 115.857279 
L 454.603116 111.029257 
L 458.66184 107.50535 
L 464.749925 102.558581 
L 475.911416 93.575301 
L 488.087588 83.226909 
L 495.190355 76.747407 
L 502.293122 70.02477 
L 512.439932 59.836644 
L 527.660147 43.346725 
L 534.762914 35.704031 
L 538.821638 31.604757 
L 542.880362 27.694313 
L 546.939086 24.200608 
L 550.99781 21.116165 
L 554.041853 19.238922 
L 557.085896 17.692428 
L 559.115258 16.787418 
L 562.159301 15.798357 
L 564.188663 15.362249 
L 566.218025 15.132105 
L 568.247387 15.039451 
L 571.29143 15.268081 
L 573.320792 15.616379 
L 576.364835 16.327487 
L 578.394197 16.989408 
L 582.452921 18.753379 
L 586.511645 20.834748 
L 590.570369 23.087226 
L 598.687817 27.116713 
L 603.761222 28.9492 
L 605.790584 29.435907 
L 607.819946 29.7784 
L 610.863989 30.036682 
L 612.893351 30.073003 
L 616.952075 29.783728 
L 631.157609 28.267465 
L 634.201652 28.39291 
L 636.231014 28.626867 
L 638.260376 29.111072 
L 640.289738 29.846487 
L 643.333781 31.297192 
L 645.363143 32.446395 
L 647.392505 33.860095 
L 649.421867 35.61159 
L 651.451229 37.596556 
L 654.495272 40.952677 
L 657.539315 44.761694 
L 660.583358 49.013665 
L 663.627401 53.670868 
L 668.700806 62.228873 
L 673.774211 71.562312 
L 677.832935 79.554455 
L 684.935702 94.168064 
L 695.082512 116.147193 
L 705.229322 138.145019 
L 712.332089 152.979049 
L 717.405494 162.970843 
L 721.464218 170.452719 
L 726.537623 179.20061 
L 729.581666 184.025644 
L 732.625709 188.5488 
L 736.684433 194.043257 
L 740.743156 199.043697 
L 744.80188 203.433027 
L 747.845923 206.329043 
L 749.875285 208.124909 
L 753.934009 211.20912 
L 756.978052 213.200905 
L 759.007414 214.376804 
L 762.051457 215.752678 
L 765.0955 216.946385 
L 767.124862 217.570062 
L 769.154224 218.009721 
L 772.198267 218.496728 
L 774.227629 218.746578 
L 776.256991 218.784418 
L 776.256991 218.784418 
" clip-path="url(#pee87baa0ff)" style="fill: none; stroke: #81aca4; stroke-width: 1.5; stroke-linecap: round"/>
   </g>
   <g id="line2d_26">
    <path d="M 64.279906 255.823674 
L 71.944358 255.823674 
L 79.608811 255.823669 
L 87.273264 255.823623 
L 94.937716 255.823395 
L 102.602169 255.822642 
L 110.266622 255.820691 
L 117.931074 255.816393 
L 125.595527 255.807974 
L 133.25998 255.792883 
L 140.924432 255.767646 
L 148.588885 255.727725 
L 156.253338 255.667402 
L 163.91779 255.579674 
L 171.582243 255.456172 
L 179.246696 255.287111 
L 186.911148 255.061263 
L 194.575601 254.765956 
L 202.240054 254.38711 
L 209.904506 253.909302 
L 217.568959 253.315855 
L 225.233412 252.588971 
L 232.897864 251.709875 
L 240.562317 250.659003 
L 248.22677 249.416211 
L 255.891222 247.961004 
L 263.555675 246.272791 
L 271.220128 244.331163 
L 278.88458 242.11618 
L 286.549033 239.608674 
L 294.213486 236.790569 
L 301.877938 233.645196 
L 309.542391 230.157619 
L 317.206844 226.31496 
L 324.871296 222.106714 
L 332.535749 217.525063 
L 340.200202 212.56517 
L 347.864654 207.225466 
L 355.529107 201.507906 
L 363.19356 195.418209 
L 370.858012 188.966068 
L 378.522465 182.165329 
L 386.186918 175.034132 
L 393.85137 167.59502 
L 401.515823 159.875003 
L 409.180276 151.905573 
L 416.844728 143.722687 
L 424.509181 135.366681 
L 432.173634 126.882152 
L 439.838086 118.317775 
L 447.502539 109.726066 
L 455.166991 101.163104 
L 462.831444 92.688176 
L 470.495897 84.363385 
L 478.160349 76.253196 
L 485.824802 68.423925 
L 493.489255 60.943182 
L 501.153707 53.879261 
L 508.81816 47.30048 
L 516.482613 41.274483 
L 524.147065 35.867498 
L 531.811518 31.143559 
L 539.475971 27.163701 
L 547.140423 23.985132 
L 554.804876 21.660382 
L 562.469329 20.236453 
L 570.133781 19.753962 
L 577.798234 20.246293 
L 585.462687 21.738776 
L 593.127139 24.247888 
L 600.791592 27.780503 
L 608.456045 32.333196 
L 616.120497 37.891622 
L 623.78495 44.429973 
L 631.449403 51.910548 
L 639.113855 60.283434 
L 646.778308 69.486331 
L 654.442761 79.44453 
L 662.107213 90.071078 
L 669.771666 101.267139 
L 677.436119 112.922577 
L 685.100571 124.916796 
L 692.765024 137.119848 
L 700.429477 149.393851 
L 708.093929 161.594728 
L 715.758382 173.574319 
L 723.422835 185.182875 
L 731.087287 196.271984 
L 738.75174 206.697954 
L 746.416193 216.325695 
L 754.080645 225.033126 
L 761.745098 232.716164 
L 769.409551 239.294318 
L 777.074003 244.716942 
L 784.738456 248.970181 
L 792.402909 252.084665 
L 800.067361 254.143996 
L 807.731814 255.294065 
L 815.396267 255.753271 
L 823.060719 255.823674 
" clip-path="url(#pee87baa0ff)" style="fill: none; stroke: #cfcfcf; stroke-width: 1.5; stroke-linecap: round"/>
   </g>
   <g id="legend_1">
    <g id="line2d_27">
     <path d="M 38.940865 21.55024 
L 52.940865 21.55024 
L 66.940865 21.55024 
" style="fill: none; stroke: #81aca4; stroke-width: 1.5; stroke-linecap: round"/>
    </g>
    <g id="text_13">
     <!-- Metropolis approximation -->
     <g style="fill: #262626" transform="translate(78.140865 26.45024)scale(0.14 -0.14)">
      <defs>
       <path id="JosefinSans-Regular-4d" d="M 5267 4774 
L 5267 0 
L 4653 0 
L 4653 2995 
L 2950 582 
L 2938 582 
L 1267 2912 
L 1267 0 
L 666 0 
L 666 4774 
L 672 4774 
L 2950 1549 
L 5261 4774 
L 5267 4774 
z
" transform="scale(0.015625)"/>
       <path id="JosefinSans-Regular-65" d="M 1760 448 
Q 2093 448 2406 678 
L 2682 237 
Q 2470 96 2224 16 
Q 1978 -64 1747 -64 
Q 1306 -64 976 118 
Q 646 301 467 621 
Q 288 941 288 1344 
Q 288 1734 483 2057 
Q 678 2381 1017 2569 
Q 1357 2758 1760 2758 
Q 2278 2758 2627 2454 
Q 2976 2150 3104 1606 
L 1005 870 
Q 1120 672 1315 560 
Q 1510 448 1760 448 
z
M 1715 2285 
Q 1350 2285 1113 2029 
Q 877 1773 877 1376 
Q 877 1280 883 1229 
L 2426 1798 
Q 2330 2016 2154 2150 
Q 1978 2285 1715 2285 
z
" transform="scale(0.015625)"/>
       <path id="JosefinSans-Regular-74" d="M 1376 3814 
L 1376 2643 
L 2099 2643 
L 2099 2170 
L 1376 2170 
L 1376 0 
L 774 0 
L 774 2170 
L 288 2170 
L 288 2643 
L 774 2643 
L 774 3814 
L 1376 3814 
z
" transform="scale(0.015625)"/>
       <path id="JosefinSans-Regular-72" d="M 1094 2022 
Q 1197 2240 1385 2406 
Q 1574 2573 1785 2662 
Q 1997 2752 2157 2758 
L 2131 2163 
Q 1843 2176 1609 2048 
Q 1376 1920 1245 1693 
Q 1114 1466 1114 1210 
L 1114 0 
L 518 0 
L 518 2650 
L 1050 2650 
L 1094 2022 
z
" transform="scale(0.015625)"/>
       <path id="JosefinSans-Regular-6f" d="M 288 1350 
Q 288 1741 477 2064 
Q 666 2387 1002 2572 
Q 1338 2758 1760 2758 
Q 2182 2758 2512 2572 
Q 2842 2387 3024 2067 
Q 3206 1747 3206 1350 
Q 3206 954 3024 630 
Q 2842 307 2509 121 
Q 2176 -64 1747 -64 
Q 1331 -64 998 112 
Q 666 288 477 608 
Q 288 928 288 1350 
z
M 890 1344 
Q 890 1094 1002 883 
Q 1114 672 1309 550 
Q 1504 429 1741 429 
Q 2112 429 2355 691 
Q 2598 954 2598 1344 
Q 2598 1734 2355 2000 
Q 2112 2266 1741 2266 
Q 1498 2266 1306 2141 
Q 1114 2016 1002 1805 
Q 890 1594 890 1344 
z
" transform="scale(0.015625)"/>
       <path id="JosefinSans-Regular-70" d="M 2195 2758 
Q 2566 2758 2867 2579 
Q 3168 2400 3341 2077 
Q 3514 1754 3514 1331 
Q 3514 915 3328 598 
Q 3142 282 2816 109 
Q 2490 -64 2086 -64 
Q 1798 -64 1536 61 
Q 1274 186 1114 397 
L 1114 -1274 
L 518 -1274 
L 518 2694 
L 1037 2694 
L 1088 2246 
Q 1293 2477 1577 2617 
Q 1862 2758 2195 2758 
z
M 1971 416 
Q 2221 416 2435 534 
Q 2650 653 2778 861 
Q 2906 1069 2906 1325 
Q 2906 1587 2787 1798 
Q 2669 2010 2464 2131 
Q 2259 2253 2010 2253 
Q 1670 2253 1430 2064 
Q 1190 1875 1114 1555 
L 1114 1114 
Q 1165 806 1405 611 
Q 1645 416 1971 416 
z
" transform="scale(0.015625)"/>
       <path id="JosefinSans-Regular-6c" d="M 1114 4960 
L 1114 0 
L 518 0 
L 518 4960 
L 1114 4960 
z
" transform="scale(0.015625)"/>
       <path id="JosefinSans-Regular-69" d="M 1114 2650 
L 1114 0 
L 518 0 
L 518 2650 
L 1114 2650 
z
M 477 3590 
Q 477 3731 585 3827 
Q 694 3923 835 3923 
Q 976 3923 1081 3827 
Q 1187 3731 1187 3590 
Q 1187 3450 1081 3354 
Q 976 3258 835 3258 
Q 694 3258 585 3354 
Q 477 3450 477 3590 
z
" transform="scale(0.015625)"/>
       <path id="JosefinSans-Regular-73" d="M 1267 -58 
Q 973 -58 707 44 
Q 442 147 275 346 
L 531 691 
Q 691 538 867 454 
Q 1043 371 1216 371 
Q 1427 371 1561 454 
Q 1696 538 1696 710 
Q 1696 845 1613 928 
Q 1530 1011 1424 1049 
Q 1318 1088 1069 1165 
Q 390 1382 390 1939 
Q 390 2272 636 2509 
Q 883 2746 1325 2746 
Q 1606 2746 1824 2675 
Q 2042 2605 2227 2451 
L 1990 2086 
Q 1888 2195 1731 2259 
Q 1574 2323 1434 2330 
Q 1254 2330 1126 2243 
Q 998 2157 998 2010 
Q 998 1888 1081 1808 
Q 1165 1728 1254 1693 
Q 1344 1658 1606 1574 
Q 1933 1466 2115 1293 
Q 2298 1120 2298 826 
Q 2298 442 2029 192 
Q 1760 -58 1267 -58 
z
" transform="scale(0.015625)"/>
       <path id="JosefinSans-Regular-20" transform="scale(0.015625)"/>
       <path id="JosefinSans-Regular-61" d="M 3238 2650 
L 3238 0 
L 2643 0 
L 2643 435 
Q 2502 250 2233 93 
Q 1965 -64 1626 -64 
Q 1248 -64 944 99 
Q 640 262 464 576 
Q 288 890 288 1325 
Q 288 1760 470 2083 
Q 653 2406 963 2582 
Q 1274 2758 1651 2758 
Q 1990 2758 2240 2611 
Q 2490 2464 2643 2227 
L 2688 2650 
L 3238 2650 
z
M 1786 429 
Q 2112 429 2345 611 
Q 2579 794 2643 1107 
L 2643 1632 
Q 2566 1914 2323 2090 
Q 2080 2266 1766 2266 
Q 1530 2266 1328 2150 
Q 1126 2035 1008 1827 
Q 890 1619 890 1357 
Q 890 1101 1011 889 
Q 1133 678 1337 553 
Q 1542 429 1786 429 
z
" transform="scale(0.015625)"/>
       <path id="JosefinSans-Regular-78" d="M 2138 0 
L 1427 934 
L 762 0 
L 154 0 
L 1126 1331 
L 122 2650 
L 864 2650 
L 1562 1728 
L 2157 2650 
L 2758 2650 
L 1837 1363 
L 2861 0 
L 2138 0 
z
" transform="scale(0.015625)"/>
       <path id="JosefinSans-Regular-6d" d="M 3917 2758 
Q 4301 2758 4528 2540 
Q 4755 2323 4768 1965 
L 4768 0 
L 4173 0 
L 4173 1747 
Q 4154 2214 3750 2240 
Q 3520 2240 3337 2102 
Q 3155 1965 3052 1741 
Q 2950 1517 2944 1261 
L 2944 0 
L 2342 0 
L 2342 1747 
Q 2323 2214 1907 2240 
Q 1683 2240 1500 2102 
Q 1318 1965 1216 1737 
Q 1114 1510 1114 1254 
L 1114 0 
L 518 0 
L 518 2650 
L 1056 2650 
L 1101 2150 
Q 1254 2438 1520 2598 
Q 1786 2758 2125 2758 
Q 2445 2758 2662 2608 
Q 2880 2458 2944 2195 
Q 3110 2458 3366 2608 
Q 3622 2758 3917 2758 
z
" transform="scale(0.015625)"/>
       <path id="JosefinSans-Regular-6e" d="M 2163 2752 
Q 2534 2752 2777 2531 
Q 3021 2310 3027 1958 
L 3027 0 
L 2426 0 
L 2426 1754 
Q 2413 1978 2291 2106 
Q 2170 2234 1926 2240 
Q 1574 2240 1344 1958 
Q 1114 1677 1114 1242 
L 1114 0 
L 518 0 
L 518 2650 
L 1056 2650 
L 1094 2138 
Q 1235 2426 1516 2589 
Q 1798 2752 2163 2752 
z
" transform="scale(0.015625)"/>
      </defs>
      <use xlink:href="#JosefinSans-Regular-4d"/>
      <use xlink:href="#JosefinSans-Regular-65" x="92.699982"/>
      <use xlink:href="#JosefinSans-Regular-74" x="144.699966"/>
      <use xlink:href="#JosefinSans-Regular-72" x="180.699951"/>
      <use xlink:href="#JosefinSans-Regular-6f" x="218.299942"/>
      <use xlink:href="#JosefinSans-Regular-70" x="272.799927"/>
      <use xlink:href="#JosefinSans-Regular-6f" x="332.099915"/>
      <use xlink:href="#JosefinSans-Regular-6c" x="386.599899"/>
      <use xlink:href="#JosefinSans-Regular-69" x="412.099884"/>
      <use xlink:href="#JosefinSans-Regular-73" x="437.599869"/>
      <use xlink:href="#JosefinSans-Regular-20" x="478.399857"/>
      <use xlink:href="#JosefinSans-Regular-61" x="509.999847"/>
      <use xlink:href="#JosefinSans-Regular-70" x="568.699844"/>
      <use xlink:href="#JosefinSans-Regular-70" x="627.999832"/>
      <use xlink:href="#JosefinSans-Regular-72" x="687.29982"/>
      <use xlink:href="#JosefinSans-Regular-6f" x="724.899811"/>
      <use xlink:href="#JosefinSans-Regular-78" x="779.399796"/>
      <use xlink:href="#JosefinSans-Regular-69" x="825.999786"/>
      <use xlink:href="#JosefinSans-Regular-6d" x="851.499771"/>
      <use xlink:href="#JosefinSans-Regular-61" x="933.999756"/>
      <use xlink:href="#JosefinSans-Regular-74" x="992.699753"/>
      <use xlink:href="#JosefinSans-Regular-69" x="1028.699738"/>
      <use xlink:href="#JosefinSans-Regular-6f" x="1054.199722"/>
      <use xlink:href="#JosefinSans-Regular-6e" x="1108.699707"/>
     </g>
    </g>
    <g id="line2d_28">
     <path d="M 38.940865 42.187115 
L 52.940865 42.187115 
L 66.940865 42.187115 
" style="fill: none; stroke: #cfcfcf; stroke-width: 1.5; stroke-linecap: round"/>
    </g>
    <g id="text_14">
     <!-- True posterior -->
     <g style="fill: #262626" transform="translate(78.140865 47.087115)scale(0.14 -0.14)">
      <defs>
       <path id="JosefinSans-Regular-54" d="M 3398 4627 
L 3398 4032 
L 2157 4032 
L 2157 0 
L 1536 0 
L 1536 4032 
L 326 4032 
L 326 4627 
L 3398 4627 
z
" transform="scale(0.015625)"/>
       <path id="JosefinSans-Regular-75" d="M 2982 2650 
L 2982 0 
L 2445 0 
L 2406 506 
Q 2272 237 1990 67 
Q 1709 -102 1363 -102 
Q 998 -102 764 118 
Q 531 339 518 691 
L 518 2650 
L 1114 2650 
L 1114 902 
Q 1126 678 1244 547 
Q 1363 416 1600 410 
Q 1818 410 1997 541 
Q 2176 672 2281 902 
Q 2387 1133 2387 1414 
L 2387 2650 
L 2982 2650 
z
" transform="scale(0.015625)"/>
      </defs>
      <use xlink:href="#JosefinSans-Regular-54"/>
      <use xlink:href="#JosefinSans-Regular-72" x="58.199997"/>
      <use xlink:href="#JosefinSans-Regular-75" x="95.799988"/>
      <use xlink:href="#JosefinSans-Regular-65" x="150.499985"/>
      <use xlink:href="#JosefinSans-Regular-20" x="202.499969"/>
      <use xlink:href="#JosefinSans-Regular-70" x="234.09996"/>
      <use xlink:href="#JosefinSans-Regular-6f" x="293.399948"/>
      <use xlink:href="#JosefinSans-Regular-73" x="347.899933"/>
      <use xlink:href="#JosefinSans-Regular-74" x="388.699921"/>
      <use xlink:href="#JosefinSans-Regular-65" x="424.699905"/>
      <use xlink:href="#JosefinSans-Regular-72" x="476.69989"/>
      <use xlink:href="#JosefinSans-Regular-69" x="514.299881"/>
      <use xlink:href="#JosefinSans-Regular-6f" x="539.799866"/>
      <use xlink:href="#JosefinSans-Regular-72" x="594.29985"/>
     </g>
    </g>
   </g>
  </g>
 </g>
 <defs>
  <clipPath id="pee87baa0ff">
   <rect x="26.340865" y="3.00024" width="834.658895" height="264.862645"/>
  </clipPath>
 </defs>
</svg>
