<?xml version="1.0" encoding="utf-8" standalone="no"?>
<!DOCTYPE svg PUBLIC "-//W3C//DTD SVG 1.1//EN"
  "http://www.w3.org/Graphics/SVG/1.1/DTD/svg11.dtd">
<!-- Created with matplotlib (https://matplotlib.org/) -->
<svg height="288pt" version="1.1" viewBox="0 0 864 288" width="864pt" xmlns="http://www.w3.org/2000/svg" xmlns:xlink="http://www.w3.org/1999/xlink">
 <defs>
  <style type="text/css">
*{stroke-linecap:butt;stroke-linejoin:round;}
  </style>
 </defs>
 <g id="figure_1">
  <g id="patch_1">
   <path d="M 0 288 
L 864 288 
L 864 0 
L 0 0 
z
" style="fill:#ffffff;"/>
  </g>
  <g id="axes_1">
   <g id="patch_2">
    <path d="M 26.340865 267.862885 
L 860.99976 267.862885 
L 860.99976 3.00024 
L 26.340865 3.00024 
z
" style="fill:#ffffff;"/>
   </g>
   <g id="matplotlib.axis_1">
    <g id="xtick_1">
     <g id="line2d_1">
      <path clip-path="url(#p316b0f5d98)" d="M 64.279906 267.862885 
L 64.279906 3.00024 
" style="fill:none;stroke:#cccccc;stroke-dasharray:0.8,1.32;stroke-dashoffset:0;stroke-width:0.8;"/>
     </g>
     <g id="line2d_2"/>
     <g id="text_1">
      <!-- 0.0 -->
      <defs>
       <path d="M 31.203125 -0.296875 
Q 23.09375 -0.296875 16.84375 3.75 
Q 10.59375 7.796875 7.09375 15.390625 
Q 3.59375 23 3.59375 33.203125 
Q 3.59375 49.5 10.9375 58.046875 
Q 18.296875 66.59375 31.203125 66.5 
Q 39.296875 66.5 45.546875 62.5 
Q 51.796875 58.5 55.296875 50.890625 
Q 58.796875 43.296875 58.796875 33.203125 
Q 58.796875 22.796875 55.296875 15.1875 
Q 51.796875 7.59375 45.546875 3.59375 
Q 39.296875 -0.40625 31.203125 -0.296875 
z
M 31.09375 9 
Q 39.59375 9 44.140625 15.59375 
Q 48.703125 22.203125 48.796875 33.40625 
Q 48.703125 44.296875 44.140625 50.75 
Q 39.59375 57.203125 31.09375 57.203125 
Q 22.703125 57.203125 18.203125 50.703125 
Q 13.703125 44.203125 13.59375 33.203125 
Q 13.703125 22.09375 18.203125 15.546875 
Q 22.703125 9 31.09375 9 
z
" id="JosefinSans-Regular-48"/>
       <path d="M 3.40625 5.296875 
Q 3.40625 7.5 5 9.09375 
Q 6.59375 10.703125 8.703125 10.703125 
Q 10.59375 10.703125 12.25 9.09375 
Q 13.90625 7.5 13.90625 5.296875 
Q 13.90625 3 12.296875 1.5 
Q 10.703125 0 8.703125 0 
Q 6.59375 0 5 1.5 
Q 3.40625 3 3.40625 5.296875 
z
" id="JosefinSans-Regular-46"/>
      </defs>
      <g style="fill:#262626;" transform="translate(54.359593 282.212885)scale(0.14 -0.14)">
       <use xlink:href="#JosefinSans-Regular-48"/>
       <use x="62.399994" xlink:href="#JosefinSans-Regular-46"/>
       <use x="79.299988" xlink:href="#JosefinSans-Regular-48"/>
      </g>
     </g>
    </g>
    <g id="xtick_2">
     <g id="line2d_3">
      <path clip-path="url(#p316b0f5d98)" d="M 216.036068 267.862885 
L 216.036068 3.00024 
" style="fill:none;stroke:#cccccc;stroke-dasharray:0.8,1.32;stroke-dashoffset:0;stroke-width:0.8;"/>
     </g>
     <g id="line2d_4"/>
     <g id="text_2">
      <!-- 0.2 -->
      <defs>
       <path d="M 50.203125 9.40625 
L 50.203125 0 
L 5.40625 0 
L 8.703125 3.296875 
Q 18.90625 13.5 24.59375 19.796875 
Q 30.296875 26.09375 34.140625 32.546875 
Q 38 39 38 44.796875 
Q 38 50.90625 34.390625 54.09375 
Q 30.796875 57.296875 25.59375 57.296875 
Q 21.5 57.296875 18.75 55.59375 
Q 16 53.90625 14.75 51.296875 
Q 13.5 48.703125 13.5 46.09375 
Q 13.5 39.703125 17.40625 35.59375 
L 11.5 30.203125 
Q 8.203125 32.203125 6.140625 36.953125 
Q 4.09375 41.703125 4.09375 45.90625 
Q 4.09375 51.40625 6.84375 56.15625 
Q 9.59375 60.90625 14.796875 63.75 
Q 20 66.59375 27.203125 66.59375 
Q 33.296875 66.59375 38.046875 63.75 
Q 42.796875 60.90625 45.390625 56.09375 
Q 48 51.296875 48 45.59375 
Q 48 39.90625 45.296875 34.203125 
Q 42.59375 28.5 38.640625 23.5 
Q 34.703125 18.5 28.09375 11.09375 
L 26.59375 9.40625 
z
" id="JosefinSans-Regular-50"/>
      </defs>
      <g style="fill:#262626;" transform="translate(206.669193 282.212885)scale(0.14 -0.14)">
       <use xlink:href="#JosefinSans-Regular-48"/>
       <use x="62.399994" xlink:href="#JosefinSans-Regular-46"/>
       <use x="79.299988" xlink:href="#JosefinSans-Regular-50"/>
      </g>
     </g>
    </g>
    <g id="xtick_3">
     <g id="line2d_5">
      <path clip-path="url(#p316b0f5d98)" d="M 367.792231 267.862885 
L 367.792231 3.00024 
" style="fill:none;stroke:#cccccc;stroke-dasharray:0.8,1.32;stroke-dashoffset:0;stroke-width:0.8;"/>
     </g>
     <g id="line2d_6"/>
     <g id="text_3">
      <!-- 0.4 -->
      <defs>
       <path d="M 50.09375 23.40625 
L 50.09375 15.90625 
L 41.5 15.90625 
L 41.5 0 
L 31.796875 0 
L 31.796875 15.90625 
L 1.296875 15.90625 
L 1.296875 16 
L 41.40625 66.59375 
L 41.5 66.59375 
L 41.5 23.40625 
z
M 31.796875 23.40625 
L 31.796875 43.90625 
L 15.90625 23.40625 
z
" id="JosefinSans-Regular-52"/>
      </defs>
      <g style="fill:#262626;" transform="translate(358.488794 282.212885)scale(0.14 -0.14)">
       <use xlink:href="#JosefinSans-Regular-48"/>
       <use x="62.399994" xlink:href="#JosefinSans-Regular-46"/>
       <use x="79.299988" xlink:href="#JosefinSans-Regular-52"/>
      </g>
     </g>
    </g>
    <g id="xtick_4">
     <g id="line2d_7">
      <path clip-path="url(#p316b0f5d98)" d="M 519.548394 267.862885 
L 519.548394 3.00024 
" style="fill:none;stroke:#cccccc;stroke-dasharray:0.8,1.32;stroke-dashoffset:0;stroke-width:0.8;"/>
     </g>
     <g id="line2d_8"/>
     <g id="text_4">
      <!-- 0.6 -->
      <defs>
       <path d="M 30.59375 42.203125 
Q 35.703125 42.203125 40.25 39.453125 
Q 44.796875 36.703125 47.59375 31.890625 
Q 50.40625 27.09375 50.40625 21.203125 
Q 50.40625 14.703125 47.203125 9.703125 
Q 44 4.703125 38.703125 1.953125 
Q 33.40625 -0.796875 27.40625 -0.796875 
Q 20.703125 -0.796875 15.34375 2.390625 
Q 10 5.59375 6.890625 11.5 
Q 3.796875 17.40625 3.796875 25.296875 
Q 3.796875 37.203125 12.25 47.5 
Q 20.703125 57.796875 34.09375 66.40625 
L 40.59375 59.296875 
Q 31.703125 54.90625 25.703125 49.046875 
Q 19.703125 43.203125 16.90625 37 
Q 22.09375 42.203125 30.59375 42.203125 
z
M 27 7.90625 
Q 32.703125 7.90625 36.546875 11.59375 
Q 40.40625 15.296875 40.40625 21.203125 
Q 40.40625 26.90625 36.546875 30.453125 
Q 32.703125 34 27 34 
Q 23.40625 34 20.34375 32.453125 
Q 17.296875 30.90625 15.5 28.25 
Q 13.703125 25.59375 13.703125 22.5 
L 13.703125 20.703125 
Q 13.703125 17.296875 15.5 14.34375 
Q 17.296875 11.40625 20.34375 9.65625 
Q 23.40625 7.90625 27 7.90625 
z
" id="JosefinSans-Regular-54"/>
      </defs>
      <g style="fill:#262626;" transform="translate(510.181519 282.212885)scale(0.14 -0.14)">
       <use xlink:href="#JosefinSans-Regular-48"/>
       <use x="62.399994" xlink:href="#JosefinSans-Regular-46"/>
       <use x="79.299988" xlink:href="#JosefinSans-Regular-54"/>
      </g>
     </g>
    </g>
    <g id="xtick_5">
     <g id="line2d_9">
      <path clip-path="url(#p316b0f5d98)" d="M 671.304557 267.862885 
L 671.304557 3.00024 
" style="fill:none;stroke:#cccccc;stroke-dasharray:0.8,1.32;stroke-dashoffset:0;stroke-width:0.8;"/>
     </g>
     <g id="line2d_10"/>
     <g id="text_5">
      <!-- 0.8 -->
      <defs>
       <path d="M 2.796875 20.796875 
Q 2.796875 27.703125 6.59375 32.546875 
Q 10.40625 37.40625 15.703125 39.59375 
Q 12.40625 41.703125 10.59375 44.546875 
Q 8.796875 47.40625 8.796875 51.5 
Q 8.796875 55.796875 11.046875 59.25 
Q 13.296875 62.703125 17.25 64.640625 
Q 21.203125 66.59375 26.09375 66.59375 
Q 30.90625 66.59375 34.90625 64.640625 
Q 38.90625 62.703125 41.203125 59.34375 
Q 43.5 56 43.5 51.90625 
Q 43.5 47.59375 41.703125 44.75 
Q 39.90625 41.90625 36.5 39.59375 
Q 41.90625 37.296875 45.703125 32.4375 
Q 49.5 27.59375 49.5 20.796875 
Q 49.5 15.09375 46.390625 10.140625 
Q 43.296875 5.203125 37.890625 2.203125 
Q 32.5 -0.796875 26 -0.796875 
Q 19.5 -0.796875 14.203125 2.140625 
Q 8.90625 5.09375 5.84375 10.09375 
Q 2.796875 15.09375 2.796875 20.796875 
z
M 18.203125 50.40625 
Q 18.203125 47.296875 20.640625 45.09375 
Q 23.09375 42.90625 26.296875 42.90625 
Q 29.5 42.90625 31.84375 45.09375 
Q 34.203125 47.296875 34.203125 50.40625 
Q 34.203125 53.90625 31.890625 56.203125 
Q 29.59375 58.5 26.296875 58.5 
Q 23 58.5 20.59375 56.203125 
Q 18.203125 53.90625 18.203125 50.40625 
z
M 12.703125 21.203125 
Q 12.703125 17.5 14.5 14.34375 
Q 16.296875 11.203125 19.34375 9.296875 
Q 22.40625 7.40625 26 7.40625 
Q 29.703125 7.40625 32.84375 9.296875 
Q 36 11.203125 37.890625 14.34375 
Q 39.796875 17.5 39.796875 21.203125 
Q 39.796875 24.90625 38 28 
Q 36.203125 31.09375 33.046875 32.9375 
Q 29.90625 34.796875 26.203125 34.796875 
Q 22.59375 34.796875 19.5 33 
Q 16.40625 31.203125 14.546875 28.046875 
Q 12.703125 24.90625 12.703125 21.203125 
z
" id="JosefinSans-Regular-56"/>
      </defs>
      <g style="fill:#262626;" transform="translate(662.0919 282.212885)scale(0.14 -0.14)">
       <use xlink:href="#JosefinSans-Regular-48"/>
       <use x="62.399994" xlink:href="#JosefinSans-Regular-46"/>
       <use x="79.299988" xlink:href="#JosefinSans-Regular-56"/>
      </g>
     </g>
    </g>
    <g id="xtick_6">
     <g id="line2d_11">
      <path clip-path="url(#p316b0f5d98)" d="M 823.060719 267.862885 
L 823.060719 3.00024 
" style="fill:none;stroke:#cccccc;stroke-dasharray:0.8,1.32;stroke-dashoffset:0;stroke-width:0.8;"/>
     </g>
     <g id="line2d_12"/>
     <g id="text_6">
      <!-- 1.0 -->
      <defs>
       <path d="M 22.59375 65.796875 
L 22.59375 0 
L 12.796875 0 
L 12.796875 56.5 
L 5.296875 56.5 
L 5.296875 65.796875 
z
" id="JosefinSans-Regular-49"/>
      </defs>
      <g style="fill:#262626;" transform="translate(815.198844 282.212885)scale(0.14 -0.14)">
       <use xlink:href="#JosefinSans-Regular-49"/>
       <use x="32.999985" xlink:href="#JosefinSans-Regular-46"/>
       <use x="49.899979" xlink:href="#JosefinSans-Regular-48"/>
      </g>
     </g>
    </g>
   </g>
   <g id="matplotlib.axis_2">
    <g id="ytick_1">
     <g id="line2d_13">
      <path clip-path="url(#p316b0f5d98)" d="M 26.340865 255.823674 
L 860.99976 255.823674 
" style="fill:none;stroke:#cccccc;stroke-dasharray:0.8,1.32;stroke-dashoffset:0;stroke-width:0.8;"/>
     </g>
     <g id="line2d_14"/>
     <g id="text_7">
      <!-- 0.0 -->
      <g style="fill:#262626;" transform="translate(3.00024 261.248674)scale(0.14 -0.14)">
       <use xlink:href="#JosefinSans-Regular-48"/>
       <use x="62.399994" xlink:href="#JosefinSans-Regular-46"/>
       <use x="79.299988" xlink:href="#JosefinSans-Regular-48"/>
      </g>
     </g>
    </g>
    <g id="ytick_2">
     <g id="line2d_15">
      <path clip-path="url(#p316b0f5d98)" d="M 26.340865 211.744843 
L 860.99976 211.744843 
" style="fill:none;stroke:#cccccc;stroke-dasharray:0.8,1.32;stroke-dashoffset:0;stroke-width:0.8;"/>
     </g>
     <g id="line2d_16"/>
     <g id="text_8">
      <!-- 0.5 -->
      <defs>
       <path d="M 25.703125 43 
Q 32.203125 43 36.84375 40.09375 
Q 41.5 37.203125 43.890625 32.34375 
Q 46.296875 27.5 46.296875 21.5 
Q 46.296875 15.296875 43.4375 10.1875 
Q 40.59375 5.09375 35.640625 2.140625 
Q 30.703125 -0.796875 24.5 -0.796875 
Q 19.40625 -0.796875 14.5 1.09375 
Q 9.59375 3 6.5 6 
L 11.703125 13.59375 
Q 13.703125 11.296875 17 9.890625 
Q 20.296875 8.5 23.703125 8.5 
Q 29.203125 8.5 32.75 12.046875 
Q 36.296875 15.59375 36.296875 21.203125 
Q 36.296875 27.296875 32.9375 31.046875 
Q 29.59375 34.796875 23.40625 34.796875 
Q 20.09375 34.796875 17.046875 33.84375 
Q 14 32.90625 10.703125 31 
L 10.59375 31 
L 10.59375 65.796875 
L 42.09375 65.796875 
L 42.09375 56.5 
L 19 56.5 
L 19 42.203125 
Q 22.203125 43 25.703125 43 
z
" id="JosefinSans-Regular-53"/>
      </defs>
      <g style="fill:#262626;" transform="translate(4.415553 217.169843)scale(0.14 -0.14)">
       <use xlink:href="#JosefinSans-Regular-48"/>
       <use x="62.399994" xlink:href="#JosefinSans-Regular-46"/>
       <use x="79.299988" xlink:href="#JosefinSans-Regular-53"/>
      </g>
     </g>
    </g>
    <g id="ytick_3">
     <g id="line2d_17">
      <path clip-path="url(#p316b0f5d98)" d="M 26.340865 167.666013 
L 860.99976 167.666013 
" style="fill:none;stroke:#cccccc;stroke-dasharray:0.8,1.32;stroke-dashoffset:0;stroke-width:0.8;"/>
     </g>
     <g id="line2d_18"/>
     <g id="text_9">
      <!-- 1.0 -->
      <g style="fill:#262626;" transform="translate(7.117115 173.091013)scale(0.14 -0.14)">
       <use xlink:href="#JosefinSans-Regular-49"/>
       <use x="32.999985" xlink:href="#JosefinSans-Regular-46"/>
       <use x="49.899979" xlink:href="#JosefinSans-Regular-48"/>
      </g>
     </g>
    </g>
    <g id="ytick_4">
     <g id="line2d_19">
      <path clip-path="url(#p316b0f5d98)" d="M 26.340865 123.587182 
L 860.99976 123.587182 
" style="fill:none;stroke:#cccccc;stroke-dasharray:0.8,1.32;stroke-dashoffset:0;stroke-width:0.8;"/>
     </g>
     <g id="line2d_20"/>
     <g id="text_10">
      <!-- 1.5 -->
      <g style="fill:#262626;" transform="translate(8.532427 129.012182)scale(0.14 -0.14)">
       <use xlink:href="#JosefinSans-Regular-49"/>
       <use x="32.999985" xlink:href="#JosefinSans-Regular-46"/>
       <use x="49.899979" xlink:href="#JosefinSans-Regular-53"/>
      </g>
     </g>
    </g>
    <g id="ytick_5">
     <g id="line2d_21">
      <path clip-path="url(#p316b0f5d98)" d="M 26.340865 79.508352 
L 860.99976 79.508352 
" style="fill:none;stroke:#cccccc;stroke-dasharray:0.8,1.32;stroke-dashoffset:0;stroke-width:0.8;"/>
     </g>
     <g id="line2d_22"/>
     <g id="text_11">
      <!-- 2.0 -->
      <g style="fill:#262626;" transform="translate(4.107115 84.933352)scale(0.14 -0.14)">
       <use xlink:href="#JosefinSans-Regular-50"/>
       <use x="54.499985" xlink:href="#JosefinSans-Regular-46"/>
       <use x="71.399979" xlink:href="#JosefinSans-Regular-48"/>
      </g>
     </g>
    </g>
    <g id="ytick_6">
     <g id="line2d_23">
      <path clip-path="url(#p316b0f5d98)" d="M 26.340865 35.429521 
L 860.99976 35.429521 
" style="fill:none;stroke:#cccccc;stroke-dasharray:0.8,1.32;stroke-dashoffset:0;stroke-width:0.8;"/>
     </g>
     <g id="line2d_24"/>
     <g id="text_12">
      <!-- 2.5 -->
      <g style="fill:#262626;" transform="translate(5.522427 40.854521)scale(0.14 -0.14)">
       <use xlink:href="#JosefinSans-Regular-50"/>
       <use x="54.499985" xlink:href="#JosefinSans-Regular-46"/>
       <use x="71.399979" xlink:href="#JosefinSans-Regular-53"/>
      </g>
     </g>
    </g>
   </g>
   <g id="PolyCollection_1">
    <defs>
     <path d="M 170.600774 -32.176326 
L 170.600774 -40.92326 
L 171.816504 -40.90924 
L 173.032234 -40.881272 
L 174.247964 -40.856342 
L 175.463694 -40.803698 
L 176.679424 -40.746545 
L 177.895154 -40.669789 
L 179.110884 -40.581137 
L 180.326614 -40.481124 
L 181.542344 -40.387196 
L 182.758074 -40.269039 
L 183.973804 -40.141862 
L 185.189534 -40.006458 
L 186.405264 -39.888932 
L 187.620994 -39.743714 
L 188.836724 -39.593469 
L 190.052454 -39.439197 
L 191.268184 -39.281924 
L 192.483914 -39.122698 
L 193.699644 -38.962578 
L 194.915374 -38.802632 
L 196.131104 -38.643928 
L 197.346834 -38.5128 
L 198.562564 -38.37228 
L 199.778294 -38.22968 
L 200.994024 -38.093335 
L 202.209754 -37.964328 
L 203.425484 -37.843713 
L 204.641214 -37.732513 
L 205.856944 -37.631712 
L 207.072674 -37.559095 
L 208.288404 -37.48459 
L 209.504134 -37.423534 
L 210.719864 -37.376746 
L 211.935594 -37.34498 
L 213.151324 -37.328923 
L 214.367054 -37.329184 
L 215.582784 -37.363141 
L 216.798514 -37.400275 
L 218.014244 -37.455447 
L 219.229974 -37.528961 
L 220.445704 -37.621027 
L 221.661434 -37.71729 
L 222.877164 -37.857178 
L 224.092894 -38.008296 
L 225.308624 -38.177714 
L 226.524354 -38.36516 
L 227.740084 -38.578666 
L 228.955814 -38.802246 
L 230.171544 -39.050958 
L 231.387274 -39.308608 
L 232.603004 -39.58163 
L 233.818734 -39.869118 
L 235.034464 -40.170065 
L 236.250194 -40.483369 
L 237.465924 -40.807834 
L 238.681654 -41.142181 
L 239.897384 -41.485052 
L 241.113114 -41.835019 
L 242.328844 -42.190592 
L 243.544574 -42.550232 
L 244.760304 -42.912354 
L 245.976034 -43.292189 
L 247.191764 -43.657137 
L 248.407494 -44.006781 
L 249.623224 -44.348846 
L 250.838954 -44.710285 
L 252.054684 -45.089659 
L 253.270414 -45.439113 
L 254.486143 -45.779037 
L 255.701873 -46.116605 
L 256.917603 -46.435151 
L 258.133333 -46.74082 
L 259.349063 -47.041036 
L 260.564793 -47.327831 
L 261.780523 -47.600594 
L 262.996253 -47.850416 
L 264.211983 -48.084007 
L 265.427713 -48.300962 
L 266.643443 -48.526267 
L 267.859173 -48.721736 
L 269.074903 -48.893604 
L 270.290633 -49.049267 
L 271.506363 -49.189015 
L 272.722093 -49.313253 
L 273.937823 -49.430923 
L 275.153553 -49.52717 
L 276.369283 -49.595505 
L 277.585013 -49.67619 
L 278.800743 -49.737846 
L 280.016473 -49.79717 
L 281.232203 -49.839776 
L 282.447933 -49.899331 
L 283.663663 -49.930589 
L 284.879393 -49.95653 
L 286.095123 -49.995303 
L 287.310853 -50.034092 
L 288.526583 -50.057733 
L 289.742313 -50.082044 
L 290.958043 -50.108351 
L 292.173773 -50.137938 
L 293.389503 -50.172033 
L 294.605233 -50.211799 
L 295.820963 -50.266743 
L 297.036693 -50.322378 
L 298.252423 -50.386853 
L 299.468153 -50.460978 
L 300.683883 -50.579141 
L 301.899613 -50.705258 
L 303.115343 -50.872876 
L 304.331073 -51.019689 
L 305.546803 -51.174072 
L 306.762533 -51.343627 
L 307.978263 -51.537032 
L 309.193993 -51.755791 
L 310.409723 -51.976215 
L 311.625453 -52.212744 
L 312.841183 -52.473671 
L 314.056913 -52.74328 
L 315.272643 -53.028495 
L 316.488373 -53.337338 
L 317.704103 -53.670686 
L 318.919833 -54.00426 
L 320.135563 -54.351946 
L 321.351293 -54.721525 
L 322.567023 -55.096815 
L 323.782753 -55.484317 
L 324.998483 -55.883255 
L 326.214213 -56.301237 
L 327.429943 -56.738775 
L 328.645673 -57.179698 
L 329.861403 -57.638988 
L 331.077133 -58.102872 
L 332.292863 -58.56955 
L 333.508593 -59.052751 
L 334.724323 -59.544692 
L 335.940053 -60.077353 
L 337.155783 -60.596722 
L 338.371512 -61.101369 
L 339.587242 -61.637582 
L 340.802972 -62.189564 
L 342.018702 -62.733307 
L 343.234432 -63.269785 
L 344.450162 -63.821394 
L 345.665892 -64.377046 
L 346.881622 -64.936444 
L 348.097352 -65.5077 
L 349.313082 -66.083424 
L 350.528812 -66.680299 
L 351.744542 -67.275615 
L 352.960272 -67.876639 
L 354.176002 -68.444876 
L 355.391732 -69.042199 
L 356.607462 -69.659938 
L 357.823192 -70.274098 
L 359.038922 -70.900245 
L 360.254652 -71.522786 
L 361.470382 -72.140425 
L 362.686112 -72.785364 
L 363.901842 -73.421628 
L 365.117572 -74.063578 
L 366.333302 -74.742446 
L 367.549032 -75.413056 
L 368.764762 -76.073349 
L 369.980492 -76.746221 
L 371.196222 -77.416198 
L 372.411952 -78.084496 
L 373.627682 -78.775079 
L 374.843412 -79.488192 
L 376.059142 -80.176285 
L 377.274872 -80.89352 
L 378.490602 -81.610238 
L 379.706332 -82.309908 
L 380.922062 -83.056165 
L 382.137792 -83.812309 
L 383.353522 -84.562185 
L 384.569252 -85.330252 
L 385.784982 -86.093001 
L 387.000712 -86.881997 
L 388.216442 -87.658096 
L 389.432172 -88.458737 
L 390.647902 -89.311947 
L 391.863632 -90.157509 
L 393.079362 -91.034728 
L 394.295092 -91.921839 
L 395.510822 -92.801811 
L 396.726552 -93.713711 
L 397.942282 -94.618654 
L 399.158012 -95.555532 
L 400.373742 -96.527377 
L 401.589472 -97.487025 
L 402.805202 -98.474541 
L 404.020932 -99.491618 
L 405.236662 -100.614749 
L 406.452392 -101.698233 
L 407.668122 -102.815477 
L 408.883852 -103.913574 
L 410.099582 -105.086817 
L 411.315312 -106.314896 
L 412.531042 -107.545566 
L 413.746772 -108.825987 
L 414.962502 -110.108595 
L 416.178232 -111.441514 
L 417.393962 -112.787714 
L 418.609692 -114.186783 
L 419.825422 -115.616024 
L 421.041152 -117.082676 
L 422.256882 -118.587883 
L 423.472611 -120.119444 
L 424.688341 -121.761088 
L 425.904071 -123.45339 
L 427.119801 -125.171905 
L 428.335531 -126.948234 
L 429.551261 -128.734596 
L 430.766991 -130.577386 
L 431.982721 -132.46156 
L 433.198451 -134.418679 
L 434.414181 -136.437186 
L 435.629911 -138.49351 
L 436.845641 -140.585245 
L 438.061371 -142.743085 
L 439.277101 -144.929108 
L 440.492831 -147.172097 
L 441.708561 -149.485036 
L 442.924291 -151.813579 
L 444.140021 -154.211984 
L 445.355751 -156.654033 
L 446.571481 -159.160139 
L 447.787211 -161.689442 
L 449.002941 -164.261855 
L 450.218671 -166.867006 
L 451.434401 -169.4846 
L 452.650131 -172.134625 
L 453.865861 -174.805629 
L 455.081591 -177.491935 
L 456.297321 -180.155109 
L 457.513051 -182.797899 
L 458.728781 -185.464438 
L 459.944511 -188.120907 
L 461.160241 -190.80794 
L 462.375971 -193.459817 
L 463.591701 -196.083815 
L 464.807431 -198.717139 
L 466.023161 -201.270198 
L 467.238891 -203.795858 
L 468.454621 -206.296756 
L 469.670351 -208.747208 
L 470.886081 -211.108554 
L 472.101811 -213.436824 
L 473.317541 -215.691358 
L 474.533271 -217.835329 
L 475.749001 -219.966301 
L 476.964731 -221.970423 
L 478.180461 -223.89706 
L 479.396191 -225.727504 
L 480.611921 -227.448175 
L 481.827651 -229.079279 
L 483.043381 -230.60425 
L 484.259111 -232.064575 
L 485.474841 -233.439098 
L 486.690571 -234.695393 
L 487.906301 -235.832401 
L 489.122031 -236.979093 
L 490.337761 -237.950447 
L 491.553491 -238.85407 
L 492.769221 -239.682818 
L 493.984951 -240.3918 
L 495.200681 -241.065897 
L 496.416411 -241.623927 
L 497.632141 -242.099892 
L 498.847871 -242.512293 
L 500.063601 -242.857159 
L 501.279331 -243.180063 
L 502.495061 -243.414417 
L 503.710791 -243.594253 
L 504.926521 -243.751163 
L 506.142251 -243.861873 
L 507.357981 -243.916245 
L 508.57371 -243.950601 
L 509.78944 -243.961637 
L 511.00517 -244.010943 
L 512.2209 -243.985358 
L 513.43663 -244.008642 
L 514.65236 -243.97674 
L 515.86809 -243.995004 
L 517.08382 -243.991293 
L 518.29955 -244.021482 
L 519.51528 -244.003137 
L 520.73101 -244.008753 
L 521.94674 -244.031189 
L 523.16247 -244.083341 
L 524.3782 -244.187541 
L 525.59393 -244.327879 
L 526.80966 -244.472648 
L 528.02539 -244.678385 
L 529.24112 -244.892374 
L 530.45685 -245.146608 
L 531.67258 -245.403099 
L 532.88831 -245.704865 
L 534.10404 -246.027462 
L 535.31977 -246.396505 
L 536.5355 -246.8016 
L 537.75123 -247.220167 
L 538.96696 -247.636303 
L 540.18269 -248.107965 
L 541.39842 -248.58753 
L 542.61415 -249.111177 
L 543.82988 -249.638308 
L 545.04561 -250.221768 
L 546.26134 -250.829579 
L 547.47707 -251.393672 
L 548.6928 -252.004871 
L 549.90853 -252.596921 
L 551.12426 -253.213691 
L 552.33999 -253.833197 
L 553.55572 -254.434614 
L 554.77145 -255.044889 
L 555.98718 -255.687572 
L 557.20291 -256.287059 
L 558.41864 -256.899574 
L 559.63437 -257.474681 
L 560.8501 -258.050584 
L 562.06583 -258.529775 
L 563.28156 -259.039649 
L 564.49729 -259.582331 
L 565.71302 -260.069694 
L 566.92875 -260.486617 
L 568.14448 -260.856897 
L 569.36021 -261.217411 
L 570.57594 -261.550285 
L 571.79167 -261.901769 
L 573.0074 -262.185775 
L 574.22313 -262.447038 
L 575.43886 -262.686233 
L 576.65459 -262.880508 
L 577.87032 -263.026406 
L 579.08605 -263.114464 
L 580.30178 -263.151915 
L 581.51751 -263.129067 
L 582.73324 -263.090194 
L 583.94897 -263.033351 
L 585.1647 -262.925902 
L 586.38043 -262.803787 
L 587.59616 -262.651785 
L 588.81189 -262.439324 
L 590.02762 -262.199256 
L 591.24335 -261.915259 
L 592.45908 -261.652774 
L 593.674809 -261.374841 
L 594.890539 -261.026759 
L 596.106269 -260.663701 
L 597.321999 -260.286832 
L 598.537729 -259.87577 
L 599.753459 -259.465167 
L 600.969189 -259.010509 
L 602.184919 -258.552082 
L 603.400649 -258.06882 
L 604.616379 -257.619889 
L 605.832109 -257.127954 
L 607.047839 -256.631568 
L 608.263569 -256.154651 
L 609.479299 -255.651568 
L 610.695029 -255.171103 
L 611.910759 -254.682856 
L 613.126489 -254.215093 
L 614.342219 -253.726436 
L 615.557949 -253.243423 
L 616.773679 -252.746696 
L 617.989409 -252.235666 
L 619.205139 -251.762206 
L 620.420869 -251.286021 
L 621.636599 -250.771338 
L 622.852329 -250.262146 
L 624.068059 -249.777148 
L 625.283789 -249.239095 
L 626.499519 -248.710493 
L 627.715249 -248.203533 
L 628.930979 -247.63583 
L 630.146709 -247.052707 
L 631.362439 -246.480173 
L 632.578169 -245.838773 
L 633.793899 -245.261134 
L 635.009629 -244.619207 
L 636.225359 -243.938307 
L 637.441089 -243.251996 
L 638.656819 -242.519751 
L 639.872549 -241.731013 
L 641.088279 -240.870075 
L 642.304009 -240.010937 
L 643.519739 -239.087825 
L 644.735469 -238.123864 
L 645.951199 -237.043631 
L 647.166929 -235.986072 
L 648.382659 -234.884794 
L 649.598389 -233.672544 
L 650.814119 -232.485891 
L 652.029849 -231.181558 
L 653.245579 -229.884956 
L 654.461309 -228.500371 
L 655.677039 -227.106312 
L 656.892769 -225.627204 
L 658.108499 -224.055804 
L 659.324229 -222.4783 
L 660.539959 -220.848504 
L 661.755689 -219.122891 
L 662.971419 -217.392103 
L 664.187149 -215.603462 
L 665.402879 -213.764501 
L 666.618609 -211.885213 
L 667.834339 -209.932403 
L 669.050069 -208.001185 
L 670.265799 -205.978433 
L 671.481529 -204.034037 
L 672.697259 -201.976538 
L 673.912989 -199.957048 
L 675.128719 -197.891891 
L 676.344449 -195.877377 
L 677.560179 -193.830462 
L 678.775908 -191.809604 
L 679.991638 -189.743699 
L 681.207368 -187.661715 
L 682.423098 -185.596866 
L 683.638828 -183.566716 
L 684.854558 -181.520451 
L 686.070288 -179.507542 
L 687.286018 -177.506503 
L 688.501748 -175.567642 
L 689.717478 -173.644315 
L 690.933208 -171.729133 
L 692.148938 -169.841687 
L 693.364668 -167.991646 
L 694.580398 -166.182501 
L 695.796128 -164.405654 
L 697.011858 -162.651042 
L 698.227588 -160.920126 
L 699.443318 -159.21997 
L 700.659048 -157.542905 
L 701.874778 -155.889277 
L 703.090508 -154.244601 
L 704.306238 -152.653985 
L 705.521968 -151.083429 
L 706.737698 -149.554018 
L 707.953428 -148.040073 
L 709.169158 -146.569835 
L 710.384888 -145.116538 
L 711.600618 -143.685803 
L 712.816348 -142.233885 
L 714.032078 -140.816199 
L 715.247808 -139.419982 
L 716.463538 -138.043483 
L 717.679268 -136.653866 
L 718.894998 -135.272087 
L 720.110728 -133.925227 
L 721.326458 -132.520608 
L 722.542188 -131.173916 
L 723.757918 -129.8396 
L 724.973648 -128.492911 
L 726.189378 -127.141496 
L 727.405108 -125.770189 
L 728.620838 -124.373217 
L 729.836568 -122.98182 
L 731.052298 -121.59388 
L 732.268028 -120.179854 
L 733.483758 -118.778554 
L 734.699488 -117.412453 
L 735.915218 -116.033971 
L 737.130948 -114.648522 
L 738.346678 -113.226655 
L 739.562408 -111.793777 
L 740.778138 -110.390933 
L 741.993868 -108.970903 
L 743.209598 -107.562173 
L 744.425328 -106.127359 
L 745.641058 -104.737059 
L 746.856788 -103.306372 
L 748.072518 -101.877254 
L 749.288248 -100.445971 
L 750.503978 -99.032817 
L 751.719708 -97.651273 
L 752.935438 -96.285289 
L 754.151168 -94.913003 
L 755.366898 -93.559238 
L 756.582628 -92.203246 
L 757.798358 -90.910691 
L 759.014088 -89.604996 
L 760.229818 -88.30894 
L 761.445548 -87.011347 
L 762.661278 -85.768038 
L 763.877007 -84.547594 
L 765.092737 -83.353427 
L 766.308467 -82.221416 
L 767.524197 -81.076113 
L 768.739927 -79.98921 
L 769.955657 -78.947346 
L 771.171387 -77.934903 
L 772.387117 -76.95524 
L 773.602847 -76.04636 
L 774.818577 -75.161326 
L 776.034307 -74.340541 
L 777.250037 -73.540346 
L 778.465767 -72.8091 
L 779.681497 -72.147253 
L 780.897227 -71.533779 
L 782.112957 -70.978688 
L 783.328687 -70.458196 
L 784.544417 -69.997229 
L 785.760147 -69.618188 
L 786.975877 -69.340119 
L 788.191607 -69.086422 
L 789.407337 -68.885538 
L 790.623067 -68.725721 
L 791.838797 -68.655999 
L 791.838797 -32.176326 
L 791.838797 -32.176326 
L 790.623067 -32.176326 
L 789.407337 -32.176326 
L 788.191607 -32.176326 
L 786.975877 -32.176326 
L 785.760147 -32.176326 
L 784.544417 -32.176326 
L 783.328687 -32.176326 
L 782.112957 -32.176326 
L 780.897227 -32.176326 
L 779.681497 -32.176326 
L 778.465767 -32.176326 
L 777.250037 -32.176326 
L 776.034307 -32.176326 
L 774.818577 -32.176326 
L 773.602847 -32.176326 
L 772.387117 -32.176326 
L 771.171387 -32.176326 
L 769.955657 -32.176326 
L 768.739927 -32.176326 
L 767.524197 -32.176326 
L 766.308467 -32.176326 
L 765.092737 -32.176326 
L 763.877007 -32.176326 
L 762.661278 -32.176326 
L 761.445548 -32.176326 
L 760.229818 -32.176326 
L 759.014088 -32.176326 
L 757.798358 -32.176326 
L 756.582628 -32.176326 
L 755.366898 -32.176326 
L 754.151168 -32.176326 
L 752.935438 -32.176326 
L 751.719708 -32.176326 
L 750.503978 -32.176326 
L 749.288248 -32.176326 
L 748.072518 -32.176326 
L 746.856788 -32.176326 
L 745.641058 -32.176326 
L 744.425328 -32.176326 
L 743.209598 -32.176326 
L 741.993868 -32.176326 
L 740.778138 -32.176326 
L 739.562408 -32.176326 
L 738.346678 -32.176326 
L 737.130948 -32.176326 
L 735.915218 -32.176326 
L 734.699488 -32.176326 
L 733.483758 -32.176326 
L 732.268028 -32.176326 
L 731.052298 -32.176326 
L 729.836568 -32.176326 
L 728.620838 -32.176326 
L 727.405108 -32.176326 
L 726.189378 -32.176326 
L 724.973648 -32.176326 
L 723.757918 -32.176326 
L 722.542188 -32.176326 
L 721.326458 -32.176326 
L 720.110728 -32.176326 
L 718.894998 -32.176326 
L 717.679268 -32.176326 
L 716.463538 -32.176326 
L 715.247808 -32.176326 
L 714.032078 -32.176326 
L 712.816348 -32.176326 
L 711.600618 -32.176326 
L 710.384888 -32.176326 
L 709.169158 -32.176326 
L 707.953428 -32.176326 
L 706.737698 -32.176326 
L 705.521968 -32.176326 
L 704.306238 -32.176326 
L 703.090508 -32.176326 
L 701.874778 -32.176326 
L 700.659048 -32.176326 
L 699.443318 -32.176326 
L 698.227588 -32.176326 
L 697.011858 -32.176326 
L 695.796128 -32.176326 
L 694.580398 -32.176326 
L 693.364668 -32.176326 
L 692.148938 -32.176326 
L 690.933208 -32.176326 
L 689.717478 -32.176326 
L 688.501748 -32.176326 
L 687.286018 -32.176326 
L 686.070288 -32.176326 
L 684.854558 -32.176326 
L 683.638828 -32.176326 
L 682.423098 -32.176326 
L 681.207368 -32.176326 
L 679.991638 -32.176326 
L 678.775908 -32.176326 
L 677.560179 -32.176326 
L 676.344449 -32.176326 
L 675.128719 -32.176326 
L 673.912989 -32.176326 
L 672.697259 -32.176326 
L 671.481529 -32.176326 
L 670.265799 -32.176326 
L 669.050069 -32.176326 
L 667.834339 -32.176326 
L 666.618609 -32.176326 
L 665.402879 -32.176326 
L 664.187149 -32.176326 
L 662.971419 -32.176326 
L 661.755689 -32.176326 
L 660.539959 -32.176326 
L 659.324229 -32.176326 
L 658.108499 -32.176326 
L 656.892769 -32.176326 
L 655.677039 -32.176326 
L 654.461309 -32.176326 
L 653.245579 -32.176326 
L 652.029849 -32.176326 
L 650.814119 -32.176326 
L 649.598389 -32.176326 
L 648.382659 -32.176326 
L 647.166929 -32.176326 
L 645.951199 -32.176326 
L 644.735469 -32.176326 
L 643.519739 -32.176326 
L 642.304009 -32.176326 
L 641.088279 -32.176326 
L 639.872549 -32.176326 
L 638.656819 -32.176326 
L 637.441089 -32.176326 
L 636.225359 -32.176326 
L 635.009629 -32.176326 
L 633.793899 -32.176326 
L 632.578169 -32.176326 
L 631.362439 -32.176326 
L 630.146709 -32.176326 
L 628.930979 -32.176326 
L 627.715249 -32.176326 
L 626.499519 -32.176326 
L 625.283789 -32.176326 
L 624.068059 -32.176326 
L 622.852329 -32.176326 
L 621.636599 -32.176326 
L 620.420869 -32.176326 
L 619.205139 -32.176326 
L 617.989409 -32.176326 
L 616.773679 -32.176326 
L 615.557949 -32.176326 
L 614.342219 -32.176326 
L 613.126489 -32.176326 
L 611.910759 -32.176326 
L 610.695029 -32.176326 
L 609.479299 -32.176326 
L 608.263569 -32.176326 
L 607.047839 -32.176326 
L 605.832109 -32.176326 
L 604.616379 -32.176326 
L 603.400649 -32.176326 
L 602.184919 -32.176326 
L 600.969189 -32.176326 
L 599.753459 -32.176326 
L 598.537729 -32.176326 
L 597.321999 -32.176326 
L 596.106269 -32.176326 
L 594.890539 -32.176326 
L 593.674809 -32.176326 
L 592.45908 -32.176326 
L 591.24335 -32.176326 
L 590.02762 -32.176326 
L 588.81189 -32.176326 
L 587.59616 -32.176326 
L 586.38043 -32.176326 
L 585.1647 -32.176326 
L 583.94897 -32.176326 
L 582.73324 -32.176326 
L 581.51751 -32.176326 
L 580.30178 -32.176326 
L 579.08605 -32.176326 
L 577.87032 -32.176326 
L 576.65459 -32.176326 
L 575.43886 -32.176326 
L 574.22313 -32.176326 
L 573.0074 -32.176326 
L 571.79167 -32.176326 
L 570.57594 -32.176326 
L 569.36021 -32.176326 
L 568.14448 -32.176326 
L 566.92875 -32.176326 
L 565.71302 -32.176326 
L 564.49729 -32.176326 
L 563.28156 -32.176326 
L 562.06583 -32.176326 
L 560.8501 -32.176326 
L 559.63437 -32.176326 
L 558.41864 -32.176326 
L 557.20291 -32.176326 
L 555.98718 -32.176326 
L 554.77145 -32.176326 
L 553.55572 -32.176326 
L 552.33999 -32.176326 
L 551.12426 -32.176326 
L 549.90853 -32.176326 
L 548.6928 -32.176326 
L 547.47707 -32.176326 
L 546.26134 -32.176326 
L 545.04561 -32.176326 
L 543.82988 -32.176326 
L 542.61415 -32.176326 
L 541.39842 -32.176326 
L 540.18269 -32.176326 
L 538.96696 -32.176326 
L 537.75123 -32.176326 
L 536.5355 -32.176326 
L 535.31977 -32.176326 
L 534.10404 -32.176326 
L 532.88831 -32.176326 
L 531.67258 -32.176326 
L 530.45685 -32.176326 
L 529.24112 -32.176326 
L 528.02539 -32.176326 
L 526.80966 -32.176326 
L 525.59393 -32.176326 
L 524.3782 -32.176326 
L 523.16247 -32.176326 
L 521.94674 -32.176326 
L 520.73101 -32.176326 
L 519.51528 -32.176326 
L 518.29955 -32.176326 
L 517.08382 -32.176326 
L 515.86809 -32.176326 
L 514.65236 -32.176326 
L 513.43663 -32.176326 
L 512.2209 -32.176326 
L 511.00517 -32.176326 
L 509.78944 -32.176326 
L 508.57371 -32.176326 
L 507.357981 -32.176326 
L 506.142251 -32.176326 
L 504.926521 -32.176326 
L 503.710791 -32.176326 
L 502.495061 -32.176326 
L 501.279331 -32.176326 
L 500.063601 -32.176326 
L 498.847871 -32.176326 
L 497.632141 -32.176326 
L 496.416411 -32.176326 
L 495.200681 -32.176326 
L 493.984951 -32.176326 
L 492.769221 -32.176326 
L 491.553491 -32.176326 
L 490.337761 -32.176326 
L 489.122031 -32.176326 
L 487.906301 -32.176326 
L 486.690571 -32.176326 
L 485.474841 -32.176326 
L 484.259111 -32.176326 
L 483.043381 -32.176326 
L 481.827651 -32.176326 
L 480.611921 -32.176326 
L 479.396191 -32.176326 
L 478.180461 -32.176326 
L 476.964731 -32.176326 
L 475.749001 -32.176326 
L 474.533271 -32.176326 
L 473.317541 -32.176326 
L 472.101811 -32.176326 
L 470.886081 -32.176326 
L 469.670351 -32.176326 
L 468.454621 -32.176326 
L 467.238891 -32.176326 
L 466.023161 -32.176326 
L 464.807431 -32.176326 
L 463.591701 -32.176326 
L 462.375971 -32.176326 
L 461.160241 -32.176326 
L 459.944511 -32.176326 
L 458.728781 -32.176326 
L 457.513051 -32.176326 
L 456.297321 -32.176326 
L 455.081591 -32.176326 
L 453.865861 -32.176326 
L 452.650131 -32.176326 
L 451.434401 -32.176326 
L 450.218671 -32.176326 
L 449.002941 -32.176326 
L 447.787211 -32.176326 
L 446.571481 -32.176326 
L 445.355751 -32.176326 
L 444.140021 -32.176326 
L 442.924291 -32.176326 
L 441.708561 -32.176326 
L 440.492831 -32.176326 
L 439.277101 -32.176326 
L 438.061371 -32.176326 
L 436.845641 -32.176326 
L 435.629911 -32.176326 
L 434.414181 -32.176326 
L 433.198451 -32.176326 
L 431.982721 -32.176326 
L 430.766991 -32.176326 
L 429.551261 -32.176326 
L 428.335531 -32.176326 
L 427.119801 -32.176326 
L 425.904071 -32.176326 
L 424.688341 -32.176326 
L 423.472611 -32.176326 
L 422.256882 -32.176326 
L 421.041152 -32.176326 
L 419.825422 -32.176326 
L 418.609692 -32.176326 
L 417.393962 -32.176326 
L 416.178232 -32.176326 
L 414.962502 -32.176326 
L 413.746772 -32.176326 
L 412.531042 -32.176326 
L 411.315312 -32.176326 
L 410.099582 -32.176326 
L 408.883852 -32.176326 
L 407.668122 -32.176326 
L 406.452392 -32.176326 
L 405.236662 -32.176326 
L 404.020932 -32.176326 
L 402.805202 -32.176326 
L 401.589472 -32.176326 
L 400.373742 -32.176326 
L 399.158012 -32.176326 
L 397.942282 -32.176326 
L 396.726552 -32.176326 
L 395.510822 -32.176326 
L 394.295092 -32.176326 
L 393.079362 -32.176326 
L 391.863632 -32.176326 
L 390.647902 -32.176326 
L 389.432172 -32.176326 
L 388.216442 -32.176326 
L 387.000712 -32.176326 
L 385.784982 -32.176326 
L 384.569252 -32.176326 
L 383.353522 -32.176326 
L 382.137792 -32.176326 
L 380.922062 -32.176326 
L 379.706332 -32.176326 
L 378.490602 -32.176326 
L 377.274872 -32.176326 
L 376.059142 -32.176326 
L 374.843412 -32.176326 
L 373.627682 -32.176326 
L 372.411952 -32.176326 
L 371.196222 -32.176326 
L 369.980492 -32.176326 
L 368.764762 -32.176326 
L 367.549032 -32.176326 
L 366.333302 -32.176326 
L 365.117572 -32.176326 
L 363.901842 -32.176326 
L 362.686112 -32.176326 
L 361.470382 -32.176326 
L 360.254652 -32.176326 
L 359.038922 -32.176326 
L 357.823192 -32.176326 
L 356.607462 -32.176326 
L 355.391732 -32.176326 
L 354.176002 -32.176326 
L 352.960272 -32.176326 
L 351.744542 -32.176326 
L 350.528812 -32.176326 
L 349.313082 -32.176326 
L 348.097352 -32.176326 
L 346.881622 -32.176326 
L 345.665892 -32.176326 
L 344.450162 -32.176326 
L 343.234432 -32.176326 
L 342.018702 -32.176326 
L 340.802972 -32.176326 
L 339.587242 -32.176326 
L 338.371512 -32.176326 
L 337.155783 -32.176326 
L 335.940053 -32.176326 
L 334.724323 -32.176326 
L 333.508593 -32.176326 
L 332.292863 -32.176326 
L 331.077133 -32.176326 
L 329.861403 -32.176326 
L 328.645673 -32.176326 
L 327.429943 -32.176326 
L 326.214213 -32.176326 
L 324.998483 -32.176326 
L 323.782753 -32.176326 
L 322.567023 -32.176326 
L 321.351293 -32.176326 
L 320.135563 -32.176326 
L 318.919833 -32.176326 
L 317.704103 -32.176326 
L 316.488373 -32.176326 
L 315.272643 -32.176326 
L 314.056913 -32.176326 
L 312.841183 -32.176326 
L 311.625453 -32.176326 
L 310.409723 -32.176326 
L 309.193993 -32.176326 
L 307.978263 -32.176326 
L 306.762533 -32.176326 
L 305.546803 -32.176326 
L 304.331073 -32.176326 
L 303.115343 -32.176326 
L 301.899613 -32.176326 
L 300.683883 -32.176326 
L 299.468153 -32.176326 
L 298.252423 -32.176326 
L 297.036693 -32.176326 
L 295.820963 -32.176326 
L 294.605233 -32.176326 
L 293.389503 -32.176326 
L 292.173773 -32.176326 
L 290.958043 -32.176326 
L 289.742313 -32.176326 
L 288.526583 -32.176326 
L 287.310853 -32.176326 
L 286.095123 -32.176326 
L 284.879393 -32.176326 
L 283.663663 -32.176326 
L 282.447933 -32.176326 
L 281.232203 -32.176326 
L 280.016473 -32.176326 
L 278.800743 -32.176326 
L 277.585013 -32.176326 
L 276.369283 -32.176326 
L 275.153553 -32.176326 
L 273.937823 -32.176326 
L 272.722093 -32.176326 
L 271.506363 -32.176326 
L 270.290633 -32.176326 
L 269.074903 -32.176326 
L 267.859173 -32.176326 
L 266.643443 -32.176326 
L 265.427713 -32.176326 
L 264.211983 -32.176326 
L 262.996253 -32.176326 
L 261.780523 -32.176326 
L 260.564793 -32.176326 
L 259.349063 -32.176326 
L 258.133333 -32.176326 
L 256.917603 -32.176326 
L 255.701873 -32.176326 
L 254.486143 -32.176326 
L 253.270414 -32.176326 
L 252.054684 -32.176326 
L 250.838954 -32.176326 
L 249.623224 -32.176326 
L 248.407494 -32.176326 
L 247.191764 -32.176326 
L 245.976034 -32.176326 
L 244.760304 -32.176326 
L 243.544574 -32.176326 
L 242.328844 -32.176326 
L 241.113114 -32.176326 
L 239.897384 -32.176326 
L 238.681654 -32.176326 
L 237.465924 -32.176326 
L 236.250194 -32.176326 
L 235.034464 -32.176326 
L 233.818734 -32.176326 
L 232.603004 -32.176326 
L 231.387274 -32.176326 
L 230.171544 -32.176326 
L 228.955814 -32.176326 
L 227.740084 -32.176326 
L 226.524354 -32.176326 
L 225.308624 -32.176326 
L 224.092894 -32.176326 
L 222.877164 -32.176326 
L 221.661434 -32.176326 
L 220.445704 -32.176326 
L 219.229974 -32.176326 
L 218.014244 -32.176326 
L 216.798514 -32.176326 
L 215.582784 -32.176326 
L 214.367054 -32.176326 
L 213.151324 -32.176326 
L 211.935594 -32.176326 
L 210.719864 -32.176326 
L 209.504134 -32.176326 
L 208.288404 -32.176326 
L 207.072674 -32.176326 
L 205.856944 -32.176326 
L 204.641214 -32.176326 
L 203.425484 -32.176326 
L 202.209754 -32.176326 
L 200.994024 -32.176326 
L 199.778294 -32.176326 
L 198.562564 -32.176326 
L 197.346834 -32.176326 
L 196.131104 -32.176326 
L 194.915374 -32.176326 
L 193.699644 -32.176326 
L 192.483914 -32.176326 
L 191.268184 -32.176326 
L 190.052454 -32.176326 
L 188.836724 -32.176326 
L 187.620994 -32.176326 
L 186.405264 -32.176326 
L 185.189534 -32.176326 
L 183.973804 -32.176326 
L 182.758074 -32.176326 
L 181.542344 -32.176326 
L 180.326614 -32.176326 
L 179.110884 -32.176326 
L 177.895154 -32.176326 
L 176.679424 -32.176326 
L 175.463694 -32.176326 
L 174.247964 -32.176326 
L 173.032234 -32.176326 
L 171.816504 -32.176326 
L 170.600774 -32.176326 
z
" id="m0f5ab97c9f" style="stroke:#81aca4;stroke-opacity:0;"/>
    </defs>
    <g clip-path="url(#p316b0f5d98)">
     <use style="fill:#81aca4;fill-opacity:0;stroke:#81aca4;stroke-opacity:0;" x="0" xlink:href="#m0f5ab97c9f" y="288"/>
    </g>
   </g>
   <g id="line2d_25">
    <path clip-path="url(#p316b0f5d98)" d="M 170.600774 247.07674 
L 176.679424 247.253455 
L 182.758074 247.730961 
L 191.268184 248.718076 
L 200.994024 249.906665 
L 207.072674 250.440905 
L 211.935594 250.65502 
L 215.582784 250.636859 
L 220.445704 250.378973 
L 224.092894 249.991704 
L 227.740084 249.421334 
L 232.603004 248.41837 
L 237.465924 247.192166 
L 244.760304 245.087646 
L 252.054684 242.910341 
L 258.133333 241.25918 
L 262.996253 240.149584 
L 267.859173 239.278264 
L 272.722093 238.686747 
L 277.585013 238.32381 
L 284.879393 238.04347 
L 299.468153 237.539022 
L 304.331073 236.980311 
L 307.978263 236.462968 
L 314.056913 235.25672 
L 317.704103 234.329314 
L 322.567023 232.903185 
L 327.429943 231.261225 
L 333.508593 228.947249 
L 338.371512 226.898631 
L 348.097352 222.4923 
L 356.607462 218.340062 
L 365.117572 213.936422 
L 379.706332 205.690092 
L 388.216442 200.341904 
L 391.863632 197.842491 
L 399.158012 192.444468 
L 404.020932 188.508382 
L 411.315312 181.685104 
L 414.962502 177.891405 
L 418.609692 173.813217 
L 422.256882 169.412117 
L 424.688341 166.238912 
L 428.335531 161.051766 
L 431.982721 155.53844 
L 435.629911 149.50649 
L 439.277101 143.070892 
L 442.924291 136.186421 
L 446.571481 128.839861 
L 451.434401 118.5154 
L 467.238891 84.204142 
L 470.886081 76.891446 
L 473.317541 72.308642 
L 476.964731 66.029577 
L 479.396191 62.272496 
L 481.827651 58.920721 
L 484.259111 55.935425 
L 486.690571 53.304607 
L 489.122031 51.020907 
L 491.553491 49.14593 
L 493.984951 47.6082 
L 496.416411 46.376073 
L 498.847871 45.487707 
L 501.279331 44.819937 
L 503.710791 44.405747 
L 506.142251 44.138127 
L 511.00517 43.989057 
L 517.08382 44.008707 
L 524.3782 43.812459 
L 528.02539 43.321615 
L 531.67258 42.596901 
L 535.31977 41.603495 
L 540.18269 39.892035 
L 543.82988 38.361692 
L 552.33999 34.166803 
L 562.06583 29.470225 
L 566.92875 27.513383 
L 571.79167 26.098231 
L 575.43886 25.313767 
L 577.87032 24.973594 
L 580.30178 24.848085 
L 583.94897 24.966649 
L 587.59616 25.348215 
L 591.24335 26.084741 
L 594.890539 26.973241 
L 599.753459 28.534833 
L 607.047839 31.368432 
L 620.420869 36.713979 
L 630.146709 40.947293 
L 633.793899 42.738866 
L 637.441089 44.748004 
L 639.872549 46.268987 
L 643.519739 48.912175 
L 645.951199 50.956369 
L 648.382659 53.115206 
L 653.245579 58.115044 
L 656.892769 62.372796 
L 660.539959 67.151496 
L 665.402879 74.235499 
L 669.050069 79.998815 
L 690.933208 116.270867 
L 694.580398 121.817499 
L 699.443318 128.78003 
L 704.306238 135.346015 
L 707.953428 139.959927 
L 714.032078 147.183801 
L 722.542188 156.826084 
L 728.620838 163.626783 
L 745.641058 183.262941 
L 752.935438 191.714711 
L 757.798358 197.089309 
L 762.661278 202.231962 
L 766.308467 205.778584 
L 768.739927 208.01079 
L 772.387117 211.04476 
L 776.034307 213.659459 
L 778.465767 215.1909 
L 780.897227 216.466221 
L 783.328687 217.541804 
L 785.760147 218.381812 
L 789.407337 219.114462 
L 791.838797 219.344001 
L 791.838797 219.344001 
" style="fill:none;stroke:#81aca4;stroke-linecap:round;stroke-width:1.5;"/>
   </g>
   <g id="line2d_26">
    <path clip-path="url(#p316b0f5d98)" d="M 64.279906 255.823674 
L 71.944358 255.823674 
L 79.608811 255.823669 
L 87.273264 255.823622 
L 94.937716 255.823389 
L 102.602169 255.822622 
L 110.266622 255.820632 
L 117.931074 255.816248 
L 125.595527 255.80766 
L 133.25998 255.792268 
L 140.924432 255.766527 
L 148.588885 255.725809 
L 156.253338 255.664281 
L 163.91779 255.574801 
L 171.582243 255.448832 
L 179.246696 255.276396 
L 186.911148 255.046037 
L 194.575601 254.744832 
L 202.240054 254.358421 
L 209.904506 253.87107 
L 217.568959 253.265772 
L 225.233412 252.524371 
L 232.897864 251.627719 
L 240.562317 250.55586 
L 248.22677 249.288249 
L 255.891222 247.80398 
L 263.555675 246.082052 
L 271.220128 244.101648 
L 278.88458 241.842429 
L 286.549033 239.284847 
L 294.213486 236.410462 
L 301.877938 233.202273 
L 309.542391 229.645046 
L 317.206844 225.725646 
L 324.871296 221.433358 
L 332.535749 216.760207 
L 340.200202 211.701262 
L 347.864654 206.254919 
L 355.529107 200.423175 
L 363.19356 194.211861 
L 370.858012 187.630865 
L 378.522465 180.694309 
L 386.186918 173.420697 
L 393.85137 165.83302 
L 401.515823 157.958827 
L 409.180276 149.830242 
L 416.844728 141.483936 
L 424.509181 132.961054 
L 432.173634 124.307082 
L 439.838086 115.571666 
L 447.502539 106.808374 
L 455.166991 98.074402 
L 462.831444 89.430223 
L 470.495897 80.939179 
L 478.160349 72.667023 
L 485.824802 64.681395 
L 493.489255 57.051255 
L 501.153707 49.846261 
L 508.81816 43.136096 
L 516.482613 36.989755 
L 524.147065 31.474788 
L 531.811518 26.656508 
L 539.475971 22.59717 
L 547.140423 19.355121 
L 554.804876 16.983944 
L 562.469329 15.531578 
L 570.133781 15.039451 
L 577.798234 15.541615 
L 585.462687 17.063904 
L 593.127139 19.623125 
L 600.791592 23.226289 
L 608.456045 27.869903 
L 616.120497 33.539335 
L 623.78495 40.208263 
L 631.449403 47.838232 
L 639.113855 56.378331 
L 646.778308 65.765017 
L 654.442761 75.92209 
L 662.107213 86.76086 
L 669.771666 98.180515 
L 677.436119 110.068722 
L 685.100571 122.302475 
L 692.765024 134.749233 
L 700.429477 147.268358 
L 708.093929 159.712897 
L 715.758382 171.93173 
L 723.422835 183.772119 
L 731.087287 195.082686 
L 738.75174 205.716872 
L 746.416193 215.536887 
L 754.080645 224.418212 
L 761.745098 232.254687 
L 769.409551 238.964213 
L 777.074003 244.495131 
L 784.738456 248.833311 
L 792.402909 252.009994 
L 800.067361 254.110451 
L 807.731814 255.283488 
L 815.396267 255.751865 
L 823.060719 255.823674 
" style="fill:none;stroke:#cfcbbf;stroke-linecap:round;stroke-width:1.5;"/>
   </g>
   <g id="legend_1">
    <g id="line2d_27">
     <path d="M 38.940865 21.55024 
L 66.940865 21.55024 
" style="fill:none;stroke:#81aca4;stroke-linecap:round;stroke-width:1.5;"/>
    </g>
    <g id="line2d_28"/>
    <g id="text_13">
     <!-- Metropolis approximation -->
     <defs>
      <path d="M 82.296875 74.59375 
L 82.296875 0 
L 72.703125 0 
L 72.703125 46.796875 
L 46.09375 9.09375 
L 45.90625 9.09375 
L 19.796875 45.5 
L 19.796875 0 
L 10.40625 0 
L 10.40625 74.59375 
L 10.5 74.59375 
L 46.09375 24.203125 
L 82.203125 74.59375 
z
" id="JosefinSans-Regular-77"/>
      <path d="M 27.5 7 
Q 32.703125 7 37.59375 10.59375 
L 41.90625 3.703125 
Q 38.59375 1.5 34.75 0.25 
Q 30.90625 -1 27.296875 -1 
Q 20.40625 -1 15.25 1.84375 
Q 10.09375 4.703125 7.296875 9.703125 
Q 4.5 14.703125 4.5 21 
Q 4.5 27.09375 7.546875 32.140625 
Q 10.59375 37.203125 15.890625 40.140625 
Q 21.203125 43.09375 27.5 43.09375 
Q 35.59375 43.09375 41.046875 38.34375 
Q 46.5 33.59375 48.5 25.09375 
L 15.703125 13.59375 
Q 17.5 10.5 20.546875 8.75 
Q 23.59375 7 27.5 7 
z
M 26.796875 35.703125 
Q 21.09375 35.703125 17.390625 31.703125 
Q 13.703125 27.703125 13.703125 21.5 
Q 13.703125 20 13.796875 19.203125 
L 37.90625 28.09375 
Q 36.40625 31.5 33.65625 33.59375 
Q 30.90625 35.703125 26.796875 35.703125 
z
" id="JosefinSans-Regular-101"/>
      <path d="M 21.5 59.59375 
L 21.5 41.296875 
L 32.796875 41.296875 
L 32.796875 33.90625 
L 21.5 33.90625 
L 21.5 0 
L 12.09375 0 
L 12.09375 33.90625 
L 4.5 33.90625 
L 4.5 41.296875 
L 12.09375 41.296875 
L 12.09375 59.59375 
z
" id="JosefinSans-Regular-116"/>
      <path d="M 17.09375 31.59375 
Q 18.703125 35 21.640625 37.59375 
Q 24.59375 40.203125 27.890625 41.59375 
Q 31.203125 43 33.703125 43.09375 
L 33.296875 33.796875 
Q 28.796875 34 25.140625 32 
Q 21.5 30 19.453125 26.453125 
Q 17.40625 22.90625 17.40625 18.90625 
L 17.40625 0 
L 8.09375 0 
L 8.09375 41.40625 
L 16.40625 41.40625 
L 17.09375 31.59375 
z
" id="JosefinSans-Regular-114"/>
      <path d="M 4.5 21.09375 
Q 4.5 27.203125 7.453125 32.25 
Q 10.40625 37.296875 15.65625 40.1875 
Q 20.90625 43.09375 27.5 43.09375 
Q 34.09375 43.09375 39.25 40.1875 
Q 44.40625 37.296875 47.25 32.296875 
Q 50.09375 27.296875 50.09375 21.09375 
Q 50.09375 14.90625 47.25 9.84375 
Q 44.40625 4.796875 39.203125 1.890625 
Q 34 -1 27.296875 -1 
Q 20.796875 -1 15.59375 1.75 
Q 10.40625 4.5 7.453125 9.5 
Q 4.5 14.5 4.5 21.09375 
z
M 13.90625 21 
Q 13.90625 17.09375 15.65625 13.796875 
Q 17.40625 10.5 20.453125 8.59375 
Q 23.5 6.703125 27.203125 6.703125 
Q 33 6.703125 36.796875 10.796875 
Q 40.59375 14.90625 40.59375 21 
Q 40.59375 27.09375 36.796875 31.25 
Q 33 35.40625 27.203125 35.40625 
Q 23.40625 35.40625 20.40625 33.453125 
Q 17.40625 31.5 15.65625 28.203125 
Q 13.90625 24.90625 13.90625 21 
z
" id="JosefinSans-Regular-111"/>
      <path d="M 34.296875 43.09375 
Q 40.09375 43.09375 44.796875 40.296875 
Q 49.5 37.5 52.203125 32.453125 
Q 54.90625 27.40625 54.90625 20.796875 
Q 54.90625 14.296875 52 9.34375 
Q 49.09375 4.40625 44 1.703125 
Q 38.90625 -1 32.59375 -1 
Q 28.09375 -1 24 0.953125 
Q 19.90625 2.90625 17.40625 6.203125 
L 17.40625 -19.90625 
L 8.09375 -19.90625 
L 8.09375 42.09375 
L 16.203125 42.09375 
L 17 35.09375 
Q 20.203125 38.703125 24.640625 40.890625 
Q 29.09375 43.09375 34.296875 43.09375 
z
M 30.796875 6.5 
Q 34.703125 6.5 38.046875 8.34375 
Q 41.40625 10.203125 43.40625 13.453125 
Q 45.40625 16.703125 45.40625 20.703125 
Q 45.40625 24.796875 43.546875 28.09375 
Q 41.703125 31.40625 38.5 33.296875 
Q 35.296875 35.203125 31.40625 35.203125 
Q 26.09375 35.203125 22.34375 32.25 
Q 18.59375 29.296875 17.40625 24.296875 
L 17.40625 17.40625 
Q 18.203125 12.59375 21.953125 9.546875 
Q 25.703125 6.5 30.796875 6.5 
z
" id="JosefinSans-Regular-112"/>
      <path d="M 17.40625 77.5 
L 17.40625 0 
L 8.09375 0 
L 8.09375 77.5 
z
" id="JosefinSans-Regular-108"/>
      <path d="M 17.40625 41.40625 
L 17.40625 0 
L 8.09375 0 
L 8.09375 41.40625 
z
M 7.40625 56.296875 
Q 7.40625 58.5 9.09375 60 
Q 10.796875 61.5 13 61.5 
Q 15.203125 61.5 16.84375 60 
Q 18.5 58.5 18.5 56.296875 
Q 18.5 54.109375 16.84375 52.609375 
Q 15.203125 51.109375 13 51.109375 
Q 10.796875 51.109375 9.09375 52.609375 
Q 7.40625 54.109375 7.40625 56.296875 
z
" id="JosefinSans-Regular-105"/>
      <path d="M 19.796875 -0.90625 
Q 15.203125 -0.90625 11.046875 0.6875 
Q 6.90625 2.296875 4.296875 5.40625 
L 8.296875 10.796875 
Q 10.796875 8.40625 13.546875 7.09375 
Q 16.296875 5.796875 19 5.796875 
Q 22.296875 5.796875 24.390625 7.09375 
Q 26.5 8.40625 26.5 11.09375 
Q 26.5 13.203125 25.203125 14.5 
Q 23.90625 15.796875 22.25 16.390625 
Q 20.59375 17 16.703125 18.203125 
Q 6.09375 21.59375 6.09375 30.296875 
Q 6.09375 35.5 9.9375 39.203125 
Q 13.796875 42.90625 20.703125 42.90625 
Q 25.09375 42.90625 28.5 41.796875 
Q 31.90625 40.703125 34.796875 38.296875 
L 31.09375 32.59375 
Q 29.5 34.296875 27.046875 35.296875 
Q 24.59375 36.296875 22.40625 36.40625 
Q 19.59375 36.40625 17.59375 35.046875 
Q 15.59375 33.703125 15.59375 31.40625 
Q 15.59375 29.5 16.890625 28.25 
Q 18.203125 27 19.59375 26.453125 
Q 21 25.90625 25.09375 24.59375 
Q 30.203125 22.90625 33.046875 20.203125 
Q 35.90625 17.5 35.90625 12.90625 
Q 35.90625 6.90625 31.703125 3 
Q 27.5 -0.90625 19.796875 -0.90625 
z
" id="JosefinSans-Regular-115"/>
      <path id="JosefinSans-Regular-32"/>
      <path d="M 50.59375 41.40625 
L 50.59375 0 
L 41.296875 0 
L 41.296875 6.796875 
Q 39.09375 3.90625 34.890625 1.453125 
Q 30.703125 -1 25.40625 -1 
Q 19.5 -1 14.75 1.546875 
Q 10 4.09375 7.25 9 
Q 4.5 13.90625 4.5 20.703125 
Q 4.5 27.5 7.34375 32.546875 
Q 10.203125 37.59375 15.046875 40.34375 
Q 19.90625 43.09375 25.796875 43.09375 
Q 31.09375 43.09375 35 40.796875 
Q 38.90625 38.5 41.296875 34.796875 
L 42 41.40625 
z
M 27.90625 6.703125 
Q 33 6.703125 36.640625 9.546875 
Q 40.296875 12.40625 41.296875 17.296875 
L 41.296875 25.5 
Q 40.09375 29.90625 36.296875 32.65625 
Q 32.5 35.40625 27.59375 35.40625 
Q 23.90625 35.40625 20.75 33.59375 
Q 17.59375 31.796875 15.75 28.546875 
Q 13.90625 25.296875 13.90625 21.203125 
Q 13.90625 17.203125 15.796875 13.890625 
Q 17.703125 10.59375 20.890625 8.640625 
Q 24.09375 6.703125 27.90625 6.703125 
z
" id="JosefinSans-Regular-97"/>
      <path d="M 33.40625 0 
L 22.296875 14.59375 
L 11.90625 0 
L 2.40625 0 
L 17.59375 20.796875 
L 1.90625 41.40625 
L 13.5 41.40625 
L 24.40625 27 
L 33.703125 41.40625 
L 43.09375 41.40625 
L 28.703125 21.296875 
L 44.703125 0 
z
" id="JosefinSans-Regular-120"/>
      <path d="M 61.203125 43.09375 
Q 67.203125 43.09375 70.75 39.6875 
Q 74.296875 36.296875 74.5 30.703125 
L 74.5 0 
L 65.203125 0 
L 65.203125 27.296875 
Q 64.90625 34.59375 58.59375 35 
Q 55 35 52.140625 32.84375 
Q 49.296875 30.703125 47.6875 27.203125 
Q 46.09375 23.703125 46 19.703125 
L 46 0 
L 36.59375 0 
L 36.59375 27.296875 
Q 36.296875 34.59375 29.796875 35 
Q 26.296875 35 23.4375 32.84375 
Q 20.59375 30.703125 19 27.140625 
Q 17.40625 23.59375 17.40625 19.59375 
L 17.40625 0 
L 8.09375 0 
L 8.09375 41.40625 
L 16.5 41.40625 
L 17.203125 33.59375 
Q 19.59375 38.09375 23.75 40.59375 
Q 27.90625 43.09375 33.203125 43.09375 
Q 38.203125 43.09375 41.59375 40.75 
Q 45 38.40625 46 34.296875 
Q 48.59375 38.40625 52.59375 40.75 
Q 56.59375 43.09375 61.203125 43.09375 
z
" id="JosefinSans-Regular-109"/>
      <path d="M 33.796875 43 
Q 39.59375 43 43.390625 39.546875 
Q 47.203125 36.09375 47.296875 30.59375 
L 47.296875 0 
L 37.90625 0 
L 37.90625 27.40625 
Q 37.703125 30.90625 35.796875 32.90625 
Q 33.90625 34.90625 30.09375 35 
Q 24.59375 35 21 30.59375 
Q 17.40625 26.203125 17.40625 19.40625 
L 17.40625 0 
L 8.09375 0 
L 8.09375 41.40625 
L 16.5 41.40625 
L 17.09375 33.40625 
Q 19.296875 37.90625 23.6875 40.453125 
Q 28.09375 43 33.796875 43 
z
" id="JosefinSans-Regular-110"/>
     </defs>
     <g style="fill:#262626;" transform="translate(78.140865 26.45024)scale(0.14 -0.14)">
      <use xlink:href="#JosefinSans-Regular-77"/>
      <use x="92.699982" xlink:href="#JosefinSans-Regular-101"/>
      <use x="144.699966" xlink:href="#JosefinSans-Regular-116"/>
      <use x="180.699951" xlink:href="#JosefinSans-Regular-114"/>
      <use x="218.299942" xlink:href="#JosefinSans-Regular-111"/>
      <use x="272.799927" xlink:href="#JosefinSans-Regular-112"/>
      <use x="332.099915" xlink:href="#JosefinSans-Regular-111"/>
      <use x="386.599899" xlink:href="#JosefinSans-Regular-108"/>
      <use x="412.099884" xlink:href="#JosefinSans-Regular-105"/>
      <use x="437.599869" xlink:href="#JosefinSans-Regular-115"/>
      <use x="478.399857" xlink:href="#JosefinSans-Regular-32"/>
      <use x="509.999847" xlink:href="#JosefinSans-Regular-97"/>
      <use x="568.699844" xlink:href="#JosefinSans-Regular-112"/>
      <use x="627.999832" xlink:href="#JosefinSans-Regular-112"/>
      <use x="687.29982" xlink:href="#JosefinSans-Regular-114"/>
      <use x="724.899811" xlink:href="#JosefinSans-Regular-111"/>
      <use x="779.399796" xlink:href="#JosefinSans-Regular-120"/>
      <use x="825.999786" xlink:href="#JosefinSans-Regular-105"/>
      <use x="851.499771" xlink:href="#JosefinSans-Regular-109"/>
      <use x="933.999756" xlink:href="#JosefinSans-Regular-97"/>
      <use x="992.699753" xlink:href="#JosefinSans-Regular-116"/>
      <use x="1028.699738" xlink:href="#JosefinSans-Regular-105"/>
      <use x="1054.199722" xlink:href="#JosefinSans-Regular-111"/>
      <use x="1108.699707" xlink:href="#JosefinSans-Regular-110"/>
     </g>
    </g>
    <g id="line2d_29">
     <path d="M 38.940865 42.187115 
L 66.940865 42.187115 
" style="fill:none;stroke:#cfcbbf;stroke-linecap:round;stroke-width:1.5;"/>
    </g>
    <g id="line2d_30"/>
    <g id="text_14">
     <!-- True posterior -->
     <defs>
      <path d="M 53.09375 72.296875 
L 53.09375 63 
L 33.703125 63 
L 33.703125 0 
L 24 0 
L 24 63 
L 5.09375 63 
L 5.09375 72.296875 
z
" id="JosefinSans-Regular-84"/>
      <path d="M 46.59375 41.40625 
L 46.59375 0 
L 38.203125 0 
L 37.59375 7.90625 
Q 35.5 3.703125 31.09375 1.046875 
Q 26.703125 -1.59375 21.296875 -1.59375 
Q 15.59375 -1.59375 11.9375 1.84375 
Q 8.296875 5.296875 8.09375 10.796875 
L 8.09375 41.40625 
L 17.40625 41.40625 
L 17.40625 14.09375 
Q 17.59375 10.59375 19.4375 8.546875 
Q 21.296875 6.5 25 6.40625 
Q 28.40625 6.40625 31.203125 8.453125 
Q 34 10.5 35.640625 14.09375 
Q 37.296875 17.703125 37.296875 22.09375 
L 37.296875 41.40625 
z
" id="JosefinSans-Regular-117"/>
     </defs>
     <g style="fill:#262626;" transform="translate(78.140865 47.087115)scale(0.14 -0.14)">
      <use xlink:href="#JosefinSans-Regular-84"/>
      <use x="58.199997" xlink:href="#JosefinSans-Regular-114"/>
      <use x="95.799988" xlink:href="#JosefinSans-Regular-117"/>
      <use x="150.499985" xlink:href="#JosefinSans-Regular-101"/>
      <use x="202.499969" xlink:href="#JosefinSans-Regular-32"/>
      <use x="234.09996" xlink:href="#JosefinSans-Regular-112"/>
      <use x="293.399948" xlink:href="#JosefinSans-Regular-111"/>
      <use x="347.899933" xlink:href="#JosefinSans-Regular-115"/>
      <use x="388.699921" xlink:href="#JosefinSans-Regular-116"/>
      <use x="424.699905" xlink:href="#JosefinSans-Regular-101"/>
      <use x="476.69989" xlink:href="#JosefinSans-Regular-114"/>
      <use x="514.299881" xlink:href="#JosefinSans-Regular-105"/>
      <use x="539.799866" xlink:href="#JosefinSans-Regular-111"/>
      <use x="594.29985" xlink:href="#JosefinSans-Regular-114"/>
     </g>
    </g>
   </g>
  </g>
 </g>
 <defs>
  <clipPath id="p316b0f5d98">
   <rect height="264.862645" width="834.658895" x="26.340865" y="3.00024"/>
  </clipPath>
 </defs>
</svg>
