<?xml version="1.0" encoding="utf-8" standalone="no"?>
<!DOCTYPE svg PUBLIC "-//W3C//DTD SVG 1.1//EN"
  "http://www.w3.org/Graphics/SVG/1.1/DTD/svg11.dtd">
<!-- Created with matplotlib (https://matplotlib.org/) -->
<svg height="288pt" version="1.1" viewBox="0 0 864 288" width="864pt" xmlns="http://www.w3.org/2000/svg" xmlns:xlink="http://www.w3.org/1999/xlink">
 <defs>
  <style type="text/css">
*{stroke-linecap:butt;stroke-linejoin:round;}
  </style>
 </defs>
 <g id="figure_1">
  <g id="patch_1">
   <path d="M 0 288 
L 864 288 
L 864 0 
L 0 0 
z
" style="fill:#ffffff;"/>
  </g>
  <g id="axes_1">
   <g id="patch_2">
    <path d="M 44.374771 250.368666 
L 287.396106 250.368666 
L 287.396106 21.03274 
L 44.374771 21.03274 
z
" style="fill:#ffffff;"/>
   </g>
   <g id="matplotlib.axis_1">
    <g id="xtick_1">
     <g id="line2d_1">
      <path clip-path="url(#pca73f0fb4b)" d="M 55.421196 250.368666 
L 55.421196 21.03274 
" style="fill:none;stroke:#cccccc;stroke-dasharray:0.8,1.32;stroke-dashoffset:0;stroke-width:0.8;"/>
     </g>
     <g id="line2d_2"/>
     <g id="text_1">
      <!-- 0.00 -->
      <defs>
       <path d="M 30.796875 -0.59375 
Q 22.203125 -0.59375 16.046875 4 
Q 9.90625 8.59375 6.75 16.1875 
Q 3.59375 23.796875 3.59375 32.59375 
Q 3.59375 41.40625 6.75 48.90625 
Q 9.90625 56.40625 16.046875 60.953125 
Q 22.203125 65.5 30.796875 65.5 
Q 39.40625 65.5 45.59375 60.953125 
Q 51.796875 56.40625 54.9375 48.84375 
Q 58.09375 41.296875 58.09375 32.59375 
Q 58.09375 23.796875 54.9375 16.1875 
Q 51.796875 8.59375 45.59375 4 
Q 39.40625 -0.59375 30.796875 -0.59375 
z
M 30.796875 1.296875 
Q 37.90625 1.203125 43.65625 5 
Q 49.40625 8.796875 52.75 15.890625 
Q 56.09375 23 56.09375 32.5 
Q 56.09375 42 52.75 49.046875 
Q 49.40625 56.09375 43.65625 59.890625 
Q 37.90625 63.703125 30.796875 63.59375 
Q 23.703125 63.703125 18 59.890625 
Q 12.296875 56.09375 8.9375 49.046875 
Q 5.59375 42 5.59375 32.5 
Q 5.59375 23 8.9375 15.890625 
Q 12.296875 8.796875 18 5 
Q 23.703125 1.203125 30.796875 1.296875 
z
" id="JosefinSans-Thin-48"/>
       <path d="M 7.09375 2.203125 
Q 7.09375 3.203125 7.796875 3.84375 
Q 8.5 4.5 9.40625 4.5 
Q 10.296875 4.5 10.9375 3.84375 
Q 11.59375 3.203125 11.59375 2.203125 
Q 11.59375 1.296875 10.9375 0.640625 
Q 10.296875 0 9.40625 0 
Q 8.5 0 7.796875 0.640625 
Q 7.09375 1.296875 7.09375 2.203125 
z
" id="JosefinSans-Thin-46"/>
      </defs>
      <g style="fill:#262626;" transform="translate(41.161977 264.397104)scale(0.14 -0.14)">
       <use xlink:href="#JosefinSans-Thin-48"/>
       <use x="61.699997" xlink:href="#JosefinSans-Thin-46"/>
       <use x="80.299988" xlink:href="#JosefinSans-Thin-48"/>
       <use x="141.999985" xlink:href="#JosefinSans-Thin-48"/>
      </g>
     </g>
    </g>
    <g id="xtick_2">
     <g id="line2d_3">
      <path clip-path="url(#pca73f0fb4b)" d="M 110.653317 250.368666 
L 110.653317 21.03274 
" style="fill:none;stroke:#cccccc;stroke-dasharray:0.8,1.32;stroke-dashoffset:0;stroke-width:0.8;"/>
     </g>
     <g id="line2d_4"/>
     <g id="text_2">
      <!-- 0.25 -->
      <defs>
       <path d="M 45.296875 1.90625 
L 45.296875 0 
L 5.296875 0 
Q 16.296875 10.59375 23.046875 17.84375 
Q 29.796875 25.09375 34.296875 32.4375 
Q 38.796875 39.796875 38.796875 46.296875 
Q 38.796875 52.59375 36.34375 56.546875 
Q 33.90625 60.5 30.296875 62.25 
Q 26.703125 64 23 64 
Q 17 64 13.390625 61.296875 
Q 9.796875 58.59375 8.34375 54.6875 
Q 6.90625 50.796875 6.90625 46.90625 
Q 6.90625 39.703125 10.796875 35.5 
L 9.59375 34.40625 
Q 4.90625 39.59375 4.90625 46.796875 
Q 4.90625 55.09375 9.75 60.5 
Q 14.59375 65.90625 23.09375 65.90625 
Q 28.296875 65.90625 32.34375 63.40625 
Q 36.40625 60.90625 38.59375 56.453125 
Q 40.796875 52 40.796875 46.40625 
Q 40.796875 40.296875 37.25 33.84375 
Q 33.703125 27.40625 28.640625 21.59375 
Q 23.59375 15.796875 15.296875 7.5 
L 9.796875 1.90625 
z
" id="JosefinSans-Thin-50"/>
       <path d="M 25.703125 39.796875 
Q 31.40625 39.796875 36.046875 37.09375 
Q 40.703125 34.40625 43.34375 29.796875 
Q 46 25.203125 46 19.59375 
Q 46 14.09375 43.25 9.390625 
Q 40.5 4.703125 35.75 1.953125 
Q 31 -0.796875 25.40625 -0.796875 
Q 21.40625 -0.796875 17.65625 0.703125 
Q 13.90625 2.203125 11.09375 4.90625 
L 12.40625 6.203125 
Q 14.796875 3.703125 18.09375 2.34375 
Q 21.40625 1 25.09375 1 
Q 30.203125 1 34.546875 3.546875 
Q 38.90625 6.09375 41.453125 10.390625 
Q 44 14.703125 44 19.59375 
Q 44 24.59375 41.546875 28.84375 
Q 39.09375 33.09375 34.796875 35.546875 
Q 30.5 38 25.296875 38 
Q 22 38 19.046875 36.890625 
Q 16.09375 35.796875 14.09375 34 
L 14 34 
L 14 65.09375 
L 42.90625 65.09375 
L 42.90625 63.203125 
L 15.90625 63.203125 
L 15.90625 37.5 
Q 17.796875 38.5 20.5 39.140625 
Q 23.203125 39.796875 25.703125 39.796875 
z
" id="JosefinSans-Thin-53"/>
      </defs>
      <g style="fill:#262626;" transform="translate(97.760192 264.397104)scale(0.14 -0.14)">
       <use xlink:href="#JosefinSans-Thin-48"/>
       <use x="61.699997" xlink:href="#JosefinSans-Thin-46"/>
       <use x="80.299988" xlink:href="#JosefinSans-Thin-50"/>
       <use x="129.899979" xlink:href="#JosefinSans-Thin-53"/>
      </g>
     </g>
    </g>
    <g id="xtick_3">
     <g id="line2d_5">
      <path clip-path="url(#pca73f0fb4b)" d="M 165.885438 250.368666 
L 165.885438 21.03274 
" style="fill:none;stroke:#cccccc;stroke-dasharray:0.8,1.32;stroke-dashoffset:0;stroke-width:0.8;"/>
     </g>
     <g id="line2d_6"/>
     <g id="text_3">
      <!-- 0.50 -->
      <g style="fill:#262626;" transform="translate(152.144657 264.397104)scale(0.14 -0.14)">
       <use xlink:href="#JosefinSans-Thin-48"/>
       <use x="61.699997" xlink:href="#JosefinSans-Thin-46"/>
       <use x="80.299988" xlink:href="#JosefinSans-Thin-53"/>
       <use x="134.599976" xlink:href="#JosefinSans-Thin-48"/>
      </g>
     </g>
    </g>
    <g id="xtick_4">
     <g id="line2d_7">
      <path clip-path="url(#pca73f0fb4b)" d="M 221.11756 250.368666 
L 221.11756 21.03274 
" style="fill:none;stroke:#cccccc;stroke-dasharray:0.8,1.32;stroke-dashoffset:0;stroke-width:0.8;"/>
     </g>
     <g id="line2d_8"/>
     <g id="text_4">
      <!-- 0.75 -->
      <defs>
       <path d="M 44.796875 65.09375 
L 15.796875 0 
L 13.40625 0 
L 41.796875 63.203125 
L 4.5 63.203125 
L 4.5 65.09375 
z
" id="JosefinSans-Thin-55"/>
      </defs>
      <g style="fill:#262626;" transform="translate(208.364435 264.397104)scale(0.14 -0.14)">
       <use xlink:href="#JosefinSans-Thin-48"/>
       <use x="61.699997" xlink:href="#JosefinSans-Thin-46"/>
       <use x="80.299988" xlink:href="#JosefinSans-Thin-55"/>
       <use x="127.899979" xlink:href="#JosefinSans-Thin-53"/>
      </g>
     </g>
    </g>
    <g id="xtick_5">
     <g id="line2d_9">
      <path clip-path="url(#pca73f0fb4b)" d="M 276.349681 250.368666 
L 276.349681 21.03274 
" style="fill:none;stroke:#cccccc;stroke-dasharray:0.8,1.32;stroke-dashoffset:0;stroke-width:0.8;"/>
     </g>
     <g id="line2d_10"/>
     <g id="text_5">
      <!-- 1.00 -->
      <defs>
       <path d="M 19 65.09375 
L 19 0 
L 17 0 
L 17 63.09375 
L 5.90625 63.09375 
L 5.90625 65.09375 
z
" id="JosefinSans-Thin-49"/>
      </defs>
      <g style="fill:#262626;" transform="translate(264.2539 264.397104)scale(0.14 -0.14)">
       <use xlink:href="#JosefinSans-Thin-49"/>
       <use x="30.799988" xlink:href="#JosefinSans-Thin-46"/>
       <use x="49.399979" xlink:href="#JosefinSans-Thin-48"/>
       <use x="111.099976" xlink:href="#JosefinSans-Thin-48"/>
      </g>
     </g>
    </g>
    <g id="text_6">
     <!-- probability of water -->
     <defs>
      <path d="M 29.40625 38.59375 
Q 34.703125 38.59375 39.203125 35.9375 
Q 43.703125 33.296875 46.296875 28.796875 
Q 48.90625 24.296875 48.90625 18.90625 
Q 48.90625 13.5 46.296875 9.046875 
Q 43.703125 4.59375 39.203125 2 
Q 34.703125 -0.59375 29.296875 -0.59375 
Q 23.40625 -0.59375 18.59375 2.5 
Q 13.796875 5.59375 11.40625 10.703125 
L 11.40625 -18.09375 
L 9.40625 -18.09375 
L 9.40625 37.796875 
L 11.296875 37.796875 
L 11.40625 27 
Q 13.796875 32.203125 18.640625 35.390625 
Q 23.5 38.59375 29.40625 38.59375 
z
M 29.09375 1.09375 
Q 34 1.09375 38.046875 3.5 
Q 42.09375 5.90625 44.5 10 
Q 46.90625 14.09375 46.90625 18.90625 
Q 46.90625 23.796875 44.5 27.9375 
Q 42.09375 32.09375 38.046875 34.5 
Q 34 36.90625 29.203125 36.90625 
Q 24.40625 36.90625 20.34375 34.5 
Q 16.296875 32.09375 13.84375 28.046875 
Q 11.40625 24 11.40625 19.203125 
L 11.40625 18.203125 
Q 11.5 13.59375 13.953125 9.640625 
Q 16.40625 5.703125 20.40625 3.390625 
Q 24.40625 1.09375 29.09375 1.09375 
z
" id="JosefinSans-Thin-112"/>
      <path d="M 11.203125 27.59375 
Q 13 32.59375 17.546875 35.5 
Q 22.09375 38.40625 27.703125 38.5 
L 27.59375 36.703125 
Q 23.203125 36.5 19.5 34.59375 
Q 15.796875 32.703125 13.59375 29.34375 
Q 11.40625 26 11.40625 21.796875 
L 11.40625 0 
L 9.40625 0 
L 9.40625 37.796875 
L 10.90625 37.796875 
L 11.203125 27.59375 
z
" id="JosefinSans-Thin-114"/>
      <path d="M 5.40625 19 
Q 5.40625 24.40625 8.046875 28.90625 
Q 10.703125 33.40625 15.203125 36.046875 
Q 19.703125 38.703125 25.09375 38.703125 
Q 30.5 38.703125 35.046875 36.046875 
Q 39.59375 33.40625 42.25 28.90625 
Q 44.90625 24.40625 44.90625 19 
Q 44.90625 13.59375 42.25 9.09375 
Q 39.59375 4.59375 35.046875 2 
Q 30.5 -0.59375 25.09375 -0.59375 
Q 19.703125 -0.59375 15.140625 1.953125 
Q 10.59375 4.5 8 9 
Q 5.40625 13.5 5.40625 19 
z
M 7.40625 19 
Q 7.40625 14.09375 9.75 10 
Q 12.09375 5.90625 16.140625 3.5 
Q 20.203125 1.09375 25.09375 1.09375 
Q 29.90625 1.09375 33.953125 3.5 
Q 38 5.90625 40.390625 10 
Q 42.796875 14.09375 42.796875 19 
Q 42.796875 23.796875 40.390625 27.9375 
Q 38 32.09375 33.953125 34.5 
Q 29.90625 36.90625 25.09375 36.90625 
Q 20.203125 36.90625 16.09375 34.34375 
Q 12 31.796875 9.703125 27.640625 
Q 7.40625 23.5 7.40625 19 
z
" id="JosefinSans-Thin-111"/>
      <path d="M 29.40625 38.59375 
Q 34.703125 38.59375 39.203125 36 
Q 43.703125 33.40625 46.296875 28.90625 
Q 48.90625 24.40625 48.90625 19 
Q 48.90625 12.796875 46.296875 8.34375 
Q 43.703125 3.90625 39.25 1.65625 
Q 34.796875 -0.59375 29.296875 -0.59375 
Q 23.5 -0.59375 18.640625 2.65625 
Q 13.796875 5.90625 11.40625 11 
L 11.40625 0 
L 9.40625 0 
L 9.40625 75.203125 
L 11.40625 75.203125 
L 11.40625 26.90625 
Q 13.703125 32.203125 18.546875 35.390625 
Q 23.40625 38.59375 29.40625 38.59375 
z
M 29.203125 1.09375 
Q 37.40625 1.09375 42.15625 6.046875 
Q 46.90625 11 46.90625 19 
Q 46.90625 23.796875 44.703125 27.890625 
Q 42.5 32 38.453125 34.453125 
Q 34.40625 36.90625 29.203125 36.90625 
Q 22.40625 36.90625 17.453125 32.703125 
Q 12.5 28.5 11.40625 22.09375 
L 11.40625 17.40625 
Q 11.40625 13.296875 13.84375 9.5 
Q 16.296875 5.703125 20.34375 3.390625 
Q 24.40625 1.09375 29.203125 1.09375 
z
" id="JosefinSans-Thin-98"/>
      <path d="M 44.796875 37.796875 
L 44.796875 0 
L 42.90625 0 
L 42.90625 10.796875 
Q 40.796875 5.796875 35.84375 2.59375 
Q 30.90625 -0.59375 24.90625 -0.59375 
Q 19.59375 -0.59375 15.09375 2 
Q 10.59375 4.59375 8 9.046875 
Q 5.40625 13.5 5.40625 18.90625 
Q 5.40625 25 8.046875 29.453125 
Q 10.703125 33.90625 15.203125 36.25 
Q 19.703125 38.59375 25.203125 38.59375 
Q 31 38.59375 35.796875 35.34375 
Q 40.59375 32.09375 42.90625 26.90625 
L 43.296875 37.796875 
z
M 25.09375 1.09375 
Q 30 1.09375 34.046875 3.296875 
Q 38.09375 5.5 40.5 9.390625 
Q 42.90625 13.296875 42.90625 18.09375 
L 42.90625 22.203125 
Q 41.703125 28.40625 36.640625 32.65625 
Q 31.59375 36.90625 25.09375 36.90625 
Q 20.203125 36.90625 16.140625 34.703125 
Q 12.09375 32.5 9.75 28.390625 
Q 7.40625 24.296875 7.40625 19 
Q 7.40625 14.09375 9.796875 10 
Q 12.203125 5.90625 16.25 3.5 
Q 20.296875 1.09375 25.09375 1.09375 
z
" id="JosefinSans-Thin-97"/>
      <path d="M 11.40625 37.796875 
L 11.40625 0 
L 9.40625 0 
L 9.40625 37.796875 
z
M 8.203125 49.703125 
Q 8.203125 50.609375 8.84375 51.25 
Q 9.5 51.90625 10.5 51.90625 
Q 11.40625 51.90625 12.046875 51.25 
Q 12.703125 50.609375 12.703125 49.703125 
Q 12.703125 48.796875 12.046875 48.140625 
Q 11.40625 47.5 10.5 47.5 
Q 9.59375 47.5 8.890625 48.203125 
Q 8.203125 48.90625 8.203125 49.703125 
z
" id="JosefinSans-Thin-105"/>
      <path d="M 11.40625 75.203125 
L 11.40625 0 
L 9.40625 0 
L 9.40625 75.203125 
z
" id="JosefinSans-Thin-108"/>
      <path d="M 15.296875 54.296875 
L 15.296875 37 
L 27.90625 37 
L 27.90625 35.296875 
L 15.296875 35.296875 
L 15.296875 0 
L 13.296875 0 
L 13.296875 35.296875 
L 4.5 35.296875 
L 4.5 37 
L 13.296875 37 
L 13.296875 54.296875 
z
" id="JosefinSans-Thin-116"/>
      <path d="M 39.703125 37.796875 
L 15.40625 -18.09375 
L 13 -18.09375 
L 20.90625 -0.203125 
L 3.40625 37.796875 
L 5.5 37.796875 
L 21.90625 2.203125 
L 37.5 37.796875 
z
" id="JosefinSans-Thin-121"/>
      <path id="JosefinSans-Thin-32"/>
      <path d="M 11.5 35.703125 
L 5 35.703125 
L 5 37.5 
L 11.5 37.5 
L 11.5 58.5 
Q 11.5 68 14.140625 71.84375 
Q 16.796875 75.703125 22.5 75.703125 
Q 24.40625 75.703125 26.5 74.90625 
L 25.59375 73.5 
Q 24.40625 74.203125 22.59375 74.203125 
Q 17.796875 74.203125 15.640625 70.75 
Q 13.5 67.296875 13.5 58.90625 
L 13.5 37.5 
L 26.5 37.5 
L 26.5 35.703125 
L 13.5 35.703125 
L 13.5 0 
L 11.5 0 
z
" id="JosefinSans-Thin-102"/>
      <path d="M 62.5 37.796875 
L 44.59375 -2.296875 
L 32.5 25.203125 
L 21.296875 -2.296875 
L 3.40625 37.796875 
L 5.40625 37.796875 
L 21.40625 2 
L 31.5 27.09375 
L 26.703125 37.796875 
L 28.703125 37.796875 
L 44.703125 1.796875 
L 60.5 37.796875 
z
" id="JosefinSans-Thin-119"/>
      <path d="M 25.09375 1.09375 
Q 28.59375 1.09375 31.75 2.34375 
Q 34.90625 3.59375 37.296875 5.90625 
L 38.59375 4.5 
Q 35.796875 2.09375 32.34375 0.75 
Q 28.90625 -0.59375 25.09375 -0.59375 
Q 19.59375 -0.59375 15.09375 2 
Q 10.59375 4.59375 8 9.09375 
Q 5.40625 13.59375 5.40625 19 
Q 5.40625 24.40625 8.046875 28.90625 
Q 10.703125 33.40625 15.203125 36.046875 
Q 19.703125 38.703125 25.09375 38.703125 
Q 31.09375 38.703125 35.546875 35.203125 
Q 40 31.703125 42.296875 25.90625 
L 8.703125 12.296875 
Q 10.703125 7.40625 15 4.25 
Q 19.296875 1.09375 25.09375 1.09375 
z
M 25 36.90625 
Q 20.203125 36.90625 16.140625 34.5 
Q 12.09375 32.09375 9.75 28 
Q 7.40625 23.90625 7.40625 19 
Q 7.40625 16.203125 8.09375 14 
L 39.796875 26.796875 
Q 37.5 31.296875 33.640625 34.09375 
Q 29.796875 36.90625 25 36.90625 
z
" id="JosefinSans-Thin-101"/>
     </defs>
     <g style="fill:#262626;" transform="translate(105.565517 282.285697)scale(0.15 -0.15)">
      <use xlink:href="#JosefinSans-Thin-112"/>
      <use x="54.299988" xlink:href="#JosefinSans-Thin-114"/>
      <use x="86.399979" xlink:href="#JosefinSans-Thin-111"/>
      <use x="136.699966" xlink:href="#JosefinSans-Thin-98"/>
      <use x="190.999954" xlink:href="#JosefinSans-Thin-97"/>
      <use x="245.199951" xlink:href="#JosefinSans-Thin-98"/>
      <use x="299.499939" xlink:href="#JosefinSans-Thin-105"/>
      <use x="320.299927" xlink:href="#JosefinSans-Thin-108"/>
      <use x="341.099915" xlink:href="#JosefinSans-Thin-105"/>
      <use x="361.899902" xlink:href="#JosefinSans-Thin-116"/>
      <use x="392.299896" xlink:href="#JosefinSans-Thin-121"/>
      <use x="435.399887" xlink:href="#JosefinSans-Thin-32"/>
      <use x="465.499878" xlink:href="#JosefinSans-Thin-111"/>
      <use x="515.799866" xlink:href="#JosefinSans-Thin-102"/>
      <use x="544.899857" xlink:href="#JosefinSans-Thin-32"/>
      <use x="574.999847" xlink:href="#JosefinSans-Thin-119"/>
      <use x="640.899841" xlink:href="#JosefinSans-Thin-97"/>
      <use x="695.099838" xlink:href="#JosefinSans-Thin-116"/>
      <use x="725.499832" xlink:href="#JosefinSans-Thin-101"/>
      <use x="772.199829" xlink:href="#JosefinSans-Thin-114"/>
     </g>
    </g>
   </g>
   <g id="matplotlib.axis_2">
    <g id="ytick_1">
     <g id="line2d_11">
      <path clip-path="url(#pca73f0fb4b)" d="M 44.374771 239.944306 
L 287.396106 239.944306 
" style="fill:none;stroke:#cccccc;stroke-dasharray:0.8,1.32;stroke-dashoffset:0;stroke-width:0.8;"/>
     </g>
     <g id="line2d_12"/>
     <g id="text_7">
      <!-- 0.0 -->
      <g style="fill:#262626;" transform="translate(20.994771 245.208525)scale(0.14 -0.14)">
       <use xlink:href="#JosefinSans-Thin-48"/>
       <use x="61.699997" xlink:href="#JosefinSans-Thin-46"/>
       <use x="80.299988" xlink:href="#JosefinSans-Thin-48"/>
      </g>
     </g>
    </g>
    <g id="ytick_2">
     <g id="line2d_13">
      <path clip-path="url(#pca73f0fb4b)" d="M 44.374771 201.777884 
L 287.396106 201.777884 
" style="fill:none;stroke:#cccccc;stroke-dasharray:0.8,1.32;stroke-dashoffset:0;stroke-width:0.8;"/>
     </g>
     <g id="line2d_14"/>
     <g id="text_8">
      <!-- 0.5 -->
      <g style="fill:#262626;" transform="translate(22.031646 207.042103)scale(0.14 -0.14)">
       <use xlink:href="#JosefinSans-Thin-48"/>
       <use x="61.699997" xlink:href="#JosefinSans-Thin-46"/>
       <use x="80.299988" xlink:href="#JosefinSans-Thin-53"/>
      </g>
     </g>
    </g>
    <g id="ytick_3">
     <g id="line2d_15">
      <path clip-path="url(#pca73f0fb4b)" d="M 44.374771 163.611462 
L 287.396106 163.611462 
" style="fill:none;stroke:#cccccc;stroke-dasharray:0.8,1.32;stroke-dashoffset:0;stroke-width:0.8;"/>
     </g>
     <g id="line2d_16"/>
     <g id="text_9">
      <!-- 1.0 -->
      <g style="fill:#262626;" transform="translate(25.321646 168.875681)scale(0.14 -0.14)">
       <use xlink:href="#JosefinSans-Thin-49"/>
       <use x="30.799988" xlink:href="#JosefinSans-Thin-46"/>
       <use x="49.399979" xlink:href="#JosefinSans-Thin-48"/>
      </g>
     </g>
    </g>
    <g id="ytick_4">
     <g id="line2d_17">
      <path clip-path="url(#pca73f0fb4b)" d="M 44.374771 125.445041 
L 287.396106 125.445041 
" style="fill:none;stroke:#cccccc;stroke-dasharray:0.8,1.32;stroke-dashoffset:0;stroke-width:0.8;"/>
     </g>
     <g id="line2d_18"/>
     <g id="text_10">
      <!-- 1.5 -->
      <g style="fill:#262626;" transform="translate(26.358521 130.709259)scale(0.14 -0.14)">
       <use xlink:href="#JosefinSans-Thin-49"/>
       <use x="30.799988" xlink:href="#JosefinSans-Thin-46"/>
       <use x="49.399979" xlink:href="#JosefinSans-Thin-53"/>
      </g>
     </g>
    </g>
    <g id="ytick_5">
     <g id="line2d_19">
      <path clip-path="url(#pca73f0fb4b)" d="M 44.374771 87.278619 
L 287.396106 87.278619 
" style="fill:none;stroke:#cccccc;stroke-dasharray:0.8,1.32;stroke-dashoffset:0;stroke-width:0.8;"/>
     </g>
     <g id="line2d_20"/>
     <g id="text_11">
      <!-- 2.0 -->
      <g style="fill:#262626;" transform="translate(22.690084 92.542838)scale(0.14 -0.14)">
       <use xlink:href="#JosefinSans-Thin-50"/>
       <use x="49.599991" xlink:href="#JosefinSans-Thin-46"/>
       <use x="68.199982" xlink:href="#JosefinSans-Thin-48"/>
      </g>
     </g>
    </g>
    <g id="ytick_6">
     <g id="line2d_21">
      <path clip-path="url(#pca73f0fb4b)" d="M 44.374771 49.112197 
L 287.396106 49.112197 
" style="fill:none;stroke:#cccccc;stroke-dasharray:0.8,1.32;stroke-dashoffset:0;stroke-width:0.8;"/>
     </g>
     <g id="line2d_22"/>
     <g id="text_12">
      <!-- 2.5 -->
      <g style="fill:#262626;" transform="translate(23.726959 54.376416)scale(0.14 -0.14)">
       <use xlink:href="#JosefinSans-Thin-50"/>
       <use x="49.599991" xlink:href="#JosefinSans-Thin-46"/>
       <use x="68.199982" xlink:href="#JosefinSans-Thin-53"/>
      </g>
     </g>
    </g>
    <g id="text_13">
     <!-- density -->
     <defs>
      <path d="M 44.90625 75.203125 
L 44.90625 0 
L 42.90625 0 
L 42.90625 10.703125 
Q 40.5 5.59375 35.640625 2.5 
Q 30.796875 -0.59375 24.90625 -0.59375 
Q 19.59375 -0.59375 15.09375 2 
Q 10.59375 4.59375 8 9.09375 
Q 5.40625 13.59375 5.40625 19 
Q 5.40625 24.703125 8.046875 29.203125 
Q 10.703125 33.703125 15.140625 36.140625 
Q 19.59375 38.59375 25 38.59375 
Q 30.703125 38.59375 35.59375 35.390625 
Q 40.5 32.203125 42.90625 27.09375 
L 42.90625 75.203125 
z
M 25.09375 1.09375 
Q 29.90625 1.09375 34 3.390625 
Q 38.09375 5.703125 40.5 9.640625 
Q 42.90625 13.59375 42.90625 18.40625 
L 42.90625 21.703125 
Q 42.203125 25.90625 39.640625 29.34375 
Q 37.09375 32.796875 33.296875 34.84375 
Q 29.5 36.90625 25.09375 36.90625 
Q 20.203125 36.90625 16.140625 34.65625 
Q 12.09375 32.40625 9.75 28.296875 
Q 7.40625 24.203125 7.40625 19 
Q 7.40625 14.09375 9.796875 10 
Q 12.203125 5.90625 16.25 3.5 
Q 20.296875 1.09375 25.09375 1.09375 
z
" id="JosefinSans-Thin-100"/>
      <path d="M 27.59375 38.5 
Q 32.796875 38.5 35.9375 35.390625 
Q 39.09375 32.296875 39.296875 27.296875 
L 39.296875 0 
L 37.296875 0 
L 37.296875 27.09375 
Q 37.09375 31.296875 34.546875 33.9375 
Q 32 36.59375 27.40625 36.796875 
Q 23.203125 36.796875 19.546875 34.890625 
Q 15.90625 33 13.65625 29.59375 
Q 11.40625 26.203125 11.40625 21.90625 
L 11.40625 0 
L 9.40625 0 
L 9.40625 37.796875 
L 10.90625 37.796875 
L 11.203125 27.703125 
Q 13 32.703125 17.5 35.59375 
Q 22 38.5 27.59375 38.5 
z
" id="JosefinSans-Thin-110"/>
      <path d="M 17.09375 -0.796875 
Q 13.90625 -0.796875 10.65625 0.390625 
Q 7.40625 1.59375 5.40625 4 
L 6.59375 5.203125 
Q 8.09375 3.296875 10.9375 2.09375 
Q 13.796875 0.90625 17.09375 0.90625 
Q 21.203125 0.90625 24.09375 3 
Q 27 5.09375 27 9.703125 
Q 27 12.5 25.5 14.25 
Q 24 16 22 16.890625 
Q 20 17.796875 16.203125 19 
Q 11.703125 20.59375 9.296875 22.640625 
Q 6.90625 24.703125 6.90625 28.703125 
Q 6.90625 33.203125 9.953125 35.75 
Q 13 38.296875 17.203125 38.296875 
Q 19.796875 38.296875 22.640625 37.1875 
Q 25.5 36.09375 27.5 33.90625 
L 26.40625 32.59375 
Q 24.90625 34.5 22.25 35.5 
Q 19.59375 36.5 17.296875 36.5 
Q 14.203125 36.5 11.5 34.546875 
Q 8.796875 32.59375 8.796875 28.90625 
Q 8.796875 25.59375 10.9375 23.890625 
Q 13.09375 22.203125 17.296875 20.703125 
Q 21.40625 19.296875 23.546875 18.296875 
Q 25.703125 17.296875 27.296875 15.34375 
Q 28.90625 13.40625 28.90625 10.203125 
Q 28.90625 5.09375 25.84375 2.140625 
Q 22.796875 -0.796875 17.09375 -0.796875 
z
" id="JosefinSans-Thin-115"/>
     </defs>
     <g style="fill:#262626;" transform="translate(14.280709 156.581172)rotate(-90)scale(0.15 -0.15)">
      <use xlink:href="#JosefinSans-Thin-100"/>
      <use x="54.299988" xlink:href="#JosefinSans-Thin-101"/>
      <use x="100.999985" xlink:href="#JosefinSans-Thin-110"/>
      <use x="149.699982" xlink:href="#JosefinSans-Thin-115"/>
      <use x="184.099976" xlink:href="#JosefinSans-Thin-105"/>
      <use x="204.899963" xlink:href="#JosefinSans-Thin-116"/>
      <use x="235.299957" xlink:href="#JosefinSans-Thin-121"/>
     </g>
    </g>
   </g>
   <g id="line2d_23">
    <path clip-path="url(#pca73f0fb4b)" d="M 55.421196 239.944306 
L 57.652796 239.944306 
L 59.884397 239.944302 
L 62.115998 239.944261 
L 64.347599 239.944059 
L 66.5792 239.943395 
L 68.810801 239.941672 
L 71.042402 239.937876 
L 73.274002 239.93044 
L 75.505603 239.917113 
L 77.737204 239.894824 
L 79.968805 239.859568 
L 82.200406 239.806293 
L 84.432007 239.728815 
L 86.663608 239.619743 
L 88.895209 239.470436 
L 91.126809 239.270976 
L 93.35841 239.010172 
L 95.590011 238.675591 
L 97.821612 238.25361 
L 100.053213 237.729502 
L 102.284814 237.087547 
L 104.516415 236.311165 
L 106.748015 235.383078 
L 108.979616 234.285495 
L 111.211217 233.000314 
L 113.442818 231.509353 
L 115.674419 229.794586 
L 117.90602 227.838402 
L 120.137621 225.623875 
L 122.369222 223.135039 
L 124.600822 220.357173 
L 126.832423 217.277086 
L 129.064024 213.883405 
L 131.295625 210.166853 
L 133.527226 206.120524 
L 135.758827 201.740148 
L 137.990428 197.024338 
L 140.222028 191.97482 
L 142.453629 186.596647 
L 144.68523 180.898377 
L 146.916831 174.89224 
L 149.148432 168.594255 
L 151.380033 162.024334 
L 153.611634 155.206327 
L 155.843235 148.16805 
L 158.074835 140.941256 
L 160.306436 133.56157 
L 162.538037 126.068378 
L 164.769638 118.504667 
L 167.001239 110.916818 
L 169.23284 103.354356 
L 171.464441 95.869643 
L 173.696041 88.517526 
L 175.927642 81.354935 
L 178.159243 74.44044 
L 180.390844 67.833751 
L 182.622445 61.595182 
L 184.854046 55.785069 
L 187.085647 50.463153 
L 189.317248 45.687922 
L 191.548848 41.515931 
L 193.780449 38.001082 
L 196.01205 35.193898 
L 198.243651 33.140774 
L 200.475252 31.883217 
L 202.706853 31.4571 
L 204.938454 31.891907 
L 207.170054 33.210008 
L 209.401655 35.425954 
L 211.633256 38.545816 
L 213.864857 42.56657 
L 216.096458 47.475547 
L 218.328059 53.249954 
L 220.55966 59.856495 
L 222.791261 67.251088 
L 225.022861 75.378714 
L 227.254462 84.173392 
L 229.486063 93.558329 
L 231.717664 103.446236 
L 233.949265 113.739847 
L 236.180866 124.332655 
L 238.412467 135.109896 
L 240.644067 145.949798 
L 242.875668 156.725119 
L 245.107269 167.305008 
L 247.33887 177.557214 
L 249.570471 187.350666 
L 251.802072 196.558461 
L 254.033673 205.061291 
L 256.265273 212.751341 
L 258.496874 219.536689 
L 260.728475 225.346249 
L 262.960076 230.135291 
L 265.191677 233.891579 
L 267.423278 236.642165 
L 269.654879 238.460883 
L 271.88648 239.476577 
L 274.11808 239.882129 
L 276.349681 239.944306 
" style="fill:none;stroke:#cfcbbf;stroke-linecap:round;stroke-width:1.5;"/>
   </g>
   <g id="line2d_24">
    <path clip-path="url(#pca73f0fb4b)" d="M 55.421196 239.920389 
L 57.652796 239.912955 
L 59.884397 239.90338 
L 62.115998 239.891101 
L 64.347599 239.875422 
L 66.5792 239.855491 
L 68.810801 239.830265 
L 71.042402 239.798479 
L 73.274002 239.758601 
L 75.505603 239.708794 
L 77.737204 239.64686 
L 79.968805 239.570188 
L 82.200406 239.475693 
L 84.432007 239.35975 
L 86.663608 239.218129 
L 88.895209 239.045916 
L 91.126809 238.837447 
L 93.35841 238.586226 
L 95.590011 238.284858 
L 97.821612 237.924975 
L 100.053213 237.497178 
L 102.284814 236.990982 
L 104.516415 236.394774 
L 106.748015 235.695798 
L 108.979616 234.880149 
L 111.211217 233.9328 
L 113.442818 232.837658 
L 115.674419 231.577654 
L 117.90602 230.134871 
L 120.137621 228.490715 
L 122.369222 226.626129 
L 124.600822 224.52186 
L 126.832423 222.158762 
L 129.064024 219.51816 
L 131.295625 216.582248 
L 133.527226 213.334533 
L 135.758827 209.760317 
L 137.990428 205.847202 
L 140.222028 201.585618 
L 142.453629 196.969356 
L 144.68523 191.996093 
L 146.916831 186.667907 
L 149.148432 180.991743 
L 151.380033 174.979834 
L 153.611634 168.650051 
L 155.843235 162.026171 
L 158.074835 155.138037 
L 160.306436 148.021608 
L 162.538037 140.718883 
L 164.769638 133.277682 
L 167.001239 125.751291 
L 169.23284 118.197964 
L 171.464441 110.680274 
L 173.696041 103.264338 
L 175.927642 96.018909 
L 178.159243 89.014367 
L 180.390844 82.321609 
L 182.622445 76.010884 
L 184.854046 70.150576 
L 187.085647 64.805982 
L 189.317248 60.038109 
L 191.548848 55.902514 
L 193.780449 52.448233 
L 196.01205 49.716808 
L 198.243651 47.741463 
L 200.475252 46.546423 
L 202.706853 46.146427 
L 204.938454 46.546423 
L 207.170054 47.741463 
L 209.401655 49.716808 
L 211.633256 52.448233 
L 213.864857 55.902514 
L 216.096458 60.038109 
L 218.328059 64.805982 
L 220.55966 70.150576 
L 222.791261 76.010884 
L 225.022861 82.321609 
L 227.254462 89.014366 
L 229.486063 96.018908 
L 231.717664 103.264337 
L 233.949265 110.680273 
L 236.180866 118.197963 
L 238.412467 125.75129 
L 240.644067 133.277681 
L 242.875668 140.718882 
L 245.107269 148.021608 
L 247.33887 155.138036 
L 249.570471 162.02617 
L 251.802072 168.65005 
L 254.033673 174.979833 
L 256.265273 180.991742 
L 258.496874 186.667907 
L 260.728475 191.996093 
L 262.960076 196.969355 
L 265.191677 201.585618 
L 267.423278 205.847202 
L 269.654879 209.760317 
L 271.88648 213.334533 
L 274.11808 216.582247 
L 276.349681 219.51816 
" style="fill:none;stroke:#81aca4;stroke-linecap:round;stroke-width:1.5;"/>
   </g>
   <g id="text_14">
    <!-- $n=9$ -->
    <defs>
     <path d="M 55.71875 33.015625 
L 49.3125 0 
L 40.28125 0 
L 46.6875 32.671875 
Q 47.125 34.96875 47.359375 36.71875 
Q 47.609375 38.484375 47.609375 39.5 
Q 47.609375 43.609375 45.015625 45.890625 
Q 42.4375 48.1875 37.796875 48.1875 
Q 30.5625 48.1875 25.34375 43.375 
Q 20.125 38.578125 18.5 30.328125 
L 12.5 0 
L 3.515625 0 
L 14.109375 54.6875 
L 23.09375 54.6875 
L 21.296875 46.09375 
Q 25.046875 50.828125 30.3125 53.40625 
Q 35.59375 56 41.40625 56 
Q 48.640625 56 52.609375 52.09375 
Q 56.59375 48.1875 56.59375 41.109375 
Q 56.59375 39.359375 56.375 37.359375 
Q 56.15625 35.359375 55.71875 33.015625 
z
" id="DejaVuSans-Oblique-110"/>
     <path d="M 10.59375 45.40625 
L 73.1875 45.40625 
L 73.1875 37.203125 
L 10.59375 37.203125 
z
M 10.59375 25.484375 
L 73.1875 25.484375 
L 73.1875 17.1875 
L 10.59375 17.1875 
z
" id="DejaVuSans-61"/>
     <path d="M 10.984375 1.515625 
L 10.984375 10.5 
Q 14.703125 8.734375 18.5 7.8125 
Q 22.3125 6.890625 25.984375 6.890625 
Q 35.75 6.890625 40.890625 13.453125 
Q 46.046875 20.015625 46.78125 33.40625 
Q 43.953125 29.203125 39.59375 26.953125 
Q 35.25 24.703125 29.984375 24.703125 
Q 19.046875 24.703125 12.671875 31.3125 
Q 6.296875 37.9375 6.296875 49.421875 
Q 6.296875 60.640625 12.9375 67.421875 
Q 19.578125 74.21875 30.609375 74.21875 
Q 43.265625 74.21875 49.921875 64.515625 
Q 56.59375 54.828125 56.59375 36.375 
Q 56.59375 19.140625 48.40625 8.859375 
Q 40.234375 -1.421875 26.421875 -1.421875 
Q 22.703125 -1.421875 18.890625 -0.6875 
Q 15.09375 0.046875 10.984375 1.515625 
z
M 30.609375 32.421875 
Q 37.25 32.421875 41.125 36.953125 
Q 45.015625 41.5 45.015625 49.421875 
Q 45.015625 57.28125 41.125 61.84375 
Q 37.25 66.40625 30.609375 66.40625 
Q 23.96875 66.40625 20.09375 61.84375 
Q 16.21875 57.28125 16.21875 49.421875 
Q 16.21875 41.5 20.09375 36.953125 
Q 23.96875 32.421875 30.609375 32.421875 
z
" id="DejaVuSans-57"/>
    </defs>
    <g style="fill:#262626;" transform="translate(145.885438 15.03274)scale(0.16 -0.16)">
     <use transform="translate(0 0.78125)" xlink:href="#DejaVuSans-Oblique-110"/>
     <use transform="translate(82.861328 0.78125)" xlink:href="#DejaVuSans-61"/>
     <use transform="translate(186.132812 0.78125)" xlink:href="#DejaVuSans-57"/>
    </g>
   </g>
   <g id="legend_1">
    <g id="line2d_25">
     <path d="M 56.974771 39.261178 
L 84.974771 39.261178 
" style="fill:none;stroke:#cfcbbf;stroke-linecap:round;stroke-width:1.5;"/>
    </g>
    <g id="line2d_26"/>
    <g id="text_15">
     <!-- True posterior -->
     <defs>
      <path d="M 51.5 70.203125 
L 51.5 68.296875 
L 29.703125 68.296875 
L 29.703125 0 
L 27.703125 0 
L 27.703125 68.296875 
L 5.90625 68.296875 
L 5.90625 70.203125 
z
" id="JosefinSans-Thin-84"/>
      <path d="M 39.296875 37.796875 
L 39.296875 0 
L 37.59375 0 
L 37.40625 9.90625 
Q 35.703125 5.40625 31.046875 2.296875 
Q 26.40625 -0.796875 21.09375 -0.796875 
Q 15.90625 -0.796875 12.75 2.34375 
Q 9.59375 5.5 9.40625 10.5 
L 9.40625 37.796875 
L 11.40625 37.796875 
L 11.40625 10.796875 
Q 11.59375 6.5 14.1875 3.84375 
Q 16.796875 1.203125 21.5 1 
Q 25.59375 1 29.1875 2.953125 
Q 32.796875 4.90625 35.046875 8.34375 
Q 37.296875 11.796875 37.296875 16 
L 37.296875 37.796875 
z
" id="JosefinSans-Thin-117"/>
     </defs>
     <g style="fill:#262626;" transform="translate(96.174771 44.161178)scale(0.14 -0.14)">
      <use xlink:href="#JosefinSans-Thin-84"/>
      <use x="57.499985" xlink:href="#JosefinSans-Thin-114"/>
      <use x="89.599976" xlink:href="#JosefinSans-Thin-117"/>
      <use x="138.299973" xlink:href="#JosefinSans-Thin-101"/>
      <use x="184.999969" xlink:href="#JosefinSans-Thin-32"/>
      <use x="215.09996" xlink:href="#JosefinSans-Thin-112"/>
      <use x="269.399948" xlink:href="#JosefinSans-Thin-111"/>
      <use x="319.699936" xlink:href="#JosefinSans-Thin-115"/>
      <use x="354.09993" xlink:href="#JosefinSans-Thin-116"/>
      <use x="384.499924" xlink:href="#JosefinSans-Thin-101"/>
      <use x="431.199921" xlink:href="#JosefinSans-Thin-114"/>
      <use x="463.299911" xlink:href="#JosefinSans-Thin-105"/>
      <use x="484.099899" xlink:href="#JosefinSans-Thin-111"/>
      <use x="534.399887" xlink:href="#JosefinSans-Thin-114"/>
     </g>
    </g>
    <g id="line2d_27">
     <path d="M 56.974771 59.32274 
L 84.974771 59.32274 
" style="fill:none;stroke:#81aca4;stroke-linecap:round;stroke-width:1.5;"/>
    </g>
    <g id="line2d_28"/>
    <g id="text_16">
     <!-- Quadratic approximation -->
     <defs>
      <path d="M 80.5 0 
L 50.796875 0 
Q 46.796875 -0.796875 43.203125 -0.796875 
Q 33.40625 -0.796875 25.203125 3.84375 
Q 17 8.5 12.203125 16.640625 
Q 7.40625 24.796875 7.40625 35 
Q 7.40625 44.703125 12.203125 53 
Q 17 61.296875 25.25 66.140625 
Q 33.5 71 43.203125 71 
Q 52.90625 71 61.203125 66.140625 
Q 69.5 61.296875 74.34375 53 
Q 79.203125 44.703125 79.203125 35 
Q 79.203125 23.90625 73.046875 14.953125 
Q 66.90625 6 56.90625 1.90625 
L 80.5 1.90625 
z
M 42.90625 1.09375 
Q 52.203125 1.09375 60.09375 5.640625 
Q 68 10.203125 72.59375 18 
Q 77.203125 25.796875 77.203125 35 
Q 77.203125 44.09375 72.59375 51.9375 
Q 68 59.796875 60.140625 64.4375 
Q 52.296875 69.09375 43.203125 69.09375 
Q 33.796875 69.09375 26.046875 64.34375 
Q 18.296875 59.59375 13.84375 51.75 
Q 9.40625 43.90625 9.40625 34.90625 
Q 9.40625 25.796875 13.953125 18 
Q 18.5 10.203125 26.203125 5.640625 
Q 33.90625 1.09375 42.90625 1.09375 
z
" id="JosefinSans-Thin-81"/>
      <path d="M 37.5 3.703125 
Q 32.09375 -0.59375 25.09375 -0.59375 
Q 19.703125 -0.59375 15.203125 2 
Q 10.703125 4.59375 8.046875 9.046875 
Q 5.40625 13.5 5.40625 18.90625 
Q 5.40625 24.296875 8.046875 28.796875 
Q 10.703125 33.296875 15.203125 35.9375 
Q 19.703125 38.59375 25 38.59375 
Q 28.59375 38.59375 31.796875 37.4375 
Q 35 36.296875 37.5 34.203125 
L 36.40625 32.796875 
Q 31.09375 36.90625 25.09375 36.90625 
Q 20.203125 36.90625 16.140625 34.453125 
Q 12.09375 32 9.75 27.890625 
Q 7.40625 23.796875 7.40625 18.90625 
Q 7.40625 14.09375 9.75 10 
Q 12.09375 5.90625 16.140625 3.5 
Q 20.203125 1.09375 25.09375 1.09375 
Q 31.296875 1.09375 36.296875 5 
L 37.5 3.703125 
z
" id="JosefinSans-Thin-99"/>
      <path d="M 31.296875 0 
L 18.59375 17.296875 
L 6.09375 0 
L 3.796875 0 
L 17.40625 18.90625 
L 3.40625 37.796875 
L 5.90625 37.796875 
L 18.703125 20.296875 
L 31 37.703125 
L 33.203125 37.703125 
L 19.796875 18.703125 
L 33.5 0 
z
" id="JosefinSans-Thin-120"/>
      <path d="M 55.296875 38.5 
Q 60.5 38.5 63.703125 35.546875 
Q 66.90625 32.59375 67.09375 28.203125 
L 67.09375 0 
L 65.09375 0 
L 65.09375 27.703125 
Q 64.90625 31.40625 62.34375 34 
Q 59.796875 36.59375 55.296875 36.796875 
Q 51.203125 36.796875 47.59375 34.890625 
Q 44 33 41.703125 29.75 
Q 39.40625 26.5 39.203125 22.5 
L 39.203125 0 
L 37.296875 0 
L 37.296875 27.703125 
Q 37.09375 31.40625 34.5 34 
Q 31.90625 36.59375 27.40625 36.796875 
Q 23.203125 36.796875 19.5 34.84375 
Q 15.796875 32.90625 13.59375 29.5 
Q 11.40625 26.09375 11.40625 21.90625 
L 11.40625 0 
L 9.40625 0 
L 9.40625 37.796875 
L 10.90625 37.796875 
L 11.203125 27.90625 
Q 13.203125 32.796875 17.640625 35.640625 
Q 22.09375 38.5 27.5 38.5 
Q 32.09375 38.5 35.546875 35.703125 
Q 39 32.90625 39.40625 28.796875 
Q 41.5 33.40625 45.75 35.953125 
Q 50 38.5 55.296875 38.5 
z
" id="JosefinSans-Thin-109"/>
     </defs>
     <g style="fill:#262626;" transform="translate(96.174771 64.22274)scale(0.14 -0.14)">
      <use xlink:href="#JosefinSans-Thin-81"/>
      <use x="87.899994" xlink:href="#JosefinSans-Thin-117"/>
      <use x="136.599991" xlink:href="#JosefinSans-Thin-97"/>
      <use x="190.799988" xlink:href="#JosefinSans-Thin-100"/>
      <use x="245.099976" xlink:href="#JosefinSans-Thin-114"/>
      <use x="277.199966" xlink:href="#JosefinSans-Thin-97"/>
      <use x="331.399963" xlink:href="#JosefinSans-Thin-116"/>
      <use x="361.799957" xlink:href="#JosefinSans-Thin-105"/>
      <use x="382.599945" xlink:href="#JosefinSans-Thin-99"/>
      <use x="424.59993" xlink:href="#JosefinSans-Thin-32"/>
      <use x="454.699921" xlink:href="#JosefinSans-Thin-97"/>
      <use x="508.899918" xlink:href="#JosefinSans-Thin-112"/>
      <use x="563.199905" xlink:href="#JosefinSans-Thin-112"/>
      <use x="617.499893" xlink:href="#JosefinSans-Thin-114"/>
      <use x="649.599884" xlink:href="#JosefinSans-Thin-111"/>
      <use x="699.899872" xlink:href="#JosefinSans-Thin-120"/>
      <use x="736.799866" xlink:href="#JosefinSans-Thin-105"/>
      <use x="757.599854" xlink:href="#JosefinSans-Thin-109"/>
      <use x="834.099838" xlink:href="#JosefinSans-Thin-97"/>
      <use x="888.299835" xlink:href="#JosefinSans-Thin-116"/>
      <use x="918.699829" xlink:href="#JosefinSans-Thin-105"/>
      <use x="939.499817" xlink:href="#JosefinSans-Thin-111"/>
      <use x="989.799805" xlink:href="#JosefinSans-Thin-110"/>
     </g>
    </g>
   </g>
  </g>
  <g id="axes_2">
   <g id="patch_3">
    <path d="M 330.547584 250.368666 
L 573.568918 250.368666 
L 573.568918 21.03274 
L 330.547584 21.03274 
z
" style="fill:#ffffff;"/>
   </g>
   <g id="matplotlib.axis_3">
    <g id="xtick_6">
     <g id="line2d_29">
      <path clip-path="url(#p03bb841fb6)" d="M 341.594008 250.368666 
L 341.594008 21.03274 
" style="fill:none;stroke:#cccccc;stroke-dasharray:0.8,1.32;stroke-dashoffset:0;stroke-width:0.8;"/>
     </g>
     <g id="line2d_30"/>
     <g id="text_17">
      <!-- 0.00 -->
      <g style="fill:#262626;" transform="translate(327.334789 264.397104)scale(0.14 -0.14)">
       <use xlink:href="#JosefinSans-Thin-48"/>
       <use x="61.699997" xlink:href="#JosefinSans-Thin-46"/>
       <use x="80.299988" xlink:href="#JosefinSans-Thin-48"/>
       <use x="141.999985" xlink:href="#JosefinSans-Thin-48"/>
      </g>
     </g>
    </g>
    <g id="xtick_7">
     <g id="line2d_31">
      <path clip-path="url(#p03bb841fb6)" d="M 396.826129 250.368666 
L 396.826129 21.03274 
" style="fill:none;stroke:#cccccc;stroke-dasharray:0.8,1.32;stroke-dashoffset:0;stroke-width:0.8;"/>
     </g>
     <g id="line2d_32"/>
     <g id="text_18">
      <!-- 0.25 -->
      <g style="fill:#262626;" transform="translate(383.933004 264.397104)scale(0.14 -0.14)">
       <use xlink:href="#JosefinSans-Thin-48"/>
       <use x="61.699997" xlink:href="#JosefinSans-Thin-46"/>
       <use x="80.299988" xlink:href="#JosefinSans-Thin-50"/>
       <use x="129.899979" xlink:href="#JosefinSans-Thin-53"/>
      </g>
     </g>
    </g>
    <g id="xtick_8">
     <g id="line2d_33">
      <path clip-path="url(#p03bb841fb6)" d="M 452.058251 250.368666 
L 452.058251 21.03274 
" style="fill:none;stroke:#cccccc;stroke-dasharray:0.8,1.32;stroke-dashoffset:0;stroke-width:0.8;"/>
     </g>
     <g id="line2d_34"/>
     <g id="text_19">
      <!-- 0.50 -->
      <g style="fill:#262626;" transform="translate(438.31747 264.397104)scale(0.14 -0.14)">
       <use xlink:href="#JosefinSans-Thin-48"/>
       <use x="61.699997" xlink:href="#JosefinSans-Thin-46"/>
       <use x="80.299988" xlink:href="#JosefinSans-Thin-53"/>
       <use x="134.599976" xlink:href="#JosefinSans-Thin-48"/>
      </g>
     </g>
    </g>
    <g id="xtick_9">
     <g id="line2d_35">
      <path clip-path="url(#p03bb841fb6)" d="M 507.290372 250.368666 
L 507.290372 21.03274 
" style="fill:none;stroke:#cccccc;stroke-dasharray:0.8,1.32;stroke-dashoffset:0;stroke-width:0.8;"/>
     </g>
     <g id="line2d_36"/>
     <g id="text_20">
      <!-- 0.75 -->
      <g style="fill:#262626;" transform="translate(494.537247 264.397104)scale(0.14 -0.14)">
       <use xlink:href="#JosefinSans-Thin-48"/>
       <use x="61.699997" xlink:href="#JosefinSans-Thin-46"/>
       <use x="80.299988" xlink:href="#JosefinSans-Thin-55"/>
       <use x="127.899979" xlink:href="#JosefinSans-Thin-53"/>
      </g>
     </g>
    </g>
    <g id="xtick_10">
     <g id="line2d_37">
      <path clip-path="url(#p03bb841fb6)" d="M 562.522494 250.368666 
L 562.522494 21.03274 
" style="fill:none;stroke:#cccccc;stroke-dasharray:0.8,1.32;stroke-dashoffset:0;stroke-width:0.8;"/>
     </g>
     <g id="line2d_38"/>
     <g id="text_21">
      <!-- 1.00 -->
      <g style="fill:#262626;" transform="translate(550.426713 264.397104)scale(0.14 -0.14)">
       <use xlink:href="#JosefinSans-Thin-49"/>
       <use x="30.799988" xlink:href="#JosefinSans-Thin-46"/>
       <use x="49.399979" xlink:href="#JosefinSans-Thin-48"/>
       <use x="111.099976" xlink:href="#JosefinSans-Thin-48"/>
      </g>
     </g>
    </g>
    <g id="text_22">
     <!-- probability of water -->
     <g style="fill:#262626;" transform="translate(391.738329 282.285697)scale(0.15 -0.15)">
      <use xlink:href="#JosefinSans-Thin-112"/>
      <use x="54.299988" xlink:href="#JosefinSans-Thin-114"/>
      <use x="86.399979" xlink:href="#JosefinSans-Thin-111"/>
      <use x="136.699966" xlink:href="#JosefinSans-Thin-98"/>
      <use x="190.999954" xlink:href="#JosefinSans-Thin-97"/>
      <use x="245.199951" xlink:href="#JosefinSans-Thin-98"/>
      <use x="299.499939" xlink:href="#JosefinSans-Thin-105"/>
      <use x="320.299927" xlink:href="#JosefinSans-Thin-108"/>
      <use x="341.099915" xlink:href="#JosefinSans-Thin-105"/>
      <use x="361.899902" xlink:href="#JosefinSans-Thin-116"/>
      <use x="392.299896" xlink:href="#JosefinSans-Thin-121"/>
      <use x="435.399887" xlink:href="#JosefinSans-Thin-32"/>
      <use x="465.499878" xlink:href="#JosefinSans-Thin-111"/>
      <use x="515.799866" xlink:href="#JosefinSans-Thin-102"/>
      <use x="544.899857" xlink:href="#JosefinSans-Thin-32"/>
      <use x="574.999847" xlink:href="#JosefinSans-Thin-119"/>
      <use x="640.899841" xlink:href="#JosefinSans-Thin-97"/>
      <use x="695.099838" xlink:href="#JosefinSans-Thin-116"/>
      <use x="725.499832" xlink:href="#JosefinSans-Thin-101"/>
      <use x="772.199829" xlink:href="#JosefinSans-Thin-114"/>
     </g>
    </g>
   </g>
   <g id="matplotlib.axis_4">
    <g id="ytick_7">
     <g id="line2d_39">
      <path clip-path="url(#p03bb841fb6)" d="M 330.547584 239.944306 
L 573.568918 239.944306 
" style="fill:none;stroke:#cccccc;stroke-dasharray:0.8,1.32;stroke-dashoffset:0;stroke-width:0.8;"/>
     </g>
     <g id="line2d_40"/>
     <g id="text_23">
      <!-- 0 -->
      <g style="fill:#262626;" transform="translate(318.409146 245.208525)scale(0.14 -0.14)">
       <use xlink:href="#JosefinSans-Thin-48"/>
      </g>
     </g>
    </g>
    <g id="ytick_8">
     <g id="line2d_41">
      <path clip-path="url(#p03bb841fb6)" d="M 330.547584 184.035929 
L 573.568918 184.035929 
" style="fill:none;stroke:#cccccc;stroke-dasharray:0.8,1.32;stroke-dashoffset:0;stroke-width:0.8;"/>
     </g>
     <g id="line2d_42"/>
     <g id="text_24">
      <!-- 1 -->
      <g style="fill:#262626;" transform="translate(322.736021 189.300148)scale(0.14 -0.14)">
       <use xlink:href="#JosefinSans-Thin-49"/>
      </g>
     </g>
    </g>
    <g id="ytick_9">
     <g id="line2d_43">
      <path clip-path="url(#p03bb841fb6)" d="M 330.547584 128.127552 
L 573.568918 128.127552 
" style="fill:none;stroke:#cccccc;stroke-dasharray:0.8,1.32;stroke-dashoffset:0;stroke-width:0.8;"/>
     </g>
     <g id="line2d_44"/>
     <g id="text_25">
      <!-- 2 -->
      <g style="fill:#262626;" transform="translate(320.104459 133.391771)scale(0.14 -0.14)">
       <use xlink:href="#JosefinSans-Thin-50"/>
      </g>
     </g>
    </g>
    <g id="ytick_10">
     <g id="line2d_45">
      <path clip-path="url(#p03bb841fb6)" d="M 330.547584 72.219175 
L 573.568918 72.219175 
" style="fill:none;stroke:#cccccc;stroke-dasharray:0.8,1.32;stroke-dashoffset:0;stroke-width:0.8;"/>
     </g>
     <g id="line2d_46"/>
     <g id="text_26">
      <!-- 3 -->
      <defs>
       <path d="M 25.5 39.90625 
Q 30.90625 40.203125 35.296875 38.09375 
Q 39.703125 36 42.296875 31.75 
Q 44.90625 27.5 44.90625 21.5 
Q 44.90625 15 42.046875 9.890625 
Q 39.203125 4.796875 34.046875 2 
Q 28.90625 -0.796875 22.40625 -0.796875 
Q 18 -0.796875 14.140625 0.953125 
Q 10.296875 2.703125 7.40625 5.796875 
L 8.40625 7.296875 
Q 10.796875 4.5 14.59375 2.796875 
Q 18.40625 1.09375 22.40625 1.09375 
Q 28.40625 1.09375 33.046875 3.6875 
Q 37.703125 6.296875 40.296875 11 
Q 42.90625 15.703125 42.90625 21.59375 
Q 42.90625 29.296875 38.09375 33.75 
Q 33.296875 38.203125 25.203125 38.203125 
Q 22.5 38.203125 19.796875 37.546875 
Q 17.09375 36.90625 15.296875 35.796875 
L 14.90625 36.09375 
L 36.796875 63.203125 
L 8.59375 63.203125 
L 8.59375 65.09375 
L 40.59375 65.09375 
L 19.296875 39 
Q 22.09375 39.90625 25.5 39.90625 
z
" id="JosefinSans-Thin-51"/>
      </defs>
      <g style="fill:#262626;" transform="translate(319.796021 77.483394)scale(0.14 -0.14)">
       <use xlink:href="#JosefinSans-Thin-51"/>
      </g>
     </g>
    </g>
    <g id="text_27">
     <!-- density -->
     <g style="fill:#262626;" transform="translate(311.695084 156.581172)rotate(-90)scale(0.15 -0.15)">
      <use xlink:href="#JosefinSans-Thin-100"/>
      <use x="54.299988" xlink:href="#JosefinSans-Thin-101"/>
      <use x="100.999985" xlink:href="#JosefinSans-Thin-110"/>
      <use x="149.699982" xlink:href="#JosefinSans-Thin-115"/>
      <use x="184.099976" xlink:href="#JosefinSans-Thin-105"/>
      <use x="204.899963" xlink:href="#JosefinSans-Thin-116"/>
      <use x="235.299957" xlink:href="#JosefinSans-Thin-121"/>
     </g>
    </g>
   </g>
   <g id="line2d_47">
    <path clip-path="url(#p03bb841fb6)" d="M 341.594008 239.944306 
L 343.825609 239.944306 
L 346.05721 239.944306 
L 348.288811 239.944306 
L 350.520412 239.944306 
L 352.752012 239.944306 
L 354.983613 239.944306 
L 357.215214 239.944306 
L 359.446815 239.944305 
L 361.678416 239.944302 
L 363.910017 239.944294 
L 366.141618 239.944272 
L 368.373218 239.944215 
L 370.604819 239.944083 
L 372.83642 239.943801 
L 375.068021 239.943229 
L 377.299622 239.942131 
L 379.531223 239.940121 
L 381.762824 239.936585 
L 383.994424 239.930596 
L 386.226025 239.920778 
L 388.457626 239.905162 
L 390.689227 239.880994 
L 392.920828 239.844517 
L 395.152429 239.790713 
L 397.38403 239.713025 
L 399.615631 239.603046 
L 401.847231 239.45019 
L 404.078832 239.241371 
L 406.310433 238.960674 
L 408.542034 238.58906 
L 410.773635 238.104117 
L 413.005236 237.479872 
L 415.236837 236.686693 
L 417.468437 235.691303 
L 419.700038 234.456927 
L 421.931639 232.9436 
L 424.16324 231.108638 
L 426.394841 228.907314 
L 428.626442 226.293719 
L 430.858043 223.221833 
L 433.089644 219.646795 
L 435.321244 215.526358 
L 437.552845 210.822509 
L 439.784446 205.503223 
L 442.016047 199.544315 
L 444.247648 192.93133 
L 446.479249 185.661424 
L 448.71085 177.745156 
L 450.94245 169.208138 
L 453.174051 160.092439 
L 455.405652 150.457691 
L 457.637253 140.381801 
L 459.868854 129.961203 
L 462.100455 119.31058 
L 464.332056 108.562001 
L 466.563657 97.863438 
L 468.795257 87.376622 
L 471.026858 77.274254 
L 473.258459 67.736581 
L 475.49006 58.947384 
L 477.721661 51.089456 
L 479.953262 44.339662 
L 482.184863 38.863721 
L 484.416463 34.81085 
L 486.648064 32.308463 
L 488.879665 31.4571 
L 491.111266 32.325808 
L 493.342867 34.948178 
L 495.574468 39.319255 
L 497.806069 45.393511 
L 500.03767 53.08406 
L 502.26927 62.263267 
L 504.500871 72.764833 
L 506.732472 84.387423 
L 508.964073 96.899809 
L 511.195674 110.047442 
L 513.427275 123.560292 
L 515.658876 137.161719 
L 517.890476 150.57804 
L 520.122077 163.548416 
L 522.353678 175.834598 
L 524.585279 187.230023 
L 526.81688 197.567761 
L 529.048481 206.726761 
L 531.280082 214.635954 
L 533.511683 221.275778 
L 535.743283 226.676868 
L 537.974884 230.915783 
L 540.206485 234.107858 
L 542.438086 236.39753 
L 544.669687 237.946721 
L 546.901288 238.922165 
L 549.132889 239.482806 
L 551.364489 239.768585 
L 553.59609 239.892005 
L 555.827691 239.933751 
L 558.059292 239.943257 
L 560.290893 239.944287 
L 562.522494 239.944306 
" style="fill:none;stroke:#cfcbbf;stroke-linecap:round;stroke-width:1.5;"/>
   </g>
   <g id="line2d_48">
    <path clip-path="url(#p03bb841fb6)" d="M 341.594008 239.944303 
L 343.825609 239.944301 
L 346.05721 239.944297 
L 348.288811 239.944291 
L 350.520412 239.944281 
L 352.752012 239.944264 
L 354.983613 239.944236 
L 357.215214 239.944192 
L 359.446815 239.944122 
L 361.678416 239.94401 
L 363.910017 239.943833 
L 366.141618 239.943558 
L 368.373218 239.943132 
L 370.604819 239.94248 
L 372.83642 239.941487 
L 375.068021 239.939992 
L 377.299622 239.937758 
L 379.531223 239.934448 
L 381.762824 239.929588 
L 383.994424 239.922511 
L 386.226025 239.912299 
L 388.457626 239.897688 
L 390.689227 239.876966 
L 392.920828 239.847833 
L 395.152429 239.807235 
L 397.38403 239.751155 
L 399.615631 239.67437 
L 401.847231 239.570165 
L 404.078832 239.430003 
L 406.310433 239.24315 
L 408.542034 238.996278 
L 410.773635 238.673035 
L 413.005236 238.253609 
L 415.236837 237.714309 
L 417.468437 237.02719 
L 419.700038 236.15976 
L 421.931639 235.074802 
L 424.16324 233.730375 
L 426.394841 232.080027 
L 428.626442 230.073282 
L 430.858043 227.656445 
L 433.089644 224.773762 
L 435.321244 221.368965 
L 437.552845 217.387207 
L 439.784446 212.77738 
L 442.016047 207.494768 
L 444.247648 201.503956 
L 446.479249 194.781913 
L 448.71085 187.321096 
L 450.94245 179.132413 
L 453.174051 170.247881 
L 455.405652 160.722769 
L 457.637253 150.637035 
L 459.868854 140.095894 
L 462.100455 129.229349 
L 464.332056 118.190592 
L 466.563657 107.153218 
L 468.795257 96.307272 
L 471.026858 85.854212 
L 473.258459 76.000958 
L 475.49006 66.953242 
L 477.721661 58.908564 
L 479.953262 52.049067 
L 482.184863 46.534712 
L 484.416463 42.497079 
L 486.648064 40.034151 
L 488.879665 39.206367 
L 491.111266 40.034151 
L 493.342867 42.497079 
L 495.574468 46.534712 
L 497.806069 52.049067 
L 500.03767 58.908563 
L 502.26927 66.953242 
L 504.500871 76.000957 
L 506.732472 85.854211 
L 508.964073 96.307271 
L 511.195674 107.153217 
L 513.427275 118.190591 
L 515.658876 129.229348 
L 517.890476 140.095893 
L 520.122077 150.637034 
L 522.353678 160.722768 
L 524.585279 170.24788 
L 526.81688 179.132412 
L 529.048481 187.321095 
L 531.280082 194.781912 
L 533.511683 201.503955 
L 535.743283 207.494767 
L 537.974884 212.77738 
L 540.206485 217.387206 
L 542.438086 221.368964 
L 544.669687 224.773762 
L 546.901288 227.656445 
L 549.132889 230.073282 
L 551.364489 232.080027 
L 553.59609 233.730375 
L 555.827691 235.074802 
L 558.059292 236.15976 
L 560.290893 237.02719 
L 562.522494 237.714309 
" style="fill:none;stroke:#81aca4;stroke-linecap:round;stroke-width:1.5;"/>
   </g>
   <g id="text_28">
    <!-- $n=18$ -->
    <defs>
     <path d="M 12.40625 8.296875 
L 28.515625 8.296875 
L 28.515625 63.921875 
L 10.984375 60.40625 
L 10.984375 69.390625 
L 28.421875 72.90625 
L 38.28125 72.90625 
L 38.28125 8.296875 
L 54.390625 8.296875 
L 54.390625 0 
L 12.40625 0 
z
" id="DejaVuSans-49"/>
     <path d="M 31.78125 34.625 
Q 24.75 34.625 20.71875 30.859375 
Q 16.703125 27.09375 16.703125 20.515625 
Q 16.703125 13.921875 20.71875 10.15625 
Q 24.75 6.390625 31.78125 6.390625 
Q 38.8125 6.390625 42.859375 10.171875 
Q 46.921875 13.96875 46.921875 20.515625 
Q 46.921875 27.09375 42.890625 30.859375 
Q 38.875 34.625 31.78125 34.625 
z
M 21.921875 38.8125 
Q 15.578125 40.375 12.03125 44.71875 
Q 8.5 49.078125 8.5 55.328125 
Q 8.5 64.0625 14.71875 69.140625 
Q 20.953125 74.21875 31.78125 74.21875 
Q 42.671875 74.21875 48.875 69.140625 
Q 55.078125 64.0625 55.078125 55.328125 
Q 55.078125 49.078125 51.53125 44.71875 
Q 48 40.375 41.703125 38.8125 
Q 48.828125 37.15625 52.796875 32.3125 
Q 56.78125 27.484375 56.78125 20.515625 
Q 56.78125 9.90625 50.3125 4.234375 
Q 43.84375 -1.421875 31.78125 -1.421875 
Q 19.734375 -1.421875 13.25 4.234375 
Q 6.78125 9.90625 6.78125 20.515625 
Q 6.78125 27.484375 10.78125 32.3125 
Q 14.796875 37.15625 21.921875 38.8125 
z
M 18.3125 54.390625 
Q 18.3125 48.734375 21.84375 45.5625 
Q 25.390625 42.390625 31.78125 42.390625 
Q 38.140625 42.390625 41.71875 45.5625 
Q 45.3125 48.734375 45.3125 54.390625 
Q 45.3125 60.0625 41.71875 63.234375 
Q 38.140625 66.40625 31.78125 66.40625 
Q 25.390625 66.40625 21.84375 63.234375 
Q 18.3125 60.0625 18.3125 54.390625 
z
" id="DejaVuSans-56"/>
    </defs>
    <g style="fill:#262626;" transform="translate(426.938251 15.03274)scale(0.16 -0.16)">
     <use transform="translate(0 0.78125)" xlink:href="#DejaVuSans-Oblique-110"/>
     <use transform="translate(82.861328 0.78125)" xlink:href="#DejaVuSans-61"/>
     <use transform="translate(186.132812 0.78125)" xlink:href="#DejaVuSans-49"/>
     <use transform="translate(249.755859 0.78125)" xlink:href="#DejaVuSans-56"/>
    </g>
   </g>
   <g id="legend_2">
    <g id="line2d_49">
     <path d="M 343.147584 39.261178 
L 371.147584 39.261178 
" style="fill:none;stroke:#cfcbbf;stroke-linecap:round;stroke-width:1.5;"/>
    </g>
    <g id="line2d_50"/>
    <g id="text_29">
     <!-- True posterior -->
     <g style="fill:#262626;" transform="translate(382.347584 44.161178)scale(0.14 -0.14)">
      <use xlink:href="#JosefinSans-Thin-84"/>
      <use x="57.499985" xlink:href="#JosefinSans-Thin-114"/>
      <use x="89.599976" xlink:href="#JosefinSans-Thin-117"/>
      <use x="138.299973" xlink:href="#JosefinSans-Thin-101"/>
      <use x="184.999969" xlink:href="#JosefinSans-Thin-32"/>
      <use x="215.09996" xlink:href="#JosefinSans-Thin-112"/>
      <use x="269.399948" xlink:href="#JosefinSans-Thin-111"/>
      <use x="319.699936" xlink:href="#JosefinSans-Thin-115"/>
      <use x="354.09993" xlink:href="#JosefinSans-Thin-116"/>
      <use x="384.499924" xlink:href="#JosefinSans-Thin-101"/>
      <use x="431.199921" xlink:href="#JosefinSans-Thin-114"/>
      <use x="463.299911" xlink:href="#JosefinSans-Thin-105"/>
      <use x="484.099899" xlink:href="#JosefinSans-Thin-111"/>
      <use x="534.399887" xlink:href="#JosefinSans-Thin-114"/>
     </g>
    </g>
    <g id="line2d_51">
     <path d="M 343.147584 59.32274 
L 371.147584 59.32274 
" style="fill:none;stroke:#81aca4;stroke-linecap:round;stroke-width:1.5;"/>
    </g>
    <g id="line2d_52"/>
    <g id="text_30">
     <!-- Quadratic approximation -->
     <g style="fill:#262626;" transform="translate(382.347584 64.22274)scale(0.14 -0.14)">
      <use xlink:href="#JosefinSans-Thin-81"/>
      <use x="87.899994" xlink:href="#JosefinSans-Thin-117"/>
      <use x="136.599991" xlink:href="#JosefinSans-Thin-97"/>
      <use x="190.799988" xlink:href="#JosefinSans-Thin-100"/>
      <use x="245.099976" xlink:href="#JosefinSans-Thin-114"/>
      <use x="277.199966" xlink:href="#JosefinSans-Thin-97"/>
      <use x="331.399963" xlink:href="#JosefinSans-Thin-116"/>
      <use x="361.799957" xlink:href="#JosefinSans-Thin-105"/>
      <use x="382.599945" xlink:href="#JosefinSans-Thin-99"/>
      <use x="424.59993" xlink:href="#JosefinSans-Thin-32"/>
      <use x="454.699921" xlink:href="#JosefinSans-Thin-97"/>
      <use x="508.899918" xlink:href="#JosefinSans-Thin-112"/>
      <use x="563.199905" xlink:href="#JosefinSans-Thin-112"/>
      <use x="617.499893" xlink:href="#JosefinSans-Thin-114"/>
      <use x="649.599884" xlink:href="#JosefinSans-Thin-111"/>
      <use x="699.899872" xlink:href="#JosefinSans-Thin-120"/>
      <use x="736.799866" xlink:href="#JosefinSans-Thin-105"/>
      <use x="757.599854" xlink:href="#JosefinSans-Thin-109"/>
      <use x="834.099838" xlink:href="#JosefinSans-Thin-97"/>
      <use x="888.299835" xlink:href="#JosefinSans-Thin-116"/>
      <use x="918.699829" xlink:href="#JosefinSans-Thin-105"/>
      <use x="939.499817" xlink:href="#JosefinSans-Thin-111"/>
      <use x="989.799805" xlink:href="#JosefinSans-Thin-110"/>
     </g>
    </g>
   </g>
  </g>
  <g id="axes_3">
   <g id="patch_4">
    <path d="M 616.720396 250.368666 
L 859.741731 250.368666 
L 859.741731 21.03274 
L 616.720396 21.03274 
z
" style="fill:#ffffff;"/>
   </g>
   <g id="matplotlib.axis_5">
    <g id="xtick_11">
     <g id="line2d_53">
      <path clip-path="url(#p64dcdd3da7)" d="M 627.766821 250.368666 
L 627.766821 21.03274 
" style="fill:none;stroke:#cccccc;stroke-dasharray:0.8,1.32;stroke-dashoffset:0;stroke-width:0.8;"/>
     </g>
     <g id="line2d_54"/>
     <g id="text_31">
      <!-- 0.00 -->
      <g style="fill:#262626;" transform="translate(613.507602 264.397104)scale(0.14 -0.14)">
       <use xlink:href="#JosefinSans-Thin-48"/>
       <use x="61.699997" xlink:href="#JosefinSans-Thin-46"/>
       <use x="80.299988" xlink:href="#JosefinSans-Thin-48"/>
       <use x="141.999985" xlink:href="#JosefinSans-Thin-48"/>
      </g>
     </g>
    </g>
    <g id="xtick_12">
     <g id="line2d_55">
      <path clip-path="url(#p64dcdd3da7)" d="M 682.998942 250.368666 
L 682.998942 21.03274 
" style="fill:none;stroke:#cccccc;stroke-dasharray:0.8,1.32;stroke-dashoffset:0;stroke-width:0.8;"/>
     </g>
     <g id="line2d_56"/>
     <g id="text_32">
      <!-- 0.25 -->
      <g style="fill:#262626;" transform="translate(670.105817 264.397104)scale(0.14 -0.14)">
       <use xlink:href="#JosefinSans-Thin-48"/>
       <use x="61.699997" xlink:href="#JosefinSans-Thin-46"/>
       <use x="80.299988" xlink:href="#JosefinSans-Thin-50"/>
       <use x="129.899979" xlink:href="#JosefinSans-Thin-53"/>
      </g>
     </g>
    </g>
    <g id="xtick_13">
     <g id="line2d_57">
      <path clip-path="url(#p64dcdd3da7)" d="M 738.231063 250.368666 
L 738.231063 21.03274 
" style="fill:none;stroke:#cccccc;stroke-dasharray:0.8,1.32;stroke-dashoffset:0;stroke-width:0.8;"/>
     </g>
     <g id="line2d_58"/>
     <g id="text_33">
      <!-- 0.50 -->
      <g style="fill:#262626;" transform="translate(724.490282 264.397104)scale(0.14 -0.14)">
       <use xlink:href="#JosefinSans-Thin-48"/>
       <use x="61.699997" xlink:href="#JosefinSans-Thin-46"/>
       <use x="80.299988" xlink:href="#JosefinSans-Thin-53"/>
       <use x="134.599976" xlink:href="#JosefinSans-Thin-48"/>
      </g>
     </g>
    </g>
    <g id="xtick_14">
     <g id="line2d_59">
      <path clip-path="url(#p64dcdd3da7)" d="M 793.463185 250.368666 
L 793.463185 21.03274 
" style="fill:none;stroke:#cccccc;stroke-dasharray:0.8,1.32;stroke-dashoffset:0;stroke-width:0.8;"/>
     </g>
     <g id="line2d_60"/>
     <g id="text_34">
      <!-- 0.75 -->
      <g style="fill:#262626;" transform="translate(780.71006 264.397104)scale(0.14 -0.14)">
       <use xlink:href="#JosefinSans-Thin-48"/>
       <use x="61.699997" xlink:href="#JosefinSans-Thin-46"/>
       <use x="80.299988" xlink:href="#JosefinSans-Thin-55"/>
       <use x="127.899979" xlink:href="#JosefinSans-Thin-53"/>
      </g>
     </g>
    </g>
    <g id="xtick_15">
     <g id="line2d_61">
      <path clip-path="url(#p64dcdd3da7)" d="M 848.695306 250.368666 
L 848.695306 21.03274 
" style="fill:none;stroke:#cccccc;stroke-dasharray:0.8,1.32;stroke-dashoffset:0;stroke-width:0.8;"/>
     </g>
     <g id="line2d_62"/>
     <g id="text_35">
      <!-- 1.00 -->
      <g style="fill:#262626;" transform="translate(836.599525 264.397104)scale(0.14 -0.14)">
       <use xlink:href="#JosefinSans-Thin-49"/>
       <use x="30.799988" xlink:href="#JosefinSans-Thin-46"/>
       <use x="49.399979" xlink:href="#JosefinSans-Thin-48"/>
       <use x="111.099976" xlink:href="#JosefinSans-Thin-48"/>
      </g>
     </g>
    </g>
    <g id="text_36">
     <!-- probability of water -->
     <g style="fill:#262626;" transform="translate(677.911142 282.285697)scale(0.15 -0.15)">
      <use xlink:href="#JosefinSans-Thin-112"/>
      <use x="54.299988" xlink:href="#JosefinSans-Thin-114"/>
      <use x="86.399979" xlink:href="#JosefinSans-Thin-111"/>
      <use x="136.699966" xlink:href="#JosefinSans-Thin-98"/>
      <use x="190.999954" xlink:href="#JosefinSans-Thin-97"/>
      <use x="245.199951" xlink:href="#JosefinSans-Thin-98"/>
      <use x="299.499939" xlink:href="#JosefinSans-Thin-105"/>
      <use x="320.299927" xlink:href="#JosefinSans-Thin-108"/>
      <use x="341.099915" xlink:href="#JosefinSans-Thin-105"/>
      <use x="361.899902" xlink:href="#JosefinSans-Thin-116"/>
      <use x="392.299896" xlink:href="#JosefinSans-Thin-121"/>
      <use x="435.399887" xlink:href="#JosefinSans-Thin-32"/>
      <use x="465.499878" xlink:href="#JosefinSans-Thin-111"/>
      <use x="515.799866" xlink:href="#JosefinSans-Thin-102"/>
      <use x="544.899857" xlink:href="#JosefinSans-Thin-32"/>
      <use x="574.999847" xlink:href="#JosefinSans-Thin-119"/>
      <use x="640.899841" xlink:href="#JosefinSans-Thin-97"/>
      <use x="695.099838" xlink:href="#JosefinSans-Thin-116"/>
      <use x="725.499832" xlink:href="#JosefinSans-Thin-101"/>
      <use x="772.199829" xlink:href="#JosefinSans-Thin-114"/>
     </g>
    </g>
   </g>
   <g id="matplotlib.axis_6">
    <g id="ytick_11">
     <g id="line2d_63">
      <path clip-path="url(#p64dcdd3da7)" d="M 616.720396 239.944306 
L 859.741731 239.944306 
" style="fill:none;stroke:#cccccc;stroke-dasharray:0.8,1.32;stroke-dashoffset:0;stroke-width:0.8;"/>
     </g>
     <g id="line2d_64"/>
     <g id="text_37">
      <!-- 0 -->
      <g style="fill:#262626;" transform="translate(604.581959 245.208525)scale(0.14 -0.14)">
       <use xlink:href="#JosefinSans-Thin-48"/>
      </g>
     </g>
    </g>
    <g id="ytick_12">
     <g id="line2d_65">
      <path clip-path="url(#p64dcdd3da7)" d="M 616.720396 199.669779 
L 859.741731 199.669779 
" style="fill:none;stroke:#cccccc;stroke-dasharray:0.8,1.32;stroke-dashoffset:0;stroke-width:0.8;"/>
     </g>
     <g id="line2d_66"/>
     <g id="text_38">
      <!-- 1 -->
      <g style="fill:#262626;" transform="translate(608.908834 204.933998)scale(0.14 -0.14)">
       <use xlink:href="#JosefinSans-Thin-49"/>
      </g>
     </g>
    </g>
    <g id="ytick_13">
     <g id="line2d_67">
      <path clip-path="url(#p64dcdd3da7)" d="M 616.720396 159.395253 
L 859.741731 159.395253 
" style="fill:none;stroke:#cccccc;stroke-dasharray:0.8,1.32;stroke-dashoffset:0;stroke-width:0.8;"/>
     </g>
     <g id="line2d_68"/>
     <g id="text_39">
      <!-- 2 -->
      <g style="fill:#262626;" transform="translate(606.277271 164.659472)scale(0.14 -0.14)">
       <use xlink:href="#JosefinSans-Thin-50"/>
      </g>
     </g>
    </g>
    <g id="ytick_14">
     <g id="line2d_69">
      <path clip-path="url(#p64dcdd3da7)" d="M 616.720396 119.120726 
L 859.741731 119.120726 
" style="fill:none;stroke:#cccccc;stroke-dasharray:0.8,1.32;stroke-dashoffset:0;stroke-width:0.8;"/>
     </g>
     <g id="line2d_70"/>
     <g id="text_40">
      <!-- 3 -->
      <g style="fill:#262626;" transform="translate(605.968834 124.384945)scale(0.14 -0.14)">
       <use xlink:href="#JosefinSans-Thin-51"/>
      </g>
     </g>
    </g>
    <g id="ytick_15">
     <g id="line2d_71">
      <path clip-path="url(#p64dcdd3da7)" d="M 616.720396 78.8462 
L 859.741731 78.8462 
" style="fill:none;stroke:#cccccc;stroke-dasharray:0.8,1.32;stroke-dashoffset:0;stroke-width:0.8;"/>
     </g>
     <g id="line2d_72"/>
     <g id="text_41">
      <!-- 4 -->
      <defs>
       <path d="M 48.796875 19.90625 
L 48.796875 18.09375 
L 39.203125 18.09375 
L 39.203125 0 
L 37.203125 0 
L 37.203125 18.09375 
L 2.296875 18.09375 
L 2.296875 18.203125 
L 39.09375 65.90625 
L 39.203125 65.90625 
L 39.203125 19.90625 
z
M 37.203125 19.90625 
L 37.203125 60.5 
L 5.796875 19.90625 
z
" id="JosefinSans-Thin-52"/>
      </defs>
      <g style="fill:#262626;" transform="translate(606.137271 84.110419)scale(0.14 -0.14)">
       <use xlink:href="#JosefinSans-Thin-52"/>
      </g>
     </g>
    </g>
    <g id="ytick_16">
     <g id="line2d_73">
      <path clip-path="url(#p64dcdd3da7)" d="M 616.720396 38.571673 
L 859.741731 38.571673 
" style="fill:none;stroke:#cccccc;stroke-dasharray:0.8,1.32;stroke-dashoffset:0;stroke-width:0.8;"/>
     </g>
     <g id="line2d_74"/>
     <g id="text_42">
      <!-- 5 -->
      <g style="fill:#262626;" transform="translate(605.618834 43.835892)scale(0.14 -0.14)">
       <use xlink:href="#JosefinSans-Thin-53"/>
      </g>
     </g>
    </g>
    <g id="text_43">
     <!-- density -->
     <g style="fill:#262626;" transform="translate(597.867896 156.581172)rotate(-90)scale(0.15 -0.15)">
      <use xlink:href="#JosefinSans-Thin-100"/>
      <use x="54.299988" xlink:href="#JosefinSans-Thin-101"/>
      <use x="100.999985" xlink:href="#JosefinSans-Thin-110"/>
      <use x="149.699982" xlink:href="#JosefinSans-Thin-115"/>
      <use x="184.099976" xlink:href="#JosefinSans-Thin-105"/>
      <use x="204.899963" xlink:href="#JosefinSans-Thin-116"/>
      <use x="235.299957" xlink:href="#JosefinSans-Thin-121"/>
     </g>
    </g>
   </g>
   <g id="line2d_75">
    <path clip-path="url(#p64dcdd3da7)" d="M 627.766821 239.944306 
L 629.998421 239.944306 
L 632.230022 239.944306 
L 634.461623 239.944306 
L 636.693224 239.944306 
L 638.924825 239.944306 
L 641.156426 239.944306 
L 643.388027 239.944306 
L 645.619627 239.944306 
L 647.851228 239.944306 
L 650.082829 239.944306 
L 652.31443 239.944306 
L 654.546031 239.944306 
L 656.777632 239.944306 
L 659.009233 239.944306 
L 661.240834 239.944306 
L 663.472434 239.944306 
L 665.704035 239.944306 
L 667.935636 239.944306 
L 670.167237 239.944305 
L 672.398838 239.944303 
L 674.630439 239.944299 
L 676.86204 239.944287 
L 679.09364 239.944258 
L 681.325241 239.944193 
L 683.556842 239.944049 
L 685.788443 239.943747 
L 688.020044 239.943135 
L 690.251645 239.941936 
L 692.483246 239.939665 
L 694.714847 239.935496 
L 696.946447 239.928064 
L 699.178048 239.915175 
L 701.409649 239.893406 
L 703.64125 239.857547 
L 705.872851 239.799878 
L 708.104452 239.709232 
L 710.336053 239.569851 
L 712.567653 239.360025 
L 714.799254 239.050541 
L 717.030855 238.603019 
L 719.262456 237.968219 
L 721.494057 237.084485 
L 723.725658 235.876531 
L 725.957259 234.254805 
L 728.18886 232.115724 
L 730.42046 229.34308 
L 732.652061 225.810914 
L 734.883662 221.388087 
L 737.115263 215.944726 
L 739.346864 209.360556 
L 741.578465 201.534974 
L 743.810066 192.398499 
L 746.041666 181.925 
L 748.273267 170.143879 
L 750.504868 157.151168 
L 752.736469 143.11835 
L 754.96807 128.297656 
L 757.199671 113.022629 
L 759.431272 97.70296 
L 761.662873 82.812909 
L 763.894473 68.873116 
L 766.126074 56.426202 
L 768.357675 46.007217 
L 770.589276 38.110651 
L 772.820877 33.15635 
L 775.052478 31.4571 
L 777.284079 33.190896 
L 779.515679 38.380798 
L 781.74728 46.884924 
L 783.978881 58.398336 
L 786.210482 72.467595 
L 788.442083 88.5175 
L 790.673684 105.888232 
L 792.905285 123.8799 
L 795.136886 141.800499 
L 797.368486 159.012744 
L 799.600087 174.975146 
L 801.831688 189.273282 
L 804.063289 201.638217 
L 806.29489 211.950588 
L 808.526491 220.230604 
L 810.758092 226.615931 
L 812.989692 231.330964 
L 815.221293 234.65187 
L 817.452894 236.872114 
L 819.684495 238.272674 
L 821.916096 239.10001 
L 824.147697 239.553326 
L 826.379298 239.780919 
L 828.610898 239.883968 
L 830.842499 239.925166 
L 833.0741 239.939295 
L 835.305701 239.943284 
L 837.537302 239.944158 
L 839.768903 239.944293 
L 842.000504 239.944305 
L 844.232105 239.944306 
L 846.463705 239.944306 
L 848.695306 239.944306 
" style="fill:none;stroke:#cfcbbf;stroke-linecap:round;stroke-width:1.5;"/>
   </g>
   <g id="line2d_76">
    <path clip-path="url(#p64dcdd3da7)" d="M 627.766821 239.944306 
L 629.998421 239.944306 
L 632.230022 239.944306 
L 634.461623 239.944306 
L 636.693224 239.944306 
L 638.924825 239.944306 
L 641.156426 239.944306 
L 643.388027 239.944306 
L 645.619627 239.944306 
L 647.851228 239.944306 
L 650.082829 239.944306 
L 652.31443 239.944306 
L 654.546031 239.944306 
L 656.777632 239.944306 
L 659.009233 239.944306 
L 661.240834 239.944306 
L 663.472434 239.944306 
L 665.704035 239.944305 
L 667.935636 239.944305 
L 670.167237 239.944304 
L 672.398838 239.944301 
L 674.630439 239.944295 
L 676.86204 239.944283 
L 679.09364 239.944259 
L 681.325241 239.944211 
L 683.556842 239.944117 
L 685.788443 239.943936 
L 688.020044 239.943596 
L 690.251645 239.942964 
L 692.483246 239.941811 
L 694.714847 239.939745 
L 696.946447 239.936104 
L 699.178048 239.929799 
L 701.409649 239.919068 
L 703.64125 239.90112 
L 705.872851 239.871617 
L 708.104452 239.823966 
L 710.336053 239.748344 
L 712.567653 239.630431 
L 714.799254 239.449809 
L 717.030855 239.178019 
L 719.262456 238.77631 
L 721.494057 238.193199 
L 723.725658 237.362012 
L 725.957259 236.198717 
L 728.18886 234.600433 
L 730.42046 232.445126 
L 732.652061 229.593052 
L 734.883662 225.890506 
L 737.115263 221.176386 
L 739.346864 215.291855 
L 741.578465 208.093119 
L 743.810066 199.466894 
L 746.041666 189.347696 
L 748.273267 177.735526 
L 750.504868 164.712146 
L 752.736469 150.453802 
L 754.96807 135.238213 
L 757.199671 119.443893 
L 759.431272 103.540435 
L 761.662873 88.069256 
L 763.894473 73.615393 
L 766.126074 60.772098 
L 768.357675 50.101073 
L 770.589276 42.091974 
L 772.820877 37.125227 
L 775.052478 35.442091 
L 777.284079 37.125227 
L 779.515679 42.091973 
L 781.74728 50.101072 
L 783.978881 60.772097 
L 786.210482 73.615391 
L 788.442083 88.069255 
L 790.673684 103.540433 
L 792.905285 119.443891 
L 795.136886 135.238211 
L 797.368486 150.453801 
L 799.600087 164.712145 
L 801.831688 177.735524 
L 804.063289 189.347695 
L 806.29489 199.466893 
L 808.526491 208.093118 
L 810.758092 215.291855 
L 812.989692 221.176385 
L 815.221293 225.890505 
L 817.452894 229.593051 
L 819.684495 232.445126 
L 821.916096 234.600433 
L 824.147697 236.198717 
L 826.379298 237.362012 
L 828.610898 238.193199 
L 830.842499 238.77631 
L 833.0741 239.178019 
L 835.305701 239.449809 
L 837.537302 239.630431 
L 839.768903 239.748344 
L 842.000504 239.823966 
L 844.232105 239.871617 
L 846.463705 239.90112 
L 848.695306 239.919068 
" style="fill:none;stroke:#81aca4;stroke-linecap:round;stroke-width:1.5;"/>
   </g>
   <g id="text_44">
    <!-- $n=36$ -->
    <defs>
     <path d="M 40.578125 39.3125 
Q 47.65625 37.796875 51.625 33 
Q 55.609375 28.21875 55.609375 21.1875 
Q 55.609375 10.40625 48.1875 4.484375 
Q 40.765625 -1.421875 27.09375 -1.421875 
Q 22.515625 -1.421875 17.65625 -0.515625 
Q 12.796875 0.390625 7.625 2.203125 
L 7.625 11.71875 
Q 11.71875 9.328125 16.59375 8.109375 
Q 21.484375 6.890625 26.8125 6.890625 
Q 36.078125 6.890625 40.9375 10.546875 
Q 45.796875 14.203125 45.796875 21.1875 
Q 45.796875 27.640625 41.28125 31.265625 
Q 36.765625 34.90625 28.71875 34.90625 
L 20.21875 34.90625 
L 20.21875 43.015625 
L 29.109375 43.015625 
Q 36.375 43.015625 40.234375 45.921875 
Q 44.09375 48.828125 44.09375 54.296875 
Q 44.09375 59.90625 40.109375 62.90625 
Q 36.140625 65.921875 28.71875 65.921875 
Q 24.65625 65.921875 20.015625 65.03125 
Q 15.375 64.15625 9.8125 62.3125 
L 9.8125 71.09375 
Q 15.4375 72.65625 20.34375 73.4375 
Q 25.25 74.21875 29.59375 74.21875 
Q 40.828125 74.21875 47.359375 69.109375 
Q 53.90625 64.015625 53.90625 55.328125 
Q 53.90625 49.265625 50.4375 45.09375 
Q 46.96875 40.921875 40.578125 39.3125 
z
" id="DejaVuSans-51"/>
     <path d="M 33.015625 40.375 
Q 26.375 40.375 22.484375 35.828125 
Q 18.609375 31.296875 18.609375 23.390625 
Q 18.609375 15.53125 22.484375 10.953125 
Q 26.375 6.390625 33.015625 6.390625 
Q 39.65625 6.390625 43.53125 10.953125 
Q 47.40625 15.53125 47.40625 23.390625 
Q 47.40625 31.296875 43.53125 35.828125 
Q 39.65625 40.375 33.015625 40.375 
z
M 52.59375 71.296875 
L 52.59375 62.3125 
Q 48.875 64.0625 45.09375 64.984375 
Q 41.3125 65.921875 37.59375 65.921875 
Q 27.828125 65.921875 22.671875 59.328125 
Q 17.53125 52.734375 16.796875 39.40625 
Q 19.671875 43.65625 24.015625 45.921875 
Q 28.375 48.1875 33.59375 48.1875 
Q 44.578125 48.1875 50.953125 41.515625 
Q 57.328125 34.859375 57.328125 23.390625 
Q 57.328125 12.15625 50.6875 5.359375 
Q 44.046875 -1.421875 33.015625 -1.421875 
Q 20.359375 -1.421875 13.671875 8.265625 
Q 6.984375 17.96875 6.984375 36.375 
Q 6.984375 53.65625 15.1875 63.9375 
Q 23.390625 74.21875 37.203125 74.21875 
Q 40.921875 74.21875 44.703125 73.484375 
Q 48.484375 72.75 52.59375 71.296875 
z
" id="DejaVuSans-54"/>
    </defs>
    <g style="fill:#262626;" transform="translate(713.111063 15.03274)scale(0.16 -0.16)">
     <use transform="translate(0 0.78125)" xlink:href="#DejaVuSans-Oblique-110"/>
     <use transform="translate(82.861328 0.78125)" xlink:href="#DejaVuSans-61"/>
     <use transform="translate(186.132812 0.78125)" xlink:href="#DejaVuSans-51"/>
     <use transform="translate(249.755859 0.78125)" xlink:href="#DejaVuSans-54"/>
    </g>
   </g>
   <g id="legend_3">
    <g id="line2d_77">
     <path d="M 629.320396 39.261178 
L 657.320396 39.261178 
" style="fill:none;stroke:#cfcbbf;stroke-linecap:round;stroke-width:1.5;"/>
    </g>
    <g id="line2d_78"/>
    <g id="text_45">
     <!-- True posterior -->
     <g style="fill:#262626;" transform="translate(668.520396 44.161178)scale(0.14 -0.14)">
      <use xlink:href="#JosefinSans-Thin-84"/>
      <use x="57.499985" xlink:href="#JosefinSans-Thin-114"/>
      <use x="89.599976" xlink:href="#JosefinSans-Thin-117"/>
      <use x="138.299973" xlink:href="#JosefinSans-Thin-101"/>
      <use x="184.999969" xlink:href="#JosefinSans-Thin-32"/>
      <use x="215.09996" xlink:href="#JosefinSans-Thin-112"/>
      <use x="269.399948" xlink:href="#JosefinSans-Thin-111"/>
      <use x="319.699936" xlink:href="#JosefinSans-Thin-115"/>
      <use x="354.09993" xlink:href="#JosefinSans-Thin-116"/>
      <use x="384.499924" xlink:href="#JosefinSans-Thin-101"/>
      <use x="431.199921" xlink:href="#JosefinSans-Thin-114"/>
      <use x="463.299911" xlink:href="#JosefinSans-Thin-105"/>
      <use x="484.099899" xlink:href="#JosefinSans-Thin-111"/>
      <use x="534.399887" xlink:href="#JosefinSans-Thin-114"/>
     </g>
    </g>
    <g id="line2d_79">
     <path d="M 629.320396 59.32274 
L 657.320396 59.32274 
" style="fill:none;stroke:#81aca4;stroke-linecap:round;stroke-width:1.5;"/>
    </g>
    <g id="line2d_80"/>
    <g id="text_46">
     <!-- Quadratic approximation -->
     <g style="fill:#262626;" transform="translate(668.520396 64.22274)scale(0.14 -0.14)">
      <use xlink:href="#JosefinSans-Thin-81"/>
      <use x="87.899994" xlink:href="#JosefinSans-Thin-117"/>
      <use x="136.599991" xlink:href="#JosefinSans-Thin-97"/>
      <use x="190.799988" xlink:href="#JosefinSans-Thin-100"/>
      <use x="245.099976" xlink:href="#JosefinSans-Thin-114"/>
      <use x="277.199966" xlink:href="#JosefinSans-Thin-97"/>
      <use x="331.399963" xlink:href="#JosefinSans-Thin-116"/>
      <use x="361.799957" xlink:href="#JosefinSans-Thin-105"/>
      <use x="382.599945" xlink:href="#JosefinSans-Thin-99"/>
      <use x="424.59993" xlink:href="#JosefinSans-Thin-32"/>
      <use x="454.699921" xlink:href="#JosefinSans-Thin-97"/>
      <use x="508.899918" xlink:href="#JosefinSans-Thin-112"/>
      <use x="563.199905" xlink:href="#JosefinSans-Thin-112"/>
      <use x="617.499893" xlink:href="#JosefinSans-Thin-114"/>
      <use x="649.599884" xlink:href="#JosefinSans-Thin-111"/>
      <use x="699.899872" xlink:href="#JosefinSans-Thin-120"/>
      <use x="736.799866" xlink:href="#JosefinSans-Thin-105"/>
      <use x="757.599854" xlink:href="#JosefinSans-Thin-109"/>
      <use x="834.099838" xlink:href="#JosefinSans-Thin-97"/>
      <use x="888.299835" xlink:href="#JosefinSans-Thin-116"/>
      <use x="918.699829" xlink:href="#JosefinSans-Thin-105"/>
      <use x="939.499817" xlink:href="#JosefinSans-Thin-111"/>
      <use x="989.799805" xlink:href="#JosefinSans-Thin-110"/>
     </g>
    </g>
   </g>
  </g>
 </g>
 <defs>
  <clipPath id="pca73f0fb4b">
   <rect height="229.335926" width="243.021334" x="44.374771" y="21.03274"/>
  </clipPath>
  <clipPath id="p03bb841fb6">
   <rect height="229.335926" width="243.021334" x="330.547584" y="21.03274"/>
  </clipPath>
  <clipPath id="p64dcdd3da7">
   <rect height="229.335926" width="243.021334" x="616.720396" y="21.03274"/>
  </clipPath>
 </defs>
</svg>
