<?xml version="1.0" encoding="utf-8" standalone="no"?>
<!DOCTYPE svg PUBLIC "-//W3C//DTD SVG 1.1//EN"
  "http://www.w3.org/Graphics/SVG/1.1/DTD/svg11.dtd">
<!-- Created with matplotlib (https://matplotlib.org/) -->
<svg height="288pt" version="1.1" viewBox="0 0 864 288" width="864pt" xmlns="http://www.w3.org/2000/svg" xmlns:xlink="http://www.w3.org/1999/xlink">
 <defs>
  <style type="text/css">
*{stroke-linecap:butt;stroke-linejoin:round;}
  </style>
 </defs>
 <g id="figure_1">
  <g id="patch_1">
   <path d="M 0 288 
L 864 288 
L 864 0 
L 0 0 
z
" style="fill:#ffffff;"/>
  </g>
  <g id="axes_1">
   <g id="patch_2">
    <path d="M 26.38024 250.443666 
L 860.99976 250.443666 
L 860.99976 21.03274 
L 26.38024 21.03274 
z
" style="fill:#ffffff;"/>
   </g>
   <g id="matplotlib.axis_1">
    <g id="xtick_1">
     <g id="line2d_1">
      <path clip-path="url(#pc12e26d41e)" d="M 64.317491 250.443666 
L 64.317491 21.03274 
" style="fill:none;stroke:#cccccc;stroke-dasharray:0.8,1.32;stroke-dashoffset:0;stroke-width:0.8;"/>
     </g>
     <g id="line2d_2"/>
     <g id="text_1">
      <!-- 0.0 -->
      <defs>
       <path d="M 30.796875 -0.59375 
Q 22.203125 -0.59375 16.046875 4 
Q 9.90625 8.59375 6.75 16.1875 
Q 3.59375 23.796875 3.59375 32.59375 
Q 3.59375 41.40625 6.75 48.90625 
Q 9.90625 56.40625 16.046875 60.953125 
Q 22.203125 65.5 30.796875 65.5 
Q 39.40625 65.5 45.59375 60.953125 
Q 51.796875 56.40625 54.9375 48.84375 
Q 58.09375 41.296875 58.09375 32.59375 
Q 58.09375 23.796875 54.9375 16.1875 
Q 51.796875 8.59375 45.59375 4 
Q 39.40625 -0.59375 30.796875 -0.59375 
z
M 30.796875 1.296875 
Q 37.90625 1.203125 43.65625 5 
Q 49.40625 8.796875 52.75 15.890625 
Q 56.09375 23 56.09375 32.5 
Q 56.09375 42 52.75 49.046875 
Q 49.40625 56.09375 43.65625 59.890625 
Q 37.90625 63.703125 30.796875 63.59375 
Q 23.703125 63.703125 18 59.890625 
Q 12.296875 56.09375 8.9375 49.046875 
Q 5.59375 42 5.59375 32.5 
Q 5.59375 23 8.9375 15.890625 
Q 12.296875 8.796875 18 5 
Q 23.703125 1.203125 30.796875 1.296875 
z
" id="JosefinSans-Thin-48"/>
       <path d="M 7.09375 2.203125 
Q 7.09375 3.203125 7.796875 3.84375 
Q 8.5 4.5 9.40625 4.5 
Q 10.296875 4.5 10.9375 3.84375 
Q 11.59375 3.203125 11.59375 2.203125 
Q 11.59375 1.296875 10.9375 0.640625 
Q 10.296875 0 9.40625 0 
Q 8.5 0 7.796875 0.640625 
Q 7.09375 1.296875 7.09375 2.203125 
z
" id="JosefinSans-Thin-46"/>
      </defs>
      <g style="fill:#262626;" transform="translate(54.377491 264.472104)scale(0.14 -0.14)">
       <use xlink:href="#JosefinSans-Thin-48"/>
       <use x="61.699997" xlink:href="#JosefinSans-Thin-46"/>
       <use x="80.299988" xlink:href="#JosefinSans-Thin-48"/>
      </g>
     </g>
    </g>
    <g id="xtick_2">
     <g id="line2d_3">
      <path clip-path="url(#pc12e26d41e)" d="M 216.066495 250.443666 
L 216.066495 21.03274 
" style="fill:none;stroke:#cccccc;stroke-dasharray:0.8,1.32;stroke-dashoffset:0;stroke-width:0.8;"/>
     </g>
     <g id="line2d_4"/>
     <g id="text_2">
      <!-- 0.2 -->
      <defs>
       <path d="M 45.296875 1.90625 
L 45.296875 0 
L 5.296875 0 
Q 16.296875 10.59375 23.046875 17.84375 
Q 29.796875 25.09375 34.296875 32.4375 
Q 38.796875 39.796875 38.796875 46.296875 
Q 38.796875 52.59375 36.34375 56.546875 
Q 33.90625 60.5 30.296875 62.25 
Q 26.703125 64 23 64 
Q 17 64 13.390625 61.296875 
Q 9.796875 58.59375 8.34375 54.6875 
Q 6.90625 50.796875 6.90625 46.90625 
Q 6.90625 39.703125 10.796875 35.5 
L 9.59375 34.40625 
Q 4.90625 39.59375 4.90625 46.796875 
Q 4.90625 55.09375 9.75 60.5 
Q 14.59375 65.90625 23.09375 65.90625 
Q 28.296875 65.90625 32.34375 63.40625 
Q 36.40625 60.90625 38.59375 56.453125 
Q 40.796875 52 40.796875 46.40625 
Q 40.796875 40.296875 37.25 33.84375 
Q 33.703125 27.40625 28.640625 21.59375 
Q 23.59375 15.796875 15.296875 7.5 
L 9.796875 1.90625 
z
" id="JosefinSans-Thin-50"/>
      </defs>
      <g style="fill:#262626;" transform="translate(206.974151 264.472104)scale(0.14 -0.14)">
       <use xlink:href="#JosefinSans-Thin-48"/>
       <use x="61.699997" xlink:href="#JosefinSans-Thin-46"/>
       <use x="80.299988" xlink:href="#JosefinSans-Thin-50"/>
      </g>
     </g>
    </g>
    <g id="xtick_3">
     <g id="line2d_5">
      <path clip-path="url(#pc12e26d41e)" d="M 367.815498 250.443666 
L 367.815498 21.03274 
" style="fill:none;stroke:#cccccc;stroke-dasharray:0.8,1.32;stroke-dashoffset:0;stroke-width:0.8;"/>
     </g>
     <g id="line2d_6"/>
     <g id="text_3">
      <!-- 0.4 -->
      <defs>
       <path d="M 48.796875 19.90625 
L 48.796875 18.09375 
L 39.203125 18.09375 
L 39.203125 0 
L 37.203125 0 
L 37.203125 18.09375 
L 2.296875 18.09375 
L 2.296875 18.203125 
L 39.09375 65.90625 
L 39.203125 65.90625 
L 39.203125 19.90625 
z
M 37.203125 19.90625 
L 37.203125 60.5 
L 5.796875 19.90625 
z
" id="JosefinSans-Thin-52"/>
      </defs>
      <g style="fill:#262626;" transform="translate(358.653154 264.472104)scale(0.14 -0.14)">
       <use xlink:href="#JosefinSans-Thin-48"/>
       <use x="61.699997" xlink:href="#JosefinSans-Thin-46"/>
       <use x="80.299988" xlink:href="#JosefinSans-Thin-52"/>
      </g>
     </g>
    </g>
    <g id="xtick_4">
     <g id="line2d_7">
      <path clip-path="url(#pc12e26d41e)" d="M 519.564502 250.443666 
L 519.564502 21.03274 
" style="fill:none;stroke:#cccccc;stroke-dasharray:0.8,1.32;stroke-dashoffset:0;stroke-width:0.8;"/>
     </g>
     <g id="line2d_8"/>
     <g id="text_4">
      <!-- 0.6 -->
      <defs>
       <path d="M 25.796875 39.703125 
Q 31.296875 39.703125 35.9375 36.953125 
Q 40.59375 34.203125 43.34375 29.546875 
Q 46.09375 24.90625 46.09375 19.40625 
Q 46.09375 13.90625 43.34375 9.25 
Q 40.59375 4.59375 35.84375 1.890625 
Q 31.09375 -0.796875 25.5 -0.796875 
Q 19.90625 -0.796875 15.15625 1.953125 
Q 10.40625 4.703125 7.65625 9.390625 
Q 4.90625 14.09375 4.90625 19.703125 
Q 4.90625 29.09375 9.703125 37.09375 
Q 14.5 45.09375 21.046875 50.9375 
Q 27.59375 56.796875 37.90625 64.40625 
L 39.203125 62.703125 
Q 27.703125 55 20.25 47.34375 
Q 12.796875 39.703125 9.90625 32.703125 
Q 12.796875 36.09375 16.9375 37.890625 
Q 21.09375 39.703125 25.796875 39.703125 
z
M 25.40625 1 
Q 30.5 1 34.796875 3.453125 
Q 39.09375 5.90625 41.59375 10.15625 
Q 44.09375 14.40625 44.09375 19.40625 
Q 44.09375 24.5 41.59375 28.75 
Q 39.09375 33 34.796875 35.453125 
Q 30.5 37.90625 25.40625 37.90625 
Q 20.296875 37.90625 16.046875 35.65625 
Q 11.796875 33.40625 9.296875 29.40625 
Q 6.796875 25.40625 6.796875 20.203125 
L 6.796875 19.40625 
Q 6.796875 14.40625 9.296875 10.203125 
Q 11.796875 6 16.046875 3.5 
Q 20.296875 1 25.40625 1 
z
" id="JosefinSans-Thin-54"/>
      </defs>
      <g style="fill:#262626;" transform="translate(510.303721 264.472104)scale(0.14 -0.14)">
       <use xlink:href="#JosefinSans-Thin-48"/>
       <use x="61.699997" xlink:href="#JosefinSans-Thin-46"/>
       <use x="80.299988" xlink:href="#JosefinSans-Thin-54"/>
      </g>
     </g>
    </g>
    <g id="xtick_5">
     <g id="line2d_9">
      <path clip-path="url(#pc12e26d41e)" d="M 671.313505 250.443666 
L 671.313505 21.03274 
" style="fill:none;stroke:#cccccc;stroke-dasharray:0.8,1.32;stroke-dashoffset:0;stroke-width:0.8;"/>
     </g>
     <g id="line2d_10"/>
     <g id="text_5">
      <!-- 0.8 -->
      <defs>
       <path d="M 4.90625 19.59375 
Q 4.90625 26.5 9.09375 31.84375 
Q 13.296875 37.203125 19.796875 39 
Q 15.59375 40.40625 13 43.75 
Q 10.40625 47.09375 10.40625 51.203125 
Q 10.40625 57.59375 14.40625 61.75 
Q 18.40625 65.90625 25 65.90625 
Q 31.59375 65.90625 35.59375 61.703125 
Q 39.59375 57.5 39.59375 51.09375 
Q 39.59375 47 37.09375 43.703125 
Q 34.59375 40.40625 30.59375 39 
Q 37.296875 37.296875 41.640625 31.9375 
Q 46 26.59375 46 19.59375 
Q 46 14.09375 43.203125 9.390625 
Q 40.40625 4.703125 35.65625 1.953125 
Q 30.90625 -0.796875 25.296875 -0.796875 
Q 19.703125 -0.796875 15.046875 1.953125 
Q 10.40625 4.703125 7.65625 9.390625 
Q 4.90625 14.09375 4.90625 19.59375 
z
M 12.296875 51.09375 
Q 12.296875 46.203125 16.046875 42.953125 
Q 19.796875 39.703125 25.203125 39.703125 
Q 30.5 39.703125 34.046875 42.953125 
Q 37.59375 46.203125 37.59375 51.09375 
Q 37.59375 56.90625 34.09375 60.5 
Q 30.59375 64.09375 25.203125 64.09375 
Q 19.703125 64.09375 16 60.5 
Q 12.296875 56.90625 12.296875 51.09375 
z
M 6.796875 19.59375 
Q 6.796875 14.703125 9.25 10.390625 
Q 11.703125 6.09375 15.890625 3.546875 
Q 20.09375 1 25.09375 1 
Q 30.203125 1 34.546875 3.546875 
Q 38.90625 6.09375 41.453125 10.390625 
Q 44 14.703125 44 19.59375 
Q 44 24.59375 41.453125 28.796875 
Q 38.90625 33 34.546875 35.5 
Q 30.203125 38 25.09375 38 
Q 20.09375 38 15.890625 35.5 
Q 11.703125 33 9.25 28.796875 
Q 6.796875 24.59375 6.796875 19.59375 
z
" id="JosefinSans-Thin-56"/>
      </defs>
      <g style="fill:#262626;" transform="translate(662.136943 264.472104)scale(0.14 -0.14)">
       <use xlink:href="#JosefinSans-Thin-48"/>
       <use x="61.699997" xlink:href="#JosefinSans-Thin-46"/>
       <use x="80.299988" xlink:href="#JosefinSans-Thin-56"/>
      </g>
     </g>
    </g>
    <g id="xtick_6">
     <g id="line2d_11">
      <path clip-path="url(#pc12e26d41e)" d="M 823.062509 250.443666 
L 823.062509 21.03274 
" style="fill:none;stroke:#cccccc;stroke-dasharray:0.8,1.32;stroke-dashoffset:0;stroke-width:0.8;"/>
     </g>
     <g id="line2d_12"/>
     <g id="text_6">
      <!-- 1.0 -->
      <defs>
       <path d="M 19 65.09375 
L 19 0 
L 17 0 
L 17 63.09375 
L 5.90625 63.09375 
L 5.90625 65.09375 
z
" id="JosefinSans-Thin-49"/>
      </defs>
      <g style="fill:#262626;" transform="translate(815.285947 264.472104)scale(0.14 -0.14)">
       <use xlink:href="#JosefinSans-Thin-49"/>
       <use x="30.799988" xlink:href="#JosefinSans-Thin-46"/>
       <use x="49.399979" xlink:href="#JosefinSans-Thin-48"/>
      </g>
     </g>
    </g>
    <g id="text_7">
     <!-- Proportion water -->
     <defs>
      <path d="M 26.5 70.203125 
Q 35.59375 70.203125 41.09375 65.5 
Q 46.59375 60.796875 46.59375 51.5 
Q 46.59375 46.203125 44.25 41.703125 
Q 41.90625 37.203125 37.046875 34.453125 
Q 32.203125 31.703125 25 31.703125 
L 13.90625 31.703125 
L 13.90625 0 
L 11.90625 0 
L 11.90625 70.203125 
L 26.5 70.203125 
z
M 25 33.59375 
Q 32.203125 33.59375 36.59375 36.4375 
Q 41 39.296875 42.84375 43.4375 
Q 44.703125 47.59375 44.703125 51.703125 
Q 44.703125 59.59375 39.703125 63.9375 
Q 34.703125 68.296875 26.40625 68.296875 
L 13.90625 68.296875 
L 13.90625 33.59375 
L 25 33.59375 
z
" id="JosefinSans-Thin-80"/>
      <path d="M 11.203125 27.59375 
Q 13 32.59375 17.546875 35.5 
Q 22.09375 38.40625 27.703125 38.5 
L 27.59375 36.703125 
Q 23.203125 36.5 19.5 34.59375 
Q 15.796875 32.703125 13.59375 29.34375 
Q 11.40625 26 11.40625 21.796875 
L 11.40625 0 
L 9.40625 0 
L 9.40625 37.796875 
L 10.90625 37.796875 
L 11.203125 27.59375 
z
" id="JosefinSans-Thin-114"/>
      <path d="M 5.40625 19 
Q 5.40625 24.40625 8.046875 28.90625 
Q 10.703125 33.40625 15.203125 36.046875 
Q 19.703125 38.703125 25.09375 38.703125 
Q 30.5 38.703125 35.046875 36.046875 
Q 39.59375 33.40625 42.25 28.90625 
Q 44.90625 24.40625 44.90625 19 
Q 44.90625 13.59375 42.25 9.09375 
Q 39.59375 4.59375 35.046875 2 
Q 30.5 -0.59375 25.09375 -0.59375 
Q 19.703125 -0.59375 15.140625 1.953125 
Q 10.59375 4.5 8 9 
Q 5.40625 13.5 5.40625 19 
z
M 7.40625 19 
Q 7.40625 14.09375 9.75 10 
Q 12.09375 5.90625 16.140625 3.5 
Q 20.203125 1.09375 25.09375 1.09375 
Q 29.90625 1.09375 33.953125 3.5 
Q 38 5.90625 40.390625 10 
Q 42.796875 14.09375 42.796875 19 
Q 42.796875 23.796875 40.390625 27.9375 
Q 38 32.09375 33.953125 34.5 
Q 29.90625 36.90625 25.09375 36.90625 
Q 20.203125 36.90625 16.09375 34.34375 
Q 12 31.796875 9.703125 27.640625 
Q 7.40625 23.5 7.40625 19 
z
" id="JosefinSans-Thin-111"/>
      <path d="M 29.40625 38.59375 
Q 34.703125 38.59375 39.203125 35.9375 
Q 43.703125 33.296875 46.296875 28.796875 
Q 48.90625 24.296875 48.90625 18.90625 
Q 48.90625 13.5 46.296875 9.046875 
Q 43.703125 4.59375 39.203125 2 
Q 34.703125 -0.59375 29.296875 -0.59375 
Q 23.40625 -0.59375 18.59375 2.5 
Q 13.796875 5.59375 11.40625 10.703125 
L 11.40625 -18.09375 
L 9.40625 -18.09375 
L 9.40625 37.796875 
L 11.296875 37.796875 
L 11.40625 27 
Q 13.796875 32.203125 18.640625 35.390625 
Q 23.5 38.59375 29.40625 38.59375 
z
M 29.09375 1.09375 
Q 34 1.09375 38.046875 3.5 
Q 42.09375 5.90625 44.5 10 
Q 46.90625 14.09375 46.90625 18.90625 
Q 46.90625 23.796875 44.5 27.9375 
Q 42.09375 32.09375 38.046875 34.5 
Q 34 36.90625 29.203125 36.90625 
Q 24.40625 36.90625 20.34375 34.5 
Q 16.296875 32.09375 13.84375 28.046875 
Q 11.40625 24 11.40625 19.203125 
L 11.40625 18.203125 
Q 11.5 13.59375 13.953125 9.640625 
Q 16.40625 5.703125 20.40625 3.390625 
Q 24.40625 1.09375 29.09375 1.09375 
z
" id="JosefinSans-Thin-112"/>
      <path d="M 15.296875 54.296875 
L 15.296875 37 
L 27.90625 37 
L 27.90625 35.296875 
L 15.296875 35.296875 
L 15.296875 0 
L 13.296875 0 
L 13.296875 35.296875 
L 4.5 35.296875 
L 4.5 37 
L 13.296875 37 
L 13.296875 54.296875 
z
" id="JosefinSans-Thin-116"/>
      <path d="M 11.40625 37.796875 
L 11.40625 0 
L 9.40625 0 
L 9.40625 37.796875 
z
M 8.203125 49.703125 
Q 8.203125 50.609375 8.84375 51.25 
Q 9.5 51.90625 10.5 51.90625 
Q 11.40625 51.90625 12.046875 51.25 
Q 12.703125 50.609375 12.703125 49.703125 
Q 12.703125 48.796875 12.046875 48.140625 
Q 11.40625 47.5 10.5 47.5 
Q 9.59375 47.5 8.890625 48.203125 
Q 8.203125 48.90625 8.203125 49.703125 
z
" id="JosefinSans-Thin-105"/>
      <path d="M 27.59375 38.5 
Q 32.796875 38.5 35.9375 35.390625 
Q 39.09375 32.296875 39.296875 27.296875 
L 39.296875 0 
L 37.296875 0 
L 37.296875 27.09375 
Q 37.09375 31.296875 34.546875 33.9375 
Q 32 36.59375 27.40625 36.796875 
Q 23.203125 36.796875 19.546875 34.890625 
Q 15.90625 33 13.65625 29.59375 
Q 11.40625 26.203125 11.40625 21.90625 
L 11.40625 0 
L 9.40625 0 
L 9.40625 37.796875 
L 10.90625 37.796875 
L 11.203125 27.703125 
Q 13 32.703125 17.5 35.59375 
Q 22 38.5 27.59375 38.5 
z
" id="JosefinSans-Thin-110"/>
      <path id="JosefinSans-Thin-32"/>
      <path d="M 62.5 37.796875 
L 44.59375 -2.296875 
L 32.5 25.203125 
L 21.296875 -2.296875 
L 3.40625 37.796875 
L 5.40625 37.796875 
L 21.40625 2 
L 31.5 27.09375 
L 26.703125 37.796875 
L 28.703125 37.796875 
L 44.703125 1.796875 
L 60.5 37.796875 
z
" id="JosefinSans-Thin-119"/>
      <path d="M 44.796875 37.796875 
L 44.796875 0 
L 42.90625 0 
L 42.90625 10.796875 
Q 40.796875 5.796875 35.84375 2.59375 
Q 30.90625 -0.59375 24.90625 -0.59375 
Q 19.59375 -0.59375 15.09375 2 
Q 10.59375 4.59375 8 9.046875 
Q 5.40625 13.5 5.40625 18.90625 
Q 5.40625 25 8.046875 29.453125 
Q 10.703125 33.90625 15.203125 36.25 
Q 19.703125 38.59375 25.203125 38.59375 
Q 31 38.59375 35.796875 35.34375 
Q 40.59375 32.09375 42.90625 26.90625 
L 43.296875 37.796875 
z
M 25.09375 1.09375 
Q 30 1.09375 34.046875 3.296875 
Q 38.09375 5.5 40.5 9.390625 
Q 42.90625 13.296875 42.90625 18.09375 
L 42.90625 22.203125 
Q 41.703125 28.40625 36.640625 32.65625 
Q 31.59375 36.90625 25.09375 36.90625 
Q 20.203125 36.90625 16.140625 34.703125 
Q 12.09375 32.5 9.75 28.390625 
Q 7.40625 24.296875 7.40625 19 
Q 7.40625 14.09375 9.796875 10 
Q 12.203125 5.90625 16.25 3.5 
Q 20.296875 1.09375 25.09375 1.09375 
z
" id="JosefinSans-Thin-97"/>
      <path d="M 25.09375 1.09375 
Q 28.59375 1.09375 31.75 2.34375 
Q 34.90625 3.59375 37.296875 5.90625 
L 38.59375 4.5 
Q 35.796875 2.09375 32.34375 0.75 
Q 28.90625 -0.59375 25.09375 -0.59375 
Q 19.59375 -0.59375 15.09375 2 
Q 10.59375 4.59375 8 9.09375 
Q 5.40625 13.59375 5.40625 19 
Q 5.40625 24.40625 8.046875 28.90625 
Q 10.703125 33.40625 15.203125 36.046875 
Q 19.703125 38.703125 25.09375 38.703125 
Q 31.09375 38.703125 35.546875 35.203125 
Q 40 31.703125 42.296875 25.90625 
L 8.703125 12.296875 
Q 10.703125 7.40625 15 4.25 
Q 19.296875 1.09375 25.09375 1.09375 
z
M 25 36.90625 
Q 20.203125 36.90625 16.140625 34.5 
Q 12.09375 32.09375 9.75 28 
Q 7.40625 23.90625 7.40625 19 
Q 7.40625 16.203125 8.09375 14 
L 39.796875 26.796875 
Q 37.5 31.296875 33.640625 34.09375 
Q 29.796875 36.90625 25 36.90625 
z
" id="JosefinSans-Thin-101"/>
     </defs>
     <g style="fill:#262626;" transform="translate(392.563438 282.285698)scale(0.15 -0.15)">
      <use xlink:href="#JosefinSans-Thin-80"/>
      <use x="52.999985" xlink:href="#JosefinSans-Thin-114"/>
      <use x="85.099976" xlink:href="#JosefinSans-Thin-111"/>
      <use x="135.399963" xlink:href="#JosefinSans-Thin-112"/>
      <use x="189.699951" xlink:href="#JosefinSans-Thin-111"/>
      <use x="239.999939" xlink:href="#JosefinSans-Thin-114"/>
      <use x="272.09993" xlink:href="#JosefinSans-Thin-116"/>
      <use x="302.499924" xlink:href="#JosefinSans-Thin-105"/>
      <use x="323.299911" xlink:href="#JosefinSans-Thin-111"/>
      <use x="373.599899" xlink:href="#JosefinSans-Thin-110"/>
      <use x="422.299896" xlink:href="#JosefinSans-Thin-32"/>
      <use x="452.399887" xlink:href="#JosefinSans-Thin-119"/>
      <use x="518.299881" xlink:href="#JosefinSans-Thin-97"/>
      <use x="572.499878" xlink:href="#JosefinSans-Thin-116"/>
      <use x="602.899872" xlink:href="#JosefinSans-Thin-101"/>
      <use x="649.599869" xlink:href="#JosefinSans-Thin-114"/>
     </g>
    </g>
   </g>
   <g id="matplotlib.axis_2">
    <g id="ytick_1">
     <g id="line2d_13">
      <path clip-path="url(#pc12e26d41e)" d="M 26.38024 240.015897 
L 860.99976 240.015897 
" style="fill:none;stroke:#cccccc;stroke-dasharray:0.8,1.32;stroke-dashoffset:0;stroke-width:0.8;"/>
     </g>
     <g id="line2d_14"/>
     <g id="text_8">
      <!-- 0.0 -->
      <g style="fill:#262626;" transform="translate(3.00024 245.280116)scale(0.14 -0.14)">
       <use xlink:href="#JosefinSans-Thin-48"/>
       <use x="61.699997" xlink:href="#JosefinSans-Thin-46"/>
       <use x="80.299988" xlink:href="#JosefinSans-Thin-48"/>
      </g>
     </g>
    </g>
    <g id="ytick_2">
     <g id="line2d_15">
      <path clip-path="url(#pc12e26d41e)" d="M 26.38024 201.836993 
L 860.99976 201.836993 
" style="fill:none;stroke:#cccccc;stroke-dasharray:0.8,1.32;stroke-dashoffset:0;stroke-width:0.8;"/>
     </g>
     <g id="line2d_16"/>
     <g id="text_9">
      <!-- 0.5 -->
      <defs>
       <path d="M 25.703125 39.796875 
Q 31.40625 39.796875 36.046875 37.09375 
Q 40.703125 34.40625 43.34375 29.796875 
Q 46 25.203125 46 19.59375 
Q 46 14.09375 43.25 9.390625 
Q 40.5 4.703125 35.75 1.953125 
Q 31 -0.796875 25.40625 -0.796875 
Q 21.40625 -0.796875 17.65625 0.703125 
Q 13.90625 2.203125 11.09375 4.90625 
L 12.40625 6.203125 
Q 14.796875 3.703125 18.09375 2.34375 
Q 21.40625 1 25.09375 1 
Q 30.203125 1 34.546875 3.546875 
Q 38.90625 6.09375 41.453125 10.390625 
Q 44 14.703125 44 19.59375 
Q 44 24.59375 41.546875 28.84375 
Q 39.09375 33.09375 34.796875 35.546875 
Q 30.5 38 25.296875 38 
Q 22 38 19.046875 36.890625 
Q 16.09375 35.796875 14.09375 34 
L 14 34 
L 14 65.09375 
L 42.90625 65.09375 
L 42.90625 63.203125 
L 15.90625 63.203125 
L 15.90625 37.5 
Q 17.796875 38.5 20.5 39.140625 
Q 23.203125 39.796875 25.703125 39.796875 
z
" id="JosefinSans-Thin-53"/>
      </defs>
      <g style="fill:#262626;" transform="translate(4.037115 207.101212)scale(0.14 -0.14)">
       <use xlink:href="#JosefinSans-Thin-48"/>
       <use x="61.699997" xlink:href="#JosefinSans-Thin-46"/>
       <use x="80.299988" xlink:href="#JosefinSans-Thin-53"/>
      </g>
     </g>
    </g>
    <g id="ytick_3">
     <g id="line2d_17">
      <path clip-path="url(#pc12e26d41e)" d="M 26.38024 163.65809 
L 860.99976 163.65809 
" style="fill:none;stroke:#cccccc;stroke-dasharray:0.8,1.32;stroke-dashoffset:0;stroke-width:0.8;"/>
     </g>
     <g id="line2d_18"/>
     <g id="text_10">
      <!-- 1.0 -->
      <g style="fill:#262626;" transform="translate(7.327115 168.922309)scale(0.14 -0.14)">
       <use xlink:href="#JosefinSans-Thin-49"/>
       <use x="30.799988" xlink:href="#JosefinSans-Thin-46"/>
       <use x="49.399979" xlink:href="#JosefinSans-Thin-48"/>
      </g>
     </g>
    </g>
    <g id="ytick_4">
     <g id="line2d_19">
      <path clip-path="url(#pc12e26d41e)" d="M 26.38024 125.479187 
L 860.99976 125.479187 
" style="fill:none;stroke:#cccccc;stroke-dasharray:0.8,1.32;stroke-dashoffset:0;stroke-width:0.8;"/>
     </g>
     <g id="line2d_20"/>
     <g id="text_11">
      <!-- 1.5 -->
      <g style="fill:#262626;" transform="translate(8.36399 130.743405)scale(0.14 -0.14)">
       <use xlink:href="#JosefinSans-Thin-49"/>
       <use x="30.799988" xlink:href="#JosefinSans-Thin-46"/>
       <use x="49.399979" xlink:href="#JosefinSans-Thin-53"/>
      </g>
     </g>
    </g>
    <g id="ytick_5">
     <g id="line2d_21">
      <path clip-path="url(#pc12e26d41e)" d="M 26.38024 87.300283 
L 860.99976 87.300283 
" style="fill:none;stroke:#cccccc;stroke-dasharray:0.8,1.32;stroke-dashoffset:0;stroke-width:0.8;"/>
     </g>
     <g id="line2d_22"/>
     <g id="text_12">
      <!-- 2.0 -->
      <g style="fill:#262626;" transform="translate(4.695553 92.564502)scale(0.14 -0.14)">
       <use xlink:href="#JosefinSans-Thin-50"/>
       <use x="49.599991" xlink:href="#JosefinSans-Thin-46"/>
       <use x="68.199982" xlink:href="#JosefinSans-Thin-48"/>
      </g>
     </g>
    </g>
    <g id="ytick_6">
     <g id="line2d_23">
      <path clip-path="url(#pc12e26d41e)" d="M 26.38024 49.12138 
L 860.99976 49.12138 
" style="fill:none;stroke:#cccccc;stroke-dasharray:0.8,1.32;stroke-dashoffset:0;stroke-width:0.8;"/>
     </g>
     <g id="line2d_24"/>
     <g id="text_13">
      <!-- 2.5 -->
      <g style="fill:#262626;" transform="translate(5.732428 54.385599)scale(0.14 -0.14)">
       <use xlink:href="#JosefinSans-Thin-50"/>
       <use x="49.599991" xlink:href="#JosefinSans-Thin-46"/>
       <use x="68.199982" xlink:href="#JosefinSans-Thin-53"/>
      </g>
     </g>
    </g>
   </g>
   <g id="line2d_25">
    <path clip-path="url(#pc12e26d41e)" d="M 64.317491 240.015897 
L 71.981582 240.015897 
L 79.645673 240.015893 
L 87.309764 240.015852 
L 94.973855 240.01565 
L 102.637946 240.014986 
L 110.302037 240.013262 
L 117.966129 240.009465 
L 125.63022 240.002027 
L 133.294311 239.988695 
L 140.958402 239.966399 
L 148.622493 239.931131 
L 156.286584 239.877839 
L 163.950675 239.800335 
L 171.614766 239.691228 
L 179.278857 239.541872 
L 186.942948 239.342346 
L 194.607039 239.081458 
L 202.271131 238.746767 
L 209.935222 238.324648 
L 217.599313 237.800369 
L 225.263404 237.158204 
L 232.927495 236.381568 
L 240.591586 235.453177 
L 248.255677 234.355235 
L 255.919768 233.069634 
L 263.583859 231.578186 
L 271.24795 229.862858 
L 278.912042 227.906034 
L 286.576133 225.690783 
L 294.240224 223.201133 
L 301.904315 220.422358 
L 309.568406 217.341264 
L 317.232497 213.946473 
L 324.896588 210.228706 
L 332.560679 206.181054 
L 340.22477 201.799245 
L 347.888861 197.081893 
L 355.552952 192.030724 
L 363.217044 186.650791 
L 370.881135 180.950658 
L 378.545226 174.942556 
L 386.209317 168.642513 
L 393.873408 162.070442 
L 401.537499 155.250206 
L 409.20159 148.209627 
L 416.865681 140.98047 
L 424.529772 133.598371 
L 432.193863 126.102728 
L 439.857954 118.536543 
L 447.522046 110.946213 
L 455.186137 103.381278 
L 462.850228 95.894117 
L 470.514319 88.539595 
L 478.17841 81.374662 
L 485.842501 74.457906 
L 493.506592 67.849057 
L 501.170683 61.608447 
L 508.834774 55.796434 
L 516.498865 50.472777 
L 524.162956 45.695986 
L 531.827048 41.52263 
L 539.491139 38.006631 
L 547.15523 35.19853 
L 554.819321 33.144733 
L 562.483412 31.886766 
L 570.147503 31.460509 
L 577.811594 31.895459 
L 585.475685 33.21399 
L 593.139776 35.430661 
L 600.803867 38.551544 
L 608.467958 42.573613 
L 616.13205 47.484194 
L 623.796141 53.26049 
L 631.460232 59.869191 
L 639.124323 67.266203 
L 646.788414 75.396486 
L 654.452505 84.194041 
L 662.116596 93.582047 
L 669.780687 103.473188 
L 677.444778 113.770165 
L 685.108869 124.366437 
L 692.772961 135.147203 
L 700.437052 145.99065 
L 708.101143 156.769494 
L 715.765234 167.352844 
L 723.429325 177.608403 
L 731.093416 187.405057 
L 738.757507 196.615863 
L 746.421598 205.121474 
L 754.085689 212.814039 
L 761.74978 219.601606 
L 769.413871 225.413066 
L 777.077963 230.203674 
L 784.742054 233.96119 
L 792.406145 236.712676 
L 800.070236 238.531988 
L 807.734327 239.548015 
L 815.398418 239.953699 
L 823.062509 240.015897 
" style="fill:none;stroke:#cfcbbf;stroke-linecap:round;stroke-width:1.5;"/>
   </g>
   <g id="line2d_26">
    <path clip-path="url(#pc12e26d41e)" d="M 64.317491 239.991972 
L 71.981582 239.984536 
L 79.645673 239.974958 
L 87.309764 239.962674 
L 94.973855 239.94699 
L 102.637946 239.927053 
L 110.302037 239.901819 
L 117.966129 239.870022 
L 125.63022 239.830131 
L 133.294311 239.780308 
L 140.958402 239.718354 
L 148.622493 239.641657 
L 156.286584 239.54713 
L 163.950675 239.43115 
L 171.614766 239.289482 
L 179.278857 239.117213 
L 186.942948 238.908676 
L 194.607039 238.657373 
L 202.271131 238.355906 
L 209.935222 237.995906 
L 217.599313 237.567969 
L 225.263404 237.061607 
L 232.927495 236.465204 
L 240.591586 235.766 
L 248.255677 234.950084 
L 255.919768 234.002425 
L 263.583859 232.906925 
L 271.24795 231.646509 
L 278.912042 230.203254 
L 286.576133 228.55856 
L 294.240224 226.693364 
L 301.904315 224.588407 
L 309.568406 222.224536 
L 317.232497 219.583071 
L 324.896588 216.646199 
L 332.560679 213.397422 
L 340.22477 209.822037 
L 347.888861 205.907643 
L 355.552952 201.644665 
L 363.217044 197.026892 
L 370.881135 192.052003 
L 378.545226 186.722075 
L 386.209317 181.044055 
L 393.873408 175.030179 
L 401.537499 168.698327 
L 409.20159 162.07228 
L 416.865681 155.181894 
L 424.529772 148.063138 
L 432.193863 140.758024 
L 439.857954 133.314389 
L 447.522046 125.785537 
L 455.186137 118.22974 
L 462.850228 110.709592 
L 470.514319 103.29123 
L 478.17841 96.043432 
L 485.842501 89.036599 
L 493.506592 82.341653 
L 501.170683 76.028864 
L 508.834774 70.166639 
L 516.498865 64.820298 
L 524.162956 60.050865 
L 531.827048 55.913918 
L 539.491139 52.458507 
L 547.15523 49.726189 
L 554.819321 47.750197 
L 562.483412 46.554767 
L 570.147503 46.15464 
L 577.811594 46.554767 
L 585.475685 47.750197 
L 593.139776 49.726189 
L 600.803867 52.458507 
L 608.467958 55.913918 
L 616.13205 60.050865 
L 623.796141 64.820297 
L 631.460232 70.166639 
L 639.124323 76.028863 
L 646.788414 82.341652 
L 654.452505 89.036598 
L 662.116596 96.043431 
L 669.780687 103.291229 
L 677.444778 110.709591 
L 685.108869 118.229739 
L 692.772961 125.785537 
L 700.437052 133.314388 
L 708.101143 140.758023 
L 715.765234 148.063137 
L 723.429325 155.181893 
L 731.093416 162.07228 
L 738.757507 168.698326 
L 746.421598 175.030179 
L 754.085689 181.044054 
L 761.74978 186.722075 
L 769.413871 192.052003 
L 777.077963 197.026892 
L 784.742054 201.644664 
L 792.406145 205.907642 
L 800.070236 209.822037 
L 807.734327 213.397421 
L 815.398418 216.646198 
L 823.062509 219.583071 
" style="fill:none;stroke:#81aca4;stroke-linecap:round;stroke-width:1.5;"/>
   </g>
   <g id="text_14">
    <!-- n = 9 -->
    <defs>
     <path d="M 60.703125 36 
L 60.703125 34.203125 
L 10 34.203125 
L 10 36 
z
M 60.703125 16.59375 
L 60.703125 14.796875 
L 10 14.796875 
L 10 16.59375 
z
" id="JosefinSans-Thin-61"/>
     <path d="M 25.5 65.09375 
Q 31.203125 65.09375 35.890625 62.5 
Q 40.59375 59.90625 43.34375 55.09375 
Q 46.09375 50.296875 46.09375 43.90625 
Q 46.09375 34.703125 41.296875 26.75 
Q 36.5 18.796875 29.75 12.6875 
Q 23 6.59375 13 -0.796875 
L 11.59375 0.90625 
Q 22.703125 8.203125 29.890625 15.390625 
Q 37.09375 22.59375 40.296875 28.59375 
Q 37.296875 25.59375 33.75 24.25 
Q 30.203125 22.90625 25.296875 22.90625 
Q 19.796875 22.90625 15.09375 25.75 
Q 10.40625 28.59375 7.65625 33.4375 
Q 4.90625 38.296875 4.90625 44 
Q 4.90625 49.796875 7.703125 54.640625 
Q 10.5 59.5 15.203125 62.296875 
Q 19.90625 65.09375 25.5 65.09375 
z
M 25.59375 24.796875 
Q 34.203125 24.796875 39.203125 29.75 
Q 44.203125 34.703125 44.203125 43.5 
L 44.203125 44.796875 
Q 44 50.09375 41.453125 54.296875 
Q 38.90625 58.5 34.703125 60.796875 
Q 30.5 63.09375 25.59375 63.09375 
Q 20.5 63.09375 16.203125 60.546875 
Q 11.90625 58 9.40625 53.640625 
Q 6.90625 49.296875 6.90625 44 
Q 6.90625 38.703125 9.40625 34.296875 
Q 11.90625 29.90625 16.203125 27.34375 
Q 20.5 24.796875 25.59375 24.796875 
z
" id="JosefinSans-Thin-57"/>
    </defs>
    <g style="fill:#262626;" transform="translate(425.11375 15.03274)scale(0.16 -0.16)">
     <use xlink:href="#JosefinSans-Thin-110"/>
     <use x="48.699997" xlink:href="#JosefinSans-Thin-32"/>
     <use x="78.799988" xlink:href="#JosefinSans-Thin-61"/>
     <use x="149.699982" xlink:href="#JosefinSans-Thin-32"/>
     <use x="179.799973" xlink:href="#JosefinSans-Thin-57"/>
    </g>
   </g>
   <g id="legend_1">
    <g id="line2d_27">
     <path d="M 663.80976 39.261178 
L 691.80976 39.261178 
" style="fill:none;stroke:#cfcbbf;stroke-linecap:round;stroke-width:1.5;"/>
    </g>
    <g id="line2d_28"/>
    <g id="text_15">
     <!-- True posterior -->
     <defs>
      <path d="M 51.5 70.203125 
L 51.5 68.296875 
L 29.703125 68.296875 
L 29.703125 0 
L 27.703125 0 
L 27.703125 68.296875 
L 5.90625 68.296875 
L 5.90625 70.203125 
z
" id="JosefinSans-Thin-84"/>
      <path d="M 39.296875 37.796875 
L 39.296875 0 
L 37.59375 0 
L 37.40625 9.90625 
Q 35.703125 5.40625 31.046875 2.296875 
Q 26.40625 -0.796875 21.09375 -0.796875 
Q 15.90625 -0.796875 12.75 2.34375 
Q 9.59375 5.5 9.40625 10.5 
L 9.40625 37.796875 
L 11.40625 37.796875 
L 11.40625 10.796875 
Q 11.59375 6.5 14.1875 3.84375 
Q 16.796875 1.203125 21.5 1 
Q 25.59375 1 29.1875 2.953125 
Q 32.796875 4.90625 35.046875 8.34375 
Q 37.296875 11.796875 37.296875 16 
L 37.296875 37.796875 
z
" id="JosefinSans-Thin-117"/>
      <path d="M 17.09375 -0.796875 
Q 13.90625 -0.796875 10.65625 0.390625 
Q 7.40625 1.59375 5.40625 4 
L 6.59375 5.203125 
Q 8.09375 3.296875 10.9375 2.09375 
Q 13.796875 0.90625 17.09375 0.90625 
Q 21.203125 0.90625 24.09375 3 
Q 27 5.09375 27 9.703125 
Q 27 12.5 25.5 14.25 
Q 24 16 22 16.890625 
Q 20 17.796875 16.203125 19 
Q 11.703125 20.59375 9.296875 22.640625 
Q 6.90625 24.703125 6.90625 28.703125 
Q 6.90625 33.203125 9.953125 35.75 
Q 13 38.296875 17.203125 38.296875 
Q 19.796875 38.296875 22.640625 37.1875 
Q 25.5 36.09375 27.5 33.90625 
L 26.40625 32.59375 
Q 24.90625 34.5 22.25 35.5 
Q 19.59375 36.5 17.296875 36.5 
Q 14.203125 36.5 11.5 34.546875 
Q 8.796875 32.59375 8.796875 28.90625 
Q 8.796875 25.59375 10.9375 23.890625 
Q 13.09375 22.203125 17.296875 20.703125 
Q 21.40625 19.296875 23.546875 18.296875 
Q 25.703125 17.296875 27.296875 15.34375 
Q 28.90625 13.40625 28.90625 10.203125 
Q 28.90625 5.09375 25.84375 2.140625 
Q 22.796875 -0.796875 17.09375 -0.796875 
z
" id="JosefinSans-Thin-115"/>
     </defs>
     <g style="fill:#262626;" transform="translate(703.00976 44.161178)scale(0.14 -0.14)">
      <use xlink:href="#JosefinSans-Thin-84"/>
      <use x="57.499985" xlink:href="#JosefinSans-Thin-114"/>
      <use x="89.599976" xlink:href="#JosefinSans-Thin-117"/>
      <use x="138.299973" xlink:href="#JosefinSans-Thin-101"/>
      <use x="184.999969" xlink:href="#JosefinSans-Thin-32"/>
      <use x="215.09996" xlink:href="#JosefinSans-Thin-112"/>
      <use x="269.399948" xlink:href="#JosefinSans-Thin-111"/>
      <use x="319.699936" xlink:href="#JosefinSans-Thin-115"/>
      <use x="354.09993" xlink:href="#JosefinSans-Thin-116"/>
      <use x="384.499924" xlink:href="#JosefinSans-Thin-101"/>
      <use x="431.199921" xlink:href="#JosefinSans-Thin-114"/>
      <use x="463.299911" xlink:href="#JosefinSans-Thin-105"/>
      <use x="484.099899" xlink:href="#JosefinSans-Thin-111"/>
      <use x="534.399887" xlink:href="#JosefinSans-Thin-114"/>
     </g>
    </g>
    <g id="line2d_29">
     <path d="M 663.80976 59.32274 
L 691.80976 59.32274 
" style="fill:none;stroke:#81aca4;stroke-linecap:round;stroke-width:1.5;"/>
    </g>
    <g id="line2d_30"/>
    <g id="text_16">
     <!-- Quadratic approximation -->
     <defs>
      <path d="M 80.5 0 
L 50.796875 0 
Q 46.796875 -0.796875 43.203125 -0.796875 
Q 33.40625 -0.796875 25.203125 3.84375 
Q 17 8.5 12.203125 16.640625 
Q 7.40625 24.796875 7.40625 35 
Q 7.40625 44.703125 12.203125 53 
Q 17 61.296875 25.25 66.140625 
Q 33.5 71 43.203125 71 
Q 52.90625 71 61.203125 66.140625 
Q 69.5 61.296875 74.34375 53 
Q 79.203125 44.703125 79.203125 35 
Q 79.203125 23.90625 73.046875 14.953125 
Q 66.90625 6 56.90625 1.90625 
L 80.5 1.90625 
z
M 42.90625 1.09375 
Q 52.203125 1.09375 60.09375 5.640625 
Q 68 10.203125 72.59375 18 
Q 77.203125 25.796875 77.203125 35 
Q 77.203125 44.09375 72.59375 51.9375 
Q 68 59.796875 60.140625 64.4375 
Q 52.296875 69.09375 43.203125 69.09375 
Q 33.796875 69.09375 26.046875 64.34375 
Q 18.296875 59.59375 13.84375 51.75 
Q 9.40625 43.90625 9.40625 34.90625 
Q 9.40625 25.796875 13.953125 18 
Q 18.5 10.203125 26.203125 5.640625 
Q 33.90625 1.09375 42.90625 1.09375 
z
" id="JosefinSans-Thin-81"/>
      <path d="M 44.90625 75.203125 
L 44.90625 0 
L 42.90625 0 
L 42.90625 10.703125 
Q 40.5 5.59375 35.640625 2.5 
Q 30.796875 -0.59375 24.90625 -0.59375 
Q 19.59375 -0.59375 15.09375 2 
Q 10.59375 4.59375 8 9.09375 
Q 5.40625 13.59375 5.40625 19 
Q 5.40625 24.703125 8.046875 29.203125 
Q 10.703125 33.703125 15.140625 36.140625 
Q 19.59375 38.59375 25 38.59375 
Q 30.703125 38.59375 35.59375 35.390625 
Q 40.5 32.203125 42.90625 27.09375 
L 42.90625 75.203125 
z
M 25.09375 1.09375 
Q 29.90625 1.09375 34 3.390625 
Q 38.09375 5.703125 40.5 9.640625 
Q 42.90625 13.59375 42.90625 18.40625 
L 42.90625 21.703125 
Q 42.203125 25.90625 39.640625 29.34375 
Q 37.09375 32.796875 33.296875 34.84375 
Q 29.5 36.90625 25.09375 36.90625 
Q 20.203125 36.90625 16.140625 34.65625 
Q 12.09375 32.40625 9.75 28.296875 
Q 7.40625 24.203125 7.40625 19 
Q 7.40625 14.09375 9.796875 10 
Q 12.203125 5.90625 16.25 3.5 
Q 20.296875 1.09375 25.09375 1.09375 
z
" id="JosefinSans-Thin-100"/>
      <path d="M 37.5 3.703125 
Q 32.09375 -0.59375 25.09375 -0.59375 
Q 19.703125 -0.59375 15.203125 2 
Q 10.703125 4.59375 8.046875 9.046875 
Q 5.40625 13.5 5.40625 18.90625 
Q 5.40625 24.296875 8.046875 28.796875 
Q 10.703125 33.296875 15.203125 35.9375 
Q 19.703125 38.59375 25 38.59375 
Q 28.59375 38.59375 31.796875 37.4375 
Q 35 36.296875 37.5 34.203125 
L 36.40625 32.796875 
Q 31.09375 36.90625 25.09375 36.90625 
Q 20.203125 36.90625 16.140625 34.453125 
Q 12.09375 32 9.75 27.890625 
Q 7.40625 23.796875 7.40625 18.90625 
Q 7.40625 14.09375 9.75 10 
Q 12.09375 5.90625 16.140625 3.5 
Q 20.203125 1.09375 25.09375 1.09375 
Q 31.296875 1.09375 36.296875 5 
L 37.5 3.703125 
z
" id="JosefinSans-Thin-99"/>
      <path d="M 31.296875 0 
L 18.59375 17.296875 
L 6.09375 0 
L 3.796875 0 
L 17.40625 18.90625 
L 3.40625 37.796875 
L 5.90625 37.796875 
L 18.703125 20.296875 
L 31 37.703125 
L 33.203125 37.703125 
L 19.796875 18.703125 
L 33.5 0 
z
" id="JosefinSans-Thin-120"/>
      <path d="M 55.296875 38.5 
Q 60.5 38.5 63.703125 35.546875 
Q 66.90625 32.59375 67.09375 28.203125 
L 67.09375 0 
L 65.09375 0 
L 65.09375 27.703125 
Q 64.90625 31.40625 62.34375 34 
Q 59.796875 36.59375 55.296875 36.796875 
Q 51.203125 36.796875 47.59375 34.890625 
Q 44 33 41.703125 29.75 
Q 39.40625 26.5 39.203125 22.5 
L 39.203125 0 
L 37.296875 0 
L 37.296875 27.703125 
Q 37.09375 31.40625 34.5 34 
Q 31.90625 36.59375 27.40625 36.796875 
Q 23.203125 36.796875 19.5 34.84375 
Q 15.796875 32.90625 13.59375 29.5 
Q 11.40625 26.09375 11.40625 21.90625 
L 11.40625 0 
L 9.40625 0 
L 9.40625 37.796875 
L 10.90625 37.796875 
L 11.203125 27.90625 
Q 13.203125 32.796875 17.640625 35.640625 
Q 22.09375 38.5 27.5 38.5 
Q 32.09375 38.5 35.546875 35.703125 
Q 39 32.90625 39.40625 28.796875 
Q 41.5 33.40625 45.75 35.953125 
Q 50 38.5 55.296875 38.5 
z
" id="JosefinSans-Thin-109"/>
     </defs>
     <g style="fill:#262626;" transform="translate(703.00976 64.22274)scale(0.14 -0.14)">
      <use xlink:href="#JosefinSans-Thin-81"/>
      <use x="87.899994" xlink:href="#JosefinSans-Thin-117"/>
      <use x="136.599991" xlink:href="#JosefinSans-Thin-97"/>
      <use x="190.799988" xlink:href="#JosefinSans-Thin-100"/>
      <use x="245.099976" xlink:href="#JosefinSans-Thin-114"/>
      <use x="277.199966" xlink:href="#JosefinSans-Thin-97"/>
      <use x="331.399963" xlink:href="#JosefinSans-Thin-116"/>
      <use x="361.799957" xlink:href="#JosefinSans-Thin-105"/>
      <use x="382.599945" xlink:href="#JosefinSans-Thin-99"/>
      <use x="424.59993" xlink:href="#JosefinSans-Thin-32"/>
      <use x="454.699921" xlink:href="#JosefinSans-Thin-97"/>
      <use x="508.899918" xlink:href="#JosefinSans-Thin-112"/>
      <use x="563.199905" xlink:href="#JosefinSans-Thin-112"/>
      <use x="617.499893" xlink:href="#JosefinSans-Thin-114"/>
      <use x="649.599884" xlink:href="#JosefinSans-Thin-111"/>
      <use x="699.899872" xlink:href="#JosefinSans-Thin-120"/>
      <use x="736.799866" xlink:href="#JosefinSans-Thin-105"/>
      <use x="757.599854" xlink:href="#JosefinSans-Thin-109"/>
      <use x="834.099838" xlink:href="#JosefinSans-Thin-97"/>
      <use x="888.299835" xlink:href="#JosefinSans-Thin-116"/>
      <use x="918.699829" xlink:href="#JosefinSans-Thin-105"/>
      <use x="939.499817" xlink:href="#JosefinSans-Thin-111"/>
      <use x="989.799805" xlink:href="#JosefinSans-Thin-110"/>
     </g>
    </g>
   </g>
  </g>
 </g>
 <defs>
  <clipPath id="pc12e26d41e">
   <rect height="229.410926" width="834.61952" x="26.38024" y="21.03274"/>
  </clipPath>
 </defs>
</svg>
