<?xml version="1.0" encoding="utf-8" standalone="no"?>
<!DOCTYPE svg PUBLIC "-//W3C//DTD SVG 1.1//EN"
  "http://www.w3.org/Graphics/SVG/1.1/DTD/svg11.dtd">
<svg xmlns:xlink="http://www.w3.org/1999/xlink" width="864pt" height="288pt" viewBox="0 0 864 288" xmlns="http://www.w3.org/2000/svg" version="1.1">
 <metadata>
  <rdf:RDF xmlns:dc="http://purl.org/dc/elements/1.1/" xmlns:cc="http://creativecommons.org/ns#" xmlns:rdf="http://www.w3.org/1999/02/22-rdf-syntax-ns#">
   <cc:Work>
    <dc:type rdf:resource="http://purl.org/dc/dcmitype/StillImage"/>
    <dc:date>2022-01-05T00:26:53.435945</dc:date>
    <dc:format>image/svg+xml</dc:format>
    <dc:creator>
     <cc:Agent>
      <dc:title>Matplotlib v3.5.1, https://matplotlib.org/</dc:title>
     </cc:Agent>
    </dc:creator>
   </cc:Work>
  </rdf:RDF>
 </metadata>
 <defs>
  <style type="text/css">*{stroke-linejoin: round; stroke-linecap: butt}</style>
 </defs>
 <g id="figure_1">
  <g id="patch_1">
   <path d="M 0 288 
L 864 288 
L 864 0 
L 0 0 
z
" style="fill: #ffffff"/>
  </g>
  <g id="axes_1">
   <g id="patch_2">
    <path d="M 26.340865 249.251947 
L 860.99976 249.251947 
L 860.99976 21.40024 
L 26.340865 21.40024 
z
" style="fill: #ffffff"/>
   </g>
   <g id="matplotlib.axis_1">
    <g id="xtick_1">
     <g id="line2d_1">
      <path d="M 64.279906 249.251947 
L 64.279906 21.40024 
" clip-path="url(#p4eb851dd43)" style="fill: none; stroke-dasharray: 0.8,1.32; stroke-dashoffset: 0; stroke: #cccccc; stroke-width: 0.8"/>
     </g>
     <g id="line2d_2"/>
     <g id="text_1">
      <!-- 0.0 -->
      <g style="fill: #262626" transform="translate(54.359593 263.601947)scale(0.14 -0.14)">
       <defs>
        <path id="JosefinSans-Regular-30" d="M 1997 -19 
Q 1478 -19 1078 240 
Q 678 499 454 985 
Q 230 1472 230 2125 
Q 230 3168 700 3715 
Q 1171 4262 1997 4256 
Q 2515 4256 2915 4000 
Q 3315 3744 3539 3257 
Q 3763 2771 3763 2125 
Q 3763 1459 3539 972 
Q 3315 486 2915 230 
Q 2515 -26 1997 -19 
z
M 1990 576 
Q 2534 576 2825 998 
Q 3117 1421 3123 2138 
Q 3117 2835 2825 3248 
Q 2534 3661 1990 3661 
Q 1453 3661 1165 3245 
Q 877 2829 870 2125 
Q 877 1414 1165 995 
Q 1453 576 1990 576 
z
" transform="scale(0.015625)"/>
        <path id="JosefinSans-Regular-2e" d="M 218 339 
Q 218 480 320 582 
Q 422 685 557 685 
Q 678 685 784 582 
Q 890 480 890 339 
Q 890 192 787 96 
Q 685 0 557 0 
Q 422 0 320 96 
Q 218 192 218 339 
z
" transform="scale(0.015625)"/>
       </defs>
       <use xlink:href="#JosefinSans-Regular-30"/>
       <use xlink:href="#JosefinSans-Regular-2e" x="62.399994"/>
       <use xlink:href="#JosefinSans-Regular-30" x="79.299988"/>
      </g>
     </g>
    </g>
    <g id="xtick_2">
     <g id="line2d_3">
      <path d="M 216.036068 249.251947 
L 216.036068 21.40024 
" clip-path="url(#p4eb851dd43)" style="fill: none; stroke-dasharray: 0.8,1.32; stroke-dashoffset: 0; stroke: #cccccc; stroke-width: 0.8"/>
     </g>
     <g id="line2d_4"/>
     <g id="text_2">
      <!-- 0.2 -->
      <g style="fill: #262626" transform="translate(206.669193 263.601947)scale(0.14 -0.14)">
       <defs>
        <path id="JosefinSans-Regular-32" d="M 3213 602 
L 3213 0 
L 346 0 
L 557 211 
Q 1210 864 1574 1267 
Q 1939 1670 2185 2083 
Q 2432 2496 2432 2867 
Q 2432 3258 2201 3462 
Q 1971 3667 1638 3667 
Q 1376 3667 1200 3558 
Q 1024 3450 944 3283 
Q 864 3117 864 2950 
Q 864 2541 1114 2278 
L 736 1933 
Q 525 2061 393 2365 
Q 262 2669 262 2938 
Q 262 3290 438 3594 
Q 614 3898 947 4080 
Q 1280 4262 1741 4262 
Q 2131 4262 2435 4080 
Q 2739 3898 2905 3590 
Q 3072 3283 3072 2918 
Q 3072 2554 2899 2189 
Q 2726 1824 2473 1504 
Q 2221 1184 1798 710 
L 1702 602 
L 3213 602 
z
" transform="scale(0.015625)"/>
       </defs>
       <use xlink:href="#JosefinSans-Regular-30"/>
       <use xlink:href="#JosefinSans-Regular-2e" x="62.399994"/>
       <use xlink:href="#JosefinSans-Regular-32" x="79.299988"/>
      </g>
     </g>
    </g>
    <g id="xtick_3">
     <g id="line2d_5">
      <path d="M 367.792231 249.251947 
L 367.792231 21.40024 
" clip-path="url(#p4eb851dd43)" style="fill: none; stroke-dasharray: 0.8,1.32; stroke-dashoffset: 0; stroke: #cccccc; stroke-width: 0.8"/>
     </g>
     <g id="line2d_6"/>
     <g id="text_3">
      <!-- 0.4 -->
      <g style="fill: #262626" transform="translate(358.488794 263.601947)scale(0.14 -0.14)">
       <defs>
        <path id="JosefinSans-Regular-34" d="M 3206 1498 
L 3206 1018 
L 2656 1018 
L 2656 0 
L 2035 0 
L 2035 1018 
L 83 1018 
L 83 1024 
L 2650 4262 
L 2656 4262 
L 2656 1498 
L 3206 1498 
z
M 2035 1498 
L 2035 2810 
L 1018 1498 
L 2035 1498 
z
" transform="scale(0.015625)"/>
       </defs>
       <use xlink:href="#JosefinSans-Regular-30"/>
       <use xlink:href="#JosefinSans-Regular-2e" x="62.399994"/>
       <use xlink:href="#JosefinSans-Regular-34" x="79.299988"/>
      </g>
     </g>
    </g>
    <g id="xtick_4">
     <g id="line2d_7">
      <path d="M 519.548394 249.251947 
L 519.548394 21.40024 
" clip-path="url(#p4eb851dd43)" style="fill: none; stroke-dasharray: 0.8,1.32; stroke-dashoffset: 0; stroke: #cccccc; stroke-width: 0.8"/>
     </g>
     <g id="line2d_8"/>
     <g id="text_4">
      <!-- 0.6 -->
      <g style="fill: #262626" transform="translate(510.181519 263.601947)scale(0.14 -0.14)">
       <defs>
        <path id="JosefinSans-Regular-36" d="M 1958 2701 
Q 2285 2701 2576 2525 
Q 2867 2349 3046 2041 
Q 3226 1734 3226 1357 
Q 3226 941 3021 621 
Q 2816 301 2477 125 
Q 2138 -51 1754 -51 
Q 1325 -51 982 153 
Q 640 358 441 736 
Q 243 1114 243 1619 
Q 243 2381 784 3040 
Q 1325 3699 2182 4250 
L 2598 3795 
Q 2029 3514 1645 3139 
Q 1261 2765 1082 2368 
Q 1414 2701 1958 2701 
z
M 1728 506 
Q 2093 506 2339 742 
Q 2586 979 2586 1357 
Q 2586 1722 2339 1949 
Q 2093 2176 1728 2176 
Q 1498 2176 1302 2077 
Q 1107 1978 992 1808 
Q 877 1638 877 1440 
L 877 1325 
Q 877 1107 992 918 
Q 1107 730 1302 618 
Q 1498 506 1728 506 
z
" transform="scale(0.015625)"/>
       </defs>
       <use xlink:href="#JosefinSans-Regular-30"/>
       <use xlink:href="#JosefinSans-Regular-2e" x="62.399994"/>
       <use xlink:href="#JosefinSans-Regular-36" x="79.299988"/>
      </g>
     </g>
    </g>
    <g id="xtick_5">
     <g id="line2d_9">
      <path d="M 671.304557 249.251947 
L 671.304557 21.40024 
" clip-path="url(#p4eb851dd43)" style="fill: none; stroke-dasharray: 0.8,1.32; stroke-dashoffset: 0; stroke: #cccccc; stroke-width: 0.8"/>
     </g>
     <g id="line2d_10"/>
     <g id="text_5">
      <!-- 0.8 -->
      <g style="fill: #262626" transform="translate(662.0919 263.601947)scale(0.14 -0.14)">
       <defs>
        <path id="JosefinSans-Regular-38" d="M 179 1331 
Q 179 1773 422 2083 
Q 666 2394 1005 2534 
Q 794 2669 678 2851 
Q 563 3034 563 3296 
Q 563 3571 707 3792 
Q 851 4013 1104 4137 
Q 1357 4262 1670 4262 
Q 1978 4262 2234 4137 
Q 2490 4013 2637 3798 
Q 2784 3584 2784 3322 
Q 2784 3046 2669 2864 
Q 2554 2682 2336 2534 
Q 2682 2387 2925 2076 
Q 3168 1766 3168 1331 
Q 3168 966 2969 649 
Q 2771 333 2425 141 
Q 2080 -51 1664 -51 
Q 1248 -51 909 137 
Q 570 326 374 646 
Q 179 966 179 1331 
z
M 1165 3226 
Q 1165 3027 1321 2886 
Q 1478 2746 1683 2746 
Q 1888 2746 2038 2886 
Q 2189 3027 2189 3226 
Q 2189 3450 2041 3597 
Q 1894 3744 1683 3744 
Q 1472 3744 1318 3597 
Q 1165 3450 1165 3226 
z
M 813 1357 
Q 813 1120 928 918 
Q 1043 717 1238 595 
Q 1434 474 1664 474 
Q 1901 474 2102 595 
Q 2304 717 2425 918 
Q 2547 1120 2547 1357 
Q 2547 1594 2432 1792 
Q 2317 1990 2115 2108 
Q 1914 2227 1677 2227 
Q 1446 2227 1248 2112 
Q 1050 1997 931 1795 
Q 813 1594 813 1357 
z
" transform="scale(0.015625)"/>
       </defs>
       <use xlink:href="#JosefinSans-Regular-30"/>
       <use xlink:href="#JosefinSans-Regular-2e" x="62.399994"/>
       <use xlink:href="#JosefinSans-Regular-38" x="79.299988"/>
      </g>
     </g>
    </g>
    <g id="xtick_6">
     <g id="line2d_11">
      <path d="M 823.060719 249.251947 
L 823.060719 21.40024 
" clip-path="url(#p4eb851dd43)" style="fill: none; stroke-dasharray: 0.8,1.32; stroke-dashoffset: 0; stroke: #cccccc; stroke-width: 0.8"/>
     </g>
     <g id="line2d_12"/>
     <g id="text_6">
      <!-- 1.0 -->
      <g style="fill: #262626" transform="translate(815.198844 263.601947)scale(0.14 -0.14)">
       <defs>
        <path id="JosefinSans-Regular-31" d="M 1446 4211 
L 1446 0 
L 819 0 
L 819 3616 
L 339 3616 
L 339 4211 
L 1446 4211 
z
" transform="scale(0.015625)"/>
       </defs>
       <use xlink:href="#JosefinSans-Regular-31"/>
       <use xlink:href="#JosefinSans-Regular-2e" x="32.999985"/>
       <use xlink:href="#JosefinSans-Regular-30" x="49.899979"/>
      </g>
     </g>
    </g>
    <g id="text_7">
     <!-- Proportion water -->
     <g style="fill: #262626" transform="translate(386.844922 282.013823)scale(0.15 -0.15)">
      <defs>
       <path id="JosefinSans-Regular-50" d="M 1907 4627 
Q 2662 4627 3088 4249 
Q 3514 3872 3514 3194 
Q 3514 2803 3357 2464 
Q 3200 2125 2851 1913 
Q 2502 1702 1971 1702 
L 1286 1702 
L 1286 0 
L 666 0 
L 666 4627 
L 1907 4627 
z
M 1971 2304 
Q 2304 2304 2512 2445 
Q 2720 2586 2809 2787 
Q 2899 2989 2899 3181 
Q 2899 3514 2681 3773 
Q 2464 4032 2003 4032 
L 1286 4032 
L 1286 2304 
L 1971 2304 
z
" transform="scale(0.015625)"/>
       <path id="JosefinSans-Regular-72" d="M 1094 2022 
Q 1197 2240 1385 2406 
Q 1574 2573 1785 2662 
Q 1997 2752 2157 2758 
L 2131 2163 
Q 1843 2176 1609 2048 
Q 1376 1920 1245 1693 
Q 1114 1466 1114 1210 
L 1114 0 
L 518 0 
L 518 2650 
L 1050 2650 
L 1094 2022 
z
" transform="scale(0.015625)"/>
       <path id="JosefinSans-Regular-6f" d="M 288 1350 
Q 288 1741 477 2064 
Q 666 2387 1002 2572 
Q 1338 2758 1760 2758 
Q 2182 2758 2512 2572 
Q 2842 2387 3024 2067 
Q 3206 1747 3206 1350 
Q 3206 954 3024 630 
Q 2842 307 2509 121 
Q 2176 -64 1747 -64 
Q 1331 -64 998 112 
Q 666 288 477 608 
Q 288 928 288 1350 
z
M 890 1344 
Q 890 1094 1002 883 
Q 1114 672 1309 550 
Q 1504 429 1741 429 
Q 2112 429 2355 691 
Q 2598 954 2598 1344 
Q 2598 1734 2355 2000 
Q 2112 2266 1741 2266 
Q 1498 2266 1306 2141 
Q 1114 2016 1002 1805 
Q 890 1594 890 1344 
z
" transform="scale(0.015625)"/>
       <path id="JosefinSans-Regular-70" d="M 2195 2758 
Q 2566 2758 2867 2579 
Q 3168 2400 3341 2077 
Q 3514 1754 3514 1331 
Q 3514 915 3328 598 
Q 3142 282 2816 109 
Q 2490 -64 2086 -64 
Q 1798 -64 1536 61 
Q 1274 186 1114 397 
L 1114 -1274 
L 518 -1274 
L 518 2694 
L 1037 2694 
L 1088 2246 
Q 1293 2477 1577 2617 
Q 1862 2758 2195 2758 
z
M 1971 416 
Q 2221 416 2435 534 
Q 2650 653 2778 861 
Q 2906 1069 2906 1325 
Q 2906 1587 2787 1798 
Q 2669 2010 2464 2131 
Q 2259 2253 2010 2253 
Q 1670 2253 1430 2064 
Q 1190 1875 1114 1555 
L 1114 1114 
Q 1165 806 1405 611 
Q 1645 416 1971 416 
z
" transform="scale(0.015625)"/>
       <path id="JosefinSans-Regular-74" d="M 1376 3814 
L 1376 2643 
L 2099 2643 
L 2099 2170 
L 1376 2170 
L 1376 0 
L 774 0 
L 774 2170 
L 288 2170 
L 288 2643 
L 774 2643 
L 774 3814 
L 1376 3814 
z
" transform="scale(0.015625)"/>
       <path id="JosefinSans-Regular-69" d="M 1114 2650 
L 1114 0 
L 518 0 
L 518 2650 
L 1114 2650 
z
M 477 3590 
Q 477 3731 585 3827 
Q 694 3923 835 3923 
Q 976 3923 1081 3827 
Q 1187 3731 1187 3590 
Q 1187 3450 1081 3354 
Q 976 3258 835 3258 
Q 694 3258 585 3354 
Q 477 3450 477 3590 
z
" transform="scale(0.015625)"/>
       <path id="JosefinSans-Regular-6e" d="M 2163 2752 
Q 2534 2752 2777 2531 
Q 3021 2310 3027 1958 
L 3027 0 
L 2426 0 
L 2426 1754 
Q 2413 1978 2291 2106 
Q 2170 2234 1926 2240 
Q 1574 2240 1344 1958 
Q 1114 1677 1114 1242 
L 1114 0 
L 518 0 
L 518 2650 
L 1056 2650 
L 1094 2138 
Q 1235 2426 1516 2589 
Q 1798 2752 2163 2752 
z
" transform="scale(0.015625)"/>
       <path id="JosefinSans-Regular-20" transform="scale(0.015625)"/>
       <path id="JosefinSans-Regular-77" d="M 4198 2650 
L 2976 -160 
L 2125 1658 
L 1350 -160 
L 122 2650 
L 710 2650 
L 1421 1043 
L 1914 2195 
L 1702 2650 
L 2221 2650 
L 2938 1005 
L 3610 2650 
L 4198 2650 
z
" transform="scale(0.015625)"/>
       <path id="JosefinSans-Regular-61" d="M 3238 2650 
L 3238 0 
L 2643 0 
L 2643 435 
Q 2502 250 2233 93 
Q 1965 -64 1626 -64 
Q 1248 -64 944 99 
Q 640 262 464 576 
Q 288 890 288 1325 
Q 288 1760 470 2083 
Q 653 2406 963 2582 
Q 1274 2758 1651 2758 
Q 1990 2758 2240 2611 
Q 2490 2464 2643 2227 
L 2688 2650 
L 3238 2650 
z
M 1786 429 
Q 2112 429 2345 611 
Q 2579 794 2643 1107 
L 2643 1632 
Q 2566 1914 2323 2090 
Q 2080 2266 1766 2266 
Q 1530 2266 1328 2150 
Q 1126 2035 1008 1827 
Q 890 1619 890 1357 
Q 890 1101 1011 889 
Q 1133 678 1337 553 
Q 1542 429 1786 429 
z
" transform="scale(0.015625)"/>
       <path id="JosefinSans-Regular-65" d="M 1760 448 
Q 2093 448 2406 678 
L 2682 237 
Q 2470 96 2224 16 
Q 1978 -64 1747 -64 
Q 1306 -64 976 118 
Q 646 301 467 621 
Q 288 941 288 1344 
Q 288 1734 483 2057 
Q 678 2381 1017 2569 
Q 1357 2758 1760 2758 
Q 2278 2758 2627 2454 
Q 2976 2150 3104 1606 
L 1005 870 
Q 1120 672 1315 560 
Q 1510 448 1760 448 
z
M 1715 2285 
Q 1350 2285 1113 2029 
Q 877 1773 877 1376 
Q 877 1280 883 1229 
L 2426 1798 
Q 2330 2016 2154 2150 
Q 1978 2285 1715 2285 
z
" transform="scale(0.015625)"/>
      </defs>
      <use xlink:href="#JosefinSans-Regular-50"/>
      <use xlink:href="#JosefinSans-Regular-72" x="59.499985"/>
      <use xlink:href="#JosefinSans-Regular-6f" x="97.099976"/>
      <use xlink:href="#JosefinSans-Regular-70" x="151.59996"/>
      <use xlink:href="#JosefinSans-Regular-6f" x="210.899948"/>
      <use xlink:href="#JosefinSans-Regular-72" x="265.399933"/>
      <use xlink:href="#JosefinSans-Regular-74" x="302.999924"/>
      <use xlink:href="#JosefinSans-Regular-69" x="338.999908"/>
      <use xlink:href="#JosefinSans-Regular-6f" x="364.499893"/>
      <use xlink:href="#JosefinSans-Regular-6e" x="418.999878"/>
      <use xlink:href="#JosefinSans-Regular-20" x="474.299866"/>
      <use xlink:href="#JosefinSans-Regular-77" x="505.899857"/>
      <use xlink:href="#JosefinSans-Regular-61" x="573.399841"/>
      <use xlink:href="#JosefinSans-Regular-74" x="632.099838"/>
      <use xlink:href="#JosefinSans-Regular-65" x="668.099823"/>
      <use xlink:href="#JosefinSans-Regular-72" x="720.099808"/>
     </g>
    </g>
   </g>
   <g id="matplotlib.axis_2">
    <g id="ytick_1">
     <g id="line2d_13">
      <path d="M 26.340865 238.895052 
L 860.99976 238.895052 
" clip-path="url(#p4eb851dd43)" style="fill: none; stroke-dasharray: 0.8,1.32; stroke-dashoffset: 0; stroke: #cccccc; stroke-width: 0.8"/>
     </g>
     <g id="line2d_14"/>
     <g id="text_8">
      <!-- 0.0 -->
      <g style="fill: #262626" transform="translate(3.00024 244.320052)scale(0.14 -0.14)">
       <use xlink:href="#JosefinSans-Regular-30"/>
       <use xlink:href="#JosefinSans-Regular-2e" x="62.399994"/>
       <use xlink:href="#JosefinSans-Regular-30" x="79.299988"/>
      </g>
     </g>
    </g>
    <g id="ytick_2">
     <g id="line2d_15">
      <path d="M 26.340865 200.975636 
L 860.99976 200.975636 
" clip-path="url(#p4eb851dd43)" style="fill: none; stroke-dasharray: 0.8,1.32; stroke-dashoffset: 0; stroke: #cccccc; stroke-width: 0.8"/>
     </g>
     <g id="line2d_16"/>
     <g id="text_9">
      <!-- 0.5 -->
      <g style="fill: #262626" transform="translate(4.415553 206.400636)scale(0.14 -0.14)">
       <defs>
        <path id="JosefinSans-Regular-35" d="M 1645 2752 
Q 2061 2752 2358 2566 
Q 2656 2381 2809 2070 
Q 2963 1760 2963 1376 
Q 2963 979 2780 652 
Q 2598 326 2281 137 
Q 1965 -51 1568 -51 
Q 1242 -51 928 70 
Q 614 192 416 384 
L 749 870 
Q 877 723 1088 633 
Q 1299 544 1517 544 
Q 1869 544 2096 771 
Q 2323 998 2323 1357 
Q 2323 1747 2108 1987 
Q 1894 2227 1498 2227 
Q 1286 2227 1091 2166 
Q 896 2106 685 1984 
L 678 1984 
L 678 4211 
L 2694 4211 
L 2694 3616 
L 1216 3616 
L 1216 2701 
Q 1421 2752 1645 2752 
z
" transform="scale(0.015625)"/>
       </defs>
       <use xlink:href="#JosefinSans-Regular-30"/>
       <use xlink:href="#JosefinSans-Regular-2e" x="62.399994"/>
       <use xlink:href="#JosefinSans-Regular-35" x="79.299988"/>
      </g>
     </g>
    </g>
    <g id="ytick_3">
     <g id="line2d_17">
      <path d="M 26.340865 163.05622 
L 860.99976 163.05622 
" clip-path="url(#p4eb851dd43)" style="fill: none; stroke-dasharray: 0.8,1.32; stroke-dashoffset: 0; stroke: #cccccc; stroke-width: 0.8"/>
     </g>
     <g id="line2d_18"/>
     <g id="text_10">
      <!-- 1.0 -->
      <g style="fill: #262626" transform="translate(7.117115 168.48122)scale(0.14 -0.14)">
       <use xlink:href="#JosefinSans-Regular-31"/>
       <use xlink:href="#JosefinSans-Regular-2e" x="32.999985"/>
       <use xlink:href="#JosefinSans-Regular-30" x="49.899979"/>
      </g>
     </g>
    </g>
    <g id="ytick_4">
     <g id="line2d_19">
      <path d="M 26.340865 125.136804 
L 860.99976 125.136804 
" clip-path="url(#p4eb851dd43)" style="fill: none; stroke-dasharray: 0.8,1.32; stroke-dashoffset: 0; stroke: #cccccc; stroke-width: 0.8"/>
     </g>
     <g id="line2d_20"/>
     <g id="text_11">
      <!-- 1.5 -->
      <g style="fill: #262626" transform="translate(8.532427 130.561804)scale(0.14 -0.14)">
       <use xlink:href="#JosefinSans-Regular-31"/>
       <use xlink:href="#JosefinSans-Regular-2e" x="32.999985"/>
       <use xlink:href="#JosefinSans-Regular-35" x="49.899979"/>
      </g>
     </g>
    </g>
    <g id="ytick_5">
     <g id="line2d_21">
      <path d="M 26.340865 87.217388 
L 860.99976 87.217388 
" clip-path="url(#p4eb851dd43)" style="fill: none; stroke-dasharray: 0.8,1.32; stroke-dashoffset: 0; stroke: #cccccc; stroke-width: 0.8"/>
     </g>
     <g id="line2d_22"/>
     <g id="text_12">
      <!-- 2.0 -->
      <g style="fill: #262626" transform="translate(4.107115 92.642388)scale(0.14 -0.14)">
       <use xlink:href="#JosefinSans-Regular-32"/>
       <use xlink:href="#JosefinSans-Regular-2e" x="54.499985"/>
       <use xlink:href="#JosefinSans-Regular-30" x="71.399979"/>
      </g>
     </g>
    </g>
    <g id="ytick_6">
     <g id="line2d_23">
      <path d="M 26.340865 49.297972 
L 860.99976 49.297972 
" clip-path="url(#p4eb851dd43)" style="fill: none; stroke-dasharray: 0.8,1.32; stroke-dashoffset: 0; stroke: #cccccc; stroke-width: 0.8"/>
     </g>
     <g id="line2d_24"/>
     <g id="text_13">
      <!-- 2.5 -->
      <g style="fill: #262626" transform="translate(5.522427 54.722972)scale(0.14 -0.14)">
       <use xlink:href="#JosefinSans-Regular-32"/>
       <use xlink:href="#JosefinSans-Regular-2e" x="54.499985"/>
       <use xlink:href="#JosefinSans-Regular-35" x="71.399979"/>
      </g>
     </g>
    </g>
   </g>
   <g id="line2d_25">
    <path d="M 64.279906 238.895052 
L 71.944358 238.895052 
L 79.608811 238.895048 
L 87.273264 238.895007 
L 94.937716 238.894807 
L 102.602169 238.894147 
L 110.266622 238.892435 
L 117.931074 238.888663 
L 125.595527 238.881276 
L 133.25998 238.868035 
L 140.924432 238.84589 
L 148.588885 238.810862 
L 156.253338 238.757932 
L 163.91779 238.680955 
L 171.582243 238.572589 
L 179.246696 238.424248 
L 186.911148 238.226079 
L 194.575601 237.966963 
L 202.240054 237.634548 
L 209.904506 237.215298 
L 217.568959 236.694582 
L 225.233412 236.056781 
L 232.897864 235.285424 
L 240.562317 234.363343 
L 248.22677 233.272863 
L 255.891222 231.996 
L 263.555675 230.514689 
L 271.220128 228.811019 
L 278.88458 226.867495 
L 286.549033 224.6673 
L 294.213486 222.194571 
L 301.877938 219.434683 
L 309.542391 216.37453 
L 317.206844 213.002812 
L 324.871296 209.310313 
L 332.535749 205.290171 
L 340.200202 200.938144 
L 347.864654 196.252854 
L 355.529107 191.236016 
L 363.19356 185.892648 
L 370.858012 180.231257 
L 378.522465 174.26399 
L 386.186918 168.006765 
L 393.85137 161.479363 
L 401.515823 154.705481 
L 409.180276 147.712754 
L 416.844728 140.532731 
L 424.509181 133.200805 
L 432.173634 125.756107 
L 439.838086 118.241347 
L 447.502539 110.702605 
L 455.166991 103.189087 
L 462.831444 95.752813 
L 470.495897 88.448277 
L 478.160349 81.332041 
L 485.824802 74.462296 
L 493.489255 67.898364 
L 501.153707 61.700169 
L 508.81816 55.927658 
L 516.482613 50.640185 
L 524.147065 45.895859 
L 531.811518 41.750868 
L 539.475971 38.258766 
L 547.140423 35.46975 
L 554.804876 33.429913 
L 562.469329 32.180495 
L 570.133781 31.757136 
L 577.798234 32.189129 
L 585.462687 33.498699 
L 593.127139 35.700304 
L 600.791592 38.799975 
L 608.456045 42.794708 
L 616.120497 47.671914 
L 623.78495 53.40895 
L 631.449403 59.972735 
L 639.113855 67.319472 
L 646.778308 75.394497 
L 654.442761 84.132257 
L 662.107213 93.456457 
L 669.771666 103.280371 
L 677.436119 113.507364 
L 685.100571 124.031617 
L 692.765024 134.73911 
L 700.429477 145.508859 
L 708.093929 156.214443 
L 715.758382 166.725862 
L 723.422835 176.911718 
L 731.087287 186.641788 
L 738.75174 195.789991 
L 746.416193 204.237793 
L 754.080645 211.878075 
L 761.745098 218.619509 
L 769.409551 224.39147 
L 777.074003 229.149518 
L 784.738456 232.881496 
L 792.402909 235.614282 
L 800.067361 237.421229 
L 807.731814 238.43035 
L 815.396267 238.833277 
L 823.060719 238.895052 
" clip-path="url(#p4eb851dd43)" style="fill: none; stroke: #cfcfcf; stroke-width: 1.5; stroke-linecap: round"/>
   </g>
   <g id="line2d_26">
    <path d="M 64.279906 238.87129 
L 71.944358 238.863904 
L 79.608811 238.854391 
L 87.273264 238.842191 
L 94.937716 238.826614 
L 102.602169 238.806812 
L 110.266622 238.781749 
L 117.931074 238.750168 
L 125.595527 238.710549 
L 133.25998 238.661064 
L 140.924432 238.599531 
L 148.588885 238.523355 
L 156.253338 238.429471 
L 163.91779 238.314279 
L 171.582243 238.173574 
L 179.246696 238.002476 
L 186.911148 237.795356 
L 194.575601 237.545761 
L 202.240054 237.246343 
L 209.904506 236.88879 
L 217.568959 236.463761 
L 225.233412 235.960841 
L 232.897864 235.368492 
L 240.562317 234.674039 
L 248.22677 233.863669 
L 255.891222 232.922451 
L 263.555675 231.834397 
L 271.220128 230.582547 
L 278.88458 229.149102 
L 286.549033 227.515586 
L 294.213486 225.663067 
L 301.877938 223.572416 
L 309.542391 221.224612 
L 317.206844 218.6011 
L 324.871296 215.684188 
L 332.535749 212.457492 
L 340.200202 208.906408 
L 347.864654 205.018618 
L 355.529107 200.784614 
L 363.19356 196.198227 
L 370.858012 191.257151 
L 378.522465 185.963448 
L 386.186918 180.324019 
L 393.85137 174.351017 
L 401.515823 168.0622 
L 409.180276 161.481188 
L 416.844728 154.637633 
L 424.509181 147.56726 
L 432.173634 140.311797 
L 439.838086 132.918754 
L 447.502539 125.441072 
L 455.166991 117.936629 
L 462.831444 110.467592 
L 470.495897 103.09965 
L 478.160349 95.901113 
L 485.824802 88.941903 
L 493.489255 82.292459 
L 501.153707 76.022576 
L 508.81816 70.200195 
L 516.482613 64.89019 
L 524.147065 60.153174 
L 531.811518 56.044344 
L 539.475971 52.612418 
L 547.140423 49.898671 
L 554.804876 47.936109 
L 562.469329 46.748803 
L 570.133781 46.351396 
L 577.798234 46.748803 
L 585.462687 47.936109 
L 593.127139 49.89867 
L 600.791592 52.612418 
L 608.456045 56.044344 
L 616.120497 60.153173 
L 623.78495 64.89019 
L 631.449403 70.200194 
L 639.113855 76.022576 
L 646.778308 82.292459 
L 654.442761 88.941902 
L 662.107213 95.901112 
L 669.771666 103.099649 
L 677.436119 110.467591 
L 685.100571 117.936628 
L 692.765024 125.441072 
L 700.429477 132.918753 
L 708.093929 140.311796 
L 715.758382 147.56726 
L 723.422835 154.637632 
L 731.087287 161.481188 
L 738.75174 168.062199 
L 746.416193 174.351017 
L 754.080645 180.324018 
L 761.745098 185.963447 
L 769.409551 191.25715 
L 777.074003 196.198227 
L 784.738456 200.784614 
L 792.402909 205.018618 
L 800.067361 208.906408 
L 807.731814 212.457492 
L 815.396267 215.684188 
L 823.060719 218.6011 
" clip-path="url(#p4eb851dd43)" style="fill: none; stroke: #81aca4; stroke-width: 1.5; stroke-linecap: round"/>
   </g>
   <g id="text_14">
    <!-- n = 9 -->
    <g style="fill: #262626" transform="translate(424.151563 15.40024)scale(0.16 -0.16)">
     <defs>
      <path id="JosefinSans-Regular-3d" d="M 3930 2509 
L 3930 1984 
L 653 1984 
L 653 2509 
L 3930 2509 
z
M 3930 1254 
L 3930 730 
L 653 730 
L 653 1254 
L 3930 1254 
z
" transform="scale(0.015625)"/>
      <path id="JosefinSans-Regular-39" d="M 1715 4192 
Q 2138 4192 2483 4003 
Q 2829 3814 3027 3478 
Q 3226 3142 3226 2714 
Q 3226 2093 2928 1587 
Q 2630 1082 2195 707 
Q 1760 333 1126 -83 
L 710 378 
Q 1267 659 1676 982 
Q 2086 1306 2298 1626 
Q 1997 1382 1510 1382 
Q 1184 1382 893 1558 
Q 602 1734 422 2038 
Q 243 2342 243 2720 
Q 243 3155 448 3491 
Q 653 3827 989 4009 
Q 1325 4192 1715 4192 
z
M 883 2758 
Q 883 2381 1129 2144 
Q 1376 1907 1741 1907 
Q 2112 1907 2352 2128 
Q 2592 2349 2592 2688 
L 2592 2810 
Q 2579 3149 2336 3389 
Q 2093 3629 1741 3629 
Q 1376 3629 1129 3385 
Q 883 3142 883 2758 
z
" transform="scale(0.015625)"/>
     </defs>
     <use xlink:href="#JosefinSans-Regular-6e"/>
     <use xlink:href="#JosefinSans-Regular-20" x="55.299988"/>
     <use xlink:href="#JosefinSans-Regular-3d" x="86.899979"/>
     <use xlink:href="#JosefinSans-Regular-20" x="158.59996"/>
     <use xlink:href="#JosefinSans-Regular-39" x="190.199951"/>
    </g>
   </g>
   <g id="legend_1">
    <g id="line2d_27">
     <path d="M 38.940865 39.95024 
L 52.940865 39.95024 
L 66.940865 39.95024 
" style="fill: none; stroke: #cfcfcf; stroke-width: 1.5; stroke-linecap: round"/>
    </g>
    <g id="text_15">
     <!-- True posterior -->
     <g style="fill: #262626" transform="translate(78.140865 44.85024)scale(0.14 -0.14)">
      <defs>
       <path id="JosefinSans-Regular-54" d="M 3398 4627 
L 3398 4032 
L 2157 4032 
L 2157 0 
L 1536 0 
L 1536 4032 
L 326 4032 
L 326 4627 
L 3398 4627 
z
" transform="scale(0.015625)"/>
       <path id="JosefinSans-Regular-75" d="M 2982 2650 
L 2982 0 
L 2445 0 
L 2406 506 
Q 2272 237 1990 67 
Q 1709 -102 1363 -102 
Q 998 -102 764 118 
Q 531 339 518 691 
L 518 2650 
L 1114 2650 
L 1114 902 
Q 1126 678 1244 547 
Q 1363 416 1600 410 
Q 1818 410 1997 541 
Q 2176 672 2281 902 
Q 2387 1133 2387 1414 
L 2387 2650 
L 2982 2650 
z
" transform="scale(0.015625)"/>
       <path id="JosefinSans-Regular-73" d="M 1267 -58 
Q 973 -58 707 44 
Q 442 147 275 346 
L 531 691 
Q 691 538 867 454 
Q 1043 371 1216 371 
Q 1427 371 1561 454 
Q 1696 538 1696 710 
Q 1696 845 1613 928 
Q 1530 1011 1424 1049 
Q 1318 1088 1069 1165 
Q 390 1382 390 1939 
Q 390 2272 636 2509 
Q 883 2746 1325 2746 
Q 1606 2746 1824 2675 
Q 2042 2605 2227 2451 
L 1990 2086 
Q 1888 2195 1731 2259 
Q 1574 2323 1434 2330 
Q 1254 2330 1126 2243 
Q 998 2157 998 2010 
Q 998 1888 1081 1808 
Q 1165 1728 1254 1693 
Q 1344 1658 1606 1574 
Q 1933 1466 2115 1293 
Q 2298 1120 2298 826 
Q 2298 442 2029 192 
Q 1760 -58 1267 -58 
z
" transform="scale(0.015625)"/>
      </defs>
      <use xlink:href="#JosefinSans-Regular-54"/>
      <use xlink:href="#JosefinSans-Regular-72" x="58.199997"/>
      <use xlink:href="#JosefinSans-Regular-75" x="95.799988"/>
      <use xlink:href="#JosefinSans-Regular-65" x="150.499985"/>
      <use xlink:href="#JosefinSans-Regular-20" x="202.499969"/>
      <use xlink:href="#JosefinSans-Regular-70" x="234.09996"/>
      <use xlink:href="#JosefinSans-Regular-6f" x="293.399948"/>
      <use xlink:href="#JosefinSans-Regular-73" x="347.899933"/>
      <use xlink:href="#JosefinSans-Regular-74" x="388.699921"/>
      <use xlink:href="#JosefinSans-Regular-65" x="424.699905"/>
      <use xlink:href="#JosefinSans-Regular-72" x="476.69989"/>
      <use xlink:href="#JosefinSans-Regular-69" x="514.299881"/>
      <use xlink:href="#JosefinSans-Regular-6f" x="539.799866"/>
      <use xlink:href="#JosefinSans-Regular-72" x="594.29985"/>
     </g>
    </g>
    <g id="line2d_28">
     <path d="M 38.940865 60.587115 
L 52.940865 60.587115 
L 66.940865 60.587115 
" style="fill: none; stroke: #81aca4; stroke-width: 1.5; stroke-linecap: round"/>
    </g>
    <g id="text_16">
     <!-- Quadratic approximation -->
     <g style="fill: #262626" transform="translate(78.140865 65.487115)scale(0.14 -0.14)">
      <defs>
       <path id="JosefinSans-Regular-51" d="M 5306 0 
L 3226 0 
Q 2982 -51 2739 -51 
Q 2099 -51 1555 262 
Q 1011 576 694 1117 
Q 378 1658 378 2310 
Q 378 2944 698 3488 
Q 1018 4032 1558 4355 
Q 2099 4678 2739 4678 
Q 3373 4678 3917 4355 
Q 4461 4032 4784 3488 
Q 5107 2944 5107 2310 
Q 5107 1818 4915 1376 
Q 4723 934 4378 608 
L 5306 608 
L 5306 0 
z
M 1018 2304 
Q 1018 1830 1248 1427 
Q 1478 1024 1878 787 
Q 2278 550 2752 550 
Q 3226 550 3619 784 
Q 4013 1018 4240 1424 
Q 4467 1830 4467 2310 
Q 4467 2784 4236 3187 
Q 4006 3590 3609 3827 
Q 3213 4064 2739 4064 
Q 2266 4064 1869 3824 
Q 1472 3584 1245 3181 
Q 1018 2778 1018 2304 
z
" transform="scale(0.015625)"/>
       <path id="JosefinSans-Regular-64" d="M 3283 4960 
L 3283 0 
L 2682 0 
L 2682 416 
Q 2490 192 2211 64 
Q 1933 -64 1600 -64 
Q 1229 -64 928 115 
Q 627 294 457 617 
Q 288 941 288 1363 
Q 288 1792 467 2109 
Q 646 2426 960 2592 
Q 1274 2758 1670 2758 
Q 1971 2758 2249 2633 
Q 2528 2509 2688 2291 
L 2688 4960 
L 3283 4960 
z
M 1786 448 
Q 2131 448 2371 633 
Q 2611 819 2682 1133 
L 2682 1632 
Q 2605 1920 2355 2102 
Q 2106 2285 1786 2285 
Q 1542 2285 1337 2166 
Q 1133 2048 1011 1840 
Q 890 1632 890 1370 
Q 890 1114 1011 902 
Q 1133 691 1337 569 
Q 1542 448 1786 448 
z
" transform="scale(0.015625)"/>
       <path id="JosefinSans-Regular-63" d="M 2669 250 
Q 2490 102 2243 19 
Q 1997 -64 1741 -64 
Q 1312 -64 982 109 
Q 653 282 470 598 
Q 288 915 288 1331 
Q 288 1741 480 2057 
Q 672 2374 992 2547 
Q 1312 2720 1683 2720 
Q 2291 2720 2688 2387 
L 2387 1997 
Q 2259 2093 2092 2160 
Q 1926 2227 1734 2227 
Q 1498 2227 1302 2108 
Q 1107 1990 995 1785 
Q 883 1581 883 1331 
Q 883 1082 1001 877 
Q 1120 672 1325 550 
Q 1530 429 1792 429 
Q 2118 429 2362 621 
L 2669 250 
z
" transform="scale(0.015625)"/>
       <path id="JosefinSans-Regular-78" d="M 2138 0 
L 1427 934 
L 762 0 
L 154 0 
L 1126 1331 
L 122 2650 
L 864 2650 
L 1562 1728 
L 2157 2650 
L 2758 2650 
L 1837 1363 
L 2861 0 
L 2138 0 
z
" transform="scale(0.015625)"/>
       <path id="JosefinSans-Regular-6d" d="M 3917 2758 
Q 4301 2758 4528 2540 
Q 4755 2323 4768 1965 
L 4768 0 
L 4173 0 
L 4173 1747 
Q 4154 2214 3750 2240 
Q 3520 2240 3337 2102 
Q 3155 1965 3052 1741 
Q 2950 1517 2944 1261 
L 2944 0 
L 2342 0 
L 2342 1747 
Q 2323 2214 1907 2240 
Q 1683 2240 1500 2102 
Q 1318 1965 1216 1737 
Q 1114 1510 1114 1254 
L 1114 0 
L 518 0 
L 518 2650 
L 1056 2650 
L 1101 2150 
Q 1254 2438 1520 2598 
Q 1786 2758 2125 2758 
Q 2445 2758 2662 2608 
Q 2880 2458 2944 2195 
Q 3110 2458 3366 2608 
Q 3622 2758 3917 2758 
z
" transform="scale(0.015625)"/>
      </defs>
      <use xlink:href="#JosefinSans-Regular-51"/>
      <use xlink:href="#JosefinSans-Regular-75" x="88.799988"/>
      <use xlink:href="#JosefinSans-Regular-61" x="143.499985"/>
      <use xlink:href="#JosefinSans-Regular-64" x="202.199982"/>
      <use xlink:href="#JosefinSans-Regular-72" x="261.499969"/>
      <use xlink:href="#JosefinSans-Regular-61" x="299.09996"/>
      <use xlink:href="#JosefinSans-Regular-74" x="357.799957"/>
      <use xlink:href="#JosefinSans-Regular-69" x="393.799942"/>
      <use xlink:href="#JosefinSans-Regular-63" x="419.299927"/>
      <use xlink:href="#JosefinSans-Regular-20" x="464.899918"/>
      <use xlink:href="#JosefinSans-Regular-61" x="496.499908"/>
      <use xlink:href="#JosefinSans-Regular-70" x="555.199905"/>
      <use xlink:href="#JosefinSans-Regular-70" x="614.499893"/>
      <use xlink:href="#JosefinSans-Regular-72" x="673.799881"/>
      <use xlink:href="#JosefinSans-Regular-6f" x="711.399872"/>
      <use xlink:href="#JosefinSans-Regular-78" x="765.899857"/>
      <use xlink:href="#JosefinSans-Regular-69" x="812.499847"/>
      <use xlink:href="#JosefinSans-Regular-6d" x="837.999832"/>
      <use xlink:href="#JosefinSans-Regular-61" x="920.499817"/>
      <use xlink:href="#JosefinSans-Regular-74" x="979.199814"/>
      <use xlink:href="#JosefinSans-Regular-69" x="1015.199799"/>
      <use xlink:href="#JosefinSans-Regular-6f" x="1040.699783"/>
      <use xlink:href="#JosefinSans-Regular-6e" x="1095.199768"/>
     </g>
    </g>
   </g>
  </g>
 </g>
 <defs>
  <clipPath id="p4eb851dd43">
   <rect x="26.340865" y="21.40024" width="834.658895" height="227.851708"/>
  </clipPath>
 </defs>
</svg>
